<?xml version="1.0" encoding="UTF-8"?>
<svg id="Camada_1" xmlns="http://www.w3.org/2000/svg" version="1.1" viewBox="0 0 500 500">
  <!-- Generator: Adobe Illustrator 30.3.0, SVG Export Plug-In . SVG Version: 2.1.3 Build 182)  -->
  <defs>
    <style>
      .st0 {
        fill: #e3ceb1;
      }

      .st1 {
        fill: #685139;
      }

      .st2 {
        fill: #f4ece0;
      }

      .st3 {
        fill: #70573f;
      }

      .st4 {
        fill: #fbfaf9;
      }

      .st5 {
        fill: #666c47;
      }

      .st6 {
        fill: #c4943f;
      }

      .st7 {
        fill: #f4ede0;
      }

      .st8 {
        fill: #675139;
      }

      .st9 {
        fill: #856c52;
      }

      .st10 {
        fill: #faf9f7;
      }

      .st11 {
        fill: #c8bd9a;
      }

      .st12 {
        fill: #747751;
      }

      .st13 {
        fill: #f6efe6;
      }

      .st14 {
        fill: #dfcaab;
      }

      .st15 {
        fill: #6b543b;
      }

      .st16 {
        fill: #e9dac5;
      }

      .st17 {
        fill: #f3eade;
      }

      .st18 {
        fill: #b96037;
      }

      .st19 {
        fill: #6e563e;
      }

      .st20 {
        fill: #f4eee3;
      }

      .st21 {
        fill: #c69642;
      }

      .st22 {
        fill: #6b543d;
      }

      .st23 {
        fill: #43392d;
      }

      .st24 {
        fill: #6a533a;
      }

      .st25 {
        fill: #6a523b;
      }

      .st26 {
        fill: #f0ddc4;
      }

      .st27 {
        fill: #735b42;
      }

      .st28 {
        fill: #42392d;
      }

      .st29 {
        fill: #f5ede2;
      }

      .st30 {
        fill: #68513a;
      }

      .st31 {
        fill: #6a533d;
      }

      .st32 {
        fill: #f9f6f3;
      }

      .st33 {
        fill: #624d39;
      }

      .st34 {
        fill: #f2e9d9;
      }

      .st35 {
        fill: #f4ede2;
      }

      .st36 {
        fill: #efe6d7;
      }

      .st37 {
        fill: #6e553b;
      }

      .st38 {
        fill: #5b4833;
      }

      .st39 {
        fill: #fbfbfb;
      }

      .st40 {
        fill: #6a543d;
      }

      .st41 {
        fill: #cbb28a;
      }

      .st42 {
        fill: #826a51;
      }

      .st43 {
        fill: #ba6037;
      }

      .st44 {
        fill: #f6f2eb;
      }

      .st45 {
        fill: #e8d8c4;
      }

      .st46 {
        fill: #fbfbfa;
      }

      .st47 {
        fill: #6b543e;
      }

      .st48 {
        fill: #f0e6d7;
      }

      .st49 {
        fill: #674e38;
      }

      .st50 {
        fill: #f4ede1;
      }

      .st51 {
        fill: #6a543e;
      }

      .st52 {
        fill: #f4eee4;
      }

      .st53 {
        fill: #f2e9dd;
      }

      .st54 {
        fill: #e0ccaf;
      }

      .st55 {
        fill: #66503a;
      }

      .st56 {
        fill: #4b4133;
      }

      .st57 {
        fill: #584833;
      }

      .st58 {
        fill: #644d38;
      }

      .st59 {
        fill: #92926c;
      }

      .st60 {
        fill: #69523a;
      }

      .st61 {
        fill: #c7ae84;
      }

      .st62 {
        fill: #b9b28c;
      }

      .st63 {
        fill: #6a5339;
      }

      .st64 {
        fill: #e7d7c2;
      }

      .st65 {
        fill: #c79641;
      }

      .st66 {
        fill: #f7f1ea;
      }

      .st67 {
        fill: #42382d;
      }

      .st68 {
        fill: #443b30;
      }

      .st69 {
        fill: #888963;
      }

      .st70 {
        fill: #696e48;
      }

      .st71 {
        fill: #676c47;
      }

      .st72 {
        fill: #e8d9c5;
      }

      .st73 {
        fill: #f3eadd;
      }

      .st74 {
        fill: #c69844;
      }

      .st75 {
        fill: #c59744;
      }

      .st76 {
        fill: #685239;
      }

      .st77 {
        fill: #8c8d66;
      }

      .st78 {
        fill: #675037;
      }

      .st79 {
        fill: #c59846;
      }

      .st80 {
        fill: #8e8e67;
      }

      .st81 {
        fill: #f1e7d9;
      }

      .st82 {
        fill: #e9dbc7;
      }

      .st83 {
        fill: #685037;
      }

      .st84 {
        fill: #634d39;
      }

      .st85 {
        fill: #dac8ae;
        stroke: #fff;
        stroke-miterlimit: 10;
        stroke-width: 24.9px;
      }

      .st86 {
        fill: #6c543d;
      }

      .st87 {
        fill: #68523a;
      }

      .st88 {
        fill: #dfc2a1;
      }

      .st89 {
        fill: #6f5840;
      }

      .st90 {
        fill: #6a523a;
      }

      .st91 {
        fill: #745b41;
      }

      .st92 {
        fill: #4a4033;
      }

      .st93 {
        fill: #dcb87b;
      }

      .st94 {
        fill: #665038;
      }

      .st95 {
        fill: #f1e8d9;
      }

      .st96 {
        fill: #fbf9f7;
      }

      .st97 {
        fill: #433a30;
      }

      .st98 {
        fill: #f7f3ec;
      }

      .st99 {
        fill: #6b6f49;
      }

      .st100 {
        fill: #98836d;
      }

      .st101 {
        fill: #d7b072;
      }

      .st102 {
        fill: #725b44;
      }

      .st103 {
        fill: #644e37;
      }

      .st104 {
        fill: #f7f2ea;
      }

      .st105 {
        fill: #cabe9c;
      }

      .st106 {
        fill: #f1e7da;
      }

      .st107 {
        fill: #f4eee5;
      }

      .st108 {
        fill: #f0e6d8;
      }

      .st109 {
        fill: #d3a861;
      }

      .st110 {
        fill: #604b36;
      }

      .st111 {
        fill: #f1e8db;
      }

      .st112 {
        fill: #6a5239;
      }

      .st113 {
        fill: #6f573e;
      }

      .st114 {
        fill: #695239;
      }
    </style>
  </defs>
  <ellipse class="st85" cx="250.5" cy="250" rx="216.5" ry="217.6"/>
  <g>
    <path class="st45" d="M89.2,359.6c-3.8,2.2-7.8,4.2-10.9,7.6l-11.1-19.4c1.4-.8,1.3-1.8,2.5-1.7s.3-.5.2-.7c3.2,7,8.8,12.8,17.1,12.4l2.2,1.8Z"/>
    <path class="st45" d="M433.4,154.1l-6.6,6.2c-.6.6-.8,1.4-.8,2.1-.7-.5-.5-1.1-.7-2s-1.5-2.3-.6-3.3,1.4-.3,1.5-.7l.4-1.4c.3-1.2,2.1-.7,2.7-1.1.6-1.1,1-2.5,2.3-3.1l1.8,3.3Z"/>
    <path class="st40" d="M434.6,157.2l-6,5.7c-.5.4-1.3.5-1.8.3s-.5-.6-.8-.9c0-.7.2-1.5.8-2.1l6.6-6.2c.9-.1,1.5.3,1.8,1.2s0,1.4-.5,1.9Z"/>
    <path class="st64" d="M270,281.6c-.3.7-.9,1.7-.6,2.6s1.5,1.1,2.4.8c-.3.5-1,.5-1.8.7,1.1.6,2.3,0,3-.9.4.1.7.4.6.6-.1.4-3.6,3.3-.6,8.1-.6.8-2.1,1.4-2.8.7s.8-2.5-.3-4.2-.5-.5-1-.1h-1.7c0-.3-.4-.2-.6-.2s-.4,0-.4.4c-.1-1.8,2.3-.3,3-2-2.7-1-1.6-2-2.2-5.2s1.1-.8,1.5-.8,1-.9,1.6-.4Z"/>
    <path class="st64" d="M391.8,250l.4.7c.2.3,1-.1,1.3,0,1.3.8,2.7,2.5,3,4.4-.4.1-1.5.2-1.6.7-.3,1-.4,2.4.2,3.3l1.2.7c.3.2.3,1.4-.2,1.5s-1.1,0-1.3.1-.2.7-.5,1.1c-.5-1.4.2-3.1-.6-3.6.1-1.5.7-3.2-.3-4.4l-.8-1c.7-2.6-1.5.2-2.7-.4s-.3-2.3-2.3-2.9c-.3-1.3,2.2-2.2,2.5-1.7l.7,1,.2-4.3c0-.3.3-.4.5-.4v4.3c0,.5.3.8.4,1Z"/>
    <path class="st60" d="M269.6,322.6c.6,2.3,1.4,4.5,2.8,6.4s.4,1.3,1.1,1.6c.6.9.6,2-.2,2.9-.6-.2-1.8,0-2.3-.6l-1-1c-.2-1.4-1-2.4-1.5-3.5-.9-1.7-1.7-3.5-1.4-5.4.7-.7,1.8-.8,2.7-.4Z"/>
    <path class="st24" d="M267,311c0,1.3,0,2.4.4,3.7s.3,2-.4,2.5-1.4.5-2.1,0-1.8-7.5-.9-10.8,2.6-.5,2.7.4l.2,4.1Z"/>
    <path class="st64" d="M293.9,193l2.7,1.2c0,1.2-1,1.8-1.6,2.6-1.7,2.3,2.7,3.7,1.1,5.3s-.9.7-1.4.8c0-.5-.2-1-.5-1.3-.8-.9-1.9-1.2-3-.6l-.8-.8c-.1-1.5-2-2-1.9-3s.4-1,.6-1.3c.3,1.1.9.3.7-.2.1.7.7,1.3,1.3,1.4s1.7-.2,1.9-1,.1-1.2,0-1.7c0-.8.2-1.4.9-1.4Z"/>
    <path class="st113" d="M291.3,347.5c1.5,1.3,3.6,1.8,5.4,2.4s1.7.5,2.3,1.1.3,1.4.3,1.8c-.6.4-1.4,1-2.1.8l-3-1-2.8-1.3-1.7-.8c-.6-.3-1.1-.9-1.1-1.6.4-.6.5-1.1.8-1.4.6-.4,1.6-.4,1.9,0Z"/>
    <path class="st90" d="M268.8,289.8c.2.4.7,1.1.8,1.7-.9,2.7-1.6,5.3-1.8,8.1s-.6,1.1-1,1.3c-.9.2-1.7-.5-2.4-1l1.5-7.5c.2-1,.4-2,1.3-2.5h1.7Z"/>
    <path class="st40" d="M347.4,348c0,.5-.7,1-1.2,1.3l-6.5,3.3c-.7,0-1.8.2-2.2-.4s-.4-1.4-.3-2c.7-.6,1.7-.8,2.6-1.3l5.7-2.9c.6-.1,1.4,0,1.6.5s.3,1.1.2,1.5Z"/>
    <path class="st83" d="M275.9,275.7c.3,1.4-.5,2.4-1.1,3.6l-3,5.7c-.8.3-2.1.2-2.4-.8s.3-1.9.6-2.6l1.3-2.7,2.3-3.9c.8-.2,1.6.1,2.3.7Z"/>
    <path class="st103" d="M360.1,338.3l-1.5,1.6-3.2,2.7c-.9.8-1.9,1.5-3,1.6-.8-.2-1.2-.8-1.2-1.4s.2-1.2.8-1.6l1.5-1.3,2.4-2c.5-.5,1.3-.8,1.6-1.6.2.2,1,0,.6-.5.8.2,1.4.4,1.7.8s.5,1.1.4,1.6Z"/>
    <path class="st110" d="M369.9,327.4c-.9.4-1.3,1.5-1.9,2.2l-2.6,2.9c-.8.9-1.7,1.2-2.6.5s-.7-1.6,0-2.4l4.3-5.2c.7-.8,1.7-1.2,2.4-.6s.7,1.6.4,2.5Z"/>
    <path class="st49" d="M390.8,269.2c1.4.5,1.5,1.7,1.2,3l-1.2,6.3c-.2,1-1.3,1.3-2.1,1.1s-1.2-1.2-1-2.2l1.2-6.7c.2-1.1,1-1.6,1.8-1.5Z"/>
    <path class="st30" d="M388.9,287.2l-.9,3-.8,2.3c-.4,1.2-1,1.5-1.7,1.8-.6-.1-1.1-.4-1.4-1s-.2-.9,0-1.5l2-6.7c.2-.5.5-.9.8-1.1.6,0,1.7-.1,2.1.7s0,1.8-.1,2.4Z"/>
    <path class="st78" d="M394.8,241.1l-.8,8.6c-.7.4-1.4.5-2.2.2-.1-.2-.5-.5-.5-1v-4.3c0,0,.2-2.7.2-2.7,0-.8.3-1.4.6-2,1.2-.3,2.3,0,2.7,1.2Z"/>
    <path class="st55" d="M377.4,315.9c-.5,1.1-1.4,2.1-1.9,3.2s-.4.6-.5.7c-.4.5-.8,1.1-1.2,1.4-.6.4-1.6,0-2.2-.2-.3-1,0-2,.6-2.9l3.3-5.4c.5-.8,1.5-.8,2.1-.5s1,1.2.6,2.1l-.7,1.6Z"/>
    <path class="st112" d="M393.4,254.5c1,1.2.4,2.8.3,4.4l-.4,4.3c-.1,1.2-.9,1.7-1.8,1.7s-1.6-.9-1.4-2.1l.8-7.2c.1-1.1,1.7-1.2,2.6-1.1Z"/>
    <path class="st25" d="M384.6,299c.1,1.1-.2,2.1-.7,3.3l-1.8,4.1c-.5,1.2-1.4,2-2.7,1.7-.5-.5-1-1.3-.6-2.3l2.8-6.3c.2-.6.7-.9,1.1-1.3.6.1,1.4.3,2,.8Z"/>
    <path class="st64" d="M398,237.3c-.6.5,0,1.4,0,2.1-3.3,2.3.3,4.1-2.3,5.7-1.1-1.1.3-5-.9-3.9-.4-1.2-1.5-1.5-2.7-1.2.3-.5,1.2-.6,1.9-.2.2-.6-.4-.6-.4-.8s.4-.3.6-.8c-1,.5-1.3,0-1.8-.1,3.3.4,6.2-1.5,7.8-4.4.9.2,2,.5,2.1,1.5s-.1,1.2-.4,1.4c-.9.7-1.8-1.1-4,.8Z"/>
    <path class="st64" d="M384.6,299c-.5-.5-1.4-.6-2-.8-.2,0-.4-.5-.8,0s-1.1,1.1-1.3,2c-.5-1.3,0-3.5,1.4-4.2l3.7-1.7c.7-.3,1.3-.6,1.7-1.8l.8-2.3c-.3,1.2,1.1,1.1.6-.1.7.5,1.9,2.4.7,3.4s-3.1.8-3.2,2.1l-.4,4.9c-.4-.3-.3-1.1-.3-1.5s-.4-.5-.7,0Z"/>
    <path class="st64" d="M178.1,400.2l.8.6-1.6,2.8c-.2.4-.6.6-.9.6-.7,0-1.6-1.7-2.3-1.3l-1.3.7c-1.5-1.9-2.4,1.4-3.6.7s-.8-.8-1.3-1.6c.6-.5,1.3-.2,1.9-.1l.4-.3c-.4-.5-1-.2-1.4-.4l7.2-1.3,2.3-.5Z"/>
    <path class="st64" d="M358,357.8c-1.7,1.4-3.4.8-6.1,3.4-1-.5-.6-1.8,0-2.3l4.3-3.1c.9-.7,2.9-1.5,3.5-.1s-1.2,1.7-1.7,2.1Z"/>
    <path class="st64" d="M185.1,398.1l9.9-4.2c1.3,1.7-3.1.4-3.7,4.9.6-.1,1,0,1.2.2s0,.5-.2.6c-1,.5-2.5-1.2-5.3-.3-.4-.7-1.1-1.4-1.9-1.3Z"/>
    <path class="st64" d="M392.1,272.2c.3-1.3.2-2.5-1.2-3,.4,0,.9,0,.9-.6-1.1,0-2.1.4-3,.8-1.8-.9,0-2.2.4-4.9.6,0,1,.4,1.3.7s-.4,1.2-.3,1.7c.4,1.5,2.3,1.6,4.1,1.7-2,2.8-.3,4.2-.9,5.1s-.6.8-.9.2c0-.6.1-1.4-.3-1.7Z"/>
    <path class="st64" d="M388.9,287.2c.2-.6.4-1.7.1-2.4s-1.4-.8-2.1-.7c.2,0,.4-.6,1.1-.3.3-.4,0-1.1-.9-.7,1.4-.3,3.4-1,4.9-.5,0,.9,0,2.2,1.2,2.7l-3.7,2.8c-.1-.3-.3-.5-.6-.8Z"/>
    <path class="st64" d="M264.4,300c.7.5,1.5,1.2,2.4,1,1,.7,1,1.8.5,2-.8.3-1.2.6-1.4,1.2s-1,.9-1.7.8-.7-.9-.6-1.5c.3-1.5-1.9-2.5-.6-3.9s.6-.9.6-1.4c-.1-.2-.2-.8.5-.7-.3.9-.5,2,.2,2.5Z"/>
    <path class="st64" d="M358.6,340l1.5-1.6c0,.1.2.3.3.3s.2-.2.4-.5c.4-.8-.3-1.8-1-2.1s-1.1-.6-1.8-.1c.4.5-.4.7-.6.5-.4-.4-1,.5-1.3.6-.7,0-1.2-1.2-.9-1.8s1-1.6,2-1.5c2.1.2,5.3,3.3,4.5,5.1,0,.1-2.1,1.6-3.2,1.1Z"/>
    <path class="st64" d="M201,390.3c3.2-2.2,6-4.9,8.1-8.2.4.3.7.4,1.1.3-.4,1.1-.5,1.8-.4,2.9l-1.7-.2c-1.9,2.2-3.8,4.1-6.1,5.6l-.9-.4Z"/>
    <path class="st64" d="M279.1,272.1c-.2-.1-.5.3-.4.4l2.7,1.6c-.9.8-2,1.2-3.1,1.3-.4-.4-1-1-1.4-1.2-.4-.2-.7-.9-1-1.4.7-.8,1.2-1.6,1.1-2.5.2,1.1,1.1,1.4,2,2Z"/>
    <path class="st64" d="M337.3,350.2c-.1.6-.2,1.5.3,2s1.5.5,2.2.4c-.5.5-1.2.4-2.1.5.9.7,1.9.3,2.8.1-.1,1-.4,1.5-.9,2.3l-1.2-.7c-1.1-.7-2.4-1.2-3.1-2.4l.8-2.4c.4,0,.8.2,1.2.3Z"/>
    <path class="st64" d="M379.4,308.1c1.3.3,2.2-.5,2.7-1.7,0,.2-.2.6.3.9,0-.2.5-.7.7-.6s.6.6.6.9c0,1.8-2.5,3.5-4.2,2.6s0-1.7,0-2.1Z"/>
    <path class="st64" d="M352.4,344.3c1.1-.2,2.1-.9,3-1.6.5.4,1.6,1.2,1.1,1.9l-2.7.8c-.2.7-.2,1.3-.5,1.7-1.1-.3-1.6-.8-1.8-1.5s.3-1.2.9-1.3Z"/>
    <path class="st64" d="M371.6,321c.6.1,1.6.6,2.2.2s.8-.9,1.2-1.4c.5.6.4,2.3-.4,2.5l-3.8.8c-.5-1.6-.7-3.1-.1-4.5.1,1.2,0,2.1,1,2.4Z"/>
    <path class="st64" d="M346.5,357.9c-1.5,1.7-3.6,3.7-5.1,3.7-.7-2.3,2.1-3.6,5.1-3.7Z"/>
    <path class="st64" d="M348.3,345.1c.3.2.6.5.9.8-.1.6.2,1.2.3,1.9,0,.2-.8.4-.9.2l-.4-1.1c-.3.3-.4.7-.7,1,0-.5,0-1.1-.2-1.5s-1.1-.6-1.6-.5l-.9-.8c.4-.8,1.3-1.1,2.3-.6l1.3.6Z"/>
    <path class="st64" d="M268.3,328.3c-.5.2-1.1,0-1.5,0-.9-.3-1.3-1.2-1.2-2.2.8-.7,1.1-2.2.8-3.1h.5c-.3,1.9.6,3.7,1.4,5.4Z"/>
    <path class="st64" d="M150.2,403.7c0,.2-.1.5-.4.5h-14.9c-.3,0-.5-.3-.4-.5h15.8Z"/>
    <path class="st64" d="M338.1,364.3c-2.1,0-3,2.3-3.9.7l1.5-2.3c1,.3,1.2.8,2.4,1.6Z"/>
    <path class="st64" d="M368,329.7c.6-.7,1-1.8,1.9-2.2.4,0,.8,0,.9.3,0,.5.2,1.3,0,1.7-.5.9-1.9.6-2.7.3Z"/>
    <path class="st64" d="M346.2,350.3c.4.3.3,2.2-1.2,2.6s-.9-.4-1.2-1.1,2-1.8,2.4-1.6Z"/>
    <path class="st64" d="M130.4,404.5c1.2-.7,3.9-.3,4.4.6s.8,1.6-.4,2c-.7-2-2.1-2.7-4.1-2.5Z"/>
    <path class="st64" d="M340.6,359.2c-.8-.4-1.4-.4-1.6-.6s-.2-1.1,0-1.3.9-.4,1.4-.3c.8,0,.7.6.9.9.2.6-.3,1.5-.7,1.3Z"/>
    <path class="st64" d="M375.6,319.1c.4-1.1,1.4-2.2,1.9-3.2,1,.9-.6,3.2-1.3,3.5s-.4,0-.6-.3Z"/>
    <path class="st64" d="M322.8,374.8c.2,1.2-1.3,2.1-1.8,1.8-.6-.6.1-1.1.3-1.5s1.3-1.3,1.5-.2Z"/>
    <path class="st64" d="M328.5,356.9c-.1.6-.6,1-1.1,1.3s-1.2.2-1.8,0c-.8.4-1.1-.5-.4-.8l3.3-.5Z"/>
    <path class="st64" d="M320,360.3c.6,0,.8-.1,1-.1.2,0,.5.2.5.5s-.3.6-.7.6c-1.2-.2-2.2-.7-2.4-2.1,1-.1,1.3,1,1.7,1.2Z"/>
    <path class="st64" d="M340.4,364.2c-.5.3-.8.1-1-.1-.3-.5-.2-.8.4-1.2s.5-.4.8-.4c.6,0,.5.2.5.6,0,.6,0,.7-.7,1.1Z"/>
    <rect class="st64" x="254.1" y="307.9" width="1.2" height="2" transform="translate(-117.6 161.7) rotate(-28.9)"/>
    <path class="st45" d="M226.4,158.2l.7,1.1c.1.2.6.1,1.1,0l.3,2.8c-.7.1-1.2.1-1.8.8,5.5,3.1,5.7-2.2,8.3-1.4s.6.9.9,1.4c1.8.1,2.8,1.7,4,2.7v.9c-.5-.4-1.2-.6-1.9-.3l-6.7,2.8c-.9.4-1.4,1.1-1.4,2-.4.5-.7,1-1.6.8.2-1.4-.7-2.6-1.3-3.3-1-1.2-2.4-.7-3.7-.9"/>
    <path class="st45" d="M209.4,174.5"/>
    <path class="st45" d="M245.5,170.5c1.3,0,1.9,1.4,3.9,1.9-1.4.8-1.3,2.4-1.2,4.1s.9.5.9.2v-.8c.6-1.1,1.6-1.4,2.7-2.3l-2.2-.4c.4-.5.8-.3.9-.4h2.2c1.9.8,3.1,3,3.3,1.5s-1.1-.8-2-1.8l.8-.3c1.5.4,3,0,4.3-1.4.5,1.1,1,2.5,1.9,2.2.6-.2,1.3-1.8,2.2-1s.2,1.9-.1,2.8c2.5.4,2.6-2.1,4.3-2.4-.6,1.6-.2,1.8-1.5,3.4-.7.9-2.2.4-3,.6-1,1.3-1,3.1-2.5,4,.4,1.4.4,2.8.4,4.1.1.2,1.1.4,1.2.2,1-1.4,2.5-2.9,3.9-4,1.1-2.8,2.5-5.6,5.1-6.9-.8,1.9-2.2,3.7-3.6,5.2.7.8.6,1.9.6,2.7,0,1.2,1.4.4,2,.4,4.7,0,5.4-4.8,6.7-3.3s.4.8.3,1.2c-.1,1-1.9.7-2.3,1.2-.7,1,1.9,1.8.8,4.3s-1.8.8-2.8.7l-2.9,4.5,3,2.9c.9.9,3.8,1.7,3.8,2.2s0,1.1.3,1.4c.4.4,1.1,0,1.4-.3.9-1.1-.1-3,1.6-2.9.4.5.6,2.4.2,3-.8,1.2-.5,2.3-.7,3.7s-2.9,1.7-3.9,1.6l-4.3-.4c-.7,0-2.2,1.3-2.8-.4s.4-.8.6-.7l1.2.4c.2,0,.4-.6,0-.8l-.6-.3c-.4-.2-.8-.4-.9-.8s-.4-.8.2-1.1c.2.5.6.9.9,1.1s1.3-.4,1.5-.2c.5.5.6,1.5,1.5,1.4s.9-.5,1.4-1c-1.5-.4-1-1.7-1.1-2.4-.9-.4-1.9-.8-2.7-1.4s-2.7-.4-3.3.2-1.2,2-2.4,2h-3.7c-.6-.2-1.1.6-1.7.2s-1.4-.6-1.1-1.3l1.6-3.9c3.1.1,4.3-4.4,4-4.8s-.8-1.2-1.6-1.1c-1.9.2-4.8-.4-5.5-2.6s1.4-2.4,2.3-2.8l-1.1-1.1c-.8,2.9-2.9,2.4-3,2.9l-.4,1.7c-.9,1.4-2.5,1.8-4,1.8-.3,3.2,1.4,2.9,1.8,3.6s-.3,1-.9.5-1.2-2-2.4-2.1-1.9.7-2.7,1c.6,1.5.8,3-.6,4.1l1.2,1.6c1.1,3,0,3.8,0,6-3.3,1.5-5.1,3.1-4.4.4s.4-.4.8-.4c.7-.3,1.5-.8,1.5-1.3l-.3-1.7c-.1-.8.9-2.5-.1-3s-1.4-.5-1.4-1.2c0-1.7,2.6-1.8,2.2-3.3-1.6-.5-2.9-1.1-2.9-3.1-1.9-1.4-1-3.1-3.1-3l.4-2.1c-1.2-.9-2.1-.6-3.8.2.8-2.9.5-6.2-1-8.6-1.1.3-1.8-.1-2.3-.8.8.4,1.6.3,2.2,0,.9-.4,1.2-1.1,1-2,1.1.8.8,2.6,2,3.1s1.8,0,2.5-.2c3.9-.8,1.7-3.6,4.2-4.7s.9.2,1.2.6ZM241.1,177.6c-.7-.8-1.7-.5-1.8-.2l-.5,1.2c.8.5,2.5-.3,2.3-1.1Z"/>
    <path class="st45" d="M152.1,184.6c0,2-3.1,2.3-2.2,4.7s0,.7-.1,1c-2.7-1.7-6.4-1.5-8.9.3s-3.5,5.5-2.9,8.6c-1.9.3-2.9,1.7-4.5,2.4-.1-1.4-1.1-2.7-1.7-4.2-.9-.2-1.6-.6-2.6-.6l-1.8,1.1c-.6-2.4,1.9-4.2,1.5-5.2s-.8-.8-1.3-.7-.8.3-1.2.9c-.5-.5-.9-1.2-1.7-1.6-.5.6-1.5,1-2.2.8s-1-1.1-1.2-1.7.9-1.1.8-1.6c-.5-.3-1.6-.7-1.6-1.4s-.4-1.2.4-1.4l1.6,1.1c1.2-.5,3.1-1.1,4.1-.5,1,1.5,2.9,2.8,4.9,1.7l6-3.3,2.3-1.7c4.1,1.3,8.2,2,12.2,1.2Z"/>
    <path class="st28" d="M149.8,190.3c.5.3,1.4,1.1,1.8,1.6.9,1.1,1.3,2.6,1.6,3.9.4,1.8-.6,3.4-.8,5.2l-3.4,2.8c-1.7.7-4,1.2-5.7.5s-2.8-1.4-3.7-2.6-1.3-1.5-1.5-2.5c-.7-3.2.2-6.6,2.9-8.6s6.1-2.1,8.9-.3ZM149,196.9c0-1.9-1.5-3.4-3.4-3.4s-3.4,1.5-3.4,3.4,1.5,3.4,3.4,3.4,3.4-1.5,3.4-3.4Z"/>
    <path class="st23" d="M258.4,160.8l.9,1.9c.5,1.2.4,2.6.4,3.9-.9,2.4-2.2,4.6-4.7,5.6l-.8.3-1.3.3h-2.2s-1.2-.3-1.2-.3c-2-.5-2.6-2-3.9-1.9,0-.5,0-1-.3-1.6l-.9-2.3c0-1.5-.1-2.9.4-4.3s1.5-2.6,2.5-3.5,1.1-.7,1.6-.9c3.3-1.3,7.5-.3,9.7,2.8ZM255.3,165.2c0-1.9-1.5-3.4-3.4-3.4s-3.4,1.5-3.4,3.4,1.5,3.4,3.4,3.4,3.4-1.5,3.4-3.4Z"/>
    <path class="st45" d="M177.6,174.2"/>
    <path class="st64" d="M211.3,301.8c.2-2.9.8-6,.2-9s-1.6-.8-2.1-.8-.7,0-1.2.3c0-.9,0-1.3-.5-2-1.4.7-4.4-.2-4.4-1.6s1.5-3.2,3.1-3.3c.1.3,0,.8.6,1.2l.2-1.5.6,2.2c.2.8,1.8.7,2.3.3s.6-1.8.5-2.5c.2.7.4,1.1.4,2.2.7-.8.4-1.5.3-2.4,1,.2,1.8.5,1.9,1,.5,1.5-1.6,2-.9,4.2l1.7,5.2c-1.6,0-1.7,2.8-.4,4.7l-1.4,1.8c-.3.4-.6,0-.8,0Z"/>
    <path class="st45" d="M262.5,259.9c-.5.1-.6,1-.7,1.3-.4.9-2.6-.2-3.4,1.3-1.4-1.1-.1-2,0-2.9.4-1.7.8-2.7,2.4-3-1.6-.9-2.4-1.8-2.3-3.3l2.9-.3,1.2,1.7c1.6.3,3.4.4,4.7,1.6s1.1,3.2.3,4.2c-2.1-.3-2.8,1.5-5-.7Z"/>
    <path class="st64" d="M271.8,172.5c.2.4.8.6.9,1.1l-1.6.3c-2.6,1.3-4,4.1-5.1,6.9-1.4,1.1-2.8,2.6-3.9,4-.1.2-1.1,0-1.2-.2,0-1.3,0-2.7-.4-4.1,1.5-.9,1.5-2.7,2.5-4,.8-.2,2.3.3,3-.6,1.4-1.7,1-1.9,1.5-3.4.3-.7.9-1.3,1.7-1.5.9.4,2.1.7,2.6,1.5Z"/>
    <path class="st45" d="M268.4,282c-.4,0-1.7,0-1.5.8.6,3.1-.5,4.2,2.2,5.2-.7,1.7-3.1.2-3,2,0-.3.1-.4.4-.4s.6,0,.6.4c-.9.5-1.1,1.5-1.3,2.5-.5-.6-.9.1-.6.5-1.2,2.3-.6-.8-1.6-1.2s-3,1.4-4.1.8-1.6-.5-2.4.2-.5,1.5.3,2.3c-1,.5-1.9-.2-2.4-.6-.8-.7-.9-1.8-.4-2.6,1.1-1.9,3.3-2.9,5.3-2s.7.9,1,.9c1.1.1,1.1-2.1,4.2-3.1.6-.4,1.5-1.8,1.9-2.5,0-1.1-1.1-2.7-.2-3.8s1.5,0,1.7.6Z"/>
    <path class="st45" d="M125.5,175.2c-.2.7-1.2,1.2-1.7,1.7l-2.3,2.3c-.8.8-.7,1.8-2.3,1.9.7,1.1,1.4,2.3,1,3.4-2.6,0-2.5,1.5-4,2,0-1-.8-2.5-.4-3.5s2.3-1.1,3.2-1.6c.2-.5,0-1.2.2-1.3l1.2-.5c.8-1,.7-2.6.5-4,0-.9,1.7-1.8,1.9-2.5.4-1.7-4-.3-3.8,1.2s.7,1,.5,1.5-.8.7-1.3.4c.2-.8-.1-1.5-.4-2.2-.4-1.2.7-1.7,1.7-2.1l1.7-2.3,4.4,5.5Z"/>
    <path class="st45" d="M172.8,192.1c-1.4-.9-3.4-.3-4.8,0,0,.9,0,1.5-.4,2.2l-4.1-.4c1.1-.4.7-2.1,2-2.8s1.5-.1,2.3.3c-1.4-3.2,1.7-3.7,1.9-4.7s-.5-.7,0-1.5c.6,1,2.1,1.4,2.8,1.8,0,1.1-.3,2.7.7,3.6-1,2,3,.5,1.7,3l-.9,1.8c-.6-1-1-1.1-1.2-1.4-.4-.4,0-1.4,0-2Z"/>
    <path class="st45" d="M83.9,324.2l-4.2-4.3c-.4-.4-1-.4-1.4-.4l2.4-2.6c1.3-1.4,3.7-1.9,5.5-1.4,0,.9-.1,2,.7,2.5l2.3-.3c0,1.1.5,2,.9,3.2-3.5-.4-4.1-2.6-6.1-2.4-.3-.2-.6-.9-.8-1.3l-2.4.6c.2.7.3,1.2.5,1.4s1.1.2,1.4.3c1.4,0,1.6,1.3,1.9,2.3s0,1.8-.8,2.5Z"/>
    <path class="st8" d="M158.5,198c-.5-.4-1.2-.6-1.6-1,0-.6,0-1.3.1-1.8s1.1-.7,1.8-.7l8.2.6c1,0,1.3,1.5,1,2.1-1.1,2.4-5-.1-9.6.7Z"/>
    <path class="st90" d="M283.1,177.3c-.1.6.7.8,1,1.1l1.4,1.7c.7.8.6,1.9-.1,2.5s-1.7.3-2.5-.6l-1.4-1.4c-.7-.7-1-1.9-2.2-1.8.2-1.6-2.9-1.9-1.9-3.8s1.9-1.3,2.7-.5l2.9,2.8Z"/>
    <path class="st1" d="M199,195.3l-6.3,2.4c-.9.3-2,.5-2.7-.2s-.4-2,.1-2.7c2.3-.4,4.5-1.1,6.6-2.2l.7-.4c1-.5,2.3,0,2.6,1s-.1,1.7-1,2.1Z"/>
    <path class="st60" d="M239.9,166.4c.4.5.6,1.2.5,1.8-.2.4-.6.9-1.2,1.1l-4.8,1.8-2.6,1.3c-1,.1-2-.5-2-1.5s.6-1.6,1.4-2l6.7-2.8c.7-.3,1.4-.1,1.9.3Z"/>
    <path class="st15" d="M175.7,195.8c.2.2.4.3.8.3h6.7c.8.1,1.2,1.3,1.3,1.9-.5.3-.6,1.2-1.6,1.2h-8.3c-1.2,0-1.7-1.4-1.4-2.4s1.5-1.1,2.5-1.1Z"/>
    <path class="st114" d="M213.2,183.9c.6.7.7,2-.1,2.6l-1.5,1.2-5.3,3.6c-.6,0-1.4,0-1.7-.5s-.4-1.2-.4-1.8l1.2-1.1c.6-.5,1.3-.7,2-1.2,1.3-1,2.9-1.9,3.9-3.1.7,0,1.4,0,2,.3Z"/>
    <path class="st60" d="M288.5,186.5c1.6.2,2.1,1.7,2.6,3l1.9,4.9c0,.5,0,1,0,1.7s-1.1,1.1-1.9,1-1.2-.7-1.3-1.4l-.2-1c-.3-1.4-.9-2.8-1.5-4.1l-.9-2c-.4-.8.5-2.2,1.3-2.1Z"/>
    <path class="st60" d="M225.9,173.7c.3.6.4,1.3.4,2l-2.9,2.3-1.9,1.5-1.7,1.5c-.6.5-1.4.7-2.1.3s-.9-1-.8-1.7c.4-.8,1.1-1.3,1.9-2l3.2-2.7,1.3-1c.9-.7,1.8-.6,2.6-.2Z"/>
    <path class="st63" d="M268,167l5.2,2.3c.4.4.8.8.8,1.5s-.4,1.3-.9,1.7h-1.3c-.5-.8-1.7-1.1-2.6-1.4l-2.1-.8c-1.1-.4-1.9-.9-2.9-.9l-.2-.4c-.3-.6-.4-1.2-.3-1.8l.7-.8c1.3-.2,2.5.2,3.7.8Z"/>
    <path class="st31" d="M126.9,220.6c0,6.1,2.2,10.2-1.2,9.4-1.2-.3-1.3-1-1.5-2.2-.5-3.2-1.1-7,.4-7.9s2.3-.2,2.3.8Z"/>
    <path class="st22" d="M172.3,254.3l2.4.6,2,.4c1,.2,1.3,1.3,1.1,2.1s-1,1.3-1.9,1.1l-7.1-1.6c-1.2-.3-1.7-1.2-1.4-2.2s1.1-1.2,2.2-1l2.9.5Z"/>
    <path class="st33" d="M202.6,324.6l-2.8,4.3c-.6.9-1.7,1.5-2.7,1.2-1-.7-1-2.2,0-3.2l4.4-6.3c.5.1,1.4.1,1.7.5.7.9.3,2.2-.5,3.4Z"/>
    <path class="st114" d="M184.4,258c.6.7,1.6.8,2.4,1.2l4.7,2.4c.9.4,1.1,1.5.6,2.3s-1.3.9-2.2.5l-6.9-3.4c-.8-.4-.7-1.9-.2-2.3l.5-.5h1.1Z"/>
    <path class="st58" d="M193.1,337.7c-1,.5-1.6,1.9-2.4,2.6l-1.8,1.7c-.5.5-1.6,0-2.1,0,0-.5-.6-1.4,0-2.1l3.7-4.2c.9-1,1.5-2,2.6-2.4.6.4,1.4.8,1.5,1.5s-.3,1.3-.8,2l-.7,1Z"/>
    <path class="st27" d="M130.9,234.7c.4,1.5,1.7,2.5,2.6,3.6l1.1,1.3c.6.7.7,1.6,0,2.3s-1.6.8-2.3,0l-1.5-1.6-1.9-2.4-1.1-1.6c-.7-1-.4-2.2.5-2.6s1.9.1,2.5,1Z"/>
    <path class="st1" d="M211.3,301.8c-.4.1-.9.5-1.2.8l-1.6-.3c-.2-.6-.4-1.3-.3-2,.8-4.3-.1-7.1,1.1-8.3.6,0,2,0,2.1.8.6,3,0,6.1-.2,9Z"/>
    <path class="st84" d="M209.3,306.8c.4.7.3,1.8.3,2.5s-.2.8-.3,1.1l-1.2,3.2-1,2.1c-.4.9-1.3,1.4-2.1,1.1s-1.3-1.2-1-2.1l2.9-7.5c.3-.7,1.9-.5,2.4-.4Z"/>
    <path class="st64" d="M190.1,194.8c-.6.7-.9,1.9-.1,2.7s1.8.5,2.7.2c.3.2.6.4,1.2.6-.6,1.2-1.5,2.1-2.9,2.6-1.3-2.3-3.6-3.4-4-2.5s0,.4,0,.6c-.5.1-1,.5-1.2,1-1.2.4-2.6.9-3.6,0,.4,0,1.2.6,1.7-.2h-7.6c-.6,0-1.4,0-1.5-.5h8.3c1,0,1.1-.8,1.6-1.1l2.4-1.5.5-2.2c1-.6,2.1-.9,3.4-.6l-.7,1Z"/>
    <path class="st113" d="M139.3,244.1l1.1.2c.6.7,1.6,1.1,2.4,1.5l4.3,1.9.7.8-.4,1.6c0,0,0,.1,0,.2-.9.4-1.8.3-2.7-.1l-5.5-2.8c-.8-.4-1.2-1-1.2-1.8s.5-1.4,1.3-1.5Z"/>
    <path class="st37" d="M154.1,250.1c1.6.7,3.3,1,5,1.4l1.9.5c1.1.3,1.1,1.4,1.1,2.2-.4.7-1.2,1.1-2.1.9l-6.7-1.6c-.8-.2-1.2-.6-1.6-1.1,0-.6,0-1.4.5-1.9s1.3-.4,1.9-.3Z"/>
    <path class="st86" d="M129.6,211.5l-.7,1.6c-.3.6-.7,1.3-.8,2-.6.6-1.3.7-1.8.4-.9-.7-1.2-1.5-.8-2.3l.7-1.9,2-3.7c.3-.6.6-1.4,1.1-1.5.8-.1,1.7.2,2,.6,1.3,1.6-.8,2.7-1.7,4.9Z"/>
    <path class="st19" d="M208.4,279.6l.7,1.8,1.3,3.7c0,.8.1,2-.5,2.5s-2,.5-2.3-.3l-.6-2.2c-1-3.7-2.5-5.1-1.9-6.5s1.2-1,2-.7,1,1,1.3,1.7Z"/>
    <path class="st45" d="M259.1,226.9l-.7,3.8c-.1.8.3,2.1.3,2.8-.6.6-1.9.5-2.3,1.5s-2,2.4-2.7,1.3c-1.5-2.4,3.8-5.4.5-8.2,3.3.9,2.9-1.3,4.9-1.3Z"/>
    <path class="st45" d="M101.8,334.4l2,3.6c-.6,1.2-1.8,1.5-2.9,1.3l-1.8-2.8c-1.1-.8-1.9-1.1-2-3.2-.9,1-2,1-2.8.7s-1.8-.7-1.5-1.8,2.3-1.2,3.4-.4l2.5,1.7c1.1.8,1.8,1.7,3.2,1Z"/>
    <path class="st45" d="M220.4,173.6c.5.5.9,1.1,1.5,1.3l-3.2,2.7c-.8.7-1.5,1.2-1.9,2,0-.4-.7-.6-.8-.9-.5-1.5-.8-2.9-2.2-3.9"/>
    <path class="st45" d="M254.2,250.5l-1.8-.4c-.6-.1-.5-1.1-.9-1.7l-.4-.5c-.1-.2.4-.6.6-.6s.5.5.8.8c1.1-1.1,1.6-2.5,2-4.5,1.8,1.4,2.8,3.1,3.2,5.3l.5,2.7c-1.5.2-2.6-.4-4-1.3Z"/>
    <path class="st45" d="M244.9,219.6c-.5-1-.7-1.8-1.3-2.1-.9-.4-1.8-.1-2.5.9-.9-.9-.9-2.1-.2-3.2s.1-1.4-.3-2.3,1.1-2.7,2.1-2.5,1,2,.2,2.7c.6.6,1,.7,1.8.9.2,1.6.9,2.9,1.7,4.3s-1.2,1.8-1.4,1.3Z"/>
    <path class="st45" d="M143.4,245.1l.4-2.9c-1.4-.3-2.2,0-2.6,1s-.5.9-.9,1.1l-1.1-.2c-.7-.4-1.2,0-1.8.3-1,.5-1.5-.6-1.5-1.2-.1-1.3.7-1.3,1.8-1.8s1.5-2.5,2.6-2.6c.9.3,1.7.7,2.8.7s2.1,3.9.4,5.4Z"/>
    <path class="st45" d="M280.3,338.6c0-1.2-.2-2.2-.9-2.8s-1.6-.7-2.4-.2-.4,1-.4,1.3c-.3.4-1,.9-1.5,1.2-.2.2,0,1-.9.8.5-1.3-.3-3.7-1.7-3.4s-2,1.4-3.3,0l-.7,1.9c-.8-.2-1.4-.6-1.6-1.1s0-1.7.4-1.9,1.1.4,1.6-.1.9-.8,1.4-.8c-.2.7-.6,1.2.1,2.4,1.1-1.2,2.6-.6,3.8-.4,1.6-1.9,1-5.3-1-6.6-.2.6.3,1,.4,1.4s0,.5-.2.6c-.6-.3-.7-1.1-1.1-1.6.3-.7.8-1.3,1.4-1.3,1.3,0,2.4,1.9,1.9,3.6s.4,2.1,1.5,2.6c1.8.7,3.3,1.6,5.2,1.1-.8,1.5-1.1,2.6-2.1,3.5Z"/>
    <path class="st45" d="M196,182.6c-.1,1-1.5.6-2,.4"/>
    <path class="st45" d="M125.5,213.2c-.3.8,0,1.6.8,2.3s1.2.2,1.8-.4c1.9,1.9,4.1.2,7.2.4.3,2.5-2.4,2.1-4.4,5-1-.7-.9-2.1-1.6-2.7-2.8-2.2-4.3-1.3-5-3.1s-.8-1.4.4-2.4c.3.2.5.6.7.9Z"/>
    <path class="st64" d="M202.6,324.6c.8-1.2,1.2-2.5.5-3.4s-1.1-.4-1.7-.5-.5-.5-.9-.2-.6.7-.8,1.5c-.4-.4-.6-1-.5-1.4.1-.9,2.7-2.1,4.3-1.5s1.7.8,2.1,2.1,1,2.6.9,4.1l.3.7c0,.2-.3.3-.5.2s-.4-.7-.5-.7l-3,.3c0-.3.1-.9-.2-1.1Z"/>
    <path class="st45" d="M278.2,343.1l-2.2,3.3c-.7,1.1-2.8,1-3.6.2s-1.4-1.9-.9-3.3l2.7-.9c.4-.1,1.4.1,1.7-.3l.7-1.3c0,1.1,1,1.7,1.8,2.4Z"/>
    <path class="st45" d="M186.8,154.2c.1-.4.5-1,.8-1.2"/>
    <path class="st64" d="M198.6,266.6c-.6-.3-1.5-.5-2-.2-.8.5-.8,1.5-.8,2.3s0,.5.3.8l-1.5.7c-.7-.6-1.6-1-2.1-1.9l1.9-3.2c.1-.3.6-.6.8-.8.7-.5,1.3-1.4,2.1-1.3s1.6.6,2,1.6.2,1.5-.6,1.9Z"/>
    <path class="st64" d="M208.5,302.3l1.6.3c.3,0,.7.3.7.6v.9c0,0,1.2,4.4,1.2,4.4l-1.4.7c-.1-.4.2-1.1-.6-1.5.1.8.1,1.4-.4,1.7,0-.7,0-1.7-.3-2.5s-1.8-1.6-3-2.2l-.5-2.8,1.3-1.3c.1,1,.6,1.6,1.3,1.8Z"/>
    <path class="st45" d="M175.6,195.1l1.8-.3c-.6-.5-.8-.9-.9-1.2-.1-.6.4-1.2,1.1-1.1,1.4,0,2-.6,3.1-1.2s2.4,1,2.4,1.8-.5,1.4.1,2.2h-6.9c-.3,0-.5,0-.7-.1Z"/>
    <path class="st45" d="M135.1,288l-3.5-1.6c.7-1.6,1-3.2.9-5,.7-.2,1.2-.4,1.8-1,3.2,2.9,1.2,4.7.9,7.6Z"/>
    <path class="st64" d="M204.7,271.5c.3.1.9.2,1.2.5.6,1,.3,2.3.2,3.4l-1.9,1.9c-2.4.6-3.1.2-4.8-1.9.3-.7.6-1,.9-1.5.5.7,1.1,1.2,2,1.4.9,0,2.4-1.6,1.8-2.5l-1.4-2.2c.7-.8.9.5,2,.9Z"/>
    <path class="st45" d="M265.5,209.8c-1.8,2-2.3-1.4-4.7-1,3.5-2,3.1-6.1,5.1-5.8s1.7,2,1.1,2.6-1.3,1-1.7,1.6c-.5.9.3,2,.2,2.7Z"/>
    <path class="st45" d="M263.7,298.1c0,.5-.2,1-.6,1.4-1.3,1.4,1,2.4.6,3.9-.2-.3-.6-.6-1-.5-1.3,0-1,1.8-1.8,2.1s-.9,0-1.9,0c-.2-1.4.6-2,2-2.6.9-1.4-2.7-1.6-2.3-3.2s.7-1.6,1.7-1.6c-.3.8.7,1.7,1,1.5.7-.6,1.3-1.2,2.2-1.1Z"/>
    <path class="st45" d="M268.8,271.7c-1.1,1.1-3.8-.4-3.8-1.9s.3-1.7.5-2.6c1.2-.3,2.1-.9,2.8-1.9.3.9,0,1.2-.2,2,.7.9,1.9,3.1.7,4.3Z"/>
    <path class="st45" d="M132.6,278.8c-.6,0-1.2,0-1.4.1-.5.4,0,1.8-.5,1.9s-.7-1.2-1.6-1.5-1.1,1.1-1.8,1-.4-.4-.6-.7c-.7-1.2-.5-1.8.2-2.5s1.3,0,2.3,0,4.3-.8,4.5.7-.3,1-1,1Z"/>
    <path class="st45" d="M292.4,346.2c-.2.1-.2.3-.3.5-.5-.3-.5-.9.1-1.7-1.9-.7-3.8.2-4.8,1.7.2.8.1,1.5.7,2v1c-.6-.1-1.1-.7-1.4-1.1-1.1-1.6,1.8-3.9,2.1-4.3.9-1.1,1.1-1.6,2.8-1.8.6-.2,1.3-1.6,2.5-1.7.8,1.1-.3,2.1-1,3s0,2-.7,2.4Z"/>
    <path class="st64" d="M182.3,258.2c-.6,1-.7,2.5.3,3.3-.2.7-.3,1.6-.8,2.3s-1.2.3-1.7.1c-.8-.3-1.6-3.7-.8-5l.8-1.2c.8-.4,1.8-.2,2.2.6Z"/>
    <path class="st45" d="M175.4,130.9l-.7-2.9c.9-.9,2.2-1.7,3.5-1.8s1.5,1,1.6,1.6-.1,2.3-1.2,2.4-1.8-.2-3.2.6Z"/>
    <path class="st45" d="M268,167c-1.1-.5-2.4-.9-3.7-.8.4-.4.9-.4,1.7-.4-.4-.5-.7-.4-1.4-.5.7-.3,1-1,1.6-1.6.4-.2,1.5.5,2,0,1.6-1.3,2.2-3.3,3.1-2.9s.4,2.2-.5,2.6c-1.9.7-1.3,2.7-3,3.6Z"/>
    <path class="st47" d="M138.1,199.3c.2,1,.9,1.7,1.5,2.5-1.2,0-2.3,1-3.2,1.8s-1.7,1-2.3.4-.4-1.5-.5-2.2c1.6-.8,2.6-2.1,4.5-2.4Z"/>
    <path class="st45" d="M253.8,243.3c-.5.5-2.5-.4-2.7-1.1l-.6-2.8c-.2-1.1,2-2,2.8-2.3,1.2.8-.2,1.8,0,2.4.1,1.1,1.8,2.7.5,3.9Z"/>
    <path class="st64" d="M155.2,249.8c-.4,0-.8.2-1.1.3-.6,0-1.4-.2-1.9.3s-.5,1.2-.5,1.9l-.7-1c-.4,1.5,1.3,1.8,2.1,2.9-.7-.1-1.4,0-2.1-.3s-1.6-2.7-.8-4.5.8-1.3,1.5-1.4,1.6-.2,2.3,0,1.2,1,1.2,1.8Z"/>
    <path class="st45" d="M161.6,188.8c.2.5,0,1.3-.4,1.7s-.8.6-1.5.5c-1.9-.2-3.6-1.4-3.7-3.5,3.7-1.7,3.6,1.2,5.6,1.3Z"/>
    <path class="st64" d="M139.5,201.8c.9,1.2,2.3,2,3.7,2.6-.2.2-.6-.3-1,.3.8.1,1.5.2,2.1.8-.9.2-1.4.4-1.6.9-1.6.6-2.6-.4-3.6-1.7s-1.7-.5-2.8-1.1c.9-.8,1.9-1.7,3.2-1.8Z"/>
    <path class="st45" d="M252,226c-1.1.8-1.8,1.1-1.8,2.7-.9-.6-1.1-1.7-1.3-2.5,1.1-2-.5-3.6.6-4.2s1.6,1.9,3.7,1.8l-1.1,2.2Z"/>
    <path class="st45" d="M272.7,173.7c0-.6-.7-.7-.9-1.1h1.3c.6.4,1.4.6,2,.2,1.2-.7.9-3.7.4-4.4s-1.1-.6-1.7-.6c1.5-.8,2.8-1.8,3.7-3.5.7-.3,1.5.9,1.5,1.5,0,2.1-3.2,2.5-2.7,5.7s-.6,2-1.6,1.9-1.4.2-2,.4Z"/>
    <path class="st64" d="M162,255.2c.4-.3.2-.8.1-1.2,0-.7,0-1.9-1.1-2.2l-1.9-.5c.4,0,.7,0,1-.3-.5-.1-.8-.4-.7-.6,0-.2.5-.3.6-.4.7,0,1.8-.5,2.5-.1,1.8.9,2.1,3,1.3,4.7s-.4.8-.9.9-.7-.1-1-.4Z"/>
    <path class="st45" d="M147.7,248.5l-.7-.8c-.6-1.8,0-3.7.6-5.4s-.5-1.5.4-1.6,1,.1,1.4.7.3,1.6-.3,2.2c-1.2,1.3.2,2.6-.7,5.3-.5-.3-.5-.5-.7-.4Z"/>
    <path class="st45" d="M115.1,285.2c0,0,0,.3,0,.4-1.4.2-2.9.8-4.2,1.3-.2-1.7,1.6-4.9,2.5-4.9s1.4.5,1.5,1.1l.2,2Z"/>
    <path class="st3" d="M278.3,337.1l1.5,2.4c-.5,0-1.1.4-1.4,1.1s.1.7.2,1.4l-2-1.6c-.8-.6-1.3-1.5-1.6-2.4.5-.3,1.2-.7,1.5-1.2l1.8.3Z"/>
    <path class="st91" d="M284.5,345.1l-.4.4c-.6.2-1.6.6-2.2.1l-1.9-1.8c0-.8,1.8-.4,2-2.3l2.1,1.5c.7.5.6,1.4.2,2.1Z"/>
    <path class="st45" d="M281,126.8c0-.3-.1-.8-.2-1.1,0-.4,0-1.2.5-1.2.9-.2,1.5,0,2,.5s.5,3.4,0,4.3-1.3.9-2,.9c.2-1.5.3-2.6-.3-3.4Z"/>
    <path class="st45" d="M255.4,300.7c-.3,0-.8.6-.9,1-.6-.6-1.3-1.1-1.6-1.8s.5-3.9,1.1-4.2.9.1,1.1.6-.7.8-.8,1.1c.6,1.4,3,1.8,2.3,2.8s-.4.5-1.2.4Z"/>
    <path class="st89" d="M202.6,270.6l1.4,2.2c.6.9-.9,2.5-1.8,2.5l-2.5-3.2,2.4-1.4c.1,0,.4,0,.5,0Z"/>
    <path class="st45" d="M211.2,183.6c-1,1.3-2.6,2.2-3.9,3.1-.3-.3-.4-.7-.2-.9l.9-.9c-.5-.7-.9-1.6,0-2.3.5-.7,1.4-1.5,2.6-.7.2.2,1.2.9.6,1.7Z"/>
    <path class="st45" d="M164.2,181.1c.9,0,1.2.7,1.7,1.3s1.6.7,1.5,1.2-.2,1.5-.7,1.8c-1.7-.6-3.4-2-4.3-3.5l1.8-.9Z"/>
    <path class="st64" d="M270.3,333.3c.2,0,.4-.2.6-.4.5.5,1.7.4,2.3.6s1.4-.6,1.5-1.3-.5-1.7-1.1-2.2c0-.4-.6-.8-.4-1.4,2,1.4,2.5,4.8,1,6.6-1.2-.1-2.7-.8-3.8.4-.8-1.1-.3-1.6-.1-2.4Z"/>
    <path class="st64" d="M292.1,346.7c0,.4-.4.6-.8.8-.4-.3-1.4-.3-1.9,0s-.5.8-.8,1.4v-1.2c-.5.3-.5.6-.5,1-.5-.5-.5-1.2-.7-2,1-1.6,3-2.4,4.8-1.7-.6.8-.6,1.4-.1,1.7Z"/>
    <path class="st64" d="M204.1,189.1c0,.6,0,1.3.4,1.8s1.1.6,1.7.5l-1,.8c.9,0,1.5-.7,2.3-.2-.9.9-1.1,2.2-2.4,2.1s-.6-.6-.9-.8c-1.7-1.2-1.5-4.8-1.6-4.6.2-.3,1.2-.6,1.2-.2v.6Z"/>
    <path class="st45" d="M153.2,195.8c-.3-1.3-.7-2.8-1.6-3.9.1-.4-.2-.8-.2-1.1s2.2-1.1,3-.2.7,1,.5,1.6l-.9,3c-.7-1.2-1,.3-.8.6Z"/>
    <path class="st64" d="M273.1,172.5c.5-.4,1-1,.9-1.7s-.5-1.1-.8-1.5-.5-.9-.2-1l.9-.5c.7,0,1.4.2,1.7.6.5.7.7,3.7-.4,4.4s-1.4.2-2-.3Z"/>
    <path class="st64" d="M156.9,197.1c.4.3,1.1.6,1.6,1-.3,0-.7,0-.9.4l3.3.2c-.9.4-1.4.4-1.7,1s-.7.6-1,.7c-1,.1-1.6-.8-2.6-1.4-.4-.9-1-1.9.1-3l1.2,1.1Z"/>
    <path class="st42" d="M200.2,268.7c.9.3,1.5,1.1,1.9,2l-2.4,1.4-2.5-2.6,1.7-1.5c.5.4.9.5,1.4.7Z"/>
    <path class="st64" d="M135.6,236.8l-2.1,1.5c-1-1.2-2.2-2.1-2.6-3.6.2-.2.2-.5.2-.8,1.7.7,3.6,1.4,4.5,2.9Z"/>
    <path class="st9" d="M279.8,339.5c1,.4,1.5,1.4,2.3,1.9-.3,2-1.9,1.6-2,2.3l-.7-.7-.8-1.1c0-.7-.3-1-.2-1.4.2-.7.8-1.1,1.4-1.1Z"/>
    <path class="st45" d="M96.6,323.3l.9,2.4-3.2-1c-.4-.1-1.5.7-1.8-.1s0-1.7.3-2.1c1.1-1.2,2.4,1.3,3.9.9Z"/>
    <path class="st64" d="M197,330.1c1,.3,2.1-.3,2.7-1.2,1,0,1.8,1.6,1.3,2.5s-1.9,1.4-2.9.7c-.6-.3-1.5-1-1.1-1.9Z"/>
    <path class="st51" d="M185.7,343.6c.5,1.5-1.1,2.8-2.5,3.2-.6-.7-1.2-1.2-1.1-2.1.5-.7,1.3-1.6,2.3-1.8s1,.5,1.3.7Z"/>
    <path class="st64" d="M193.1,337.7l.7-1c.4-.6.9-1.2.8-2s-.9-1.1-1.5-1.5c1.2-.5,1.9-.2,2.5.6s1,1.8.5,3.1-2.3,1.4-3,.7Z"/>
    <path class="st45" d="M256.1,288.4c.2.9-1.5,2.1-2.3,1.8-1.3-.4-1.7-2.8-.2-3.3s2.4.7,2.5,1.5Z"/>
    <path class="st64" d="M274.1,274.1c-.4.3-.4.7-.6.9l-2.3,3.9c-.3-.3-.7-.2-.9-.3-.4-1.2.2-2.1.7-3s.1-1.6,1.1-1.7,1.4.2,2.1.2Z"/>
    <path class="st45" d="M135.6,236.8c-.9-1.6-2.8-2.2-4.5-2.9,0-.6.6-.7.9-.7,1.2,0,2.3,1.6,3.3,1.5s.8-1.7,1.9-1.2.5.4.2.7c-.8.7-.4,1.7-1.8,2.8Z"/>
    <path class="st64" d="M214.6,185.1c.2,1-.7,1.7-1.1,2.6s-1,1.7-1.8,1.2.2-1.1-.2-1.2l1.5-1.2c.8-.7.7-2,.1-2.6,0-.2.3-.7-.2-.9,1.1,0,2.1,0,2.7.9l-1.1,1.2Z"/>
    <path class="st45" d="M240,156.8l2.7,1.1-1.1,1.9c-1.1-.2-2.1-.6-2.7-1.1s-.7-1.6-.5-2.5l1.5.5Z"/>
    <path class="st64" d="M291.6,185.5c0,.1.2.3.3.4.2.4.3.8.3,1.2s-.7,1.3-1,.9l-1-1.5c-.3-.5-1.2-.3-1.7-.1-.8-.1-1.7,1.3-1.3,2.1l.9,2c-.1.3-.3.6-.6.8s-.5-.2-.7-.2c.1-.9-.5-1.6-.6-2.4.1-.4,0-1.2.4-1.5,1.2-.3.4-1.8,1.2-2.2s.7-.4,1.1-.3l2.8.8Z"/>
    <path class="st64" d="M130.3,222.9c1,1-2.3,1.9-2,4.4-.9-2.3-.7-4.6-.5-6.9.4.6.3,1,.4,1.4.2.6,1.4.4,2.1,1.1Z"/>
    <path class="st64" d="M179.2,200.2c-.3.6-.5,1.2-1.1,1.8-.9-.4-1.7-.2-2.4.6-.8-.6-.9-1.5-1.4-2.2,1.3-.7,3.4-.3,4.9-.2Z"/>
    <path class="st45" d="M263.6,317.8c-.3.3-.9.4-1.5.6-.1.4.5,1.3.9,1.6s1.1.1,1.7-.1c0,.4,0,1.5-.6,1.5-1.2.1-2.5-.2-3.4-.9-.2-1.7,1.7-3.5,3-2.8Z"/>
    <path class="st19" d="M198.6,266.6c.2,0,.4.3.5.4l1.2,1.7c-.4-.2-.8-.3-1.4-.7l-1.7,1.5c-.4-.4-.8-.7-1.3-.8,0-.8,0-1.8.8-2.3s1.4-.2,2,.2Z"/>
    <path class="st64" d="M235.6,171.6c.2.9,0,1.6-1,2s-1.4.4-2.2,0c-.3-.4-.6-.6-.6-1.3l2.6-1.3c.4.1.8.3,1.2.6Z"/>
    <path class="st64" d="M143.4,245.1c-.3.2-.5.4-.7.7-.8-.4-1.8-.8-2.4-1.5.4-.2.7-.6.9-1.1.4-1.1,1.2-1.3,2.6-1l-.4,2.9Z"/>
    <path class="st45" d="M290.1,202.1c-.2.1-.5.5-.2.8s.6.3.7.8l-1.8.4c-.1-.4-.2-.7-.4-.9-.7-.7-1.8-.2-2.9.8-.5,0-1.3.7-2-.3,2.1-1.4,4.5-2,6.6-1.5Z"/>
    <path class="st64" d="M174.7,254.9l-2.4-.6c.6-.4-.1-.8-.4-.5-.6-.2-.3-.6-.2-.7l.5-.6c1,0,1.9-.6,2.9-1.1.3,1-.4,1.6-.5,2.2.1.2.7.5.7.7,0,.2-.6.5-.7.6Z"/>
    <path class="st64" d="M172.6,197.9c-1.5.2-2.9.5-4.4.4l.7-2.6,3.8,1.1c-.2.2-.1.8,0,1.1Z"/>
    <path class="st64" d="M291.3,351.3c-.5-.3-1.2.3-.4.6.8,0,.7.7.3.9s-.3.4-.4.7c-.6.6-1.5.7-1.9.3-.7-.7-.6-1.4-.5-2.2l1.1-1.1,1.7.8Z"/>
    <path class="st45" d="M162,255.2c.3.2.7.4,1,.4.5-.1.6-.4.9-.9.8-1.7.5-3.8-1.3-4.7s-1.9,0-2.5.1c.8-.8,2.6-1.5,3.7-.7s2,5.2-.5,6.6-1.2,0-1.4-.3-.4-.3.1-.5Z"/>
    <path class="st45" d="M190.7,186.4"/>
    <path class="st45" d="M137.7,276l-3.1.9c-.2-.5-.2-1.2,0-1.5.9-1.1,2.4-1.4,3.5-1.2,0,.8,0,1.2-.3,1.8Z"/>
    <path class="st45" d="M285,104.9c.3.1,1.1.4,1.4.2.4-1.2,1-2,2.5-2,0-.7-.5-1.2,0-2,.6.4.6.9.8,1.5-.8,1.3-1.8,2.7-3.2,3.6-.4.2-1.5-.5-1.4-1.3Z"/>
    <path class="st45" d="M244.7,162.4c-.5,1.4-.3,2.8-.4,4.3-.4-1-.6-1.9-.1-3.3-.8,0-.8.6-1,1-1-.6-1.1-2.5-.2-3.1s1.7.4,1.8,1.1Z"/>
    <path class="st45" d="M274.1,274.1c-.7,0-1.5-.2-2.1-.2-.9.1-.7,1.3-1.1,1.7-.5.8-1.1,1.8-.7,3-1.6-.8.4-5.2,1.1-5.7s2.3.5,2.7,1.2Z"/>
    <path class="st45" d="M259.7,166.6c0-1.3.2-2.8-.4-3.9.3-.7.7-1.3,1.4-1.7.7.8.8,1.4.9,2.2s-1,1-1.2,1.6l-.7,1.8Z"/>
    <path class="st45" d="M158.8,120.2c0,.4-.2.9-.5,1.5-1.4-.7-2.5-1.5-3.6-2.9.4-.5.9-.8,1.4-1,.4,1.3.9,2.2,2.7,2.3Z"/>
    <path class="st64" d="M208.1,313.6l1.2-3.2c0,.4-.2.9.2,1.2,0-.9.8-.7.7,0,.2.7.5,1.7,0,2l-1.5,1.1-.6-1Z"/>
    <path class="st45" d="M268,96.8c-.9.3-1.8.2-2.6,0-.5-.8,0-2.3,1-2.3s1.6,1.2,1.6,2.4Z"/>
    <path class="st64" d="M209.2,281.4l-.7-1.8c.3-.6.6-1.2,1.1-1.2.7,0,1.2.4,1.3.8,0,.6.3,1.2-.5,1.9.3.2.1,1.3-.4.4l-.2-.9c0-.3-.6-.2-.5,0v.7Z"/>
    <path class="st64" d="M166.3,199.3c0,.6,0,1.2-.4,1.8s-.9.5-1.4.1c-.9-.6-.2-1.9-1-2.1.7-.7,1.8-.2,2.7,0Z"/>
    <path class="st45" d="M90.4,289c-1.1,0-1.7-2.7-1-3.6,1.4,0,2.5,3,1,3.6Z"/>
    <path class="st45" d="M215.7,104.9l-1,2.3c-1.2-.5-2-1.3-2.4-2.5,1.3-.2,2-.2,3.4.1Z"/>
    <path class="st45" d="M130.9,240.3c-.4.6-1.1.8-2,.7-.9-.9-.8-2.2,0-3.1l1.9,2.4Z"/>
    <path class="st64" d="M152.4,201.1c0,.7,0,1.9-.7,2.6-.5.5-1.8.3-2.3,1.5l-.4-1.2,3.4-2.8Z"/>
    <path class="st45" d="M127.2,284.7h-3.4c-1.4,0-2.5-.4-3.8-.2-.2,0-.6,0-1-.3,1.5-.6,3-.3,4.8-.2s2.6-.3,3.4.7Z"/>
    <path class="st45" d="M128.1,207.6l-2,3.7-.5-3.4c.7-.5,1.7-.5,2.4-.2Z"/>
    <path class="st45" d="M290.8,353.5c-.1.5-.4,1.4-1.1,1.7s-1.8-.7-2-1.3c-.3-.9.1-1.6.7-2.2,0,.7-.2,1.5.5,2.2s1.3.3,1.9-.3Z"/>
    <path class="st45" d="M284.1,178.4c-.3-.3-1.1-.5-1-1.1.8-.8-1.6-1.7-1.1-2.4s.9-.6,1.3-.3c.9.8,1.3,2.6.8,3.7Z"/>
    <path class="st45" d="M119.6,198.5c-1.1-2.3,2.2-3.8,2-3.9.3,0,.5.4.6.6.2.4-.7.6-.9.9-.5.8-.4,2-1.8,2.5Z"/>
    <path class="st45" d="M287,134.8c0,1.2,0,1.8-.7,2.2l-1-1.5c-.4-.6-.3-1.2,0-1.5.6-.5,1.6-.3,1.7.7Z"/>
    <path class="st45" d="M289.6,194.7l.2,1c.3.6-.4,1.3-.7.2-.2.3-.5.9-.6,1.3,0,1,1.8,1.5,1.9,3-.8-.8-2.2-1.6-2.7-2.9.3-.8,1-2,.9-3,0,1,.6,1.4.9.4Z"/>
    <path class="st64" d="M281.5,180.7l-1.3.6c-.4-.2-1.2-.5-1.3-.9s0-1.2.3-1.6h.3c1.2,0,1.5,1.1,2.2,1.8Z"/>
    <path class="st45" d="M163.2,120.7c-1.2.4-1.5-.4-1.9-.5-.8-.1-.9.8-1.1,1.3-.6-1.4.4-3.1,1.5-3,.4.6.9,1.7,1.5,2.3Z"/>
    <path class="st45" d="M291.6,185.5l-2.8-.8c-.4-.1-.9.1-1.1.3-.8.4,0,1.9-1.2,2.2,0-.5-.3-1.4.1-2s1.8-1.3,2.6-1.2,2,.6,2.4,1.4Z"/>
    <path class="st64" d="M223.8,178.8c.4.4.3,1.9-.3,1.9-.9,0-1.5-.9-2.1-1.2l1.9-1.5.5.8Z"/>
    <path class="st45" d="M284.2,345.5l.4-.4h.5c0,.8-.1,1.7-.8,2.4s-1.7.5-2.5-.1c.7-1,2.3-.6,2.3-1.3v-.6Z"/>
    <path class="st45" d="M275.4,263.2c-.3,0-1.2-.3-1.4.2s.1,1.2.3,1.7c-1-.4-2.2-1.7-1.3-2.8s2.4,0,2.4.9Z"/>
    <path class="st45" d="M291.2,189.5c-.5-1.3-1-2.8-2.6-3,.5-.2,1.3-.4,1.7.1l1,1.5c.3.4,1-.5,1-.9s0-.8-.3-1.2c.6.1,1,.7.9,1.3s-.3,1.1-.8,1.4l-.6.3c-.2,0-.2.5-.2.6Z"/>
    <path class="st64" d="M264.6,319.9c-.5.2-1.2.4-1.7.1s-1-1.2-.9-1.6c.7-.2,1.2-.3,1.5-.6.9.5.9,1.4,1,2.1Z"/>
    <path class="st64" d="M275.4,263.2v1.9s.2,1.6.2,1.6c-.8-.1-1.1-.9-1.4-1.6s-.5-1.3-.3-1.7,1.1-.3,1.4-.2Z"/>
    <path class="st45" d="M263.4,309.8c-.6,1.6-.1,1.9,0,3.1-1.1-.1-1.7-1.1-1.6-1.8s.9-1.7,1.7-1.3Z"/>
    <path class="st45" d="M77.6,319.4c0,.7-.3,1.5-.7,2.1v-1.1c-.6.3-1.1.3-1.3,0s0-.9.1-1.1c.2-.5.8-1,1.3-.8s.3.5.4,1Z"/>
    <path class="st64" d="M278.6,342l.8,1.1c-.4.3-.9.3-1.3,0-.7-.7-1.8-1.3-1.8-2.4l.3-.3,2,1.6Z"/>
    <path class="st64" d="M128.9,213.1l.7-1.6c.8-.1,1.2,0,1.3.6s0,1.4-.7,1.6-1,0-1.3-.6Z"/>
    <path class="st45" d="M264,168.9l.2.4c.4.7,0,1.3-.5,1.5-.9.4-1.4,0-1.7-.9s.1-1.3.4-1.9c0,.7,0,1.4.9,1.9.5-.3.5-.7.7-1Z"/>
    <path class="st45" d="M187.7,258.4c-.7,0-1.4-.2-1.7-.9.4-.3.7-.9,1.2-1,.7-.1,1.2.2,1.7,1l-1.1.9Z"/>
    <path class="st45" d="M159.2,199.7c0,.4.1,1.4-.2,1.7-.6.5-2.8-1.1-3.4-2.4,1.1.6,1.6,1.6,2.6,1.4s.8-.3,1-.7Z"/>
    <path class="st45" d="M214.6,185.1l1.1-1.2c-.7-.9-1.6-.8-2.7-.9.4-.6,1.1-.6,1.3-.7,1.2,0,1.6.5,2,1.2,0,1-.8,1.6-1.6,1.5Z"/>
    <path class="st45" d="M142,122.5l-1.3.8-2.6.6c-.3,0-.5-.3-.4-.5l3.3-1.2c.6-.2.8.2,1.1.3Z"/>
    <path class="st45" d="M168.4,103c-.4-.3-.1-1.7.3-2,1-.2,1.2.6,1.1,1.2s-.7,1.3-1.4.8Z"/>
    <path class="st64" d="M263.6,167c-.1.6,0,1.3.3,1.8-.1.3-.2.7-.7,1-.9-.5-.9-1.2-.9-1.9.3-.5.7-.8,1.3-.9Z"/>
    <path class="st45" d="M172.6,197.9c-.6.4-1.6,1.3-2.3,1.3-.8,0-1.6-.7-2.1-1,1.5.1,3-.2,4.4-.4Z"/>
    <path class="st45" d="M213.4,115.4"/>
    <path class="st64" d="M288.8,204c-1.1.2-2.2,0-3.3-.2,1.1-1,2.2-1.4,2.9-.8s.3.5.4.9Z"/>
    <path class="st64" d="M226.3,175.7c0-.7,0-1.4-.4-2,.4-.4.7-.3.9,0,.6.9.8,2,.3,2.6s-.3,0-.8-.6Z"/>
    <path class="st45" d="M212.6,112.2c0-.9.9-1.6,1.4-1.9.8.5.5,1.2,0,1.8s-1.5.5-1.5,0Z"/>
    <path class="st45" d="M183.2,196.1h-6.7c-.4,0-.7,0-.8-.2,2.5,0,5.1-.5,7.5.2Z"/>
    <path class="st45" d="M283.9,140.6c.3-.8.8-1.5.8-2.7.7,0,1,.9,1,1.3s-.2,1.6-1.8,1.3Z"/>
    <path class="st45" d="M221.5,179.6c.5.3,1.2,1.2,2.1,1.2s.7-1.5.3-1.9c.6.2.9.7.8,1.3s-.4,1.1-1.1,1.2-2.2-.8-2-1.8Z"/>
    <path class="st45" d="M280.6,112.2c-.2.4-1,.5-1.2.2s-.3-.8-.2-1.5.6-.4,1,0,.9.4.4,1.3Z"/>
    <path class="st64" d="M240.4,168.2c0-.6,0-1.3-.5-1.8v-.9c.5.4,1.1.4,1.5,1.4s.3,1-.2,1.3-.5.2-.8,0Z"/>
    <path class="st45" d="M147.4,122l-3,.2c-.4,0-.8,0-1.4-.3,2.4-.7,4.5-1.1,4.4.1Z"/>
    <path class="st45" d="M279.1,178.8c-.2.4-.5,1.1-.3,1.6s.9.6,1.3.9c-.5.2-.8.5-1.3.2-.8-.4-1.4-1.8-.9-2.3s.7-.4,1.1-.4Z"/>
    <path class="st45" d="M248.2,250c-.8.7-1.9-.9-1.4-1.6s1,0,1.2.2.8.9.2,1.4Z"/>
    <path class="st45" d="M290.4,172.5c-.4-.4.6-2,1.2-2,.7.1.5,1.1.2,1.6s-.9,1.1-1.5.4Z"/>
    <path class="st45" d="M254.9,220c.5.3,0,1.9-.5,2-.7-.5-.9-.8-.9-1.1,0-.6.5-1.3,1.4-.8Z"/>
    <path class="st45" d="M181.7,133c.2.2-.4,2-.6,2.2-.4.3-.9,0-1-.3-.2-.5.6-2,.7-2,.3-.1.8-.1.9,0Z"/>
    <path class="st45" d="M142.7,206.3c-.5.9-1.4.9-2.2.4s-1.5-1.1-1.4-2.1c1,1.2,2,2.3,3.6,1.7Z"/>
    <path class="st45" d="M154,122.2h-.7c-.2-.4-.4-.8-.4-1.1s.5-.8.8-.6l1.7,1.5-1.3.3Z"/>
    <path class="st45" d="M221.6,124.6c0,.1-.1.4-.1.5-.7.7-.6,1.8-.3,2.8-.5,0-.8-.4-.8-.6.6-.9.2-2,.1-2.9,0-.2.6-.8.8-.7s.3.7.3.8Z"/>
    <path class="st45" d="M94.2,309.5v5.1c0,.3.1.8-.3,1-.4-2.3,0-4.2.3-6.1Z"/>
    <path class="st45" d="M250.2,292.5c0,.3-1.2,1.4-2.1.9s1-1.6,1.5-1.4.6.3.7.5Z"/>
    <path class="st45" d="M173.3,183"/>
    <path class="st45" d="M225.8,150.7c.4.3.7.8.4,1.1"/>
    <path class="st64" d="M186,257.5c.3.7,1,.9,1.7.9l-.8.8c-.8-.4-1.8-.5-2.4-1.2.5,0,1.2-.2,1.6-.5Z"/>
    <path class="st45" d="M286.2,188.7c.2.8.8,1.5.6,2.4-1.2-.5-1.9-1.5-1.6-2.2s.7-.2.9-.2Z"/>
    <path class="st45" d="M98.8,282.8c-.5,0-.8-.2-.9-.3-.2-.2-.3-.6.1-.9.7-.4,1-.3,1.4.2s.2,1.2-.7,1Z"/>
    <path class="st72" d="M197.1,269.5l2.5,2.6,2.5,3.2c-.8-.2-1.4-.8-2-1.4l-3.6.7c-1.1.2-2.3-1.2-1.8-2.2l1.3-2.9c-.3-.2-.3-.5-.3-.8.5.1,1,.4,1.3.8Z"/>
    <path class="st72" d="M149,255.5c-1.1,1,0,2.2.9,3-2.1,0-3.7-1.6-4.7-3.2l3.9-3.9c.6,1,.8,2,1,3s-.9.8-1.1,1.1Z"/>
    <path class="st72" d="M183.5,275.7c-1.1,1.5-5.9-2.7-5.9-4.8s.8-1.8,1.8-1.4c.1.6.1,1.7.4,2.4s1.5.5,2,.9c.4.9.4,2,1.7,2.8Z"/>
    <path class="st72" d="M168.1,284.1c-.7.4-1.2-.5-1.3-.9-.3-.7,0-1.6.1-2.3.3-1.1-1.8-2.5-1-3.7s1.5-.9,1.8-.1c.6,1.4-.2,3,0,4.5s1.6,1.8.4,2.6Z"/>
    <path class="st72" d="M156.6,278.7c-.1.4-1.4.3-1.9.2s-1.1-1-.6-1.4l4.2-3.3c.6.4.8.6.9.9.2.8-1.6.4-2.3,1.6s-.2,1.2-.3,2Z"/>
    <path class="st72" d="M185.3,276.8c.4.8-2.2,3.2-2.4,2.2s1.8-1.5.7-2.7c.8-.4,1.4,0,1.6.5Z"/>
    <path class="st72" d="M159.8,290.3c-1.1.5-1.9-.2-2.7-.9.8-.5,2.2-.5,2.7.9Z"/>
    <path class="st45" d="M424.1,167.4c.2-.6.2-1.3-.2-1.7s-1.2-1-1.7-.5l-1.7,1.5c-.6-3.4-2.2-4.7-2.2-5s.3-.4.4-.3l.6.5,4.9,1.7c2,1.4,2,4,2.2,6.1,0,.6,1.5,1.2.5,2.2-.7-2-3.4-.9-3.7-2.3s.6-.9.9-2.1Z"/>
    <path class="st45" d="M416.1,156.3c-2,.2-2.8.4-4,1.3-.7-.2-2.1-.8-2.1-1.7s1-2-.2-2.3-.8.6-1,.8c-.3.3-1.4-.3-1.2-.7.6-1.4.6-2.2.7-3.9,1.4,1.5,2.8,1.7,4.4.3.4,1,.6,1.6.6,2.4-.7.3-1.2.8-1.4,1.3s.4,1.7,1.2,1.6,2.2-.6,3.1.8Z"/>
    <path class="st47" d="M424.1,167.4l-4.2,4.5c-.4.5-.8.7-1.3.5l-1.2-1.5c0-.7.6-1.4,1.1-2l2.1-2.3,1.7-1.5c.5-.5,1.3,0,1.7.5s.4,1.1.2,1.7Z"/>
    <path class="st64" d="M401.1,230.1c-.3-1.6-.6-3.1-1.5-4.4l2-.3c.7-.6,1.3-.6,1.7-.1.7.7-1.7,2.9-1.5,6.3l-.4-3.2c-.5.6-.2,1.3-.3,1.7Z"/>
    <path class="st45" d="M394.8,255.6c.1-.5,1.2-.5,1.6-.7-.3-1.9-1.7-3.6-3-4.4-.3,0-1.1.4-1.3,0l-.4-.7c.8.3,1.5.2,2.2-.2,2,2.1,4.5,4.9,3.4,6.6s-.8.5-1.2.2l-1.4-1Z"/>
    <path class="st45" d="M418.4,169c-.5.6-1.1,1.2-1.1,2l-3.7-3.8c.9-.6,2.3-.7,3.1,0l1.7,1.8Z"/>
    <path class="st64" d="M405.8,234.7c.2,1.2-.7,2.4-1.8,2.5v-2.4c0-.6.3-.6.6-.7s1-.2,1.2.6Z"/>
    <path class="st45" d="M421.1,147.1c-.4-.2-.5-1-.1-1.4s.7-.8,1.4-.7.8,1,.6,1.4c-.4.6-.8,1.1-1.8.7Z"/>
    <path class="st45" d="M418.2,143.8c.3-.2,1.1-.2,1.4.1s0,.9-.5,1.4-.5.4-1.1-.2-.6-.9.2-1.3Z"/>
    <path class="st45" d="M423.4,152.3c-.2-.2-.5-1.1-.4-1.4.2-.7.8-.3,1-.2.4.2.6.7.3,1.1s-.5.8-.9.5Z"/>
    <path class="st87" d="M305.5,356.1c-1.1-.5-1.2-1.9-1-2.9,1-.5,1.9-.2,3.1-.1l7.2.8c1,.1,1,1.6.8,2.2-.4.9-1.3,1-2.3,1-2.7,0-5.4.1-7.7-1Z"/>
    <path class="st76" d="M322.9,357c-1,.2-1.5-.9-1.6-1.6s.5-1.7,1.4-1.8l8-1.3c1-.2,1.7.9,1.7,1.6s-.6,1.6-1.7,1.8l-7.7,1.3Z"/>
    <path class="st45" d="M346.4,340.4c-.6,0-1.1,0-1.2-.6-.1-1.2,1.7-2,2.2-1.8s.6,1,.6,1.4c0,.7-.7.9-1.6.9Z"/>
    <path class="st45" d="M348.3,345.1l-1.3-.6c-1-.5-1.9-.2-2.3.6-.5-.4,0-1.2.4-1.6.9-.8,2.3.2,3.2,1.5Z"/>
    <path class="st45" d="M348.6,314.9c2.4,0,.5.7.5,2.4s-.8.1-.9-.2c.5-.7.7-1.5.4-2.2Z"/>
    <path class="st64" d="M280.3,338.6c-.8-.6-1.3-1.4-2-1.4l-1.8-.3c0-.3-.3-.9.4-1.3s1.7-.3,2.4.2,1,1.6.9,2.8Z"/>
    <path class="st45" d="M288.7,321.3c0,.2-.2.6-.4.7-1.1.1-1.6.3-1.8,0s0-.6.3-.7c1.7-.7.8-2.5,1.8-3v3Z"/>
    <path class="st16" d="M273.2,333.5c.8-.8.8-2,.2-2.9,0-.1.2-.5.2-.6.5.5,1.2,1.2,1.1,2.2s-.6,1.5-1.5,1.3Z"/>
    <path class="st45" d="M360.1,338.3c0-.6,0-1.2-.4-1.6s-.9-.6-1.7-.8c.7-.5,1.3-.1,1.8.1.7.4,1.3,1.3,1,2.1s-.2.5-.4.5-.3-.2-.3-.3Z"/>
    <path class="st64" d="M250.7,172.8c-.2,0-.6-.1-.9.4l2.2.4c-1.1,1-2.1,1.2-2.7,2.3v.8c0,.4-.9.4-.9-.2-.1-1.7-.2-3.2,1.2-4.1l1.2.3Z"/>
    <path class="st64" d="M241.1,177.6c.2.8-1.6,1.6-2.3,1.1l.5-1.2c.2-.4,1.2-.6,1.8.2Z"/>
    <path class="st64" d="M254.2,172.5c.8,1,2.1,1.1,2,1.8-.3,1.6-1.4-.6-3.3-1.5l1.3-.3Z"/>
    <path class="st64" d="M199,195.3c.9-.3,1.2-1.4,1-2.1-.3-1.1-1.7-1.5-2.6-1-.5-.4-.7-.8-.6-1.3s.5-1.1.9-.9c1.8.9,3.8,2.2,4.4,4.1-.3,1.1-2.3,1.7-3.1,1.2Z"/>
    <circle class="st34" cx="145.6" cy="196.9" r="3.4"/>
    <circle class="st95" cx="251.9" cy="165.2" r="3.4"/>
    <g>
      <path class="st17" d="M249.8,99c2.3,0,4.7,0,7,.5,12.8,2.5,22.5,13.3,24,26.3,0,.3.2.7.2,1.1.6,9.6-3.4,19-10.6,25.3-.1-1.2-.7-1.9-1.8-2.5,11-9.3,12.7-25.6,4-37-8.8-11.4-24.9-14-36.8-5.8-.3-1.1-.2-2.1-.9-2.9,4.4-3,9.6-4.8,14.9-5Z"/>
      <path class="st96" d="M235.8,106.8c-8.4,5.8-12.8,15.8-11.4,25.9s8.3,18.5,17.9,21.8l-2.3,2.3-1.5-.5c-11.8-5.6-18.6-18.2-16.9-31.2,0-.2,0-.4.1-.5,1.5-8.4,6.1-16,13.3-20.6.6.8.6,1.8.9,2.9Z"/>
      <path class="st48" d="M270.4,152.1c-3.4,2.9-7.3,5-11.8,6.2l-.2,2.5c-2.1-3.2-6.4-4.2-9.7-2.8-1.7-.2-3.2-.8-3.6-2.6,8.3,1.9,17-.2,23.5-5.7,1.1.6,1.7,1.3,1.8,2.5Z"/>
      <path class="st52" d="M245.1,155.3c.4,1.8,2,2.4,3.6,2.6-.5.2-1.2.6-1.6.9l-4.4-.9-2.7-1.1,2.3-2.3c.9.3,1.9.6,2.8.8Z"/>
      <path class="st88" d="M278.1,129c0-14.9-12.1-27-27-27s-27,12.1-27,27,12.1,27,27,27,27-12.1,27-27ZM251.2,147.9l-8.4-6.6c-5.4-4.2-10.8-11-8.7-17.6s2.8-4.8,4.9-5.7c4.9-2,9.7.4,12.2,5.3,2.6-5.5,8.3-7.5,13-4.9s5.6,11.2,1.2,16.7c-4.1,5.1-9,9-14.2,12.8Z"/>
      <path class="st18" d="M265.4,135.2c-4.1,5.1-9,9-14.2,12.8l-8.4-6.6c-5.4-4.2-10.8-11-8.7-17.6s2.8-4.8,4.9-5.7c4.9-2,9.7.4,12.2,5.3,2.6-5.5,8.3-7.5,13-4.9s5.6,11.2,1.2,16.7Z"/>
    </g>
    <g>
      <path class="st82" d="M108.3,345.9l3.6,6,1.2,2c-6.5.3-12.9,2.3-19.2,4.1,0-1,.8-1.1,1.5-1.5,4.5-3.4,5.6-9.2,4.1-14.5s-.4-1.5-1.2-1.6c0,0-.2-.4-.1-.5.9-.2,2-.6,2.8-.5s2.3,0,2.9-1.3l4.5,7.9Z"/>
      <path class="st68" d="M180.9,346c.6.5,1.1,1.2,1.5,1.9,1.6,2.9,1.4,6.5-.8,9s-4.5,2.6-6.9,2.4c-4-.9-6.8-4.6-6.1-8.7.5-2.6,2.2-4.8,4.5-5.7s5.6-.5,7.8,1.2ZM179.3,351.8c0-1.8-1.5-3.3-3.3-3.3s-3.3,1.5-3.3,3.3,1.5,3.3,3.3,3.3,3.3-1.5,3.3-3.3Z"/>
      <path class="st45" d="M97.3,340.3l-2.5,2.9c-.4-.2-1-.1-1.2-.6l-1-2.4c-.9-.5-2-.2-3.1,0v-4.6c1.3,0,1.4,1,2,1.6,1.5,1.8,3.8,2.6,5.9,3.1Z"/>
      <path class="st45" d="M77,330c-.3.4-.5.8-.6,1.2-1.3-.5-2-1.2-2.1-2.2s0-2.3,1.6-2.6l.6,2.3v-5.7c0-.4.2-.7.5-.7v7.8Z"/>
      <path class="st45" d="M87.8,331.4l-1.9-4c.4-.4,1-.8,1.4-.8,1,0,3,2.4,1.6,3.5s-1.2.6-1.2,1.4Z"/>
      <path class="st100" d="M183.2,346.7c-.4,0-.7.8-.9,1.2-.4-.6-.9-1.4-1.5-1.9.6-.3.9-.9,1.2-1.4,0,.9.6,1.4,1.1,2.1Z"/>
      <g>
        <path class="st61" d="M171.9,360.9l-10,.6c-.8,0-1.5.5-1.8,1.1-1.1,1.8,2.4,4.2-.7,9s-5,4.7-8.3,5.8l-7.3,2.5c-2.2.7-4.3,1.9-5.5,4s.5,3.2,1.9,3.6l7.9,2.4c4.7,1.4,9.3,2.7,13.8,4.7,3.7,1.6,7.3,2.9,10.6,5.1s2.2,1.2,3.4,1l-7.2,1.3-18.4,1.7h-15.8c-6.8,0-13.6-.6-20.1-2l-3.5-.7-5.9-1.2c-.3,0-.7-.2-1-.5l-10.4-11.5c1,0,1.3-1.1,2-1.6,2.4-2,5.1-3.6,8.1-4.5l13-4.3c9.2-2.3,18.2-4.5,27.1-7.5s7.2-3.5,6-6.4c-.8-1.9-.4-3.7,1.2-5s3.3-1.9,5.2-2.3l9.8-2.2h.4c.5,3,2.6,6,5.5,7.1Z"/>
        <path class="st59" d="M165.9,353.8l-9.8,2.2c-1.9.4-3.7,1.1-5.2,2.3s-2,3.2-1.2,5c1.3,2.9-2.4,5.2-6,6.4-8.9,3-17.9,5.2-27.1,7.5l-13,4.3c-3,1-5.7,2.5-8.1,4.5s-1,1.5-2,1.6c-5.4-6.6-10.9-13.2-15.1-20.5,3-3.4,7.1-5.4,10.9-7.6,0-.3.4-.1.6,0,.4.1.7-.4.5-.7l.2-.4c.4,0,.8-.2,1.1-.5l.7.2c.5.5,1.1-.1,1.5-.3,6.4-1.8,12.7-3.7,19.2-4.1l4.4,7.4c1.6,2.6,5.6,3.6,7.8,1.1l6.8-10.6c11-.2,22,0,33.1,1.6.5,0,.7.2.8.5ZM138.7,365.5c.1-.8.6-1.4,0-2.5-1.1,1.8-2.2,1.7-3,2.2s1.3-.1,2.9.3Z"/>
        <path class="st77" d="M190.9,359.6l8.6,3.4c-.3,0-.5.2-.5.6,1.4.1,2.1.9,3.4,1.7-2.7,2.1-3.6-.5-6.2-1.2-1.2,2.2-5.3,3.1-5.3,3.1-.5-.4.3-1.6-.3-2s-.7,0-.8.4-.1.4,0,.9c-.4,1.3-1.6,1.7-3,1.9,0,.8-.1,1.5-.4,1.9s-1.2.5-1.6.7c.1.8.2,1.8,0,2.6s1.1,1.2,1.4,1.7c.7.9-.6,2.1-1.6,2.1v2.1c-.8,0-1.6-.2-2.2.6,1.2.4,2.2.7,3.8.6-.3-1-.4-1.7-.2-2.9,1.2.3,1.6,1.2,1.5,2.3s-1,1.4-1.9,2c-.7.7-.7,2.2-.8,3.1,1.2.2,2.1.5,2.6,1.2-.4.4-1,.8-1.3.7s-.4-.8-.7-1c-.7-.5-1.4,0-1.7.5-1.3,1.8,1,1.8,0,3.5s-1.6.3-2,.5c-.8.6.6,1.9,1,2.4s0,1.1,0,1.3c.5,1.3,2.8-2.2,5.9-2.2l.2,2.3c1,.2,1.9-.2,2.5-.9-1-.5-1.2-1.5-.9-2.1s1-1.3,1.7-1,.5,1,.8.9l1.1-.3c1.1-.3.6,1.8,1,2.8v.4s-10,4.2-10,4.2l-7,2.1-2.3.5c-1.3.2-2.3-.3-3.4-1-3.3-2.2-7-3.5-10.6-5.1-4.5-2-9.1-3.2-13.8-4.7l-7.9-2.4c-1.4-.4-2.7-2.1-1.9-3.6s3.4-3.2,5.5-4l7.3-2.5c3.3-1.1,6.4-2.8,8.3-5.8,3.1-4.8-.4-7.2.7-9s1-1.1,1.8-1.1l10-.6c.1,0,.2,0,.3,0,2.4,1.3,5.3.5,8.2.2l10.5-1.5Z"/>
        <path class="st69" d="M207.5,368.4c2.3,2.4,3.8,5.7,3.3,9s-.9,3.3-1.7,4.6c-2.1,3.3-4.9,6-8.1,8.2l-4,2.7-1.9.6c-.4-1,0-3.1-1-2.8l-1.1.3c-.3,0-.4-.8-.8-.9-.6-.3-1.4.6-1.7,1s0,1.6.9,2.1c-.6.7-1.5,1.1-2.5.9l-.2-2.3c-3.1,0-5.4,3.5-5.9,2.2s0-1.2,0-1.3c-.4-.5-1.8-1.7-1-2.4.5-.2,1.6.2,2-.5,1-1.7-1.2-1.8,0-3.5s.9-1,1.7-.5.4,1,.7,1,.9-.3,1.3-.7c-.6-.7-1.4-1-2.6-1.2.1-1,0-2.5.8-3.1.9-.6,1.8-1,1.9-2s-.4-2-1.5-2.3c-.2,1.2,0,1.9.2,2.9-1.7.1-2.6-.2-3.8-.6.7-.8,1.4-.7,2.3-.6v-2.1c1,0,2.2-1.2,1.5-2.1s-1.7-.7-1.4-1.7.2-1.8,0-2.6c.4-.2,1.3-.4,1.6-.7s.5-1.1.4-1.9c1.3-.1,2.6-.6,3-1.9-.2-.4-.2-.7,0-.9.1-.3.6-.5.8-.4.6.4-.2,1.6.3,2,0,0,4-1,5.3-3.1,2.7.7,3.5,3.4,6.2,1.2-1.4-.8-2.1-1.6-3.4-1.7,0-.3.2-.5.5-.6,3,1.2,5.8,3.1,8,5.4Z"/>
        <g>
          <path class="st5" d="M83.9,324.2l2.1,3.2,1.9,4c1.4,4.2,1.5,8.6.4,12.8s-.3,2,.1,3.3l3.3,10.5c-.3.3-.7.5-1.1.5l-4.3-12.6c-3.1-2.9-6.4-5.8-7.7-10s-1.6-3.9-1.6-5.9v-7.8s0-.7,0-.7c.4-.6.6-1.4.7-2.1h.6c.4,0,1,0,1.4.5l4.2,4.3Z"/>
          <path class="st99" d="M72.4,342.5c7.2,1,13.3,6.2,15.4,13.5s1.9,2.1,2.5,2.9c.2.3-.1.8-.5.7s-.6-.3-.6,0l-2.2-1.8c-8.3.4-13.9-5.3-17.1-12.4s-1-2.1-.5-2.7c.7-.9,2.2-.3,3-.2Z"/>
          <path class="st71" d="M98.2,340.2c.8.1,1,.8,1.2,1.6,1.5,5.3.4,11.1-4.1,14.5s-1.5.5-1.5,1.5c-.5.1-1,.7-1.5.3,1-2.5-1.4-5.1,0-9.9s1.2-3.8,2.5-5.1l2.5-2.9c.3,0,.6,0,.9,0Z"/>
          <path class="st45" d="M90.5,358.5l-.2.4c-.6-.8-2.2-1.7-2.5-2.9-2-7.3-8.2-12.5-15.4-13.5.4-.2.7-.2,1.4,0-.3-.5-.8-.7-.6-.9l.5-.9,4-4.1c.3,0,.6,0,.7-.1s0-.5.1-.6c1.3,4.2,4.6,7.1,7.7,10l4.3,12.6Z"/>
          <path class="st45" d="M92.3,348.3c-1.4,4.8,1,7.3,0,9.9l-.7-.2-3.3-10.5c-.4-1.4-.4-2.2-.1-3.3-.2.6.5,1.2.7.2,2.2-.1,1.9,2.4,3.4,3.9Z"/>
        </g>
        <path class="st54" d="M174.7,359.3c-.6.7-1.5,1.6-2.6,1.6,0,0-.2,0-.3,0-3-1.1-5.1-4-5.5-7.1l2.1-.6c-.4-1.2,0-1.9.2-2.6-.7,4.1,2.1,7.8,6.1,8.7Z"/>
        <path class="st12" d="M138.7,365.5c-1.6-.4-4.1.4-2.9-.3s1.9-.4,3-2.2c.5,1.1,0,1.7,0,2.5Z"/>
        <path class="st41" d="M190.9,359.6l-10.5,1.5c-2.8.4-5.8,1.1-8.2-.2,1.1,0,1.9-.9,2.6-1.6,2.4.2,5.2-.5,6.9-2.4l9.3,2.7Z"/>
      </g>
      <circle class="st36" cx="176" cy="351.8" r="3.3"/>
      <g>
        <path class="st39" d="M140.7,292.3c5.7,5.6,9,13.3,8.5,21.5-.3,4.7-1.7,8.9-3.7,13.2-4.1,8.6-8.4,16.9-13.4,24.8l-6.8,10.6c-2.1,2.6-6.2,1.6-7.8-1.1l-4.4-7.4-1.2-2c.3-1.1,1.4-1.6,2-2.6l6.4,10.2c.4.6,1.1.9,1.7.9s1.3-.3,1.6-.9l10.9-18.2c3.8-6.3,7-12.6,9.8-19.3,4.2-10.3,1.3-21.6-7.1-28.7.1-.5.2-.7.3-.8.6-.7.7,1,2,1.8.2-.9.7-1.4,1.3-1.9Z"/>
        <path class="st4" d="M127,285.2l1.8.3c0,.8,0,1.6-.5,2.3,1,.3.1,1-.3.8-8.7-2.4-17.7.3-23.8,6.6-6.2,6.5-8.4,15.6-5.8,24.3l2.8,7.1,9.5,17.6c-.8.7-2,0-2.6,1.7l-4.5-7.9-2-3.6-4.3-8.8-.9-2.4c-1.1-2.8-2.2-5.7-2.2-8.7v-5.1c1.6-9.7,7-18.6,16.5-22.6,1.3-.5,2.8-1.2,4.2-1.3l2.8-.3c4.6,2.4,6.2-.5,9.1,0Z"/>
        <path class="st66" d="M131.6,286.4l3.5,1.6c2.1,1,3.9,2.6,5.5,4.3-.5.5-1,1-1.3,1.9-1.2-.8-1.3-2.5-2-1.8s-.2.4-.3.8c-2.7-2.2-5.7-3.7-9.1-4.7.4.2,1.3-.4.3-.8.4-.7.4-1.6.5-2.3l2.8.9Z"/>
        <path class="st13" d="M127.2,284.7c-.3.1-.2.4-.2.5-2.9-.4-4.6,2.5-9.1,0l-2.8.3c0-.1,0-.3,0-.4l5-.7c1.3-.2,2.4.2,3.8.2h3.4Z"/>
        <path class="st43" d="M128.1,288.6c3.4.9,6.4,2.4,9.1,4.7,8.4,7,11.3,18.4,7.1,28.7s-6,13-9.8,19.3l-10.9,18.2c-.4.6-1.1.9-1.6.9s-1.3-.3-1.7-.9l-6.4-10.2-3-5.2-9.5-17.6-2.8-7.1c-2.6-8.7-.5-17.9,5.8-24.3,6.1-6.3,15.1-8.9,23.8-6.6ZM132,312.2c0-5.6-4.6-10.2-10.2-10.2s-10.2,4.6-10.2,10.2,4.6,10.2,10.2,10.2,10.2-4.6,10.2-10.2Z"/>
        <path class="st29" d="M110.9,344.1l3,5.2c-.6,1-1.7,1.4-2,2.6l-3.6-6c.5-1.7,1.8-1.1,2.6-1.7Z"/>
        <circle class="st7" cx="121.9" cy="312.2" r="10.2"/>
      </g>
    </g>
    <g>
      <path class="st46" d="M140.6,123.2c.5-.3,1.3.2.4.6-.6,0-.9.6-.7.8.4.8,1.5.4,2.2,1.1-11.8,2.7-20.6,12.1-22.4,24.1s2,18,8.8,24.2c-.9.4-1.3,1.5-1.7,2.4l-1.7-1.2-4.4-5.5c-.4-.5-.7-1.3-1-2-2.6-5.3-3.8-11-3.2-16.8s1.1-7,2.8-10.5c3.9-7.8,10.2-13.7,18.3-16.6l2.6-.6Z"/>
      <path class="st50" d="M153.3,122.1h.7c10.1,2.1,19.2,8.1,23.8,17.3l-2.6,1.4c-3.4-6.7-9.3-11.7-16.4-14.2,0-.1.4,0,.8-.4-3.1-1.4-6.4-1.9-10-1.9.2-1.6,1.3-1.5,1.7-2.3h2Z"/>
      <path class="st2" d="M179.5,163.8c-2.7,7.5-8.2,13.5-15.3,17.3l-1.8.9c-1.5.8-3.2,1.3-4.9,1.6,1-.9,1.1-2.4,2.7-4.1,7.7-3.1,13.6-9,16.5-16.8.9.5,1.8.7,2.8,1.1Z"/>
      <path class="st98" d="M160.2,179.5c-1.5,1.8-1.7,3.2-2.7,4.1l-5.5,1c-4,.7-8.1.1-12.2-1.2l-2.3,1.7c-1-.2-1.9-.8-2.8-1.5l5.4-3.3c6.7,2.2,13.6,1.9,20.2-.8Z"/>
      <path class="st104" d="M179.5,163.8c-1-.4-1.9-.5-2.8-1.1,2.7-7.2,2-15-1.5-21.9l2.6-1.4c3.8,7.7,4.6,16.4,1.7,24.4Z"/>
      <path class="st81" d="M129.8,181.4l-.4,2.7c0,.6,0,1.2.4,1.5s1.2.3,1.8,0l3.1-1.9c.9.7,1.8,1.4,2.8,1.5l-6,3.3c-2,1.1-3.9-.2-4.9-1.7-.4-1.8,0-3.5.2-5.6s-.2-1.6.5-2c-.1.5.6,1.3-.4,2.1,1.2.1.9-.8,1.1-.9s.6,0,1.1-.2c0,.6.1,1.2.7,1.3Z"/>
      <path class="st32" d="M147.4,122c1.3,0,2.6,0,3.9,0-.4.8-1.4.7-1.7,2.3,3.5,0,6.9.5,10,1.9-.4.3-.7.2-.8.4-5.3-1.9-10.8-2.1-16.4-.8-.7-.7-1.8-.3-2.2-1.1s.1-.8.7-.8c.9-.4,0-.9-.4-.6l1.3-.8c.8.3,1.7-.2,2.5-.2l3-.2Z"/>
      <path class="st107" d="M129.8,181.4c-.6,0-.7-.7-.7-1.3-.5.2-.9,0-1.1.2s0,1.1-1.1.9c1-.7.3-1.6.4-2.1.2-1-.2-2-.2-2.7.4-.9.8-2,1.7-2.4,1.1,1,2.3,1.3,1.8,3.4l-.9,3.9Z"/>
      <path class="st62" d="M158.8,126.6c7.1,2.5,13,7.5,16.4,14.2s4.2,14.7,1.5,21.9c-2.9,7.7-8.8,13.7-16.5,16.8-6.6,2.6-13.5,3-20.2.8l-5.4,3.3-3.1,1.9c-.6.4-1.3.5-1.8,0s-.5-.8-.4-1.5l.4-2.7.9-3.9c.5-2.1-.6-2.4-1.8-3.4-6.9-6.3-10.2-15.1-8.8-24.2s10.6-21.4,22.4-24.1c5.6-1.3,11.1-1.1,16.4.8ZM140.2,153.5c0-1.8-1.5-3.3-3.3-3.3s-3.3,1.5-3.3,3.3,1.5,3.3,3.3,3.3,3.3-1.5,3.3-3.3ZM152.3,153.5c0-1.8-1.5-3.2-3.2-3.2s-3.2,1.5-3.2,3.2,1.5,3.2,3.2,3.2,3.2-1.5,3.2-3.2ZM164.5,153.5c0-1.8-1.5-3.3-3.3-3.3s-3.3,1.5-3.3,3.3,1.5,3.3,3.3,3.3,3.3-1.5,3.3-3.3Z"/>
      <circle class="st92" cx="161.2" cy="153.5" r="3.3"/>
      <circle class="st56" cx="137" cy="153.5" r="3.3"/>
      <circle class="st56" cx="149" cy="153.5" r="3.2"/>
    </g>
    <g>
      <path class="st106" d="M331.3,294.3c6.4,4,11,10.2,12.7,17.8,2.6,10.5-1.1,21.3-9,28.4-.6-.9-1.5-1.3-2.4-1.7,0-.5.4-.7.8-1.2,6.4-6,9.6-14.6,7.9-23.6s-6.6-15-14.4-18.5c-5-2.3-10.5-3.2-15.7-1.7l-1.2.3c-1.8.5-3.5,1.2-5.1,2-6.6,3.4-11.2,9.8-12.8,17.1-.2-.4.2-.8-.3-1.4l-.6,2.6c-.7-.6-1-1.1-1.3-2.2-.2.2-.4.3-.7.4l.4-1.9c1.9-8.5,8.4-15.1,15.7-18.3s18.3-3,25.9,1.7Z"/>
      <path class="st73" d="M295.7,332.8c1.3,2.2,3.1,4,5,5.7l-2.7,1.4c-.1,0-.3,0-.5,0-.3-.7-1-1.3-1.7-1.7-.2-1-1.5-2.2-2.8-4.2.7-.4.9-1.5,1.9-1.5,0,.4.4.8.8.2Z"/>
      <path class="st108" d="M332.6,342.2c.2,0,.4.3.3.3l-2.1,1.5c-5.2,2.7-10.9,3.5-16.8,3.3l-2-.3c.6-.1,1.3,0,1.8-.2.3-1.8,1.9-1.9,3.4-2l-2.1-.6c2.8.2,5.5-.5,8.4-.9l9.1-1.2Z"/>
      <path class="st107" d="M301.5,342.3l13.6,2.1,2.1.6c-1.4,0-3.1.2-3.4,2-.5.2-1.2.1-1.8.2-4-.9-8.1-2.1-11.4-4.8h.9Z"/>
      <path class="st44" d="M292.1,313.3c-1.5,6.7,0,13.6,3.6,19.5-.4.5-.7.2-.8-.2-1,0-1.2,1.1-1.9,1.5-2.4-3.8-4.2-8.2-4.3-12.7v-3c0,0,.5-5.5.5-5.5.3-.1.5-.3.7-.4.3,1.1.6,1.5,1.3,2.2l.6-2.6c.5.6.2,1.1.3,1.4Z"/>
      <path class="st11" d="M332.6,338.8c-4.8-2.1-9.9-2.6-15.1-3.3-.4-4.1.6-5,3.6-7.6,3.6,1.8,7.7.6,10.2-2.6s2.3-4.6,2.5-7.4c-2.3-.6-4.6-.4-6.9.3-3.9,1.1-6.4,4.6-6.5,8.7l-2.8,2.6v-10.3c4.1-2.4,5.8-7.2,4.2-11.7s-2.7-4.6-5-6.3c-1.7,1.1-2.9,2.4-4.2,3.9s-.5,1.9-1.3,2.2-.9.9-1.3,1.7c-.7-1-1.4-.8-2.4-.7s-1.3-1.5-1.1-2.4c.5-2.3,3.1-.3,4.2-1.5s.3-1.4,0-2.3c1-.3,2.7-1.2,2.7-2.3.2-3.3-2-4.2-1-5.3l-1.3-.7c5.2-1.5,10.7-.6,15.7,1.7,7.7,3.5,12.9,10.8,14.4,18.5s-1.5,17.6-7.9,23.6c-.5.4-.8.6-.8,1.2Z"/>
      <path class="st105" d="M311.3,293.8l1.3.7c-1,1,1.2,2,1,5.3,0,1.1-1.7,2-2.7,2.3.2.9.4,1.8,0,2.3-1.1,1.2-3.7-.8-4.2,1.5s.1,2.5,1.1,2.4,1.7-.3,2.4.7c.4-.9.7-1.4,1.3-1.7-1.5,4.6,0,9.6,4.8,11.9v9.9c-1.1-.8-1.8-1.5-2.6-2.5,0-4.1-2.7-7.5-6.7-8.4-2.3-.5-4.5-.7-6.9-.1.2,2.8,1,5.4,2.7,7.4,2.6,3.1,6.9,4.1,10.6,2.4l2.5,3.3c.9,1.2,0,3.2.3,4.5-5.2.1-10.4,1.2-15.4,2.8-1.9-1.7-3.7-3.5-5-5.7-3.5-5.9-5.1-12.8-3.6-19.5,1.7-7.3,6.3-13.7,12.8-17.1.2,1,2.1-.7,5-1.4.4.1.8-.4.1-.6l1.2-.3ZM310.8,298.7c-1,.1-2,.5-2.2-.4s-.1-.8-.6-.8c-.9,0-.6,3.1.5,3.3.9-.3,2.2-.7,2.3-2.2Z"/>
      <path class="st11" d="M310.1,294.2c.7.2.2.8-.1.6-2.9.7-4.8,2.4-5,1.4,1.7-.9,3.3-1.5,5.1-2Z"/>
      <path class="st11" d="M310.8,298.7c-.1,1.5-1.4,1.9-2.3,2.2-1.1-.2-1.4-3.4-.5-3.3s.5.3.6.8c.2.9,1.2.6,2.2.4Z"/>
      <g>
        <path class="st80" d="M332.6,338.8c.9.4,1.8.8,2.4,1.7,0,1.1-1.2,1.6-2.4,1.8l-9.1,1.2c-2.9.4-5.6,1.1-8.4.9l-13.6-2.1-2.2-.6c-1-.3-1.5-1-1.3-1.8l2.7-1.4c5-1.6,10.1-2.7,15.4-2.8l1.5-.2c5.1.7,10.3,1.2,15.1,3.3Z"/>
        <path class="st70" d="M317.6,335.4l-1.5.2c-.2-1.4.6-3.3-.3-4.5l-2.5-3.3c-3.7,1.6-8,.7-10.6-2.4s-2.5-4.7-2.7-7.4c2.4-.5,4.6-.4,6.9.1,4,.9,6.8,4.3,6.7,8.4.8,1,1.5,1.7,2.6,2.5v-9.9c-4.7-2.2-6.3-7.3-4.8-11.9.7-.4.7-1.6,1.3-2.2,1.3-1.4,2.5-2.7,4.2-3.9,2.2,1.7,4.1,3.8,5,6.3,1.6,4.5,0,9.3-4.2,11.7v10.3s2.8-2.6,2.8-2.6c.1-4,2.6-7.5,6.5-8.7s4.5-.8,6.9-.3c-.1,2.8-.8,5.3-2.5,7.4-2.5,3.1-6.6,4.4-10.2,2.6-3,2.6-4,3.5-3.6,7.6Z"/>
      </g>
    </g>
    <g>
      <path class="st53" d="M294.3,201.5c.4.4.6.9.5,1.3s-.2,2.2.3,2.7c2.8,1.3,5.3,2.6,7.6,4.3-1.2.3-1.5,1.5-3.3,1.3-8.7-5.7-20.1-5.2-28.3,1.2-8.2,6.4-11.5,17.3-8.2,27.1,3.3,9.9,12.5,16.5,22.9,16.6s19.7-6.4,23.2-16.2c1.2,0,1.9.4,2.7,1.3-3.9,10.6-12.6,16.5-23.8,18.2-2.5-1.7-5.8-1.7-8.5-.3-.5-.8-1.4-.9-2.1-1.1-10.6-3.7-17.9-13.1-18.7-24.3,0-.7-.5-2-.3-2.8l.7-3.8c2.1-12,11.8-21.3,24.2-22.5h6.7c.4,0,.6-.5.6-.8-.1-.5-.6-.6-.7-.8s0-.6.2-.8c.1-.4.5-.6.9-.7v3.2c.1,0,3.4.8,3.4.8v-3.8Z"/>
      <path class="st97" d="M288,259.3c3.6,2.5,4.3,7.4,1.8,10.9s-7.1,4.1-10.7,1.9-1.8-.8-2-2c-.3-1.7-2-2-1.4-3.5v-1.6c-.1,0,1.3-3.3,1.3-3.3.3-.6.9-1.3.3-1.8,1,0,1.5-.6,2.2-1,2.7-1.4,6-1.5,8.5.3ZM287,265.7c0-1.9-1.5-3.4-3.4-3.4s-3.4,1.5-3.4,3.4,1.5,3.4,3.4,3.4,3.4-1.5,3.4-3.4Z"/>
      <path class="st20" d="M302.7,209.9c9.7,7.4,13.3,19.9,9.1,31.3-.8-.8-1.5-1.3-2.7-1.3,3.8-10.7-.2-22.5-9.7-28.7,1.8.2,2.1-1,3.3-1.3Z"/>
      <path class="st102" d="M294.3,201.5v3.8c0,0-3.2-.8-3.2-.8v-3.2c-.1,0,.2-.5.2-.5,1.2-.6,2.2-.3,3,.6Z"/>
      <path class="st45" d="M279.5,259c-.7.4-1.3,1-2.2,1-.3-.3-.7-.4-.6-1s.4-.8.8-1.1c.7.2,1.5.3,2.1,1.1Z"/>
      <path class="st14" d="M310.6,231.6c0-13.5-10.9-24.4-24.4-24.4s-24.4,10.9-24.4,24.4,10.9,24.4,24.4,24.4,24.4-10.9,24.4-24.4ZM286.1,230.9c-4.3,0-7.7-3.5-7.7-7.7s3.5-7.7,7.7-7.7,7.7,3.5,7.7,7.7-3.5,7.7-7.7,7.7ZM272.8,249.9c-.9-4.7.1-9.9,3.7-13.4s11.8-4.9,17.2-1.5c4.7,3,6.5,8.7,5.5,14.8h-26.4Z"/>
      <circle class="st36" cx="283.6" cy="265.7" r="3.4"/>
      <path class="st94" d="M299.2,249.9h-26.4c-.9-4.7.1-9.8,3.7-13.3s11.8-4.9,17.2-1.5c4.7,3,6.5,8.7,5.5,14.8Z"/>
      <circle class="st114" cx="286.1" cy="223.2" r="7.7"/>
    </g>
    <g>
      <path class="st111" d="M413.6,167.1l3.7,3.8,1.2,1.5c8.9,11.7,8.9,28.2-.5,39.9-4.9,6.1-11.8,9.9-19.2,11.5l.7,1.4c-2.8-3.1-7.6-3.8-10.9-1.1-2.2-1-4.2-1.4-6.8-2.4.9,0,.9-1.3,2.5-2.4,12.4,4.1,26-.5,33.3-11.4,7.3-10.9,6.3-25.2-2.2-35.1.6-.7.9-1.7.6-2.5s-1.2-1-1.9-1.4l-3.6-2c.3-.8.4-1.3.5-1.9l2.7,2Z"/>
      <path class="st10" d="M383.5,161.4c.3.5,0,1-.1,1.6,1.5,0,2.7-.1,3.7.7-12.7,2.9-21.9,13.8-22.5,26.8-.6,13,7.4,24.8,19.8,28.9-1.6,1.1-1.6,2.4-2.5,2.4-12.4-4.9-20.4-17.5-20-30.9s9.1-25.2,21.7-29.5Z"/>
      <path class="st67" d="M399.5,225.3v.4c.9,1.3,1.2,2.8,1.5,4.4-.2,1.2-.3,2.5-.8,3.5-1.6,2.9-4.5,4.8-7.8,4.4-3-.5-5.5-2.6-6.3-5.4s0-6.4,2.5-8.3,8.1-2,10.9,1.1ZM396.7,230.2c0-1.8-1.5-3.3-3.3-3.3s-3.3,1.5-3.3,3.3,1.5,3.3,3.3,3.3,3.3-1.5,3.3-3.3Z"/>
      <path class="st35" d="M403,161.2c2.8,1,5.6,2.2,8,4,0,.6-.2,1.1-.5,1.9l3.6,2c.7.4,1.6.7,1.9,1.4s0,1.8-.6,2.5c-7-8.1-17.9-11.6-28.3-9.2-1-.8-2.2-.7-3.7-.7.2-.6.4-1.1.1-1.6,6.4-2.2,13.1-2.4,19.5-.2Z"/>
      <path class="st0" d="M422.4,192c0-16-13-29-29-29s-29,13-29,29,13,29,29,29,29-13,29-29ZM393.1,175.7c-.5-.3-.8-.8-.8-1.5v-4.8c0-.8.4-1.3,1.1-1.4s1.3.3,1.3,1.1v6c0,.8-1.2.9-1.6.6ZM383,179.7c-.3.2-.9.4-1.4-.2l-3.4-4.1c-.4-.5-.5-1.2-.1-1.7s1.2-.6,1.8,0l3.4,4.3c.5.7.1,1.4-.3,1.6ZM404.7,179.8c-.7-.3-1.1-1.2-.5-1.9l3.2-3.9c.5-.6,1.3-.6,1.6-.4.8.5.6,1.4,0,2.1l-2.8,3.5c-.5.6-1,.9-1.5.6ZM387,207.5c-.3-3.1-1.8-5.4-3.5-7.8-3.7-5.1-3.4-11.6.9-16.4s9.5-5,14.4-2.8,7.9,7,7.4,12.4-2.2,6.5-4.4,9.4-1.7,4.5-2.1,6.8.5,2-.6,2.7c.4,0,.4.5.2.5s-.7,0-.7,0c.7,0,1,.8,1,1.3,0,.7-.3,1.2-1.1,1.5-1.7.6-2.3,3-5,2.9s-2.6-.5-3.5-1.8-2.9-1-2.6-3c.1-.7.8-1,1.7-1l-.2-.5c-.8,0-1.5-.1-1.6-1s0-1.5.4-2.1c-.3-.3-.7-.8-.7-1.3ZM370.7,189.5c-.9-.2-.4-2.4.5-2.2l5.2.9c.9.2,1.3.7,1.2,1.4s-.7,1.1-1.6.9l-5.3-1.1ZM410.6,190.6c-.6.1-1-.6-1.1-1s.2-1.1.8-1.2l5-1c.8-.1,1.1.3,1.3.7s.1,1.3-.5,1.4l-5.5,1.1Z"/>
      <circle class="st36" cx="393.4" cy="230.2" r="3.3"/>
      <path class="st21" d="M394.7,175c0,.8-1.2.9-1.6.6s-.8-.8-.8-1.5v-4.8c0-.8.4-1.3,1.1-1.4s1.3.3,1.3,1.1v6Z"/>
      <path class="st79" d="M406.2,179.1c-.5.6-1,.9-1.5.6-.7-.3-1.1-1.2-.5-1.9l3.2-3.9c.5-.6,1.3-.6,1.6-.4.8.5.6,1.4,0,2.1l-2.8,3.5Z"/>
      <path class="st75" d="M376,190.6l-5.3-1.1c-.9-.2-.4-2.4.5-2.2l5.2.9c.9.2,1.3.7,1.2,1.4s-.7,1.1-1.6.9Z"/>
      <path class="st6" d="M383.3,178c.5.7.1,1.4-.3,1.6s-.9.4-1.4-.2l-3.4-4.1c-.4-.5-.5-1.2-.1-1.7s1.2-.6,1.8,0l3.4,4.3Z"/>
      <path class="st74" d="M416.2,189.5l-5.5,1.1c-.6.1-1-.6-1.1-1s.2-1.1.8-1.2l5-1c.8-.1,1.1.3,1.3.7s.1,1.3-.5,1.4Z"/>
      <g>
        <path class="st65" d="M399.7,209.1l-3.7-.3c-.6-1.4-.8-2.7-.3-4.5.2-.7-.6-.8-.6,0-.5,1.6-.2,3.1-.2,4.5h-2.3s.1-2.6.1-2.6c.2-4.5.5-11-2.8-11,2.5,1.7,2.7,8.4,1.9,10.9l-1.4,2.6h-2.7c-.3-.2-.7-.8-.7-1.3-.3-3.1-1.8-5.4-3.5-7.8-3.7-5.1-3.4-11.6.9-16.4s9.5-5,14.4-2.8,7.9,7,7.4,12.4-2.2,6.5-4.4,9.4-1.7,4.5-2.1,6.8ZM394,199.7c.2-.8-.2-1.9.4-2.6-.8-.2-1.1-.5-2-.4.6.5.9,1.1.9,1.9v9.3c1.7,2-.4-2.2.7-8.1Z"/>
        <path class="st38" d="M389.1,212.4h9.5c.7,0,1,.9,1,1.3,0,.7-.3,1.2-1.1,1.5-1.7.6-2.3,3-5,2.9s-2.6-.5-3.5-1.8-2.9-1-2.6-3c.1-.7.8-1,1.7-1Z"/>
        <path class="st57" d="M390.4,208.8h2.2s2.3,0,2.3,0h1.1s3.7.4,3.7.4c-.2.8.5,2-.6,2.7h-10.2c-.8,0-1.5-.1-1.6-.9s0-1.5.4-2.1h2.7Z"/>
        <path class="st26" d="M399.1,211.9c.4,0,.4.5.2.5s-.7,0-.7,0h-9.5c0,0-.2-.5-.2-.5h10.2Z"/>
        <path class="st109" d="M392.6,208.8h-2.2s1.4-2.6,1.4-2.6c.7-2.6.6-9.3-1.9-10.9,3.3,0,3,6.5,2.8,11v2.6Z"/>
        <path class="st93" d="M394,199.7c-1.1,5.9,1,10.2-.8,8.1v-9.3c0-.8-.2-1.3-.8-1.9.9,0,1.2.2,2,.4-.6.7-.2,1.8-.4,2.6Z"/>
        <path class="st101" d="M396,208.8h-1.1c0-1.4-.3-3,.2-4.5,0-.8.7-.6.6,0-.5,1.7-.2,3.1.3,4.5Z"/>
      </g>
    </g>
  </g>
</svg>