<?xml version="1.0" encoding="UTF-8"?>
<svg id="Camada_7" data-name="Camada 7" xmlns="http://www.w3.org/2000/svg" viewBox="0 0 500 500">
  <defs>
    <style>
      .cls-1 {
        fill: #6d6b42;
      }

      .cls-2 {
        fill: #c66330;
      }

      .cls-3 {
        fill: #653921;
      }

      .cls-4 {
        fill: #d6c2a6;
        stroke: #fff;
        stroke-miterlimit: 10;
        stroke-width: 25.67px;
      }

      .cls-5 {
        fill: #834e31;
      }

      .cls-6 {
        fill: #c79c69;
      }

      .cls-7 {
        fill: #e4c092;
      }

      .cls-8 {
        fill: #e2b193;
      }

      .cls-9 {
        fill: #f5d8b2;
      }

      .cls-10 {
        fill: #875737;
      }

      .cls-11 {
        fill: #d68751;
      }

      .cls-12 {
        fill: #f3a771;
      }

      .cls-13 {
        fill: #7a462b;
      }

      .cls-14 {
        fill: #c4602f;
      }

      .cls-15 {
        fill: #ddb787;
      }
    </style>
  </defs>
  <circle class="cls-4" cx="250" cy="250" r="237.5"/>
  <g>
    <path class="cls-3" d="M296.34,134.91l-21.54,35.24c-.52.85-.92,1.42-.69,2.26-.37,0-.86.13-.97.41l-.4,1.07c-1.2,1.28-2.05,3.39-3.16,4.77l-1.49,1.81c-.29-.21-.99-.17-1.18-.79l3.87-6.7,1.02-2.07,22.01-36.42c.37-.61.67-1.07.76-1.81,1.33-.08,1.34,1.4,1.75,2.22Z"/>
    <g>
      <path class="cls-7" d="M121.68,264.12l-14.7,25.13c-5.09,8.7-12.05,15.39-20.25,21.24-13.93,9.94-28.01,19.28-42.4,28.36l-1.82-4.35,10.65-17.06,18.43-28.85c7.1-5.13,14.13-10.21,22.18-14.11,9.08-4.39,18.21-7.92,27.91-10.36Z"/>
      <path class="cls-6" d="M201.54,291.27c-.32,1.37-1.38,2.6-2.7,3.12l-4.96,1.91c-5.68,3.83-9.89,9.22-13.41,15.05l-6.67,11.04c-6.91,11.45-20.01,18.97-31.76,24.91-5.46,2.76-10.32,5.94-14.9,10.04-6.43,5.76-12.02,11.93-17.49,18.67-7.87,9.69-15.29,19.36-22.69,29.35l-6.46-7.36,32.77-37.63,10.45-10.48c3.91-3.92,8.54-6.56,13.49-9.02l13.96-6.93c4.55-2.26,8.51-5.21,11.97-8.99l4.38-4.77,5.69-8.37,4.79-7.66c1.31-2.09,2.49-4.03,4.33-5.78l6.34-6.01,3.41-2.73c.81.81,1.42,2.07,2.55,2.56,2.35,1.02,5,.51,6.89-.92Z"/>
      <path class="cls-11" d="M201.82,282.44l-.02,4.91c-.03,1.36-.43,2.57-.29,3.77,0,.05.01.11.04.15-1.89,1.43-4.54,1.94-6.89.92-1.13-.49-1.74-1.75-2.55-2.56l5.67-4.36c1.23-1.25,2.57-2.29,4.05-2.83Z"/>
    </g>
    <g>
      <path class="cls-15" d="M234.42,368.21c3.88,14.16,6.79,28.52,8.53,43.35,1.65,14.08,1.82,27.79.33,41.85l-4.06,24.17-8.35-.48c.12-.28.03-.84-.27-.95.62-.33,1-.86,1.16-1.67l1.38-6.95c.14-.7-.43-1.1-.91-1.11s-.92.32-1.08.97l-1.72,7.27c-.54-.06-.63.51-.06.48.13.22.22.54.27.84-.47.02-.99.34-1.17.83l-6.88-.81c.12-.32-.25-.6-.57-.47-.13.05-.24.17-.23.4-33.7-4.58-66.02-17.03-94.3-36.26-14.5-10.01-28.05-21.23-39.52-34.31,7.4-9.99,14.82-19.66,22.69-29.35,5.47-6.73,11.06-12.9,17.49-18.67,4.58-4.1,9.43-7.28,14.9-10.04,11.75-5.94,24.84-13.46,31.76-24.91l6.67-11.04c3.52-5.83,7.73-11.22,13.41-15.05l4.96-1.91c1.33-.51,2.39-1.75,2.7-3.12-.02-.04-.03-.09-.04-.15,2.09-1.13,1.53-5.05,3.54-6.16l.8,6.12c.07.59,1.02.8,1.37.61.44-.24.66-.7.54-1.4l-.75-4.49c-.12-.7-.37-1.25-.63-1.7.46-2.14,4.08-3.28,6.11-6.03,1.57,10.69,3.3,21.25,6.16,31.92l9.2,34.23,6.56,23.98ZM211.29,307.63l-1.71-7.41c-.13-.56-1.13-.61-1.42-.28-.18.21-.5.6-.38,1.14l1.49,7.05c.15.71.95.99,1.43.75.36-.18.72-.65.58-1.24ZM215.37,324.71l-1.77-6.84c-.15-.58-.97-.77-1.36-.6-.43.2-.68.72-.51,1.38l1.78,7.01c.15.58.95.73,1.34.56.41-.18.74-.73.54-1.52ZM219.88,341.93l-1.75-6.53c-.2-.76-.83-1.12-1.49-.86-.4.16-.67.76-.49,1.4l1.87,6.89c.17.62.92.79,1.29.68.51-.15.8-.76.58-1.59ZM224.75,359.6l-1.91-7.16c-.16-.61-.96-.77-1.38-.62-.46.17-.72.74-.54,1.41l1.95,7.19c.16.58.9.77,1.32.6.36-.14.78-.59.56-1.43ZM229.22,377.67l-1.82-7.29c-.16-.64-1.14-.63-1.45-.37-.34.28-.51.82-.38,1.39l1.59,6.87c.2.85.71,1.24,1.4,1.07.55-.14.88-.79.66-1.67ZM233.29,397.73l-1.46-7.64c-.13-.68-.81-.85-1.16-.78-.54.11-.88.76-.77,1.4l1.35,7.6c.12.69.87.98,1.33.79.33-.13.86-.55.7-1.37ZM236.04,417.04l-.81-7.02c-.1-.87-.72-1.3-1.36-1.13-.59.15-.79.8-.71,1.5l.81,7.25c.1.87.75,1.25,1.4,1.07.52-.15.78-.77.67-1.67ZM236.74,436.74v-7.42c0-.85-.58-1.27-1.29-1.16-.46.07-.84.52-.84,1.22v7.5c0,.77.6,1.21,1.21,1.15.5-.05.92-.39.92-1.29ZM235.22,456l.82-7.38c.09-.77-.49-1.15-1-1.14s-.98.37-1.07,1.1l-.92,7.67c-.08.7.68,1.16,1.13,1.06s.96-.51,1.04-1.31Z"/>
      <path class="cls-14" d="M425.46,300.86c9.91,10.67,19.17,22.59,28.55,34.45.89,1.12,1.51,2.1,2.73,2.84-4.27,10.57-9.43,20.82-15.36,30.58-1.63-.69-2.74-1.87-4.05-3.01l-21.25-18.48c-4.41-3.83-7.62-8.23-9.6-13.78l-8.98-25.11-6.49-18.56c11.91,2.14,23.08,6.21,34.46,11.07Z"/>
      <path class="cls-8" d="M230.59,476.15c.29.11.38.67.27.95l-2.39-.29c.17-.49.69-.81,1.17-.83.26-.01.71.09.96.18Z"/>
      <path class="cls-8" d="M221.58,476c-.11.14-.35.28-.5.21s-.24-.18-.3-.27c0-.22.1-.34.23-.4.31-.13.69.15.57.47Z"/>
      <path class="cls-10" d="M286.66,279.69c.57.63,2.26.05,2.81,1.55.4,1.08-1.75,2.55-2.06,5.13l-5.17-.53c-.63-.06-1.24.13-1.37.64-.15.56.26,1.11,1.07,1.22l6.31.82c.5,2.83,2.65,3.14,4.47,4.42l-1.6,3.71c-1.42,1.46-2.24,3.49-.69,5.14-.98,1.11-1.41,2.43-1.22,3.83.17,1.22,1.03,2.74,2.46,3.3l6.34,2.48c-1.2,2.65-2.29,5.29-1.49,7.98.6,2.05,2.7,3.18,4.56,3.79-.06.44-.4,1.12-.26,1.38.16.28.75.56,1.41.8-.98,2.19-2.04,4.51-1.44,7.01.51,2.13,2.64,3.74,4.77,3.98s4.16-.4,6.16-1.62c.45,1.04.17,2.05-.4,3.08-1.85,3.31-2,7.77.87,9.9,3.26,2.42,7.62.72,11.2-2.55-.8,6.16-3.4,11.45-6.74,16.49-4.08,6.17-7.51,12.41-9.44,19.4-23.74-6.09-48.44-10.36-72.78-12.84l-6.56-23.98-9.2-34.23c-2.87-10.67-4.6-21.23-6.16-31.92.06-.08.11-.27.11-.37,3.53-2.69,6.37-6.15,8.57-10.08,1.42.13,2.52,1.49,3.31,1.17.26-.1.55-.55.54-.94-.03-1.15-1.98-1.05-2.51-2.23.01-.89-.06-2.48.81-3.07l3.07-2.21c19.29,10.22,37.42,15.76,59.24,18.85.5.07.82.24,1.04.49ZM239.14,275.92c.61.25,1.18-.47,1.17-.84-.01-.33-.15-.76-.62-.96l-6.18-2.58c-.53-.22-1.14.18-1.27.5-.19.47-.01,1.07.56,1.3l6.35,2.58ZM254.99,281.62c.67.22,1.27-.36,1.27-.87,0-.46-.36-.85-.89-1.01l-6.09-1.88c-.59-.18-.99.2-1.13.52-.18.42-.03,1.03.51,1.2l6.34,2.03ZM271.53,285.94c.68.15,1.21-.29,1.28-.83.05-.44-.21-.99-.81-1.11l-6.63-1.39c-.72-.15-1.16.43-1.14.95.01.4.2.8.78.93l6.52,1.44Z"/>
      <path class="cls-6" d="M212.59,277.71c0,.1-.05.29-.11.37-2.03,2.76-5.65,3.89-6.11,6.03-.71-.01-1.06.22-1.33.86-2.01,1.11-1.45,5.02-3.54,6.16-.14-1.2.26-2.42.29-3.77l.02-4.91,10.47-8.4.31,3.67Z"/>
      <path class="cls-10" d="M236.74,436.74c0,.89-.42,1.24-.92,1.29-.61.06-1.21-.38-1.21-1.15v-7.5c0-.7.38-1.15.84-1.22.71-.11,1.28.31,1.29,1.16v7.42Z"/>
      <path class="cls-10" d="M230.59,476.15c-.25-.09-.7-.19-.96-.18-.05-.3-.14-.61-.27-.84l.06-.48,1.72-7.27c.15-.64.6-.97,1.08-.97s1.05.41.91,1.11l-1.38,6.95c-.16.81-.54,1.34-1.16,1.67Z"/>
      <path class="cls-10" d="M233.29,397.73c.16.82-.37,1.24-.7,1.37-.47.19-1.21-.1-1.33-.79l-1.35-7.6c-.11-.64.23-1.29.77-1.4.36-.07,1.03.1,1.16.78l1.46,7.64Z"/>
      <path class="cls-10" d="M235.22,456c-.09.8-.58,1.2-1.04,1.31s-1.21-.36-1.13-1.06l.92-7.67c.09-.73.54-1.09,1.07-1.1s1.09.36,1,1.14l-.82,7.38Z"/>
      <path class="cls-10" d="M236.04,417.04c.1.9-.15,1.53-.67,1.67-.65.18-1.3-.2-1.4-1.07l-.81-7.25c-.08-.7.12-1.35.71-1.5.65-.17,1.26.26,1.36,1.13l.81,7.02Z"/>
      <path class="cls-10" d="M229.22,377.67c.22.88-.1,1.53-.66,1.67-.69.17-1.21-.21-1.4-1.07l-1.59-6.87c-.13-.58.04-1.11.38-1.39.31-.26,1.29-.26,1.45.37l1.82,7.29Z"/>
      <path class="cls-10" d="M224.75,359.6c.22.84-.2,1.29-.56,1.43-.42.17-1.16-.02-1.32-.6l-1.95-7.19c-.18-.67.07-1.25.54-1.41.42-.15,1.22,0,1.38.62l1.91,7.16Z"/>
      <path class="cls-10" d="M219.88,341.93c.22.83-.06,1.45-.58,1.59-.36.1-1.12-.07-1.29-.68l-1.87-6.89c-.17-.64.09-1.25.49-1.4.67-.26,1.29.1,1.49.86l1.75,6.53Z"/>
      <path class="cls-10" d="M215.37,324.71c.21.79-.13,1.34-.54,1.52-.39.17-1.19.02-1.34-.56l-1.78-7.01c-.17-.66.08-1.19.51-1.38.39-.18,1.21.02,1.36.6l1.77,6.84Z"/>
      <path class="cls-10" d="M211.29,307.63c.14.59-.22,1.06-.58,1.24-.48.24-1.28-.03-1.43-.75l-1.49-7.05c-.12-.55.2-.94.38-1.14.29-.33,1.29-.27,1.42.28l1.71,7.41Z"/>
      <path class="cls-10" d="M206.38,284.11c.26.45.52,1.01.63,1.7l.75,4.49c.12.7-.1,1.16-.54,1.4-.35.19-1.3-.02-1.37-.61l-.8-6.12c.27-.64.62-.87,1.33-.86Z"/>
      <path class="cls-8" d="M229.36,475.13c-.57.04-.48-.54.06-.48l-.06.48Z"/>
      <path class="cls-10" d="M358.6,380.22l2.52,29.63c-14.52-14.51-32.38-22.21-51.4-27.62.29-2.63,1.45-5.07,2.5-7.71,2.07-4.64,4.71-8.77,7.49-13.04,3.54-5.44,5.69-11.11,6.55-17.76l7.57,14.66c4.3,6.33,9.45,11.7,15.79,15.95l8.99,5.89Z"/>
      <g>
        <path class="cls-14" d="M307.2,381.05c-2.62,9.52-2.25,19.32.8,28.91,4.26,13.4,13.84,24.08,26.94,29.31.72.29,1.43-.14,1.67-.72.27-.65-.03-1.31-.9-1.68-8.26-3.57-15.35-9.05-20.2-16.74-6.85-10.86-9.84-25.96-5.78-37.89,19.02,5.41,36.88,13.11,51.4,27.62l-2.52-29.63-.3-11.46,15.64,9.76c3.78,2.36,6.43,5.85,9.02,9.5l18.64,26.3c.51.72.89,1.34,1.59,1.77-12.82,12.14-26.69,23.3-42.13,31.86l-2.16-7.37c-.18-.63-.83-.74-1.26-.65-.48.1-.76.77-.57,1.4l2.47,7.46c-29.01,16.63-61.63,26.53-94.99,28.66,0-.26-.28-.46-.59-.33-.15.07-.26.19-.34.39l-8.22.5c-.72-.68-1.91-.7-2.58.03-.85-.35-2.61-.21-3.55,0-.62-.25-1.21-.14-2.01-.47l1.21-5.68c.12-.56-.26-1.04-.62-1.17-.37-.14-.97.08-1.1.63l-1.49,6.51-6.06-.31,4.06-24.17c1.49-14.07,1.32-27.77-.33-41.85-1.74-14.83-4.65-29.19-8.53-43.35,24.35,2.49,49.04,6.76,72.78,12.84ZM245.53,379.98l4.82.77c.83.13,1.37-.15,1.54-.82.14-.56-.35-1.12-1.05-1.21l-7.63-1,2.13,10.13c.14.66.78.96,1.27.73.27-.13.66-.56.55-1.07l-1.62-7.53ZM267.88,383.67c.66.11,1.05-.51,1.11-.81.06-.33-.15-.97-.7-1.06l-6.94-1.2c-.73-.13-1.19.51-1.11,1.05.04.3.23.77.81.87l6.83,1.17ZM285.03,387.09c.72.14,1.21-.41,1.18-1-.02-.31-.33-.77-.86-.87l-6.73-1.38c-.79-.16-1.28.41-1.22,1.02.03.32.29.82.87.93l6.76,1.3ZM301.77,391.34c.82.21,1.24-.4,1.26-.84.01-.35-.14-.9-.64-1.03l-6.64-1.72c-.68-.18-1.22.3-1.3.82-.07.46.22.98.82,1.13l6.5,1.63ZM319.01,396.61c.79.25,1.23-.47,1.22-.87-.01-.37-.12-.79-.65-.95l-6.46-2.03c-.64-.2-1.29.06-1.43.61-.09.36.24,1.02.83,1.21l6.49,2.03ZM250.37,405.4l-1.09-7.03c-.13-.85-.68-1.18-1.32-1.05-.56.11-.7.75-.59,1.42l1.18,7.2c.11.67.78.89,1.26.7.3-.11.68-.52.57-1.23ZM335.26,403.32c.62.28,1.24-.19,1.37-.54.14-.39,0-.97-.54-1.21l-6.61-2.98c-.5-.23-1.05.18-1.2.57-.14.35,0,.97.52,1.21l6.46,2.94ZM349.84,414.7c1.26-1.04-1.99-4.89-4.43-7.24-.52-.5-1.01-.59-1.54-.28-.31.18-.65.91-.22,1.27,4.33,3.57,4.65,7.52,6.18,6.25ZM252.19,423.89l-.59-7.37c-.06-.69-.79-.94-1.24-.79-.4.14-.66.5-.61,1.11l.52,7.57c.05.68.77,1.03,1.25.87.36-.12.75-.6.68-1.39ZM355.93,430.38l-1.92-6.62c-.22-.74-.71-1.07-1.29-.92-.47.12-.86.59-.66,1.24l2.09,6.84c.19.63.84.77,1.25.61.27-.1.69-.56.52-1.14ZM252.24,442.96l.13-7.55c.01-.66-.44-1.1-.86-1.16-.46-.06-1.09.33-1.1.97l-.13,7.68c-.01.62.47,1.03.89,1.08s1.05-.21,1.06-1.01ZM250.35,461.37l.93-7.53c.09-.72-.4-1.18-.97-1.18-.33,0-.83.27-.9.83l-.93,7.56c-.09.7.45,1.27,1,1.2.3-.04.8-.34.87-.88Z"/>
        <path class="cls-9" d="M361.06,447.96l-1.51.84-2.47-7.46c-.19-.62.09-1.3.57-1.4.43-.09,1.08.02,1.26.65l2.16,7.37Z"/>
        <path class="cls-9" d="M249.28,478.06c-1.41.31-2.63-.11-4.01-.18l1.49-6.51c.13-.54.73-.76,1.1-.63s.74.6.62,1.17l-1.21,5.68c.81.32,1.39.22,2.01.47Z"/>
        <path class="cls-9" d="M255.41,478.03c-1.04.06-1.52.48-2.58.03.67-.73,1.87-.71,2.58-.03Z"/>
        <path class="cls-9" d="M264.55,477.47c-.05.2-.32.41-.47.36-.1-.03-.32-.31-.46-.3.08-.2.19-.32.34-.39.31-.14.59.07.59.33Z"/>
        <path class="cls-9" d="M245.53,379.98l1.62,7.53c.11.51-.27.94-.55,1.07-.49.23-1.13-.06-1.27-.73l-2.13-10.13,7.63,1c.7.09,1.2.65,1.05,1.21-.17.67-.71.96-1.54.82l-4.82-.77Z"/>
        <path class="cls-9" d="M252.24,442.96c-.01.8-.65,1.07-1.06,1.01s-.9-.46-.89-1.08l.13-7.68c.01-.63.64-1.03,1.1-.97.42.06.87.51.86,1.16l-.13,7.55Z"/>
        <path class="cls-9" d="M250.37,405.4c.11.72-.27,1.12-.57,1.23-.48.19-1.15-.03-1.26-.7l-1.18-7.2c-.11-.67.03-1.31.59-1.42.65-.13,1.19.21,1.32,1.05l1.09,7.03Z"/>
        <path class="cls-9" d="M252.19,423.89c.06.79-.32,1.27-.68,1.39-.48.16-1.2-.19-1.25-.87l-.52-7.57c-.04-.61.21-.98.61-1.11.45-.15,1.18.1,1.24.79l.59,7.37Z"/>
        <path class="cls-9" d="M250.35,461.37c-.07.54-.56.85-.87.88-.56.06-1.09-.5-1-1.2l.93-7.56c.07-.57.58-.83.9-.83.57,0,1.06.46.97,1.18l-.93,7.53Z"/>
        <path class="cls-9" d="M301.77,391.34l-6.5-1.63c-.59-.15-.89-.67-.82-1.13.08-.52.61-.99,1.3-.82l6.64,1.72c.5.13.65.68.64,1.03-.02.44-.44,1.04-1.26.84Z"/>
        <path class="cls-9" d="M349.84,414.7c-1.53,1.27-1.84-2.68-6.18-6.25-.44-.36-.09-1.09.22-1.27.53-.31,1.02-.22,1.54.28,2.43,2.35,5.68,6.19,4.43,7.24Z"/>
        <path class="cls-9" d="M285.03,387.09l-6.76-1.3c-.57-.11-.83-.61-.87-.93-.06-.61.43-1.18,1.22-1.02l6.73,1.38c.52.11.84.57.86.87.03.59-.46,1.14-1.18,1Z"/>
        <path class="cls-9" d="M319.01,396.61l-6.49-2.03c-.59-.19-.92-.85-.83-1.21.14-.55.79-.81,1.43-.61l6.46,2.03c.53.17.64.58.65.95.02.4-.43,1.11-1.22.87Z"/>
        <path class="cls-9" d="M335.26,403.32l-6.46-2.94c-.53-.24-.66-.85-.52-1.21.15-.39.7-.8,1.2-.57l6.61,2.98c.54.24.68.82.54,1.21-.13.35-.75.82-1.37.54Z"/>
        <path class="cls-9" d="M267.88,383.67l-6.83-1.17c-.58-.1-.77-.57-.81-.87-.08-.53.38-1.17,1.11-1.05l6.94,1.2c.55.09.76.73.7,1.06-.05.3-.44.93-1.11.81Z"/>
        <path class="cls-9" d="M355.93,430.38c.17.59-.25,1.04-.52,1.14-.41.15-1.06.02-1.25-.61l-2.09-6.84c-.2-.65.19-1.12.66-1.24.58-.15,1.08.18,1.29.92l1.92,6.62Z"/>
      </g>
      <path class="cls-7" d="M287.41,286.37c.53.05,1.42.47,1.61.86.2.42-.3,1.36-.78,1.29l-6.31-.82c-.81-.11-1.22-.65-1.07-1.22.14-.51.74-.71,1.37-.64l5.17.53Z"/>
      <path class="cls-13" d="M221.09,266.88c-.09.24-.1.61.08.76-2.2,3.93-5.04,7.39-8.57,10.08l-.31-3.67,5.95-6.1c.41-.42.52-1.33,1.21-1.42.51-.07,1.13.19,1.65.35Z"/>
      <path class="cls-3" d="M226.38,260.35l-3.07,2.21c-.87.59-.79,2.18-.81,3.07-.27.01-.67.04-.91-.04-.32-.16-1.26-.65-1.22-1.16.46-2.38.96-4.72.37-6.98l5.63,2.9Z"/>
      <path class="cls-7" d="M222.51,265.63c.53,1.18,2.47,1.08,2.51,2.23.01.4-.27.84-.54.94-.79.32-1.89-1.05-3.31-1.17-.18-.14-.17-.51-.08-.76l.51-1.29c.24.09.64.06.91.04Z"/>
      <path class="cls-7" d="M271.53,285.94l-6.52-1.44c-.58-.13-.77-.53-.78-.93-.02-.53.42-1.1,1.14-.95l6.63,1.39c.6.12.86.68.81,1.11-.06.53-.59.98-1.28.83Z"/>
      <path class="cls-7" d="M239.14,275.92l-6.35-2.58c-.57-.23-.75-.83-.56-1.3.13-.32.75-.72,1.27-.5l6.18,2.58c.47.2.61.63.62.96.01.37-.55,1.09-1.17.84Z"/>
      <path class="cls-7" d="M254.99,281.62l-6.34-2.03c-.53-.17-.68-.78-.51-1.2.14-.32.53-.71,1.13-.52l6.09,1.88c.53.16.88.55.89,1.01,0,.51-.59,1.08-1.27.87Z"/>
      <g>
        <path class="cls-2" d="M208.58,163.07c.29.08.83.13,1.07.02.22-.05.54.24.45.47l-2.67,7.11c-6.94,21.3-9.43,44.17-7.3,66.47.16,1.65.48,3.27.22,4.99-.98-.4-2.21-.6-2.46-.36-.1.09-.06.36-.06.65l-15.67-5.22c-3.45-1.15-6.77-1.27-10.35-.43-11.57,2.74-22.83,5.87-34.09,9.63-3.83,1.28-6.38,4.13-8.42,7.14-.66.14-1.15.67-1.61,1.37l-3.52,5.31-2.47,3.88c-9.7,2.44-18.83,5.97-27.91,10.36-8.05,3.89-15.09,8.98-22.18,14.11,11.52-18.03,21.27-36.87,29.9-56.63,3.57-8.17,7.11-15.89,11.33-23.66,2.48-4.57,5.08-8.88,8.74-12.57,5.68-5.73,12.78-9.46,20.54-11.55l20.6-5.57c10.51-2.84,20.68-6,30.51-10.44,1.91,1.54,4.29,1.62,6.4.34l8.97-5.43ZM196.23,184.66c-.15.71.43.95.65,1.03s.91-.06.99-.45l2.3-10.38-9.62,2.66c-.5.14-.64.8-.58,1.09.07.36.54.8,1.08.66l6.7-1.83-1.52,7.23ZM174.92,184.32l6.69-2.07c.52-.16.53-1.05.35-1.35-.19-.32-.75-.39-1.2-.26l-6.44,1.94c-.55.16-.77.83-.55,1.26.15.28.57.66,1.15.48ZM158.64,188.77l6.39-1.77c.53-.15.59-.78.56-1.06-.04-.34-.51-.82-1.06-.68l-6.67,1.74c-.63.16-.81.84-.72,1.2.11.48.74.78,1.51.57ZM142.59,193.32l6.35-1.99c.53-.17.63-.95.46-1.26-.15-.27-.94-.5-1.32-.38l-6.48,2c-.6.19-.75.98-.53,1.28.25.35.87.55,1.52.34ZM195.3,201.5l.86-6.53c.1-.77-.34-1.12-.89-1.11-.6.02-.9.34-1,1.07l-.96,6.85c-.09.67.62,1.15,1.1,1.05.52-.11.78-.53.89-1.33ZM128.18,202.15l5.35-4.48c.42-.35.43-.92.27-1.18-.2-.33-.89-.63-1.32-.28l-5.77,4.65c-.58.47-.4,1.2.04,1.53.36.27.88.22,1.43-.25ZM119.36,216.07l3.16-6.02c.33-.62-.13-1.21-.48-1.36-.51-.21-1.07-.01-1.39.59l-3.15,6.04c-.33.64-.04,1.21.48,1.43s1.05-.06,1.38-.69ZM194.09,218.8l.35-6.92c.03-.58-.43-1.04-.84-1.06-.38-.02-1.03.19-1.05.82l-.3,7.38c-.03.71.5,1.01.94,1.03.46.03.87-.45.91-1.24ZM112.37,231.37l2.6-5.98c.28-.65-.04-1.26-.49-1.43-.36-.13-.98-.02-1.2.49l-2.79,6.36c-.27.61.1,1.22.5,1.35.52.17,1.05-.04,1.38-.79ZM194.49,235.39l-.44-6.5c-.05-.71-.71-.86-1.1-.79s-.72.42-.68,1.02l.42,7.07c.03.51,1.02.74,1.32.5.25-.2.53-.53.48-1.3ZM104.98,247.71l2.95-6.56c.28-.63-.17-1.37-.66-1.48-.3-.07-.86.1-1.09.6l-2.83,6.37c-.25.56-.06,1.06.28,1.39.23.23,1.04.36,1.34-.31ZM97.67,263.28l2.95-6.11c.28-.58.11-1.12-.23-1.42-.26-.24-1.13-.23-1.37.27l-3.1,6.51c-.3.63.03,1.31.58,1.42.34.07.86-.03,1.17-.67Z"/>
        <path class="cls-1" d="M274.12,172.42c.79-.11,1.35.3,2.17.75,11.91,6.56,24.73,10.76,37.77,13.79l1.23,1.86c4.86,12.06,11.59,24.4,22.24,31.95,6.13,4.34,13.1,6.93,20.61,7.28.71.03,1.26-.44,1.45-.84s-.06-1.51-.8-1.53c-15.78-.5-28.37-11.78-35.3-25.4l-3.67-7.21c-.84-1.66-1.73-3.22-1.89-4.95l26.43,4.58c16.48,2.97,34.64,7.68,40.39,25.05l5.81,17.53,8.97,25.17c4.56,12.8,16.83,29.74,25.92,40.43-11.38-4.86-22.55-8.94-34.46-11.07-.94-2.69-2.38-5.31-4.31-7.68-1.9-2.33-4.55-3.96-7.52-4.98l-37.39-12.71c-3.22-1.09-6.2-1.14-9.46-.5l-14.1,2.75c-3.03.59-6.03,1.09-8.76,2.55l-2.97,1.13c-1.48-8.31-3.35-16.31-6.26-24.29l-10.2-27.97-12.93-33.66-2.55-5.65-1.79-4.88.4-1.07c.11-.28.6-.41.97-.41ZM286.09,188.92c.68.3,1.22-.3,1.22-.68,0-.29-.11-.78-.61-1l-6.13-2.66c-.5-.22-1.06.23-1.13.53-.11.43.15.9.64,1.13l6,2.69ZM301.49,194.67c.73.24,1.09-.12,1.24-.39.25-.44,0-1.11-.48-1.27l-6.36-2.1c-.57-.19-1.09.26-1.17.59-.1.41.12.94.67,1.12l6.11,2.04ZM316.81,198.89c.67.17,1.15-.08,1.29-.54s-.08-1.07-.68-1.23l-5.88-1.55c-.6-.16-1.06.44-1.1.8-.06.53.22,1,.89,1.16l5.48,1.36ZM327.18,199.24l-3.51-.75c0,1.9,1.21,2.16,2.7,2.49.75.16,1.26.35,1.49-.37.15-.46.05-1.21-.69-1.36ZM343.35,203.99c.61.1,1.01-.61.96-.88s-.12-.81-.65-.9l-6.79-1.21c-.66-.12-1.08.23-1.23.57-.16.37.04,1.13.6,1.22l7.11,1.21ZM359.57,208.19c.73.22,1.22-.32,1.26-.66.03-.29-.08-.89-.59-1.05l-6.6-2.1c-.64-.21-1.14.1-1.34.52-.19.39-.02,1.13.56,1.3l6.7,1.98ZM370.39,212.87c-.39-.44-1.03-.37-1.37-.08-1.23,1.06,1.91,2.9,3.68,7.82.22.6.82.74,1.21.64,1.71-.44-1.19-5.77-3.53-8.38ZM380.56,237l-2.2-6.42c-.21-.62-.86-.85-1.42-.57-.36.18-.67.65-.44,1.33l2.33,6.83c.23.68,1.07.7,1.44.39.33-.29.54-.81.28-1.55ZM386.55,253.92l-2.45-6.17c-.25-.62-.69-.83-1.16-.74-.49.09-.86.78-.64,1.37l2.53,6.71c.29.77,1.13.96,1.62.55s.4-.93.09-1.7ZM393.74,270.26l-2.88-5.96c-.26-.53-.76-.79-1.17-.7-.36.08-.9.73-.65,1.28l2.95,6.32c.32.68,1.14.82,1.63.38.25-.23.4-.76.14-1.32ZM402.52,284.77l-3.71-5.51c-.4-.59-1.06-.66-1.47-.3s-.52.91-.13,1.51l3.71,5.54c.34.5,1.07.52,1.37.31.4-.27.56-1.05.23-1.54Z"/>
        <path class="cls-3" d="M307.05,141.32l1.64,6.97.22,1.2c.88,7.27,1.92,14.49,3.73,21.78,1.46,5.87,2.82,11.53,5.29,16.83.16,1.73,1.04,3.3,1.89,4.95l3.67,7.21c6.93,13.62,19.52,24.91,35.3,25.4.74.02.99,1.13.8,1.53s-.74.87-1.45.84c-7.5-.34-14.48-2.93-20.61-7.28-10.64-7.55-17.38-19.89-22.24-31.95l-1.23-1.86c.53-.34.33-.81.1-1.49-3.86-11.21-6.06-22.73-7.34-34.36-.4-3.59-1-7.14-2.53-10.47,1.09-.77,2.02.49,2.77.68Z"/>
        <path class="cls-7" d="M272.75,173.91l1.79,4.88v1.61c-.73,1.32-2.5.82-3.61.17-.89-.52-1.39-.89-1.34-1.89,1.11-1.38,1.95-3.49,3.16-4.77Z"/>
        <g>
          <path class="cls-9" d="M271.81,170.92l-1.02,2.07-3.87,6.7c-.42.73-.91,1.06-.47,1.99.36.77,1,1.65,2.07.98.52-.33.05-1.83-.42-2.17l1.49-1.81c-.05,1,.45,1.37,1.34,1.89,1.11.65,2.88,1.15,3.63-.17v-1.61s2.54,5.65,2.54,5.65l12.93,33.66,10.2,27.97c2.91,7.98,4.79,15.98,6.26,24.29l-6.1,3.82c-1.09.68-1.77,1.57-2.54,2.36l-1.39,1.43c-2.37-1.04-5-.93-7.48-1.41-1.42-.28-2.99-3.29-3.39-1.74-.08.32-.13.63.18,1.04l2.52,3.34c-.56.62-1.1.59-1.62.51-.22-.25-.54-.42-1.04-.49-21.81-3.09-39.95-8.63-59.24-18.85l-5.63-2.9c-.55-2.09-2.41-3.55-3.99-4.82.32-1.69-.19-3.27-1.82-4.03l-8.25-3.86c1.06-2.59.06-5.08-2.54-6.24-1.32-.59-2.46-1.66-4.02-1.36-2.13-22.3.36-45.17,7.3-66.47,2.7.02,5.7-1.08,8.43-.5,1.71.36,2.72-.36,4.31-.3l9.8.41c3.77-.37,7.08-2.06,9.35-5.09.72.31,1.48.4,1.82-.26l9.64,14.82c.27.41.77.53,1.06.33.2-.14.21-.59,0-.98l-4.25-7.79-6-9.76c1.53-.4,2.7-.85,3.34-1.98.12-.21.5-.35.69-.37,9.94,1.73,17.77,5.82,26.19,11.72ZM264.99,174.79c-2.83-2.09-6.75-4.3-6.78-2.59,0,.24.02.72.41.96l5,2.98c.52.31,1.04-.02,1.34-.3.19-.18.41-.77.03-1.05ZM214.64,177.36l1.36-4.14c.17-.52-.17-.87-.35-1.06-.24-.24-.93-.36-1.09.05l-1.76,4.65c-.21.56.25,1.04.57,1.15.42.15,1.05,0,1.27-.66ZM211.04,192.67l1.2-6.17c.14-.73-.33-1.18-.91-1.18-.33,0-.87.23-.99.76l-1.38,6.5c-.15.69.34,1.3.84,1.36.64.08,1.06-.37,1.24-1.27ZM274.83,197.27l-2.42-6.2c-.25-.63-.93-.91-1.39-.69-.49.23-.8.84-.54,1.48l2.64,6.55c.24.6,1.11.57,1.41.28.27-.26.55-.77.29-1.43ZM208.89,210.03l.65-6.66c.08-.82-.3-1.43-.96-1.43-.47,0-.98.37-1.05,1.05l-.63,6.72c-.06.63.42,1.05.88,1.1.34.04,1.05-.2,1.11-.79ZM280.94,213.67l-2.53-6.5c-.21-.55-1.11-.56-1.42-.35-.27.18-.54.88-.36,1.35l2.54,6.7c.24.64,1.16.68,1.48.38.3-.28.56-.85.29-1.57ZM208.56,226.45l-.02-6.52c0-.62-.43-1.05-.89-1.09-.36-.03-1.04.27-1.04.89l-.02,7.09c0,.62.69.94,1.07.9.46-.05.91-.47.91-1.27ZM287.3,230.22l-2.4-6.23c-.26-.68-.88-.99-1.52-.73-.47.19-.66.88-.41,1.53l2.42,6.43c.25.66.9.96,1.48.73.49-.19.77-.86.44-1.73ZM209.72,241.87l-.67-5.49c-.09-.71-.81-1.01-1.33-.85-.37.11-.72.55-.64,1.19l.59,5.47c.06.56.79,1.04,1.2.95.35-.08.93-.62.85-1.28ZM293.33,247.52l-2.2-6.42c-.21-.62-.95-.99-1.43-.75-.45.22-.76.87-.53,1.54l2.25,6.58c.2.59.98.69,1.33.55.46-.17.85-.71.58-1.5ZM216.72,248.62c.86.49,1.21.82,1.8.09.23-.29.26-1.11-.29-1.4l-4.98-2.65c-.49-.26-1.06-.24-1.26.01-.28.34-.2,1.12.28,1.39l4.45,2.55ZM231.84,256.42c.76.36,1.27-.28,1.33-.6.05-.24.06-.84-.35-1.03l-5.87-2.9c-.68-.34-1.21.01-1.38.37-.2.42-.07,1.17.4,1.38l5.87,2.77ZM298.07,264.62l-1.96-7.13c-.14-.49-1.3-.45-1.53-.16-.16.2-.39.59-.26,1.08l1.75,6.69c.19.72.87,1.01,1.4.76.38-.18.75-.65.59-1.25ZM247.04,263.06c.63.25,1.19-.08,1.34-.48.19-.5-.04-1.14-.62-1.38l-5.99-2.42c-.66-.27-1.26-.03-1.48.49s.06,1.18.71,1.43l6.04,2.36ZM263.47,268.3c.54.14.94-.6.91-.87s-.12-.81-.63-.95l-6.76-1.87c-.55-.15-1.12.54-1.09.92.04.41.3.9.92,1.06l6.65,1.71ZM280.07,271.92c.49.09.75-.86.59-1.21s-.35-.69-1-.81l-6.29-1.17c-.65-.12-1.12.39-1.19.78s.11,1.04.63,1.13l7.26,1.28ZM295.83,273.91c.59.05.98-.56.99-.8s-.27-.78-.7-.83l-6.57-.81c-.63-.08-1.1.48-1.15.91-.06.49.31.94,1.01.99l6.42.53Z"/>
          <path class="cls-15" d="M241.14,164.93c-.35.66-1.1.57-1.82.26-2.27,3.03-5.58,4.72-9.35,5.09l-9.8-.41c-1.59-.07-2.6.66-4.31.3-2.73-.58-5.74.53-8.43.5l2.67-7.11c.09-.23-.23-.52-.45-.47.84-.64,2.07-.7,3.04-1.21l6.94,2.42c7.24,2.53,16.02,3.96,19.46-2.81l2.06,3.43Z"/>
          <path class="cls-7" d="M206.69,244.74l-6.35-2.61c.26-1.73-.06-3.34-.22-4.99,1.56-.3,2.7.77,4.02,1.36,2.6,1.17,3.6,3.66,2.54,6.24Z"/>
          <path class="cls-1" d="M287.3,230.22c.34.87.05,1.54-.44,1.73-.58.22-1.23-.07-1.48-.73l-2.42-6.43c-.24-.65-.06-1.34.41-1.53.64-.26,1.26.05,1.52.73l2.4,6.23Z"/>
          <path class="cls-1" d="M208.56,226.45c0,.8-.44,1.22-.91,1.27-.37.04-1.07-.28-1.07-.9l.02-7.09c0-.63.68-.92,1.04-.89.46.04.89.47.89,1.09l.02,6.52Z"/>
          <path class="cls-1" d="M293.33,247.52c.27.79-.12,1.33-.58,1.5-.36.13-1.13.04-1.33-.55l-2.25-6.58c-.23-.68.07-1.32.53-1.54.48-.24,1.22.13,1.43.75l2.2,6.42Z"/>
          <path class="cls-1" d="M280.94,213.67c.28.72.01,1.28-.29,1.57-.32.31-1.24.27-1.48-.38l-2.54-6.7c-.18-.47.09-1.16.36-1.35.31-.21,1.21-.19,1.42.35l2.53,6.5Z"/>
          <path class="cls-1" d="M274.83,197.27c.26.66-.02,1.17-.29,1.43-.31.29-1.17.32-1.41-.28l-2.64-6.55c-.26-.64.05-1.25.54-1.48.46-.22,1.14.05,1.39.69l2.42,6.2Z"/>
          <path class="cls-1" d="M208.89,210.03c-.06.59-.76.83-1.11.79-.46-.05-.94-.48-.88-1.1l.63-6.72c.06-.68.58-1.05,1.05-1.05.65,0,1.04.6.96,1.43l-.65,6.66Z"/>
          <path class="cls-1" d="M298.07,264.62c.16.59-.2,1.07-.59,1.25-.53.25-1.21-.04-1.4-.76l-1.75-6.69c-.13-.5.1-.88.26-1.08.23-.3,1.39-.34,1.53.16l1.96,7.13Z"/>
          <path class="cls-1" d="M211.04,192.67c-.18.91-.6,1.35-1.24,1.27-.5-.06-.99-.68-.84-1.36l1.38-6.5c.11-.54.66-.77.99-.76.57,0,1.05.44.91,1.18l-1.2,6.17Z"/>
          <path class="cls-10" d="M280.07,271.92l-7.26-1.28c-.51-.09-.7-.73-.63-1.13s.54-.9,1.19-.78l6.29,1.17c.65.12.85.46,1,.81s-.11,1.3-.59,1.21Z"/>
          <path class="cls-10" d="M247.04,263.06l-6.04-2.36c-.65-.25-.93-.93-.71-1.43s.82-.75,1.48-.49l5.99,2.42c.58.24.81.87.62,1.38-.15.4-.71.73-1.34.48Z"/>
          <path class="cls-10" d="M263.47,268.3l-6.65-1.71c-.62-.16-.88-.64-.92-1.06-.03-.38.54-1.07,1.09-.92l6.76,1.87c.51.14.6.68.63.95s-.37,1.01-.91.87Z"/>
          <path class="cls-10" d="M231.84,256.42l-5.87-2.77c-.46-.22-.6-.97-.4-1.38.17-.36.7-.71,1.38-.37l5.87,2.9c.4.2.39.79.35,1.03-.06.31-.58.95-1.33.6Z"/>
          <path class="cls-10" d="M295.83,273.91l-6.42-.53c-.7-.06-1.07-.51-1.01-.99.05-.44.52-.99,1.15-.91l6.57.81c.43.05.71.59.7.83s-.4.85-.99.8Z"/>
          <path class="cls-1" d="M209.72,241.87c.08.66-.5,1.2-.85,1.28-.41.09-1.14-.39-1.2-.95l-.59-5.47c-.07-.65.27-1.08.64-1.19.52-.16,1.25.14,1.33.85l.67,5.49Z"/>
          <path class="cls-1" d="M264.99,174.79c.38.28.16.87-.03,1.05-.3.28-.82.62-1.34.3l-5-2.98c-.39-.24-.42-.72-.41-.96.03-1.71,3.95.5,6.78,2.59Z"/>
          <path class="cls-6" d="M216.72,248.62l-4.45-2.55c-.48-.28-.56-1.05-.28-1.39.21-.26.77-.27,1.26-.01l4.98,2.65c.55.29.52,1.11.29,1.4-.59.72-.93.4-1.8-.09Z"/>
          <path class="cls-1" d="M214.64,177.36c-.22.66-.84.81-1.27.66-.32-.11-.78-.59-.57-1.15l1.76-4.65c.16-.41.85-.29,1.09-.05.18.18.52.54.35,1.06l-1.36,4.14Z"/>
          <path class="cls-1" d="M268.1,180.49c.47.35.94,1.85.42,2.17-1.07.67-1.71-.21-2.07-.98-.44-.93.05-1.25.47-1.99.19.62.89.58,1.18.79Z"/>
        </g>
        <path class="cls-9" d="M196.23,184.66l1.52-7.23-6.7,1.83c-.54.15-1.01-.3-1.08-.66-.05-.29.09-.95.58-1.09l9.62-2.66-2.3,10.38c-.09.39-.77.54-.99.45s-.8-.32-.65-1.03Z"/>
        <path class="cls-9" d="M194.09,218.8c-.04.79-.45,1.27-.91,1.24-.44-.03-.97-.33-.94-1.03l.3-7.38c.03-.63.68-.84,1.05-.82.41.02.87.48.84,1.06l-.35,6.92Z"/>
        <path class="cls-9" d="M112.37,231.37c-.33.75-.85.96-1.38.79-.4-.13-.77-.75-.5-1.35l2.79-6.36c.22-.5.84-.62,1.2-.49.45.17.77.78.49,1.43l-2.6,5.98Z"/>
        <path class="cls-9" d="M119.36,216.07c-.33.63-.85.9-1.38.69s-.81-.79-.48-1.43l3.15-6.04c.32-.61.88-.8,1.39-.59.35.14.81.73.48,1.36l-3.16,6.02Z"/>
        <path class="cls-9" d="M104.98,247.71c-.3.67-1.11.55-1.34.31-.33-.33-.52-.83-.28-1.39l2.83-6.37c.22-.5.79-.67,1.09-.6.49.11.94.85.66,1.48l-2.95,6.56Z"/>
        <path class="cls-9" d="M195.3,201.5c-.11.8-.37,1.23-.89,1.33-.48.1-1.19-.37-1.1-1.05l.96-6.85c.1-.73.4-1.05,1-1.07.54-.02.99.33.89,1.11l-.86,6.53Z"/>
        <path class="cls-9" d="M128.18,202.15c-.55.46-1.08.51-1.43.25-.44-.33-.62-1.06-.04-1.53l5.77-4.65c.43-.35,1.11-.05,1.32.28.16.26.15.83-.27,1.18l-5.35,4.48Z"/>
        <path class="cls-9" d="M97.67,263.28c-.31.64-.83.74-1.17.67-.54-.11-.88-.79-.58-1.42l3.1-6.51c.24-.5,1.11-.51,1.37-.27.34.31.51.84.23,1.42l-2.95,6.11Z"/>
        <path class="cls-9" d="M194.49,235.39c.05.77-.23,1.1-.48,1.3-.3.24-1.29.01-1.32-.5l-.42-7.07c-.04-.6.29-.95.68-1.02s1.05.07,1.1.79l.44,6.5Z"/>
        <path class="cls-9" d="M158.64,188.77c-.77.21-1.4-.09-1.51-.57-.08-.36.09-1.04.72-1.2l6.67-1.74c.55-.14,1.02.34,1.06.68.03.29-.03.92-.56,1.06l-6.39,1.77Z"/>
        <path class="cls-9" d="M142.59,193.32c-.65.2-1.28,0-1.52-.34-.22-.3-.07-1.1.53-1.28l6.48-2c.38-.12,1.17.1,1.32.38.17.3.07,1.09-.46,1.26l-6.35,1.99Z"/>
        <path class="cls-9" d="M174.92,184.32c-.58.18-1.01-.2-1.15-.48-.22-.43,0-1.1.55-1.26l6.44-1.94c.45-.13,1.01-.07,1.2.26.18.3.17,1.19-.35,1.35l-6.69,2.07Z"/>
        <path class="cls-9" d="M370.39,212.87c2.34,2.61,5.24,7.94,3.53,8.38-.39.1-1-.04-1.21-.64-1.78-4.91-4.91-6.76-3.68-7.82.34-.29.98-.36,1.37.08Z"/>
        <path class="cls-9" d="M380.56,237c.25.74.05,1.27-.28,1.55-.36.32-1.2.29-1.44-.39l-2.33-6.83c-.23-.67.07-1.14.44-1.33.56-.28,1.2-.05,1.42.57l2.2,6.42Z"/>
        <path class="cls-9" d="M386.55,253.92c.31.78.38,1.31-.09,1.7s-1.33.22-1.62-.55l-2.53-6.71c-.22-.59.15-1.28.64-1.37.46-.08.91.12,1.16.74l2.45,6.17Z"/>
        <path class="cls-9" d="M402.52,284.77c.33.49.17,1.27-.23,1.54-.3.21-1.04.19-1.37-.31l-3.71-5.54c-.4-.59-.3-1.13.13-1.51s1.07-.29,1.47.3l3.71,5.51Z"/>
        <path class="cls-9" d="M359.57,208.19l-6.7-1.98c-.58-.17-.74-.91-.56-1.3.2-.42.69-.72,1.34-.52l6.6,2.1c.51.16.62.76.59,1.05-.04.33-.53.87-1.26.66Z"/>
        <path class="cls-9" d="M343.35,203.99l-7.11-1.21c-.55-.09-.76-.85-.6-1.22.15-.34.58-.69,1.23-.57l6.79,1.21c.53.09.61.64.65.9s-.35.99-.96.88Z"/>
        <path class="cls-9" d="M393.74,270.26c.27.55.11,1.09-.14,1.32-.49.45-1.31.31-1.63-.38l-2.95-6.32c-.25-.55.29-1.19.65-1.28.42-.09.92.17,1.17.7l2.88,5.96Z"/>
        <path class="cls-9" d="M286.09,188.92l-6-2.69c-.49-.22-.75-.69-.64-1.13.07-.3.63-.75,1.13-.53l6.13,2.66c.5.22.61.71.61,1,0,.38-.54.98-1.22.68Z"/>
        <path class="cls-9" d="M301.49,194.67l-6.11-2.04c-.54-.18-.76-.71-.67-1.12.08-.34.6-.78,1.17-.59l6.36,2.1c.48.16.73.82.48,1.27-.15.27-.51.63-1.24.39Z"/>
        <path class="cls-9" d="M316.81,198.89l-5.48-1.36c-.67-.16-.94-.64-.89-1.16.04-.36.49-.96,1.1-.8l5.88,1.55c.61.16.82.77.68,1.23s-.62.71-1.29.54Z"/>
        <path class="cls-9" d="M327.18,199.24c.74.16.83.9.69,1.36-.23.72-.74.54-1.49.37-1.5-.33-2.7-.59-2.7-2.49l3.51.75Z"/>
      </g>
      <g>
        <g>
          <path class="cls-13" d="M391,289.79l6.49,18.56,8.98,25.11c1.99,5.55,5.2,9.95,9.6,13.78l21.25,18.48c1.31,1.14,2.42,2.32,4.05,3.01-10.22,16.8-22.86,32.17-36.82,46.01-.54-.17-1.01-.28-1.36-.77l-18.74-26.24c-.85-1.19-1.58-2.49-2.62-3.38-1.35-1.15-1.16-2.59-1.87-3.91-1.41-2.65-3.84-5.21-6.54-6.63l-12.1-6.4c-6.28-3.32-12.12-7.44-17.05-12.64-5.27-5.55-8.51-12.37-12.04-19.03.47-1.34-.19-2.19-1.17-2.77-2.48-5.02-5.99-9.03-9.68-13.21l-14.69-14.63c-2.42-2.41-4.87-4.92-6.72-7.92-.75-1.21,2.22-2.19,3.22-1.69,2.07,1.03,3.79-.52,4.9-1.91l1.98-2.48c1.92-2.41,2.57-5.57.09-7.62l-3.56-2.94c-.35-.29-.73-.15-.62.43-1.46-1.28-3.54-2.52-5.67-1.99-3.36.83-5.55,4.55-4.83,7.88.16.76.8,1.45,1.19,1.96-.21.08-.42.3-.3.47l2.79,4.12c.32.47-.69,1-1.07.87-.41-.14-.76-.24-1.13-.8-3.46-5.27-4.28-10.56.58-14.43,5.22-4.16,13.9-.09,19,4.12l7.49,6.19,11.86,10.61c4.95,4.42,16.16,10.09,23.18,8.2-2.96-1.11-5.71-1.38-8.24-3.38,1.22-2.43,3.55-3.98,5.46-6.13-1.12-.43-1.92.45-2.65,1.16l-1.92-1.12c-.88-.09-1.47-.24-1.78-.97-.18-.42-.18-.87.07-1.7.15-.49-1.22-1.09-1.29-1.56-.37-2.49.67-4.96,1.99-7-1.25-.05-1.58.99-2.23,1.72-3.57-.12-6.73-1.63-9.9-3.11-2.72-1.27-4.16-3.34-5.42-6.03-.73,1.58-1.12,1.99-2.26,2.16-3.5.51-7.25.57-10.73-.24-1.93-.45-2.42-2.46-3.49-4.12-.19.94-.75,3.07-1.7,2.55l-5.49-3.02c-3.02-1.25-6.3-1.65-9.5-.69-.82.25-1.48.4-2.15-.19.77-.78,1.45-1.68,2.54-2.36l6.1-3.82,2.97-1.13c2.73-1.46,5.73-1.96,8.76-2.55l14.1-2.75c3.26-.64,6.25-.59,9.46.5l37.39,12.71c2.97,1.01,5.62,2.64,7.52,4.98,1.93,2.37,3.37,4.98,4.31,7.68ZM320.42,296.59c-2.8,1.61-5.06,4.02-5.14,6.76,2.27-2.12,4.04-4.24,5.14-6.76ZM323.46,298.84l-5.66,7.13c2.98-1.21,5.05-4.01,5.66-7.13Z"/>
          <path class="cls-3" d="M288.97,276.55c.48,1.39,1.05,2.77,2.51,3.64,1.56-1.26,3.25-1.83,4.98-2.23l1.39-1.43c.66.59,1.33.44,2.15.19,3.2-.96,6.49-.56,9.5.69l5.49,3.02c.95.52,1.51-1.61,1.7-2.55,1.07,1.66,1.55,3.66,3.49,4.12,3.48.82,7.23.75,10.73.24,1.14-.16,1.53-.58,2.26-2.16,1.26,2.69,2.69,4.76,5.42,6.03,3.17,1.48,6.33,3,9.9,3.11.65-.73.98-1.77,2.23-1.72-1.32,2.04-2.36,4.51-1.99,7,.07.47,1.44,1.07,1.29,1.56-.25.82-.24,1.27-.07,1.7.3.73.9.88,1.78.97l1.92,1.12c.73-.71,1.52-1.59,2.65-1.16-1.91,2.15-4.24,3.7-5.46,6.13,2.53,2,5.28,2.27,8.24,3.38-7.01,1.89-18.23-3.78-23.18-8.2l-11.86-10.61-7.49-6.19c-5.1-4.21-13.77-8.29-19-4.12-4.86,3.87-4.04,9.17-.58,14.43.37.56.72.66,1.13.8.38.13,1.39-.4,1.07-.87l-2.79-4.12c-.12-.17.09-.39.3-.47,2.59,3.32,7.1,7.85,9.23,5.31l4.39-5.25c1.88-2.24-1.6-5.52-4.31-7.91-.12-.58.26-.72.62-.43l3.56,2.94c2.49,2.05,1.84,5.21-.09,7.62l-1.98,2.48c-1.11,1.39-2.83,2.94-4.9,1.91-1-.5-3.97.47-3.22,1.69,1.86,2.99,4.31,5.51,6.72,7.92l14.69,14.63c3.69,4.18,7.2,8.2,9.68,13.21.98.58,1.65,1.42,1.17,2.77,3.53,6.66,6.77,13.48,12.04,19.03,4.93,5.2,10.78,9.32,17.05,12.64l12.1,6.4c2.7,1.43,5.13,3.99,6.54,6.63.7,1.33.52,2.76,1.87,3.91,1.04.89,1.77,2.18,2.62,3.38l18.74,26.24c.35.49.82.6,1.36.77l-1.37,1.36c-.71-.44-1.08-1.06-1.59-1.77l-18.64-26.3c-2.59-3.65-5.23-7.14-9.02-9.5l-15.64-9.76.3,11.46-8.99-5.89c-6.34-4.25-11.48-9.63-15.79-15.95l-7.57-14.66c-.86,6.65-3.01,12.32-6.55,17.76-2.78,4.27-5.42,8.41-7.49,13.04-1.05,2.63-2.21,5.08-2.5,7.71-4.06,11.93-1.07,27.03,5.78,37.89,4.85,7.69,11.94,13.17,20.2,16.74.87.37,1.17,1.04.9,1.68-.24.57-.95,1-1.67.72-13.11-5.22-22.68-15.9-26.94-29.31-3.05-9.59-3.42-19.39-.8-28.91,1.92-6.99,5.36-13.23,9.44-19.4,3.33-5.04,5.94-10.33,6.74-16.49-3.57,3.26-7.94,4.96-11.2,2.55-2.87-2.13-2.72-6.59-.87-9.9.57-1.02.84-2.03.4-3.08-2,1.21-3.95,1.86-6.16,1.62s-4.26-1.85-4.77-3.98c-.6-2.5.46-4.82,1.44-7.01-.65-.24-1.25-.52-1.41-.8-.14-.25.19-.94.26-1.38-1.85-.61-3.95-1.75-4.56-3.79-.8-2.69.29-5.33,1.49-7.98l-6.34-2.48c-1.43-.56-2.3-2.08-2.46-3.3-.19-1.4.24-2.72,1.22-3.83,1.12,1.2,3.5,1.89,5.14.87,1.39-.86,2.86-3.07,2.91-4.56l-3.2-4.89c-.48-.73-2.02-.22-2.57-.27-1.82-1.28-3.97-1.59-4.47-4.42.48.06.98-.88.78-1.29-.19-.38-1.09-.8-1.61-.86.32-2.58,2.46-4.05,2.06-5.13-.55-1.49-2.24-.91-2.81-1.55.51.09,1.06.12,1.62-.51l-2.52-3.34c-.31-.41-.26-.73-.18-1.04.4-1.55,1.97,1.47,3.39,1.74ZM304.75,321.08c1.22-1.87-.83-9.4-3.74-12.15-1.66,2.58-3.31,5.11-3.67,8.25-.21,1.82,1.41,3.36,2.73,4.08,1.21.65,3.74,1.27,4.68-.18ZM310.49,330.24c.73-2.32.13-4.79-1.45-6.54-1.29-.15-2.45-.2-3.68.04-.68,1.54-1.24,3.05-1.45,4.66-.28,2.13,1.25,3.46,3.23,3.62,1.5.12,2.59-.17,3.36-1.78Z"/>
          <path class="cls-11" d="M305.97,281.01c2.71,2.38,6.19,5.66,4.31,7.91l-4.39,5.25c-2.13,2.54-6.64-2-9.23-5.31-.39-.5-1.03-1.2-1.19-1.96-.72-3.33,1.47-7.05,4.83-7.88,2.13-.53,4.21.71,5.67,1.99Z"/>
          <path class="cls-3" d="M323.46,298.84c-.62,3.12-2.68,5.92-5.66,7.13l5.66-7.13Z"/>
          <path class="cls-3" d="M320.42,296.59c-1.09,2.52-2.87,4.64-5.14,6.76.08-2.74,2.33-5.15,5.14-6.76Z"/>
          <path class="cls-13" d="M304.75,321.08c-.95,1.45-3.47.84-4.68.18-1.33-.72-2.95-2.26-2.73-4.08.37-3.14,2.01-5.67,3.67-8.25,2.91,2.74,4.96,10.28,3.74,12.15Z"/>
          <path class="cls-13" d="M310.49,330.24c-.77,1.61-1.86,1.9-3.36,1.78-1.97-.16-3.5-1.49-3.23-3.62.21-1.61.77-3.12,1.45-4.66,1.23-.25,2.39-.19,3.68-.04,1.59,1.75,2.18,4.22,1.45,6.54Z"/>
          <path class="cls-14" d="M290.42,301.79c-1.55-1.65-.73-3.68.69-5.14l1.6-3.71c.55.05,2.09-.46,2.57.27l3.2,4.89c-.05,1.49-1.52,3.7-2.91,4.56-1.65,1.02-4.02.33-5.14-.87ZM296.68,299.65c1.17-2.62-2.09-5.66-3.69-4.79-.87,1.11-1.69,2.96-2.09,4.27-.43,1.43,1.37,2.67,2.37,2.73,1.45.08,2.74-.73,3.4-2.21Z"/>
          <path class="cls-5" d="M296.46,277.96c-1.73.4-3.41.97-4.98,2.23-1.46-.87-2.03-2.25-2.51-3.64,2.48.48,5.11.37,7.48,1.41Z"/>
          <path class="cls-11" d="M296.68,299.65c-.66,1.48-1.95,2.29-3.4,2.21-1-.05-2.81-1.29-2.37-2.73.4-1.32,1.22-3.16,2.09-4.27,1.6-.88,4.86,2.16,3.69,4.79Z"/>
        </g>
        <g>
          <path class="cls-12" d="M175.04,305.56l-.08-.56c.2.01.3.13.43.29.22.26-.03.47-.36.27Z"/>
          <path class="cls-12" d="M197.82,242.42l14.75,6.1c1.11.46,2.13.96,2.3,2.4-1.25-.78-1.9-1.05-3.08-.89-.77.1-1.79.43-1.85,1.53-4.26.05-8.22,1.81-12,3.76-.6-.34-1.15-.35-1.77-.82.23-.85.55-1.49.23-2.31-1.31,1-1.55,2.25-1.78,3.43-4.02.96-8.1.4-12.07-1.07-1.35-.5-2.09-.99-2.45-2.39l-.35-1.36c-.64.26-.84.73-.75,1.22.17.97-.18,1.88-1.08,2.55-3.05,2.29-7.69,4.6-11.07,4.33-1.19-1.03-1.68-2.83-3.54-3.24.72,1.8,2.01,2.87,2.42,4.46.09.33.14.7.1,1.06-.28,2.96-1.12,4.24-3.44,6.81-.51.31-1.51.03-1.96.03-1.07-1.27-1.71-3.07-3.96-3.54,2.05,3.5,4.89,6.41,6.62,10.59-3.31,2.3-7.45,1.38-7.27,2.68,8.09,1.37,17.55-2.76,24.18-7.82l12.76-9.74c5.33-4.07,13.4-8.3,20-7.47.52.06.86-.26.57-.74.13.08.44.05.6.05-.05.52.25.84.68,1.04,2.76,1.29,5.01,3.71,4.97,6.79-.52,0-.75-.37-.89-.89-.89-3.29-3.55-5.36-6.8-5.28-2.57.06-4.65,2.01-6.81,3.56-1.9,1.37-2.88,3.28-1.93,5.73.77,1.98,2.02,3.97,3.33,5.72,2.55,3.39,6.78.02,10.08-2.78.72-.61,1.33-1.39,2.18-1.42-1.23,2.83-3.17,5.16-5.74,7.16l-17.41,13.48c-6.96,5.39-13.17,11.05-18.77,17.79-.59.71-1.88,1.01-1.89,2.1-.61-.17-.46.71.08.56l-7.54,12.5c-7.19,9.69-17.69,15.66-28.67,20.39l-8.13,2.84c.38.59.97.44,1.8.61-8.18,5.11-14.95,11.45-21.33,18.74l-31.09,35.53c-.19.22-.51.21-.73.37-14.25-16.98-26.11-35.93-34.58-56.43l39.94-26.83c10.24-6.94,18.44-14.89,24.68-25.61l15.81-27.14,4.09-6.98c2.03-3.02,4.59-5.86,8.42-7.14,11.27-3.77,22.53-6.89,34.09-9.63,3.58-.85,6.9-.72,10.35.43l15.67,5.22ZM197.77,275.76c-.19-2.96-1.92-5.1-3.98-6.69.81,2.69,2.23,4.95,3.98,6.69ZM194.98,277.4c-1.12-2.79-2.44-4.82-4.12-7.11-.07,2.96,1.77,5.73,4.12,7.11Z"/>
          <path class="cls-2" d="M175.04,305.56c-.54.15-.69-.73-.08-.56l.08.56Z"/>
          <path class="cls-2" d="M216.76,252.63c1.58,1.27,3.45,2.74,3.99,4.82.59,2.25.09,4.6-.37,6.98-.05.51.9,1,1.22,1.16l-.51,1.29c-.51-.16-1.13-.42-1.65-.35-.68.09-.8,1-1.21,1.42l-5.95,6.1-10.47,8.4c-1.48.54-2.82,1.57-4.05,2.83l-5.67,4.36-3.41,2.73-6.34,6.01c-1.84,1.74-3.02,3.69-4.33,5.78l-4.79,7.66-5.69,8.37-4.38,4.77c-3.47,3.78-7.42,6.73-11.97,8.99l-13.96,6.93c-4.96,2.46-9.58,5.1-13.49,9.02l-10.45,10.48-32.77,37.63-1.17-1.46c.22-.15.54-.14.73-.37l31.09-35.53c6.39-7.3,13.15-13.63,21.33-18.74-.82-.17-1.41-.03-1.8-.61l8.13-2.84c10.97-4.73,21.47-10.7,28.67-20.39l7.54-12.5c.33.21.58,0,.36-.27-.13-.16-.23-.28-.43-.29.01-1.08,1.3-1.38,1.89-2.1,5.6-6.74,11.8-12.4,18.77-17.79l17.41-13.48c2.58-1.99,4.52-4.33,5.74-7.16l.43-.67c.21-.33-.22-.78-.37-1.04.19-.89.77-1.96.78-2.93.04-3.09-2.22-5.5-4.97-6.79l.13-1c.23.11.69.29.87.13.14-.12.42-.6.69-.48.33.16.37.71.43.92Z"/>
          <path class="cls-11" d="M129.29,253.55l-4.09,6.98-15.81,27.14c-6.24,10.71-14.44,18.67-24.68,25.61l-39.94,26.83-.44-1.27c14.4-9.08,28.47-18.42,42.4-28.36,8.2-5.85,15.16-12.54,20.25-21.24l14.7-25.13,2.47-3.88,3.52-5.31c.46-.7.95-1.23,1.61-1.37Z"/>
          <path class="cls-14" d="M209.94,251.55c1.16-.01,2.4-.24,3.4.42.28.48-.05.81-.57.74-6.6-.82-14.67,3.4-20,7.47l-12.76,9.74c-6.63,5.06-16.09,9.19-24.18,7.82-.19-1.3,3.95-.39,7.27-2.68-1.74-4.18-4.58-7.09-6.62-10.59,2.25.47,2.89,2.27,3.96,3.54.54.64.55,1.87,1.69,2.36,2.52-2.55,5.05-7.6,4.21-9.05-.07-.12-.31-.18-.51-.14.03-.36-.02-.72-.1-1.06.37-.04.95-.01,1.3.25,4.34-.23,8.6-2.38,12-5.53.3-.48.08-1.39.88-1.79.29.56,0,1.09-.05,1.65,3.99,1.87,8.08,2.75,12.4,3.4,1.19.18,1.62-.4,2.4-.68,1.27-.46,2.15-1.52,3.29-2.11,3.79-1.95,7.75-3.71,12-3.76ZM179.35,266.24c-.4.94-.71,1.83.08,2.55l12.39-9.67c-4.72-.78-8.56-1.19-12.35-3.22-3.35,3.4-7.45,5.08-12.06,5.81l.25,6.01c3.29,1.21,6.67,1.14,9.92-.31.58-.26.74-1.42,1.78-1.17ZM164.09,273.32c1.8-2.26,2.26-4.52,2.28-6.94-1.05,2.04-2.31,3.19-3.65,4.68-.24.7.71,2.06,1.37,2.25ZM178.2,269.61c-.66-.49-1.3-.49-1.95-.59-2.97.53-5.85.57-8.88-.09-.66,1.93-1.31,3.6-2.48,5.29-.24.35.04,1.75.45,1.64,4.7-1.22,8.92-3.42,12.86-6.24Z"/>
          <path class="cls-7" d="M219.6,259.85c-.01.96-.59,2.04-.78,2.93-.97.09-1.32,1.13-2,1.73-2.09,1.84-4.33,3.21-6.75,4.58-2.1,1.2-5.74-4.77-6.22-7.87-.25-1.63,1.58-2.96,2.67-3.72l5.39-3.83c3.25-.08,5.9,2,6.8,5.28.14.53.37.89.89.89Z"/>
          <path class="cls-11" d="M180.09,252.15c.36,1.4,1.1,1.89,2.45,2.39,3.97,1.47,8.06,2.02,12.07,1.07-.11.55-.05,1.14.03,1.81-.77.28-1.21.86-2.4.68-4.31-.65-8.4-1.53-12.4-3.4.06-.56.35-1.09.05-1.65-.8.4-.59,1.31-.88,1.79-3.4,3.14-7.66,5.29-12,5.53l-.19-1.47c3.39.27,8.03-2.04,11.07-4.33.9-.67,1.25-1.58,1.08-2.55.34.18.72.22,1.1.14Z"/>
          <path class="cls-11" d="M211.92,253.67l-5.39,3.83c-1.09.75-2.92,2.09-2.67,3.72.48,3.1,4.12,9.07,6.22,7.87,2.42-1.38,4.66-2.74,6.75-4.58.68-.6,1.02-1.64,2-1.73.15.25.58.71.37,1.04l-.43.67c-.86.03-1.46.81-2.18,1.42-3.3,2.8-7.53,6.17-10.08,2.78-1.32-1.75-2.56-3.74-3.33-5.72-.96-2.45.02-4.37,1.93-5.73,2.16-1.55,4.25-3.5,6.81-3.56Z"/>
          <path class="cls-11" d="M200.34,242.13l6.35,2.61,8.25,3.86c1.63.76,2.14,2.34,1.82,4.03-.06-.22-.1-.76-.43-.92-.26-.13-.55.36-.69.48-.19.16-.64-.01-.87-.13-.2-.1-.59-.05-.82-.04-.16,0-.47.03-.6-.05-1-.66-2.24-.43-3.4-.42.06-1.1,1.08-1.43,1.85-1.53,1.18-.15,1.84.11,3.08.89-.17-1.44-1.19-1.94-2.3-2.4l-14.75-6.1c0-.29-.04-.55.06-.65.25-.24,1.48-.04,2.46.36Z"/>
          <path class="cls-2" d="M160.43,268.01c.44,0,1.44.28,1.96-.03,2.32-2.58,3.16-3.85,3.44-6.81.2-.04.43.02.51.14.84,1.45-1.69,6.5-4.21,9.05-1.15-.49-1.16-1.72-1.69-2.36Z"/>
          <path class="cls-11" d="M194.98,277.4c-2.35-1.38-4.2-4.15-4.12-7.11,1.68,2.29,3,4.32,4.12,7.11Z"/>
          <path class="cls-11" d="M197.77,275.76c-1.75-1.75-3.18-4-3.98-6.69,2.07,1.6,3.8,3.74,3.98,6.69Z"/>
          <path class="cls-2" d="M197.94,255.31c-1.14.59-2.02,1.65-3.29,2.11-.09-.67-.14-1.26-.03-1.81.24-1.18.47-2.43,1.78-3.43.33.83,0,1.47-.23,2.31.62.47,1.17.49,1.77.82Z"/>
          <path class="cls-2" d="M166.84,258.89l.19,1.47c-.35-.26-.93-.29-1.3-.25-.42-1.59-1.71-2.66-2.42-4.46,1.86.41,2.35,2.21,3.54,3.24Z"/>
          <path class="cls-14" d="M180.09,252.15c-.39.08-.76.03-1.1-.14-.09-.49.11-.96.75-1.22l.35,1.36Z"/>
          <path class="cls-14" d="M214.77,252.06l-.13,1c-.43-.2-.73-.53-.68-1.04.22,0,.61-.06.82.04Z"/>
          <path class="cls-11" d="M179.35,266.24c-1.03-.25-1.19.91-1.78,1.17-3.26,1.45-6.63,1.52-9.92.31l-.25-6.01c4.61-.73,8.71-2.41,12.06-5.81,3.79,2.02,7.63,2.43,12.35,3.22l-12.39,9.67c-.78-.73-.47-1.61-.08-2.55Z"/>
          <path class="cls-11" d="M178.2,269.61c-3.94,2.82-8.15,5.02-12.86,6.24-.41.11-.69-1.29-.45-1.64,1.17-1.69,1.82-3.36,2.48-5.29,3.03.66,5.91.62,8.88.09.65.1,1.29.1,1.95.59Z"/>
          <path class="cls-11" d="M164.09,273.32c-.66-.19-1.6-1.55-1.37-2.25,1.34-1.49,2.6-2.64,3.65-4.68-.03,2.41-.48,4.68-2.28,6.94Z"/>
        </g>
      </g>
    </g>
    <g>
      <g>
        <path class="cls-5" d="M247.2,146.85c-.6-.09-1.04.64-1.7.9-.52.2-1.45-.26-1.86-.05-.56.29-.92,1.04-.82,1.58.11.59.61,1.15,1.4,1.44.33,1.31.06,2.59.03,4.11-.97.52-2.03.6-3.01.69l-1.92-4.93c-.89-2.28-3.08-3.6-4.55-5.5-1.73-2.23-1.45-8.2,1.18-10.24-1.16-.35-1.73.38-2.83.74-2.98-3.9-4.56-8.41-5.89-13.1-.59-2.08-.67-3.84-.2-6.11-1.41,1.3-2.18,1.47-3.62,1.05-4.45-1.3-8.31-3.72-12.16-6.24-2.74-1.79-4.22-4.53-3.5-7.98.07-.34-.12-.77-.68-.66-.87,1.62-.21,3.72-.75,5.58-.76,2.65-7.14,3.09-11.51,1.3.29-2.29,1.39-4.11.56-6.38-1.94,5.17-2.74,10.15-3.55,15.42-.08.55-.43,1.77-.96,1.92-1.43-.17-2.23-1.8-2.6-3.11l-1.79-6.33c-.21.07-.46.02-.46.01l.67,7.05c-2.83-1.07-4.26-5.64-5.43-5.08-.2.1-.15.55.06.91,3.27,5.62,8.02,9.8,13.44,13.44,9.91,6.65,23.85,10.17,36.5,18.49,2.49,1.63,4.69,3.36,6.29,5.8,2.74,4.16,1.96,9.64-2.41,12.37-3.11,1.94-7.24,1.44-10.66.27,1.29-2.5,4.54.85,4.29-1.11,1.14.49,2.86,1.2,4.47.71,3.3-1.01,5.84-5.94,4.03-9.05-1.64-2.81-4.98-3.57-7.33-5.07.66-1.51-4.1-1.65-5.58-.2-1.91,1.88-3.23,4.52-3.64,7.17s.75,4.38,3.24,5.59c-2.45,1.2-5.54-1.44-7.62-1.29-1.66.13-2.7.12-4.05-1.04-1.7-1.46-4.39-1.53-6.33-2.45-1.31-.63-2.25-1.5-3.64-2.06-6.65-2.67-13.14-5.65-20.29-6.94l-10.65-.24-3.98-1.18c.04,1.01.85,1.16,1.67,1.94-14.86,3.96-28.38,1.35-40.8-7.87-1.35,0-2.47-.52-3.59-1.19-4.09-2.44-8.87-3.12-13.64-3.44.27,1.23,1.17,1.38,1.85,2.08-.71,1.04-1.65,1.36-2.7,1.55l-11.26,2.05-48.38,7.84c-.77.12-1.22.19-1.95-.17,11.98-25.22,28.59-48.13,48.55-67.6l18.63,5.09c5.5,1.48,10.56,2,16.24,1.19,20.48-2.93,40.48-10.2,61.38-13.03,4.51-.61,9.05,0,12.67,2.72l30.65,23.08c3.15,2.37,4.86,5.36,5.84,9.15l6.04,23.2c.44,1.7.25,3.37-.04,5.07l-1.39,8.15ZM206.04,149.99c.56-2.7,2.1-4.82,3.48-7.41-2.9,1.22-4.13,4.78-4.52,7.74-.04.29.91.28,1.04-.32ZM212.26,144.45c-2.16,2.11-2.62,4.71-3.81,7.05-.08.6.15.82.44.79.26-.03.44-.17.58-.48,1.08-2.39,2.92-4.46,2.79-7.36Z"/>
        <path class="cls-3" d="M241.25,155.53c1.37,3.52,4,1.36,3.68,4.04-.64,1.13-1.81,1.59-3.34,1.98l6,9.76,4.25,7.79c.21.39.2.84,0,.98-.29.2-.79.08-1.06-.33l-9.64-14.82-2.06-3.43c-3.43,6.78-12.22,5.34-19.46,2.81l-6.94-2.42-1.06-.59c-.42-.24-.91.22-1.39.57l-1.66,1.21-8.97,5.43c-2.11,1.28-4.5,1.2-6.4-.34-2.06-1.66-1.81-5.42-1.17-7.57,1.39-1.41-1.66-1.69-4.58-.12.18-.7.71-1.21.84-2.03-1.74-1.4-3.89-1.86-5.94-1.68-1.28,2.39-.47,4.61,1.43,6.09-2.72-.62-4.11-3.64-3.04-6.43.67-1.75,1.76-2.92,2.9-4.54l-8.94-.95-12.6,2.07c-9,.89-17.81-.49-25.88-4.56-3.4-1.68-6.46-3.56-9.64-5.66-4.3-.81-8.35-.66-12.79.16l-65.78,11.82c-.6.12-1.2.2-1.87.33l2.49-5.25c.72.36,1.18.3,1.95.17l48.38-7.84,11.26-2.05c1.05-.19,1.99-.51,2.7-1.55-.68-.7-1.58-.85-1.85-2.08,4.77.32,9.55,1,13.64,3.44,1.12.67,2.24,1.18,3.59,1.19,12.42,9.22,25.94,11.84,40.8,7.87-.83-.78-1.63-.93-1.67-1.94l3.98,1.18,10.65.24c7.16,1.29,13.64,4.27,20.29,6.94,1.38.56,2.32,1.43,3.64,2.06,1.94.92,4.63.99,6.33,2.45,1.35,1.16,2.39,1.17,4.05,1.04,2.08-.16,5.17,2.49,7.62,1.29-2.49-1.21-3.64-3.01-3.24-5.59s1.72-5.29,3.64-7.17c1.48-1.45,6.24-1.32,5.58.2-1.38-.18-3.52-.62-4.78.56-2.74,2.56-5.08,9.11-1.96,10.46l5.56,2.39c.25,1.96-3-1.39-4.29,1.11,3.42,1.18,7.55,1.68,10.66-.27,4.38-2.73,5.15-8.2,2.41-12.37-1.6-2.44-3.81-4.17-6.29-5.8-12.65-8.32-26.59-11.84-36.5-18.49-5.42-3.64-10.17-7.82-13.44-13.44-.21-.36-.26-.81-.06-.91,1.18-.57,2.61,4,5.43,5.08l-.67-7.05s.25.05.46-.01l1.79,6.33c.37,1.31,1.17,2.94,2.6,3.11.53-.15.88-1.37.96-1.92.81-5.27,1.61-10.26,3.55-15.42.83,2.27-.27,4.09-.56,6.38,4.37,1.79,10.74,1.36,11.51-1.3.53-1.86-.13-3.95.75-5.58.56-.11.75.32.68.66-.72,3.45.76,6.19,3.5,7.98,3.86,2.52,7.71,4.94,12.16,6.24,1.44.42,2.21.25,3.62-1.05-.47,2.26-.39,4.03.2,6.11,1.33,4.69,2.91,9.19,5.89,13.1,1.09-.36,1.66-1.09,2.83-.74-2.63,2.05-2.91,8.02-1.18,10.24,1.47,1.9,3.66,3.22,4.55,5.5l1.92,4.93ZM186.83,118.14l-.2.2.2.2.2-.2-.2-.2ZM203.3,130.55l1.06-2.35c-2.33-1.54-3.68-3.76-4.53-6.67-2.11,1.26-4.33,1.71-6.58,1.35-.16.7-.18,1.75.24,2.04,3.14,2.23,6.33,4.11,9.8,5.62ZM231.22,144.02c-.6-2.36.22-4.4.18-6.41l-2.56-4.09-3.33,7.42,5.7,3.07ZM204.89,163.91c-2.74-.55-4.8,1.04-5.88,3.37l5.88-3.37Z"/>
        <path class="cls-13" d="M247.2,146.85l-1.58,12.35c-.19.02-.57.16-.69.37.32-2.67-2.31-.52-3.68-4.04.98-.09,2.04-.17,3.01-.69.03-1.52.29-2.8-.03-4.11-.79-.3-1.29-.85-1.4-1.44-.1-.54.26-1.28.82-1.58.4-.21,1.34.25,1.86.05.66-.26,1.1-.99,1.7-.9Z"/>
        <path class="cls-13" d="M187.46,160.47c-.8.43-1.48,1.45-1.31,2.33-.84.35-1.5.25-2.36.05-1.9-1.48-2.71-3.7-1.43-6.09,2.05-.19,4.2.27,5.94,1.68-.13.82-.65,1.33-.84,2.03Z"/>
        <path class="cls-11" d="M192.04,160.59l-5.88,2.2c-.17-.88.51-1.9,1.31-2.33,2.92-1.56,5.97-1.28,4.58.12Z"/>
        <path class="cls-6" d="M229.95,149.7c2.35,1.5,5.69,2.26,7.33,5.07,1.81,3.1-.73,8.03-4.03,9.05-1.6.49-3.33-.22-4.47-.71l-5.56-2.39c-3.13-1.34-.78-7.89,1.96-10.46,1.26-1.18,3.4-.74,4.78-.56Z"/>
        <path class="cls-3" d="M212.26,144.45c.13,2.9-1.71,4.98-2.79,7.36-.14.3-.32.45-.58.48-.29.03-.52-.19-.44-.79,1.2-2.35,1.65-4.94,3.81-7.05Z"/>
        <path class="cls-3" d="M206.04,149.99c-.13.61-1.08.62-1.04.32.38-2.96,1.61-6.52,4.52-7.74-1.38,2.6-2.92,4.72-3.48,7.41Z"/>
        <path class="cls-10" d="M204.89,163.91l-5.88,3.37c1.08-2.33,3.14-3.92,5.88-3.37Z"/>
        <rect class="cls-5" x="186.69" y="118.2" width=".28" height=".28" transform="translate(-28.98 166.69) rotate(-44.98)"/>
      </g>
      <g>
        <path class="cls-11" d="M441.33,130.28c.44.13.74.26,1.11.91,15.14,26.71,24.9,56.17,29.52,86.4-1.25.17-1.79-.59-2.7-1.26l-36.69-27.09-15.55-11.4-4.79-4.41c-3.21-2.2-7.21-1.82-10.64-1.32-.56.08-1.18-.14-1.65-.16l-4.44-.1c-11.43-.26-22.39-3.33-31.67-9.9-.73-.51-1.33-.8-2.14-.73l-7.8-5.89c-.33-.25-.91-.38-.86-.86.04-.3.1-.54.38-1.17l-6.68-3.12c-1.64-.33-2.62-1.01-4.07-1.64-8.97-3.92-23.53-5.01-35.77-8.82-3.75-1.17-7.31-2.8-9.7-5.98-2.35-3.13-1.59-7.42,1.14-10.33,5.13-5.5,18.75-3.69,26.73-1.99l10.61,2.26c9.69,2.06,21.94,2.35,30.06-3.92-1.57-.59-2.88.35-3.89.93-1.12-1.17-3.79,1.35-5.38-.13-.33-.64.16-2.43-.83-2.87.87-3.53,2.28-6.78,3.58-10.58-2.04,1.12-2.11,3.32-3.16,4.99-1.63.03-2.95-.95-4.5-1.5-.76-.27-1.71.03-2.3-.62-.52-.57-.5-1.33-.89-2.22l-1.77-4.08.87-4.45c-1.28.93-1.74,2.85-2.11,3.94-6.18,1.53-12.48,1.47-18.5-.6-.23-1.01-.25-2.29-1.33-3.17l.06,4.57c-.51,1.43-2.04,2.37-3.04,3.45l-1.56.43c-2.1,1.74-4.37,2.82-6.6,4.26-.48.31-.87,1.35-1.39,1.38-1.14.07-1.22-1.37-2.5-1.76-.36-.11-.76.21-.65.6.28.98,1.32,1.24.54,1.82l-.21-.45c-.58-1.3-3.17,2.09-4.59,4.92-2.24.17-4.52,1.03-6.48,2.28-2.9,1.85-4.12,4.62-4.8,7.71l-.91,4.15c-1.8.46-3.96-1.66-3.7-3.52.51-3.72,2.28-6.66,3.7-9.97l5.79-13.49c1.05-2.45,3.28-3.91,5.19-5.7l12.24-11.45c5.06-4.73,9.48-3.72,15.01-4.31l6.89-.74c.36-.04.99.02,1.29-.06.22-.06.43-.32.34-.75,8.51.03,16.96-1.09,25.61-1.79,4.95-.4,9.36.53,13,3.72l10.71,9.4,24.34,21.8c8.53,7.64,17.01,11.25,27.55,14.38ZM300.08,123.21c-3.75,2.45-4.29,7.54-1.48,11.03,1.38,1.71,3.49,2.1,5.95,2.61,1.88.39,4.78,1.26,6.26-.55,1.9-2.34,2.2-5.9,2.14-8.83-.05-2.66-2.21-4.15-4.61-4.44-2.71-.33-5.73-.95-6.02.06-.48-.01-1.12.24-1.61.03-.23-.11-.48-.08-.64.1ZM323.52,137.25c1.45-2.83,1.81-5.49,1.57-8.45-1.31,2.64-2.09,5.5-1.57,8.45ZM328.4,129.61c-.97,2.91-1.43,5.55-1.46,8.4,1.63-2.58,2.25-5.41,1.46-8.4ZM354.34,153.92l-.2.2.2.2.2-.2-.2-.2Z"/>
        <path class="cls-2" d="M471.96,217.59l.4,2.62c-.51-.07-.9-.3-1.43-.69l-28.54-21.25-27.92-20.27c-4.22-3.07-8.98-4.68-13.99-4.16.4,0,.88-.19,1.03-.5.22-.45.14-.91.08-1.23,3.43-.5,7.44-.88,10.64,1.32l4.79,4.41,15.55,11.4,36.69,27.09c.91.67,1.45,1.43,2.7,1.26Z"/>
        <path class="cls-2" d="M340.12,82.77c.09.43-.12.69-.34.75-.3.08-.93.02-1.29.06l-6.89.74c-5.54.59-9.96-.42-15.01,4.31l-12.24,11.45c-1.91,1.79-4.14,3.25-5.19,5.7l-5.79,13.49c-1.42,3.31-3.19,6.25-3.7,9.97-.25,1.86,1.9,3.98,3.7,3.52l.91-4.15c.93,1.22.47,2.75.3,4.09-.09.74-.39,1.2-.76,1.81-1.61-.32-3.2-.63-4.11-1.97-.77-1.15-1.43-3.01-.8-4.62l7.83-19.78c.73-1.84,1.47-3.77,2.91-5.12l16.13-15.17c2.49-2.34,5.17-3.9,8.65-4.13l10.35-.67,5.33-.27Z"/>
        <path class="cls-10" d="M355.63,117.69c-.42,1.71-1.12,3.53-.93,5.52l5.36-1.5,1.78-1.02c1.01-.58,2.32-1.52,3.89-.93-8.12,6.27-20.37,5.98-30.06,3.92l-10.61-2.26c-7.99-1.7-21.6-3.51-26.73,1.99-2.72,2.92-3.49,7.21-1.14,10.33,2.39,3.18,5.95,4.81,9.7,5.98,12.23,3.82,26.79,4.91,35.77,8.82,1.45.63,2.44,1.32,4.07,1.64l6.68,3.12c-.27.63-.34.88-.38,1.17-.06.48.53.61.86.86l7.8,5.89c7.62,5.75,16.42,9.73,26.09,11.27l11.37.28c.32,0,.65-.08.74-.21.1-.15.09-.48.05-.61.47.01,1.1.24,1.65.16.06.32.14.78-.08,1.23-.15.3-.63.49-1.03.5-12.05,1.25-24.1-1.51-34.53-8l-11.66-8.46c-5.37-3.9-10.81-7.3-17.16-8.99.04,3.13-.35,6.79-1.91,7.55-.31-2.07,1.54-4.67.28-8.14l-8.74-2.04c.1,2.56-.41,4.47-1.16,6.5-1.39,3.78-3.53,5.8-7.31,5.13l3.73-1.44c2.82-2.67,3.62-6.83,3.43-10.56l-11.75-2.36-1.04,2.02c-.89,1.74-1.93,3.52-3.76,4.45l-.22-1.2c1.89-1.34,3.65-3.01,3.7-5.67l-5.34-1.31c-.75-.18-1.68-1.44-2.77-.68-.1-.21.07-.71-.08-.88-.29-.32-1.01-.18-1.37-.36l-3.78-1.89.03,3.97c0,.77-.25,1.35-.3,1.99h-.89s.65-6.34.65-6.34l-2.21-2.22c-.42-.82-.42-2.3-1.75-2.22.16-1.34.63-2.87-.3-4.09.68-3.09,1.9-5.86,4.8-7.71,1.96-1.25,4.24-2.11,6.48-2.28.53-.04,1.24.45,1.93.05.47-.27.77-.89,1.18-1.36l.42-.48.74-1.15c.07-.11.53-.18.69-.29.11-.08.18-.31-.16-.31v-.93c.78-.58-.27-.84-.54-1.82-.11-.38.29-.71.65-.6,1.29.39,1.36,1.83,2.5,1.76.51-.03.91-1.08,1.39-1.38,2.23-1.44,4.51-2.52,6.6-4.26l1.56-.43c1-1.08,2.53-2.02,3.04-3.45l-.06-4.57c1.08.87,1.1,2.16,1.33,3.17.09.38.08.95.74,1.19,5.49,2.04,11.39,2.33,17.1.9.6-.15.55-1.14.67-1.49.37-1.09.83-3.02,2.11-3.94l-.87,4.45,1.77,4.08c.39.89.37,1.65.89,2.22.59.65,1.54.35,2.3.62,1.55.55,2.87,1.53,4.5,1.5,1.06-1.66,1.12-3.86,3.16-4.99-1.3,3.79-2.71,7.05-3.58,10.58ZM327.7,114.79l-.72-3.83c.08,0,.42,0,.5-.03l1.74,3.96c4.87.42,9.61-.52,13.83-2.53.15-2.31.49-4.01,1.54-6.13-6.21.99-11.9.81-17.71-1.28l-3.56,3.67c-3.01,3.11-6.77,5.3-11.01,6.09-.06,1.49-.32,2.28-.9,3.54l12.85,1.53c1.38-1.4,3.32-2.83,3.44-5.01ZM353.44,123.28c.14-3.19.58-5.63,1.66-8.38-4.04-1.18-6.95-3.6-9.37-7.09-3.76,4.2-.98,11.34,2.56,15.84l5.15-.37ZM335,121.97c3.72,1.24,7.28,1.79,11.48,1.49-1.69-3.16-3.43-5.74-3.5-9.54-2.4,1.08-4.44,1.61-6.93,1.66l-7.11.41-3.01,4.17,9.07,1.81Z"/>
        <path class="cls-2" d="M318.29,157.38c-1.86-.33-3.14-1.67-3.57-3.85l-1.38-6.98c-.12-.63-.07-1.26-.66-1.5l1.04-2.02,11.75,2.36c.19,3.73-.61,7.89-3.43,10.56l-3.73,1.44ZM317.18,155.31c1.25-4.09.28-8.1-2.28-7.24-.22,2.69.3,6.67,2.28,7.24Z"/>
        <path class="cls-2" d="M335.22,155.94c.14.93-.85,1.46-1.46,1.94.24-1.46-1.67.12-3.76-.34.06-2.19-.17-4.38-2.6-5.79-.57,2.74-.05,5.2,2.18,5.7l-.33.97c-3.05-1.1-2.29-4.22-3.65-6.15.74-2.02,1.25-3.93,1.16-6.5l8.74,2.04c1.26,3.48-.58,6.07-.28,8.14Z"/>
        <path class="cls-10" d="M333.76,157.87c-1.36,1.06-2.95,1.1-4.51.54l.33-.97.42.09c2.09.46,4-1.12,3.76.34Z"/>
        <path class="cls-12" d="M300.72,123.11c.49.2,1.13-.05,1.61-.03,2.49.06,5.02.65,7.47,1.62,1.49.6,2.37,1.83,2.19,3.5-.38,3.41-1.39,8.4-3.26,8.24-3.51-.31-6.89-1.2-10.13-2.2-2.81-3.48-2.27-8.58,1.48-11.03.15-.05.49-.17.64-.1Z"/>
        <path class="cls-2" d="M399.93,171.96c.04.13.05.45-.05.61-.09.14-.41.22-.74.21l-11.37-.28c-9.67-1.54-18.47-5.51-26.09-11.27.81-.08,1.41.21,2.14.73,9.28,6.57,20.23,9.64,31.67,9.9l4.44.1Z"/>
        <path class="cls-2" d="M298.6,134.23c3.23,1,6.61,1.89,10.13,2.2,1.87.17,2.89-4.83,3.26-8.24.18-1.67-.69-2.91-2.19-3.5-2.45-.98-4.98-1.56-7.47-1.62.29-1.01,3.31-.38,6.02-.06,2.4.29,4.55,1.78,4.61,4.44.06,2.93-.24,6.5-2.14,8.83-1.48,1.82-4.38.94-6.26.55-2.47-.51-4.57-.89-5.95-2.61Z"/>
        <path class="cls-2" d="M345.34,103.17c-.12.35-.07,1.34-.67,1.49-5.7,1.44-11.61,1.14-17.1-.9-.65-.24-.65-.81-.74-1.19,6.02,2.07,12.32,2.13,18.5.6Z"/>
        <path class="cls-3" d="M310.37,114.15v.93s-.53.6-.53.6l-.74,1.15-.42.48c-.42.47-.71,1.09-1.18,1.36-.69.4-1.4-.09-1.93-.05,1.43-2.83,4.02-6.22,4.59-4.92l.21.45Z"/>
        <path class="cls-2" d="M361.84,120.69l-1.78,1.02-5.36,1.5c-.2-1.99.5-3.81.93-5.52.99.44.5,2.23.83,2.87,1.59,1.48,4.26-1.04,5.38.13Z"/>
        <path class="cls-2" d="M323.52,137.25c-.51-2.95.26-5.81,1.57-8.45.24,2.96-.12,5.62-1.57,8.45Z"/>
        <path class="cls-2" d="M328.4,129.61c.79,2.99.16,5.82-1.46,8.4.04-2.85.5-5.49,1.46-8.4Z"/>
        <path class="cls-2" d="M300.72,123.11c-.15-.06-.49.06-.64.1.16-.18.41-.21.64-.1Z"/>
        <rect class="cls-10" x="354.2" y="153.98" width=".28" height=".28" transform="translate(-5.25 295.55) rotate(-44.98)"/>
        <path class="cls-14" d="M327.7,114.79c-.13,2.17-2.06,3.61-3.44,5.01l-12.85-1.53c.58-1.26.84-2.05.9-3.54,4.24-.79,8-2.98,11.01-6.09l3.56-3.67c5.81,2.08,11.5,2.27,17.71,1.28-1.05,2.11-1.39,3.82-1.54,6.13-4.22,2.02-8.96,2.95-13.83,2.53l-1.74-3.96c-.08.04-.42.04-.5.03l.72,3.83Z"/>
        <path class="cls-14" d="M335,121.97l-9.07-1.81,3.01-4.17,7.11-.41c2.49-.05,4.53-.58,6.93-1.66.07,3.79,1.81,6.38,3.5,9.54-4.2.3-7.76-.25-11.48-1.49Z"/>
        <path class="cls-14" d="M353.44,123.28l-5.15.37c-3.54-4.5-6.32-11.64-2.56-15.84,2.42,3.49,5.33,5.91,9.37,7.09-1.09,2.75-1.52,5.19-1.66,8.38Z"/>
        <path class="cls-2" d="M304.29,140.64c1.53,3.33,2.14,6.88,2.53,10.47-3.32,1.27-6.98-.02-8.16-3.57-.46-1.37-.89-2.79-.75-4.08h.89c-.32,4.19,3.28,8.04,5.53,6.67.51-.31,1.06-4.52-.94-6.64-.95-1.01-2.7-1.89-4.28-2.01l-.03-3.97,3.78,1.89c.36.18,1.08.04,1.37.36.15.17-.02.67.08.88Z"/>
        <path class="cls-11" d="M298.79,143.47c.05-.65.31-1.22.3-1.99,1.59.12,3.33,1,4.28,2.01,2,2.12,1.46,6.33.94,6.64-2.24,1.37-5.85-2.48-5.53-6.66Z"/>
        <path class="cls-2" d="M308.69,148.29l-1.64-6.97,5.34,1.31c-.04,2.66-1.8,4.33-3.7,5.67Z"/>
        <path class="cls-11" d="M309.84,115.68l.53-.6c.34,0,.28.23.16.31-.16.11-.62.19-.69.29Z"/>
        <path class="cls-11" d="M308.68,117.3l.42-.48-.42.48Z"/>
        <path class="cls-11" d="M317.18,155.31c-1.98-.57-2.5-4.55-2.28-7.24,2.56-.86,3.53,3.16,2.28,7.24Z"/>
        <path class="cls-11" d="M330,157.53l-.42-.09c-2.24-.5-2.76-2.95-2.18-5.7,2.44,1.41,2.66,3.6,2.6,5.79Z"/>
      </g>
    </g>
  </g>
</svg>