<?xml version="1.0" encoding="UTF-8"?>
<svg id="Camada_1" xmlns="http://www.w3.org/2000/svg" version="1.1" viewBox="0 0 750 450">
  <!-- Generator: Adobe Illustrator 30.3.0, SVG Export Plug-In . SVG Version: 2.1.3 Build 182)  -->
  <defs>
    <style>
      .st0 {
        fill: #f4e7d2;
      }

      .st1 {
        fill: #bbb083;
      }

      .st2 {
        fill: #e2c7a0;
      }

      .st3 {
        fill: #3a3521;
      }

      .st4 {
        fill: #f7a37c;
      }

      .st5 {
        fill: #e0c398;
      }

      .st6 {
        fill: #ba350d;
      }

      .st7 {
        fill: #9e905f;
      }

      .st8 {
        fill: #441304;
      }

      .st9 {
        fill: #030101;
      }

      .st10 {
        fill: #b9ae7f;
      }

      .st11 {
        fill: #cd9f6a;
      }

      .st12 {
        fill: #a04e1f;
      }

      .st13 {
        fill: #c3471d;
      }

      .st14 {
        fill: #7b1c03;
      }

      .st15 {
        fill: #5c2312;
      }
    </style>
  </defs>
  <path class="st0" d="M-66.4,456.5h-.7V-6.5h884.1v.6s-420.8,0-420.8,0l54.1,20.9,70,27.2-13.3,7.3c-6.5,3.5-11.6,8.3-16.3,14-7,8.5-8.6,20-4,29.9l-.9,4-3.4,13.1c-.5,2-1,4.3-.4,6.4l3.4,11.3c0,.5-.4,1.4-.8,1.4l-3.3-.3c.6,2.1,2.8,3.3,5.3,4.3-.2,4,.7,7.3,2.4,10.4-3.1,4.7-3.4,10.4-5.2,15.9s-2.1,8.5,1.6,11.5v2.8c0,.5-.3,1.3.5,1.5-.2.8.1,1.9.4,2.6l.6,1.5v1.1c0,0,.7,1.5.7,1.5-.1,2.1.7,4.1,1.1,6s.8,4.7,2.5,6.9.8,2.1.9,3.1c-.2.2-.2.4-.3.7-.1.4,0,.9.6.9v2c-.4,1.5,2.1,3.1,2.4,4.6l1.6,6.5c1.2,4.8,2.5,9.8,6.2,13.5,10.4,10.4,31.5.7,45.4-2.9l4.4,9-42,18.7c-20,9-36.5,23.1-40.8,45.3l-8,41.1-1.2,4.5h-27.9c-4.8,0-9.7,0-13.7,1.8-.2-.9-.7-1.5-1.6-1.5l-17.6.2h-95.9c0,0-74.9,0-74.9,0-1.3,0-2.2.1-3,.5l-1-39.1c-.4-17-6.7-32.6-17.6-45.1-.2-1.1.2-2.1,1.1-3l4.3-4.3,25.1-24.7,17.5,8.8c4.9,2.4,9.7,4.2,15,5.5,7.6,1.8,15.3-1.7,17.4-9.3l3.7-13.9c1.9.5,3.8-.9,4.3-2.6s.4-4.8-1.7-5.2c-2.1-4.8,1.7-9.2,4.1-9.8,3.4-.9,6.8-2.4,7.8-6,.4-.7.9-1.5.1-2.4,0-.1,0-.2,0-.4-.2-.5-.9-1.3-1.3-1.3,0-2.8-.3-5.8,1-8.7,3.9-1.7,7.8-2.6,11.2-5.2s4.5-4.4,3.2-6.7l-9.4-17c-2.6-4.7-5.9-9.4-6.4-14.9-.7-7.4,9-17.2,6.9-30.9l-2.3-14.2c7.1-3.5,11.4-10,14-17s3.3-17-1.2-25.2c-7.2-13.3-22-16.5-36.9-16s-14.9-.3-22.3-2.2l-26.4-7c-25.7-6.8-48.7-6.1-70.7,9.7-8.9,6.4-16.5,13.9-23.5,22.3-10.7,12.8-15.5,28.5-13.6,45.1,1,8.7,3.9,16.6,6.6,24.6l2.8,8.2c0,.3,0,.8,0,1.1s.2,1,.9.9c-.2.8.2,1.8.4,2.6.3,1.4.3,2.8,1.4,4-.2.3,0,.9,0,1.2.2,1.4.2,3,1.3,4v1.2c0,.5,0,1.3.6,1.4v1.8c.1.5,0,1.3.7,1.4v2.5c.1.5,0,1.3.6,1.4v1.3c0,1.8.9,3.6.8,5.3v1.2c1.4,8.7-.8,16.3,1.8,17.2s1.1.4,1.4.6.7.7,1.3.7l-5.6,5.6-6.4,5.5c-29.8,6.9-55.6,15.5-80.8,34.2-23.5,17.4-42.5,43.7-57,68.6-.5-.4-.8-.6-.7-1.7V-5.9s-64.5,0-64.5,0v306.2s0,42.2,0,42.2v59.5s0,.7,0,.7v50.1c0,0,0,3.7,0,3.7Z"/>
  <path class="st2" d="M817-5.9v164.2s-51.4-19.5-51.4-19.5l-43.8-16.8-65.5-25-2.9-11.7c-8.8-26.2-30.6-45.2-57.5-51.6-16.7-4-33.4-3.7-50.3,0-9,1.9-17.1,5.2-25.3,8.6l-70-27.2-54.1-20.9h420.8Z"/>
  <path class="st0" d="M817,158.3v183.9s-43.1,0-43.1,0l-1.4-5.5-8.9-37.6-1.9-5.9-2.8-9.3-4.1-11.5c-4.2-8.8-8.8-17.5-16.1-24.7l-8.3-6.9c-3-2.5-6.6-4.1-10.2-5.7l-13.6-6-1.4-.6c-.8-.4-1.7-.6-2.7-.5-.4-1.7-2.5-1.2-3.4-1.5l-5.5-1.7-17.3-5.6-28-7.8-.3-1.4c11.6-.1,22-6.3,28.9-16,7.1-11.1,8-24.9,2.4-36.8-4.9-10.4-15-16.7-26.9-16.2,4.9-14.6,6.5-29.5,3.9-44.2l65.5,25,43.8,16.8,51.4,19.5Z"/>
  <path class="st5" d="M399.6,342.7c-.1.9,0,1.7.4,2.1.7.7,1.6.6,2.7.6l9.9-.6c.1,1,0,1.5-.2,2.1h-.2c-3.1,2.1-5.7,2.9-5.4,5.2-.4.4-.6,1.3-1.4,1.4-2,.2-5,7.1-5.5,10.6-1.1,7.7.5,15.2.3,22.9-.1,6.3-1.2,12.2,1.1,18.3-1.7,1.9-1.7,4.1-.1,6-1.7,2.7-.9,5.4-1.4,8.2v37.1c-.1,0-159.9,0-159.9,0l-13.4-101.7-.8-11.7c.9-.4,1.8-.5,3-.5h74.9c0,0,95.9,0,95.9,0Z"/>
  <path class="st3" d="M817,342.2v114.3s-34.2,0-34.2,0l-13.8-42.6-10.8-40.6c.2-.5.6-1.5.5-2.1v-.7c-.1,0,14.6-6.9,14.6-6.9,2.6-1.2,3.7-3.8,3.3-6.2l-2.6-15h43.1Z"/>
  <path class="st2" d="M405.5,353.5c0,.7-.3,1.5-.9,2.2-3.5,4.2-4.1,10.7-3.9,16.4l.8,17.3,3.5,41.6,1.9,25.7h-7.2s.1-37.1.1-37.1c.4-2.9-.3-5.6,1.4-8.2-1.6-2-1.6-4.1.1-6-2.3-6.1-1.2-12-1.1-18.3.2-7.7-1.4-15.2-.3-22.9.5-3.5,3.5-10.3,5.5-10.6Z"/>
  <path class="st11" d="M-1.2,299.1c-18.8,32.4-31.5,66.7-44.3,102.1-4.3,12-8.5,23.4-13.6,35.1l-7.3,16.5v-50.1c0,0,19-.1,19-.1,0-.2-.1-.5-.4-.5h-18.7s0-59.5,0-59.5H-23.9c-7.5-25.3-15.8-39.1-42.4-42.2V-5.9s64.5,0,64.5,0v303.3c-.1,1.1.2,1.3.7,1.7Z"/>
  <path class="st3" d="M-66.4,342.5v-42.2c26.6,3.1,34.9,16.9,42.4,42.1h-42.4Z"/>
  <path class="st2" d="M418.8,344l-6.3,2.9c0-.5.3-1,.2-2.1l-9.9.6c-1.1,0-2,.2-2.7-.6s-.5-1.3-.4-2.1l17.6-.2c.9,0,1.4.6,1.6,1.5Z"/>
  <path class="st7" d="M-66.4,402.7v-.7s18.7,0,18.7,0c.2,0,.4.4.4.5h-19.1Z"/>
  <path class="st11" d="M305.7,194.5v-2.4c.9.9.4,1.6,0,2.4Z"/>
  <path class="st2" d="M406.9,352.1c-.3-2.3,2.3-3.2,5.4-5.2l-5.4,5.2Z"/>
  <g>
    <g>
      <path class="st6" d="M136.6,196.4c.8,2.8,3.7,3.8,5.4,5.9l10.9,12.8c15.3,21.1,23.7,44.2,28.4,69.5l3.7,20c.5,2.6,1.3,5.1,1,7.5s.3,2.5.6,3.9c2.2,11.2,2.9,22.3,4.5,33.9,1.3-2.8,1.5-5.6,2-8.4l4-22.2v84c.1,6.7-1,12.9-2.4,19.3-2.2,9.8-6.8,18.4-11.7,27s-3.3,4.4-4.1,7h-38.8s0-149,0-149c0-17.7-5.2-34.5-17.3-47.1s-9-8.4-14.8-10.8c-36.2-15-74.4,24.7-81.3,59.5-1.1,5.6-.5,11.1.2,16.9l10,89.8,4.7,40.8h-107.8v-3.7s7.3-16.5,7.3-16.5c5.1-11.7,9.3-23.1,13.6-35.1,12.8-35.4,25.5-69.7,44.3-102.1,14.5-24.9,33.5-51.2,57-68.6,25.2-18.7,51-27.3,80.8-34.2Z"/>
      <path class="st13" d="M140,456.5H41.4s-4.7-40.8-4.7-40.8l-10-89.8c-.7-5.9-1.3-11.3-.2-16.9,6.9-34.7,45.1-74.5,81.3-59.5,5.8,2.4,10.6,6.4,14.8,10.8,12.1,12.6,17.3,29.4,17.3,47.1v149Z"/>
      <path class="st14" d="M207.1,259c10.8,12.5,17.1,28.1,17.6,45.1l1,39.1.8,11.7,13.4,101.7h-61.1c.8-2.6,2.7-4.5,4.1-7,4.9-8.6,9.5-17.2,11.7-27,1.5-6.3,2.5-12.6,2.5-19.3v-84c-.1,0-4.1,22.2-4.1,22.2-.5,2.8-.7,5.6-2,8.4-1.6-11.6-2.2-22.7-4.5-33.9-.3-1.4-.8-2.6-.6-3.9.3.1.7,0,.8-.1.3-.2.3-.7.4-1.2,3.9-13,6.5-26.2,8-39.4.1-1.2.4-2.1,1.4-3.1l8.5-8.6c.5-.5,1.4-.6,1.9-.6Z"/>
    </g>
    <g>
      <path class="st15" d="M322.7,75.8c-1,0-1.6-.3-1.7-.7-.7-2.6,2.4-13.9-8.3-19.5s-8.7-1.1-10.2,2.7l-4.7,11.2c-4.1,9.7-10.2,18.4-19,24.3l-.8.7-1.2.6-1.4.8-4.4,1.9-1,.2c-.4,0-.6.6-.5,1.1h-.5c0,0-7.5,2.4-7.5,2.4-.5-.1-1.2,0-1.7.1h-.6c0,.1-2.5.3-2.5.3-.5,0-1.3-.2-1.4.5h-1.3c-.5,0-.9.4-1.3.7,0-.3-.3-.6-.8-.6-15,.7-29-4.2-43.4-8.4s-25-3.5-37.2.6c-10.3,3.5-19.4,8.6-26.6,16.8-3.5,3.9-5.6,8.3-8.2,13s-1.9,1.3-1.8,2.5c-2.7-8-5.6-15.9-6.6-24.6-1.9-16.7,2.9-32.3,13.6-45.1s14.6-15.9,23.5-22.3c22.1-15.8,45.1-16.5,70.7-9.7l26.4,7c7.4,2,14.7,2.5,22.3,2.2,14.9-.4,29.7,2.7,36.9,16s4.1,17.2,1.2,25.2Z"/>
      <path class="st8" d="M252.4,103.2c-.1,2.4-1.6,4.5-2.8,6.6-1,.7-1.9,1.5-2.5,2.5-3.2,2.5-6.9,4.4-11.1,5.5s-1.8,1.5-2.2,2.6l-2.8,8.2c-1.9,5.5-6.7,9.6-12.7,10.1-1.4,0-3.7-.8-4.9-1.5l-4.7-3.1c-1.2-2.7-2.5-5.1-5.2-6.4-4.7-6.3-15.5-9.6-20.6-4.3-.1-.2-.4,0-.5,0-1.1,0-1.4.8-2,1.4s-1.3,1.3-1.9,2c-1.1,1.4-2.5,2.7-2.7,4.6v.5c-1.4,1.5-1.3,3.5-1.4,5.4l-.3,3.9.7,4.7c1,6.4,5.1,12,9.2,16.7-1.6,5.1-4,9.6-7.3,13.4-2.3,2.7-6,4.7-9.4,5.7s-4,1.3-6.4,1.1c-.3.2-.3,1-.2,1.1h-1.3c-.3-.5-1-.8-1.6-.6s-.5.9-.4,1.3c-.7,0-1.9-.2-2.5.2-1.6-1.2-6.1-1.2-7.8,0-.3-.3-1-.5-1.4-.6v-14.4c-.1-1.3-.8-2.6-1.9-2.9v-1.2c.5.2,1.2,0,1.2-.4.1-1.5-.8-5.5-1.9-4.9v-1.3c.3,0,.7-.6.6-.9-.2-.4-.8-.6-1.1-.5v-2.5c0-.2.7-.4.5-1s-.8-.5-1.1-.5v-1.8c.1-.2.7-.6.5-1s-.8-.5-1.2-.5v-1.2c.6-1.2.2-3.7-1.3-4,0-.3-.2-.9,0-1.2.7-1.3.3-3.7-1.4-4-.2-.8-.6-1.8-.4-2.6s.6-.8.1-1.3-.6-.5-1-.7l-2.8-8.2c-.1-1.2,1.3-1.8,1.8-2.5,2.6-4.6,4.7-9,8.2-13,7.2-8.2,16.3-13.3,26.6-16.8,12.2-4.1,24.7-4.2,37.2-.6s28.4,9.1,43.4,8.4.8.3.8.6Z"/>
      <path class="st8" d="M322.7,75.8c-2.6,7-6.8,13.5-14,17-2.2-8.4-5.4-16.5-11.1-23.3l4.7-11.2c1.6-3.8,6.5-4.6,10.2-2.7,10.8,5.6,7.7,16.8,8.3,19.5s.7.7,1.7.7Z"/>
      <path class="st15" d="M146,184c-2.7-1-.4-8.6-1.9-17.2,1.1.2,1.8,1.5,1.8,2.9v14.4Z"/>
      <path class="st15" d="M155.2,184.7c-2.1,1-4.4.4-6.6.6s-.9-.4-1.3-.7c1.7-1.1,6.2-1.1,7.8,0Z"/>
      <path class="st15" d="M144.1,165.6c0-1.7-.8-3.5-.8-5.3,1.1-.5,2,3.4,1.9,4.9s-.7.6-1.2.4Z"/>
      <path class="st15" d="M141.4,149.1c-1.1-1-1.1-2.6-1.3-4,1.5.3,1.9,2.8,1.3,4Z"/>
      <path class="st15" d="M140.1,143.9c-1-1.1-1-2.6-1.4-4,1.6.2,2,2.7,1.4,4Z"/>
      <path class="st15" d="M138.3,137.2c-.7.1-.9-.5-.9-.9s0-.8,0-1.1c.4.2.7.3,1,.7s0,.9-.1,1.3Z"/>
      <path class="st15" d="M142,151.8c-.7,0-.6-.9-.6-1.4.4,0,1,0,1.2.5s-.4.8-.6,1Z"/>
      <path class="st15" d="M143.3,159c-.6,0-.5-.9-.5-1.4.4,0,1,0,1.1.5s-.3.8-.6.9Z"/>
      <path class="st15" d="M142.7,155.1c-.7-.1-.6-.9-.6-1.4.4,0,.9,0,1.1.5s-.5.7-.6,1Z"/>
      <g>
        <path class="st4" d="M308.7,92.8l2.3,14.2c2.2,13.7-7.6,23.5-6.9,30.9.5,5.5,3.8,10.2,6.4,14.9l9.4,17c1.3,2.4-1.4,5.4-3.2,6.7-3.4,2.6-7.3,3.6-11.2,5.2-1.4,2.8-1,5.9-1,8.7l-4.7.3c-3.1.1-5.9,1.5-9,2.6l-4.9,1.7c-.5.2-.9.3-1.1.6s-.2.6-.1.9c-1.1,0-2.3,0-3.2.9s0,2.2-.2,3c-1.4,6.6,3.4,15.8,10,17.7l-3.7,13.9c-2.2,7.7-9.8,11.2-17.4,9.3s-10.1-3-15-5.5l-17.5-8.8-3-2.4c-9.7-5.5-18-12.1-26.9-19.6l2,24.2,2.7,22.5-4.3,4.3c-.9.9-1.3,1.9-1.1,3-.5,0-1.4,0-1.9.6l-8.5,8.6c-1.1,1.1-1.3,2-1.4,3.1-.8,0-1.6.3-2.3,1.1l-9.1,10.6c-.8.9-1.6,1.4-2.6,1.5-4.7-25.3-13.1-48.4-28.4-69.5l-10.9-12.8c-1.7-2-4.7-3.1-5.4-5.9l6.4-5.5,5.6-5.6c2.2-.1,4.5.4,6.6-.6s1.8-.2,2.5-.2,1.7.2,2-.6h1.3s5.7-.9,5.7-.9c.6,0,.8-1,.9-1.3,3.4-1,7.1-3,9.4-5.7,7.5,1.9,15.8,2.4,23-.9s4.5-2.3,4.8-5.3c-7,.3-13.2-1.5-18.3-6.1l-2.2-1.1c-4.2-4.7-8.2-10.3-9.2-16.7.8-1.3,1.1-4.2-.7-4.7l.3-3.9c1.4-1.3,1.2-3.6,1.4-5.4v-.5c1.3-1.2,2.2-2.9,2.8-4.6.6-.7,1.2-1.4,1.9-2,.5.1,1.1.2,1.6,0s.6-.9.4-1.3c.1,0,.3-.1.5,0,3.8-1,8.2-2.6,12-.7l4.3,2.3c1.6.9,2.8,2,4.2,2.7,2.6,1.3,3.9,3.7,5.2,6.4l4.7,3.1c1.1.7,3.5,1.6,4.9,1.5,6-.5,10.9-4.6,12.7-10.1l2.8-8.2,3.1-1.7c4-1.2,8.1-2.9,10.1-6.4s1.5-1.8,2.5-2.5c2.4-1.6,4.2-4.3,4.1-7.2h1.3c0,.3.6.7.9.6.5-.2.6-.7.5-1.1l2.5-.2c.3,1,.9.3.6-.1.5,0,1.2-.2,1.7-.1,1.7.4,3.3-.5,5.3-.8l1.8-.3c.4,0,.6-.8.4-1.4h.5c.4.1,1,.1,1.4-.2s.2-.7.2-1l4.4-1.9c0,.6.7.8,1.1.6s.4-.9.3-1.4l1.2-.6c.3-.2.6-.4.8-.7,8.8-6,14.9-14.6,19-24.3,5.6,6.8,8.9,14.9,11.1,23.3ZM303.6,117.1c1.6-1.5,2.6-5.5,1-6.9-10.3-2.6-20.8.5-29.8,5.5s-4.4,2.5-5.5,5.2c12.1-2.6,21-6.5,34.2-3.8ZM273.9,134.1c-.6,1.8.1,2.2,1,3.1,2.9,3.1,5.8,5.9,10.1,6.7s2.1.7,3.1.5c3.2-.4,4.8-7.8,4.4-13.5.5-.4,1.5-.8,1.9-.7.5.1,1.3-2,.6-2.1-7.5-2-15.5,1.2-21.1,6ZM308.2,176.5c-2.9-1.6-6-1-7.4,1.7,2.6-.3,5.2,0,7.4-1.7Z"/>
        <path class="st11" d="M237.6,227l-25.1,24.7-2.7-22.5-2-24.2c8.8,7.5,17.2,14.1,26.9,19.6l3,2.4Z"/>
        <path class="st13" d="M282.5,201c0,1.4,1.3,1.9,2,2.8l3.1,3.3c1.9,2,3.8,2.7,6.1,3.1s2.3,3.4,1.7,5.2-2.4,3.2-4.3,2.6c-6.7-1.9-11.5-11.1-10-17.7h.8s.5.6.5.6Z"/>
        <path class="st9" d="M297.9,199v1.5c-2.4.6-6.3,5-4.1,9.8-2.3-.4-4.2-1.1-6.1-3.1l-3.1-3.3c0-.7,0-1.3-.6-1.9l2.7-.5v-.9c-1.5-.5-2.8.4-4.1.5l-.5-.6c.3-2,2.9-1.3,3.5-3.3l12.5,1.8Z"/>
        <path class="st13" d="M304.4,190.4c0,.7.7,1.3,1.3,1.3,0,.1,0,.3,0,.4v2.4c-.1,0-2.4,2.3-2.4,2.3-1,1-2.3-.6-3.1-1s-1.8-.5-2.6-.5c0-1.9,1.4-3.1,1.9-4.7l4.7-.3Z"/>
        <path class="st13" d="M297.9,200.5v-1.5c1.3-.7,2.4-1.7,2.5-3.2.8.4,2.1,2,3.1,1l2.2-2.3c-1,3.6-4.4,5.1-7.8,6Z"/>
        <path class="st13" d="M305.8,191.8c-.7,0-1.3-.6-1.3-1.3.5,0,1.1.9,1.3,1.3Z"/>
        <path class="st13" d="M195.3,271.4c-1.5,13.2-4.1,26.3-8,39.4-.2.5-.2,1-.4,1.2s-.5.2-.8.1c.3-2.4-.5-4.9-1-7.5l-3.7-20c1-.1,1.9-.6,2.6-1.5l9.1-10.6c.6-.7,1.4-1.1,2.3-1.1Z"/>
        <path class="st13" d="M177,176.1c3.3-3.9,5.7-8.3,7.3-13.4l2.2,1.1c5.1,4.6,11.3,6.4,18.3,6.1-.3,2.9-2.5,4.2-4.8,5.3-7.3,3.3-15.5,2.8-23,.9Z"/>
        <path class="st15" d="M303.6,117.1c-13.2-2.7-22.1,1.2-34.2,3.8,1.1-2.7,3.1-3.9,5.5-5.2,9-5,19.5-8.2,29.8-5.5,1.5,1.4.6,5.4-1,6.9Z"/>
        <path class="st8" d="M285,143.9c-1.5-4.2-1.1-8.7,1.3-13.2-4.9.6-8.4,2.7-12.4,3.4,5.6-4.8,13.6-7.9,21.1-6s0,2.3-.6,2.1-1.3.3-1.9.7c.4,5.7-1.2,13-4.4,13.5s-2-.3-3.1-.5Z"/>
        <path class="st0" d="M285,143.9c-4.3-.9-7.2-3.6-10.1-6.7s-1.5-1.3-1-3.1c4-.7,7.5-2.8,12.4-3.4-2.3,4.5-2.8,9-1.3,13.2Z"/>
        <path class="st13" d="M299.7,190.7c-.5,1.6-1.9,2.8-1.9,4.7-4.2,0-8.4-.3-12.4.9s-.5.1-.8.1c0-.3,0-.7.1-.9s.6-.4,1.1-.6l4.9-1.7c3.1-1.1,5.9-2.4,9-2.6Z"/>
        <path class="st11" d="M203.8,127.7c-1.4-.7-2.6-1.8-4.2-2.7l-4.3-2.3c-3.8-2-8.3-.3-12,.7,5.1-5.3,15.9-2,20.6,4.3Z"/>
        <path class="st12" d="M308.2,176.5c-2.2,1.6-4.8,1.4-7.4,1.7,1.4-2.7,4.5-3.3,7.4-1.7Z"/>
        <path class="st11" d="M247.2,112.3c-2,3.4-6.2,5.1-10.1,6.4l-3.1,1.7c.4-1.1.5-2.2,2.2-2.6,4.2-1.1,7.8-3,11.1-5.5Z"/>
        <path class="st13" d="M284.6,196.4c.2,0,.6,0,.8-.1v.9c-.5,2-3.1,1.3-3.4,3.3h-.8c.2-.8-.6-2.3.2-3.1s2.1-1,3.2-.9Z"/>
        <path class="st11" d="M268.9,99.1c.2.5,0,1.3-.4,1.4l-1.8.3c-2,.4-3.5,1.2-5.3.8l7.5-2.5Z"/>
        <path class="st15" d="M167.6,181.7c0,.3-.3,1.2-.9,1.3l-5.7.9c-.1-.1,0-1,.2-1.1,2.4.2,4.3-.5,6.4-1.1Z"/>
        <path class="st11" d="M249.7,109.7c1.1-2.1,2.6-4.1,2.8-6.6.4-.3.9-.6,1.3-.6.1,2.9-1.7,5.6-4.1,7.2Z"/>
        <path class="st11" d="M175.1,145.9l-.7-4.7c1.9.6,1.5,3.4.7,4.7Z"/>
        <path class="st11" d="M174.7,137.2c.2-1.9,0-3.9,1.4-5.4-.2,1.8,0,4.1-1.4,5.4Z"/>
        <path class="st15" d="M159.7,183.9c-.3.8-1.3.7-2,.6-.1-.4,0-1.1.4-1.3.6-.2,1.3.1,1.6.6Z"/>
        <path class="st11" d="M182.7,123.4c.2.5,0,1.2-.4,1.3s-1.1.1-1.6,0c.6-.5,1-1.4,2-1.4Z"/>
        <path class="st11" d="M256.5,102c0,.4,0,.9-.5,1.1s-.8-.3-.9-.6c.2-.7.9-.5,1.4-.5Z"/>
        <path class="st11" d="M271,97.9c0,.2,0,.8-.2,1-.3.4-.9.4-1.4.3,0-.5.2-1.1.5-1.1l1-.2Z"/>
        <path class="st11" d="M276.7,95.2c.1.5.1,1-.3,1.4s-1,0-1.1-.6l1.4-.8Z"/>
        <path class="st11" d="M176.1,131.4c.2-1.9,1.6-3.2,2.7-4.6-.6,1.7-1.4,3.4-2.7,4.6Z"/>
        <path class="st11" d="M259,101.8h.6c.3.3-.4,1-.6,0Z"/>
        <path class="st11" d="M277.9,94.6l.8-.7c-.2.3-.5.6-.8.7Z"/>
        <path class="st9" d="M284.5,203.8c-.8-.8-1.9-1.4-2-2.8,1.3,0,2.6-.9,4.1-.5v.9s-2.6.5-2.6.5c.5.5.6,1.2.6,1.9Z"/>
        <path class="st0" d="M297.8,195.4c.8,0,1.8,0,2.6.5,0,1.4-1.2,2.5-2.4,3.2l-12.5-1.8v-.9c3.9-1.2,8.2-.9,12.4-.9Z"/>
      </g>
    </g>
  </g>
  <g>
    <path class="st9" d="M460.4,342.2l-3.4,19.9c3.7,2.6,7.4,4.6,11.1,6.1l-4.7,39.7-4.7,36.8-1.9,11.8h-50s-1.9-25.7-1.9-25.7l-3.5-41.6-.8-17.3c-.3-5.7.3-12.2,3.9-16.4s.9-1.4.9-2.2c.8,0,1-1,1.4-1.4l5.4-5.2h.2s6.3-2.8,6.3-2.8c4-1.9,8.9-1.7,13.7-1.7h27.9Z"/>
    <path class="st9" d="M532.2,386.5c0,3.1,1.7,6.5,2.7,9.7,3.3,10.7,8.2,20.2,14.4,29.5l7.9,11.9,10.3,15.3c.8,1.3,1.7,2.3,1.6,3.7h-50s7.9-46.6,7.9-46.6l3.3-25.1c.2,0,.5,0,.8,0,0,.5.8,1.2,1.1,1.7Z"/>
    <path class="st7" d="M776.5,357.3c.4,2.4-.8,5-3.3,6.2l-14.7,6.9.7-12.5c5.6-1.5,11.7-2.8,17.4-.7Z"/>
    <g>
      <path class="st12" d="M754.6,359c.9-.2,3.3.6,3.1,1.5-.4,3.1-4.7,5.7-6.4,5.9-4.3.5-8.8-.8-12.7,1.3s-1.1,1.9-3,1.7-3,.2-4.1,1.4l7,1.3,6.9,1.2c2.2.4,5,.1,7-.2l2,1.4c0,0,1.2-1.8,4.3-3.4.1.7-.3,1.6-.5,2.1-3.9,27.8-8.3,55.9-15.4,83.2h-65.1s2-26.3,2-26.3l4.3-51.2,43.8-13.3c1.3-.4,2.7,0,3.9-1.2l23-5.4Z"/>
      <polygon class="st12" points="530.4 384.9 527.1 409.9 519.3 456.5 456.8 456.5 458.7 444.7 463.4 407.9 468.1 368.2 474.3 370.7 492.2 376.5 530.4 384.9"/>
      <path class="st8" d="M759.2,358l-.7,12.5v.7c-3,1.6-4.1,3.4-4.2,3.4l-2-1.4c-2,.4-4.8.6-7,.2l-6.9-1.2-7-1.3c1.1-1.2,2.9-1.5,4.1-1.4,1.9.2,2.2-1.3,3-1.7,3.9-2.1,8.4-.8,12.7-1.3s6.1-2.8,6.4-5.9-2.3-1.7-3.1-1.5l4.5-1Z"/>
    </g>
    <g>
      <path class="st2" d="M636.3,208.1c-.9,1.1-2.3,1.9-2.2,3.5-1.6-1.9-3.9-3.4-4.6-6,2.3.6,4.9.9,6.7,2.4Z"/>
      <g>
        <path class="st12" d="M629.6,205.6c.7,2.6,2.9,4.1,4.6,6s4.1,4.8,7.4,5.2c.2,1.2.6,3,.3,4.8-2.4,15.1-6.5,29.6-13.3,43.3-6.5,13.2-17.4,28.4-31.9,30.3h-5.3c-6.5-2-11.9-6.6-15.7-11.8-2.3-2.5-.4-6.2-.1-8.6l-10.8-17.8-4.3-9.1c5.9-8.2,10.6-17,15-26.2l7.4-15.7c.2-.5.3-1,.3-1.3s-1-.7-1.4-.4c-4.8,4.5-10.1,7.7-16,10.4l-15.6,7.3-2.2,1.5c-13.9,3.6-35,13.3-45.4,2.9-3.7-3.7-5-8.7-6.2-13.5l-1.6-6.5c6.5,1.3,12.6,0,18.1-3.9s7.1-4.7,9.2-8.7c-.7-.9-1.9-.6-2.4-.8l-20.4-7.5-8.2-1.3,3.6-7.6-9.4-5.4c-3.7-3-2.9-7.4-1.6-11.5s2.1-11.2,5.2-15.9c1.2,0,2.3-.8,3.4-1.2,2.7-1,5-3.7,5.3-6.5v-.8c.1-.3,0-.9.2-1.2,1.7-3.5-4.5-12.9-6.6-17.3l-2.9-6.4h-5.8s3.4-13.1,3.4-13.1l.9-4,1.7-3.3c2.4-7.4,6.7-13.4,12.2-18.6,9.8-9.2,22.2-5.3,30.9,4.4s6.1,9.2,9.1,14.1c8.5,13.7,20.8,24.3,35.1,31.6l4.2,7.8c2.3,4.3,5.8,7.6,10.1,9.5,8.9,4,11.2-5.5,20.6-9.4,5.1-2.1,10.4-2,14.7,1.2s6.2,7.7,5.7,13.3c-1,12.1-8.8,22.2-19.8,27.5,0,5.4,3.8,8.9,5.9,13.2l6.3,12.8,4.2,6.4,2,1.8ZM530.9,116.5c6.2.6,11.3,3.7,17.8,5.1-10-10.4-27.4-14.3-40.8-11.3-1.3,1.5-.4,5.7,1.6,6.2,3.6.9,7-.1,10.5,0h10.8ZM534,126.9c1.3.4,1.5-1.8,0-1.4-4.9-2.1-10.3-3.1-14.9-.8,5.3-.2,10.2-.4,14.9,2.2ZM523.6,143.1c7,.5,16.8-4.6,18.3-8.6l.3-.8c.3-.7-3.5-2.4-6.9-3.6l-1.5-.5c-.1-.1-.3-.4-.5-.4-1.9.3-3.4-.8-5.2-1.2-5.3-1.1-11-1.6-11.1.7s.8,1.3,1.7,1.8c-.9,6.3-.4,12.3,5,12.7ZM536,126.8l-.3.3.3.3.3-.3-.3-.3ZM537.3,127.5l-.3.3.3.3.3-.3-.3-.3ZM504.5,173.7c-2.6-2.7-6.5-3.1-9.3-1.3,3,2,6.3,2.3,9.3,1.3Z"/>
        <path class="st8" d="M560.4,247.8l-8-15.3-4.4-9,2.2-1.5,15.6-7.3c5.9-2.7,11.1-6,16-10.4s1.3.2,1.4.4,0,.8-.3,1.3l-7.4,15.7c-4.4,9.2-9.1,18-15,26.2Z"/>
        <path class="st15" d="M519.7,193c0,.3.5.8.5,1.1s-.7.8-1.1.8l-11.6,1.4c-4.9.6-9.5.9-14.3,0-.1,2.3,0,3.7-.7,5.4v-2c-.1,0-.4-1.6-.4-1.6-.2-1-.2-2.1-.9-3.1-1.7-2.2-2-4.6-2.5-6.9l2.4-4,8.2,1.3,20.4,7.5Z"/>
        <path class="st14" d="M494.7,206.3c-.4-1.5-2.9-3.1-2.3-4.6s.6-3.1.7-5.4c4.8,1,9.4.7,14.3,0l11.6-1.4c.4,0,1.1-.6,1.1-.8s-.4-.8-.5-1.1c.5.2,1.7-.2,2.4.8-2.2,3.9-5.7,6.3-9.2,8.7-5.5,3.8-11.6,5.2-18.1,3.9Z"/>
        <path class="st14" d="M491.2,116.8c2,4.4,8.3,13.8,6.6,17.3l-5.7-5c-1.8-1.6-4.5-.9-6.6-.9l-3.4-11.3h9.2Z"/>
        <path class="st9" d="M497.7,134.1c-.1.3,0,.9,0,1.2h-.8c-1-1.1-1.9-2.2-3.8-2.8.9,3.8.2,7-.7,10.1-1.1.4-2.2,1.2-3.4,1.2-1.7-3.1-2.6-6.4-2.4-10.4-2.4-.9-4.7-2.1-5.3-4.3l3.3.3c.4,0,.8-.9.8-1.4,2.1,0,4.8-.7,6.6.9l5.7,5Z"/>
        <path class="st14" d="M491.1,184.2l-2.4,4c-.4-1.9-1.2-3.8-1.1-6v-1.1c0-.3,0-.6-.6-.5v-1.1c0,0,0-1.1,0-1.1,0-.3-.1-.6-.6-.4-.3-.8-.7-1.8-.4-2.6s.7-.3.5-.9-.7-.6-1.1-.5v-2.8c0,0,9.4,5.4,9.4,5.4l-3.6,7.6Z"/>
        <path class="st9" d="M491.2,116.8h-9.2c-.6-2-.1-4.4.4-6.4h5.8s2.9,6.4,2.9,6.4Z"/>
        <path class="st12" d="M485.8,175.4c-.7-.2-.5-.9-.5-1.5.4,0,.9,0,1.1.5s-.4.7-.5.9Z"/>
        <path class="st12" d="M486.8,179.6l-.6-1.5c.5-.2.7.2.6.4v1.1Z"/>
        <path class="st14" d="M492.3,199.7c-.5,0-.7-.5-.6-.9s.1-.5.3-.7l.3,1.6Z"/>
        <path class="st12" d="M487.5,182.2l-.6-1.5c.5-.2.7.2.6.5v1.1Z"/>
        <path class="st9" d="M530.9,116.5h-10.8c-3.5,0-6.9,1-10.5,0s-2.9-4.8-1.6-6.2c13.3-3,30.8.9,40.8,11.3-6.5-1.4-11.6-4.4-17.8-5.1Z"/>
        <path class="st9" d="M533.2,129.1c-.4.3-.2,1.1.5.4l1.5.5v1.4c-.1,0-9.2-2.1-9.2-2.1,3.2,5.1,1.7,10.5-2.4,13.8-5.4-.4-5.9-6.4-5-12.7-.9-.5-1.7-1.2-1.7-1.8,0-2.3,5.8-1.9,11.1-.7s3.4,1.5,5.2,1.2Z"/>
        <path class="st0" d="M535.1,131.5l6.7,3c-1.5,4.1-11.2,9.2-18.3,8.6,4.1-3.2,5.6-8.7,2.4-13.8l9.1,2.1Z"/>
        <path class="st8" d="M575.6,283.3c-3.6-5.1-6.5-10.5-8.4-16.5s-1-2.2-1.3-3.8l-1.2-6.1,10.8,17.8c-.3,2.4-2.2,6.1.1,8.6Z"/>
        <path class="st0" d="M496.9,135.3l.7.8c-.3,2.9-2.5,5.6-5.3,6.5,1-3.2,1.6-6.3.7-10.1,1.9.5,2.8,1.7,3.8,2.8Z"/>
        <path class="st14" d="M504.5,173.7c-3,1-6.3.7-9.3-1.3,2.8-1.7,6.7-1.3,9.3,1.3Z"/>
        <path class="st14" d="M534,126.9c-4.7-2.7-9.7-2.5-14.9-2.2,4.6-2.3,10-1.3,14.9.8,1.6-.4,1.3,1.9,0,1.4Z"/>
        <path class="st3" d="M541.8,134.5l-6.7-3v-1.4c3.5,1.3,7.3,2.9,7,3.6l-.3.8Z"/>
        <path class="st3" d="M533.8,129.5c-.7.7-1,0-.5-.4.2,0,.4.3.5.4Z"/>
        <rect class="st14" x="537.1" y="127.6" width=".5" height=".5" transform="translate(67.1 417.6) rotate(-45)"/>
        <rect class="st14" x="535.8" y="126.9" width=".5" height=".5" transform="translate(67.2 416.4) rotate(-45)"/>
        <polygon class="st14" points="497.6 136.1 496.9 135.3 497.7 135.3 497.6 136.1"/>
      </g>
      <g>
        <path class="st9" d="M656.3,97c2.6,14.8,1.1,29.6-3.9,44.2,11.9-.5,22,5.7,26.9,16.2,5.6,12,4.7,25.7-2.4,36.8-6.8,9.7-17.3,15.9-28.9,16l-8.8-1.6c-.6-.3-1.1-.6-1.7-.6h-1.2c-1.8-1.6-4.4-1.9-6.7-2.5l-2-1.8-4.2-6.4-6.3-12.8c-2.1-4.3-6-7.8-5.9-13.2,11-5.3,18.8-15.3,19.8-27.5.5-5.6-1.8-10.3-5.7-13.3s-9.6-3.4-14.7-1.2c-9.4,3.9-11.8,13.3-20.6,9.4-4.4-1.9-7.8-5.2-10.1-9.5l-4.2-7.8c-14.3-7.3-26.5-17.9-35.1-31.6-3.1-4.9-5.2-9.8-9.1-14.1-8.7-9.6-21.1-13.6-30.9-4.4s-9.8,11.2-12.2,18.6l-1.7,3.3c-4.7-9.8-3-21.3,4-29.9s9.8-10.4,16.3-14l13.3-7.3c8.2-3.4,16.4-6.7,25.3-8.6,16.9-3.6,33.5-3.9,50.3,0,26.9,6.4,48.7,25.4,57.5,51.6l2.9,11.7Z"/>
        <path class="st2" d="M639.2,208.7h-1.2c-.3,0-.7,0-.5-.6.6,0,1.1.3,1.7.6Z"/>
      </g>
    </g>
    <g>
      <path class="st1" d="M754.8,272.4l4.1,11.5c-2.4-.6-1.8,3.2-6.5,3.1.6,1.6,1.5,2.6,1.4,4.4-2.3,0-4.3,0-5.9,1.9,1.5,2,3.7,4.1,6.5,3.6l.8-3.2c2-.5,2.7,1.1,4.1,1.9s2-1.7,2.3-2.3l1.9,5.9,8.9,37.6,1.4,5.5,2.6,15c-5.7-2.1-11.7-.8-17.4.7l-4.5,1-23,5.4c-1.2,1.3-2.6.8-3.9,1.2l-43.8,13.3-4.3,51.2-2,26.3h-88.1c0-.9-.4-1.4-1.4-1.9l-26.2-15.8c-1.5-.9-2.9-1.6-4.7-1.2l-7.9-11.9c-6.2-9.3-11.1-18.8-14.4-29.5s-2.8-6.6-2.7-9.7c.7.3,1.7.4,1.9-.1.3-.8.2-1.7-.3-2.3-.1-2.8-.3-5.4-2.7-7.2-.5-4.8-.7-9.5.9-14.2l-2.8-6.9c-.4-1.1-1-2-.7-3s1-1.7,2.2-2.2c2.4-1,1.5-4.2,3.2-3.6s.5,3.2,4.1,4.2,4.3-.3,4.1-2.1c-.7-.5-2.4-2.1-1.2-2.7l2.6.3,1-1.8c1.1-2,3.9-2.4,5.4-4l5-5.5c1.3.7,3.4,2,4.3,3.2,1.1,2.6,2.4,4.4,5.4,5.2l.2,6.1c2.5,0,4.7,4.3,4.6,5.3s-1.1,1.1-1.6,1.6c-3.7,3.8-6.4.3-6.2,4.8,1.7-1.2,3.8.5,5.1,1,2.6-.6,5.1-1.6,7.9,0s1.9-1,1.8-1.6l-.5-2.3c.4-2,.9-4.1,1.9-5.9s6.3-2,7.1-.2,1.1,3.6,3.3,4.5l1.7,9.3c.3,1.7,3.2,1.8,4.7,1.2.3-1.3-.2-2.5-.7-4.3l7.4.2c.5-2.1,1.9-4.2,1.7-6.4-.5-.9-2.2-2-2-3.6l2.4-1.1c-.5-2.3-1.8-4-4-4.8,0-1.1.2-1.9.6-3-2-.7-2.2-1.8-1.6-3.4s3-1.8,3.2-.5-.1,7,2.7,6.5,1.3-3.7-1.9-6.6c.8-.6,1.6-1.6,1.4-2.2-.5-1.6-2.6-3-2.5-4.1s1.3-.9,1.4-1.2c.6-1.4-1.5-1.7-2.1-2.3-1.4-1.2,0-3.5,1.2-3.8-.4,2.7,2,2.9,3.1,4s1.7,1.7,2.6,1.4,1.1-1.3,1.2-2.4,1.4-.9,1.9-.4.7,1.1.3,2c-.6,1.6.2,2.4,1.6,3.1s1.8.9,2.3.5c1.7-1.1-1.6-4.2-1.6-7.1,1.4,0,2.1.3,3.6.7-.1-2.3-.8-3.5-2.6-4.8,2.2-1.6,2.7-2.2,2.2-5.1,1.3-.1,1.7.4,3.2,1,.1-5.7-3.9-5.7-3.7-6.7l.4-2.2,4.8,1.5c.6.2,4.8,4.3,4.8,5.2s-.9.8-.3,2c1-.6,1.9-1.1,2.3-.8l1.7,1.3c2.8-.7-.6-2.1,0-3.7s2.6,1.1,3.8.7,0-1.4,2-2.5,1.5.2,1.4.4l-.8,1.3c.1,1.5-1.2,3.1-1.7,4.4l2.4,4.2c.3.5,2.4,1,1.7,2.4s-1.9,1-2,1.7-.2,1.8.3,3c2.1-1.5,4.2-1.8,7-1.4l-.5-3.7c1.6-.5,2.3-.4,3.8-.1-2.1-4.5,1-4.5-4.5-9-1.2-1-1.4-3.1-2.8-3.7-.8.2-2.1.5-2.4,0-.6-.8-.4-1.9.9-2.7.6.4.8,1.2,1.2,2.1,1.5-2.6,5-1.8,4.5-4.4s-1-1.3-2-2.1.4-2.4,1.3-2.9l-1.8-3.2c1.9-.9,2.6-2.5,2.7-3.8-4.1-.6-5.7,5.1-6.3,1.3l6.1-3.8c-.7-1.7-2.3-2.6-4.3-2.9s-3.4-2.2-4.6-3.8-6,.8-6.8,4.1c-2-.3-1.5-2.1-1.9-2.7-1.2-1.5-1.6-2.3-1.4-3.7s.6-3.4,2.3-2.7,4.1,2.7,6.8,2.2c-.6-2.5-2.8-2.9-5-3.6s0-2.5,1.2-2.3,1.8,0,2.4,1.1c1.5,3,4.7,1.9,5.2,3.1s0,1.5-.5,1.6l-1.6.3c0,.9,0,2,.5,2.9,1.2-.9,2.6-.7,2.8-.3l.6,1.8c1.5,1.1,4,1,5.6-.4-2.4-2.1-3.8-4.1-3.3-7.1,1.8,1.4,4.8.4,5.7-1.3-.8-1.2-3-2.6-2.9-4.6-1.6.9-.9,1.9-.9,2.6,0,1.1-1.6,1-2,.4s-1.2-.8-.5-1.4c2-2.1,1-6.5-.9-7.3s-1.8,0-2.8.9c-.7.2-1.8-1.3-1.7-2,.3-1.6,2-3.9,2.7-3.6s.7.6,1.3,1.2c.3-.9,1.4-2.3,2.1-1.9l2.4,1.7c1.4-1.5-.3-3.6.2-4.5l2.8-3c-.2,2.6,2.3,2.4,3.2,3,.5,1.5-.3,4.5,2,5.7s1.9-1.7,1.1-2.7c1.4-.4,2-.3,3.4-.3.5-6.5-6.3-8-.4-8.8.1,2,1.3,5.2,3.5,6s3.2-1.4,3.9-2.6c6.2,4,7.5-.4,11.8-1.4,2.7,1,5.5,2.1,7.6,3.6-.8.8-1.5.6-1.8.7s-.5.6-.3.9.8.8,1.3.5l3.7-2.5c-1.1-1.4-.8-3-.4-4.2-2.1-2.8-1.7-6.7,1.2-9,.5,1.3,1.1,2.5,1.7,2.4s1.4-1,2.4-.6c-.6,1.5,0,2.7.3,4.1.7,2.3.5,4.9,1.9,7-.9.9-2.4,1.4-2.6,2.1-.5,1.2.5,1.5.9,1.6s1.8.3,2.2-.2c-1-2.8.9-3.5,2.5-4.8s2.8-3.6,4.2-2c.3.8-1,2.9,0,4s3.8,2.2,5.9,2.4c.3-1,.8-1.2,1.4-1.2s1.2.4,1.1,1.1c-.4,2.2-2.7,3.2.2,7.3s1.4,4.6,3.7,6.3.6,1.6,1.1,1.7,1.6-.2,2.2-.3c1.2,1.4,1.4,3.8,2.1,5.6s5.1.7,4.7,2.5-2.5,1.2-2.7,1.5-.2,1.4,0,1.6c.9,1,5.2-.7,7.1,3.4.6-3.1,1.9-3.3,3.8-4.4s2.3-2,4.1-.4,2.8,1.1,3.7,0-.3-1.5-.7-1.5c-.6-.1-1.1-.2-1.7,0,.1-1.7.6-2.2,1.2-2.6,1.6-.9,2.9,1.4,4.2.4s.7-2.4,1.2-2.8c1.1-.9,1.8,6.1,4.9,5,0-.8-1.1-2.5-.5-3.2s3.4.3,4.4-.8.3-1.3-.2-1.5c-2.1-.8-3-2.1-5.8-2.5-.5,0-.4-1.5.2-1.8,1.1-.5,3.1.9,4.4-1s.4-2.2-.6-3.4c1.7-.6,3.3-.5,5.1-.7ZM673.8,279.3c1.3-.2,2.5-.6,3.5-1.3-.7-1.4-2.5-1-3.1-1.6-4.6-4.7-3.3-11.8-9.6-12.2l-1.9,2.3c-1.4-1.3-3.4-1.5-4.4-.8.1,1.1,1,1.8,1.3,1.7s1.4-.1,1.5.1c2.5,5.1-4.4,7.3-3.9,8.6s1.1,1.4,1.7,1.7,1.2-1.1,1.7-1.1l2.6.2,1.9-1.5c.3-.2,1.3.8,1.7.9s1.3-.7,1-1.2-.7-1-.6-1.8,2.2-1,2.7.2c1,2.4-2.1,3.4-.3,6.9-1.5-.2-2.6,0-2.8,1.8,1.6.7,2.5-1,3.3-1.1s1.7.3,2.2-.2.5-.8.6-1.3l-.3-.5c-.6,0-1.4-.5-1.5-1-.2-.7-.2-1.6.9-2.6l1.2,3.5c0,.2.1.3.5.3ZM647.6,269.7c-.8-1.3-.8-1.7-1-2.4-1.5.6-2.5,2-2.3,3.6,1.5-.9,2.3-1.2,3.2-1.2ZM673.9,268.3c-.2-1.1-1.6-1.4-1.9-1.2s0,1.4,0,1.8,1.2.3,1.6,0c1,.8,1.2-.6.3-.6ZM692.4,270.8l-5.3,1.1c1.8,1.4,4.2,1.4,5.3-1.1ZM655.8,277.7c-.8-1.1-2.9.3-3.7,2.2,2.7-1.1,4.9-.6,3.7-2.2ZM655.6,301.2c.9-.1,1.6-1.8,1.3-2.2-1.6-.5-2.6-1.3-2.8-2.1s0-2.4.2-3.5c-.6-1.5-1.9-.7-1.5.6-1.4.8-2.4,1.3-2.8,2.1s-.2,3.4.6,3.5l4.9,1.5ZM735.6,297.6c0-.4-.3-.7-.7-.7s-.7.3-.7.7.3.7.7.7.7-.3.7-.7ZM750.5,298.8c0-.6-.9-.6-1.4-.3s-.6.9-.5,1.9c0,.4,1,.5,1.3.2s.7-.8.5-1.8ZM652,323.6c-1.4-1.5-.8-2.2-.3-2.8s1.1,0,1.7.5c1.4-.2,1-1.6-.4-1.5.3-2.9-4.1-5.9-3.9-6l-1.8,1.2c-1,.7-1.8,1-1.9,2s.7,1.2,1.4,1.4,1.4,0,2.3-1c.3.3.9,1.4.8,1.9l-1.4,6.9c1.5.7,4.6-1.7,3.6-2.6ZM655.6,314.3c-1.3,1.2-.7,2.3-.2,2.7.8.6,1.5.8,2.1.1s.7-1.8.2-2.3-1.7-.9-2.1-.5ZM652.8,327.1c0-.4-.3-.7-.7-.7s-.7.3-.7.7.3.7.7.7.7-.3.7-.7ZM611.9,345c2.1,0,2.2-2.2,2-2.9s-.5-2.2-2.1-1.9-1.4,4.7.1,4.8ZM608.2,355.2c-.8-.8-2.2-.6-2.7-.2-1,.6-.8,2.2-.5,3.2s1,2.3,2.5,1.7,1.7-3.7.7-4.6ZM557.9,359c-1.1-.8-3.6-.5-4.1.5s0,2.7.8,2.9,2.3,0,3.1-.4,1.6-1.9.2-2.9ZM588.2,363.3c-1.5-1.8-4.5-2-6.7-.7l4.6,3.2c.8.6,3-1.4,2.2-2.5ZM557.3,369.3c-.4-1.5-2.6-.9-2.6-.2,0,1.3,2.8.9,2.6.2ZM598.5,375.1c1.1-.6,1.3-1.6.9-2.2-.7-.9-3.4-.4-3.8.6s.1,1.6.5,1.9,1.6,0,2.4-.4ZM580.1,376.1c1-.6.4-2.7-.8-2.9s-2.1-.5-2.9.7.2,1.9.7,2.2,1.7.8,3,0Z"/>
      <path class="st10" d="M782.8,456.5h-40.1c7.1-27.4,11.5-55.4,15.4-83.2l10.8,40.6,13.8,42.6Z"/>
      <path class="st7" d="M589.6,456.5h-20.4c.1-1.4-.8-2.4-1.6-3.7l-10.3-15.3c1.8-.4,3.1.3,4.7,1.2l26.2,15.8c.9.6,1.5,1,1.4,1.9Z"/>
      <path class="st7" d="M560.4,247.8l4.3,9.1,1.2,6.1c.3,1.6,1,2.7,1.3,3.8-1.5-.3-2.4.5-3.8,1.4l-44.6,30.9-5.4,4.5,7.3,35.2,9.6,40.9c.4,1.9,1,3.4.8,5.1-.3,0-.6.1-.8,0l-38.2-8.3-17.8-5.8-6.2-2.5c-3.7-1.5-7.4-3.5-11.1-6.1l3.4-19.9,1.2-4.5,8-41.1c4.3-22.1,20.8-36.3,40.8-45.3l42-18.7,8,15.3Z"/>
      <path class="st10" d="M648.3,211.6l28,7.8,17.3,5.6,5.5,1.7c-.1.9.3,1.8,1.2,2s1.7,0,2.2-.5c1-.1,1.8,0,2.7.5,0,.4,0,1,.4,1.3s1,0,1-.7l13.6,6c0,1.9,1.5,2.3,3.1,3,2.4,1.1,4.4,3.1,7.2,2.7l8.3,6.9c7.2,7.1,11.8,15.9,16.1,24.7-1.8.1-3.3,0-5.1.7,1,1.3,1.3,2.4.6,3.4-1.3,1.9-3.3.4-4.4,1s-.7,1.8-.2,1.8c2.8.4,3.8,1.8,5.8,2.5s.6,1.1.2,1.5c-.9,1.1-3.6,0-4.4.8s.4,2.4.5,3.2c-3.1,1.1-3.8-5.8-4.9-5s0,1.9-1.2,2.8-2.6-1.3-4.2-.4-1.1.9-1.2,2.6c.5-.1,1,0,1.7,0s1.2.8.7,1.5c-.9,1.2-2.8.8-3.7,0-1.8-1.5-2.8-.3-4.1.4-1.9,1.1-3.3,1.3-3.8,4.4-1.9-4.1-6.2-2.4-7.1-3.4s-.3-1.3,0-1.6,2.5-.4,2.7-1.5c.4-1.9-4.2-1-4.7-2.5s-.9-4.2-2.1-5.6c-.6,0-1.7.5-2.2.3s-.7-1.4-1.1-1.7c-2.2-1.7-2.3-4.4-3.7-6.3-2.9-4.1-.6-5.1-.2-7.3s-.3-1.1-1.1-1.1-1.1.2-1.4,1.2c-2.1-.2-4.8-1.2-5.9-2.4s.3-3.1,0-4c-1.4-1.6-3.1,1.2-4.2,2-1.6,1.3-3.5,2-2.5,4.8-.4.5-1.5.3-2.2.2s-1.4-.4-.9-1.6,1.8-1.1,2.6-2.1c-1.5-2.2-1.2-4.7-1.9-7s-.9-2.6-.3-4.1c-1-.4-2,.5-2.4.6s-1.2-1.1-1.7-2.4c-2.9,2.3-3.3,6.2-1.2,9-.3,1.3-.6,2.8.4,4.2l-3.7,2.5c-.5.3-1.1-.2-1.3-.5s0-.9.3-.9.9,0,1.8-.7c-2.1-1.4-4.9-2.5-7.6-3.6-4.3,1.1-5.6,5.5-11.8,1.4-.7,1.2-2.3,3.2-3.9,2.6s-3.4-4.1-3.5-6c-5.9.8.9,2.3.4,8.8-1.4,0-2-.1-3.4.3.8,1-.4,3.1-1.1,2.7-2.3-1.2-1.4-4.2-2-5.7-.9-.6-3.4-.4-3.2-3l-2.8,3c-.4,1,1.2,3.1-.2,4.5l-2.4-1.7c-.7-.5-1.8,1-2.1,1.9-.6-.6-1-1.1-1.3-1.2-.7-.3-2.4,2-2.7,3.6s1,2.2,1.7,2c1-.8,1.9-1.3,2.8-.9,1.8.8,2.9,5.1.9,7.3s.3,1.1.5,1.4c.4.5,1.9.7,2-.4s-.7-1.7.9-2.6c-.1,2,2.1,3.3,2.9,4.6-.9,1.7-3.9,2.6-5.7,1.3-.5,3,.9,4.9,3.3,7.1-1.6,1.4-4.1,1.5-5.6.4l-.6-1.8c-.2-.5-1.6-.6-2.8.3-.5-.9-.5-2-.5-2.9l1.6-.3c.5-.1.9-.9.5-1.6-.6-1.2-3.7-.1-5.2-3.1s-1.7-1-2.4-1.1c-1.1-.2-1.8,2.1-1.2,2.3,2.2.7,4.4,1.1,5,3.6-2.7.5-4.8-1.4-6.8-2.2s-2.2,1.5-2.3,2.7.2,2.2,1.4,3.7,0,2.4,1.9,2.7c.9-3.3,6.2-5,6.8-4.1,1.1,1.6,2.3,3.5,4.6,3.8s3.6,1.2,4.3,2.9l-6.1,3.8c.6,3.7,2.2-1.9,6.3-1.3,0,1.3-.9,2.9-2.7,3.8l1.8,3.2c-.9.5-1.9,2.4-1.3,2.9,1,.8,1.9,1.2,2,2.1.5,2.6-3,1.8-4.5,4.4-.4-.9-.6-1.7-1.2-2.1-1.3.7-1.5,1.8-.9,2.7s1.6.2,2.4,0c1.4.7,1.6,2.7,2.8,3.7,5.5,4.5,2.3,4.5,4.5,9-1.5-.3-2.2-.3-3.8.1l.5,3.7c-2.8-.4-4.9-.1-7,1.4-.5-1.2-.5-2.3-.3-3s1.7-1,2-1.7c.7-1.4-1.4-1.8-1.7-2.4l-2.4-4.2c.5-1.3,1.8-2.9,1.7-4.4l.8-1.3c.2-.3-1-.6-1.4-.4-1.9,1.1-1.6,2.4-2,2.5-1.1.4-3.1-2.4-3.8-.7s2.9,3,0,3.7l-1.7-1.3c-.4-.3-1.3.2-2.3.8-.6-1.2.3-1.6.3-2,0-.9-4.2-5-4.8-5.2l-4.8-1.5-.4,2.2c-.2,1,3.9,1.1,3.7,6.7-1.4-.6-1.9-1.1-3.2-1,.4,3,0,3.5-2.2,5.1,1.8,1.4,2.5,2.6,2.6,4.8-1.5-.4-2.2-.8-3.6-.7,0,2.9,3.3,6,1.6,7.1s-1.7-.2-2.3-.5c-1.4-.7-2.2-1.5-1.6-3.1s.1-1.6-.3-2-1.8-.7-1.9.4-.1,2.1-1.2,2.4-1.7-.4-2.6-1.4-3.4-1.3-3.1-4c-1.1.3-2.6,2.7-1.2,3.8s2.7.8,2.1,2.3-1.4.9-1.4,1.2c-.1,1,2,2.5,2.5,4.1s-.6,1.5-1.4,2.2c3.2,2.9,3.9,6.3,1.9,6.6-2.9.4-2.4-4.6-2.7-6.5s-2.9-.5-3.2.5c-.5,1.6-.4,2.7,1.6,3.4-.4,1.1-.7,1.9-.6,3,2.3.8,3.6,2.5,4,4.8l-2.4,1.1c-.3,1.7,1.5,2.7,2,3.6.2,2.2-1.1,4.3-1.7,6.4l-7.4-.2c.5,1.8,1,3,.7,4.3-1.6.6-4.4.5-4.7-1.2l-1.7-9.3c-2.2-.9-2.4-2.5-3.3-4.5s-6.1-1.5-7.1.2-1.5,3.9-1.9,5.9l.5,2.3c.1.6-1.2,1.9-1.8,1.6-2.8-1.6-5.3-.6-7.9,0-1.4-.4-3.4-2.2-5.1-1-.2-4.5,2.6-1,6.2-4.8.5-.5,1.5-.8,1.6-1.6s-2-5.3-4.6-5.3l-.2-6.1c-3-.9-4.3-2.6-5.4-5.2-.9-1.2-3-2.5-4.3-3.2l-5,5.5c-1.5,1.6-4.3,2-5.4,4l-1,1.8-2.6-.3c-1.3.6.5,2.2,1.2,2.7.2,1.8-2.5,2.5-4.1,2.1-3.5-1-2.5-3.7-4.1-4.2s-.8,2.7-3.2,3.6-1.9,1.2-2.2,2.2.2,1.9.7,3l2.8,6.9c-1.6,4.8-1.4,9.4-.9,14.2,2.4,1.8,2.5,4.4,2.7,7.2.5.6.5,1.6.3,2.3s-1.1.5-1.9.1c-.3-.4-1.1-1.1-1.1-1.7.2-1.7-.4-3.2-.8-5.1l-9.6-40.9-7.3-35.2,5.4-4.5,44.6-30.9c1.4-1,2.4-1.7,3.8-1.4,1.9,6,4.8,11.4,8.4,16.5,3.7,5.3,9.1,9.8,15.7,11.7h5.3c14.6-1.8,25.4-17,31.9-30.2,6.8-13.7,10.9-28.2,13.3-43.3.3-1.8,0-3.6-.3-4.8,1-1.5,1.7-3.4,2-5.9l4.8.8ZM619.9,301.8c-.8-.3-1.7-1-1.8-1.9-.1-1.9,3.2-2.8,1.7-4.5s-2.5-.7-3.7-.9c-.8,1.5-2.1,2.1-3.7,2.2,1,1.3,2.4,2.4,2,3.9s-1.7,1.4-.9,3c3.3-1.6,6,.7,6.5-1.9Z"/>
      <path class="st10" d="M673,279.6c0,.5-.2,1-.6,1.3-.5.5-1.3.2-2.2.2s-1.6,1.8-3.3,1.1c.2-1.7,1.3-2,2.8-1.8-1.8-3.5,1.3-4.5.3-6.9s-2.5-1.1-2.7-.2.4,1.5.6,1.8c.3.5-.5,1.2-1,1.2s-1.4-1.1-1.7-.9l-1.9,1.5-2.6-.2c-.6,0-1.3,1.3-1.7,1.1s-1.5-1.1-1.7-1.7c-.5-1.2,6.5-3.5,3.9-8.6s-1.3-.3-1.5-.1c-.3.2-1.2-.5-1.3-1.7,1-.7,3-.5,4.4.8l1.9-2.3c6.4.4,5,7.4,9.6,12.2.6.6,2.4.2,3.1,1.6-.9.8-2.2,1.1-3.5,1.3s-.6.2-.8.3ZM673.3,278.9l-1.2-3.5c-1,1-1,1.9-.9,2.6s.9,1,1.5,1h.5Z"/>
      <path class="st10" d="M758.9,284l2.8,9.3c-.3.6-1.4,2.8-2.3,2.3-1.4-.7-2.2-2.4-4.1-1.9l-.8,3.2c-2.8.5-5-1.5-6.5-3.6,1.5-1.9,3.6-1.8,5.9-1.9.2-1.8-.8-2.8-1.4-4.4,4.7,0,4.1-3.7,6.5-3.1Z"/>
      <path class="st10" d="M652,323.6c1,1-2.1,3.3-3.6,2.6l1.4-6.9c0-.6-.5-1.6-.8-1.9-.9,1-1.7,1.1-2.3,1s-1.4-.7-1.4-1.4c.1-1,.9-1.4,1.9-2l1.8-1.2c-.1,0,4.3,3.1,3.9,6,1.4-.1,1.7,1.3.4,1.5-.6-.4-1.5-.7-1.7-.5-.6.6-1.2,1.3.3,2.8Z"/>
      <path class="st10" d="M655.6,301.2l-4.9-1.5c-.8-.1-1.1-2.7-.6-3.5s1.4-1.2,2.8-2.1c-.4-1.3.9-2.1,1.5-.6-.1,1.1-.4,2.5-.2,3.5s1.2,1.6,2.8,2.1c.2.4-.5,2-1.3,2.2Z"/>
      <path class="st10" d="M608.2,355.2c1,.9.4,4.2-.7,4.6s-2.3-1-2.5-1.7-.5-2.6.5-3.2,1.9-.5,2.7.2Z"/>
      <path class="st10" d="M557.9,359c1.4,1,.5,2.5-.2,2.9s-2.2.7-3.1.4-1.4-1.8-.8-2.9,3-1.3,4.1-.5Z"/>
      <path class="st10" d="M588.2,363.3c.9,1-1.3,3-2.2,2.5l-4.6-3.2c2.2-1.3,5.2-1.1,6.7.7Z"/>
      <path class="st10" d="M611.9,345c-1.5,0-2.1-4.4-.1-4.8s1.9,1.1,2.1,1.9.2,3-2,2.9Z"/>
      <path class="st10" d="M580.1,376.1c-1.3.7-2.4.3-3,0s-1.2-1.5-.7-2.2c.8-1.1,2.2-.8,2.9-.7,1.1.2,1.7,2.3.8,2.9Z"/>
      <path class="st10" d="M598.5,375.1c-.8.4-2,.7-2.4.4s-.7-1.5-.5-1.9c.4-1,3.1-1.6,3.8-.6s.2,1.6-.9,2.2Z"/>
      <path class="st10" d="M655.6,314.3c.5-.4,1.8.1,2.1.5.5.6.4,1.7-.2,2.3s-1.3.5-2.1-.1-1.1-1.5.2-2.7Z"/>
      <path class="st10" d="M647.6,269.7c-.9,0-1.7.3-3.2,1.2-.2-1.6.7-2.9,2.3-3.6.2.7.1,1.1,1,2.4Z"/>
      <path class="st10" d="M692.4,270.8c-1.1,2.5-3.6,2.5-5.3,1.1l5.3-1.1Z"/>
      <path class="st10" d="M655.8,277.7c1.2,1.7-1,1.1-3.7,2.2.8-1.9,2.9-3.4,3.7-2.2Z"/>
      <path class="st10" d="M750.5,298.8c.2,1-.1,1.4-.5,1.8s-1.3.2-1.3-.2c0-1,.1-1.6.5-1.9s1.3-.3,1.4.3Z"/>
      <path class="st10" d="M673.9,268.3c.9,0,.7,1.5-.3.6-.3.3-1.6.4-1.6,0s-.4-1.5,0-1.8,1.7.1,1.9,1.2Z"/>
      <path class="st10" d="M557.3,369.3c.2.8-2.5,1.2-2.6-.2s2.2-1.3,2.6.2Z"/>
      <circle class="st10" cx="652" cy="327.1" r=".7"/>
      <circle class="st10" cx="734.9" cy="297.6" r=".7"/>
      <path class="st1" d="M637.6,208.1c-.2.5.2.7.5.7h1.2c0,0,8.8,1.5,8.8,1.5l.3,1.4-4.8-.8c-.2,2.5-.9,4.4-2,5.9-3.3-.4-5.5-2.9-7.4-5.2-.1-1.6,1.2-2.4,2.2-3.5h1.2Z"/>
      <path class="st1" d="M730.4,240.9c-2.7.5-4.7-1.5-7.2-2.7s-3.1-1.1-3.1-3c3.6,1.6,7.2,3.2,10.2,5.7Z"/>
      <path class="st1" d="M702.6,228.1c-.5.5-1.5.7-2.2.5s-1.3-1-1.2-2c.9.3,3-.2,3.4,1.5Z"/>
      <path class="st1" d="M706.6,229.2c0,.7-.6,1-1,.7s-.5-.9-.4-1.3l1.4.6Z"/>
      <path class="st1" d="M619.9,301.8c-.5,2.6-3.2.2-6.5,1.9-.8-1.6.7-2.3.9-3,.4-1.5-1-2.6-2-3.9,1.6,0,2.9-.7,3.7-2.2,1.2.2,3.1.1,3.7.9,1.5,1.7-1.8,2.6-1.7,4.5s1,1.7,1.8,1.9Z"/>
    </g>
  </g>
</svg>