<svg xmlns="http://www.w3.org/2000/svg" width="439.572" height="448.514" viewBox="0 0 439.572 448.514">
  <g id="NUSMAD_CRISE_TopicosOp1_Top03" transform="translate(10)">
    <ellipse id="Elipse_5" data-name="Elipse 5" cx="209.786" cy="209.786" rx="209.786" ry="209.786" transform="translate(0 18.942)" fill="#dccab0" stroke="#fff" stroke-miterlimit="10" stroke-width="20"/>
    <g id="Grupo_133" data-name="Grupo 133" transform="translate(39.144 0)">
      <path id="Caminho_1104" data-name="Caminho 1104" d="M132.107,496.118a11.1,11.1,0,0,1-11.086-11.846c3.967-59.6,6.359-102.484,6.246-111.768-1.44-2.46-4.942-7.663-7.606-11.6-10.417-15.428-16.255-24.541-18.341-31.286-.17-.283-.329-.578-.487-.873a12.067,12.067,0,0,1-.657-9.284c4.262-12.8,10-28.826,14.623-37.623.113-6.371,3.14-11.642,8.456-14.317.725-.363,2.256-1.122,10.145-4a26.329,26.329,0,0,1-.669-8.8c.827-7.98,5.464-13.659,9.193-18.216,1.836-2.244,4.126-5.033,4.319-6.45.17-1.213-.93-4.1-1.814-6.427l-.51-1.338c-4.716-12.741-5.248-23.408-1.644-32.624,3.208-8.2,9.17-13.977,14.441-19.078a65.4,65.4,0,0,0,7.413-7.969c4.523-6.212,6.155-14.645,7.889-23.578.419-2.165.839-4.319,1.292-6.45,4.035-18.862,11.9-31.241,24.065-37.827a66.009,66.009,0,0,1,10.961-4.4c2.12-.691,4.115-1.349,5.838-2.108,5.43-2.4,10.315-6.813,15.484-11.472,2.358-2.131,4.795-4.33,7.413-6.45,9.42-7.685,19.168-12.435,28.951-14.09a45.072,45.072,0,0,1,7.527-.635c10.712,0,20.676,3.831,27.341,10.519.465.476.884.918,1.292,1.372.193.2.419.453.623.669a35.18,35.18,0,0,0,4.205-.567c1.723-.306,3.673-.646,5.724-.8.816-.068,1.587-.091,2.369-.091,12.741,0,24.428,7.629,29.189,18.613l2.936,1.632C353.41,90.4,364.9,96.8,367.908,109.214c1.553,6.393.306,12.22-.691,16.913-.578,2.7-1.168,5.486-.85,7.017a21.351,21.351,0,0,0,2.38,4.852,56.442,56.442,0,0,1,3.163,6.019,34.854,34.854,0,0,1-5.8,36.421c-.748.839-1.542,1.655-2.346,2.46-.544.544-1.292,1.3-1.734,1.825.023.363.057.8.091,1.168.079.964.17,2.063.181,3.3a30.5,30.5,0,0,1-5.475,17.173c-2.335,23.782-7.436,39.21-15.144,45.886-4.942,4.273-12.378,7.47-22.161,9.544v11.63a206.091,206.091,0,0,1,22.354,4.942c24.575,6.96,41.658,17.343,50.772,30.844,25.618,38.019,30.039,143.984,30.787,175.553a11.111,11.111,0,0,1-11.109,11.37H132.107Z" transform="translate(-99.542 -55.62)" fill="#fff"/>
      <g id="Grupo_132" data-name="Grupo 132" transform="translate(13.353 11.904)">
        <g id="Grupo_124" data-name="Grupo 124" transform="translate(38.02 214.717)">
          <g id="Grupo_122" data-name="Grupo 122">
            <path id="Caminho_1105" data-name="Caminho 1105" d="M407.639,459.046H152.432c-2.721-25.562-13.115-130.982-3.707-175.3a58.271,58.271,0,0,1,3.163-10.633,23.33,23.33,0,0,1,2.278-4.353,11.134,11.134,0,0,1,3.922-3.888,37.218,37.218,0,0,1,7.187-2.834.108.108,0,0,1,.079-.023h.034c1.7-.521,3.571-1,5.554-1.428,12.469-2.721,30.062-4.069,48.369-4.67,3.208-.091,6.45-.181,9.669-.227,7.606-.147,15.2-.17,22.5-.125,28.577.227,52.245,1.576,52.245,1.576s2.108.181,5.634.68a197.326,197.326,0,0,1,24.8,5.237c16.539,4.682,35.412,12.764,44.594,26.366,24.258,36,28.282,143.689,28.894,169.6Z" transform="translate(-144.862 -255.542)" fill="#bc5335"/>
            <path id="Caminho_1106" data-name="Caminho 1106" d="M371.273,372c-4.421,15.756-20.812,78.17-20.812,78.17H180.247L167.88,260.55c12.469-2.721,30.062-4.069,48.369-4.67,11.778,24.394,51.792,56.224,74.327,51.18,42.236-9.454,15.292-36.013,15.722-49.275a197.334,197.334,0,0,1,24.8,5.237c3.707,13.024,13.818,47.167,21.911,59.795,10.077,15.756,22.682,33.406,18.273,49.173Z" transform="translate(-141.788 -255.496)" fill="#dac9b0"/>
          </g>
          <g id="Grupo_123" data-name="Grupo 123" transform="translate(13.43 178.918)">
            <path id="Caminho_1107" data-name="Caminho 1107" d="M374.578,437.967H156.71l22.728-24.587H357.371Z" transform="translate(-156.71 -413.38)" fill="#8a947c"/>
            <line id="Linha_8" data-name="Linha 8" x2="113.944" transform="translate(93.903 10.882)" fill="none" stroke="#302b27" stroke-linecap="round" stroke-linejoin="round" stroke-width="1.85"/>
          </g>
        </g>
        <g id="Grupo_125" data-name="Grupo 125" transform="translate(122.049 152.495)">
          <path id="Caminho_1108" data-name="Caminho 1108" d="M299.982,307.51c-22.705,18.443-69.045-13.7-77.535-26.944-8.524-13.24,1.406-79.915,1.406-79.915l26.593,9.7,43.392,15.836v38.3s28.838,24.575,6.144,43.018Z" transform="translate(-218.992 -200.65)" fill="#bc5335"/>
          <path id="Caminho_1109" data-name="Caminho 1109" d="M290.5,225.047v22.274a26.855,26.855,0,0,1-8.626.125c-13.115-1.666-26.038-9.374-34.63-19.338-4.965-5.758-3.922-13.025-.125-18.908l43.392,15.836Z" transform="translate(-215.667 -199.508)" fill="#302b27"/>
        </g>
        <path id="Caminho_1110" data-name="Caminho 1110" d="M315.194,88.838q4.557,2.533,9.114,5.078c6.461,3.593,13.535,7.969,15.28,15.156,1.87,7.719-3.242,15.79-1.632,23.555.986,4.738,4.307,8.615,6.235,13.047a23.7,23.7,0,0,1-3.922,24.621c-2.471,2.789-5.747,5.2-6.631,8.819-.589,2.4,0,4.908.023,7.379.045,6.665-4.126,12.65-8.955,17.264a50.2,50.2,0,0,1-28.441,13.829c-10.655,1.247-21.878-1.6-30.186-8.377-5.985-4.886-10.27-11.517-14.056-18.262-4.546-8.094-8.547-16.641-10.145-25.788-2.562-14.657,1.247-29.756,7.175-43.415,4.818-11.109,11.222-21.821,20.529-29.574s21.866-12.22,33.734-9.783l11.868,6.45Z" transform="translate(-93.995 -64.038)" fill="#302b27"/>
        <g id="Grupo_130" data-name="Grupo 130" transform="translate(109.839 42.948)">
          <path id="Caminho_1111" data-name="Caminho 1111" d="M208.22,171.15a60.16,60.16,0,0,0,1.666,13.954,62.457,62.457,0,0,0,22.161,34.721c.023.023,1.088,5.8,1.111,5.815,2.006,10.281,4.784,13.206,8.32,16.085,9.34,7.572,64.669,9.488,79.8-3.616,9.465-8.184,12.991-44.14,12.378-64.352.034-.873.079-1.723.079-2.6a76.414,76.414,0,0,0-.589-9.046c-.034-.612-.057-.941-.057-.941l-.057.023c-3.616-26.015-21.175-47.144-44.277-54.444a58.3,58.3,0,0,0-17.785-2.743q-2.108,0-4.183.17c-32.714,2.278-58.559,31.4-58.559,66.993Z" transform="translate(-208.22 -104.01)" fill="#bc5335"/>
          <g id="Grupo_127" data-name="Grupo 127" transform="translate(65.463 71.822)">
            <path id="Caminho_1112" data-name="Caminho 1112" d="M288.167,167.37l2.256,4.942c1.44,3.14,2.879,6.7,1.372,9.817-1.179,2.437-3.865,3.945-6.4,5.316" transform="translate(-263.376 -167.37)" fill="none" stroke="#302b27" stroke-linecap="round" stroke-linejoin="round" stroke-width="1.85"/>
            <g id="Grupo_126" data-name="Grupo 126" transform="translate(0 23.915)">
              <path id="Caminho_1113" data-name="Caminho 1113" d="M302.652,193.141c-5.611-.306-10.123-4.047-15.711-4.6-7.1-.691-13.569,3.922-20.721,3.752a26.108,26.108,0,0,0,25.675,8.366C296.667,199.488,300.827,196.779,302.652,193.141Z" transform="translate(-265.937 -188.468)" fill="#a67e5e"/>
              <path id="Caminho_1114" data-name="Caminho 1114" d="M265.97,191.91s18.069,4.965,36.432,1.077" transform="translate(-265.97 -188.008)" fill="none" stroke="#302b27" stroke-linecap="round" stroke-linejoin="round" stroke-width="1.09"/>
            </g>
          </g>
          <g id="Grupo_128" data-name="Grupo 128" transform="translate(42.398 53.135)">
            <path id="Caminho_1115" data-name="Caminho 1115" d="M245.642,158.939a8.287,8.287,0,0,1,2.392-3.979,10.971,10.971,0,0,1,4.013-2.392,10.319,10.319,0,0,1,4.659-.5,7.79,7.79,0,0,1,4.285,1.859,1.181,1.181,0,0,1,.068,1.666,1.23,1.23,0,0,1-.567.34l-.068.023-3.548.918c-1.077.283-2.1.567-3.117.873s-2.029.669-3.072,1.077c-1.066.385-2.108.873-3.378,1.406l-.079.034a1.155,1.155,0,0,1-1.576-1.326Z" transform="translate(-245.623 -150.737)" fill="#302b27"/>
            <path id="Caminho_1116" data-name="Caminho 1116" d="M295.787,153.033a6.76,6.76,0,0,1,3.469-1.916,9.165,9.165,0,0,1,4-.023,8.693,8.693,0,0,1,3.627,1.7,6.435,6.435,0,0,1,2.3,3.253,1.16,1.16,0,0,1-.8,1.44,1.219,1.219,0,0,1-.669,0l-.1-.034-2.868-.9c-.884-.249-1.712-.487-2.562-.68a39.761,39.761,0,0,0-5.577-.884h-.1a1.166,1.166,0,0,1-1.02-1.281,1.1,1.1,0,0,1,.295-.646Z" transform="translate(-238.965 -150.885)" fill="#302b27"/>
          </g>
          <g id="Grupo_129" data-name="Grupo 129" transform="translate(51.055 68.75)">
            <path id="Caminho_1117" data-name="Caminho 1117" d="M296.67,170.112a5.452,5.452,0,1,0,5.452-5.452A5.447,5.447,0,0,0,296.67,170.112Z" transform="translate(-247.463 -164.66)" fill="#302b27"/>
            <path id="Caminho_1118" data-name="Caminho 1118" d="M253.26,170.112a5.452,5.452,0,1,0,5.452-5.452,5.447,5.447,0,0,0-5.452,5.452Z" transform="translate(-253.26 -164.66)" fill="#302b27"/>
          </g>
        </g>
        <path id="Caminho_1119" data-name="Caminho 1119" d="M331.546,91.285c-.238.125-.5.283-.76.431-7.447,4.217-16.6,12.333-23.929,16.3a58.01,58.01,0,0,1-2.3,6.053c-2.8,6.246-6.949,11.948-13.557,14.351-7.209,2.63-16.1.759-22.388,4.965-8.014,5.373-7.425,17.649-13.353,24.371a12.243,12.243,0,0,1-3.888,3.038c-2.811,1.394-6.144,1.666-9.057,2.925-6.835,3.015-9.465,12.106-5.169,17.887,3.106,4.171,8.8,6.28,11.664,10.587,3.185,4.818,2.04,11.131-.578,16.244-2.154,4.239-5.18,8.094-7.481,12.265a23.814,23.814,0,0,0-1.19,2.335,1.368,1.368,0,0,0-.125.261c-2.335,5.226-2.811,11.744,1.077,16.1,2.244,2.482,5.52,3.831,8.57,5.464h.023c.737.385,1.44.782,2.131,1.224a19.715,19.715,0,0,1,3.106,2.4c5.758,5.43,8.116,13.886,5.554,21.152-1.428,4.058-4.183,7.708-7.1,11.256-5.226,6.393-10.893,12.48-10.111,20.155.521,5.033,3.763,9.057,7.153,12.628.669.7,1.338,1.394,2,2.074,1,1.02,2.04,1.984,3.038,2.925l.023.023c4.795,4.5,9.182,8.626,8.411,16.21-.737,7.051-4.829,13.7-8.74,19.35-2.8,4.058-4.795,7.81-3.514,12.945,2.018,8.184,11.517,12.129,15.666,19.486a17.1,17.1,0,0,1-1.5,18.556c-2.188,2.721-5.146,4.682-7.572,7.209-2.426,2.505-4.387,5.928-3.684,9.352.725,3.559,4.115,5.985,7.515,7.3,3.389,1.292,7.1,1.87,10.293,3.616,7.855,4.3,10.315,16.051,4.829,23.136a24.4,24.4,0,0,1-4,3.945c-1.553,1.281-3.185,2.482-4.67,3.854a14.44,14.44,0,0,0-4.478,7.039,7.619,7.619,0,0,0-.113,3.163,9.754,9.754,0,0,0,.5,1.7c.93,2.2,2.686,4.092,4.171,6.053a14.907,14.907,0,0,1,1.666,2.777H141.654c-2.108-19.781-2.312-40.014-1.7-59.852.7-22.762,1.406-45.557,3-68.285H142.2c-5.282-6.144-5.532-16.21-1.519-23.09,1.44-2.505,3.48-4.738,4.466-7.425,1.757-4.784-.079-9.476-2.653-14.181v-.023c-2.505-4.557-5.7-9.08-7.039-13.7a13.052,13.052,0,0,1-.113-7.572,14.024,14.024,0,0,1,1.236-2.8,37.482,37.482,0,0,1,2.63-3.763l.034-.034c.555-.759,1.134-1.5,1.7-2.256a16.423,16.423,0,0,0,2.743-5.441,13.346,13.346,0,0,0-.057-6.133c-1.054-4.829-3.718-9.681-3.219-14.611.941-9.17,12.186-15.11,13.467-24.247.612-4.5-1.315-8.91-2.9-13.183-2.947-7.969-4.795-16.8-1.7-24.7,3.831-9.794,14.226-15.9,20.506-24.553,7.243-9.941,8.536-22.467,11.052-34.222,2.516-11.778,7.334-24.337,18.5-30.39,4.976-2.687,10.757-3.82,15.96-6.087,9.964-4.41,17.128-12.718,25.448-19.486,6.835-5.577,14.85-10.236,23.793-11.755,8.966-1.519,18.942.578,25.131,6.779a23.077,23.077,0,0,0,4.239,3.967c4.682,2.834,10.791.374,16.368-.079,9.442-.725,18.93,5.577,21.265,14.079Z" transform="translate(-108.182 -66.122)" fill="#302b27"/>
        <g id="Grupo_131" data-name="Grupo 131" transform="translate(0 199.299)">
          <path id="Caminho_1120" data-name="Caminho 1120" d="M131.905,460.863c1.78-26.684,7.277-111.009,6.1-115.373-1.428-5.2-29.314-41.137-26.48-46.34a.114.114,0,0,1,.023-.057c2.6-4.795,12.276-31.3,14.283-36.784,0-.023.023-.023.023-.034.2-.635.329-.964.329-.964s-1.893-6.133,1.893-8.037c2.052-1.02,10.961-4.24,18.738-6.983,6.654-2.335,12.458-4.353,12.458-4.353s.964,6.609-4.239,9.442c-3.208,1.746-7.81,4.557-10.9,6.484-1.95,1.19-3.276,2.04-3.276,2.04l1.576.227,2.154.283c.147.023.295.034.442.057l24.757,3.389.873.113.839.113c.374.057.578.091.578.091s-2.131,8.071-9.612,7.3a10.722,10.722,0,0,1-1.258-.2l13.829,6.314c.68.295,1.19.521,1.462.646.2.091.295.125.295.125a.272.272,0,0,1-.023.091c-.034.125-.113.385-.227.737-.759,2.154-3.446,7.685-11.256,7.685-.261,0-.521,0-.793-.023,0,0-3.3,10.406,3.31,18.443,4.908,5.962,9.556,16.334,12.208,26.888v.023a78.206,78.206,0,0,1,1.984,10.9c.93,8.876,15.892,58.933,26.355,93.155,1.78,5.792,3.412,11.154,4.829,15.756,1.032,3.367,1.961,6.348,2.721,8.83H131.928Z" transform="translate(-111.322 -241.94)" fill="#bc5335"/>
          <path id="Caminho_1121" data-name="Caminho 1121" d="M111.49,297.125s12.764-38.3,16.55-39.72,43.97,4.727,43.97,4.727-.714,9.216-10.871,7.1" transform="translate(-111.299 -239.903)" fill="none" stroke="#302b27" stroke-linecap="round" stroke-linejoin="round" stroke-width="1.85"/>
          <path id="Caminho_1122" data-name="Caminho 1122" d="M125.46,275.056s7.561-13.716,12.3-13.716,37.112,14.419,37.112,14.419-1.417,9.216-12.3,8.513a92.575,92.575,0,0,1-17.491-2.6L141.3,292.32" transform="translate(-109.434 -239.349)" fill="none" stroke="#302b27" stroke-linecap="round" stroke-linejoin="round" stroke-width="1.85"/>
          <path id="Caminho_1123" data-name="Caminho 1123" d="M129.7,279.639s6.937-12.764,12.764-11.823,29.631,10.871,29.631,10.871" transform="translate(-108.867 -238.491)" fill="none" stroke="#302b27" stroke-linecap="round" stroke-linejoin="round" stroke-width="1.85"/>
        </g>
      </g>
    </g>
  </g>
</svg>
