<?xml version="1.0" encoding="UTF-8"?>
<svg id="Camada_1" data-name="Camada 1" xmlns="http://www.w3.org/2000/svg" xmlns:xlink="http://www.w3.org/1999/xlink" viewBox="0 0 402.49 347.12">
  <defs>
    <style>
      .cls-1 {
        fill: url(#linear-gradient-13);
      }

      .cls-2 {
        fill: url(#linear-gradient-2);
      }

      .cls-3 {
        fill: url(#linear-gradient-10);
      }

      .cls-4 {
        fill: url(#linear-gradient-12);
      }

      .cls-5 {
        fill: url(#linear-gradient-4);
      }

      .cls-6 {
        fill: url(#linear-gradient-3);
      }

      .cls-7 {
        fill: url(#linear-gradient-5);
      }

      .cls-8 {
        fill: url(#linear-gradient-8);
      }

      .cls-9 {
        fill: #4b2201;
      }

      .cls-10 {
        fill: url(#linear-gradient-7);
      }

      .cls-11 {
        fill: url(#linear-gradient-9);
      }

      .cls-12 {
        fill: url(#linear-gradient-11);
      }

      .cls-13 {
        fill: url(#linear-gradient-6);
      }

      .cls-14 {
        fill: #ba8557;
      }

      .cls-15 {
        fill: url(#linear-gradient);
      }
    </style>
    <linearGradient id="linear-gradient" x1="99.61" y1="61.83" x2="209.65" y2="199.14" gradientUnits="userSpaceOnUse">
      <stop offset="0" stop-color="#deb389"/>
      <stop offset=".07" stop-color="#d6a97e"/>
      <stop offset=".3" stop-color="#c18e61"/>
      <stop offset=".43" stop-color="#ba8557"/>
      <stop offset=".58" stop-color="#ae7b4d"/>
      <stop offset=".93" stop-color="#96673a"/>
    </linearGradient>
    <linearGradient id="linear-gradient-2" x1="-18.85" y1="104.53" x2="165.12" y2="292.94" gradientUnits="userSpaceOnUse">
      <stop offset=".28" stop-color="#deae79"/>
      <stop offset=".5" stop-color="#d8a570"/>
      <stop offset=".74" stop-color="#ce9662"/>
    </linearGradient>
    <linearGradient id="linear-gradient-3" x1="119.23" y1="130.04" x2="370.04" y2="325.37" gradientUnits="userSpaceOnUse">
      <stop offset=".1" stop-color="#ce9865"/>
      <stop offset=".4" stop-color="#c38c58"/>
      <stop offset=".88" stop-color="#ac733c"/>
    </linearGradient>
    <linearGradient id="linear-gradient-4" x1="85.48" y1="-10.84" x2="152.8" y2="146.25" gradientUnits="userSpaceOnUse">
      <stop offset=".29" stop-color="#deb389"/>
      <stop offset=".44" stop-color="#d9ad82"/>
      <stop offset=".64" stop-color="#cc9d70"/>
      <stop offset=".87" stop-color="#ba8555"/>
    </linearGradient>
    <linearGradient id="linear-gradient-5" x1="342.89" y1="15.72" x2="246.58" y2="144.31" gradientUnits="userSpaceOnUse">
      <stop offset=".19" stop-color="#deb389"/>
      <stop offset=".38" stop-color="#d8ac81"/>
      <stop offset=".66" stop-color="#c9986c"/>
      <stop offset=".9" stop-color="#ba8557"/>
    </linearGradient>
    <linearGradient id="linear-gradient-6" x1="368.96" y1="69.94" x2="368.96" y2="67.19" gradientUnits="userSpaceOnUse">
      <stop offset="0" stop-color="#deb389"/>
      <stop offset=".28" stop-color="#cd9e72"/>
      <stop offset=".56" stop-color="#ba8557"/>
    </linearGradient>
    <linearGradient id="linear-gradient-7" x1="426.24" y1="24.6" x2="158.95" y2="210.79" gradientUnits="userSpaceOnUse">
      <stop offset=".17" stop-color="#ce9865"/>
      <stop offset=".6" stop-color="#b98151"/>
      <stop offset="1" stop-color="#aa7244"/>
    </linearGradient>
    <linearGradient id="linear-gradient-8" x1="389.87" y1="19.73" x2="122.58" y2="205.92" gradientUnits="userSpaceOnUse">
      <stop offset=".19" stop-color="#deb389"/>
      <stop offset=".38" stop-color="#dcb187"/>
      <stop offset=".45" stop-color="#d7ab80"/>
      <stop offset=".5" stop-color="#cfa074"/>
      <stop offset=".54" stop-color="#c39063"/>
      <stop offset=".56" stop-color="#ba8557"/>
    </linearGradient>
    <linearGradient id="linear-gradient-9" x1="396.97" y1="29.92" x2="129.67" y2="216.11" gradientUnits="userSpaceOnUse">
      <stop offset=".09" stop-color="#deb389"/>
      <stop offset=".19" stop-color="#deb389"/>
      <stop offset=".34" stop-color="#d6a97e"/>
      <stop offset=".59" stop-color="#c28f62"/>
      <stop offset=".68" stop-color="#ba8557"/>
    </linearGradient>
    <linearGradient id="linear-gradient-10" x1="-57.71" y1="47.98" x2="179.19" y2="164.42" gradientUnits="userSpaceOnUse">
      <stop offset=".18" stop-color="#deb389"/>
      <stop offset=".31" stop-color="#d0a175"/>
      <stop offset=".48" stop-color="#c39163"/>
      <stop offset=".67" stop-color="#bc8858"/>
      <stop offset=".87" stop-color="#ba8555"/>
    </linearGradient>
    <linearGradient id="linear-gradient-11" x1="-64.52" y1="50.77" x2="177.87" y2="169.91" xlink:href="#linear-gradient-7"/>
    <linearGradient id="linear-gradient-12" x1="-60.66" y1="-37.02" x2="234.91" y2="269.75" gradientUnits="userSpaceOnUse">
      <stop offset=".18" stop-color="#deae80"/>
      <stop offset=".48" stop-color="#ce9865"/>
      <stop offset="1" stop-color="#ac7344"/>
    </linearGradient>
    <linearGradient id="linear-gradient-13" x1="76.27" y1="211.33" x2="104.29" y2="211.33" xlink:href="#linear-gradient-2"/>
  </defs>
  <g>
    <g>
      <polygon class="cls-15" points="39.18 121.96 168.07 193.34 213.84 176.86 213.84 68.84 39.18 121.96"/>
      <polygon class="cls-14" points="213.84 68.84 213.84 176.86 347.49 128.76 213.84 68.84"/>
    </g>
    <g>
      <polygon class="cls-2" points="168.07 193.34 39.18 121.96 39.18 266.57 168.07 347.12 168.07 193.34"/>
      <polygon class="cls-6" points="168.07 193.34 168.07 347.12 347.49 274.25 347.49 128.76 168.07 193.34"/>
    </g>
    <polygon class="cls-5" points="39.18 121.96 18.67 49.13 193.34 0 213.84 68.84 39.18 121.96"/>
    <polygon class="cls-7" points="254.49 16.84 389.97 54.93 347.49 128.76 213.84 68.84 254.49 16.84"/>
    <polygon class="cls-13" points="390.42 56.18 389.97 54.93 347.49 128.76 353.72 119 390.42 56.18"/>
    <polygon class="cls-10" points="401.61 59.29 228.85 112.78 168.07 193.34 347.49 128.76 402.49 60.32 402.49 60.32 401.61 59.29"/>
    <g>
      <polygon class="cls-8" points="168.07 193.34 229.32 114.57 228.85 112.78 168.07 193.34"/>
      <polygon class="cls-11" points="401.61 59.29 228.85 112.78 229.32 114.57 402.49 60.32 401.61 59.29"/>
    </g>
    <g>
      <polygon class="cls-3" points="156.35 131.09 1.1 63.71 0 64.35 122.63 158.72 155.25 131.73 156.35 131.09"/>
      <polygon class="cls-12" points="168.62 193.14 156.35 131.09 155.25 131.73 122.63 158.72 163.99 191.08 168.07 193.34 168.62 193.14"/>
    </g>
    <polygon class="cls-4" points="0 64.35 39.18 121.96 168.15 193.74 155.25 131.73 0 64.35"/>
  </g>
  <path class="cls-9" d="M51.55,160.25l5.56,2.3c20.44,10.06,52.89,23.13,66.22,40.34l1.11,1.5c9.2,17.07,17.03,42.46-5.87,52.35-17.23.04-27.44-6.04-42.28-13.95.09,10.36.49,22.18.24,32.42-5.7-3.46-10.7-6.45-16.63-9.54-3.01-1.63-5.54-3.21-8.43-5.03l-.26-73.28c-.01-4.01-.48-24.3.31-27.12Z"/>
  <path class="cls-1" d="M76.27,194.06c10.21,4.86,22.59,9.73,27,21.11,1.87,4.82,1.51,11.14-4.11,13.15-2.76.99-8.34-.83-10.57-2.69-3.75-1.51-8.63-4.26-12.31-6.2v-25.37Z"/>
  <path class="cls-9" d="M139.99,229.69l.11-24.27c6.22,3.03,19.52,11.31,25.05,10.57-.22,8.42-.63,16.23.11,24.64-4.06,1.25-11.6-3.43-15.68-5.4-1.95-1.41-7.27-4.22-9.59-5.53Z"/>
  <path class="cls-9" d="M272.54,183.72c7.03-14.4,31.33-24.76,46.22-26.95,7.85-1.15,13.54-.11,21.14.96,1.91,4.61-1.18,7.42-3.86,11.53-2.25,3.89-5.27,8.78-7.27,12.69-4.05-.12-7.62-1.98-11.2-2.17-6.72-.35-30.68,6.46-22.93,16.78,3.64,2.25,7.17,1.51,11.5,1.21,2.98.04,4.16.21,7.06-.66,21.7.25,33.63,3.51,30.43,28.89-8.98,26.96-26.86,37.71-53.43,44.48l-2.12.43-4.33.87c-11.04-.19-15.65-1.22-25.25-6.7,5.01-8.06,9.91-16.18,14.7-24.37,7.46,4.05,12.71,6.17,21.43,5.01,7.66-1.02,23.23-6.49,21.82-16.34-7.34-7.86-32.11,1.97-43.67-5.66-15.07-9.96-9.1-25.43-1.81-38.6l1.57-1.42Z"/>
  <path class="cls-9" d="M196.56,203.81c2.77-.59,12.96-4.83,16.13-5.95,14.84-5.26,30.2-12.05,45.15-16.85,1.41,2.01,1.01,4.44,1.16,7.29-.93,6.34,2.15,15.68-4.07,18.23-10.34,3.71-20.61,7.58-30.83,11.62-.46,25.82-.55,51.65-.28,77.48l-2.89,1.3c-8.32,3.31-16.7,6.48-25.13,9.52.12-7.73.13-15.47.02-23.2l.34-11.37c.38-14.09.09-29.72.28-44.06-4.08,1.62-8.14,3.28-12.18,4.98-3.68,1.3-11.29,3.75-14.31,5.65-1.97.77-2.85,1.15-4.69,2.17-.75-8.41-.34-16.22-.11-24.64,2.06-1.46,7.93-3.44,10.54-4.41,6.83-2.35,14.06-5.2,20.87-7.76Z"/>
</svg>