<svg xmlns="http://www.w3.org/2000/svg" xmlns:xlink="http://www.w3.org/1999/xlink" width="157.924" height="206.361" viewBox="0 0 157.924 206.361">
  <defs>
    <clipPath id="clip-path">
      <rect id="Retângulo_46" data-name="Retângulo 46" width="157.924" height="206.362" fill="#6f7f5f"/>
    </clipPath>
  </defs>
  <g id="NUSMAD_Mod03_marco-20" transform="translate(19460 10669.181)">
    <g id="Grupo_712" data-name="Grupo 712" transform="translate(-19460 -10669.181)">
      <g id="Grupo_47" data-name="Grupo 47" transform="translate(0 0)" clip-path="url(#clip-path)">
        <path id="Caminho_237" data-name="Caminho 237" d="M138.1,27.051C125.5,13.144,110.036,4.282,91.426,1.1A102.418,102.418,0,0,0,79.149,0,81.855,81.855,0,0,0,21.228,25.65,78.2,78.2,0,0,0,.039,81.67c.432,15.866,6.3,28.83,13.21,42.763q3.438,6.138,7.191,12.094a463.258,463.258,0,0,0,47.617,58.5l6.709,7.09A52.082,52.082,0,0,0,79,206.362l.059-.16c1.114-.936,3.056-3.1,4.117-4.229l7.957-8.544q7.862-8.445,15.393-17.187c10.965-12.514,21.646-25.466,30.664-39.472,1.28-1.927,2.515-3.813,3.693-5.806,1.227-2.071,2.37-4.368,3.721-6.331,7.766-14.562,12.387-24.825,13.222-41.641A78.259,78.259,0,0,0,138.1,27.051M79.715,131.127A54.384,54.384,0,1,1,134.1,76.743a54.384,54.384,0,0,1-54.384,54.384" transform="translate(0 0)" fill="#6f7f5f"/>
      </g>
    </g>
    <path id="Caminho_2270" data-name="Caminho 2270" d="M3.38,0H32.565V-8H10.53c1.95-1.43,3.9-2.73,5.655-3.965,10.79-7.345,15.47-12.545,15.47-18.785,0-6.37-4.03-11.245-13.455-11.245-8.06,0-14.885,3.77-15.08,10.92a4.673,4.673,0,0,0,4.225,2.665c2.015,0,4.16-1.1,4.81-5.525L13-38.545a13.586,13.586,0,0,1,1.625-.065c4.03,0,6.63,2.86,6.63,7.93,0,5.85-3.12,10.14-9.295,16.38-2.6,2.73-5.59,5.59-8.58,8.515ZM52.845.975c8.06,0,15.34-6.435,15.34-21.45,0-15.08-7.28-21.515-15.34-21.515-8.125,0-15.275,6.435-15.275,21.515C37.57-5.46,44.72.975,52.845.975Zm0-3.38c-3.12,0-5.46-3.51-5.46-18.07,0-14.625,2.34-18.135,5.46-18.135,3.055,0,5.525,3.575,5.525,18.135C58.37-5.98,55.9-2.4,52.845-2.4Z" transform="translate(-19417.119 -10571.181)" fill="#2b2622"/>
  </g>
</svg>
