<?xml version="1.0" encoding="UTF-8"?>
<svg id="_Ñëîé_1" data-name="Ñëîé 1" xmlns="http://www.w3.org/2000/svg" viewBox="0 0 80 80">
  <defs>
    <style>
      .cls-1 {
        fill: #fff;
      }

      .cls-2 {
        fill: #bd5334;
      }
    </style>
  </defs>
  <circle class="cls-2" cx="40" cy="40" r="34.57"/>
  <g>
    <path class="cls-1" d="M38.53,11.99c-1.45,1.07-4.04,3.82-2.81,9.13l4.34-.76-1.53-8.36Z"/>
    <rect class="cls-1" x="40.45" y="24.42" width=".95" height="3.1" transform="translate(-4.06 7.92) rotate(-10.53)"/>
    <rect class="cls-1" x="42.88" y="23.97" width=".95" height="3.1" transform="translate(-3.93 8.35) rotate(-10.53)"/>
    <rect class="cls-1" x="45.31" y="23.52" width=".95" height="3.1" transform="translate(-3.81 8.79) rotate(-10.53)"/>
    <path class="cls-1" d="M40.7,56.73c-.16-.17-.23-.41-.19-.64l3.37-20.29c1.01-4.14,3.74-6.45,6.15-8.49,2.42-2.05,4.51-3.83,4.93-7.02.6-4.61-3.3-7.58-5.44-8.85l1.11,5.86c.04.19,0,.38-.1.54l-1.35,2.19c-.11.19-.3.31-.52.35l-13.22,2.32,3.8,10.02,3.32-.48c.41-.06.8.23.86.64.06.42-.23.8-.65.86l-3.46.5-6.13,18.83,3.93-.81c.41-.08.81.18.9.59.08.41-.18.81-.59.9l-5.13,1.05c-2.28.91-3.99,2.86-4.57,5.24-1,4.07,1.5,8.19,5.56,9.19s8.19-1.5,9.19-5.56c.61-2.47-.06-5.07-1.79-6.95ZM42.71,28.77s0,0,0,0c0,0,0,0,0,0l-2.43.45c-.11.02-.22.02-.32,0-.28-.07-.51-.3-.57-.6l-.85-4.55c-.04-.2,0-.4.12-.57.11-.17.29-.28.49-.32l2.43-.45h0s0,0,0,0l2.43-.45h0s0,0,0,0l2.43-.45c.41-.08.81.2.89.61l.85,4.55c.04.2,0,.4-.12.57-.11.17-.29.28-.49.32l-2.43.45s0,0,0,0h0s-2.43.45-2.43.45ZM39.73,65.77c-.06.26-.27.47-.53.55l-5.16,1.5c-.13.04-.27.04-.39,0s-.25-.1-.35-.19l-3.88-3.72c-.2-.19-.28-.47-.21-.73l1.28-5.22c.06-.26.27-.47.53-.55l5.16-1.5c.26-.08.54,0,.74.18l3.88,3.72c.2.19.28.47.21.73l-1.28,5.22Z"/>
    <polygon class="cls-1" points="31.86 58.76 30.79 63.13 34.04 66.24 38.36 64.98 39.43 60.61 36.18 57.5 31.86 58.76"/>
  </g>
</svg>