<?xml version="1.0" encoding="UTF-8"?>
<svg id="Camada_1" xmlns="http://www.w3.org/2000/svg" xmlns:xlink="http://www.w3.org/1999/xlink" version="1.1" viewBox="0 0 1024 1024">
  <!-- Generator: Adobe Illustrator 30.4.0, SVG Export Plug-In . SVG Version: 2.1.4 Build 226)  -->
  <defs>
    <style>
      .st0 {
        fill: none;
      }

      .st1 {
        fill: #4b5d3c;
      }

      .st2 {
        fill: #da8835;
      }

      .st3 {
        fill: #ebae54;
      }

      .st4 {
        fill: #52643f;
      }

      .st5 {
        fill: #db8935;
      }

      .st6 {
        fill: #4c5e3c;
      }

      .st7 {
        fill: #5e6f45;
      }

      .st8 {
        isolation: isolate;
        opacity: .6;
      }

      .st9 {
        fill: #eeb65b;
      }

      .st10 {
        fill: #4d5f3d;
      }

      .st11 {
        fill: #f2be62;
      }

      .st12 {
        fill: #e8a74e;
      }

      .st13 {
        fill: #445638;
      }

      .st14 {
        fill: #de903b;
      }

      .st15 {
        fill: #f5c668;
      }

      .st16 {
        fill: #5f7045;
      }

      .st17 {
        fill: #d98633;
      }

      .st18 {
        fill: #596a42;
      }

      .st19 {
        fill: #e19842;
      }

      .st20 {
        fill: #eaad53;
      }

      .st21 {
        fill: #f4c467;
      }

      .st22 {
        fill: #5a6b43;
      }

      .st23 {
        fill: #dc8b37;
      }

      .st24 {
        fill: #f6c769;
      }

      .st25 {
        fill: #f0bb5f;
      }

      .st26 {
        fill: #e9ab51;
      }

      .st27 {
        fill: #f1bd61;
      }

      .st28 {
        fill: #d98532;
      }

      .st29 {
        fill: #ebb056;
      }

      .st30 {
        fill: #e39c46;
      }

      .st31 {
        fill: #546640;
      }

      .st32 {
        fill: #e09540;
      }

      .st33 {
        fill: #51633f;
      }

      .st34 {
        fill: #576942;
      }

      .st35 {
        fill: #ebaf55;
      }

      .st36 {
        fill: #465839;
      }

      .st37 {
        fill: #edb358;
      }

      .st38 {
        fill: #435538;
      }

      .st39 {
        fill: #f3c164;
      }

      .st40 {
        fill: #df923d;
      }

      .st41 {
        fill: #e7a54d;
      }

      .st42 {
        fill: #db8a36;
      }

      .st43 {
        fill: #4a5c3b;
      }

      .st44 {
        fill: #efb85c;
      }

      .st45 {
        fill: #dc8c38;
      }

      .st46 {
        fill: #e7a44c;
      }

      .st47 {
        fill: #5c6d44;
      }

      .st48 {
        fill: #f1d3a3;
      }

      .st49 {
        clip-path: url(#clippath-1);
      }

      .st50 {
        fill: #50623e;
      }

      .st51 {
        fill: #dd8f3a;
      }

      .st52 {
        fill: #efb75c;
      }

      .st53 {
        fill: #f2c063;
      }

      .st54 {
        fill: #e09640;
      }

      .st55 {
        fill: #f1bc60;
      }

      .st56 {
        fill: #47593a;
      }

      .st57 {
        fill: #e49f48;
      }

      .st58 {
        fill: #455739;
      }

      .st59 {
        fill: #c96528;
      }

      .st60 {
        fill: #e39b45;
      }

      .st61 {
        fill: #607146;
      }

      .st62 {
        fill: #f6c86a;
      }

      .st63 {
        fill: #566841;
      }

      .st64 {
        fill: #e29a44;
      }

      .st65 {
        fill: #eeb55a;
      }

      .st66 {
        fill: #ecb257;
      }

      .st67 {
        fill: #eaac52;
      }

      .st68 {
        fill: #485a3a;
      }

      .st69 {
        fill: #5b6c43;
      }

      .st70 {
        fill: #556741;
      }

      .st71 {
        fill: #f5c567;
      }

      .st72 {
        fill: #f3c265;
      }

      .st73 {
        fill: #495b3b;
      }

      .st74 {
        fill: #e6a34b;
      }

      .st75 {
        fill: #e8a84f;
      }

      .st76 {
        fill: #fff3d8;
      }

      .st77 {
        fill: #e6a24b;
      }

      .st78 {
        fill: #edb459;
      }

      .st79 {
        fill: #da8734;
      }

      .st80 {
        fill: #f0ba5e;
      }

      .st81 {
        opacity: .9;
      }

      .st82 {
        fill: #e9aa51;
      }

      .st83 {
        fill: #5d6e44;
      }

      .st84 {
        fill: #e5a049;
      }

      .st85 {
        fill: #425437;
      }

      .st86 {
        fill: #e49d46;
      }

      .st87 {
        fill: #e19741;
      }

      .st88 {
        fill: #e49e47;
      }

      .st89 {
        fill: #efb95d;
      }

      .st90 {
        fill: #f4c366;
      }

      .st91 {
        fill: #de913c;
      }

      .st92 {
        fill: #4e603d;
      }

      .st93 {
        fill: #df933e;
      }

      .st94 {
        fill: #dd8d39;
      }

      .st95 {
        fill: #e8a950;
      }

      .st96 {
        fill: #e29943;
      }

      .st97 {
        fill: #f2bf62;
      }

      .st98 {
        fill: #4f613e;
      }

      .st99 {
        fill: #536540;
      }

      .st100 {
        clip-path: url(#clippath);
      }

      .st101 {
        fill: #e5a14a;
      }

      .st102 {
        fill: #e0943f;
      }

      .st103 {
        fill: #617246;
      }

      .st104 {
        fill: #ecb156;
      }

      .st105 {
        fill: #dd8e3a;
      }
    </style>
    <clipPath id="clippath">
      <path class="st0" d="M512,166c-163,0-262,120-262,259s58,185,122,243c42,38,56,78,56,112h168c0-34,14-74,56-112,64-58,122-132,122-243s-99-259-262-259Z"/>
    </clipPath>
    <clipPath id="clippath-1">
      <path class="st0" d="M414,780h196v50c0,42-34,76-76,76h-44c-42,0-76-34-76-76v-50Z"/>
    </clipPath>
  </defs>
  <g class="st81">
    <g>
      <path d="M512,86V26"/>
      <path class="st85" d="M512,103c-9.4,0-17-7.6-17-17V26c0-9.4,7.6-17,17-17s17,7.6,17,17v60c0,9.4-7.6,17-17,17Z"/>
    </g>
    <g>
      <path d="M512,998v-60"/>
      <path class="st85" d="M512,1015c-9.4,0-17-7.6-17-17v-60c0-9.4,7.6-17,17-17s17,7.6,17,17v60c0,9.4-7.6,17-17,17Z"/>
    </g>
    <g>
      <path d="M150,512h-60"/>
      <path class="st85" d="M150,529h-60c-9.4,0-17-7.6-17-17s7.6-17,17-17h60c9.4,0,17,7.6,17,17s-7.6,17-17,17Z"/>
    </g>
    <g>
      <path d="M934,512h-60"/>
      <path class="st85" d="M934,529h-60c-9.4,0-17-7.6-17-17s7.6-17,17-17h60c9.4,0,17,7.6,17,17s-7.6,17-17,17Z"/>
    </g>
    <g>
      <path d="M244,244l-42-42"/>
      <path class="st85" d="M244,261c-4.4,0-8.7-1.7-12-5l-42-42c-6.6-6.6-6.6-17.4,0-24,6.6-6.6,17.4-6.6,24,0l42,42c6.6,6.6,6.6,17.4,0,24-3.3,3.3-7.7,5-12,5Z"/>
    </g>
    <g>
      <path d="M822,822l-42-42"/>
      <path class="st85" d="M822,839c-4.4,0-8.7-1.7-12-5l-42-42c-6.6-6.6-6.6-17.4,0-24,6.6-6.6,17.4-6.6,24,0l42,42c6.6,6.6,6.6,17.4,0,24-3.3,3.3-7.7,5-12,5Z"/>
    </g>
    <g>
      <path d="M780,244l42-42"/>
      <path class="st85" d="M780,261c-4.4,0-8.7-1.7-12-5-6.6-6.6-6.6-17.4,0-24l42-42c6.6-6.6,17.4-6.6,24,0,6.6,6.6,6.6,17.4,0,24l-42,42c-3.3,3.3-7.7,5-12,5Z"/>
    </g>
    <g>
      <path d="M202,822l42-42"/>
      <path class="st85" d="M202,839c-4.4,0-8.7-1.7-12-5-6.6-6.6-6.6-17.4,0-24l42-42c6.6-6.6,17.4-6.6,24,0,6.6,6.6,6.6,17.4,0,24l-42,42c-3.3,3.3-7.7,5-12,5Z"/>
    </g>
  </g>
  <g class="st81">
    <g>
      <path d="M329,116l-23-56"/>
      <path class="st59" d="M329,127c-4.3,0-8.4-2.6-10.2-6.8l-23-56c-2.3-5.6.4-12,6-14.4,5.6-2.3,12,.4,14.4,6l23,56c2.3,5.6-.4,12-6,14.4-1.4.6-2.8.8-4.2.8Z"/>
    </g>
    <g>
      <path d="M695,116l23-56"/>
      <path class="st59" d="M695,127c-1.4,0-2.8-.3-4.2-.8-5.6-2.3-8.3-8.7-6-14.4l23-56c2.3-5.6,8.7-8.3,14.4-6,5.6,2.3,8.3,8.7,6,14.4l-23,56c-1.7,4.3-5.9,6.8-10.2,6.8Z"/>
    </g>
    <g>
      <path d="M908,695l56,23"/>
      <path class="st59" d="M964,729c-1.4,0-2.8-.3-4.2-.8l-56-23c-5.6-2.3-8.3-8.7-6-14.4,2.3-5.6,8.7-8.3,14.4-6l56,23c5.6,2.3,8.3,8.7,6,14.4-1.7,4.3-5.9,6.8-10.2,6.8Z"/>
    </g>
    <g>
      <path d="M116,695l-56,23"/>
      <path class="st59" d="M60,729c-4.3,0-8.4-2.6-10.2-6.8-2.3-5.6.4-12,6-14.4l56-23c5.6-2.3,12,.4,14.4,6,2.3,5.6-.4,12-6,14.4l-56,23c-1.4.6-2.8.8-4.2.8Z"/>
    </g>
  </g>
  <g>
    <g>
      <g class="st100">
        <polygon class="st62" points="293.3 166 250 204.9 250 166 293.3 166"/>
        <polygon class="st62" points="308 166 250 218.1 250 204.9 293.3 166 308 166"/>
        <polygon class="st24" points="322.7 166 250 231.3 250 218.1 308 166 322.7 166"/>
        <polygon class="st15" points="337.5 166 250 244.5 250 231.3 322.7 166 337.5 166"/>
        <polygon class="st71" points="352.2 166 250 257.7 250 244.5 337.5 166 352.2 166"/>
        <polygon class="st21" points="366.9 166 250 271 250 257.7 352.2 166 366.9 166"/>
        <polygon class="st90" points="381.6 166 250 284.2 250 271 366.9 166 381.6 166"/>
        <polygon class="st72" points="396.3 166 250 297.4 250 284.2 381.6 166 396.3 166"/>
        <polygon class="st39" points="411 166 250 310.6 250 297.4 396.3 166 411 166"/>
        <polygon class="st53" points="425.7 166 250 323.8 250 310.6 411 166 425.7 166"/>
        <polygon class="st97" points="440.4 166 250 337 250 323.8 425.7 166 440.4 166"/>
        <polygon class="st11" points="455.1 166 250 350.2 250 337 440.4 166 455.1 166"/>
        <polygon class="st27" points="469.9 166 250 363.4 250 350.2 455.1 166 469.9 166"/>
        <polygon class="st55" points="484.6 166 250 376.6 250 363.4 469.9 166 484.6 166"/>
        <polygon class="st25" points="499.3 166 250 389.8 250 376.6 484.6 166 499.3 166"/>
        <polygon class="st80" points="514 166 250 403.1 250 389.8 499.3 166 514 166"/>
        <polygon class="st89" points="528.7 166 250 416.3 250 403.1 514 166 528.7 166"/>
        <polygon class="st44" points="543.4 166 250 429.5 250 416.3 528.7 166 543.4 166"/>
        <polygon class="st52" points="558.1 166 250 442.7 250 429.5 543.4 166 558.1 166"/>
        <polygon class="st9" points="572.8 166 250 455.9 250 442.7 558.1 166 572.8 166"/>
        <polygon class="st65" points="587.6 166 250 469.1 250 455.9 572.8 166 587.6 166"/>
        <polygon class="st78" points="602.3 166 250 482.3 250 469.1 587.6 166 602.3 166"/>
        <polygon class="st37" points="617 166 250 495.5 250 482.3 602.3 166 617 166"/>
        <polygon class="st66" points="631.7 166 250 508.7 250 495.5 617 166 631.7 166"/>
        <polygon class="st104" points="646.4 166 250 521.9 250 508.7 631.7 166 646.4 166"/>
        <polygon class="st29" points="661.1 166 250 535.2 250 521.9 646.4 166 661.1 166"/>
        <polygon class="st35" points="675.8 166 250 548.4 250 535.2 661.1 166 675.8 166"/>
        <polygon class="st3" points="677.7 166 683.4 172.4 250 561.6 250 548.4 675.8 166 677.7 166"/>
        <polygon class="st20" points="683.4 172.4 690 179.7 250 574.8 250 561.6 683.4 172.4"/>
        <polygon class="st67" points="690 179.7 696.6 187 251.6 586.6 250 584.8 250 574.8 690 179.7"/>
        <rect class="st26" x="178.4" y="385.5" width="598" height="9.8" transform="translate(-138.7 418.9) rotate(-41.9)"/>
        <rect class="st82" x="184.9" y="392.8" width="598" height="9.8" transform="translate(-141.9 425.1) rotate(-41.9)"/>
        <rect class="st95" x="191.5" y="400.2" width="598" height="9.8" transform="translate(-145.1 431.4) rotate(-41.9)"/>
        <rect class="st75" x="198.1" y="407.5" width="598" height="9.8" transform="translate(-148.3 437.7) rotate(-41.9)"/>
        <rect class="st12" x="204.6" y="414.8" width="598" height="9.8" transform="translate(-151.5 443.9) rotate(-41.9)"/>
        <rect class="st41" x="211.2" y="422.1" width="598" height="9.8" transform="translate(-154.7 450.2) rotate(-41.9)"/>
        <rect class="st46" x="217.8" y="429.4" width="598" height="9.8" transform="translate(-157.9 456.4) rotate(-41.9)"/>
        <rect class="st74" x="224.3" y="436.7" width="598" height="9.8" transform="translate(-161.1 462.7) rotate(-41.9)"/>
        <rect class="st77" x="230.9" y="444" width="598" height="9.8" transform="translate(-164.3 469) rotate(-41.9)"/>
        <rect class="st101" x="237.5" y="451.3" width="598" height="9.8" transform="translate(-167.5 475.2) rotate(-41.9)"/>
        <rect class="st84" x="244" y="458.7" width="598" height="9.8" transform="translate(-170.7 481.5) rotate(-41.9)"/>
        <polygon class="st57" points="768.8 267.5 774 273.3 774 276 330.4 674.3 323.8 667 768.8 267.5"/>
        <polygon class="st88" points="774 289.2 337 681.6 330.4 674.3 774 276 774 289.2"/>
        <polygon class="st86" points="774 302.4 343.5 688.9 337 681.6 774 289.2 774 302.4"/>
        <polygon class="st30" points="774 315.6 350.1 696.3 343.5 688.9 774 302.4 774 315.6"/>
        <polygon class="st60" points="774 328.8 356.7 703.6 350.1 696.3 774 315.6 774 328.8"/>
        <polygon class="st64" points="774 342 363.3 710.9 356.7 703.6 774 328.8 774 342"/>
        <polygon class="st96" points="774 355.3 369.8 718.2 363.3 710.9 774 342 774 355.3"/>
        <polygon class="st19" points="774 368.5 376.4 725.5 369.8 718.2 774 355.3 774 368.5"/>
        <polygon class="st87" points="774 381.7 383 732.8 376.4 725.5 774 368.5 774 381.7"/>
        <polygon class="st54" points="774 394.9 389.5 740.1 383 732.8 774 381.7 774 394.9"/>
        <polygon class="st32" points="774 408.1 396.1 747.5 389.5 740.1 774 394.9 774 408.1"/>
        <polygon class="st102" points="774 421.3 402.7 754.8 396.1 747.5 774 408.1 774 421.3"/>
        <polygon class="st93" points="774 434.5 409.2 762.1 402.7 754.8 774 421.3 774 434.5"/>
        <polygon class="st40" points="774 447.7 415.8 769.4 409.2 762.1 774 434.5 774 447.7"/>
        <polygon class="st91" points="774 460.9 422.4 776.7 415.8 769.4 774 447.7 774 460.9"/>
        <polygon class="st14" points="774 474.2 433.4 780 425.3 780 422.4 776.7 774 460.9 774 474.2"/>
        <polygon class="st51" points="774 487.4 448.1 780 433.4 780 774 474.2 774 487.4"/>
        <polygon class="st105" points="774 500.6 462.8 780 448.1 780 774 487.4 774 500.6"/>
        <polygon class="st94" points="774 513.8 477.5 780 462.8 780 774 500.6 774 513.8"/>
        <polygon class="st45" points="774 527 492.2 780 477.5 780 774 513.8 774 527"/>
        <polygon class="st23" points="774 540.2 507 780 492.2 780 774 527 774 540.2"/>
        <polygon class="st42" points="774 553.4 521.7 780 507 780 774 540.2 774 553.4"/>
        <polygon class="st5" points="774 566.6 536.4 780 521.7 780 774 553.4 774 566.6"/>
        <polygon class="st2" points="774 579.8 551.1 780 536.4 780 774 566.6 774 579.8"/>
        <polygon class="st79" points="774 593 565.8 780 551.1 780 774 579.8 774 593"/>
        <polygon class="st17" points="774 606.3 580.5 780 565.8 780 774 593 774 606.3"/>
        <polygon class="st28" points="774 619.5 595.2 780 580.5 780 774 606.3 774 619.5"/>
        <polygon class="st28" points="595.2 780 774 619.5 774 780 595.2 780"/>
      </g>
      <path class="st85" d="M596,796h-168c-8.8,0-16-7.2-16-16,0-35.5-17.5-70.1-50.7-100.1-39.7-36-67.7-69.5-88.2-105.6-26.3-46.3-39.1-95.1-39.1-149.3s26.4-142.4,74.3-192.7c24.7-25.9,54.3-46.2,87.9-60.2,35.3-14.7,74.2-22.2,115.9-22.2s80.6,7.5,115.9,22.2c33.6,14,63.1,34.2,87.9,60.2,47.9,50.3,74.3,118.7,74.3,192.7s-12.8,103-39.1,149.3c-20.5,36.1-48.5,69.6-88.2,105.6-33.2,30-50.7,64.7-50.7,100.1s-7.2,16-16,16ZM443.1,764h137.8c3.5-30.1,17.8-69.3,60.3-107.9,54.3-49.2,116.7-120,116.7-231.1s-23.2-126.3-65.5-170.6c-45.1-47.4-107.6-72.4-180.5-72.4s-135.4,25-180.5,72.4c-42.2,44.3-65.5,104.9-65.5,170.6,0,111.1,62.4,181.9,116.7,231.1,42.6,38.5,56.9,77.8,60.3,107.9Z"/>
    </g>
    <g class="st8">
      <path class="st76" d="M336,502c-6.1,0-11.7-4-13.5-10.2-9.5-33.6-11.2-70.4-5.1-106.2,6.2-36.3,20.5-70.8,41.2-99.8,4.5-6.3,13.2-7.8,19.5-3.3,6.3,4.5,7.7,13.2,3.3,19.5-36.8,51.5-49,121.3-31.9,182.1,2.1,7.4-2.2,15.2-9.7,17.3-1.3.4-2.5.5-3.8.5Z"/>
    </g>
    <g>
      <path class="st85" d="M442,490c-22.4,0-45-17.9-45-52s22.6-49,45-49,45,16.8,45,49-22.6,52-45,52ZM442,415c-8.8,0-19,6-19,23s9.5,26,19,26,19-8,19-26-10.2-23-19-23Z"/>
      <path class="st85" d="M582,490c-22.4,0-45-17.9-45-52s22.6-49,45-49,45,16.8,45,49-22.6,52-45,52ZM582,415c-8.8,0-19,6-19,23s9.5,26,19,26,19-8,19-26-10.2-23-19-23Z"/>
      <path class="st85" d="M550,451h-76c-7.2,0-13-5.8-13-13s5.8-13,13-13h76c7.2,0,13,5.8,13,13s-5.8,13-13,13Z"/>
      <path class="st85" d="M512,623c-7.2,0-13-5.8-13-13v-172c0-7.2,5.8-13,13-13s13,5.8,13,13v172c0,7.2-5.8,13-13,13Z"/>
      <path class="st85" d="M512,636c-33.1,0-62.8-11.3-81.5-31.1-4.9-5.2-4.7-13.4.5-18.4,5.2-4.9,13.4-4.7,18.4.5,13.6,14.4,36.9,22.9,62.5,22.9s49-8.6,62.5-22.9c4.9-5.2,13.2-5.5,18.4-.5,5.2,4.9,5.5,13.2.5,18.4-18.7,19.7-48.3,31.1-81.5,31.1Z"/>
    </g>
    <g>
      <g class="st49">
        <polygon class="st103" points="422.4 780 414 789.8 414 780 422.4 780"/>
        <polygon class="st61" points="432 780 414 801 414 789.8 422.4 780 432 780"/>
        <polygon class="st16" points="441.7 780 414 812.3 414 801 432 780 441.7 780"/>
        <polygon class="st7" points="451.3 780 414 823.6 414 812.3 441.7 780 451.3 780"/>
        <polygon class="st83" points="461 780 414 834.8 414 823.6 451.3 780 461 780"/>
        <polygon class="st47" points="470.7 780 414 846.1 414 834.8 461 780 470.7 780"/>
        <polygon class="st69" points="480.3 780 414 857.4 414 846.1 470.7 780 480.3 780"/>
        <polygon class="st22" points="490 780 414 868.6 414 857.4 480.3 780 490 780"/>
        <polygon class="st18" points="499.6 780 414.2 879.7 414 879.5 414 868.6 490 780 499.6 780"/>
        <polygon class="st34" points="509.3 780 419.8 884.4 414.2 879.7 499.6 780 509.3 780"/>
        <polygon class="st63" points="519 780 425.3 889.2 419.8 884.4 509.3 780 519 780"/>
        <polygon class="st70" points="528.6 780 430.9 894 425.3 889.2 519 780 528.6 780"/>
        <polygon class="st31" points="538.3 780 436.5 898.8 430.9 894 528.6 780 538.3 780"/>
        <polygon class="st99" points="547.9 780 442.1 903.5 436.5 898.8 538.3 780 547.9 780"/>
        <polygon class="st4" points="557.6 780 449.6 906 444.9 906 442.1 903.5 547.9 780 557.6 780"/>
        <polygon class="st33" points="567.3 780 459.3 906 449.6 906 557.6 780 567.3 780"/>
        <polygon class="st50" points="576.9 780 468.9 906 459.3 906 567.3 780 576.9 780"/>
        <polygon class="st98" points="586.6 780 478.6 906 468.9 906 576.9 780 586.6 780"/>
        <polygon class="st92" points="596.2 780 488.2 906 478.6 906 586.6 780 596.2 780"/>
        <polygon class="st10" points="605.9 780 497.9 906 488.2 906 596.2 780 605.9 780"/>
        <polygon class="st6" points="610 786.5 507.6 906 497.9 906 605.9 780 610 780 610 786.5"/>
        <polygon class="st1" points="610 797.7 517.2 906 507.6 906 610 786.5 610 797.7"/>
        <polygon class="st43" points="610 809 526.9 906 517.2 906 610 797.7 610 809"/>
        <polygon class="st73" points="610 820.3 536.5 906 526.9 906 610 809 610 820.3"/>
        <polygon class="st68" points="610 831.6 546.2 906 536.5 906 610 820.3 610 831.6"/>
        <polygon class="st56" points="610 842.8 555.8 906 546.2 906 610 831.6 610 842.8"/>
        <polygon class="st36" points="610 854.1 565.5 906 555.8 906 610 842.8 610 854.1"/>
        <polygon class="st58" points="610 865.4 575.2 906 565.5 906 610 854.1 610 865.4"/>
        <polygon class="st13" points="610 876.6 584.8 906 575.2 906 610 865.4 610 876.6"/>
        <polygon class="st38" points="610 887.9 594.5 906 584.8 906 610 876.6 610 887.9"/>
        <polygon class="st85" points="610 899.2 604.1 906 594.5 906 610 887.9 610 899.2"/>
        <polygon class="st85" points="604.1 906 610 899.2 610 906 604.1 906"/>
      </g>
      <path class="st85" d="M534,921h-44c-50.2,0-91-40.8-91-91v-50c0-8.3,6.7-15,15-15h196c8.3,0,15,6.7,15,15v50c0,50.2-40.8,91-91,91ZM429,795v35c0,33.6,27.4,61,61,61h44c33.6,0,61-27.4,61-61v-35h-166Z"/>
    </g>
    <g>
      <g>
        <path d="M432,816h160"/>
        <path class="st48" d="M592,827h-160c-6.1,0-11-4.9-11-11s4.9-11,11-11h160c6.1,0,11,4.9,11,11s-4.9,11-11,11Z"/>
      </g>
      <g>
        <path d="M438,858h148"/>
        <path class="st48" d="M586,869h-148c-6.1,0-11-4.9-11-11s4.9-11,11-11h148c6.1,0,11,4.9,11,11s-4.9,11-11,11Z"/>
      </g>
    </g>
  </g>
</svg>