<svg xmlns="http://www.w3.org/2000/svg" xmlns:xlink="http://www.w3.org/1999/xlink" width="157.924" height="206.361" viewBox="0 0 157.924 206.361">
  <defs>
    <clipPath id="clip-path">
      <rect id="Retângulo_46" data-name="Retângulo 46" width="157.924" height="206.362" fill="#6f7f5f"/>
    </clipPath>
  </defs>
  <g id="NUSMAD_Mod03_marco-8" transform="translate(19858 11209.181)">
    <g id="Grupo_704" data-name="Grupo 704" transform="translate(-19858 -11209.181)">
      <g id="Grupo_47" data-name="Grupo 47" transform="translate(0 0)" clip-path="url(#clip-path)">
        <path id="Caminho_237" data-name="Caminho 237" d="M138.1,27.051C125.5,13.144,110.036,4.282,91.426,1.1A102.418,102.418,0,0,0,79.149,0,81.855,81.855,0,0,0,21.228,25.65,78.2,78.2,0,0,0,.039,81.67c.432,15.866,6.3,28.83,13.21,42.763q3.438,6.138,7.191,12.094a463.258,463.258,0,0,0,47.617,58.5l6.709,7.09A52.082,52.082,0,0,0,79,206.362l.059-.16c1.114-.936,3.056-3.1,4.117-4.229l7.957-8.544q7.862-8.445,15.393-17.187c10.965-12.514,21.646-25.466,30.664-39.472,1.28-1.927,2.515-3.813,3.693-5.806,1.227-2.071,2.37-4.368,3.721-6.331,7.766-14.562,12.387-24.825,13.222-41.641A78.259,78.259,0,0,0,138.1,27.051M79.715,131.127A54.384,54.384,0,1,1,134.1,76.743a54.384,54.384,0,0,1-54.384,54.384" transform="translate(0 0)" fill="#6f7f5f"/>
      </g>
    </g>
    <path id="Caminho_2261" data-name="Caminho 2261" d="M12.285-33.345a5.207,5.207,0,0,1,5.46-5.265c3.315,0,5.265,2.6,5.265,5.785,0,2.86-.715,5.005-3.055,8C13.585-28.015,12.285-30.55,12.285-33.345ZM16.77.975C26.65.975,32.5-3.64,32.5-10.79c0-5.46-3.12-9.425-9.3-12.545,5.915-2.73,7.93-5.915,7.93-9.23,0-5.135-4.095-9.425-13.065-9.425-8.32,0-14.43,4.55-14.43,11.765,0,4.745,2.665,8.58,7.735,11.375C5.85-16.51,2.86-13.195,2.86-8.84,2.86-2.86,7.475.975,16.77.975ZM11.375-9.36c0-3.12.975-5.33,3.38-7.865,6.5,2.99,8.45,5.525,8.45,8.97C23.2-5.2,21.32-2.4,17.55-2.4,13.975-2.4,11.375-5.33,11.375-9.36Z" transform="translate(-19797 -11111.181)" fill="#2b2622"/>
  </g>
</svg>
