<?xml version="1.0" encoding="UTF-8"?>
<svg id="Camada_1" data-name="Camada 1" xmlns="http://www.w3.org/2000/svg" xmlns:xlink="http://www.w3.org/1999/xlink" viewBox="0 0 500 500">
  <defs>
    <style>
      .cls-1 {
        fill: #925539;
      }

      .cls-2 {
        fill: #c19a66;
      }

      .cls-3 {
        fill: #fbc9a6;
      }

      .cls-4 {
        fill: #bc5335;
      }

      .cls-5 {
        fill: #2d5895;
      }

      .cls-6 {
        fill: url(#Gradiente_sem_nome_76);
      }

      .cls-7 {
        fill: #78896a;
      }

      .cls-8 {
        fill: #754841;
      }

      .cls-9 {
        fill: #997772;
      }

      .cls-10 {
        stroke: #fff;
        stroke-miterlimit: 10;
        stroke-width: 20px;
      }

      .cls-10, .cls-11 {
        fill: #dccab0;
      }

      .cls-12 {
        fill: #81899d;
      }

      .cls-13 {
        fill: #fed194;
      }

      .cls-14 {
        fill: #fff;
      }

      .cls-15 {
        fill: #fcfcf3;
      }

      .cls-16 {
        fill: #431e2f;
      }

      .cls-17 {
        fill: #60704d;
      }

      .cls-18 {
        fill: #811c14;
      }

      .cls-19 {
        fill: #d7bbaf;
      }

      .cls-20 {
        fill: #f8ad68;
      }

      .cls-21 {
        fill: url(#Gradiente_sem_nome_78);
      }

      .cls-22 {
        fill: #dfb7af;
      }

      .cls-23 {
        fill: url(#Gradiente_sem_nome_77);
      }

      .cls-24 {
        fill: #342121;
      }

      .cls-25 {
        fill: #d0ccc6;
      }

      .cls-26 {
        fill: #f4eee6;
      }

      .cls-27 {
        fill: #4b8287;
      }

      .cls-28 {
        fill: #3e9193;
      }

      .cls-29 {
        fill: #e8a452;
      }

      .cls-30 {
        fill: #e47a4e;
      }

      .cls-31 {
        fill: #f9a577;
      }

      .cls-32 {
        fill: #3a6d70;
      }

      .cls-33 {
        fill: #4aa1a8;
      }

      .cls-34 {
        fill: #9d2121;
      }

      .cls-35 {
        fill: #cec3bb;
      }
    </style>
    <linearGradient id="Gradiente_sem_nome_78" data-name="Gradiente sem nome 78" x1="4230.63" y1="860.92" x2="4241.37" y2="1651.92" gradientTransform="translate(-730.5 532.5) scale(.25 -.25)" gradientUnits="userSpaceOnUse">
      <stop offset="0" stop-color="#593e3e"/>
      <stop offset="1" stop-color="#80615d"/>
    </linearGradient>
    <linearGradient id="Gradiente_sem_nome_77" data-name="Gradiente sem nome 77" x1="4325.61" y1="1404.21" x2="4325.93" y2="1658.19" gradientTransform="translate(-730.5 532.5) scale(.25 -.25)" gradientUnits="userSpaceOnUse">
      <stop offset="0" stop-color="#937576"/>
      <stop offset="1" stop-color="#c9aaa6"/>
    </linearGradient>
    <linearGradient id="Gradiente_sem_nome_76" data-name="Gradiente sem nome 76" x1="3827.12" y1="1378.32" x2="4086.79" y2="1583.47" gradientTransform="translate(-730.5 532.5) scale(.25 -.25)" gradientUnits="userSpaceOnUse">
      <stop offset="0" stop-color="#927372"/>
      <stop offset="1" stop-color="#c6a5a0"/>
    </linearGradient>
  </defs>
  <path class="cls-15" d="M326.38,110.9c27.41-.72,54,9.42,73.98,28.21,20.59,19.31,32.68,46,33.62,74.21,1.2,28.82-9.24,56.91-28.98,77.95-13.65,14.68-32.59,25.95-52.15,30.5-7.56,1.76-14.39,2.4-22.09,2.68l-.27.02c-3.12.2-8.89-.22-12.02-.49-22.51-1.95-42.79-11.23-59.69-26.11-18.2-16.2-30.33-38.12-34.38-62.14-1.75-10.26-1.97-21.06-.69-31.38,2.57-21.56,11.62-41.82,25.95-58.13,15.39-17.34,36.06-29.12,58.82-33.53,6.06-1.13,11.8-1.4,17.91-1.78Z"/>
  <path class="cls-24" d="M324.86,116.36c25.96-1.09,51.3,8.1,70.53,25.57,20.65,18.52,31.64,43.67,33.12,71.14,1.26,26.6-7.96,52.63-25.7,72.5-15.18,16.85-34.28,27.9-56.72,31.96-4.65.84-9.34,1.18-14.05,1.43-6.26.13-11.86-.1-18.09-1-19.45-2.83-37.6-11.45-52.08-24.74-3.26-3.02-6.96-6.72-9.81-10.14-14.03-16.89-22.63-38.21-23.51-60.21-.16-4.02-.17-9.34.13-13.28,1.67-22.88,11.06-44.52,26.61-61.38,17.97-19.54,43.04-31.02,69.57-31.85Z"/>
  <path class="cls-21" d="M280.34,130.29c1.96-1.34,7.18-3.72,9.41-4.69,18.11-7.71,38.11-9.86,57.44-6.16,25.25,4.92,47.57,19.51,62.21,40.66,3.97,5.79,7.35,11.97,10.06,18.45.79,1.89,1.5,3.59,2.06,5.57,1.48,2.98,2.52,7.92,3.26,11.22,3.74,16.66,3.17,33.9-1.63,50.29-.35,1.19-.58,2.37-.98,3.56-5.31,15.93-14.49,30.29-26.73,41.78-22.02,20.95-51.97,29.97-81.83,25.39-9.35-1.43-18.48-4.18-27.03-8.22-17.88-8.62-32.81-22.33-42.9-39.43-10.76-18.1-15.32-38.94-13.5-59.89.18-2.34.46-4.67.83-6.99.07-.43.34-2.3.48-2.63,1.66-8.45,3.18-13.81,6.55-21.68,7.1-16.64,18.58-30.88,33.24-41.45,1.5-1.08,7.44-5.16,9.06-5.79Z"/>
  <path class="cls-23" d="M280.34,130.29c1.96-1.34,7.18-3.72,9.41-4.69,18.11-7.71,38.11-9.86,57.44-6.16,25.25,4.92,47.57,19.51,62.21,40.66,3.97,5.79,7.35,11.97,10.06,18.45.79,1.89,1.5,3.59,2.06,5.57h-.02c-.4-.03-.72-2.68-1.42-3.18l-.12.07v.2s.22.06.22.06c-1.26.8.05,1.21-.05,2.19-.31-.34-1.79-4.57-2.11-5.37-.73-1.97-1.86-3.7-2.76-5.62-3.46-7.35-8.1-14.17-13.5-20.28-8.99-10.15-20-18.31-32.32-23.97-1.08-.66-2.48-1.37-3.71-1.67l-.95-.41c-2.7-1.38-5.89-2.07-8.75-3.09-2.74-.97-5.32-1.43-8.2-1.78-.06-.03-.68-.18-.79-.21-5.31-1.54-14.39-2.03-19.88-1.64-9.3-.04-18.55,1.31-27.45,4.01-2.52.79-5.13,1.93-7.7,2.73-1.74.53-3.68,1.79-5.41,2.44-.59.26-1.61.86-2.15,1.05.21-.36.3-.42.64-.66l-.02-.11c-1.01-.07-1.9,1.2-2.9,1.08l-.25-.32c-.65.25-.9.6-1.59.62Z"/>
  <path class="cls-6" d="M280.34,130.29c.69-.02.94-.37,1.59-.62l.25.32c1.01.11,1.9-1.15,2.9-1.08l.02.11c-.34.24-.43.3-.64.66-.7.47-1.49.71-2.21,1.12-4.95,2.78-9.69,5.94-14.19,9.4-10.58,8.13-18.83,18.8-25.43,30.31-1.31,2.28-2.42,5.11-3.66,7.48-1.02,1.95-1.56,4.56-2.4,6.61-1.42,3.63-2.5,7.26-3.48,11.02-.19.74-.7,3.25-.83,4.01-.2-.81.94-3.25.28-3.77-.48.43-.6,2.81-.96,3.54l-.08-.17c1.66-8.45,3.18-13.81,6.55-21.68,7.1-16.64,18.58-30.88,33.24-41.45,1.5-1.08,7.44-5.16,9.06-5.79Z"/>
  <path class="cls-9" d="M347.83,121.28c2.88.36,5.46.81,8.2,1.78,2.86,1.01,6.06,1.7,8.75,3.09l.95.41c1.23.3,2.63,1.01,3.71,1.67-1.05-.09-1.24-.7-1.97-.68l-.08.12c.15.25.33.27.62.38l.12.05c-.78-.09-1.87-.96-3.01-1.12-.67-.12-.81-.27-1.37-.63-.6-.25-1.16-.43-1.78-.61-3.77-1.05-7.35-2.54-11.23-3.17-.56-.09-1.11-.24-1.57-.58.37.13.64.27,1,.2-.38-.64-1.21-.36-2.36-.91Z"/>
  <path class="cls-9" d="M327.16,119.44c5.49-.39,14.58.1,19.88,1.64-1.91.35-4.27-.2-6.2-.37-2.46-.22-4.76-.56-7.24-.68h0c.24,0,.38-.02.61-.06-2.16-.76-4.71-.38-7.04-.52Z"/>
  <path class="cls-24" d="M325.2,127.45h.41c23.72-.91,46.79,7.82,63.97,24.2,14.77,14,24.27,32.64,26.94,52.81.81,6.04,1.16,12.18.78,18.28-1.16,21.16-9.78,41.23-24.34,56.63-13.53,14.44-31.55,23.88-51.12,26.77-3.16.46-6.47.88-9.66.95-2.61.06-6.5.08-9.03-.07-18.08-1.07-35.39-7.7-49.56-18.97-1.06-.83-2.03-1.83-3.05-2.71-17.22-14.82-28.06-36.02-30.39-58.69-5.33-51.83,32.62-96.88,85.06-99.2Z"/>
  <path class="cls-19" d="M325.37,132.79s.02,0,.02,0c21.75-.91,42.99,6.72,59.18,21.27,16.95,15.21,27.09,36.59,28.15,59.34,1.24,22.78-6.66,45.11-21.96,62.03-15.11,16.74-36.32,26.69-58.86,27.62-2.96.07-6.34.08-9.27-.13-18.93-1.31-36.86-9-50.86-21.83-16.45-14.99-26.33-35.87-27.5-58.1-.25-5.74-.18-11.73.64-17.43,5.88-40.73,39.37-71.04,80.44-72.77Z"/>
  <path class="cls-15" d="M326.12,140.47c0-1.4-.16-2.59.96-3.66,1.15-1.11,2.83-.93,3.8.32.8,1.03.74,2.02.75,3.24,1.85.31,4.3.28,6.29.5,7.65.84,15.08,3.01,22.15,6.04,1.41.6,3.36,1.75,4.77,2.16.93-1.64,2.26-3.13,4.29-1.96.65.37,1.12,1,1.3,1.73.32,1.26-.2,1.94-.78,3.03,2.22,1.8,4.86,3.43,7.06,5.18,3.6,2.85,7.6,6.67,10.61,10.15,1.6,1.87,3.1,3.82,4.5,5.83.6.86,1.72,2.62,2.34,3.34.94-.47,1.76-.92,2.85-.58,1.5.46,2.34,2.12,1.77,3.59-.19.52-.79,1.06-1.26,1.35-4.16,2.62-8.45,5.06-12.66,7.6-1.82,1.1-3.08,1.51-4.73-.26-.03,2.19,2.18,2.94,3.74,1.98,2.6-1.59,5.33-3.1,7.96-4.62,2.03-1.18,3.54-2.32,5.74-3.27,5.02,10.14,8.28,20.48,8.78,31.88-.7,0-2.13-.02-2.77.06.65.01,1.62.05,2.24,0,2.76-.17,4.21,2.93,2.19,4.81-.93.87-3.92.65-5.18.66h-5.52c-2.02,0-4.05,0-6.07,0-1.73-.01-2.22.12-3.52-1.08-.2.53-.19.91.03,1.43.25.61.74,1.06,1.35,1.29,1.5.55,14.19.02,17.4.21.08,1.92-.09,3.87-.28,5.78-.8,7.91-2.79,15.66-5.92,22.97-.28.68-1.42,3.49-1.74,3.94,1.34,2.19-.18,3.8-2.3,4.39-.41-.12-.85-.27-1.22-.48-4.24-2.41-8.38-4.99-12.64-7.38-.79-.45-1.51-.85-2.19-1.46-.16.7-.09.92.08,1.62,1.37,1.17,3.95,2.59,5.56,3.55,3.2,1.87,6.38,3.77,9.55,5.69-.97,1.43-1.89,2.88-2.88,4.31-5.29,7.66-12.06,14.22-19.69,19.54-.59.41-1.48,1.1-2.18,1.23-.29,2.6-2.19,3.6-4.52,2.45-.08.2-.24.56-.41.69-1.79,1.38-4.83,2.58-6.89,3.47-7.48,3.19-15.42,5.13-23.51,5.83-1.02.09-2.71.27-3.68.26l-.17-.17c-1.72,1.77-2.96,1.43-4.54.12,0,0-.01,0-.02,0-.06.05-.19.11-.26.15-2.21-.15-4.53-.26-6.72-.48-9.4-.96-19.34-3.87-27.66-8.36,1.44-3.03,3.88-7.53,5.61-10.47.1-.66.11-.84-.06-1.47-1.31,2.29-2.53,4.7-3.83,6.93-.71,1.21-1.84,4.09-3.24,4.32-2.12.34-3.34-1.17-3.49-3.03-.04.31-.06.42-.15.72l-.15.02c-2.9-2.13-4.99-3.39-7.94-5.75-4.79-3.89-9.1-8.34-12.84-13.24-1.61-2.15-2.95-4.29-4.49-6.43,2.3-1.31,15.92-8.72,16.29-10.02.15-.52-.14-.85-.41-1.28-1.11,1.04-2.57,1.78-3.9,2.54-3.66,2.07-7.28,4.22-10.93,6.29-2.28,1.29-4.19.29-4.3-2.33-.01-.22.2-.85.26-1.12-.6-.4-1.73-3.32-2.05-4.09-4.02-9.17-6.18-19.04-6.36-29.05,3.49.02,6.98.02,10.47,0,2.6,0,5.24.03,7.83-.12,1.32-.88,1.68-1.7,1.19-3.22.07-.19.12-.39.17-.59.42-1.85-.75-3.07-2.5-3.39-.66-.14-6-.08-6.97-.08h-6.31c-1.09,0-2.7-.05-3.74.07-.06-1.73.24-4.14.48-5.88.9-6.8,2.66-13.45,5.25-19.8.93-2.28,2.19-4.44,3.07-6.7.65.32,1.34.61,1.99.91,4.47,2.1,8.58,4.87,12.78,7.45,1.79,1.1,4.62-.28,3.57-2.53-.7.86-1.88,2.06-3.16,1.46-2.74-1.29-5.34-3.01-7.97-4.53-2.24-1.3-4.51-2.66-6.7-4.03-2.03-1.3-1.63-3.84.45-4.81.81-.38,1.82.02,2.6.36.02-.03.03-.07.05-.1,1.21-1.58,2.2-3.19,3.43-4.79,3.4-4.53,7.31-8.66,11.64-12.31,1.51-1.32,3.08-2.57,4.7-3.75,1.39-1.01,4.08-2.57,5.02-3.72-.44-.91-.75-1.53-.53-2.57.16-.73.61-1.37,1.24-1.78.57-.37,1.26-.48,1.91-.31,1.13.29,1.65,1.11,2.22,2.01,1.24-.62,2.69-1.13,3.97-1.7,9.38-4.16,19.36-6.67,29.69-6.66Z"/>
  <path d="M326.12,140.47c0-1.4-.16-2.59.96-3.66,1.15-1.11,2.83-.93,3.8.32.8,1.03.74,2.02.75,3.24l.03,10.02c0,1.91.29,5.49-.62,7.08-1.53,1.34-2.75,1.2-4.31.04-.94-1.37-.63-5.1-.63-6.87l.02-10.16Z"/>
  <path d="M326.92,297.74c-.34-.62-.45-1.24-.51-1.94-.15-1.74-.21-16.2.16-17.52.19-.66.69-1.16,1.3-1.46.71-.35,1.6-.41,2.34-.12.7.28,1.19.89,1.44,1.58.15.42.22.88.24,1.32.14,2.66-.04,5.39-.02,8.07.01,2.73.24,6.16-.03,8.81-.04.41-.18.76-.35,1.13-1.72,1.77-2.96,1.43-4.54.12,0,0-.01,0-.02,0Z"/>
  <path d="M364.84,149.07c.93-1.64,2.26-3.13,4.29-1.96.65.37,1.12,1,1.3,1.73.32,1.26-.2,1.94-.78,3.03-1.75,3.08-3.47,6.17-5.16,9.29-.68,1.22-1.91,3.59-2.71,4.66-1.67,1.27-2.76.66-4.23-.46-.87-2.05-.36-2.62.68-4.43.38-.66.78-1.38,1.15-2.05l5.45-9.79Z"/>
  <path d="M287.26,285.33s.01-.03.02-.05c.96-2.67,2.83-5.43,4.14-8.01,1.29-2.36,2.51-4.75,3.86-7.09.68-1.18,1.66-1.96,3.1-1.54,1.95.56,2.5,2.12,1.96,3.98-.81,1.51-1.68,2.99-2.51,4.49-1.31,2.29-2.53,4.7-3.83,6.93-.71,1.21-1.84,4.09-3.24,4.32-2.12.34-3.34-1.17-3.49-3.03Z"/>
  <path d="M275.08,244.97c2.31.53,3.51,2.06,2.49,4.38-1.11,1.04-2.57,1.78-3.9,2.54-3.66,2.07-7.28,4.22-10.93,6.29-2.28,1.29-4.19.29-4.3-2.33-.01-.22.2-.85.26-1.12.25-.42.6-.82,1.01-1.08,4.61-2.87,9.37-5.54,14.09-8.23.34-.19.91-.34,1.3-.45Z"/>
  <path d="M287.61,151.48c-.44-.91-.75-1.53-.53-2.57.16-.73.61-1.37,1.24-1.78.57-.37,1.26-.48,1.91-.31,1.13.29,1.65,1.11,2.22,2.01,1.73,3.2,3.51,6.37,5.34,9.51.7,1.23,2.4,3.92,2.75,5.1-.15.81-.2,1.1-.55,1.86-1.39,1.47-2.53,1.52-4.21.53-1.01-1.5-1.92-3.3-2.83-4.88-1.79-3.13-3.5-6.38-5.35-9.47Z"/>
  <path d="M366.13,287.54c-.91-.97-8.52-14.63-8.9-15.86-.17-.55-.07-1.07.2-1.56.39-.71,1.13-1.39,1.92-1.61.65-.18,1.34-.04,1.91.31.51.31.93.78,1.26,1.27,1.25,1.87,2.23,4.04,3.32,6.01,1.18,2.13,4.32,6.86,4.82,8.99-.29,2.6-2.19,3.6-4.52,2.45Z"/>
  <path d="M380.21,249.15c-.89-1.56-.83-3.12.79-4.16.38-.28,1.6-.56,2.03-.34,1.83.94,4.34,2.28,6.01,3.45,2.06,1.44,8.14,4.28,9.53,5.99,1.34,2.19-.18,3.8-2.3,4.39-.41-.12-.85-.27-1.22-.48-4.24-2.41-8.38-4.99-12.64-7.38-.79-.45-1.51-.85-2.19-1.46Z"/>
  <path d="M403.59,214.08c.65.01,1.62.05,2.24,0,2.76-.17,4.21,2.93,2.19,4.81-.93.87-3.92.65-5.18.66h-5.52c-2.02,0-4.05,0-6.07,0-1.73-.01-2.22.12-3.52-1.08-.84-1.69-.45-3.94,1.7-4.31,1.26-.22,3.3-.08,4.65-.07,3.17.02,6.35.02,9.52,0Z"/>
  <path d="M394.17,176.35c.94-.47,1.76-.92,2.85-.58,1.5.46,2.34,2.12,1.77,3.59-.19.52-.79,1.06-1.26,1.35-4.16,2.62-8.45,5.06-12.66,7.6-1.82,1.1-3.08,1.51-4.73-.26-1.41-2.96.74-3.87,2.92-5.1.68-.39,1.38-.79,2.06-1.19,3.04-1.76,6.05-3.56,9.05-5.4Z"/>
  <path d="M277.55,187.71c-.7.86-1.88,2.06-3.16,1.46-2.74-1.29-5.34-3.01-7.97-4.53-2.24-1.3-4.51-2.66-6.7-4.03-2.03-1.3-1.63-3.84.45-4.81.81-.38,1.82.02,2.6.36,1.31.71,2.63,1.49,3.89,2.28,3.34,2.08,6.8,3.94,10.15,5.99,1.16.71,1.19,2.14.74,3.28Z"/>
  <path class="cls-35" d="M299.99,165.3c.9,1.83-1.02,2.39-2.42,2.68-1.14-.44-1.83-.8-1.79-2.15,1.68.99,2.81.94,4.21-.53Z"/>
  <path class="cls-35" d="M357.56,165.33c1.47,1.13,2.56,1.73,4.23.46.56,1.25-.72,2.09-1.84,2.1-.68.01-1.34-.25-1.83-.74-.63-.64-.56-1-.56-1.83Z"/>
  <path class="cls-35" d="M331.03,157.47c1.11,3.01-5.53,2.56-4.31.04,1.56,1.16,2.77,1.31,4.31-.04Z"/>
  <path class="cls-35" d="M297.83,277.11c.83-1.5,1.7-2.98,2.51-4.49.03.38.06.46.21.8-.06,1.22-1.94,4.11-2.66,5.17.1-.66.11-.84-.06-1.47Z"/>
  <path d="M325.57,210.3c.28-8.99.07-18.87.07-27.92v-7.29c0-1.31-.1-3,.1-4.25.57-3.71,6.02-3.08,6.07.71.02,1.48-.03,2.98-.03,4.44v10.28s0,12.81,0,12.81c0,2.09.09,5.16-.06,7.2-.21.77-.21,1.71-.7,2.47-.72,1.13-2.01,5.34-2.63,6.16.62-.04,1.22.24,1.59.74.47.64.48,1.51.03,2.16-.46.65-1.28.93-2.04.7-.04.65-1.79,4.55-2.21,5.38-.27.19-.79,1.62-.93,2.01l-.36.73c.04-.8.08-.77-.45-1.31.11-.51.74-1.37.6-1.97l-.02-.12c-.19-.29-.79-.84-1.08-1.14-1.25-1.33-1.65-2.28-2.09-4,0-.47-.07-1.08-.11-1.56-.92-.53-2.56-2.09-3.4-2.84l-5.58-4.88-12.06-10.32c-1.42-1.22-3.2-2.59-4.5-3.95-.39-.4-.18-1.3-.09-1.86-1.72-2.63.51-5.76,3.19-5.06,1.09.29,4.24,3.27,5.36,4.22l10.21,8.77c2.48,2.09,4.95,4.19,7.4,6.3,1.05.91,2.87,2.4,3.76,3.39Z"/>
  <path class="cls-35" d="M295.65,192.68c2.29,1.73,4.57,3.81,6.77,5.67,3.81,3.22,7.6,6.46,11.36,9.74,2.54,2.19,5.26,4.61,7.86,6.7-.13.54-.25,1.37-.35,1.75-.92-.53-2.56-2.09-3.4-2.84l-5.58-4.88-12.06-10.32c-1.42-1.22-3.2-2.59-4.5-3.95-.39-.4-.18-1.3-.09-1.86Z"/>
  <path class="cls-20" d="M328.37,214.91c.62-.04,1.22.24,1.59.74.47.64.48,1.51.03,2.16-.46.65-1.28.93-2.04.7-.3-.09-.56-.25-.78-.47-.51-.52-.66-1.28-.4-1.96s.89-1.13,1.61-1.18Z"/>
  <path class="cls-34" d="M327.16,218.04c.22.22.49.38.78.47-.04.65-1.79,4.55-2.21,5.38-.27.19-.79,1.62-.93,2.01l-.36.73c.04-.8.08-.77-.45-1.31.11-.51.74-1.37.6-1.97l-.02-.12c.55-.29,1.95-4.17,2.59-5.19Z"/>
  <path d="M332.51,211.27c.36,0,.54-.03.86-.21,3.64-1.94,7.25-4.09,10.83-6.13l19.66-11.23c2.23-1.29,4.43-2.65,6.69-3.9,3-1.66,5.81,1.06,4.6,4.2.16,1.04.08,1.46-.26,2.46-1.01.94-4.73,2.89-6.14,3.68l-9.9,5.59c-6.87,3.87-13.66,7.95-20.55,11.77-.68.38-2.24,1.27-2.96,1.29l-.23.92c.66,3.41-2.27,6.3-5.44,6.8-1.63.26-2.92-.09-4.5-.43l-.39-.19c.13-.39.66-1.83.93-2.01.42-.83,2.16-4.73,2.21-5.38.76.23,1.58-.05,2.04-.7.46-.65.45-1.52-.03-2.16.51-.96,1.65-3.94,2.24-4.54l.31.16Z"/>
  <path class="cls-19" d="M375.17,194c.16,1.04.08,1.46-.26,2.46-1.01.94-4.73,2.89-6.14,3.68l-9.9,5.59c-6.87,3.87-13.66,7.95-20.55,11.77-.68.38-2.24,1.27-2.96,1.29,0-.63.03-1.27.05-1.9,1.45-.91,2.94-1.67,4.42-2.51l7.78-4.42c5.92-3.33,11.81-6.71,17.69-10.11l4.98-2.83c1.58-.88,3.6-1.84,4.88-3.02Z"/>
  <path class="cls-19" d="M335.12,219.72c.66,3.41-2.27,6.3-5.44,6.8-1.63.26-2.92-.09-4.5-.43l-.39-.19c.13-.39.66-1.83.93-2.01,4.17,1.64,7.46-.47,9.39-4.17Z"/>
  <path class="cls-34" d="M321.4,218.09c.44,1.73.84,2.67,2.09,4,.28.3.89.85,1.08,1.14l.02.12c.14.6-.49,1.47-.6,1.97-.13.29-.36.87-.55,1.1-1.6-.14-8.5,5.06-11.1,5.67-1.93-.54-3.28-1.91-2.94-4.01-.88-2.94.53-3.53,2.9-4.86.57-.32,1.16-.64,1.73-.96,2.47-1.37,4.93-2.76,7.37-4.17Z"/>
  <path class="cls-22" d="M324.59,223.35c.14.6-.49,1.47-.6,1.97-.13.29-.36.87-.55,1.1-1.6-.14-8.5,5.06-11.1,5.67-1.93-.54-3.28-1.91-2.94-4.01.94,1.24,1.46,1.58,2.88,2.12,1.26-.47,2.8-1.42,4.01-2.12l5.35-3.11c.8-.46,2.14-1.31,2.95-1.62Z"/>
  <path class="cls-34" d="M341.78,185c1.41.64,1.86.77,1.15,2.29.11,1.52-.27,2.11-.92,3.49-.61,1.48-1.13,2.64-1.96,4.03-.42,1.04-2.24,5.74-2.8,6.36-1.29,3.04-2.78,6.13-4.05,9.19-.14.33-.57.66-.68.92l-.31-.16c-.6.6-1.74,3.59-2.24,4.54-.37-.5-.97-.78-1.59-.74.62-.82,1.92-5.04,2.63-6.16.48-.76.49-1.7.7-2.47.02.18.03.17.1.35.52-.28,8.79-19.57,9.98-21.63Z"/>
  <path class="cls-22" d="M337.14,200.04c-.07.41-.12.6-.11,1.01.1.11.03.06.22.12-1.29,3.04-2.78,6.13-4.05,9.19-.14.33-.57.66-.68.92l-.31-.16c.17-1.06,4.22-9.81,4.93-11.07Z"/>
  <path class="cls-19" d="M339.3,195.4c.25-.23.48-.4.75-.6-.42,1.04-2.24,5.74-2.8,6.36-.19-.06-.13,0-.22-.12,0-.41.04-.6.11-1.01.24-.87,1.67-3.69,2.17-4.64Z"/>
  <path class="cls-22" d="M341.37,190.46l.16.59.12.02.13-.12c.15-.15.09-.1.22-.18-.61,1.48-1.13,2.64-1.96,4.03-.27.2-.5.37-.75.6.55-1.66,1.39-3.29,2.07-4.93Z"/>
  <path class="cls-19" d="M341.37,190.46c.53-1.19.92-2.04,1.55-3.18.11,1.52-.27,2.11-.92,3.49-.13.09-.06.04-.22.18l-.13.12-.12-.02-.16-.59Z"/>
  <path class="cls-18" d="M323.99,225.32c.53.55.49.51.45,1.31l.36-.73.39.19c-.18.18-.16.06-.17.29-.06.9-.55,2.06-.93,2.91-3.65,8.12-7.47,16.17-10.98,24.35-.21.48-.47,1.09-1.01,1.23-.45-.11-.31.02-.52-.27.51-.61.79-.39.99-.95-.17-.32-.06-.2-.35-.38-.45-.16-.52-.14-.72-.48.06-.87,10.88-23.92,11.95-26.36.19-.23.42-.81.55-1.1Z"/>
  <path class="cls-22" d="M324.8,225.91l.39.19c-.18.18-.16.06-.17.29-.06.9-.55,2.06-.93,2.91-3.65,8.12-7.47,16.17-10.98,24.35-.21.48-.47,1.09-1.01,1.23-.45-.11-.31.02-.52-.27.51-.61.79-.39.99-.95-.17-.32-.06-.2-.35-.38,1.14-2.07,2.33-5.07,3.34-7.24,3.01-6.46,5.79-12.95,8.89-19.38l.36-.73Z"/>
  <path d="M267.43,214.27c1.74.32,2.92,1.54,2.5,3.39-.05.2-.1.4-.17.59-1.42,1.97-3.05,1.5-5.28,1.5h-5.66s-5.51,0-5.51,0c-1.29,0-3.27.23-4.26-.6-.56-.48-.91-1.16-.96-1.9-.27-3.66,4.25-2.96,6.6-2.96h8.09c1.44.01,3.21.06,4.63-.03Z"/>
  <circle class="cls-10" cx="250.08" cy="257.4" r="185.07"/>
  <g>
    <path class="cls-14" d="M409.67,243.48v.04s0,.05,0,.07v-.12Z"/>
    <path class="cls-14" d="M442.34,91.38c-76.91,1.22-87.11,8.09-90.36,10.47l-.45.34c-.18.14-.34.28-.49.41l-.12.11c-.23.21-.44.42-.63.62l-.19.21c-.21.24-.4.49-.58.74l-.08.12c-.14.21-.26.42-.37.62-4.27-2.55-9.56-3.02-14.3-1.09-.4.15-.97.4-1.59.81-.38-.18-.78-.34-1.18-.48-3.19-1.11-6.62-.92-9.66.55l-3.77,1.82-.45.25c-.09.05-.2.12-.33.22-2.62-1.53-5.9-1.85-8.89-.62h-.01s0-6.47,0-6.47l-8.37,11.57c-.22-.09-.43-.16-.66-.24-2.85-.93-5.88-.68-8.53.71l-4.38,2.29c-3.98,2.08-6.41,6.05-6.66,10.3-4.16,1.51-8.25,3.08-12.24,4.7.07-.31.13-.63.19-.96.09-.54.17-1.11.22-1.71.08-.85.12-1.77.12-2.76,0-2.51-.28-5.46-.82-8.76-.08-.5-.17-1.01-.27-1.54-.41-2.26-.8-4.72-1.17-7.31-.63-4.5-1.19-9.5-1.67-14.86-.29-3.21-.54-6.54-.76-9.9-.06-.99-.12-1.93-.17-2.82-.05-.89-.1-1.73-.14-2.5-.04-.78-.08-1.5-.11-2.15-.12-2.56-.16-4.08-.16-4.11l-.14-4.86h-81.53l.54,5.49c.21,2.17,5.22,53.32,9.5,76.51.95,5.13,2.48,8.94,4.69,11.65.3.36.59.69.89.99l.16.15c.27.27.55.51.79.71l.18.14c.64.51,1.32.95,2.07,1.32l.13.06c.3.14.6.27.89.37l.13.05c.36.13.71.23,1.05.31l.17.04c.11.02.22.05.33.07.28,1.15.56,2.3.84,3.45l.64,2.56c.13.5.25,1.01.38,1.51-.48,2.65-.32,5.35.49,7.93-2.92,3.85-3.31,9.22-.62,13.56l1.58,2.58c-1.15,1.54-1.83,3.4-1.94,5.39-.17,3.12,1.09,6.08,3.46,8.12l3.09,2.65c-.31.82-.52,1.68-.61,2.56-.32,3.16.9,6.31,3.26,8.43l4.75,4.26c1.09.98,2.38,1.63,3.73,1.93,2,5.61,4.12,11.17,6.32,16.62-3.42-.22-7.42,1.01-13.09,2.77-1.96.6-4.17,1.29-6.57,1.97-16.45,4.7-42.17,7.83-42.43,7.87l-4.4.53v23.76h-54.4c-3.05-2.62-6.94-4.08-11-4.08-9.32,0-16.9,7.58-16.9,16.9v56.19h-32.68v90.39h281.88v-90.39h-32.68v-39c.07-.04.14-.08.21-.13l.23-.14c.14-.09.28-.18.41-.28,2.66,1.55,5.97,1.91,9.01.72l2.57-1.01c3.01-1.18,5.36-3.47,6.61-6.44.15-.36.28-.72.4-1.09.65-.1,1.3-.27,1.94-.52,1.36-.52,2.64-1.22,3.84-2.1l.5-.39c.11-.08.21-.17.31-.27.29-.24.57-.5.88-.8.09-.08.17-.17.27-.27.31-.32.61-.66.92-1.03l.17-.2c.34-.43.67-.9.94-1.34.07-.11.14-.22.19-.32.22-.37.43-.74.62-1.13.06-.13.13-.26.22-.46.16-.34.3-.69.47-1.13.06-.15.11-.3.15-.42.13-.4.25-.8.35-1.19.04-.13.07-.27.1-.39.12-.52.21-1.05.27-1.58.02-.17.04-.34.05-.52.03-.33.05-.66.06-1.01v-.41c.01-.15,0-.31,0-.47-.01-.33-.03-.66-.06-1,2.73-1,5.43-2,8.09-2.99,1.08-.4,2.17-.8,3.28-1.21.12,2.75.48,5.94.89,9.58,1.22,10.8,3.07,27.12,3.09,54v5h80.31l-.34-5.32c-.36-5.62-.74-11.12-1.16-16.34-.2-2.55-.41-5.01-.62-7.39-.79-9.04-1.68-17.38-2.64-24.77-.34-2.59-.69-5.11-1.04-7.47-.45-3-.92-5.89-1.41-8.58-.24-1.31-.47-2.56-.71-3.74-.24-1.19-.47-2.32-.71-3.4-.34-1.55-.69-3.06-1.05-4.5-.23-.93-.47-1.8-.69-2.62-.94-3.39-2.97-10.69-6.67-14.35,1.04-1.23,1.85-2.65,2.39-4.18.29-.82.49-1.58.62-2.34l.05-.33c.05-.37.09-.75.11-1.19l.02-.43c0-.11.01-.22.01-.33,0-.21,0-.42-.02-.62v-.15c-.01-.16-.02-.32-.04-.51-.04-.47-.11-.93-.19-1.37-.02-.09-.03-.18-.05-.26-.1-.45-.22-.92-.37-1.38-.05-.15-.1-.29-.16-.46-.12-.33-.25-.66-.4-1-.06-.15-.13-.29-.24-.5-.16-.32-.32-.63-.49-.9-.01-.02-.02-.04-.03-.05.07-.18.13-.37.19-.56.03-.11.07-.21.11-.38.1-.33.18-.66.26-1.05.03-.13.05-.25.07-.34.08-.46.14-.92.18-1.39v-.27c.03-.25.04-.5.04-.75,0-.14,0-.28-.02-.42-.01-.35-.04-.7-.08-1.09-.01-.17-.03-.34-.06-.52-.09-.62-.21-1.19-.37-1.74l-.97-3.39-.16.04.16-.05c-.42-1.45-1.13-2.73-2.05-3.81,1.04-2.35,1.26-5.07.44-7.7l-2-6.46c-.71-2.3-2.12-4.2-3.93-5.54.02-.09.04-.18.05-.27.04-.17.07-.34.09-.49.04-.26.07-.51.09-.75l5.69,2.78-6.12-7.21c-.19-.72-.43-1.43-.72-2.12-.1-.25-.22-.49-.33-.71-.76-1.57-1.79-2.98-3-4.15-.11-.12-.22-.23-.31-.31l-2.25-2.06c-.43-.39-.89-.77-1.45-1.19l-.3-.22c-.53-.38-1.04-.7-1.54-.99-.07-.04-.14-.08-.21-.11-.29-.16-.58-.32-.87-.46l-1.05-.51h-.14c-.87-.35-1.76-.64-2.66-.85-.19-.52-.38-1.04-.56-1.56l-.27-.76c-.41-1.13-.82-2.24-1.22-3.33l-.23-.63c-.61-1.65-1.22-3.29-1.83-4.89,1.03-.06,2.16-.35,4.18-.85l2.75-.68c.73-.17,1.53-.36,2.39-.55,1.95-.43,3.98-.84,6.02-1.2,1.15-.2,2.37-.4,3.66-.6,2.07-.31,4.2-.59,6.35-.83,1.53-.17,3.14-.33,4.82-.47,9.7-.82,20.35-.99,31.67-.48l5.22.23v-73.05l-5.08.08ZM310.06,295.38h0s0,0,0,0h0ZM113.53,316.7v-5.65h3.74c-1.44,1.81-2.69,3.7-3.74,5.65ZM116.04,340.37c3.29.75,6.67-.55,8.61-3.3,2.54-3.59,6.46-7.5,9.87-7.74.64-.04,2.6-.18,5.38,2.78,1.38,1.47,3.22,2.36,5.15,2.59l6.43,15.68h-37.95v-11.04c.76.47,1.61.82,2.51,1.03ZM190.03,350.38h-13.57l-5.97-14.58c2.9-.42,7.86-1.15,14.07-2.18l5.48,16.76ZM221.05,350.38h-2.54l-7.12-21.75c4.02-.84,7.89-1.69,11.6-2.55-1.6,1.88-2.88,4.05-3.73,6.42-2.19,6.08-1.4,12.62,1.79,17.88ZM262.46,311.05v16.78c-1.9.15-3.77.56-5.56,1.21-2.35-4.01-6-7.17-10.39-8.89l.07-.73c6.79-2.59,11.25-5.32,13.59-8.36h2.29ZM262.46,347.83v2.54h-.92l.92-2.54ZM294.18,211.99c-2.17-2.77-4.19-5.54-5.8-7.93,1.2-.76,2.62-1.68,4.21-2.73h0c.58-.38,1.17-.78,1.8-1.2,2.86-1.93,5.67-3.9,8.41-5.91,1.53,1.94,3.63,4.39,6.41,7.2-4.82,2.5-8.47,5.24-11.5,7.71-1.32,1.02-2.51,2-3.54,2.86Z"/>
  </g>
  <g>
    <g>
      <path class="cls-30" d="M195.48,101.28c8.12,46.31,18.41,87.47,30.17,121.33,11.88,34.19,27.78,66.18,41.3,81.43,3.13,3.53,8.16,4.69,12.5,2.84h0c1.69-.72,2.35-2.76,1.41-4.33l-9.84-16.47,11.71,19.61c1.61,2.7,4.95,3.83,7.87,2.67l2.45-.97c2.74-1.09,3.98-4.27,2.71-6.92l-8.1-16.92,9.81,20.65c1.21,2.55,4.18,3.72,6.81,2.7l2.57-1.01c3.63-1.42,5.35-5.57,3.79-9.14l-7.99-18.34,7.4,16.98c.97,2.23,3.52,3.3,5.79,2.44h0c5.19-1.97,8.08-7.5,6.77-12.89-3.67-15.02-14.52-49.24-26.83-63.17-5.32-6.02-10.02-11.78-14.28-19.34-9.39-16.68-16.78-42.42-24.96-101.14h-61.07Z"/>
      <path class="cls-4" d="M295.79,221.76c-5.32-6.02-11.49-14.23-14.28-19.34-13.3-24.36-17.23-53.85-20.17-69.95-2.24-12.25-3.24-23.05-4.79-31.19h-61.07c5.16,29.41,11.19,56.74,17.92,81.45h0s.02.09.04.13c0,.03.02.06.03.09h0c3.85,14.11,7.92,27.37,12.19,39.65,7.07-3.25,34.58-13.97,45.28-12.09,13.03,2.29,24.35,10.11,29.56,17.59-1.53-2.4-3.1-4.55-4.7-6.36Z"/>
      <g>
        <path class="cls-4" d="M281.3,304.1c0,1.17-.68,2.29-1.84,2.78.65-.72.75-1.78.25-2.6l-10.71-17.77c-.73-1.22-1.07-2.64-.98-4.06l.08-1.28,12.78,21.39c.29.49.43,1.02.43,1.55Z"/>
        <path class="cls-4" d="M296.05,301.18c.76,2.49-.5,5.22-2.99,6.21h0c1.17-.84,1.58-2.4.97-3.71l-11.48-24.64c-.76-1.61-.98-3.42-.62-5.17l.33-1.61,13.5,28.2,1.71,3.73-1.43-3.01Z"/>
        <path class="cls-4" d="M306.86,305.88h0c2.08-1.34,2.88-4,1.89-6.27l-11.06-25.35c-.57-1.3-.69-2.75-.35-4.12l.62-2.53,12.1,27.77.59,1.35c1.56,3.57-.17,7.72-3.79,9.14Z"/>
        <path class="cls-4" d="M322.94,287.55c0,3.33-1.53,6.48-4.1,8.56l-.37.28c1.89-3.31,2.32-7.26,1.16-10.9l-6.33-20.01c-1.04-3.29-1.42-6.76-1.13-10.19l.26-3.01c4.73,11.88,8.16,24.38,10.18,32.65.21.87.32,1.76.32,2.62Z"/>
      </g>
      <g>
        <path class="cls-33" d="M207.1,157.72c-2.7-11.68,52.51-35.66,54.07-26.21,0,0,4.3-1,1.4-17.03-3.53-19.51-4.25-44.4-4.25-44.4h-71.16s5.15,52.84,9.44,76.09c2.82,15.28,10.5,11.56,10.5,11.56Z"/>
        <path class="cls-28" d="M258.32,70.07h-13.56c.21,11.89,1.13,24.79,2.12,33.68,1.26,11.28-5.08,22.11-15.62,26.33-22.42,8.98-33.16,21.15-31.02,25.48,3.19,3.92,6.85,2.15,6.85,2.15-2.7-11.68,52.51-35.66,54.07-26.21,0,0,4.3-1,1.4-17.03-3.53-19.51-4.25-44.4-4.25-44.4Z"/>
      </g>
    </g>
    <g>
      <path class="cls-3" d="M413.96,101.28v57.87c-41.28-1.48-91.23,12.92-105.27,24.25-6.23,5.03-12.28,9.34-17.09,12.58-.61.41-1.2.8-1.77,1.18-5.04,3.34-8.33,5.26-8.33,5.26-1.28-2.44-4.23-3.49-6.77-2.4l-48.2,20.59c-.58.24-.94.8-.97,1.4,0,.03,0,.06,0,.09,0,.17.03.35.09.52-1.23.71-2.78.55-3.84-.4l-4.75-4.26c-2.51-2.25-2.1-6.29.81-7.99l27.19-15.9-27.17,15.88-6.66-5.71c-2.48-2.13-2.26-6.03.43-7.88l1.25-.86-3.79-6.17c-1.99-3.22-1.07-7.44,2.08-9.54l.07-.04-.86-2.41c-1.71-4.78-.13-10.1,3.9-13.18,18.44-14.1,77.24-50.98,199.64-62.87Z"/>
      <path class="cls-31" d="M317.51,178.05c20.32-10.01,61.49-20.15,96.45-18.9v-57.87c-38.07,3.7-69.99,9.82-96.45,16.91v59.86Z"/>
      <g>
        <path class="cls-31" d="M213.08,178.54h0c.71-1.93,1.99-3.59,3.67-4.76l14.45-10.05c3.19-2.22,5.85-5.13,7.78-8.5l1.49-2.61h0c-1.68,6.07-5.48,11.32-10.72,14.81l-16.68,11.11Z"/>
        <path class="cls-31" d="M217.34,192.47h0c0-1.58.77-3.06,2.06-3.97l20.69-14.65h0c-.9,2.6-2.61,4.84-4.88,6.39l-17.87,12.23Z"/>
        <path class="cls-31" d="M221.42,207.89s.07-.26.1-.59c.15-1.37.93-2.6,2.11-3.32l23.36-14.15-.12.27c-1.17,2.58-3.11,4.73-5.55,6.15l-19.89,11.63Z"/>
        <path class="cls-31" d="M291.61,195.98c-.61.41-1.2.8-1.77,1.18-5.04,3.34-8.33,5.26-8.33,5.26-1.28-2.44-4.23-3.49-6.77-2.4l-48.2,20.59c-.58.24-.94.8-.97,1.4l-.17-1.29c-.2-1.48.62-2.92,1.99-3.51l46.74-20.03c4.46-1.91,9.38-2.51,14.17-1.74l3.31.54Z"/>
        <path class="cls-31" d="M259.77,200.37l.97-.41c2.66-1.14,4.27-3.88,3.97-6.76l-.17-1.67.78,1.83c1.2,2.83-.51,6.05-3.53,6.63l-2.01.39Z"/>
        <path class="cls-31" d="M253.85,182.96l.97-.41c2.66-1.14,4.27-3.88,3.97-6.76l-.17-1.67.78,1.83c1.2,2.83-.51,6.05-3.53,6.63l-2.01.39Z"/>
        <path class="cls-31" d="M246.99,166.01l.97-.41c2.66-1.14,4.27-3.88,3.97-6.76l-.17-1.67.78,1.83c1.2,2.83-.51,6.05-3.53,6.63l-2.01.39Z"/>
      </g>
      <g>
        <path class="cls-7" d="M442.42,96.38c-103.06,1.63-88.5,13.47-88.5,13.47,8.64-2.15,25.03,51.23,22.26,51.67,0,0,1.61,3.26,3.77,3.27,2.77,0,20.98-7.53,62.47-5.67v-62.74Z"/>
        <path class="cls-17" d="M375.08,137.98c-7.6-22.62-16.71-33.76-20.26-32.02-2.99,2.2-.91,3.89-.91,3.89,8.64-2.15,25.03,51.23,22.26,51.67,0,0,1.61,3.26,3.77,3.27,2.77,0,20.98-7.53,62.47-5.67v-12.82c-16.34-2.84-37.34-.41-50.64,1.77-7.29,1.2-14.33-3.09-16.69-10.1Z"/>
      </g>
    </g>
    <g>
      <path class="cls-8" d="M413.96,319.77h-62.93c-1.4-47.84-7.49-83.42-18.01-101.49l-.67-1.12c-2.27-3.67-4.74-6.55-7.4-8.6-15.5-11.87-21.04-21.4-21.04-21.4,2.5-1.94,3.87-4.89,3.87-7.9,0-1.38-.28-2.77-.88-4.09l-.51-1.14-20.5-45.66c-1.57-3.59-.1-7.78,3.38-9.6l4.38-2.29c3.01-1.57,6.72-.36,8.23,2.68l.18.38c-.27-.58-.21-1.26.17-1.79l1.67-2.31c1-1.38,2.36-2.46,3.94-3.11l2.98-1.23c2.44-1.01,5.25.04,6.42,2.41l11.86,24.01-10.2-20.7c-.91-3.99,1.85-5.68,1.85-5.68l3.77-1.82c3.8-1.84,8.37-.24,10.2,3.57-.28-1.39-.06-2.35.32-3,.58-1,1.53-1.28,1.53-1.28,5.38-2.24,11.57.06,14.19,5.26,12.2,24.27,49.85,106.67,63.21,205.9Z"/>
      <path class="cls-16" d="M363.24,140.79c-9.08,4.22,5.61,46.01-15.91,54.05l3.5,8.11h35.92c-8.13-24.85-16.53-46.04-23.51-62.16Z"/>
      <path class="cls-16" d="M351.03,319.77h62.93c-3.49-25.9-8.63-50.66-14.54-73.53-19.8,5.92-39.59,16.51-52.09,23.92,1.92,14.51,3.17,31.14,3.71,49.61Z"/>
      <path class="cls-16" d="M302.15,119.71c-.34-.68-.27-1.48.17-2.1l1.58-2.18h0c-.38,1.98-.1,4.03.82,5.83l9.72,19.47c.68,1.33.75,2.9.18,4.28h0l-12.46-25.3ZM329.1,137.52h0c.62-1.34.59-2.9-.09-4.22l-7.45-14.9c-1.16-2.24-1.44-4.83-.81-7.26h0s-2.77,1.69-1.85,5.68l10.2,20.7ZM345.74,132.3l-10.7-22.42h0c-.38.65-.6,1.61-.32,3l11.19,23.18.05-.16c.39-1.19.31-2.48-.22-3.61ZM306.38,174.02l.51,1.14c.59,1.32.88,2.72.88,4.09,0,3.02-1.37,5.96-3.87,7.9,0,0,5.54,9.53,21.04,21.4,2.67,2.04,5.13,4.92,7.4,8.6l-25.97-43.14ZM334.59,153.87c-1.71,7.41-10.46,5.78-10.46,5.78,10.6,4.16,10.46-5.78,10.46-5.78ZM350.86,145.81c-1.71,7.41-10.46,5.78-10.46,5.78,10.6,4.16,10.46-5.78,10.46-5.78Z"/>
      <g>
        <path class="cls-26" d="M348.2,277.23c1.08,10.96,57.82-4.35,54.54-17.62l-1.15-4.77s10.75-1.88,16.6,90.63h-69.99c-.04-58.4-8.81-69.09-.46-72.16l.46,3.92Z"/>
        <path class="cls-11" d="M401.58,254.83l1.15,4.77c3.29,13.27-53.45,28.58-54.54,17.62l-.46-3.92c-2.54.93-3.49,2.82-3.59,6.64,1.54,6.25,22.23,5.68,36.5.29,15.36-5.8,24.04,11.04,26.79,65.23h10.75c-5.85-92.51-16.6-90.63-16.6-90.63Z"/>
      </g>
    </g>
    <g>
      <path class="cls-13" d="M404.56,244.66c-.43,2.66-2.09,4.96-4.48,6.2-14.16,7.36-43.9,19.66-77.98,32-4.1-15.9-14.54-47.78-26.31-61.1-.75-.85-1.48-1.69-2.21-2.53.62-.52,1.24-1.04,1.84-1.57,6.37-5.54,12.34-10.93,22.7-14.7l4.08,3.35c23.42-12.36,46.44-19.27,56.07-20.72,4-.6,8.05.65,11.04,3.37l2.26,2.06c1.99,1.81,3.14,4.36,3.2,7.05.06,2.83-1.94,5.28-4.72,5.81l-21.1,4.01,22.98-4.37c2.94-.56,5.83,1.18,6.72,4.04l2,6.46c1,3.22-.87,6.63-4.13,7.51l-22.85,6.22,22.09-5.97c2.79-.75,5.67.87,6.47,3.65l.98,3.4c.76,2.64.22,5.47-1.45,7.65l.17.16c2.13,2.09,3.11,5.08,2.63,8.02ZM236.55,250.77c-14.95,5.72-29.48,9.83-41.07,11.98v57.02c19.61-3.37,44.24-9.9,69.73-17.77-9.25-11.23-19.46-29.78-28.66-51.22Z"/>
      <path class="cls-29" d="M394.77,198.07c.05,2.32-1.28,4.39-3.3,5.35l-1.4.46h0s-17.51,4.02-17.51,4.02c-.03,0-.06.01-.08.02-2.21.49-4.51.3-6.61-.55l-3.02-1.22,24.92-6.18c3.65-.76,5.16-5.14,2.75-7.98l-4.39-5.18h0c1.15.56,2.22,1.28,3.19,2.16l2.25,2.06c1,.9,1.78,2,2.32,3.2.55,1.2.85,2.51.87,3.85ZM355.95,202.41c1.97,7.41-5.12,9.92-5.12,9.92,10.9-2.36,5.12-9.92,5.12-9.92ZM367.32,220.42c1.97,7.41-5.12,9.92-5.12,9.92,10.9-2.36,5.12-9.92,5.12-9.92ZM400.66,214.02l-2-6.46.85,2.85c.75,2.5-.72,5.13-3.24,5.82l-15.01,4.06c-3.64,1.02-6.5,3.84-7.58,7.47l22.85-6.22c3.26-.89,5.13-4.3,4.12-7.52ZM403.55,231.22c0-.8-.11-1.6-.34-2.39l-.97-3.4c.73,2.98-1.04,6-4,6.81l-21.17,5.84c-1.15.32-2.38-.11-3.09-1.08-.01-.02-.02-.02-.02-.02,1.97,7.41-5.12,9.92-5.12,9.92,2.14-.46,3.64-1.13,4.66-1.9.89-.67,1.87-1.21,2.94-1.5l25.31-7.02c1.17-1.53,1.79-3.38,1.79-5.26ZM401.93,236.64l-.17-.16s4.47,5.67,0,8.87l-44.81,19.06c-4.86,2.07-17.6,7.9-20.96,11.97l-1.78,2.02c26.18-9.61,54.36-21.57,65.86-27.54,2.39-1.24,4.06-3.54,4.48-6.2.08-.49.12-.98.12-1.47,0-2.44-.97-4.81-2.75-6.55ZM195.48,262.75v57.02c19.61-3.37,44.24-9.9,69.73-17.77-9.25-11.23-19.46-29.78-28.66-51.22-14.95,5.72-29.48,9.83-41.07,11.98ZM318.13,202.96c-12.4,4.42-24.55,16.27-24.55,16.27,0,0,14.31-6.09,28.63-12.92l-4.08-3.35Z"/>
      <path class="cls-29" d="M315.01,252.28c-8.1-24.71-21.43-33.05-14.52-36.05l-1.99-1.23c-1.03.88-2.04,1.77-3.07,2.66-.6.53-1.22,1.05-1.84,1.57.72.84,1.46,1.68,2.21,2.53,11.77,13.32,22.21,45.21,26.31,61.1,1.93-.7,3.84-1.4,5.74-2.09-6.34,2.34-4.74-3.8-12.83-28.48Z"/>
      <g>
        <path class="cls-27" d="M231.94,252.49c-8.05,3.3,16.47,54.61,24.87,52.05,0,0,5,6.4-24.76,14.16-30.42,7.93-65.02,12.53-65.02,12.53v-69.18s26.17-3.15,43.2-8.02c13.43-3.84,19.97-7.28,21.72-1.54Z"/>
        <path class="cls-32" d="M232.05,318.7c29.77-7.76,24.76-14.16,24.76-14.16-8.4,2.55-32.92-48.76-24.87-52.05-.5-1.62-1.37-2.51-2.68-2.87h0c-4.73-1.18-5.15,8.4,1.09,25.73,1.43,3.97,2.77,7.48,4,10.52,3.43,8.55-1.38,18.19-10.29,20.54-13.27,3.5-38.15,8.05-57.02,9.39v15.42s34.61-4.6,65.02-12.53Z"/>
      </g>
    </g>
  </g>
  <g>
    <path class="cls-25" d="M223.53,409.3c3.7-1.22,7.69.8,8.89,4.5l4.24,13c4.82-4.4,6.88-11.34,4.74-17.94-.98-3-2.73-5.54-4.94-7.5-2.23-1.95-4.92-3.31-7.82-3.92l-10.63-32.52-13.37-40.86-.11-.34c3.96-4.39,5.53-10.69,3.55-16.75-1.36-4.13-4.15-7.4-7.63-9.41-1.11-.66-2.29-1.2-3.53-1.57-1.04-.34-2.15-.57-3.24-.7l4.26,13c1.22,3.72-.8,7.69-4.5,8.91-3.7,1.2-7.7-.8-8.91-4.52l-4.26-13c-4.79,4.41-6.86,11.32-4.7,17.94.66,2.03,1.67,3.86,2.96,5.43.61.76,1.27,1.45,1.97,2.08,2.23,1.93,4.92,3.28,7.84,3.9l9.99,30.59,13.95,42.66.16.46s-.04.06-.07.08c-3.91,4.4-5.45,10.67-3.5,16.67,1.09,3.29,3.07,6.03,5.59,8.03t.04.03c.11.09.22.17.33.24,2.47,1.85,5.37,3.03,8.45,3.38l-4.24-13c-1.22-3.7.8-7.67,4.5-8.89Z"/>
    <path class="cls-2" d="M232.22,413.12l14.89-149.56c.01-.12-.04-.24-.14-.35,1.08-.77,2.55-2.35,1.26-4.74-1.9-3.52-2.52-5.13-2.52-5.13,0,0-4.83,6.14-1.85,9.66-.03.04-.05.09-.05.14l-22.85,148.56c-.73,4.77,1.28,9.16,4.51,9.57h0c3.23.41,6.27-3.35,6.75-8.15Z"/>
    <path class="cls-5" d="M291.25,294.19v120.69h-23.79v-120.69c0-6.57,5.33-11.9,11.9-11.9,3.28,0,6.26,1.33,8.41,3.49,2.15,2.15,3.48,5.13,3.48,8.41Z"/>
    <path class="cls-12" d="M275.38,306.05H90.45v-19.68h184.93c5.43,0,9.84,4.4,9.84,9.84h0c0,5.43-4.4,9.84-9.84,9.84Z"/>
    <rect class="cls-25" x="234.78" y="355.38" width="89.15" height="80.39"/>
    <rect class="cls-5" x="52.05" y="355.38" width="89.15" height="80.39"/>
    <path class="cls-5" d="M108.53,414.88h-23.8v-120.69c0-6.57,5.33-11.9,11.9-11.9h0c6.57,0,11.9,5.33,11.9,11.9v120.69Z"/>
    <path class="cls-1" d="M269.44,333.7c-5-1.8-10.32-.93-14.39,1.87-.23.16-.46.33-.69.5-.06-.28-.13-.55-.21-.83-1.35-4.75-4.89-8.81-9.9-10.61-8.24-2.97-17.33,1.31-20.3,9.56-2.97,8.24,1.31,17.33,9.56,20.3,1.29.47,2.61.75,3.92.87l-11.61,43.69,10.41,3.74,18.01-39.16.52-1.12.36-.79c1.09.74,2.28,1.36,3.58,1.83,8.24,2.97,17.33-1.31,20.3-9.56,2.97-8.24-1.31-17.33-9.56-20.3ZM243.98,345.45c-.54,1.5-1.81,2.63-3.38,2.94-.44.09-.9.14-1.35.16-1.12.05-2.28-.12-3.4-.52-4.6-1.65-7.05-6.75-5.46-11.37,1.63-4.75,6.83-7.23,11.54-5.54,1.55.56,2.85,1.5,3.84,2.67,1.05,1.25,1.35,2.96.8,4.49l-2.58,7.17ZM272.48,351.79c-1.72,4.58-6.86,6.94-11.46,5.29-1.12-.41-2.12-1.01-2.95-1.76-.35-.31-.67-.65-.96-1.01-.99-1.22-1.25-2.87-.72-4.35l2.61-7.24c.53-1.47,1.78-2.58,3.31-2.89,1.55-.31,3.21-.22,4.81.36,4.71,1.69,7.13,6.92,5.37,11.62Z"/>
    <path class="cls-1" d="M174.97,288.51l-7.86,3.22c-1.49.61-2.2,2.31-1.59,3.8l2.21,5.39c-.25.08-.5.19-.73.33-2.64,1.62-6.02,2.7-8.9,1.4-2.9-1.31-5.7-2.88-7.01-4.46-.87-1.05-2.3-1.45-3.59-1.02-7.79,2.62-32.76,12.74-32.95,35.06-.01,1.56,1.07,2.92,2.59,3.26h0c1.3.29,2.66-.22,3.43-1.31,3.31-4.68,13.03-16.09,22.97-5.49.95,1.01,2.42,1.35,3.7.83l.93-.38,34.52,84.25c.51,1.24,1.92,1.83,3.15,1.32l7.67-3.14c1.24-.51,1.83-1.92,1.32-3.15l-34.52-84.25,2.38-.97c1.09-.45,1.84-1.44,2.03-2.6.33-2.02,1.85-5.37,7.78-8.03l1.22,2.97c.61,1.49,2.31,2.2,3.8,1.59l7.86-3.22c1.49-.61,2.2-2.31,1.59-3.8l-8.19-20c-.61-1.49-2.31-2.2-3.8-1.59Z"/>
    <rect class="cls-12" x="141.2" y="355.38" width="182.72" height="80.39"/>
    <rect class="cls-14" x="52.05" y="378.84" width="271.88" height="2.14"/>
    <rect class="cls-14" x="52.05" y="410.16" width="271.88" height="2.14"/>
  </g>
</svg>