<svg version="1.2" xmlns="http://www.w3.org/2000/svg" viewBox="0 0 416 297" width="416" height="297"><style>.a{fill:#3b442e}.b{fill:#24211e}.c{mix-blend-mode:multiply;fill:#24211e}.d{fill:#7a896a}.e{fill:#f4eee6}.f{fill:#586648}</style><path class="a" d="m344.3 144.8h-80.5v-104.9c0-22 17.8-39.9 39.8-39.9h0.8c22 0 39.9 17.9 39.9 39.9z"/><path class="b" d="m304 21.1h-209v32.7h209c9.1 0 16.4-7.3 16.4-16.4 0-9-7.3-16.3-16.4-16.3z"/><g style="opacity:.4"><path class="c" d="m95 41.5v12.3h209c7.6 0 14.1-5.2 15.9-12.3z"/></g><g style="opacity:.4"><path class="c" d="m150 39.9v13.9h-55v-32.7h51.7c2.1 5.8 3.3 12.2 3.3 18.8z"/></g><path class="d" d="m135.3 144.8h-80.5v-104.9c0-22 17.8-39.9 39.8-39.9h0.8c22 0 39.8 17.9 39.8 39.9z"/><path class="e" d="m95 53.8c-9 0-16.4-7.3-16.4-16.4 0-9 7.4-16.3 16.4-16.3 9.1 0 16.4 7.3 16.4 16.3 0 9.1-7.3 16.4-16.4 16.4z"/><path class="f" d="m398.3 296.3h-334.4v-129.7c0-33.3 27-60.3 60.3-60.3h231.5c33.3 0 60.3 27 60.3 60.3v112.1c0 9.7-7.9 17.6-17.7 17.6z"/><path class="d" d="m172.4 296.3h-154.7c-9.8 0-17.7-7.9-17.7-17.6v-112.2c0-33.2 27-60.2 60.2-60.2h69.6c33.2 0 60.2 27 60.2 60.2v112.2c0 9.7-7.9 17.6-17.7 17.6z"/></svg>