<svg xmlns="http://www.w3.org/2000/svg" xmlns:xlink="http://www.w3.org/1999/xlink" width="157.924" height="206.361" viewBox="0 0 157.924 206.361">
  <defs>
    <clipPath id="clip-path">
      <rect id="Retângulo_46" data-name="Retângulo 46" width="157.924" height="206.362" fill="#6f7f5f"/>
    </clipPath>
  </defs>
  <g id="NUSMAD_Mod03_marco-19" transform="translate(19659 10669.181)">
    <g id="Grupo_715" data-name="Grupo 715" transform="translate(-19659 -10669.181)">
      <g id="Grupo_47" data-name="Grupo 47" transform="translate(0 0)" clip-path="url(#clip-path)">
        <path id="Caminho_237" data-name="Caminho 237" d="M138.1,27.051C125.5,13.144,110.036,4.282,91.426,1.1A102.418,102.418,0,0,0,79.149,0,81.855,81.855,0,0,0,21.228,25.65,78.2,78.2,0,0,0,.039,81.67c.432,15.866,6.3,28.83,13.21,42.763q3.438,6.138,7.191,12.094a463.258,463.258,0,0,0,47.617,58.5l6.709,7.09A52.082,52.082,0,0,0,79,206.362l.059-.16c1.114-.936,3.056-3.1,4.117-4.229l7.957-8.544q7.862-8.445,15.393-17.187c10.965-12.514,21.646-25.466,30.664-39.472,1.28-1.927,2.515-3.813,3.693-5.806,1.227-2.071,2.37-4.368,3.721-6.331,7.766-14.562,12.387-24.825,13.222-41.641A78.259,78.259,0,0,0,138.1,27.051M79.715,131.127A54.384,54.384,0,1,1,134.1,76.743a54.384,54.384,0,0,1-54.384,54.384" transform="translate(0 0)" fill="#6f7f5f"/>
      </g>
    </g>
    <path id="Caminho_2267" data-name="Caminho 2267" d="M4.745,0H30.81V-3.055l-7.54-1.82C23.2-7.8,23.2-10.66,23.2-13.52V-31.785l.26-9.3-.91-.65L6.37-38.09v3.77l6.37-.585V-13.52c0,2.86,0,5.785-.065,8.645l-7.93,1.82ZM47.32-29.055c0-6.76,2.47-9.555,5.46-9.555,3.185,0,5.265,2.925,5.265,13.26,0,1.495-.065,2.925-.195,4.225a6.813,6.813,0,0,1-4.16,1.17C49.855-19.955,47.32-23.14,47.32-29.055ZM41.34,1.235C58.24-1.43,68.51-11.05,68.51-24.44c0-10.985-5.655-17.55-15.99-17.55-8.19,0-15.405,5.33-15.405,13.91,0,7.93,5.46,12.35,12.87,12.35a12.652,12.652,0,0,0,7.41-2.145c-1.56,8.06-6.435,12.415-16.7,15.73Z" transform="translate(-19616.744 -10571.181)" fill="#2b2622"/>
  </g>
</svg>
