<?xml version="1.0" encoding="UTF-8"?>
<svg id="_Ñëîé_1" data-name="Ñëîé 1" xmlns="http://www.w3.org/2000/svg" viewBox="0 0 80 80">
  <defs>
    <style>
      .cls-1 {
        fill: #fff;
      }

      .cls-2 {
        fill: #bd5334;
      }
    </style>
  </defs>
  <circle class="cls-2" cx="40" cy="40" r="34.57"/>
  <g>
    <path class="cls-1" d="M37.17,21.72h5.66c.72,0,1.3-.58,1.3-1.3v-10.42h-8.25v10.42c0,.72.58,1.3,1.3,1.3Z"/>
    <rect class="cls-1" x="38.04" y="19.23" width="3.91" height="31.16"/>
    <path class="cls-1" d="M44.53,51.38c-.28-.17-.42-.5-.35-.82.07-.32.33-.56.65-.6.51-.07.9-.51.9-1.02,0-.57-.46-1.03-1.03-1.03h-9.4c-.57,0-1.03.46-1.03,1.03,0,.51.39.95.9,1.02.32.04.58.28.65.6.07.32-.07.65-.35.82-1.03.64-1.65,1.74-1.65,2.94v12.23c0,1.91,1.55,3.46,3.46,3.46h5.43c1.91,0,3.46-1.55,3.46-3.46v-12.23c0-1.2-.62-2.29-1.65-2.94Z"/>
  </g>
</svg>