<svg xmlns="http://www.w3.org/2000/svg" xmlns:xlink="http://www.w3.org/1999/xlink" width="157.924" height="206.361" viewBox="0 0 157.924 206.361">
  <defs>
    <clipPath id="clip-path">
      <rect id="Retângulo_46" data-name="Retângulo 46" width="157.924" height="206.362" fill="#6f7f5f"/>
    </clipPath>
  </defs>
  <g id="NUSMAD_Mod03_marco-3" transform="translate(19858 11479.181)">
    <g id="Grupo_699" data-name="Grupo 699" transform="translate(-19858 -11479.181)">
      <g id="Grupo_47" data-name="Grupo 47" transform="translate(0 0)" clip-path="url(#clip-path)">
        <path id="Caminho_237" data-name="Caminho 237" d="M138.1,27.051C125.5,13.144,110.036,4.282,91.426,1.1A102.418,102.418,0,0,0,79.149,0,81.855,81.855,0,0,0,21.228,25.65,78.2,78.2,0,0,0,.039,81.67c.432,15.866,6.3,28.83,13.21,42.763q3.438,6.138,7.191,12.094a463.258,463.258,0,0,0,47.617,58.5l6.709,7.09A52.082,52.082,0,0,0,79,206.362l.059-.16c1.114-.936,3.056-3.1,4.117-4.229l7.957-8.544q7.862-8.445,15.393-17.187c10.965-12.514,21.646-25.466,30.664-39.472,1.28-1.927,2.515-3.813,3.693-5.806,1.227-2.071,2.37-4.368,3.721-6.331,7.766-14.562,12.387-24.825,13.222-41.641A78.259,78.259,0,0,0,138.1,27.051M79.715,131.127A54.384,54.384,0,1,1,134.1,76.743a54.384,54.384,0,0,1-54.384,54.384" transform="translate(0 0)" fill="#6f7f5f"/>
      </g>
    </g>
    <path id="Caminho_2260" data-name="Caminho 2260" d="M16.9.975c10.2,0,16.185-5,16.185-11.83,0-5.655-2.86-9.425-10.465-10.79,6.565-1.755,9.23-5.85,9.23-9.945,0-5.915-4.68-10.4-14.3-10.4-6.305,0-12.09,2.86-12.87,9.88a3.9,3.9,0,0,0,3.64,2.275c2.34,0,4.29-1.235,4.81-4.485l.65-4.225a8.288,8.288,0,0,1,1.235-.065c4.225,0,6.63,2.405,6.63,7.41,0,5.655-2.925,8.06-7.93,8.06H11.83v3.64H14.1c5.4,0,8.32,2.925,8.32,8.32,0,5.98-2.99,8.775-8.71,8.775a6.329,6.329,0,0,1-1.56-.13L11.57-6.89c-.585-4.42-2.08-5.785-4.81-5.785A4.236,4.236,0,0,0,2.73-9.75C3.445-2.73,8.19.975,16.9.975Z" transform="translate(-19797 -11381.181)" fill="#2b2622"/>
  </g>
</svg>
