<svg xmlns="http://www.w3.org/2000/svg" xmlns:xlink="http://www.w3.org/1999/xlink" width="157.924" height="206.361" viewBox="0 0 157.924 206.361">
  <defs>
    <clipPath id="clip-path">
      <rect id="Retângulo_46" data-name="Retângulo 46" width="157.924" height="206.362" fill="#6f7f5f"/>
    </clipPath>
  </defs>
  <g id="NUSMAD_Mod03_marco-6" transform="translate(20360 11209.181)">
    <g id="Grupo_706" data-name="Grupo 706" transform="translate(-20360 -11209.181)">
      <g id="Grupo_47" data-name="Grupo 47" transform="translate(0 0)" clip-path="url(#clip-path)">
        <path id="Caminho_237" data-name="Caminho 237" d="M138.1,27.051C125.5,13.144,110.036,4.282,91.426,1.1A102.418,102.418,0,0,0,79.149,0,81.855,81.855,0,0,0,21.228,25.65,78.2,78.2,0,0,0,.039,81.67c.432,15.866,6.3,28.83,13.21,42.763q3.438,6.138,7.191,12.094a463.258,463.258,0,0,0,47.617,58.5l6.709,7.09A52.082,52.082,0,0,0,79,206.362l.059-.16c1.114-.936,3.056-3.1,4.117-4.229l7.957-8.544q7.862-8.445,15.393-17.187c10.965-12.514,21.646-25.466,30.664-39.472,1.28-1.927,2.515-3.813,3.693-5.806,1.227-2.071,2.37-4.368,3.721-6.331,7.766-14.562,12.387-24.825,13.222-41.641A78.259,78.259,0,0,0,138.1,27.051M79.715,131.127A54.384,54.384,0,1,1,134.1,76.743a54.384,54.384,0,0,1-54.384,54.384" transform="translate(0 0)" fill="#6f7f5f"/>
      </g>
    </g>
    <path id="Caminho_2253" data-name="Caminho 2253" d="M12.415-14.95a33.3,33.3,0,0,1,.26-4.485,7.709,7.709,0,0,1,4.94-1.69c3.315,0,5.2,3.185,5.2,8.58,0,7.15-2.275,10.14-5.07,10.14C14.43-2.4,12.415-6.045,12.415-14.95ZM18.005.975C25.48.975,33.15-3.9,33.15-13.455c0-6.825-3.7-12.09-11.375-12.09a13.222,13.222,0,0,0-8.58,2.8c1.95-8.385,7.41-13.52,17.225-15.99l-.39-3.25C13.325-40.56,1.82-29.9,1.82-16.575,1.82-5.395,7.93.975,18.005.975Z" transform="translate(-20298.82 -11111.181)" fill="#2b2622"/>
  </g>
</svg>
