<svg xmlns="http://www.w3.org/2000/svg" width="799.4" height="149" viewBox="0 0 799.4 149">
  <g id="NUSMAD_Mod03_Img46" transform="translate(-536.8 -734)">
    <path id="Caminho_2238" data-name="Caminho 2238" d="M1.8,207h43V196.2l-15.4-2.4,8.2-25H77.8L86,194.6l-15.4,2V207h61.6V196.6l-12-1.4-41-120H58.6L18,193.8,1.8,196.2Zm39.6-49.8L58,105.8l16.2,51.4ZM246,210.8a87.872,87.872,0,0,0,42-10.2l.8-30.8H273.6L268,195.4a42.663,42.663,0,0,1-16.8,3.8c-21.2,0-39.2-17-39.2-57.8s18.6-58.2,40-58.2a31.076,31.076,0,0,1,14.4,3.4l5.8,26.2h15.2l-.8-31a77.739,77.739,0,0,0-39.2-10c-37.6,0-70.8,22.2-70.8,71.4C176.6,188.2,207.4,210.8,246,210.8ZM340.8,86.2l15,1.6c.4,16.6.4,33.2.4,49.8V145c0,16.8,0,33.4-.4,49.6l-15,1.6V207h106l1.4-34.4H431.6l-4,23.2H390.2c-.4-16.2-.4-32.4-.4-50.8h21.6l2.4,15.6h11.6v-43H413.8l-2.4,15.6H389.8c0-15.6,0-31.2.4-46.4h33.4l4,23.2h16.6l-1.4-34.4h-102Zm239.6,0,22.8,2.6v67.6L546,75.6H500.6V86.4L515,87.6l.8,1.2v105l-17,2.4V207h52.8V196.2l-22.8-2.6V107l70.4,100.4H616V88.8l17-2.6V75.6H580.4ZM669.8,207h43V196.2l-15.4-2.4,8.2-25h40.2l8.2,25.8-15.4,2V207h61.6V196.6l-12-1.4-41-120H726.6L686,193.8l-16.2,2.4Zm39.6-49.8L726,105.8l16.2,51.4Z" transform="translate(536 672.2)" fill="#d8c4a8"/>
    <path id="Caminho_2239" data-name="Caminho 2239" d="M1.8,207h43V196.2l-15.4-2.4,8.2-25H77.8L86,194.6l-15.4,2V207h61.6V196.6l-12-1.4-41-120H58.6L18,193.8,1.8,196.2Zm39.6-49.8L58,105.8l16.2,51.4ZM246,210.8a87.872,87.872,0,0,0,42-10.2l.8-30.8H273.6L268,195.4a42.663,42.663,0,0,1-16.8,3.8c-21.2,0-39.2-17-39.2-57.8s18.6-58.2,40-58.2a31.076,31.076,0,0,1,14.4,3.4l5.8,26.2h15.2l-.8-31a77.739,77.739,0,0,0-39.2-10c-37.6,0-70.8,22.2-70.8,71.4C176.6,188.2,207.4,210.8,246,210.8ZM340.8,86.2l15,1.6c.4,16.6.4,33.2.4,49.8V145c0,16.8,0,33.4-.4,49.6l-15,1.6V207h106l1.4-34.4H431.6l-4,23.2H390.2c-.4-16.2-.4-32.4-.4-50.8h21.6l2.4,15.6h11.6v-43H413.8l-2.4,15.6H389.8c0-15.6,0-31.2.4-46.4h33.4l4,23.2h16.6l-1.4-34.4h-102Zm239.6,0,22.8,2.6v67.6L546,75.6H500.6V86.4L515,87.6l.8,1.2v105l-17,2.4V207h52.8V196.2l-22.8-2.6V107l70.4,100.4H616V88.8l17-2.6V75.6H580.4ZM669.8,207h43V196.2l-15.4-2.4,8.2-25h40.2l8.2,25.8-15.4,2V207h61.6V196.6l-12-1.4-41-120H726.6L686,193.8l-16.2,2.4Zm39.6-49.8L726,105.8l16.2,51.4Z" transform="translate(535 662.2)" fill="#b6492e"/>
  </g>
</svg>
