<svg xmlns="http://www.w3.org/2000/svg" xmlns:xlink="http://www.w3.org/1999/xlink" width="157.924" height="206.361" viewBox="0 0 157.924 206.361">
  <defs>
    <clipPath id="clip-path">
      <rect id="Retângulo_46" data-name="Retângulo 46" width="157.924" height="206.362" fill="#6f7f5f"/>
    </clipPath>
  </defs>
  <g id="NUSMAD_Mod03_marco-15" transform="translate(19460 10939.181)">
    <g id="Grupo_707" data-name="Grupo 707" transform="translate(-19460 -10939.181)">
      <g id="Grupo_47" data-name="Grupo 47" transform="translate(0 0)" clip-path="url(#clip-path)">
        <path id="Caminho_237" data-name="Caminho 237" d="M138.1,27.051C125.5,13.144,110.036,4.282,91.426,1.1A102.418,102.418,0,0,0,79.149,0,81.855,81.855,0,0,0,21.228,25.65,78.2,78.2,0,0,0,.039,81.67c.432,15.866,6.3,28.83,13.21,42.763q3.438,6.138,7.191,12.094a463.258,463.258,0,0,0,47.617,58.5l6.709,7.09A52.082,52.082,0,0,0,79,206.362l.059-.16c1.114-.936,3.056-3.1,4.117-4.229l7.957-8.544q7.862-8.445,15.393-17.187c10.965-12.514,21.646-25.466,30.664-39.472,1.28-1.927,2.515-3.813,3.693-5.806,1.227-2.071,2.37-4.368,3.721-6.331,7.766-14.562,12.387-24.825,13.222-41.641A78.259,78.259,0,0,0,138.1,27.051M79.715,131.127A54.384,54.384,0,1,1,134.1,76.743a54.384,54.384,0,0,1-54.384,54.384" transform="translate(0 0)" fill="#6f7f5f"/>
      </g>
    </g>
    <path id="Caminho_2269" data-name="Caminho 2269" d="M4.745,0H30.81V-3.055l-7.54-1.82C23.2-7.8,23.2-10.66,23.2-13.52V-31.785l.26-9.3-.91-.65L6.37-38.09v3.77l6.37-.585V-13.52c0,2.86,0,5.785-.065,8.645l-7.93,1.82Zm46.67.975C61.23.975,68.64-3.575,68.64-12.48c0-8.385-6.11-12.87-16.055-12.87a28.015,28.015,0,0,0-6.305.65l.585-8.32H67.08v-7.995H43.29L41.925-21.19l1.82,1.3a27.54,27.54,0,0,1,6.11-.715c4.94,0,7.865,3.185,7.865,9.23,0,5.59-3.315,8.97-8.06,8.97a7.341,7.341,0,0,1-2.47-.325l-.52-4.42c-.52-4.03-2.015-5.525-4.615-5.525A4.359,4.359,0,0,0,37.83-9.75C38.22-3.185,43.1.975,51.415.975Z" transform="translate(-19417.744 -10841.181)" fill="#2b2622"/>
  </g>
</svg>
