<svg xmlns="http://www.w3.org/2000/svg" xmlns:xlink="http://www.w3.org/1999/xlink" width="157.924" height="206.361" viewBox="0 0 157.924 206.361">
  <defs>
    <clipPath id="clip-path">
      <rect id="Retângulo_46" data-name="Retângulo 46" width="157.924" height="206.362" fill="#6f7f5f"/>
    </clipPath>
  </defs>
  <g id="NUSMAD_Mod03_marco-18" transform="translate(19858 10669.181)">
    <g id="Grupo_714" data-name="Grupo 714" transform="translate(-19858 -10669.181)">
      <g id="Grupo_47" data-name="Grupo 47" transform="translate(0 0)" clip-path="url(#clip-path)">
        <path id="Caminho_237" data-name="Caminho 237" d="M138.1,27.051C125.5,13.144,110.036,4.282,91.426,1.1A102.418,102.418,0,0,0,79.149,0,81.855,81.855,0,0,0,21.228,25.65,78.2,78.2,0,0,0,.039,81.67c.432,15.866,6.3,28.83,13.21,42.763q3.438,6.138,7.191,12.094a463.258,463.258,0,0,0,47.617,58.5l6.709,7.09A52.082,52.082,0,0,0,79,206.362l.059-.16c1.114-.936,3.056-3.1,4.117-4.229l7.957-8.544q7.862-8.445,15.393-17.187c10.965-12.514,21.646-25.466,30.664-39.472,1.28-1.927,2.515-3.813,3.693-5.806,1.227-2.071,2.37-4.368,3.721-6.331,7.766-14.562,12.387-24.825,13.222-41.641A78.259,78.259,0,0,0,138.1,27.051M79.715,131.127A54.384,54.384,0,1,1,134.1,76.743a54.384,54.384,0,0,1-54.384,54.384" transform="translate(0 0)" fill="#6f7f5f"/>
      </g>
    </g>
    <path id="Caminho_2263" data-name="Caminho 2263" d="M4.745,0H30.81V-3.055l-7.54-1.82C23.2-7.8,23.2-10.66,23.2-13.52V-31.785l.26-9.3-.91-.65L6.37-38.09v3.77l6.37-.585V-13.52c0,2.86,0,5.785-.065,8.645l-7.93,1.82Zm42.77-33.345a5.207,5.207,0,0,1,5.46-5.265c3.315,0,5.265,2.6,5.265,5.785,0,2.86-.715,5.005-3.055,8C48.815-28.015,47.515-30.55,47.515-33.345ZM52,.975c9.88,0,15.73-4.615,15.73-11.765,0-5.46-3.12-9.425-9.295-12.545,5.915-2.73,7.93-5.915,7.93-9.23,0-5.135-4.095-9.425-13.065-9.425-8.32,0-14.43,4.55-14.43,11.765,0,4.745,2.665,8.58,7.735,11.375C41.08-16.51,38.09-13.195,38.09-8.84,38.09-2.86,42.7.975,52,.975ZM46.6-9.36c0-3.12.975-5.33,3.38-7.865,6.5,2.99,8.45,5.525,8.45,8.97,0,3.055-1.885,5.85-5.655,5.85C49.205-2.4,46.6-5.33,46.6-9.36Z" transform="translate(-19815.744 -10571.181)" fill="#2b2622"/>
  </g>
</svg>
