<svg id="Seta10" xmlns="http://www.w3.org/2000/svg" xmlns:xlink="http://www.w3.org/1999/xlink" width="547.608" height="520.732" viewBox="0 0 547.608 520.732">
  <defs>
    <clipPath id="clip-path">
      <rect id="Retângulo_76" data-name="Retângulo 76" width="350" height="428.557" fill="none"/>
    </clipPath>
  </defs>
  <g id="Grupo_102" data-name="Grupo 102" transform="translate(367.345) rotate(59)">
    <g id="Grupo_101" data-name="Grupo 101" clip-path="url(#clip-path)">
      <path id="Caminho_560" data-name="Caminho 560" d="M24.189,509.578a3.242,3.242,0,0,0,3.242-3.232c.007-2.431.079-4.995.215-7.62a3.242,3.242,0,0,0-6.475-.333c-.141,2.729-.216,5.4-.223,7.934a3.241,3.241,0,0,0,3.231,3.251Z" transform="translate(-7.367 -174.198)" fill="#b6492e"/>
      <path id="Caminho_561" data-name="Caminho 561" d="M35.609,435.612c.48-2.461,1-5.008,1.549-7.57a3.242,3.242,0,0,0-6.34-1.354c-.555,2.6-1.083,5.183-1.571,7.68a3.241,3.241,0,1,0,6.363,1.243" transform="translate(-10.264 -149.159)" fill="#b6492e"/>
      <path id="Caminho_562" data-name="Caminho 562" d="M28.215,459.567a3.243,3.243,0,0,0-3.689,2.722c-.4,2.661-.762,5.282-1.072,7.791a3.242,3.242,0,1,0,6.434.795c.3-2.452.655-5.015,1.048-7.619a3.242,3.242,0,0,0-2.722-3.689" transform="translate(-8.24 -161.612)" fill="#b6492e"/>
      <path id="Caminho_563" data-name="Caminho 563" d="M30.122,541.519c-.5-2.46-.925-4.967-1.254-7.452a3.241,3.241,0,1,0-6.427.851c.349,2.635.8,5.292,1.33,7.9a3.242,3.242,0,0,0,6.352-1.3" transform="translate(-7.882 -186.835)" fill="#b6492e"/>
      <path id="Caminho_564" data-name="Caminho 564" d="M515.785,32.1a3.241,3.241,0,0,0-4.339,1.479c-1.141,2.321-2.281,4.7-3.389,7.077a3.242,3.242,0,1,0,5.876,2.74c1.089-2.335,2.21-4.676,3.332-6.957a3.242,3.242,0,0,0-1.479-4.339" transform="translate(-178.571 -11.173)" fill="#b6492e"/>
      <path id="Caminho_565" data-name="Caminho 565" d="M405.421,374.074a3.241,3.241,0,0,0-4.126,2c-.856,2.462-1.726,4.914-2.587,7.29a3.242,3.242,0,1,0,6.1,2.209c.871-2.4,1.75-4.882,2.615-7.37a3.241,3.241,0,0,0-2-4.126" transform="translate(-140.152 -131.494)" fill="#b6492e"/>
      <path id="Caminho_566" data-name="Caminho 566" d="M416.685,339.844a3.24,3.24,0,0,0-4.056,2.135q-1.146,3.691-2.332,7.38a3.242,3.242,0,1,0,6.172,1.985q1.2-3.721,2.352-7.444a3.241,3.241,0,0,0-2.136-4.056" transform="translate(-144.241 -119.468)" fill="#b6492e"/>
      <path id="Caminho_567" data-name="Caminho 567" d="M426.929,305.31a3.244,3.244,0,0,0-4.005,2.23q-1.063,3.734-2.148,7.459A3.241,3.241,0,1,0,427,316.814q1.09-3.743,2.159-7.5a3.241,3.241,0,0,0-2.23-4.005" transform="translate(-147.936 -107.33)" fill="#b6492e"/>
      <path id="Caminho_568" data-name="Caminho 568" d="M37.139,568.351a3.242,3.242,0,0,0-6.106,2.178c.9,2.523,1.9,5.028,2.967,7.448a3.242,3.242,0,0,0,5.93-2.621c-1.006-2.274-1.944-4.631-2.791-7" transform="translate(-10.847 -199.125)" fill="#b6492e"/>
      <path id="Caminho_569" data-name="Caminho 569" d="M362.962,473.558a3.241,3.241,0,0,0-4.377,1.361c-1.2,2.292-2.438,4.576-3.664,6.79a3.242,3.242,0,1,0,5.671,3.142c1.249-2.255,2.5-4.582,3.731-6.916a3.241,3.241,0,0,0-1.361-4.377" transform="translate(-124.679 -166.413)" fill="#b6492e"/>
      <path id="Caminho_570" data-name="Caminho 570" d="M392.877,407.88a3.241,3.241,0,0,0-4.2,1.824c-.956,2.418-1.929,4.831-2.895,7.171a3.242,3.242,0,1,0,5.994,2.473c.978-2.37,1.964-4.814,2.93-7.263a3.241,3.241,0,0,0-1.824-4.2" transform="translate(-135.587 -143.367)" fill="#b6492e"/>
      <path id="Caminho_571" data-name="Caminho 571" d="M500.911,64.783a3.245,3.245,0,0,0-4.248,1.725c-1,2.357-2,4.794-2.985,7.24a3.241,3.241,0,1,0,6.013,2.422c.972-2.414,1.962-4.816,2.945-7.14a3.242,3.242,0,0,0-1.725-4.248" transform="translate(-173.538 -22.694)" fill="#b6492e"/>
      <path id="Caminho_572" data-name="Caminho 572" d="M476.023,132.188a3.242,3.242,0,0,0-4.088,2.077q-1.21,3.711-2.383,7.436a3.242,3.242,0,1,0,6.183,1.95q1.165-3.7,2.364-7.375a3.242,3.242,0,0,0-2.077-4.088" transform="translate(-165.083 -46.432)" fill="#b6492e"/>
      <path id="Caminho_573" data-name="Caminho 573" d="M446.24,247.333l2.025-7.511a3.241,3.241,0,1,0-6.258-1.69l-2.027,7.514a3.242,3.242,0,1,0,6.261,1.687" transform="translate(-154.696 -82.905)" fill="#b6492e"/>
      <path id="Caminho_574" data-name="Caminho 574" d="M465.37,166.537a3.244,3.244,0,0,0-4.03,2.186q-1.108,3.737-2.192,7.486a3.242,3.242,0,1,0,6.229,1.8q1.077-3.728,2.179-7.443a3.242,3.242,0,0,0-2.186-4.03" transform="translate(-161.432 -58.522)" fill="#b6492e"/>
      <path id="Caminho_575" data-name="Caminho 575" d="M436.577,270.605a3.238,3.238,0,0,0-3.979,2.277q-1.021,3.75-2.051,7.5a3.242,3.242,0,1,0,6.25,1.721q1.034-3.756,2.056-7.515a3.241,3.241,0,0,0-2.277-3.979" transform="translate(-151.377 -95.128)" fill="#b6492e"/>
      <path id="Caminho_576" data-name="Caminho 576" d="M378.807,441.108a3.242,3.242,0,0,0-4.291,1.615c-1.07,2.36-2.163,4.719-3.253,7.01a3.241,3.241,0,1,0,5.855,2.783c1.107-2.326,2.218-4.721,3.3-7.117a3.241,3.241,0,0,0-1.615-4.29" transform="translate(-130.459 -155.031)" fill="#b6492e"/>
      <path id="Caminho_577" data-name="Caminho 577" d="M181.435,644.172c-2.432.76-4.882,1.431-7.279,1.994a3.242,3.242,0,1,0,1.483,6.311c2.548-.6,5.148-1.311,7.729-2.117a3.242,3.242,0,1,0-1.933-6.188" transform="translate(-60.369 -226.496)" fill="#b6492e"/>
      <path id="Caminho_578" data-name="Caminho 578" d="M146.768,650.786q-3.766.239-7.463.12a3.241,3.241,0,1,0-.214,6.479c.884.03,1.789.044,2.688.044,1.776,0,3.593-.058,5.4-.173a3.242,3.242,0,1,0-.412-6.47" transform="translate(-47.815 -228.872)" fill="#b6492e"/>
      <path id="Caminho_579" data-name="Caminho 579" d="M112.26,646.475a64.326,64.326,0,0,1-7.052-2.239,3.242,3.242,0,0,0-2.318,6.055,70.78,70.78,0,0,0,7.767,2.466,3.241,3.241,0,1,0,1.6-6.281" transform="translate(-35.453 -226.495)" fill="#b6492e"/>
      <path id="Caminho_580" data-name="Caminho 580" d="M345.086,504.964a3.242,3.242,0,0,0-4.461,1.056c-1.354,2.194-2.743,4.383-4.128,6.506a3.242,3.242,0,1,0,5.43,3.543c1.415-2.168,2.833-4.4,4.216-6.644a3.242,3.242,0,0,0-1.056-4.461" transform="translate(-118.156 -177.42)" fill="#b6492e"/>
      <path id="Caminho_581" data-name="Caminho 581" d="M214.334,630.486c-2.255,1.187-4.549,2.315-6.82,3.352a3.242,3.242,0,1,0,2.7,5.9c2.38-1.088,4.783-2.269,7.144-3.512a3.242,3.242,0,0,0-3.02-5.738" transform="translate(-72.314 -221.604)" fill="#b6492e"/>
      <path id="Caminho_582" data-name="Caminho 582" d="M81.349,630.878a67.958,67.958,0,0,1-5.88-4.521,3.241,3.241,0,1,0-4.224,4.918,74.3,74.3,0,0,0,6.444,4.954,3.241,3.241,0,0,0,3.66-5.351" transform="translate(-24.659 -220.008)" fill="#b6492e"/>
      <path id="Caminho_583" data-name="Caminho 583" d="M297.718,563.492c-1.7,1.914-3.437,3.819-5.177,5.66a3.242,3.242,0,0,0,4.711,4.455c1.789-1.893,3.58-3.851,5.322-5.819a3.242,3.242,0,1,0-4.855-4.3" transform="translate(-102.571 -197.789)" fill="#b6492e"/>
      <path id="Caminho_584" data-name="Caminho 584" d="M324.93,534.987a3.242,3.242,0,0,0-4.531.7c-1.524,2.078-3.085,4.142-4.637,6.133a3.242,3.242,0,0,0,5.113,3.986c1.592-2.041,3.191-4.156,4.753-6.285a3.242,3.242,0,0,0-.7-4.531" transform="translate(-110.809 -187.928)" fill="#b6492e"/>
      <path id="Caminho_585" data-name="Caminho 585" d="M244.7,611.577q-1.394,1.022-2.806,2.021c-1.14.805-2.3,1.6-3.444,2.364a3.241,3.241,0,1,0,3.6,5.394c1.194-.8,2.4-1.625,3.59-2.465q1.459-1.032,2.9-2.086a3.241,3.241,0,1,0-3.833-5.228" transform="translate(-83.352 -214.864)" fill="#b6492e"/>
      <path id="Caminho_586" data-name="Caminho 586" d="M272.48,588.955c-1.872,1.722-3.8,3.431-5.723,5.079a3.241,3.241,0,1,0,4.215,4.926c1.984-1.7,3.969-3.459,5.9-5.234a3.242,3.242,0,1,0-4.39-4.771" transform="translate(-93.416 -206.828)" fill="#b6492e"/>
      <path id="Caminho_587" data-name="Caminho 587" d="M52.618,599.924a3.242,3.242,0,1,0-5.439,3.529c1.474,2.272,3.048,4.481,4.677,6.564a3.242,3.242,0,0,0,5.107-3.995c-1.512-1.933-2.974-3.984-4.345-6.1" transform="translate(-16.409 -210.467)" fill="#b6492e"/>
      <path id="Caminho_588" data-name="Caminho 588" d="M482.93,111.63a3.24,3.24,0,0,0,4.135-1.98c.867-2.459,1.748-4.906,2.619-7.275a3.242,3.242,0,0,0-6.086-2.238c-.88,2.4-1.771,4.872-2.648,7.358a3.242,3.242,0,0,0,1.98,4.135" transform="translate(-169.08 -34.47)" fill="#b6492e"/>
      <path id="Caminho_589" data-name="Caminho 589" d="M451.474,203.382q-1.042,3.752-2.073,7.509a3.242,3.242,0,1,0,6.252,1.715q1.028-3.747,2.067-7.487a3.242,3.242,0,1,0-6.246-1.737" transform="translate(-158.008 -70.692)" fill="#b6492e"/>
      <path id="Caminho_590" data-name="Caminho 590" d="M528.229,1.622c-1.3,2.248-2.593,4.552-3.85,6.852a3.241,3.241,0,1,0,5.688,3.11c1.233-2.255,2.5-4.516,3.776-6.72a3.241,3.241,0,0,0-5.614-3.242" transform="translate(-184.278 0)" fill="#b6492e"/>
      <path id="Caminho_591" data-name="Caminho 591" d="M47.725,409.08c-6.693-13.456-11.1-33.494-12.66-49.126C26.06,372.824,12.419,388.148,0,396.611l26.115-2.4Z" transform="translate(0 -126.592)" fill="#b6492e"/>
    </g>
  </g>
</svg>
