<?xml version="1.0" encoding="UTF-8"?>
<svg id="BT" xmlns="http://www.w3.org/2000/svg" version="1.1" xmlns:xlink="http://www.w3.org/1999/xlink" viewBox="0 0 165 293.8">
  <!-- Generator: Adobe Illustrator 30.3.0, SVG Export Plug-In . SVG Version: 2.1.3 Build 182)  -->
  <defs>
    <style>
      .st0 {
        stroke: #fff;
        stroke-width: 3px;
      }

      .st0, .st1 {
        fill: none;
      }

      .st2, .st3 {
        fill: #fff;
      }

      .st3 {
        fill-rule: evenodd;
      }

      .st4 {
        clip-path: url(#clippath-1);
      }

      .st5 {
        isolation: isolate;
      }

      .st6 {
        clip-path: url(#clippath);
      }
    </style>
    <clipPath id="clippath">
      <rect class="st1" x="3.5" y="0" width="157.9" height="206.4"/>
    </clipPath>
    <clipPath id="clippath-1">
      <rect class="st1" x="63" y="46.8" width="52.9" height="60"/>
    </clipPath>
  </defs>
  <g id="Vídeo" class="st5">
    <g class="st5">
      <path class="st2" d="M35.5,262.9h5l2.4,9.7c.6,2.3,1.1,4.4,1.7,6.7h.1c.6-2.3,1.1-4.4,1.7-6.7l2.6-9.7h4.8l-6.4,20.9h-5.7l-6.2-20.9Z"/>
      <path class="st2" d="M61.2,256.4h5.3l.3.5-5.6,4.4h-3.9l3.9-4.9ZM57.6,262.9h4.7v20.9h-4.7v-20.9Z"/>
      <path class="st2" d="M68.8,262.9h5.9c6.4,0,10.5,3.2,10.5,10.3s-4.1,10.5-10.2,10.5h-6.1v-20.9ZM74.4,280c3.6,0,5.9-1.7,5.9-6.7s-2.4-6.5-5.9-6.5h-.9v13.2h.9Z"/>
      <path class="st2" d="M90.7,262.9h13.1v4h-8.4v4.2h7.1v3.9h-7.1v4.8h8.7v4h-13.4v-20.9Z"/>
      <path class="st2" d="M108.9,273.2c0-6.8,3.8-10.7,9.5-10.7s9.5,3.9,9.5,10.7-3.8,10.9-9.5,10.9-9.5-4.1-9.5-10.9ZM123,273.2c0-4.2-1.8-6.7-4.6-6.7s-4.6,2.5-4.6,6.7,1.8,6.8,4.6,6.8,4.6-2.7,4.6-6.8Z"/>
    </g>
  </g>
  <g id="Grupo_49">
    <g class="st6">
      <g id="Grupo_47">
        <path id="Caminho_237" class="st2" d="M141.6,27.1c-12.6-13.9-28.1-22.8-46.7-26C90.9.5,86.8.1,82.6,0c-22,.4-42.8,9.7-57.9,25.6C10.5,40.8,2.9,60.9,3.5,81.7c.4,15.9,6.3,28.8,13.2,42.8,2.3,4.1,4.7,8.1,7.2,12.1,14.3,20.8,30.2,40.3,47.6,58.5l6.7,7.1c1.3,1.5,2.7,2.9,4.2,4.2v-.2c1.2-.9,3.1-3.1,4.2-4.2l8-8.5c5.2-5.6,10.4-11.4,15.4-17.2,11-12.5,21.6-25.5,30.7-39.5,1.3-1.9,2.5-3.8,3.7-5.8,1.2-2.1,2.4-4.4,3.7-6.3,7.8-14.6,12.4-24.8,13.2-41.6,1-20.5-6.1-40.6-19.7-55.9M83.2,131.1c-30,0-54.4-24.3-54.4-54.4,0-30,24.3-54.4,54.4-54.4,30,0,54.4,24.3,54.4,54.4s-24.3,54.4-54.4,54.4h0"/>
      </g>
    </g>
  </g>
  <line id="Linha_6" class="st0" y1="240.3" x2="165" y2="240.3"/>
  <g id="Grupo_62">
    <g class="st4">
      <g id="Grupo_62-2">
        <path id="Caminho_256" class="st3" d="M63,101.9v-50.2c0-2.6,2-4.8,4.6-4.8.9,0,1.8.2,2.5.7l43.3,25.1c2.3,1.4,3.1,4.3,1.7,6.6-.4.7-1,1.3-1.7,1.7l-43.3,25.1c-2.2,1.3-5.1.6-6.5-1.7-.5-.8-.7-1.6-.7-2.5"/>
      </g>
    </g>
  </g>
</svg>