<?xml version="1.0" encoding="UTF-8"?>
<svg id="BT" xmlns="http://www.w3.org/2000/svg" version="1.1" xmlns:xlink="http://www.w3.org/1999/xlink" viewBox="0 0 165 293.8">
  <!-- Generator: Adobe Illustrator 30.3.0, SVG Export Plug-In . SVG Version: 2.1.3 Build 182)  -->
  <defs>
    <style>
      .st0 {
        stroke: #fff;
        stroke-width: 3px;
      }

      .st0, .st1 {
        fill: none;
      }

      .st2 {
        fill: #fff;
      }

      .st3 {
        clip-path: url(#clippath-1);
      }

      .st4 {
        isolation: isolate;
      }

      .st5 {
        clip-path: url(#clippath);
      }
    </style>
    <clipPath id="clippath">
      <rect class="st1" x="3.5" y="0" width="157.9" height="206.4"/>
    </clipPath>
    <clipPath id="clippath-1">
      <rect class="st1" x="57.5" y="37.8" width="50" height="75"/>
    </clipPath>
  </defs>
  <g id="Dica" class="st4">
    <g class="st4">
      <path class="st2" d="M49.1,262.9h5.9c6.4,0,10.5,3.2,10.5,10.3s-4.1,10.5-10.2,10.5h-6.1v-20.9ZM54.7,280c3.6,0,5.9-1.7,5.9-6.7s-2.4-6.5-5.9-6.5h-.9v13.2h.9Z"/>
      <path class="st2" d="M71,262.9h4.7v20.9h-4.7v-20.9Z"/>
      <path class="st2" d="M81.3,273.5c0-6.9,4.6-10.9,9.9-10.9s4.9,1.2,6.3,2.7l-2.5,2.8c-1.1-1-2.2-1.5-3.7-1.5-2.8,0-5.1,2.6-5.1,6.7s2.1,6.8,5.3,6.8,2.9-.7,3.9-1.7l2.4,2.8c-1.8,2-4,3-6.6,3-5.3,0-9.8-3.7-9.8-10.7Z"/>
      <path class="st2" d="M106.4,262.9h5.7l6.5,20.9h-5l-1.3-5h-6.4l-1.3,5h-4.8l6.5-20.9ZM106.9,275.1h4.4l-.5-1.9c-.6-2.1-1.2-4.5-1.7-6.7h-.1c-.5,2.2-1.1,4.6-1.6,6.7l-.5,1.9Z"/>
    </g>
  </g>
  <g id="Grupo_49">
    <g class="st5">
      <g id="Grupo_47">
        <path id="Caminho_237" class="st2" d="M141.6,27.1c-12.6-13.9-28.1-22.8-46.7-26C90.9.5,86.8.1,82.6,0c-22,.4-42.8,9.7-57.9,25.6C10.5,40.8,2.9,60.9,3.5,81.7c.4,15.9,6.3,28.8,13.2,42.8,2.3,4.1,4.7,8.1,7.2,12.1,14.3,20.8,30.2,40.3,47.6,58.5l6.7,7.1c1.3,1.5,2.7,2.9,4.2,4.2v-.2c1.2-.9,3.1-3.1,4.2-4.2l8-8.5c5.2-5.6,10.4-11.4,15.4-17.2,11-12.5,21.6-25.5,30.7-39.5,1.3-1.9,2.5-3.8,3.7-5.8,1.2-2.1,2.4-4.4,3.7-6.3,7.8-14.6,12.4-24.8,13.2-41.6,1-20.5-6.1-40.6-19.7-55.9M83.2,131.1c-30,0-54.4-24.3-54.4-54.4,0-30,24.3-54.4,54.4-54.4,30,0,54.4,24.3,54.4,54.4s-24.3,54.4-54.4,54.4h0"/>
      </g>
    </g>
  </g>
  <line id="Linha_6" class="st0" y1="240.3" x2="165" y2="240.3"/>
  <g id="Grupo_56">
    <g class="st3">
      <g id="Grupo_56-2">
        <path id="Caminho_249" class="st2" d="M89.2,112.8h-13.3c-1.8,0-3.3-1.5-3.3-3.3s1.5-3.3,3.3-3.3h13.3c1.8,0,3.3,1.5,3.3,3.3s-1.5,3.3-3.3,3.3M91.7,100.3h-18.3c-1.8,0-3.3-1.5-3.3-3.3v-12.5c-12-6.9-16.1-22.2-9.2-34.2,6.9-12,22.2-16.1,34.2-9.2,7.7,4.5,12.5,12.7,12.5,21.7,0,8.9-4.8,17.2-12.5,21.7v12.5c0,1.8-1.5,3.3-3.3,3.3"/>
      </g>
    </g>
  </g>
</svg>