<?xml version="1.0" encoding="UTF-8"?>
<svg id="BT" xmlns="http://www.w3.org/2000/svg" version="1.1" xmlns:xlink="http://www.w3.org/1999/xlink" viewBox="0 0 165 293.8">
  <!-- Generator: Adobe Illustrator 30.3.0, SVG Export Plug-In . SVG Version: 2.1.3 Build 182)  -->
  <defs>
    <style>
      .st0 {
        stroke: #fff;
        stroke-width: 3px;
      }

      .st0, .st1 {
        fill: none;
      }

      .st2 {
        fill: #fff;
      }

      .st3 {
        isolation: isolate;
      }

      .st4 {
        clip-path: url(#clippath);
      }
    </style>
    <clipPath id="clippath">
      <rect class="st1" x="3.5" y="0" width="157.9" height="206.4"/>
    </clipPath>
  </defs>
  <g id="Feedback" class="st3">
    <g class="st3">
      <path class="st2" d="M5.5,262.9h13.2v4h-8.4v4.8h7.2v4h-7.2v8.1h-4.7v-20.9Z"/>
      <path class="st2" d="M23.8,262.9h13.1v4h-8.4v4.2h7.1v3.9h-7.1v4.8h8.7v4h-13.4v-20.9Z"/>
      <path class="st2" d="M43,262.9h13.1v4h-8.4v4.2h7.1v3.9h-7.1v4.8h8.7v4h-13.4v-20.9Z"/>
      <path class="st2" d="M62.1,262.9h5.9c6.4,0,10.5,3.2,10.5,10.3s-4.1,10.5-10.2,10.5h-6.1v-20.9ZM67.7,280c3.6,0,5.9-1.7,5.9-6.7s-2.4-6.5-5.9-6.5h-.9v13.2h.9Z"/>
      <path class="st2" d="M84,262.9h7.1c4.3,0,7.7,1.2,7.7,5.2s-1,3.9-2.7,4.5h0c2.3.7,3.7,2.1,3.7,4.8,0,4.4-3.6,6.4-8.1,6.4h-7.7v-20.9ZM90.9,271.2c2.3,0,3.3-1,3.3-2.5s-1.1-2.2-3.3-2.2h-2.2v4.7h2.2ZM91.4,280.1c2.6,0,3.9-.9,3.9-2.8s-1.3-2.6-3.9-2.6h-2.7v5.4h2.7Z"/>
      <path class="st2" d="M108.8,262.9h5.7l6.5,20.9h-5l-1.3-5h-6.4l-1.3,5h-4.8l6.5-20.9ZM109.4,275.1h4.4l-.5-1.9c-.6-2.1-1.2-4.5-1.7-6.7h-.1c-.5,2.2-1.1,4.6-1.6,6.7l-.5,1.9Z"/>
      <path class="st2" d="M123.6,273.5c0-6.9,4.6-10.9,9.9-10.9s4.9,1.2,6.3,2.7l-2.5,2.8c-1.1-1-2.2-1.5-3.7-1.5-2.8,0-5.1,2.6-5.1,6.7s2.1,6.8,5.3,6.8,2.9-.7,3.9-1.7l2.4,2.8c-1.8,2-4,3-6.6,3-5.3,0-9.8-3.7-9.8-10.7Z"/>
      <path class="st2" d="M144.8,262.9h4.7v8.5h.1l6.2-8.5h5.2l-6.3,8.3,7.5,12.5h-5.2l-5.1-8.8-2.4,3.2v5.6h-4.7v-20.9Z"/>
    </g>
  </g>
  <g id="Grupo_49">
    <g class="st4">
      <g id="Grupo_47">
        <path id="Caminho_237" class="st2" d="M141.6,27.1c-12.6-13.9-28.1-22.8-46.7-26C90.9.5,86.8.1,82.6,0c-22,.4-42.8,9.7-57.9,25.6C10.5,40.8,2.9,60.9,3.5,81.7c.4,15.9,6.3,28.8,13.2,42.8,2.3,4.1,4.7,8.1,7.2,12.1,14.3,20.8,30.2,40.3,47.6,58.5l6.7,7.1c1.3,1.5,2.7,2.9,4.2,4.2v-.2c1.2-.9,3.1-3.1,4.2-4.2l8-8.5c5.2-5.6,10.4-11.4,15.4-17.2,11-12.5,21.6-25.5,30.7-39.5,1.3-1.9,2.5-3.8,3.7-5.8,1.2-2.1,2.4-4.4,3.7-6.3,7.8-14.6,12.4-24.8,13.2-41.6,1-20.5-6.1-40.6-19.7-55.9M83.2,131.1c-30,0-54.4-24.3-54.4-54.4,0-30,24.3-54.4,54.4-54.4,30,0,54.4,24.3,54.4,54.4s-24.3,54.4-54.4,54.4h0"/>
      </g>
    </g>
  </g>
  <line id="Linha_6" class="st0" y1="240.3" x2="165" y2="240.3"/>
  <path id="Caminho_262" class="st2" d="M61.9,77.1h41.2v3.8h-41.2v-3.8ZM61.9,65.9h41.2v3.8h-41.2v-3.8ZM52.5,52.8v41.2h11.2v15l13.1-15h35.6v-41.2h-60Z"/>
</svg>