<?xml version="1.0" encoding="UTF-8"?>
<svg id="BT" xmlns="http://www.w3.org/2000/svg" version="1.1" xmlns:xlink="http://www.w3.org/1999/xlink" viewBox="0 0 184 293.8">
  <!-- Generator: Adobe Illustrator 30.3.0, SVG Export Plug-In . SVG Version: 2.1.3 Build 182)  -->
  <defs>
    <style>
      .st0 {
        stroke: #fff;
        stroke-width: 3px;
      }

      .st0, .st1 {
        fill: none;
      }

      .st2 {
        fill: #fff;
      }

      .st3 {
        clip-path: url(#clippath-1);
      }

      .st4 {
        isolation: isolate;
      }

      .st5 {
        clip-path: url(#clippath);
      }
    </style>
    <clipPath id="clippath">
      <rect class="st1" x="13" y="0" width="157.9" height="206.4"/>
    </clipPath>
    <clipPath id="clippath-1">
      <rect class="st1" x="61" y="44.2" width="60" height="60"/>
    </clipPath>
  </defs>
  <g id="Exercícios" class="st4">
    <g class="st4">
      <path class="st2" d="M2.8,262.9h13.1v4H7.5v4.2h7.1v3.9h-7.1v4.8h8.7v4H2.8v-20.9Z"/>
      <path class="st2" d="M25.6,273l-5.4-10.1h5.2l1.8,3.9c.5,1,.9,2,1.5,3.4h.1c.5-1.3.9-2.4,1.3-3.4l1.7-3.9h5l-5.4,10.4,5.8,10.5h-5.2l-2.1-4.3c-.5-1.1-1-2.1-1.6-3.4h-.1c-.5,1.3-1,2.3-1.4,3.4l-2,4.3h-5.1l5.8-10.7Z"/>
      <path class="st2" d="M41.6,262.9h13.1v4h-8.4v4.2h7.1v3.9h-7.1v4.8h8.7v4h-13.4v-20.9Z"/>
      <path class="st2" d="M60.8,262.9h7.5c4.4,0,8,1.5,8,6.5s-1.5,5-3.7,6l4.7,8.4h-5.3l-4-7.5h-2.6v7.5h-4.7v-20.9ZM67.9,272.5c2.5,0,3.8-1.1,3.8-3.1s-1.3-2.8-3.8-2.8h-2.4v5.9h2.4Z"/>
      <path class="st2" d="M81,273.5c0-6.9,4.6-10.9,9.9-10.9s4.9,1.2,6.3,2.7l-2.5,2.8c-1.1-1-2.2-1.5-3.7-1.5-2.8,0-5.1,2.6-5.1,6.7s2.1,6.8,5.3,6.8,2.9-.7,3.9-1.7l2.4,2.8c-1.8,2-4,3-6.6,3-5.3,0-9.8-3.7-9.8-10.7Z"/>
      <path class="st2" d="M105.8,256.4h5.3l.3.5-5.6,4.4h-3.9l3.9-4.9ZM102.2,262.9h4.7v20.9h-4.7v-20.9Z"/>
      <path class="st2" d="M112.4,273.5c0-6.9,4.6-10.9,9.9-10.9s4.9,1.2,6.3,2.7l-2.5,2.8c-1.1-1-2.2-1.5-3.7-1.5-2.8,0-5.1,2.6-5.1,6.7s2.1,6.8,5.3,6.8,2.9-.7,3.9-1.7l2.4,2.8c-1.8,2-4,3-6.6,3-5.3,0-9.8-3.7-9.8-10.7Z"/>
      <path class="st2" d="M133.7,262.9h4.7v20.9h-4.7v-20.9Z"/>
      <path class="st2" d="M143.9,273.2c0-6.8,3.8-10.7,9.5-10.7s9.5,3.9,9.5,10.7-3.8,10.9-9.5,10.9-9.5-4.1-9.5-10.9ZM158,273.2c0-4.2-1.8-6.7-4.6-6.7s-4.6,2.5-4.6,6.7,1.8,6.8,4.6,6.8,4.6-2.7,4.6-6.8Z"/>
      <path class="st2" d="M167,281.1l2.5-3.1c1.5,1.3,3.5,2,5.3,2s2.9-.8,2.9-2-1.2-1.7-3-2.5l-2.7-1.1c-2.1-.9-4.2-2.7-4.2-5.7s3.1-6.2,7.4-6.2,4.9,1,6.7,2.6l-2.5,3c-1.4-1-2.8-1.6-4.2-1.6s-2.7.7-2.7,1.9,1.4,1.7,3.2,2.5l2.7,1.1c2.6,1,4.1,2.7,4.1,5.7s-2.9,6.5-7.9,6.5-5.6-1-7.7-3Z"/>
    </g>
  </g>
  <g id="Grupo_49">
    <g class="st5">
      <g id="Grupo_47">
        <path id="Caminho_237" class="st2" d="M151.1,27.1c-12.6-13.9-28.1-22.8-46.7-26C100.4.5,96.3.1,92.1,0c-22,.4-42.8,9.7-57.9,25.6-14.2,15.1-21.8,35.3-21.2,56,.4,15.9,6.3,28.8,13.2,42.8,2.3,4.1,4.7,8.1,7.2,12.1,14.3,20.8,30.2,40.3,47.6,58.5l6.7,7.1c1.3,1.5,2.7,2.9,4.2,4.2v-.2c1.2-.9,3.1-3.1,4.2-4.2l8-8.5c5.2-5.6,10.4-11.4,15.4-17.2,11-12.5,21.6-25.5,30.7-39.5,1.3-1.9,2.5-3.8,3.7-5.8,1.2-2.1,2.4-4.4,3.7-6.3,7.8-14.6,12.4-24.8,13.2-41.6,1-20.5-6.1-40.6-19.7-55.9M92.7,131.1c-30,0-54.4-24.3-54.4-54.4,0-30,24.3-54.4,54.4-54.4,30,0,54.4,24.3,54.4,54.4s-24.3,54.4-54.4,54.4h0"/>
      </g>
    </g>
  </g>
  <line id="Linha_6" class="st0" x1="9.5" y1="240.3" x2="174.5" y2="240.3"/>
  <g id="Grupo_66">
    <g class="st3">
      <g id="Grupo_65">
        <path id="Caminho_261" class="st2" d="M120.7,103.9c-.2.2-.5.3-.7.3,0,0-.2,0-.3,0l-16.7-4.4.7-1.9,1.5-4,3.7-.9c.4,0,.7-.4.8-.8l.9-3.7,4-1.7,1.9-.8,4.5,17c0,.4,0,.7-.3,1ZM85.2,53.8l-8.3-8.3c-1.7-1.7-4.5-1.7-6.2,0l-8.4,8.4c-1.7,1.7-1.7,4.5,0,6.2l8.3,8.3.4-.4,13.8-13.8.4-.4ZM110.6,86.1l3.1-1.3.9-.4.6-.3.5-.2-29.1-28.8-1.5,1.4-2.6,2.6,28,27ZM76,65.9l-2.6,2.6-1.5,1.5,29.1,29.2v-.3c0,0,.6-1.3.6-1.3l.2-.5,1.4-3.9-27.2-27.2ZM77.5,64.4l27.3,27.4,3-.7.9-3.6c0,0,0-.1,0-.2l-27.5-26.6-3.7,3.7Z"/>
      </g>
    </g>
  </g>
</svg>