<?xml version="1.0" encoding="UTF-8"?>
<svg id="BT" xmlns="http://www.w3.org/2000/svg" version="1.1" xmlns:xlink="http://www.w3.org/1999/xlink" viewBox="0 0 165 293.8">
  <!-- Generator: Adobe Illustrator 30.3.0, SVG Export Plug-In . SVG Version: 2.1.3 Build 182)  -->
  <defs>
    <style>
      .st0 {
        stroke: #fff;
        stroke-width: 3px;
      }

      .st0, .st1 {
        fill: none;
      }

      .st2 {
        fill: #fff;
      }

      .st3 {
        clip-path: url(#clippath-1);
      }

      .st4 {
        isolation: isolate;
      }

      .st5 {
        clip-path: url(#clippath);
      }
    </style>
    <clipPath id="clippath">
      <rect class="st1" x="3.5" y="0" width="157.9" height="206.4"/>
    </clipPath>
    <clipPath id="clippath-1">
      <rect class="st1" x="48.5" y="50.8" width="68" height="60"/>
    </clipPath>
  </defs>
  <g id="Exemplo" class="st4">
    <g class="st4">
      <path class="st2" d="M13.2,262.9h13.1v4h-8.4v4.2h7.1v3.9h-7.1v4.8h8.7v4h-13.4v-20.9Z"/>
      <path class="st2" d="M36,273l-5.4-10.1h5.2l1.8,3.9c.5,1,.9,2,1.5,3.4h.1c.5-1.3.9-2.4,1.3-3.4l1.7-3.9h5l-5.4,10.4,5.8,10.5h-5.2l-2.1-4.3c-.5-1.1-1-2.1-1.6-3.4h-.1c-.5,1.3-1,2.3-1.4,3.4l-2,4.3h-5.1l5.8-10.7Z"/>
      <path class="st2" d="M52.1,262.9h13.1v4h-8.4v4.2h7.1v3.9h-7.1v4.8h8.7v4h-13.4v-20.9Z"/>
      <path class="st2" d="M71.2,262.9h5.2l3.3,9.3c.4,1.2.8,2.5,1.2,3.8h.1c.4-1.3.7-2.6,1.1-3.8l3.3-9.3h5.2v20.9h-4.3v-7.6c0-2,.4-5.6.6-7.6h-.1l-1.7,5.5-2.9,8h-2.8l-2.9-8-1.6-5.5h-.1c.3,2,.6,5.6.6,7.6v7.6h-4.2v-20.9Z"/>
      <path class="st2" d="M97.2,262.9h7.2c4.6,0,8.3,1.7,8.3,6.7s-3.7,7.1-8.2,7.1h-2.6v7.1h-4.7v-20.9ZM104.2,272.9c2.6,0,3.8-1.2,3.8-3.3s-1.4-3-4-3h-2.2v6.3h2.3Z"/>
      <path class="st2" d="M117.8,262.9h4.7v16.9h8.3v4h-13v-20.9Z"/>
      <path class="st2" d="M133.9,273.2c0-6.8,3.8-10.7,9.5-10.7s9.5,3.9,9.5,10.7-3.8,10.9-9.5,10.9-9.5-4.1-9.5-10.9ZM148,273.2c0-4.2-1.8-6.7-4.6-6.7s-4.6,2.5-4.6,6.7,1.8,6.8,4.6,6.8,4.6-2.7,4.6-6.8Z"/>
    </g>
  </g>
  <g id="Grupo_49">
    <g class="st5">
      <g id="Grupo_47">
        <path id="Caminho_237" class="st2" d="M141.6,27.1c-12.6-13.9-28.1-22.8-46.7-26C90.9.5,86.8.1,82.6,0c-22,.4-42.8,9.7-57.9,25.6C10.5,40.8,2.9,60.9,3.5,81.7c.4,15.9,6.3,28.8,13.2,42.8,2.3,4.1,4.7,8.1,7.2,12.1,14.3,20.8,30.2,40.3,47.6,58.5l6.7,7.1c1.3,1.5,2.7,2.9,4.2,4.2v-.2c1.2-.9,3.1-3.1,4.2-4.2l8-8.5c5.2-5.6,10.4-11.4,15.4-17.2,11-12.5,21.6-25.5,30.7-39.5,1.3-1.9,2.5-3.8,3.7-5.8,1.2-2.1,2.4-4.4,3.7-6.3,7.8-14.6,12.4-24.8,13.2-41.6,1-20.5-6.1-40.6-19.7-55.9M83.2,131.1c-30,0-54.4-24.3-54.4-54.4,0-30,24.3-54.4,54.4-54.4,30,0,54.4,24.3,54.4,54.4s-24.3,54.4-54.4,54.4h0"/>
      </g>
    </g>
  </g>
  <line id="Linha_6" class="st0" y1="240.3" x2="165" y2="240.3"/>
  <g id="Grupo_63">
    <g class="st3">
      <g id="Grupo_63-2">
        <path id="Caminho_257" class="st2" d="M50.5,90.2c-2.7-2.7-2.7-7,0-9.6,2.7-2.7,7-2.7,9.6,0h0l13.1,13.1,31.1-40.2c2.3-3,6.6-3.5,9.5-1.2,3,2.3,3.5,6.6,1.2,9.5h0l-35.5,46c-.3.4-.6.8-.9,1.1-2.7,2.7-7,2.7-9.6,0l-18.6-18.5Z"/>
      </g>
    </g>
  </g>
</svg>