<?xml version="1.0" encoding="UTF-8"?>
<svg id="Camada_1" xmlns="http://www.w3.org/2000/svg" version="1.1" xmlns:xlink="http://www.w3.org/1999/xlink" viewBox="0 0 178 293.8">
  <!-- Generator: Adobe Illustrator 30.3.0, SVG Export Plug-In . SVG Version: 2.1.3 Build 182)  -->
  <defs>
    <style>
      .st0 {
        stroke: #fff;
        stroke-width: 3px;
      }

      .st0, .st1 {
        fill: none;
      }

      .st2 {
        fill: #fff;
      }

      .st3 {
        clip-path: url(#clippath-1);
      }

      .st4 {
        isolation: isolate;
      }

      .st5 {
        clip-path: url(#clippath);
      }
    </style>
    <clipPath id="clippath">
      <rect class="st1" x="10" y="0" width="157.9" height="206.4"/>
    </clipPath>
    <clipPath id="clippath-1">
      <rect class="st1" x="54" y="36.8" width="70" height="70"/>
    </clipPath>
  </defs>
  <g id="BT">
    <g id="Download" class="st4">
      <g class="st4">
        <path class="st2" d="M3.3,262.9h5.9c6.4,0,10.5,3.2,10.5,10.3s-4.1,10.5-10.2,10.5H3.3v-20.9ZM8.9,280c3.6,0,5.9-1.7,5.9-6.7s-2.4-6.5-5.9-6.5h-.9v13.2h.9Z"/>
        <path class="st2" d="M24.2,273.2c0-6.8,3.8-10.7,9.5-10.7s9.5,3.9,9.5,10.7-3.8,10.9-9.5,10.9-9.5-4.1-9.5-10.9ZM38.3,273.2c0-4.2-1.8-6.7-4.6-6.7s-4.6,2.5-4.6,6.7,1.8,6.8,4.6,6.8,4.6-2.7,4.6-6.8Z"/>
        <path class="st2" d="M46.7,262.9h4.9l1.4,9.7c.3,2.2.6,4.4.8,6.7h.1c.4-2.3.8-4.5,1.2-6.7l2.2-9.7h4.2l2.1,9.7c.4,2.1.9,4.4,1.2,6.7h.1c.2-2.3.5-4.5.8-6.7l1.5-9.7h4.6l-3.7,20.9h-6.1l-2-9.5c-.3-1.6-.6-3.2-.8-4.9h-.1c-.2,1.7-.4,3.4-.8,4.9l-2,9.5h-6l-3.8-20.9Z"/>
        <path class="st2" d="M76.3,262.9h4.9l5.3,10.3c.7,1.4,1.4,3.1,2,4.7h.1c-.2-2.2-.6-5.1-.6-7.6v-7.4h4.5v20.9h-4.9l-5.3-10.3c-.7-1.4-1.4-3.1-2.1-4.7h-.1c.3,2.3.6,5.1.6,7.6v7.4h-4.5v-20.9Z"/>
        <path class="st2" d="M99.2,262.9h4.7v16.9h8.3v4h-13v-20.9Z"/>
        <path class="st2" d="M115.2,273.2c0-6.8,3.8-10.7,9.5-10.7s9.5,3.9,9.5,10.7-3.8,10.9-9.5,10.9-9.5-4.1-9.5-10.9ZM129.3,273.2c0-4.2-1.8-6.7-4.6-6.7s-4.6,2.5-4.6,6.7,1.8,6.8,4.6,6.8,4.6-2.7,4.6-6.8Z"/>
        <path class="st2" d="M143.3,262.9h5.7l6.5,20.9h-5l-1.3-5h-6.4l-1.3,5h-4.8l6.5-20.9ZM143.8,275.1h4.4l-.5-1.9c-.6-2.1-1.2-4.5-1.7-6.7h-.1c-.5,2.2-1.1,4.6-1.6,6.7l-.5,1.9Z"/>
        <path class="st2" d="M159.3,262.9h5.9c6.4,0,10.5,3.2,10.5,10.3s-4.1,10.5-10.2,10.5h-6.1v-20.9ZM164.9,280c3.6,0,5.9-1.7,5.9-6.7s-2.4-6.5-5.9-6.5h-.9v13.2h.9Z"/>
      </g>
    </g>
    <g id="Grupo_49">
      <g class="st5">
        <g id="Grupo_47">
          <path id="Caminho_237" class="st2" d="M148.1,27.1c-12.6-13.9-28.1-22.8-46.7-26C97.4.5,93.3.1,89.1,0c-22,.4-42.8,9.7-57.9,25.6-14.2,15.1-21.8,35.3-21.2,56,.4,15.9,6.3,28.8,13.2,42.8,2.3,4.1,4.7,8.1,7.2,12.1,14.3,20.8,30.2,40.3,47.6,58.5l6.7,7.1c1.3,1.5,2.7,2.9,4.2,4.2v-.2c1.2-.9,3.1-3.1,4.2-4.2l8-8.5c5.2-5.6,10.4-11.4,15.4-17.2,11-12.5,21.6-25.5,30.7-39.5,1.3-1.9,2.5-3.8,3.7-5.8,1.2-2.1,2.4-4.4,3.7-6.3,7.8-14.6,12.4-24.8,13.2-41.6,1-20.5-6.1-40.6-19.7-55.9M89.7,131.1c-30,0-54.4-24.3-54.4-54.4,0-30,24.3-54.4,54.4-54.4,30,0,54.4,24.3,54.4,54.4s-24.3,54.4-54.4,54.4h0"/>
        </g>
      </g>
    </g>
    <line id="Linha_6" class="st0" x1="6.5" y1="240.3" x2="171.5" y2="240.3"/>
    <g id="Grupo_60">
      <g class="st3">
        <g id="Grupo_60-2">
          <path id="Caminho_252" class="st2" d="M124,84.9v8.8c0,7.2-5.9,13.1-13.1,13.1h-43.8c-7.2,0-13.1-5.9-13.1-13.1v-8.8c0-2.4,2-4.4,4.4-4.4s4.4,2,4.4,4.4v8.8c0,2.4,2,4.4,4.4,4.4h43.8c2.4,0,4.4-2,4.4-4.4v-8.8c0-2.4,2-4.4,4.4-4.4s4.4,2,4.4,4.4M85.9,88h.1c.2.2.4.4.6.5.2.2.5.3.7.5,1.3.6,2.9.5,4-.5.2-.1.4-.2.6-.4h0c0,0,13-12.4,13-12.4,1.8-1.6,1.9-4.4.3-6.2-1.6-1.8-4.4-1.9-6.2-.3,0,0,0,0,0,0h0s-5.8,5.4-5.8,5.4v-33.6c0-2.4-2-4.4-4.4-4.4s-4.4,2-4.4,4.4v33.6l-5.7-5.4c-1.8-1.6-4.5-1.6-6.2.2-1.6,1.7-1.6,4.5.2,6.1h0s13,12.3,13,12.3Z"/>
        </g>
      </g>
    </g>
  </g>
</svg>