<?xml version="1.0" encoding="UTF-8"?>
<svg id="BT" xmlns="http://www.w3.org/2000/svg" version="1.1" xmlns:xlink="http://www.w3.org/1999/xlink" viewBox="0 0 200 293.8">
  <!-- Generator: Adobe Illustrator 30.3.0, SVG Export Plug-In . SVG Version: 2.1.3 Build 182)  -->
  <defs>
    <style>
      .st0 {
        stroke: #fff;
        stroke-width: 3px;
      }

      .st0, .st1 {
        fill: none;
      }

      .st2 {
        fill: #fff;
      }

      .st3 {
        clip-path: url(#clippath-1);
      }

      .st4 {
        isolation: isolate;
      }

      .st5 {
        clip-path: url(#clippath);
      }
    </style>
    <clipPath id="clippath">
      <rect class="st1" x="21" y="0" width="157.9" height="206.4"/>
    </clipPath>
    <clipPath id="clippath-1">
      <rect class="st1" x="91.1" y="41.8" width="17.7" height="75"/>
    </clipPath>
  </defs>
  <g id="Importante" class="st4">
    <g class="st4">
      <path class="st2" d="M2.5,262.9h4.7v20.9H2.5v-20.9Z"/>
      <path class="st2" d="M13.8,262.9h5.2l3.3,9.3c.4,1.2.8,2.5,1.2,3.8h.1c.4-1.3.7-2.6,1.1-3.8l3.3-9.3h5.2v20.9h-4.3v-7.6c0-2,.4-5.6.6-7.6h-.1l-1.7,5.5-2.9,8h-2.8l-2.9-8-1.6-5.5h-.1c.3,2,.6,5.6.6,7.6v7.6h-4.2v-20.9Z"/>
      <path class="st2" d="M39.7,262.9h7.2c4.6,0,8.3,1.7,8.3,6.7s-3.7,7.1-8.2,7.1h-2.6v7.1h-4.7v-20.9ZM46.8,272.9c2.6,0,3.8-1.2,3.8-3.3s-1.4-3-4-3h-2.2v6.3h2.3Z"/>
      <path class="st2" d="M59.4,273.2c0-6.8,3.8-10.7,9.5-10.7s9.5,3.9,9.5,10.7-3.8,10.9-9.5,10.9-9.5-4.1-9.5-10.9ZM73.5,273.2c0-4.2-1.8-6.7-4.6-6.7s-4.6,2.5-4.6,6.7,1.8,6.8,4.6,6.8,4.6-2.7,4.6-6.8Z"/>
      <path class="st2" d="M83.9,262.9h7.5c4.4,0,8,1.5,8,6.5s-1.5,5-3.7,6l4.7,8.4h-5.3l-4-7.5h-2.6v7.5h-4.7v-20.9ZM91,272.5c2.5,0,3.8-1.1,3.8-3.1s-1.3-2.8-3.8-2.8h-2.4v5.9h2.4Z"/>
      <path class="st2" d="M108.6,266.9h-5.7v-4h16.2v4h-5.7v16.9h-4.7v-16.9Z"/>
      <path class="st2" d="M126.5,262.9h5.7l6.5,20.9h-5l-1.3-5h-6.4l-1.3,5h-4.8l6.5-20.9ZM127,275.1h4.4l-.5-1.9c-.6-2.1-1.2-4.5-1.7-6.7h-.1c-.5,2.2-1.1,4.6-1.6,6.7l-.5,1.9Z"/>
      <path class="st2" d="M142.6,262.9h4.9l5.3,10.3c.7,1.4,1.4,3.1,2,4.7h.1c-.2-2.2-.6-5.1-.6-7.6v-7.4h4.5v20.9h-4.9l-5.3-10.3c-.7-1.4-1.4-3.1-2.1-4.7h-.1c.3,2.3.6,5.1.6,7.6v7.4h-4.5v-20.9Z"/>
      <path class="st2" d="M169.5,266.9h-5.7v-4h16.2v4h-5.7v16.9h-4.7v-16.9Z"/>
      <path class="st2" d="M184.9,262.9h13.1v4h-8.4v4.2h7.1v3.9h-7.1v4.8h8.7v4h-13.4v-20.9Z"/>
    </g>
  </g>
  <g id="Grupo_49">
    <g class="st5">
      <g id="Grupo_47">
        <path id="Caminho_237" class="st2" d="M159.1,27.1c-12.6-13.9-28.1-22.8-46.7-26C108.4.5,104.3.1,100.1,0c-22,.4-42.8,9.7-57.9,25.6-14.2,15.1-21.8,35.3-21.2,56,.4,15.9,6.3,28.8,13.2,42.8,2.3,4.1,4.7,8.1,7.2,12.1,14.3,20.8,30.2,40.3,47.6,58.5l6.7,7.1c1.3,1.5,2.7,2.9,4.2,4.2v-.2c1.2-.9,3.1-3.1,4.2-4.2l8-8.5c5.2-5.6,10.4-11.4,15.4-17.2,11-12.5,21.6-25.5,30.7-39.5,1.3-1.9,2.5-3.8,3.7-5.8,1.2-2.1,2.4-4.4,3.7-6.3,7.8-14.6,12.4-24.8,13.2-41.6,1-20.5-6.1-40.6-19.7-55.9M100.7,131.1c-30,0-54.4-24.3-54.4-54.4,0-30,24.3-54.4,54.4-54.4,30,0,54.4,24.3,54.4,54.4s-24.3,54.4-54.4,54.4h0"/>
      </g>
    </g>
  </g>
  <line id="Linha_6" class="st0" x1="17.5" y1="240.3" x2="182.5" y2="240.3"/>
  <g id="Grupo_55">
    <g class="st3">
      <g id="Grupo_55-2">
        <path id="Caminho_247" class="st2" d="M106.4,110.3c0,3.6-2.9,6.4-6.4,6.4-3.6,0-6.4-2.9-6.4-6.4,0-3.6,2.9-6.4,6.4-6.4,3.6,0,6.4,2.9,6.4,6.4h0"/>
        <path id="Caminho_248" class="st2" d="M108.8,50.3c-.2-1.8-.8-3.5-1.9-5-1.6-2.2-4.2-3.5-6.9-3.6-2.7,0-5.1,1.3-6.8,3.4-1.2,1.5-1.9,3.3-2.1,5.2,0,.5,0,1,0,1.5l3.7,41.9c.3,2.9,2.8,5,5.7,4.7,2.5-.2,4.5-2.2,4.7-4.7l3.7-41.9c0-.5,0-1,0-1.5"/>
      </g>
    </g>
  </g>
</svg>