<?xml version="1.0" encoding="UTF-8"?>
<svg id="BT" xmlns="http://www.w3.org/2000/svg" version="1.1" xmlns:xlink="http://www.w3.org/1999/xlink" viewBox="0 0 190 293.8">
  <!-- Generator: Adobe Illustrator 30.3.0, SVG Export Plug-In . SVG Version: 2.1.3 Build 182)  -->
  <defs>
    <style>
      .st0 {
        stroke: #fff;
        stroke-width: 3px;
      }

      .st0, .st1 {
        fill: none;
      }

      .st2 {
        fill: #fff;
      }

      .st3 {
        clip-path: url(#clippath-1);
      }

      .st4 {
        isolation: isolate;
      }

      .st5 {
        clip-path: url(#clippath);
      }
    </style>
    <clipPath id="clippath">
      <rect class="st1" x="16" y="0" width="157.9" height="206.4"/>
    </clipPath>
    <clipPath id="clippath-1">
      <rect class="st1" x="55" y="39.8" width="80" height="68"/>
    </clipPath>
  </defs>
  <g id="Legislação" class="st4">
    <g class="st4">
      <path class="st2" d="M2.8,262.9h4.7v16.9h8.3v4H2.8v-20.9Z"/>
      <path class="st2" d="M21,262.9h13.1v4h-8.4v4.2h7.1v3.9h-7.1v4.8h8.7v4h-13.4v-20.9Z"/>
      <path class="st2" d="M39.1,273.5c0-6.9,4.6-10.9,10.2-10.9s5.2,1.2,6.6,2.7l-2.5,2.8c-1.1-.9-2.1-1.5-3.9-1.5-3.2,0-5.5,2.5-5.5,6.7s2,6.8,5.9,6.8,1.7-.2,2.2-.6v-3.6h-3.5v-3.8h7.6v9.6c-1.4,1.4-4,2.5-6.9,2.5-5.7,0-10.2-3.7-10.2-10.7Z"/>
      <path class="st2" d="M62.2,262.9h4.7v20.9h-4.7v-20.9Z"/>
      <path class="st2" d="M72,281.1l2.5-3.1c1.5,1.3,3.5,2,5.3,2s2.9-.8,2.9-2-1.2-1.7-3-2.5l-2.7-1.1c-2.1-.9-4.2-2.7-4.2-5.7s3.1-6.2,7.4-6.2,4.9,1,6.7,2.6l-2.5,3c-1.4-1-2.8-1.6-4.2-1.6s-2.7.7-2.7,1.9,1.4,1.7,3.2,2.5l2.7,1.1c2.6,1,4.1,2.7,4.1,5.7s-2.9,6.5-7.9,6.5-5.6-1-7.7-3Z"/>
      <path class="st2" d="M92.8,262.9h4.7v16.9h8.3v4h-13v-20.9Z"/>
      <path class="st2" d="M114.6,262.9h5.7l6.5,20.9h-5l-1.3-5h-6.4l-1.3,5h-4.8l6.5-20.9ZM115.1,275.1h4.4l-.5-1.9c-.6-2.1-1.2-4.5-1.7-6.7h-.1c-.5,2.2-1.1,4.6-1.6,6.7l-.5,1.9Z"/>
      <path class="st2" d="M135.4,289.5c2.5-.1,3.3-.5,3.3-1.4s-.5-1.1-2.5-1.3l1.3-2.8c-4.6-.7-8.2-4.3-8.2-10.6s4.6-10.9,9.9-10.9,4.9,1.2,6.3,2.7l-2.5,2.8c-1.1-1-2.2-1.5-3.7-1.5-2.8,0-5.1,2.6-5.1,6.7s2.1,6.8,5.3,6.8,2.9-.7,3.9-1.7l2.4,2.8c-1.5,1.7-3.3,2.7-5.4,2.9l-.7,1.6c1.6.4,2.4,1.1,2.4,2.4,0,2.2-2.3,3.2-6.3,3.3l-.4-1.9Z"/>
      <path class="st2" d="M154.5,262.9h5.7l6.5,20.9h-5l-1.3-5h-6.4l-1.3,5h-4.8l6.5-20.9ZM155.1,259.8c-.6,0-1.1.4-1.2,1.6l-3-.2c.2-3.2,1.8-4.6,4.1-4.6s3.3,1.9,4.4,1.9,1.1-.4,1.2-1.6l3,.2c-.2,3.2-1.8,4.6-4.1,4.6s-3.3-1.9-4.4-1.9ZM155,275.1h4.4l-.5-1.9c-.6-2.1-1.2-4.5-1.7-6.7h-.1c-.5,2.2-1.1,4.6-1.6,6.7l-.5,1.9Z"/>
      <path class="st2" d="M169.2,273.2c0-6.8,3.8-10.7,9.5-10.7s9.5,3.9,9.5,10.7-3.8,10.9-9.5,10.9-9.5-4.1-9.5-10.9ZM183.3,273.2c0-4.2-1.8-6.7-4.6-6.7s-4.6,2.5-4.6,6.7,1.8,6.8,4.6,6.8,4.6-2.7,4.6-6.8Z"/>
    </g>
  </g>
  <g id="Grupo_49">
    <g class="st5">
      <g id="Grupo_47">
        <path id="Caminho_237" class="st2" d="M154.1,27.1c-12.6-13.9-28.1-22.8-46.7-26C103.4.5,99.3.1,95.1,0c-22,.4-42.8,9.7-57.9,25.6-14.2,15.1-21.8,35.3-21.2,56,.4,15.9,6.3,28.8,13.2,42.8,2.3,4.1,4.7,8.1,7.2,12.1,14.3,20.8,30.2,40.3,47.6,58.5l6.7,7.1c1.3,1.5,2.7,2.9,4.2,4.2v-.2c1.2-.9,3.1-3.1,4.2-4.2l8-8.5c5.2-5.6,10.4-11.4,15.4-17.2,11-12.5,21.6-25.5,30.7-39.5,1.3-1.9,2.5-3.8,3.7-5.8,1.2-2.1,2.4-4.4,3.7-6.3,7.8-14.6,12.4-24.8,13.2-41.6,1-20.5-6.1-40.6-19.7-55.9M95.7,131.1c-30,0-54.4-24.3-54.4-54.4,0-30,24.3-54.4,54.4-54.4,30,0,54.4,24.3,54.4,54.4s-24.3,54.4-54.4,54.4h0"/>
      </g>
    </g>
  </g>
  <line id="Linha_6" class="st0" x1="12.5" y1="240.3" x2="177.5" y2="240.3"/>
  <g id="Grupo_59">
    <g class="st3">
      <g id="Grupo_59-2">
        <path id="Caminho_251" class="st2" d="M122.3,51.4h-19.7c-.6-1.8-1.8-3.3-3.4-4.3v-2.9c0-2.2-1.6-4.1-3.8-4.4-2.3-.2-4.4,1.5-4.6,3.8,0,.1,0,.3,0,.4v3.1c-1.6,1-2.8,2.5-3.4,4.3h-19.7l-12.7,22v1c0,7.8,6.3,14.1,14.1,14.1s14.1-6.3,14.1-14.1v-1l-9.8-17h13.9c.6,1.8,1.8,3.3,3.4,4.3v25.7c0,7.9-6.4,14.3-14.3,14.3h-5.3c-1,0-1.9.8-1.9,1.8h0v3.3c0,1,.8,1.9,1.9,1.9h47.7c1,0,1.9-.8,1.9-1.8h0v-3.3c0-1-.8-1.9-1.9-1.9h-5.3c-7.9,0-14.3-6.4-14.3-14.3h0v-25.7c1.6-1,2.8-2.5,3.4-4.3h13.9l-9.8,17v1c0,7.8,6.3,14.1,14.1,14.1,7.8,0,14.1-6.3,14.1-14.1v-1l-12.7-22h0ZM77.9,74.1h-17.5l8.7-15.2,8.8,15.2h0ZM120.9,58.9l8.8,15.2h-17.5s8.8-15.2,8.8-15.2Z"/>
      </g>
    </g>
  </g>
</svg>