<?xml version="1.0" encoding="UTF-8"?>
<svg id="BT" xmlns="http://www.w3.org/2000/svg" version="1.1" xmlns:xlink="http://www.w3.org/1999/xlink" viewBox="0 0 165 293.8">
  <!-- Generator: Adobe Illustrator 30.3.0, SVG Export Plug-In . SVG Version: 2.1.3 Build 182)  -->
  <defs>
    <style>
      .st0 {
        stroke: #fff;
        stroke-width: 3px;
      }

      .st0, .st1 {
        fill: none;
      }

      .st2 {
        fill: #fff;
      }

      .st3 {
        clip-path: url(#clippath-1);
      }

      .st4 {
        isolation: isolate;
      }

      .st5 {
        clip-path: url(#clippath);
      }
    </style>
    <clipPath id="clippath">
      <rect class="st1" x="3.5" y="0" width="157.9" height="206.4"/>
    </clipPath>
    <clipPath id="clippath-1">
      <rect class="st1" x="47.5" y="40.8" width="70" height="70"/>
    </clipPath>
  </defs>
  <g id="Link" class="st4">
    <g class="st4">
      <path class="st2" d="M49,262.9h4.7v16.9h8.3v4h-13v-20.9Z"/>
      <path class="st2" d="M67.2,262.9h4.7v20.9h-4.7v-20.9Z"/>
      <path class="st2" d="M78.4,262.9h4.9l5.3,10.3c.7,1.4,1.4,3.1,2,4.7h.1c-.2-2.2-.6-5.1-.6-7.6v-7.4h4.5v20.9h-4.9l-5.3-10.3c-.7-1.4-1.4-3.1-2.1-4.7h-.1c.3,2.3.6,5.1.6,7.6v7.4h-4.5v-20.9Z"/>
      <path class="st2" d="M101.3,262.9h4.7v8.5h.1l6.2-8.5h5.2l-6.3,8.3,7.5,12.5h-5.2l-5.1-8.8-2.4,3.2v5.6h-4.7v-20.9Z"/>
    </g>
  </g>
  <g id="Grupo_49">
    <g class="st5">
      <g id="Grupo_47">
        <path id="Caminho_237" class="st2" d="M141.6,27.1c-12.6-13.9-28.1-22.8-46.7-26C90.9.5,86.8.1,82.6,0c-22,.4-42.8,9.7-57.9,25.6C10.5,40.8,2.9,60.9,3.5,81.7c.4,15.9,6.3,28.8,13.2,42.8,2.3,4.1,4.7,8.1,7.2,12.1,14.3,20.8,30.2,40.3,47.6,58.5l6.7,7.1c1.3,1.5,2.7,2.9,4.2,4.2v-.2c1.2-.9,3.1-3.1,4.2-4.2l8-8.5c5.2-5.6,10.4-11.4,15.4-17.2,11-12.5,21.6-25.5,30.7-39.5,1.3-1.9,2.5-3.8,3.7-5.8,1.2-2.1,2.4-4.4,3.7-6.3,7.8-14.6,12.4-24.8,13.2-41.6,1-20.5-6.1-40.6-19.7-55.9M83.2,131.1c-30,0-54.4-24.3-54.4-54.4,0-30,24.3-54.4,54.4-54.4,30,0,54.4,24.3,54.4,54.4s-24.3,54.4-54.4,54.4h0"/>
      </g>
    </g>
  </g>
  <line id="Linha_6" class="st0" y1="240.3" x2="165" y2="240.3"/>
  <g class="st3">
    <g id="Grupo_58">
      <path id="Caminho_250" class="st2" d="M113,45.3c-6-6-15.9-6-21.9,0l-8.5,8.5c-4.8,4.8-5.9,12.2-2.7,18.2l-1.1,1.1c-6-3.2-13.4-2.1-18.2,2.7l-8.5,8.5c-6,6.1-5.8,15.9.3,21.9,6,5.9,15.6,5.9,21.6,0l8.5-8.5c4.8-4.8,5.9-12.2,2.7-18.2l1.1-1.1c6,3.2,13.4,2.1,18.2-2.7l8.5-8.5c6-6,6-15.9,0-21.9M76.1,91.4l-8.5,8.5c-2.5,2.6-6.6,2.6-9.2.1-2.6-2.5-2.6-6.6-.1-9.2,0,0,0,0,.1-.1l8.5-8.5c1.2-1.2,2.9-1.9,4.6-1.9,0,0,0,0,0,0l-3.4,3.4c-1.8,1.7-1.8,4.6-.1,6.4,1.7,1.8,4.6,1.8,6.4.1,0,0,0,0,.1-.1l3.4-3.4c0,1.7-.7,3.4-1.9,4.7M106.6,60.8l-8.5,8.5c-1.2,1.2-2.9,1.9-4.6,1.9,0,0,0,0,0,0l4.4-4.4c1.8-1.7,1.9-4.6.1-6.4s-4.6-1.9-6.4-.1c0,0,0,0-.1.1l-4.4,4.4s0,0,0,0c0-1.7.7-3.4,1.9-4.6l8.5-8.5c2.5-2.5,6.6-2.5,9.2,0,2.5,2.5,2.5,6.6,0,9.1"/>
    </g>
  </g>
</svg>