<svg id="BT" xmlns="http://www.w3.org/2000/svg" xmlns:xlink="http://www.w3.org/1999/xlink" width="190" height="293.76" viewBox="0 0 190 293.76">
  <defs>
    <clipPath id="clip-path">
      <rect id="Retângulo_46" data-name="Retângulo 46" width="157.924" height="206.362" fill="#fff"/>
    </clipPath>
    <clipPath id="clip-path-2">
      <rect id="Retângulo_55" data-name="Retângulo 55" width="80.009" height="68" transform="translate(0 0)" fill="#fff"/>
    </clipPath>
  </defs>
  <text id="Legislação" transform="translate(95 283.76)" fill="#fff" font-size="32" font-family="SourceSans3-Bold, 'Source Sans \33 '" font-weight="700" letter-spacing="0.05em"><tspan x="-94.64" y="0">LEGISLAÇÃO</tspan></text>
  <g id="Grupo_49" data-name="Grupo 49" transform="translate(16 0)">
    <g id="Grupo_47" data-name="Grupo 47" transform="translate(0 0)" clip-path="url(#clip-path)">
      <path id="Caminho_237" data-name="Caminho 237" d="M138.1,27.051C125.5,13.144,110.036,4.282,91.426,1.1A102.418,102.418,0,0,0,79.149,0,81.855,81.855,0,0,0,21.228,25.65,78.2,78.2,0,0,0,.039,81.67c.432,15.866,6.3,28.83,13.21,42.763q3.438,6.138,7.191,12.094a463.258,463.258,0,0,0,47.617,58.5l6.709,7.09A52.082,52.082,0,0,0,79,206.362l.059-.16c1.114-.936,3.056-3.1,4.117-4.229l7.957-8.544q7.862-8.445,15.393-17.187c10.965-12.514,21.646-25.466,30.664-39.472,1.28-1.927,2.515-3.813,3.693-5.806,1.227-2.071,2.37-4.368,3.721-6.331,7.766-14.562,12.387-24.825,13.222-41.641A78.259,78.259,0,0,0,138.1,27.051M79.715,131.127A54.384,54.384,0,1,1,134.1,76.743a54.384,54.384,0,0,1-54.384,54.384" transform="translate(0 0)" fill="#fff"/>
    </g>
  </g>
  <line id="Linha_6" data-name="Linha 6" x2="165" transform="translate(12.5 240.26)" fill="none" stroke="#fff" stroke-width="3"/>
  <g id="Grupo_59" data-name="Grupo 59" transform="translate(54.996 39.76)">
    <g id="Grupo_59-2" data-name="Grupo 59" clip-path="url(#clip-path-2)">
      <path id="Caminho_251" data-name="Caminho 251" d="M67.308,11.684H47.656a8.073,8.073,0,0,0-3.41-4.336V4.43A4.37,4.37,0,0,0,40.418.02a4.247,4.247,0,0,0-4.664,4.226v3.1a8.074,8.074,0,0,0-3.411,4.336H12.691L0,33.668v1.039a14.137,14.137,0,1,0,28.274,0V33.668l-9.8-16.984H32.349a8.068,8.068,0,0,0,3.41,4.336V46.68A14.284,14.284,0,0,1,21.474,60.965H16.138a1.851,1.851,0,0,0-1.852,1.851v3.332A1.851,1.851,0,0,0,16.138,68H63.872a1.851,1.851,0,0,0,1.852-1.852V62.816a1.851,1.851,0,0,0-1.852-1.851H58.536A14.284,14.284,0,0,1,44.251,46.68V21.02a8.068,8.068,0,0,0,3.41-4.336H61.54l-9.8,16.984v1.039a14.137,14.137,0,0,0,28.274,0V33.668L67.319,11.684ZM22.882,34.34H5.386l8.75-15.152,8.75,15.152Zm42.98-15.156,8.75,15.152h-17.5l8.75-15.152Z" fill="#fff"/>
    </g>
  </g>
</svg>
