<svg xmlns="http://www.w3.org/2000/svg" xmlns:xlink="http://www.w3.org/1999/xlink" width="236" height="293.76" viewBox="0 0 236 293.76">
  <defs>
    <clipPath id="clip-path">
      <rect id="Retângulo_46" data-name="Retângulo 46" width="157.924" height="206.362" fill="#fff"/>
    </clipPath>
    <clipPath id="clip-path-2">
      <rect id="Retângulo_49" data-name="Retângulo 49" width="66" height="74.453" fill="#fff"/>
    </clipPath>
  </defs>
  <g id="BT" transform="translate(1)">
    <text id="Para_refletir" data-name="Para refletir" transform="translate(117 283.76)" fill="#fff" font-size="32" font-family="SourceSans3-Bold, 'Source Sans \33 '" font-weight="700" letter-spacing="0.05em"><tspan x="-117.216" y="0">PARA REFLETIR</tspan></text>
    <g id="Grupo_49" data-name="Grupo 49" transform="translate(38)">
      <g id="Grupo_47" data-name="Grupo 47" transform="translate(0 0)" clip-path="url(#clip-path)">
        <path id="Caminho_237" data-name="Caminho 237" d="M138.1,27.051C125.5,13.144,110.036,4.282,91.426,1.1A102.418,102.418,0,0,0,79.149,0,81.855,81.855,0,0,0,21.228,25.65,78.2,78.2,0,0,0,.039,81.67c.432,15.866,6.3,28.83,13.21,42.763q3.438,6.138,7.191,12.094a463.258,463.258,0,0,0,47.617,58.5l6.709,7.09A52.082,52.082,0,0,0,79,206.362l.059-.16c1.114-.936,3.056-3.1,4.117-4.229l7.957-8.544q7.862-8.445,15.393-17.187c10.965-12.514,21.646-25.466,30.664-39.472,1.28-1.927,2.515-3.813,3.693-5.806,1.227-2.071,2.37-4.368,3.721-6.331,7.766-14.562,12.387-24.825,13.222-41.641A78.259,78.259,0,0,0,138.1,27.051M79.715,131.127A54.384,54.384,0,1,1,134.1,76.743a54.384,54.384,0,0,1-54.384,54.384" transform="translate(0 0)" fill="#fff"/>
      </g>
    </g>
    <line id="Linha_6" data-name="Linha 6" x2="165" transform="translate(34.5 240.26)" fill="none" stroke="#fff" stroke-width="3"/>
    <g id="Grupo_50" data-name="Grupo 50" transform="translate(82.308 37.678)">
      <g id="Grupo_52" data-name="Grupo 52" transform="translate(0 0)" clip-path="url(#clip-path-2)">
        <path id="Caminho_245" data-name="Caminho 245" d="M3.8,49.156l1.984.643v10.41a8.015,8.015,0,0,0,8.014,7.99h8.022l1.246,3.967a3.179,3.179,0,1,0,6.1-1.785l-1.9-6.26a3.174,3.174,0,0,0-3.055-2.269H13.793a1.666,1.666,0,0,1-1.666-1.666v-12.7a3.174,3.174,0,0,0-2.19-3.015L6.652,43.435l5.213-11.7a3.293,3.293,0,0,0,.278-1.381A23.8,23.8,0,0,1,23.2,9.99a23.238,23.238,0,0,1,12.7-3.642h.071A23.8,23.8,0,0,1,59.607,28.637a23.534,23.534,0,0,1-5.7,16.948,5.86,5.86,0,0,0-1.238,2.428,6.059,6.059,0,0,0,.071,3.174L57.8,68.056a3.195,3.195,0,0,0,6.141-1.761L59.179,50.743a2.3,2.3,0,0,1,.413-2.071A29.8,29.8,0,0,0,65.939,28.3,30.151,30.151,0,0,0,35.97,0h-.079a29.6,29.6,0,0,0-16.774,5.07,30.151,30.151,0,0,0-13.33,24.7L.526,41.594A5.7,5.7,0,0,0,0,43.736,5.554,5.554,0,0,0,3.8,49.156" transform="translate(0 0)" fill="#fff"/>
        <path id="Caminho_246" data-name="Caminho 246" d="M58.318,33.414A17.457,17.457,0,0,0,36.26,16.6,17.067,17.067,0,0,0,24.58,27.288a4.554,4.554,0,0,0,4.277,6.126H38.965a9.379,9.379,0,0,1,9.363,9.379,3.221,3.221,0,0,0,5.649,2.1,17.346,17.346,0,0,0,4.34-11.481" transform="translate(-5.019 -3.301)" fill="#fff"/>
      </g>
    </g>
  </g>
</svg>
