<?xml version="1.0" encoding="UTF-8"?>
<svg id="Camada_1" xmlns="http://www.w3.org/2000/svg" version="1.1" xmlns:xlink="http://www.w3.org/1999/xlink" viewBox="0 0 236 293.8">
  <!-- Generator: Adobe Illustrator 30.3.0, SVG Export Plug-In . SVG Version: 2.1.3 Build 182)  -->
  <defs>
    <style>
      .st0 {
        stroke: #fff;
        stroke-width: 3px;
      }

      .st0, .st1 {
        fill: none;
      }

      .st2 {
        fill: #fff;
      }

      .st3 {
        clip-path: url(#clippath-1);
      }

      .st4 {
        isolation: isolate;
      }

      .st5 {
        clip-path: url(#clippath);
      }
    </style>
    <clipPath id="clippath">
      <rect class="st1" x="39" y="0" width="157.9" height="206.4"/>
    </clipPath>
    <clipPath id="clippath-1">
      <rect class="st1" x="83.3" y="37.7" width="66" height="74.5"/>
    </clipPath>
  </defs>
  <g id="BT">
    <g id="Para_refletir" class="st4">
      <g class="st4">
        <path class="st2" d="M3.2,262.9h7.2c4.6,0,8.3,1.7,8.3,6.7s-3.7,7.1-8.2,7.1h-2.6v7.1H3.2v-20.9ZM10.3,272.9c2.6,0,3.8-1.2,3.8-3.3s-1.4-3-4-3h-2.2v6.3h2.3Z"/>
        <path class="st2" d="M26.4,262.9h5.7l6.5,20.9h-5l-1.3-5h-6.4l-1.3,5h-4.8l6.5-20.9ZM27,275.1h4.4l-.5-1.9c-.6-2.1-1.2-4.5-1.7-6.7h-.1c-.5,2.2-1.1,4.6-1.6,6.7l-.5,1.9Z"/>
        <path class="st2" d="M42.5,262.9h7.5c4.4,0,8,1.5,8,6.5s-1.5,5-3.7,6l4.7,8.4h-5.3l-4-7.5h-2.6v7.5h-4.7v-20.9ZM49.6,272.5c2.5,0,3.8-1.1,3.8-3.1s-1.3-2.8-3.8-2.8h-2.4v5.9h2.4Z"/>
        <path class="st2" d="M67.3,262.9h5.7l6.5,20.9h-5l-1.3-5h-6.4l-1.3,5h-4.8l6.5-20.9ZM67.9,275.1h4.4l-.5-1.9c-.6-2.1-1.2-4.5-1.7-6.7h-.1c-.5,2.2-1.1,4.6-1.6,6.7l-.5,1.9Z"/>
        <path class="st2" d="M91.4,262.9h7.5c4.4,0,8,1.5,8,6.5s-1.5,5-3.7,6l4.7,8.4h-5.3l-4-7.5h-2.6v7.5h-4.7v-20.9ZM98.5,272.5c2.5,0,3.8-1.1,3.8-3.1s-1.3-2.8-3.8-2.8h-2.4v5.9h2.4Z"/>
        <path class="st2" d="M112.6,262.9h13.1v4h-8.4v4.2h7.1v3.9h-7.1v4.8h8.7v4h-13.4v-20.9Z"/>
        <path class="st2" d="M131.8,262.9h13.2v4h-8.4v4.8h7.2v4h-7.2v8.1h-4.7v-20.9Z"/>
        <path class="st2" d="M150.1,262.9h4.7v16.9h8.3v4h-13v-20.9Z"/>
        <path class="st2" d="M168.3,262.9h13.1v4h-8.4v4.2h7.1v3.9h-7.1v4.8h8.7v4h-13.4v-20.9Z"/>
        <path class="st2" d="M191.5,266.9h-5.7v-4h16.2v4h-5.7v16.9h-4.7v-16.9Z"/>
        <path class="st2" d="M206.8,262.9h4.7v20.9h-4.7v-20.9Z"/>
        <path class="st2" d="M218.1,262.9h7.5c4.4,0,8,1.5,8,6.5s-1.5,5-3.7,6l4.7,8.4h-5.3l-4-7.5h-2.6v7.5h-4.7v-20.9ZM225.2,272.5c2.5,0,3.8-1.1,3.8-3.1s-1.3-2.8-3.8-2.8h-2.4v5.9h2.4Z"/>
      </g>
    </g>
    <g id="Grupo_49">
      <g class="st5">
        <g id="Grupo_47">
          <path id="Caminho_237" class="st2" d="M177.1,27.1c-12.6-13.9-28.1-22.8-46.7-26C126.4.5,122.3.1,118.1,0c-22,.4-42.8,9.7-57.9,25.6-14.2,15.1-21.8,35.3-21.2,56,.4,15.9,6.3,28.8,13.2,42.8,2.3,4.1,4.7,8.1,7.2,12.1,14.3,20.8,30.2,40.3,47.6,58.5l6.7,7.1c1.3,1.5,2.7,2.9,4.2,4.2v-.2c1.2-.9,3.1-3.1,4.2-4.2l8-8.5c5.2-5.6,10.4-11.4,15.4-17.2,11-12.5,21.6-25.5,30.7-39.5,1.3-1.9,2.5-3.8,3.7-5.8,1.2-2.1,2.4-4.4,3.7-6.3,7.8-14.6,12.4-24.8,13.2-41.6,1-20.5-6.1-40.6-19.7-55.9M118.7,131.1c-30,0-54.4-24.3-54.4-54.4,0-30,24.3-54.4,54.4-54.4,30,0,54.4,24.3,54.4,54.4s-24.3,54.4-54.4,54.4h0"/>
        </g>
      </g>
    </g>
    <line id="Linha_6" class="st0" x1="35.5" y1="240.3" x2="200.5" y2="240.3"/>
    <g id="Grupo_50">
      <g class="st3">
        <g id="Grupo_52">
          <path id="Caminho_245" class="st2" d="M87.1,86.8l2,.6v10.4c0,4.4,3.6,8,8,8h8l1.2,4c.4,1.7,2.2,2.7,3.9,2.3,1.7-.4,2.7-2.2,2.3-3.9,0,0,0-.1,0-.2l-1.9-6.3c-.4-1.4-1.6-2.3-3.1-2.3h-10.4c-.9,0-1.7-.7-1.7-1.7h0v-12.7c0-1.4-.9-2.6-2.2-3l-3.3-1,5.2-11.7c.2-.4.3-.9.3-1.4,0-8.2,4.1-15.9,11.1-20.4,3.8-2.4,8.2-3.7,12.7-3.6h0c12.5,0,22.8,9.8,23.6,22.3.4,6.2-1.6,12.3-5.7,16.9-.6.7-1,1.5-1.2,2.4-.3,1-.2,2.1,0,3.2l5.1,16.9c.5,1.7,2.3,2.6,4,2.1,1.6-.5,2.6-2.2,2.1-3.9l-4.8-15.6c-.2-.7,0-1.5.4-2.1,4.6-5.8,6.8-13,6.3-20.4-1-15.9-14.1-28.2-30-28.3h0c-6,0-11.8,1.7-16.8,5.1-8.2,5.5-13.2,14.8-13.3,24.7l-5.3,11.8c-.3.7-.5,1.4-.5,2.1,0,2.4,1.5,4.6,3.8,5.4"/>
          <path id="Caminho_246" class="st2" d="M136.6,67.8c0-9.6-7.8-17.4-17.5-17.4-1.5,0-3.1.2-4.6.6-5.4,1.4-9.8,5.4-11.7,10.7-.9,2.4.3,5,2.7,5.8.5.2,1,.3,1.6.3h10.1c5.2,0,9.4,4.2,9.4,9.4,0,1.8,1.5,3.2,3.2,3.2.9,0,1.8-.4,2.4-1.1,2.8-3.2,4.3-7.3,4.3-11.5"/>
        </g>
      </g>
    </g>
  </g>
</svg>