<?xml version="1.0" encoding="UTF-8"?>
<svg id="Camada_1" xmlns="http://www.w3.org/2000/svg" version="1.1" xmlns:xlink="http://www.w3.org/1999/xlink" viewBox="0 0 176 293.8">
  <!-- Generator: Adobe Illustrator 30.3.0, SVG Export Plug-In . SVG Version: 2.1.3 Build 182)  -->
  <defs>
    <style>
      .st0 {
        stroke: #fff;
        stroke-width: 3px;
      }

      .st0, .st1 {
        fill: none;
      }

      .st2 {
        fill: #fff;
      }

      .st3 {
        isolation: isolate;
      }

      .st4 {
        clip-path: url(#clippath);
      }
    </style>
    <clipPath id="clippath">
      <rect class="st1" x="9" y="0" width="157.9" height="206.4"/>
    </clipPath>
  </defs>
  <g id="BT">
    <g id="Saiba_mais" class="st3">
      <g class="st3">
        <path class="st2" d="M1.9,281.1l2.5-3.1c1.5,1.3,3.5,2,5.3,2s2.9-.8,2.9-2-1.2-1.7-3-2.5l-2.7-1.1c-2.1-.9-4.2-2.7-4.2-5.7s3.1-6.2,7.4-6.2,4.9,1,6.7,2.6l-2.5,3c-1.4-1-2.8-1.6-4.2-1.6s-2.7.7-2.7,1.9,1.4,1.7,3.2,2.5l2.7,1.1c2.6,1,4.1,2.7,4.1,5.7s-2.9,6.5-7.9,6.5-5.6-1-7.7-3Z"/>
        <path class="st2" d="M26.5,262.9h5.7l6.5,20.9h-5l-1.3-5h-6.4l-1.3,5h-4.8l6.5-20.9ZM27,275.1h4.4l-.5-1.9c-.6-2.1-1.2-4.5-1.7-6.7h-.1c-.5,2.2-1.1,4.6-1.6,6.7l-.5,1.9Z"/>
        <path class="st2" d="M42.6,262.9h4.7v20.9h-4.7v-20.9Z"/>
        <path class="st2" d="M53.8,262.9h7.1c4.3,0,7.7,1.2,7.7,5.2s-1,3.9-2.7,4.5h0c2.3.7,3.7,2.1,3.7,4.8,0,4.4-3.6,6.4-8.1,6.4h-7.7v-20.9ZM60.7,271.2c2.3,0,3.3-1,3.3-2.5s-1.1-2.2-3.3-2.2h-2.2v4.7h2.2ZM61.2,280.1c2.6,0,3.9-.9,3.9-2.8s-1.3-2.6-3.9-2.6h-2.7v5.4h2.7Z"/>
        <path class="st2" d="M78.7,262.9h5.7l6.5,20.9h-5l-1.3-5h-6.4l-1.3,5h-4.8l6.5-20.9ZM79.2,275.1h4.4l-.5-1.9c-.6-2.1-1.2-4.5-1.7-6.7h-.1c-.5,2.2-1.1,4.6-1.6,6.7l-.5,1.9Z"/>
        <path class="st2" d="M102.7,262.9h5.2l3.3,9.3c.4,1.2.8,2.5,1.2,3.8h.1c.4-1.3.7-2.6,1.1-3.8l3.3-9.3h5.2v20.9h-4.3v-7.6c0-2,.4-5.6.6-7.6h-.1l-1.7,5.5-2.9,8h-2.8l-2.9-8-1.6-5.5h-.1c.3,2,.6,5.6.6,7.6v7.6h-4.2v-20.9Z"/>
        <path class="st2" d="M132.6,262.9h5.7l6.5,20.9h-5l-1.3-5h-6.4l-1.3,5h-4.8l6.5-20.9ZM133.1,275.1h4.4l-.5-1.9c-.6-2.1-1.2-4.5-1.7-6.7h-.1c-.5,2.2-1.1,4.6-1.6,6.7l-.5,1.9Z"/>
        <path class="st2" d="M148.6,262.9h4.7v20.9h-4.7v-20.9Z"/>
        <path class="st2" d="M158.5,281.1l2.5-3.1c1.5,1.3,3.5,2,5.3,2s2.9-.8,2.9-2-1.2-1.7-3-2.5l-2.7-1.1c-2.1-.9-4.2-2.7-4.2-5.7s3.1-6.2,7.4-6.2,4.9,1,6.7,2.6l-2.5,3c-1.4-1-2.8-1.6-4.2-1.6s-2.7.7-2.7,1.9,1.4,1.7,3.2,2.5l2.7,1.1c2.6,1,4.1,2.7,4.1,5.7s-2.9,6.5-7.9,6.5-5.6-1-7.7-3Z"/>
      </g>
    </g>
    <g id="Grupo_49">
      <g class="st4">
        <g id="Grupo_47">
          <path id="Caminho_237" class="st2" d="M147.1,27.1c-12.6-13.9-28.1-22.8-46.7-26C96.4.5,92.3.1,88.1,0c-22,.4-42.8,9.7-57.9,25.6-14.2,15.1-21.8,35.3-21.2,56,.4,15.9,6.3,28.8,13.2,42.8,2.3,4.1,4.7,8.1,7.2,12.1,14.3,20.8,30.2,40.3,47.6,58.5l6.7,7.1c1.3,1.5,2.7,2.9,4.2,4.2v-.2c1.2-.9,3.1-3.1,4.2-4.2l8-8.5c5.2-5.6,10.4-11.4,15.4-17.2,11-12.5,21.6-25.5,30.7-39.5,1.3-1.9,2.5-3.8,3.7-5.8,1.2-2.1,2.4-4.4,3.7-6.3,7.8-14.6,12.4-24.8,13.2-41.6,1-20.5-6.1-40.6-19.7-55.9M88.7,131.1c-30,0-54.4-24.3-54.4-54.4,0-30,24.3-54.4,54.4-54.4,30,0,54.4,24.3,54.4,54.4s-24.3,54.4-54.4,54.4h0"/>
        </g>
      </g>
    </g>
    <line id="Linha_6" class="st0" x1="5.5" y1="240.3" x2="170.5" y2="240.3"/>
    <g id="Grupo_54">
      <path id="Retângulo_50" class="st2" d="M120,76.8h0c0,4.1-3.4,7.5-7.5,7.5h-49c-4.1,0-7.5-3.4-7.5-7.5h0c0-4.1,3.4-7.5,7.5-7.5h49c4.1,0,7.5,3.4,7.5,7.5Z"/>
      <path id="Retângulo_51" class="st2" d="M88,44.8h0c4.1,0,7.5,3.4,7.5,7.5v49c0,4.1-3.4,7.5-7.5,7.5h0c-4.1,0-7.5-3.4-7.5-7.5v-49c0-4.1,3.4-7.5,7.5-7.5Z"/>
    </g>
  </g>
</svg>