<svg xmlns="http://www.w3.org/2000/svg" xmlns:xlink="http://www.w3.org/1999/xlink" width="176" height="293.76" viewBox="0 0 176 293.76">
  <defs>
    <clipPath id="clip-path">
      <rect id="Retângulo_46" data-name="Retângulo 46" width="157.924" height="206.362" fill="#fff"/>
    </clipPath>
  </defs>
  <g id="BT" transform="translate(1)">
    <text id="Saiba_mais" data-name="Saiba mais" transform="translate(87 283.76)" fill="#fff" font-size="32" font-family="SourceSans3-Bold, 'Source Sans \33 '" font-weight="700" letter-spacing="0.05em"><tspan x="-87.2" y="0">SAIBA MAIS</tspan></text>
    <g id="Grupo_49" data-name="Grupo 49" transform="translate(8 0)">
      <g id="Grupo_47" data-name="Grupo 47" transform="translate(0 0)" clip-path="url(#clip-path)">
        <path id="Caminho_237" data-name="Caminho 237" d="M138.1,27.051C125.5,13.144,110.036,4.282,91.426,1.1A102.418,102.418,0,0,0,79.149,0,81.855,81.855,0,0,0,21.228,25.65,78.2,78.2,0,0,0,.039,81.67c.432,15.866,6.3,28.83,13.21,42.763q3.438,6.138,7.191,12.094a463.258,463.258,0,0,0,47.617,58.5l6.709,7.09A52.082,52.082,0,0,0,79,206.362l.059-.16c1.114-.936,3.056-3.1,4.117-4.229l7.957-8.544q7.862-8.445,15.393-17.187c10.965-12.514,21.646-25.466,30.664-39.472,1.28-1.927,2.515-3.813,3.693-5.806,1.227-2.071,2.37-4.368,3.721-6.331,7.766-14.562,12.387-24.825,13.222-41.641A78.259,78.259,0,0,0,138.1,27.051M79.715,131.127A54.384,54.384,0,1,1,134.1,76.743a54.384,54.384,0,0,1-54.384,54.384" transform="translate(0 0)" fill="#fff"/>
      </g>
    </g>
    <line id="Linha_6" data-name="Linha 6" x2="165" transform="translate(4.5 240.26)" fill="none" stroke="#fff" stroke-width="3"/>
    <g id="Grupo_54" data-name="Grupo 54" transform="translate(-329.5 -1602.24)">
      <rect id="Retângulo_50" data-name="Retângulo 50" width="15" height="64" rx="7.5" transform="translate(448.5 1671.5) rotate(90)" fill="#fff"/>
      <rect id="Retângulo_51" data-name="Retângulo 51" width="15" height="64" rx="7.5" transform="translate(409 1647)" fill="#fff"/>
    </g>
  </g>
</svg>
