<?xml version="1.0" encoding="UTF-8"?>
<svg id="BT" xmlns="http://www.w3.org/2000/svg" version="1.1" xmlns:xlink="http://www.w3.org/1999/xlink" viewBox="0 0 165 293.8">
  <!-- Generator: Adobe Illustrator 30.3.0, SVG Export Plug-In . SVG Version: 2.1.3 Build 182)  -->
  <defs>
    <style>
      .st0 {
        stroke: #fff;
        stroke-width: 3px;
      }

      .st0, .st1 {
        fill: none;
      }

      .st2 {
        fill: #fff;
      }

      .st3 {
        clip-path: url(#clippath-1);
      }

      .st4 {
        isolation: isolate;
      }

      .st5 {
        clip-path: url(#clippath);
      }
    </style>
    <clipPath id="clippath">
      <rect class="st1" x="3.5" y="0" width="157.9" height="206.4"/>
    </clipPath>
    <clipPath id="clippath-1">
      <rect class="st1" x="52.5" y="54.8" width="60" height="47.8"/>
    </clipPath>
  </defs>
  <g id="_Áudio" data-name="Áudio" class="st4">
    <g class="st4">
      <path class="st2" d="M40.1,262.9h5.7l6.5,20.9h-5l-1.3-5h-6.4l-1.3,5h-4.8l6.5-20.9ZM44.1,256.4h5.3l.3.5-5.6,4.4h-3.9l3.9-4.9ZM40.6,275.1h4.4l-.5-1.9c-.6-2.1-1.2-4.5-1.7-6.7h-.1c-.5,2.2-1.1,4.6-1.6,6.7l-.5,1.9Z"/>
      <path class="st2" d="M55.7,274.4v-11.5h4.7v11.9c0,3.9,1.3,5.2,3.6,5.2s3.7-1.3,3.7-5.2v-11.9h4.5v11.5c0,6.8-2.8,9.8-8.2,9.8s-8.4-3-8.4-9.8Z"/>
      <path class="st2" d="M78.7,262.9h5.9c6.4,0,10.5,3.2,10.5,10.3s-4.1,10.5-10.2,10.5h-6.1v-20.9ZM84.3,280c3.6,0,5.9-1.7,5.9-6.7s-2.4-6.5-5.9-6.5h-.9v13.2h.9Z"/>
      <path class="st2" d="M100.6,262.9h4.7v20.9h-4.7v-20.9Z"/>
      <path class="st2" d="M110.8,273.2c0-6.8,3.8-10.7,9.5-10.7s9.5,3.9,9.5,10.7-3.8,10.9-9.5,10.9-9.5-4.1-9.5-10.9ZM124.9,273.2c0-4.2-1.8-6.7-4.6-6.7s-4.6,2.5-4.6,6.7,1.8,6.8,4.6,6.8,4.6-2.7,4.6-6.8Z"/>
    </g>
  </g>
  <g id="Grupo_49">
    <g class="st5">
      <g id="Grupo_47">
        <path id="Caminho_237" class="st2" d="M141.6,27.1c-12.6-13.9-28.1-22.8-46.7-26C90.9.5,86.8.1,82.6,0c-22,.4-42.8,9.7-57.9,25.6C10.5,40.8,2.9,60.9,3.5,81.7c.4,15.9,6.3,28.8,13.2,42.8,2.3,4.1,4.7,8.1,7.2,12.1,14.3,20.8,30.2,40.3,47.6,58.5l6.7,7.1c1.3,1.5,2.7,2.9,4.2,4.2v-.2c1.2-.9,3.1-3.1,4.2-4.2l8-8.5c5.2-5.6,10.4-11.4,15.4-17.2,11-12.5,21.6-25.5,30.7-39.5,1.3-1.9,2.5-3.8,3.7-5.8,1.2-2.1,2.4-4.4,3.7-6.3,7.8-14.6,12.4-24.8,13.2-41.6,1-20.5-6.1-40.6-19.7-55.9M83.2,131.1c-30,0-54.4-24.3-54.4-54.4,0-30,24.3-54.4,54.4-54.4,30,0,54.4,24.3,54.4,54.4s-24.3,54.4-54.4,54.4h0"/>
      </g>
    </g>
  </g>
  <line id="Linha_6" class="st0" y1="240.3" x2="165" y2="240.3"/>
  <g id="Grupo_64">
    <g class="st3">
      <g id="Grupo_64-2">
        <path id="Caminho_258" class="st2" d="M96.9,67.3c-1.2-1.1-3-1.1-4.2,0s-1.1,3,0,4.2c3.9,3.7,4.1,9.9.3,13.8-.1.1-.2.2-.3.3-1.2,1.1-1.2,3-.1,4.1,0,0,0,0,0,0,.6.6,1.3.9,2.1.9.8,0,1.5-.3,2.1-.8,3.1-3,4.8-7.1,4.8-11.4,0-4.2-1.8-8.3-4.9-11.3"/>
        <path id="Caminho_259" class="st2" d="M103.6,58.8c-1.2-1.1-3.1-1-4.2.3-1.1,1.2-1,3.1.3,4.2,8.5,7.6,9.2,20.7,1.6,29.2-.5.6-1,1.1-1.6,1.6-1.2,1.1-1.3,2.9-.3,4.2.6.6,1.4,1,2.2,1,.7,0,1.4-.3,2-.8,5.6-5.1,8.9-12.3,8.9-19.9,0-7.6-3.2-14.8-8.9-19.8"/>
        <path id="Caminho_260" class="st2" d="M82.8,55.1l-17.9,13.3h-10.7c-1,0-1.8.8-1.8,1.8,0,0,0,0,0,0v16.8c0,1,.8,1.8,1.8,1.8,0,0,0,0,0,0h10.7l17.9,13.4c.8.6,1.9.4,2.5-.3.2-.3.4-.7.4-1.1v-44.2c0-1-.8-1.8-1.8-1.8-.4,0-.7.1-1.1.4"/>
      </g>
    </g>
  </g>
</svg>