<?xml version="1.0" encoding="UTF-8"?>
<svg id="Grupo_116" data-name="Grupo 116" xmlns="http://www.w3.org/2000/svg" viewBox="0 0 129.57 181.89">
  <defs>
    <style>
      .cls-1 {
        fill: #b6492e;
      }
    </style>
  </defs>
  <path class="cls-1" d="M65.2,0C30.03,0,1.53,28.51,1.53,63.67h0c0,13.6,3.42,28.39,10.17,43.94,6.12,13.72,13.7,26.73,22.6,38.83,9.3,12.83,19.64,24.88,30.89,36.03,11.29-11.18,21.64-23.26,30.96-36.12,8.89-12.08,16.45-25.09,22.56-38.79,6.73-15.53,10.15-30.3,10.15-43.88C128.86,28.51,100.36,0,65.2,0ZM64.79,105.74c-22.62,0-40.95-18.33-40.95-40.95,0-22.62,18.33-40.95,40.95-40.95,22.6.03,40.92,18.34,40.95,40.95,0,22.62-18.33,40.95-40.95,40.95Z"/>
  <path id="Caminho_594" data-name="Caminho 594" class="cls-1" d="M57.16,64.44l6.75,20.19c.61,1.83,2.27,3.09,4.19,3.18h.23c1.84,0,3.51-1.08,4.26-2.77l2.4-5.44,8.34,8.39,3.29-3.29-8.36-8.36,5.44-2.4c2.34-1.07,3.38-3.83,2.31-6.17-.54-1.18-1.54-2.08-2.76-2.49l-20.19-6.73c-2.44-.81-5.08.51-5.89,2.95-.32.96-.32,1.99,0,2.95h0ZM81.77,69.7l-9.32,4.14-4.14,9.32-6.73-20.19,20.19,6.73Z"/>
  <rect id="Retângulo_101" data-name="Retângulo 101" class="cls-1" x="46.05" y="45.23" width="4.66" height="9.06" transform="translate(-21.01 48.79) rotate(-45)"/>
  <rect id="Retângulo_102" data-name="Retângulo 102" class="cls-1" x="71.81" y="47.43" width="9.06" height="4.66" transform="translate(-12.83 68.55) rotate(-45)"/>
  <rect id="Retângulo_103" data-name="Retângulo 103" class="cls-1" x="43.85" y="75.39" width="9.06" height="4.66" transform="translate(-40.79 56.98) rotate(-45)"/>
  <rect id="Retângulo_104" data-name="Retângulo 104" class="cls-1" x="38.28" y="61.41" width="9.32" height="4.66"/>
  <rect id="Retângulo_105" data-name="Retângulo 105" class="cls-1" x="60.03" y="39.67" width="4.66" height="9.32"/>
</svg>