<svg xmlns="http://www.w3.org/2000/svg" xmlns:xlink="http://www.w3.org/1999/xlink" width="911.492" height="197.352" viewBox="0 0 911.492 197.352">
  <defs>
    <linearGradient id="linear-gradient" x1="0.472" y1="0.148" x2="0.5" y2="1" gradientUnits="objectBoundingBox">
      <stop offset="0" stop-color="#d8c4a8"/>
      <stop offset="0.222" stop-color="#8c6a4a"/>
      <stop offset="0.565" stop-color="#6f7f5f"/>
      <stop offset="1" stop-color="#b6492e"/>
    </linearGradient>
    <clipPath id="clip-path">
      <path id="Caminho_2346" data-name="Caminho 2346" d="M90.465,189.213a8.14,8.14,0,1,0,8.14-8.14,8.14,8.14,0,0,0-8.14,8.14M156.2,162.567a7.957,7.957,0,1,0,7.956-7.956,7.957,7.957,0,0,0-7.956,7.956m-131.113,0a7.994,7.994,0,1,0,7.994-7.995,7.993,7.993,0,0,0-7.994,7.995m68.432-11.7a5.18,5.18,0,1,0,5.18-5.18,5.18,5.18,0,0,0-5.18,5.18m31.762-9.119a87.775,87.775,0,0,1-19.256,6.643l.421,1.794a86.408,86.408,0,0,0,24.348-8.914l-.936-1.677Zm-58.6-.6a87.169,87.169,0,0,0,24,9.013,4.773,4.773,0,0,0,.232-1.892,89.781,89.781,0,0,1-23.115-8.78,3.519,3.519,0,0,0-1.12,1.659m-12.5-4.334a5.479,5.479,0,1,0,5.479-5.478,5.479,5.479,0,0,0-5.479,5.478m77.951-.047a5.432,5.432,0,1,0,5.432-5.432,5.432,5.432,0,0,0-5.432,5.432m7.486-7.927,1.986.945a79.444,79.444,0,0,0,7.886-22.63l-1.959-.294a90.927,90.927,0,0,1-7.913,21.978M47.614,107.257a79.911,79.911,0,0,0,7.778,22.7l1.933-1.037-3.561-7.88a115.1,115.1,0,0,1-4.191-14.233Zm97.736-7.476a5.285,5.285,0,1,0,5.286-5.285,5.286,5.286,0,0,0-5.286,5.285m-104.285.012a5.372,5.372,0,1,0,5.372-5.372,5.371,5.371,0,0,0-5.372,5.372m140.051-.176a7.989,7.989,0,1,0,7.99-7.99,7.989,7.989,0,0,0-7.99,7.99M0,99.6A8.05,8.05,0,1,0,8.049,91.55,8.05,8.05,0,0,0,0,99.6M72.958,82.357l3.958,4.254,3.312,3.636a79.839,79.839,0,0,1,7.214,8.935,15.463,15.463,0,0,1,2.841,10.376,63.245,63.245,0,0,1-1.822,10.236,170.446,170.446,0,0,1-5.441,17.759,40.706,40.706,0,0,0,12.914-13.62l2.715-6.2c2.958,8.647,7.608,14.541,15.267,19.9a123.771,123.771,0,0,1-6.866-25.4,19.3,19.3,0,0,1,.571-9.234,18.19,18.19,0,0,1,3.458-6.032l5.847-6.736c4.3-4.95,8.772-9.447,12.872-14.847l-10.991,6.225-10.7,5.458c-3.963,2.022-8.638,3.334-12.923,2.315a51.475,51.475,0,0,1-13.313-5.663L66.935,75.342Zm-17.4-11.2a84.5,84.5,0,0,0-7.771,20.845l2.052.7A95.173,95.173,0,0,1,57.3,71.873a2.4,2.4,0,0,0-1.569-.721,1.545,1.545,0,0,0-.171.01m84,.658A92.773,92.773,0,0,1,147.3,92.65l2.111-.568a89.453,89.453,0,0,0-8.031-21.22ZM90.24,78.6a8.45,8.45,0,1,0,8.45-8.448A8.449,8.449,0,0,0,90.24,78.6M54.328,64.372a5.1,5.1,0,1,0,5.1-5.1,5.1,5.1,0,0,0-5.1,5.1m78.242,0a5.15,5.15,0,1,0,5.15-5.15,5.15,5.15,0,0,0-5.15,5.15M66.323,61.3l1.116,1.62a87.162,87.162,0,0,1,23.644-9.332l-.406-1.833A91.909,91.909,0,0,0,66.323,61.3m39.7-7.768a84.919,84.919,0,0,1,23.7,9.406l1.027-1.554a85.451,85.451,0,0,0-24.165-9.63ZM93.381,50.779a5.3,5.3,0,1,0,5.306-5.3,5.306,5.306,0,0,0-5.306,5.3m64.143-13.953a7.707,7.707,0,1,0,7.707-7.707,7.707,7.707,0,0,0-7.707,7.707m-133.2-.014a7.722,7.722,0,1,0,7.723-7.723,7.723,7.723,0,0,0-7.723,7.723m66.784,11.1a99.118,99.118,0,0,0-16.575-4.089A117.915,117.915,0,0,1,91.194,28.59c5.8,4.4,8.924,4.7,14.775.209a91.666,91.666,0,0,1,16.551,15.115,111.3,111.3,0,0,0-16.493,3.89l.447,1.812a119.63,119.63,0,0,1,17.857-4,134.847,134.847,0,0,1,8.4,12.728l1.875-.716a92.116,92.116,0,0,0-7.815-12.143,53.51,53.51,0,0,1,8.935-.2l10.016.883.523,3.2a7.565,7.565,0,0,0,6.244,6.308l3.5.629c.428,4.55,1.031,8.981.758,13.52l-.357,5.963L151.273,71.8l-6.741-4.388-1.081,1.659a106.018,106.018,0,0,1,12.535,9.467,76.909,76.909,0,0,1-3.465,13.812l1.924.548a84.771,84.771,0,0,0,3.6-12.473l4.145,4.356,6.833,8.089a24.236,24.236,0,0,0-5.058,7.118l5.307,7.379a164.765,164.765,0,0,1-10.806,13.85,77.891,77.891,0,0,0-3.674-14.511l-2.124.432a72.179,72.179,0,0,1,3.559,16.145,86.285,86.285,0,0,1-12.347,9.378l.945,1.6a70.047,70.047,0,0,0,11.487-7.975,74.733,74.733,0,0,1-1.672,17.653c-2.527.166-5.025.535-6.965,2.208-2.393,2.063-3.125,5.218-2.691,8.5a106.055,106.055,0,0,1-18.386,1.223,72.349,72.349,0,0,0,8.021-11.167L132.9,143.7a81.981,81.981,0,0,1-9.515,11.939,78.482,78.482,0,0,1-16.957-3.189l-.537,1.762a117.447,117.447,0,0,0,15.266,3.574l-7.113,6.338a56.6,56.6,0,0,1-8.3,5.831,34.507,34.507,0,0,0-7.168-3.865l-7.137,3.7a84.012,84.012,0,0,1-15.273-12.07,122.2,122.2,0,0,0,15-3.353l-.321-1.852a97.079,97.079,0,0,1-16.814,3.332A84.6,84.6,0,0,1,64.7,143.611l-1.914.8A80.214,80.214,0,0,0,70.81,156l-8.329-.286L52,154.766c.477-4.289-.834-8.342-5.1-9.908a23.66,23.66,0,0,0-4.424-1,100.753,100.753,0,0,1-1.669-12.141l.028-5.266a102.285,102.285,0,0,0,11.334,7.928l1.041-1.726a79.473,79.473,0,0,1-12.338-9.137,99.493,99.493,0,0,1,3.4-16.34l-1.978-.628a114.884,114.884,0,0,0-3.7,14.593l-2.86-3.384a119.507,119.507,0,0,1-7.826-10.545,43.516,43.516,0,0,0,5.327-7.064L31.161,96.69l-3.1-3.59L31.9,88.388l3.194-3.755L38.972,80.6a98,98,0,0,0,3.408,12.16l2.007-.369-1.232-4.121A69.411,69.411,0,0,1,40.9,78.51c4.156-3.43,8.27-6.569,12.468-9.577L52.1,67.485c-3.881,2.538-7.555,5.264-11.3,8.229L40.5,72.392a57.891,57.891,0,0,1,.055-10.768l.52-5.372a26,26,0,0,0,4.741-.916A7.458,7.458,0,0,0,50.913,49.4l.5-3.2a70.7,70.7,0,0,1,18.506-.653,116.926,116.926,0,0,0-7.4,11.965l1.622.8a104.37,104.37,0,0,1,8.487-12.742A117.928,117.928,0,0,1,90.55,49.6Zm-5.4-32.831a81.225,81.225,0,0,0-19.924,5.583l2.621,5.281A76,76,0,0,1,85.7,21.5l2.565,4.4-4.11,3.861A131.811,131.811,0,0,0,71.691,43.234l-7.507-.57-12.878-.686L50.1,36.653a132.671,132.671,0,0,1,15.088-9.228L62.33,21.858A120.237,120.237,0,0,0,46.372,31.992a9.736,9.736,0,0,0-2.156,2.133l-.426,5.362A10.9,10.9,0,0,1,37.575,47.6c-4.51,2.224-7.648.434-9.5,3.106a76.722,76.722,0,0,0-8.295,15.618l5.644,2.146a86.873,86.873,0,0,1,7.2-13.733L37.2,56.159c.087,6.347-.019,12.335.9,18.444l.444,2.943a136.054,136.054,0,0,0-13.4,12.806l-4.2-1.673.333-4.737a81.3,81.3,0,0,1,3.054-12.178l-5.415-2.222c-2.786,5.846-4.075,12.974-4.628,19.341,3.585,2.674,6.25,6.422,6.2,10.951a11.112,11.112,0,0,1-3.328,8.171l-2.743,2.484.071,3.132a63.948,63.948,0,0,0,4.14,15.358l5.747-2.368a63.219,63.219,0,0,1-3.539-15.039l4.292-2.289a88.515,88.515,0,0,0,13.138,14.752,84.8,84.8,0,0,0,.424,19.9l-5.106,1.389a74.5,74.5,0,0,1-8.2-15.373l-5.56,2.332a76.525,76.525,0,0,0,8.935,16.578,3.024,3.024,0,0,0,2.835,1.6c6.341-.25,11.954,3.194,13.22,9.516a22.075,22.075,0,0,1-.014,6.155l6.181,4.691a67.243,67.243,0,0,0,11.389,6.533l2.727-5.416a64.48,64.48,0,0,1-14.322-8.906l1.012-3.88,11.3-.141,9.881-.664,7.225,7.116,8.37,7.326-2.318,4.688a54.536,54.536,0,0,1-17.553-4.306l-2.509,5.384a66.584,66.584,0,0,0,18.775,4.52,7.054,7.054,0,0,0,3.157-.151,11.838,11.838,0,0,1,9.37-5.859,12.043,12.043,0,0,1,10.422,4.674,3.677,3.677,0,0,0,3.535,1.389,67.1,67.1,0,0,0,19.754-4.509l-2.6-5.555a69.862,69.862,0,0,1-17.665,4.363l-2.322-4.679,6.566-5.477,2.175-1.914,7.063-6.985a211.106,211.106,0,0,0,21.235.787,13.031,13.031,0,0,1,.711,3.81,68.827,68.827,0,0,1-14.447,9.1l2.745,5.385a76.954,76.954,0,0,0,17.762-11.208,22.182,22.182,0,0,1-.01-6.124,11.044,11.044,0,0,1,9.649-9.328l4.716-.473a3.262,3.262,0,0,0,1.6-1.229,68.064,68.064,0,0,0,8.938-16.81l-5.514-2.406c-2.249,5.415-4.65,10.647-8.336,15.456l-4.927-1.426a98.3,98.3,0,0,0,.4-19.851,64.794,64.794,0,0,0,8.624-8.86l4.643-5.688,4.232,2.306a64.6,64.6,0,0,1-3.5,14.9L178.452,129a57.8,57.8,0,0,0,3.622-11.873,26.99,26.99,0,0,0,.691-6.748c-3.729-2.529-6.23-6.415-6.1-11.048a11.3,11.3,0,0,1,3-7.442l3.3-3.389a68.9,68.9,0,0,0-4.524-18.983,32.165,32.165,0,0,0-5.74,2.168A66.989,66.989,0,0,1,176.4,88.206l-4.248,1.955-3.325-3.544-3.349-3.1-6.849-6.067a115.993,115.993,0,0,0,1.151-14.285l.114-7.108,4.429-1.432a86.309,86.309,0,0,1,7.55,13.8l5.213-1.995a79.43,79.43,0,0,0-8.736-16.6c-.572-.812-2.285-.871-3.186-.883a11.8,11.8,0,0,1-11.909-13.008,3.817,3.817,0,0,0-1.61-3.3,100.9,100.9,0,0,0-16.9-10.733l-2.814,5.24a120.153,120.153,0,0,1,15.2,9.421l-.931,4.909c-.072.379-1.063.6-1.415.618l-6.694.239-12.826.918a128.957,128.957,0,0,0-16.524-17.008l2.611-4.762a71.358,71.358,0,0,1,17.472,4.543l2.592-5.466a88.392,88.392,0,0,0-20.252-5.434,3.26,3.26,0,0,0-2.5.855l-1.762,1.594a12.174,12.174,0,0,1-17.65-1.082,4.124,4.124,0,0,0-3.056-1.445,3.418,3.418,0,0,0-.5.036M98.788,0a8.1,8.1,0,1,0,8.1,8.105A8.1,8.1,0,0,0,98.788,0Z" fill="url(#linear-gradient)"/>
    </clipPath>
    <clipPath id="clip-path-2">
      <rect id="Retângulo_171" data-name="Retângulo 171" width="679.776" height="183.115" fill="none"/>
    </clipPath>
  </defs>
  <g id="Grupo_255" data-name="Grupo 255" transform="translate(276 212)">
    <g id="Grupo_254" data-name="Grupo 254" transform="translate(-276 -212)" clip-path="url(#clip-path)">
      <rect id="Retângulo_170" data-name="Retângulo 170" width="276.348" height="276.397" transform="translate(-95.092 72.324) rotate(-37.255)" fill="url(#linear-gradient)"/>
    </g>
    <g id="Grupo_258" data-name="Grupo 258" transform="translate(-44.284 -204.881)">
      <path id="Caminho_2347" data-name="Caminho 2347" d="M23.537,17.547l6.784,21.526H16.584Zm.25-12.815L6.785,54.4,0,55.406v4.523H18.008V55.406l-6.448-1L14.993,43.93H31.829l3.434,10.805-6.45.838v4.356h25.8V55.573l-5.026-.585L32.415,4.732Z" transform="translate(0 1.132)" fill="#b6492e"/>
      <g id="Grupo_257" data-name="Grupo 257">
        <g id="Grupo_256" data-name="Grupo 256" clip-path="url(#clip-path-2)">
          <path id="Caminho_2348" data-name="Caminho 2348" d="M65.587,48.978c0-2.932.084-5.11.084-8.376v-16H60.227V19.661l6.114-.753L70.615,7.1h8.543l-.169,11.81h8.8v5.7h-8.8V48.056c0,3.937,1.76,5.7,4.274,5.7a7.189,7.189,0,0,0,4.522-1.843l2.1,2.01c-2.263,4.272-6.2,6.7-12.313,6.7-7.539,0-11.979-3.351-11.979-11.643" transform="translate(14.402 1.697)" fill="#b6492e"/>
          <path id="Caminho_2349" data-name="Caminho 2349" d="M85.372,37.576c0-13.9,9.046-22.029,20.857-22.029,11.223,0,18.008,7.539,18.008,17.674a17.816,17.816,0,0,1-.5,4.523H99.445c.669,8.878,5.861,12.9,12.06,12.9a12.19,12.19,0,0,0,9.969-4.44l2.846,2.346c-3.6,6.617-8.711,10.052-17.506,10.052-12.562,0-21.442-7.455-21.442-21.024m14.073-4.188h7.119c4.188,0,5.193-1.508,5.193-5.277,0-5.779-2.429-8.208-5.528-8.208-3.435,0-6.45,3.266-6.784,13.485" transform="translate(20.414 3.718)" fill="#b6492e"/>
          <path id="Caminho_2350" data-name="Caminho 2350" d="M120.667,53.406l4.523-1c.084-4.021.084-9.13.084-12.648V34.9c0-4.607,0-6.367-.25-9.717l-5.11-.753V21.159l16.5-5.612,1.508.921.5,6.031c3.938-4.607,8.126-6.951,13.068-6.951,5.7,0,9.464,2.429,11.057,7.455,4.69-5.612,8.71-7.455,13.568-7.455,8.46,0,12.146,4.857,12.146,14.909v9.3c0,3.6,0,8.711.083,12.732l4.271.921v3.937H171.008V53.406l4.1-1c.084-4.021.084-9.046.084-12.648V31.628c0-6.282-1.341-7.958-4.776-7.958a10.94,10.94,0,0,0-7.034,3.016c.083,1,.167,2.177.167,3.351v9.716c0,3.685,0,8.711.083,12.815l3.937.838v3.937h-21.61V53.406l4.357-1c.083-4.021.083-9.046.083-12.648V31.713c0-5.864-1.089-8.042-4.774-8.042a11.279,11.279,0,0,0-6.953,3.016V39.753c0,3.518,0,8.711.084,12.815l3.937.838v3.937H120.667Z" transform="translate(28.674 3.718)" fill="#b6492e"/>
          <path id="Caminho_2351" data-name="Caminho 2351" d="M181,72.42l4.691-1c.084-5.193.167-9.8.167-13.821V34.9c0-4.607-.083-6.367-.252-9.716l-5.193-.755V21.159l16.417-5.612,1.424.838.335,4.691a16.824,16.824,0,0,1,12.4-5.529c9.13,0,16.417,7.455,16.417,21.359,0,13.485-8.461,21.695-17.925,21.695a13.717,13.717,0,0,1-10.554-4.356v3.266c0,4.021.083,8.543.169,13.653l5.36,1.256v3.937H181Zm18.177-47.157V49.47a8.2,8.2,0,0,0,5.445,2.094c5.025,0,8.543-4.524,8.543-14.492,0-9.883-3.349-14.239-8.208-14.239a9.343,9.343,0,0,0-5.779,2.429" transform="translate(43.141 3.718)" fill="#b6492e"/>
          <path id="Caminho_2352" data-name="Caminho 2352" d="M222.659,36.99c0-12.9,9.3-21.443,21.193-21.443,11.977,0,21.357,8.292,21.357,21.443,0,12.982-8.375,21.61-21.357,21.61s-21.193-8.8-21.193-21.61m28.311.167c0-11.894-2.346-17.171-7.119-17.171-4.691,0-7.037,5.276-7.037,17.171s2.346,17.087,7.037,17.087c4.773,0,7.119-5.193,7.119-17.087" transform="translate(53.243 3.718)" fill="#b6492e"/>
          <path id="Caminho_2353" data-name="Caminho 2353" d="M275.316,37.576c0-13.9,9.046-22.029,20.857-22.029,11.223,0,18.008,7.539,18.008,17.674a17.815,17.815,0,0,1-.5,4.523H289.387c.67,8.878,5.862,12.9,12.062,12.9a12.186,12.186,0,0,0,9.967-4.44l2.848,2.346c-3.6,6.617-8.711,10.052-17.506,10.052-12.562,0-21.442-7.455-21.442-21.024m14.071-4.188h7.12c4.188,0,5.193-1.508,5.193-5.277,0-5.779-2.429-8.208-5.528-8.208-3.435,0-6.45,3.266-6.785,13.485" transform="translate(65.834 3.718)" fill="#b6492e"/>
          <path id="Caminho_2354" data-name="Caminho 2354" d="M316.346,74.8c.753-3.852,3.1-5.779,6.534-5.779,2.932,0,4.857,1.591,6.533,4.857L330.5,75.97a7.535,7.535,0,0,0,.753-2.429c.922-4.021.252-11.894.252-21.191V39.45c0-4.607-.083-7.2-.252-10.554l-5.109-.753V24.876l17.422-5.611,1.424.921-.252,12.146V56.538c0,10.052-1.339,14.658-5.443,18.762a18.446,18.446,0,0,1-13.485,5.613c-5.528,0-8.544-2.346-9.466-6.115M330.753,6.7c0-3.937,3.182-6.7,7.12-6.7s7.119,2.764,7.119,6.7c0,3.852-3.182,6.617-7.119,6.617s-7.12-2.764-7.12-6.617" transform="translate(75.645 0)" fill="#b6492e"/>
          <path id="Caminho_2355" data-name="Caminho 2355" d="M374.976,51.132c-3.6,4.691-8.125,7.372-13.485,7.372-7.2,0-12.06-4.021-11.893-15.078l.335-20.437L345.074,21.9V18.382l17.088-2.43,1.339.922-.419,11.643V43.51c0,5.193,1.677,6.951,4.524,6.951,2.344,0,4.942-1.675,7.2-3.852l.336-23.7-4.607-1V18.632l16.667-2.68,1.341.922-.252,11.643V52.473l4.356.921V57.33l-17.171.838Z" transform="translate(82.515 3.814)" fill="#b6492e"/>
          <path id="Caminho_2356" data-name="Caminho 2356" d="M386.859,53.406l4.523-1c.084-4.021.084-9.13.084-12.648V34.9c0-4.607-.084-6.367-.25-9.717l-5.11-.753V21.159l16.5-5.612,1.508.921.5,6.031c4.357-5.109,8.461-6.951,13.318-6.951,7.287,0,12.146,4.774,12.146,14.49v9.716c0,3.685,0,8.711.083,12.815l4.188.838v3.937H412.238V53.406l4.44-1c.084-4.021.084-9.046.084-12.648v-8.8c0-5.36-1.425-7.287-4.69-7.287-2.1,0-4.69,1.089-7.2,3.016V39.753c0,3.518,0,8.711.084,12.815l3.937.838v3.937H386.859Z" transform="translate(92.326 3.718)" fill="#b6492e"/>
          <path id="Caminho_2357" data-name="Caminho 2357" d="M432.226,48.978c0-2.932.084-5.11.084-8.376v-16h-5.445V19.661l6.114-.753L437.254,7.1H445.8l-.169,11.81h8.8v5.7h-8.8V48.056c0,3.937,1.76,5.7,4.274,5.7a7.186,7.186,0,0,0,4.522-1.843l2.1,2.01c-2.263,4.272-6.2,6.7-12.313,6.7-7.539,0-11.979-3.351-11.979-11.643" transform="translate(102.073 1.697)" fill="#b6492e"/>
          <path id="Caminho_2358" data-name="Caminho 2358" d="M452.011,36.99c0-12.9,9.3-21.443,21.193-21.443,11.977,0,21.357,8.292,21.357,21.443,0,12.982-8.375,21.61-21.357,21.61s-21.193-8.8-21.193-21.61m28.311.167c0-11.894-2.346-17.171-7.119-17.171-4.691,0-7.037,5.276-7.037,17.171s2.346,17.087,7.037,17.087c4.773,0,7.119-5.193,7.119-17.087" transform="translate(108.086 3.718)" fill="#b6492e"/>
          <path id="Caminho_2359" data-name="Caminho 2359" d="M491.826,23.643a7.539,7.539,0,1,1,15.076,0,7.539,7.539,0,0,1-15.076,0m0,27.39a7.539,7.539,0,1,1,15.076,0,7.539,7.539,0,0,1-15.076,0" transform="translate(117.606 3.831)" fill="#b6492e"/>
          <path id="Caminho_2360" data-name="Caminho 2360" d="M7.2,94.288H4.433V91.032l2.764-.19V88.91c0-3.862,1.781-6.665,6.173-6.665a9.378,9.378,0,0,1,3.408.644l-.908,3.142a6.17,6.17,0,0,0-1.969-.34c-1.515,0-2.348,1.022-2.348,3.142v2.007h3.636v3.446H11.553v15.15H7.2Z" transform="translate(1.06 19.667)"/>
          <path id="Caminho_2361" data-name="Caminho 2361" d="M14.764,98.587c0-6.212,4.2-9.772,8.825-9.772,4.658,0,8.861,3.56,8.861,9.772,0,6.172-4.2,9.732-8.861,9.732-4.621,0-8.825-3.56-8.825-9.732m13.218,0c0-3.75-1.667-6.212-4.393-6.212s-4.357,2.462-4.357,6.212c0,3.711,1.629,6.172,4.357,6.172s4.393-2.461,4.393-6.172" transform="translate(3.53 21.238)"/>
          <path id="Caminho_2362" data-name="Caminho 2362" d="M32.83,89.27h3.6l.3,3.295h.152c1.287-2.424,3.256-3.75,5.264-3.75a4.719,4.719,0,0,1,2.12.379L43.4,92.905a6.444,6.444,0,0,0-1.818-.227c-1.477,0-3.256,1.022-4.393,3.825v11.362H32.83Z" transform="translate(7.85 21.238)"/>
          <path id="Caminho_2363" data-name="Caminho 2363" d="M45.567,102.578V93.753h-2.65V90.5l2.878-.19.529-5.831H49.96v5.831h4.735v3.446H49.96v8.825c0,2.159.834,3.256,2.613,3.256a4.876,4.876,0,0,0,1.932-.378l.8,3.067a9.908,9.908,0,0,1-3.825.758c-4.317,0-5.908-2.689-5.908-6.7" transform="translate(10.262 20.2)"/>
          <path id="Caminho_2364" data-name="Caminho 2364" d="M54.41,102.866c0-4.166,3.333-6.136,10.982-6.969-.076-1.893-.908-3.484-3.408-3.484a10.486,10.486,0,0,0-5.227,1.742L55.167,91.2a14.525,14.525,0,0,1,7.65-2.385c4.621,0,6.93,2.84,6.93,8.067v10.982h-3.6l-.3-2.045H65.7a9.028,9.028,0,0,1-5.757,2.5,5.229,5.229,0,0,1-5.529-5.453m10.982,0V98.927c-5.074.606-6.741,1.742-6.741,3.636,0,1.591,1.136,2.2,2.65,2.2a5.7,5.7,0,0,0,4.09-1.893" transform="translate(13.011 21.238)"/>
          <path id="Caminho_2365" data-name="Caminho 2365" d="M71.314,104.5V82.611H75.67v22.118c0,1.1.492,1.439.985,1.439a2.234,2.234,0,0,0,.643-.076l.569,3.256a5.932,5.932,0,0,1-2.311.379c-3.105,0-4.242-1.97-4.242-5.227" transform="translate(17.053 19.754)"/>
          <path id="Caminho_2366" data-name="Caminho 2366" d="M78.9,98.548c0-6.059,4.239-9.733,8.634-9.733,5.075,0,7.649,3.674,7.649,8.825a10.422,10.422,0,0,1-.227,2.271H83.287c.493,3.409,2.8,4.924,5.379,4.924a7.811,7.811,0,0,0,4.316-1.287l1.514,2.8a11.3,11.3,0,0,1-6.36,1.97c-5.228,0-9.24-3.56-9.24-9.772m4.468-1.969h7.953c0-2.65-1.213-4.317-3.712-4.317-1.818,0-3.711,1.022-4.24,4.317" transform="translate(18.866 21.238)"/>
          <path id="Caminho_2367" data-name="Caminho 2367" d="M94.729,98.587c0-6.212,4.354-9.772,9.316-9.772A7.607,7.607,0,0,1,109.5,90.9l-2.083,2.689a4.615,4.615,0,0,0-3.144-1.212c-2.954,0-5.075,2.462-5.075,6.212,0,3.711,2.046,6.172,5,6.172a5.706,5.706,0,0,0,3.787-1.476l1.781,2.688a8.818,8.818,0,0,1-5.984,2.348c-5.151,0-9.051-3.56-9.051-9.732" transform="translate(22.652 21.238)"/>
          <path id="Caminho_2368" data-name="Caminho 2368" d="M108.393,98.548c0-6.059,4.24-9.733,8.634-9.733,5.075,0,7.65,3.674,7.65,8.825a10.419,10.419,0,0,1-.228,2.271H112.786c.492,3.409,2.8,4.924,5.378,4.924a7.815,7.815,0,0,0,4.317-1.287l1.514,2.8a11.3,11.3,0,0,1-6.362,1.97c-5.227,0-9.24-3.56-9.24-9.772m4.468-1.969h7.953c0-2.65-1.212-4.317-3.711-4.317-1.818,0-3.711,1.022-4.242,4.317" transform="translate(25.919 21.238)"/>
          <path id="Caminho_2369" data-name="Caminho 2369" d="M125.2,89.27h3.6l.3,2.5h.152c1.665-1.629,3.56-2.955,6.1-2.955,3.976,0,5.719,2.69,5.719,7.385v11.665h-4.354v-11.1c0-3.068-.872-4.2-2.917-4.2-1.628,0-2.689.8-4.242,2.31v12.991H125.2Z" transform="translate(29.939 21.238)"/>
          <path id="Caminho_2370" data-name="Caminho 2370" d="M141.712,100.07c0-6.059,3.825-9.772,7.877-9.772a6.868,6.868,0,0,1,4.886,2.046l-.152-2.992V82.611h4.355v26.738h-3.6l-.3-2.007h-.151a7.751,7.751,0,0,1-5.265,2.461c-4.658,0-7.649-3.6-7.649-9.732m12.611,4.052V95.45a5.543,5.543,0,0,0-3.787-1.553c-2.387,0-4.318,2.234-4.318,6.135,0,4.015,1.515,6.173,4.2,6.173a5.016,5.016,0,0,0,3.9-2.083" transform="translate(33.886 19.754)"/>
          <path id="Caminho_2371" data-name="Caminho 2371" d="M159.2,98.587c0-6.212,4.2-9.772,8.825-9.772,4.658,0,8.861,3.56,8.861,9.772,0,6.172-4.2,9.732-8.861,9.732-4.621,0-8.825-3.56-8.825-9.732m13.218,0c0-3.75-1.667-6.212-4.393-6.212s-4.357,2.462-4.357,6.212c0,3.711,1.629,6.172,4.357,6.172s4.393-2.461,4.393-6.172" transform="translate(38.067 21.238)"/>
          <path id="Caminho_2372" data-name="Caminho 2372" d="M182.7,98.587c0-6.212,4.356-9.772,9.317-9.772a7.61,7.61,0,0,1,5.453,2.083l-2.083,2.689a4.615,4.615,0,0,0-3.144-1.212c-2.954,0-5.075,2.462-5.075,6.212,0,3.711,2.046,6.172,5,6.172a5.706,5.706,0,0,0,3.787-1.476l1.781,2.688a8.818,8.818,0,0,1-5.984,2.348c-5.151,0-9.052-3.56-9.052-9.732" transform="translate(43.688 21.238)"/>
          <path id="Caminho_2373" data-name="Caminho 2373" d="M197.956,100.847V89.182h4.355v11.1c0,3.068.871,4.2,2.878,4.2,1.628,0,2.727-.757,4.128-2.575V89.182h4.356v18.6h-3.56l-.341-2.726h-.114c-1.628,1.932-3.446,3.181-5.984,3.181-3.976,0-5.719-2.689-5.719-7.385" transform="translate(47.336 21.325)"/>
          <path id="Caminho_2374" data-name="Caminho 2374" d="M215.043,85.012a2.616,2.616,0,1,1,2.613,2.5,2.409,2.409,0,0,1-2.613-2.5m.455,5.756h4.355v18.6H215.5Z" transform="translate(51.422 19.74)"/>
          <path id="Caminho_2375" data-name="Caminho 2375" d="M222.808,100.07c0-6.059,3.825-9.772,7.877-9.772a6.868,6.868,0,0,1,4.886,2.046l-.152-2.992V82.611h4.355v26.738h-3.6l-.3-2.007h-.151a7.751,7.751,0,0,1-5.265,2.461c-4.658,0-7.649-3.6-7.649-9.732m12.611,4.052V95.45a5.543,5.543,0,0,0-3.787-1.553c-2.387,0-4.318,2.234-4.318,6.135,0,4.015,1.515,6.173,4.2,6.173a5.016,5.016,0,0,0,3.9-2.083" transform="translate(53.278 19.754)"/>
          <path id="Caminho_2376" data-name="Caminho 2376" d="M240.445,102.866c0-4.166,3.333-6.136,10.984-6.969-.077-1.893-.91-3.484-3.409-3.484a10.49,10.49,0,0,0-5.227,1.742L241.2,91.2a14.524,14.524,0,0,1,7.649-2.385c4.621,0,6.932,2.84,6.932,8.067v10.982h-3.6l-.3-2.045h-.152a9.027,9.027,0,0,1-5.756,2.5,5.229,5.229,0,0,1-5.53-5.453m10.984,0V98.927c-5.075.606-6.741,1.742-6.741,3.636,0,1.591,1.136,2.2,2.65,2.2a5.708,5.708,0,0,0,4.09-1.893" transform="translate(57.496 21.238)"/>
          <path id="Caminho_2377" data-name="Caminho 2377" d="M256.432,100.07c0-6.059,3.824-9.772,7.877-9.772a6.868,6.868,0,0,1,4.886,2.046l-.152-2.992V82.611H273.4v26.738h-3.6l-.3-2.007h-.151a7.75,7.75,0,0,1-5.265,2.461c-4.658,0-7.649-3.6-7.649-9.732m12.611,4.052V95.45a5.543,5.543,0,0,0-3.787-1.553c-2.387,0-4.318,2.234-4.318,6.135,0,4.015,1.515,6.173,4.2,6.173a5.016,5.016,0,0,0,3.9-2.083" transform="translate(61.319 19.754)"/>
          <path id="Caminho_2378" data-name="Caminho 2378" d="M273.916,98.587c0-6.212,4.2-9.772,8.825-9.772,4.658,0,8.861,3.56,8.861,9.772,0,6.172-4.2,9.732-8.861,9.732-4.621,0-8.825-3.56-8.825-9.732m13.218,0c0-3.75-1.667-6.212-4.393-6.212s-4.357,2.462-4.357,6.212c0,3.711,1.629,6.172,4.357,6.172s4.393-2.461,4.393-6.172" transform="translate(65.499 21.238)"/>
          <path id="Caminho_2379" data-name="Caminho 2379" d="M297.393,98.548c0-6.059,4.24-9.733,8.635-9.733,5.074,0,7.649,3.674,7.649,8.825a10.5,10.5,0,0,1-.227,2.271H301.787c.492,3.409,2.8,4.924,5.378,4.924a7.811,7.811,0,0,0,4.316-1.287l1.514,2.8a11.3,11.3,0,0,1-6.362,1.97c-5.225,0-9.24-3.56-9.24-9.772m4.469-1.969h7.953c0-2.65-1.213-4.317-3.712-4.317-1.817,0-3.711,1.022-4.24,4.317" transform="translate(71.113 21.238)"/>
          <path id="Caminho_2380" data-name="Caminho 2380" d="M314.2,89.27h3.6l.3,2.538h.152c1.551-1.667,3.37-2.992,5.68-2.992a5.058,5.058,0,0,1,5.151,3.333c1.779-1.893,3.636-3.333,5.982-3.333,3.939,0,5.757,2.69,5.757,7.385v11.665h-4.393v-11.1c0-3.068-.908-4.2-2.841-4.2-1.173,0-2.461.758-3.9,2.31v12.991H325.34v-11.1c0-3.068-.91-4.2-2.879-4.2-1.136,0-2.462.758-3.9,2.31v12.991H314.2Z" transform="translate(75.133 21.238)"/>
          <path id="Caminho_2381" data-name="Caminho 2381" d="M346.7,89.27h3.6l.3,3.295h.152c1.287-2.424,3.256-3.75,5.264-3.75a4.719,4.719,0,0,1,2.12.379l-.871,3.711a6.444,6.444,0,0,0-1.818-.227c-1.477,0-3.256,1.022-4.393,3.825v11.362H346.7Z" transform="translate(82.903 21.238)"/>
          <path id="Caminho_2382" data-name="Caminho 2382" d="M357.092,98.548c0-6.059,4.24-9.733,8.634-9.733,5.075,0,7.65,3.674,7.65,8.825a10.418,10.418,0,0,1-.228,2.271H361.485c.492,3.409,2.8,4.924,5.378,4.924a7.815,7.815,0,0,0,4.317-1.287l1.514,2.8a11.3,11.3,0,0,1-6.362,1.97c-5.227,0-9.24-3.56-9.24-9.772m4.468-1.969h7.953c0-2.65-1.212-4.317-3.711-4.317-1.818,0-3.711,1.022-4.242,4.317" transform="translate(85.389 21.238)"/>
          <path id="Caminho_2383" data-name="Caminho 2383" d="M372.987,100.07c0-6.059,3.825-9.772,7.877-9.772a6.868,6.868,0,0,1,4.886,2.046l-.152-2.992V82.611h4.356v26.738h-3.6l-.3-2.007H385.9a7.75,7.75,0,0,1-5.265,2.461c-4.658,0-7.649-3.6-7.649-9.732m12.611,4.052V95.45a5.543,5.543,0,0,0-3.787-1.553c-2.387,0-4.318,2.234-4.318,6.135,0,4.015,1.515,6.173,4.2,6.173a5.016,5.016,0,0,0,3.9-2.083" transform="translate(89.189 19.754)"/>
          <path id="Caminho_2384" data-name="Caminho 2384" d="M390.441,98.548c0-6.059,4.24-9.733,8.634-9.733,5.075,0,7.65,3.674,7.65,8.825a10.5,10.5,0,0,1-.227,2.271H394.834c.492,3.409,2.8,4.924,5.378,4.924a7.815,7.815,0,0,0,4.317-1.287l1.514,2.8a11.3,11.3,0,0,1-6.362,1.97c-5.227,0-9.24-3.56-9.24-9.772m4.468-1.969h7.953c0-2.65-1.212-4.317-3.711-4.317-1.818,0-3.711,1.022-4.242,4.317" transform="translate(93.363 21.238)"/>
          <path id="Caminho_2385" data-name="Caminho 2385" d="M405.754,105.593l1.932-2.5a7.829,7.829,0,0,0,5.264,1.932c2.007,0,2.954-.947,2.954-2.235,0-1.553-1.856-2.2-3.9-2.954-2.689-.984-5.188-2.5-5.188-5.452,0-3.258,2.575-5.569,6.741-5.569a9.588,9.588,0,0,1,6.212,2.235l-1.932,2.461a6.982,6.982,0,0,0-4.166-1.4c-1.893,0-2.764.908-2.764,2.045,0,1.363,1.363,1.932,3.711,2.727,2.879.984,5.415,2.424,5.415,5.68,0,3.182-2.536,5.757-7.233,5.757a10.374,10.374,0,0,1-7.044-2.727" transform="translate(97.025 21.238)"/>
          <path id="Caminho_2386" data-name="Caminho 2386" d="M426.144,98.548c0-6.059,4.24-9.733,8.634-9.733,5.075,0,7.65,3.674,7.65,8.825a10.5,10.5,0,0,1-.227,2.271H430.537c.492,3.409,2.8,4.924,5.378,4.924a7.815,7.815,0,0,0,4.317-1.287l1.514,2.8a11.3,11.3,0,0,1-6.362,1.97c-5.227,0-9.24-3.56-9.24-9.772m4.468-1.969h7.953c0-2.65-1.212-4.317-3.711-4.317-1.818,0-3.711,1.022-4.242,4.317" transform="translate(101.9 21.238)"/>
          <path id="Caminho_2387" data-name="Caminho 2387" d="M448.458,100.07c0-6.059,3.824-9.772,7.877-9.772a6.868,6.868,0,0,1,4.886,2.046l-.152-2.992V82.611h4.355v26.738h-3.6l-.3-2.007h-.151a7.751,7.751,0,0,1-5.265,2.461c-4.658,0-7.649-3.6-7.649-9.732m12.611,4.052V95.45a5.543,5.543,0,0,0-3.787-1.553c-2.387,0-4.318,2.234-4.318,6.135,0,4.015,1.515,6.173,4.2,6.173a5.016,5.016,0,0,0,3.9-2.083" transform="translate(107.236 19.754)"/>
          <path id="Caminho_2388" data-name="Caminho 2388" d="M466.553,85.012a2.616,2.616,0,1,1,2.613,2.5,2.409,2.409,0,0,1-2.613-2.5m.455,5.756h4.356v18.6h-4.356Z" transform="translate(111.563 19.74)"/>
          <path id="Caminho_2389" data-name="Caminho 2389" d="M475.234,89.27h3.6l.3,3.295h.152c1.287-2.424,3.256-3.75,5.264-3.75a4.719,4.719,0,0,1,2.12.379l-.871,3.711a6.447,6.447,0,0,0-1.817-.227c-1.478,0-3.258,1.022-4.394,3.825v11.362h-4.355Z" transform="translate(113.639 21.238)"/>
          <path id="Caminho_2390" data-name="Caminho 2390" d="M485.628,98.548c0-6.059,4.24-9.733,8.634-9.733,5.075,0,7.65,3.674,7.65,8.825a10.42,10.42,0,0,1-.228,2.271H490.021c.492,3.409,2.8,4.924,5.378,4.924a7.815,7.815,0,0,0,4.317-1.287l1.514,2.8a11.3,11.3,0,0,1-6.362,1.97c-5.227,0-9.24-3.56-9.24-9.772m4.468-1.969h7.953c0-2.65-1.212-4.317-3.711-4.317-1.818,0-3.711,1.022-4.242,4.317" transform="translate(116.124 21.238)"/>
          <path id="Caminho_2391" data-name="Caminho 2391" d="M502.073,85.012a2.616,2.616,0,1,1,2.613,2.5,2.409,2.409,0,0,1-2.613-2.5m.454,5.756h4.355v18.6h-4.355Z" transform="translate(120.057 19.74)"/>
          <path id="Caminho_2392" data-name="Caminho 2392" d="M511.784,102.578V93.753h-2.65V90.5l2.878-.19.529-5.831h3.636v5.831h4.735v3.446h-4.735v8.825c0,2.159.834,3.256,2.613,3.256a4.877,4.877,0,0,0,1.932-.378l.8,3.067a9.908,9.908,0,0,1-3.825.758c-4.317,0-5.908-2.689-5.908-6.7" transform="translate(121.745 20.2)"/>
          <path id="Caminho_2393" data-name="Caminho 2393" d="M520.627,98.587c0-6.212,4.2-9.772,8.825-9.772,4.658,0,8.861,3.56,8.861,9.772,0,6.172-4.2,9.732-8.861,9.732-4.621,0-8.825-3.56-8.825-9.732m13.218,0c0-3.75-1.667-6.212-4.393-6.212s-4.357,2.462-4.357,6.212c0,3.711,1.629,6.172,4.357,6.172s4.393-2.461,4.393-6.172" transform="translate(124.493 21.238)"/>
          <path id="Caminho_2394" data-name="Caminho 2394" d="M537.073,105.593l1.932-2.5a7.828,7.828,0,0,0,5.264,1.932c2.007,0,2.954-.947,2.954-2.235,0-1.553-1.856-2.2-3.9-2.954-2.689-.984-5.188-2.5-5.188-5.452,0-3.258,2.575-5.569,6.741-5.569a9.588,9.588,0,0,1,6.212,2.235l-1.932,2.461a6.982,6.982,0,0,0-4.166-1.4c-1.893,0-2.765.908-2.765,2.045,0,1.363,1.363,1.932,3.711,2.727,2.878.984,5.415,2.424,5.415,5.68,0,3.182-2.536,5.757-7.233,5.757a10.374,10.374,0,0,1-7.044-2.727" transform="translate(128.426 21.238)"/>
          <path id="Caminho_2395" data-name="Caminho 2395" d="M6.328,126.1H8.9l.265,2.652h.114c1.742-1.742,3.636-3.106,6.173-3.106,3.862,0,5.6,2.5,5.6,7.2v11.665H17.955V133.263c0-3.446-1.061-4.924-3.484-4.924-1.893,0-3.182.985-5.037,2.841v13.33H6.328Z" transform="translate(1.513 30.046)"/>
          <path id="Caminho_2396" data-name="Caminho 2396" d="M21.795,139.739c0-4.128,3.484-6.059,11.362-6.93-.037-2.31-.833-4.545-3.825-4.545a10.584,10.584,0,0,0-5.492,1.895l-1.212-2.121a13.346,13.346,0,0,1,7.234-2.385c4.47,0,6.4,2.991,6.4,7.574V144.51H33.687l-.265-2.2h-.113c-1.819,1.477-3.788,2.65-6.1,2.65-3.068,0-5.416-1.893-5.416-5.227M33.157,140v-4.96c-6.21.719-8.293,2.12-8.293,4.505,0,2.046,1.439,2.841,3.219,2.841s3.294-.8,5.074-2.387" transform="translate(5.212 30.046)"/>
          <path id="Caminho_2397" data-name="Caminho 2397" d="M36.193,142.314l1.439-1.818a8.1,8.1,0,0,0,5.53,2.045c2.424,0,3.636-1.287,3.636-2.879,0-1.893-2.084-2.689-4.166-3.446-2.766-.984-5.416-2.31-5.416-5.339,0-2.954,2.348-5.227,6.362-5.227a8.924,8.924,0,0,1,5.72,2.083l-1.439,1.779a7.109,7.109,0,0,0-4.281-1.439c-2.31,0-3.369,1.25-3.369,2.65,0,1.667,1.628,2.348,3.9,3.144,2.877,1.022,5.68,2.273,5.68,5.606,0,2.991-2.387,5.491-6.741,5.491a9.777,9.777,0,0,1-6.855-2.65" transform="translate(8.655 30.046)"/>
          <path id="Caminho_2398" data-name="Caminho 2398" d="M54.5,142.314l1.439-1.818a8.1,8.1,0,0,0,5.53,2.045c2.424,0,3.636-1.287,3.636-2.879,0-1.893-2.084-2.689-4.166-3.446-2.766-.984-5.416-2.31-5.416-5.339,0-2.954,2.348-5.227,6.362-5.227a8.924,8.924,0,0,1,5.72,2.083l-1.439,1.779a7.109,7.109,0,0,0-4.281-1.439c-2.31,0-3.369,1.25-3.369,2.65,0,1.667,1.628,2.348,3.9,3.144,2.877,1.022,5.68,2.273,5.68,5.606,0,2.991-2.387,5.491-6.741,5.491a9.777,9.777,0,0,1-6.855-2.65" transform="translate(13.033 30.046)"/>
          <path id="Caminho_2399" data-name="Caminho 2399" d="M68.227,121.7a2.083,2.083,0,0,1,4.166,0,2.083,2.083,0,0,1-4.166,0m.53,5.833h3.105v18.406H68.757Z" transform="translate(16.315 28.613)"/>
          <path id="Caminho_2400" data-name="Caminho 2400" d="M76.822,139.767V129.695H74.1v-2.348l2.878-.19.379-5.907h2.613v5.907h4.961v2.538H79.966v10.15c0,2.234.72,3.523,2.84,3.523a4.83,4.83,0,0,0,2.083-.455l.644,2.2a7.833,7.833,0,0,1-3.446.8c-3.939,0-5.265-2.461-5.265-6.136" transform="translate(17.718 28.994)"/>
          <path id="Caminho_2401" data-name="Caminho 2401" d="M85.681,137.681V126.016h3.144v11.249c0,3.446,1.022,4.923,3.446,4.923,1.893,0,3.219-.947,4.961-3.105V126.016h3.105v18.406H97.762l-.265-2.877h-.114c-1.705,2.006-3.522,3.332-6.059,3.332-3.9,0-5.643-2.5-5.643-7.2" transform="translate(20.488 30.133)"/>
          <path id="Caminho_2402" data-name="Caminho 2402" d="M101.27,139.739c0-4.128,3.484-6.059,11.362-6.93-.037-2.31-.833-4.545-3.825-4.545a10.584,10.584,0,0,0-5.492,1.895l-1.212-2.121a13.346,13.346,0,0,1,7.234-2.385c4.47,0,6.4,2.991,6.4,7.574V144.51h-2.575l-.265-2.2h-.113c-1.819,1.477-3.788,2.65-6.1,2.65-3.068,0-5.416-1.893-5.416-5.227m11.362.265v-4.96c-6.21.719-8.293,2.12-8.293,4.505,0,2.046,1.439,2.841,3.219,2.841s3.295-.8,5.074-2.387" transform="translate(24.216 30.046)"/>
          <path id="Caminho_2403" data-name="Caminho 2403" d="M120.953,151.554c3.181-.227,4.128-.8,4.128-1.893,0-.985-.757-1.514-2.916-1.818l1.439-2.954c-4.279-.568-7.385-3.976-7.385-9.544,0-6.172,4.129-9.695,8.862-9.695a7.268,7.268,0,0,1,5.378,2.159l-1.553,1.893a5.26,5.26,0,0,0-3.711-1.477c-3.295,0-5.757,2.878-5.757,7.12,0,4.2,2.311,7.044,5.719,7.044a6.346,6.346,0,0,0,4.28-1.742l1.363,1.893a8.3,8.3,0,0,1-5.188,2.387l-.871,2.006c1.742.418,2.764,1.136,2.764,2.689,0,2.2-2.234,3.258-6.249,3.447Z" transform="translate(27.79 30.046)"/>
          <path id="Caminho_2404" data-name="Caminho 2404" d="M129.209,136.975c0-6.172,4.015-9.695,8.521-9.695s8.521,3.523,8.521,9.695c0,6.1-4.015,9.619-8.521,9.619s-8.521-3.522-8.521-9.619m5.833-15.868c-1.136,0-1.665,1.212-1.779,2.991l-2.083-.113c.113-2.954,1.212-5.151,3.825-5.151,2.688,0,3.673,3.182,5.453,3.182,1.1,0,1.628-1.25,1.742-2.992l2.083.151c-.114,2.917-1.212,5.113-3.825,5.113-2.689,0-3.674-3.181-5.416-3.181m7.991,15.868c0-4.242-2.12-7.12-5.3-7.12-3.142,0-5.3,2.878-5.3,7.12,0,4.2,2.16,7.044,5.3,7.044,3.182,0,5.3-2.84,5.3-7.044" transform="translate(30.897 28.416)"/>
          <path id="Caminho_2405" data-name="Caminho 2405" d="M145.441,135.307c0-5.984,4.089-9.656,8.331-9.656,4.735,0,7.31,3.408,7.31,8.634a10.028,10.028,0,0,1-.151,1.856H148.622c.3,4.128,2.954,6.286,6.059,6.286a8.1,8.1,0,0,0,4.582-1.4l1.136,2.046a10.606,10.606,0,0,1-6.1,1.893c-4.96,0-8.861-3.56-8.861-9.658m3.256-1.628h9.581c0-3.56-1.628-5.492-4.468-5.492-2.273,0-4.621,1.553-5.113,5.492" transform="translate(34.778 30.046)"/>
          <path id="Caminho_2406" data-name="Caminho 2406" d="M159.777,142.314l1.439-1.818a8.1,8.1,0,0,0,5.53,2.045c2.424,0,3.636-1.287,3.636-2.879,0-1.893-2.084-2.689-4.166-3.446-2.766-.984-5.416-2.31-5.416-5.339,0-2.954,2.348-5.227,6.362-5.227a8.924,8.924,0,0,1,5.72,2.083l-1.439,1.779a7.109,7.109,0,0,0-4.281-1.439c-2.31,0-3.369,1.25-3.369,2.65,0,1.667,1.628,2.348,3.9,3.144,2.877,1.022,5.68,2.273,5.68,5.606,0,2.991-2.387,5.491-6.741,5.491a9.777,9.777,0,0,1-6.855-2.65" transform="translate(38.206 30.046)"/>
          <path id="Caminho_2407" data-name="Caminho 2407" d="M178.668,136.91c0-5.985,3.787-9.7,7.99-9.7a7.582,7.582,0,0,1,5.151,2.121l-.151-3.144V119.11H194.8v26.965h-2.576l-.265-2.159h-.113a8.305,8.305,0,0,1-5.567,2.613c-4.621,0-7.612-3.484-7.612-9.619m12.99,4.468v-9.619a6.405,6.405,0,0,0-4.47-1.932c-2.954,0-5.3,2.841-5.3,7.044,0,4.394,1.856,7.044,5.075,7.044,1.7,0,3.181-.834,4.7-2.538" transform="translate(42.723 28.482)"/>
          <path id="Caminho_2408" data-name="Caminho 2408" d="M195.266,135.307c0-5.984,4.089-9.656,8.331-9.656,4.735,0,7.31,3.408,7.31,8.634a10.031,10.031,0,0,1-.151,1.856H198.447c.3,4.128,2.954,6.286,6.059,6.286a8.1,8.1,0,0,0,4.582-1.4l1.136,2.046a10.606,10.606,0,0,1-6.1,1.893c-4.96,0-8.861-3.56-8.861-9.658m3.256-1.628H208.1c0-3.56-1.628-5.492-4.468-5.492-2.273,0-4.621,1.553-5.113,5.492" transform="translate(46.692 30.046)"/>
          <path id="Caminho_2409" data-name="Caminho 2409" d="M215.96,135.345c0-6.172,4.128-9.695,8.861-9.695a7.27,7.27,0,0,1,5.378,2.159l-1.551,1.893a5.268,5.268,0,0,0-3.712-1.477c-3.295,0-5.757,2.878-5.757,7.12,0,4.2,2.31,7.044,5.72,7.044a6.341,6.341,0,0,0,4.279-1.742l1.364,1.893a8.393,8.393,0,0,1-5.909,2.424c-4.923,0-8.671-3.522-8.671-9.619" transform="translate(51.641 30.046)"/>
          <path id="Caminho_2410" data-name="Caminho 2410" d="M230.693,126.1h2.575l.265,3.333h.114c1.212-2.311,3.105-3.788,5.227-3.788a4.572,4.572,0,0,1,1.969.379l-.682,2.652a5.608,5.608,0,0,0-1.705-.228c-1.553,0-3.408,1.136-4.658,4.242v11.816h-3.105Z" transform="translate(55.164 30.046)"/>
          <path id="Caminho_2411" data-name="Caminho 2411" d="M240.566,121.7a2.083,2.083,0,0,1,4.166,0,2.083,2.083,0,0,1-4.166,0m.53,5.833H244.2v18.406H241.1Z" transform="translate(57.525 28.613)"/>
          <path id="Caminho_2412" data-name="Caminho 2412" d="M246.558,142.314,248,140.5a8.1,8.1,0,0,0,5.53,2.045c2.424,0,3.636-1.287,3.636-2.879,0-1.893-2.084-2.689-4.166-3.446-2.766-.984-5.416-2.31-5.416-5.339,0-2.954,2.348-5.227,6.362-5.227a8.926,8.926,0,0,1,5.72,2.083l-1.44,1.779a7.1,7.1,0,0,0-4.28-1.439c-2.31,0-3.369,1.25-3.369,2.65,0,1.667,1.628,2.348,3.9,3.144,2.877,1.022,5.68,2.273,5.68,5.606,0,2.991-2.387,5.491-6.741,5.491a9.777,9.777,0,0,1-6.855-2.65" transform="translate(58.957 30.046)"/>
          <path id="Caminho_2413" data-name="Caminho 2413" d="M259.579,135.307c0-5.984,4.089-9.656,8.331-9.656,4.735,0,7.31,3.408,7.31,8.634a10.027,10.027,0,0,1-.151,1.856H262.76c.3,4.128,2.954,6.286,6.059,6.286a8.1,8.1,0,0,0,4.582-1.4l1.136,2.046a10.606,10.606,0,0,1-6.1,1.893c-4.96,0-8.861-3.56-8.861-9.658m3.256-1.628h9.581c0-3.56-1.628-5.492-4.468-5.492-2.273,0-4.621,1.553-5.113,5.492" transform="translate(62.071 30.046)"/>
          <path id="Caminho_2414" data-name="Caminho 2414" d="M280.243,135.307c0-5.984,4.089-9.656,8.331-9.656,4.735,0,7.31,3.408,7.31,8.634a10.029,10.029,0,0,1-.151,1.856H283.424c.3,4.128,2.954,6.286,6.059,6.286a8.1,8.1,0,0,0,4.582-1.4l1.136,2.046a10.606,10.606,0,0,1-6.1,1.893c-4.96,0-8.861-3.56-8.861-9.658m3.256-1.628h9.581c0-3.56-1.628-5.492-4.468-5.492-2.273,0-4.621,1.553-5.113,5.492" transform="translate(67.012 30.046)"/>
          <path id="Caminho_2415" data-name="Caminho 2415" d="M296.229,126.1H298.8l.265,2.652h.114c1.59-1.742,3.522-3.106,5.719-3.106a4.829,4.829,0,0,1,5.074,3.523c1.932-2.083,3.825-3.523,6.059-3.523,3.788,0,5.606,2.5,5.606,7.2v11.665h-3.106V133.263c0-3.446-1.1-4.924-3.408-4.924-1.44,0-2.917.947-4.621,2.841v13.33H307.4V133.263c0-3.446-1.1-4.924-3.446-4.924-1.364,0-2.917.947-4.621,2.841v13.33h-3.105Z" transform="translate(70.835 30.046)"/>
          <path id="Caminho_2416" data-name="Caminho 2416" d="M325.422,142.314l1.439-1.818a8.1,8.1,0,0,0,5.53,2.045c2.424,0,3.636-1.287,3.636-2.879,0-1.893-2.084-2.689-4.166-3.446-2.766-.984-5.416-2.31-5.416-5.339,0-2.954,2.348-5.227,6.362-5.227a8.926,8.926,0,0,1,5.72,2.083l-1.44,1.779a7.1,7.1,0,0,0-4.28-1.439c-2.31,0-3.369,1.25-3.369,2.65,0,1.667,1.628,2.348,3.9,3.144,2.877,1.022,5.68,2.273,5.68,5.606,0,2.991-2.387,5.491-6.741,5.491a9.777,9.777,0,0,1-6.855-2.65" transform="translate(77.816 30.046)"/>
          <path id="Caminho_2417" data-name="Caminho 2417" d="M338.626,139.739c0-4.128,3.484-6.059,11.362-6.93-.037-2.31-.833-4.545-3.825-4.545a10.583,10.583,0,0,0-5.492,1.895l-1.212-2.121a13.346,13.346,0,0,1,7.234-2.385c4.47,0,6.4,2.991,6.4,7.574V144.51h-2.575l-.265-2.2h-.113c-1.819,1.477-3.788,2.65-6.1,2.65-3.068,0-5.416-1.893-5.416-5.227m11.362.265v-4.96c-6.21.719-8.293,2.12-8.293,4.505,0,2.046,1.439,2.841,3.219,2.841s3.295-.8,5.074-2.387" transform="translate(80.973 30.046)"/>
          <path id="Caminho_2418" data-name="Caminho 2418" d="M354.46,139.5V127.837H357.6v11.247c0,3.447,1.022,4.924,3.446,4.924,1.895,0,3.219-.948,4.961-3.106V127.837h3.105v18.406h-2.575l-.265-2.878h-.114c-1.7,2.007-3.522,3.333-6.059,3.333-3.9,0-5.643-2.5-5.643-7.2m9.393-21.094h3.408l.19.341-5.984,5.908h-2.5Z" transform="translate(84.759 28.314)"/>
          <path id="Caminho_2419" data-name="Caminho 2419" d="M369.928,136.91c0-5.985,3.787-9.7,7.99-9.7a7.582,7.582,0,0,1,5.151,2.121l-.151-3.144V119.11h3.144v26.965h-2.576l-.265-2.159h-.113a8.305,8.305,0,0,1-5.567,2.613c-4.621,0-7.612-3.484-7.612-9.619m12.99,4.468v-9.619a6.4,6.4,0,0,0-4.468-1.932c-2.955,0-5.3,2.841-5.3,7.044,0,4.394,1.856,7.044,5.075,7.044,1.7,0,3.181-.834,4.7-2.538" transform="translate(88.458 28.482)"/>
          <path id="Caminho_2420" data-name="Caminho 2420" d="M386.527,135.307c0-5.984,4.089-9.656,8.331-9.656,4.735,0,7.31,3.408,7.31,8.634a10.029,10.029,0,0,1-.151,1.856H389.708c.3,4.128,2.954,6.286,6.059,6.286a8.1,8.1,0,0,0,4.582-1.4l1.136,2.046a10.606,10.606,0,0,1-6.1,1.893c-4.96,0-8.861-3.56-8.861-9.658m3.256-1.628h9.581c0-3.56-1.628-5.492-4.468-5.492-2.273,0-4.621,1.553-5.113,5.492" transform="translate(92.427 30.046)"/>
          <path id="Caminho_2421" data-name="Caminho 2421" d="M408.321,126.1H410.9l.265,2.652h.114c1.59-1.742,3.522-3.106,5.719-3.106a4.829,4.829,0,0,1,5.074,3.523c1.932-2.083,3.825-3.523,6.059-3.523,3.788,0,5.606,2.5,5.606,7.2v11.665h-3.107V133.263c0-3.446-1.1-4.924-3.408-4.924-1.44,0-2.917.947-4.621,2.841v13.33h-3.105V133.263c0-3.446-1.1-4.924-3.446-4.924-1.364,0-2.917.947-4.621,2.841v13.33h-3.105Z" transform="translate(97.639 30.046)"/>
          <path id="Caminho_2422" data-name="Caminho 2422" d="M432.225,135.307c0-5.984,4.089-9.656,8.331-9.656,4.735,0,7.31,3.408,7.31,8.634a10.029,10.029,0,0,1-.151,1.856H435.406c.3,4.128,2.954,6.286,6.059,6.286a8.1,8.1,0,0,0,4.582-1.4l1.136,2.046a10.606,10.606,0,0,1-6.1,1.893c-4.96,0-8.861-3.56-8.861-9.658m3.256-1.628h9.581c0-3.56-1.628-5.492-4.468-5.492-2.273,0-4.621,1.553-5.113,5.492" transform="translate(103.354 30.046)"/>
          <path id="Caminho_2423" data-name="Caminho 2423" d="M448.211,126.1h2.575l.265,2.652h.114c1.742-1.742,3.636-3.106,6.173-3.106,3.862,0,5.6,2.5,5.6,7.2v11.665h-3.105V133.263c0-3.446-1.061-4.924-3.484-4.924-1.893,0-3.182.985-5.037,2.841v13.33h-3.105Z" transform="translate(107.177 30.046)"/>
          <path id="Caminho_2424" data-name="Caminho 2424" d="M465.58,139.767V129.695h-2.727v-2.348l2.878-.19.379-5.907h2.613v5.907h4.961v2.538h-4.961v10.15c0,2.234.72,3.523,2.84,3.523a4.829,4.829,0,0,0,2.083-.455l.644,2.2a7.834,7.834,0,0,1-3.446.8c-3.939,0-5.265-2.461-5.265-6.136" transform="translate(110.678 28.994)"/>
          <path id="Caminho_2425" data-name="Caminho 2425" d="M473.063,139.739c0-4.128,3.484-6.059,11.362-6.93-.037-2.31-.833-4.545-3.825-4.545a10.583,10.583,0,0,0-5.492,1.895l-1.212-2.121a13.346,13.346,0,0,1,7.234-2.385c4.469,0,6.4,2.991,6.4,7.574V144.51h-2.575l-.265-2.2h-.113c-1.819,1.477-3.788,2.65-6.1,2.65-3.068,0-5.416-1.893-5.416-5.227m11.362.265v-4.96c-6.21.719-8.293,2.12-8.293,4.505,0,2.046,1.439,2.841,3.219,2.841s3.295-.8,5.074-2.387" transform="translate(113.12 30.046)"/>
          <path id="Caminho_2426" data-name="Caminho 2426" d="M489.111,142.288V119.11h3.105v23.4c0,.985.416,1.326.91,1.326a2.226,2.226,0,0,0,.643-.076l.416,2.348a4.427,4.427,0,0,1-1.779.3c-2.348,0-3.295-1.477-3.295-4.128" transform="translate(116.957 28.482)"/>
        </g>
      </g>
    </g>
  </g>
</svg>
