<svg xmlns="http://www.w3.org/2000/svg" xmlns:xlink="http://www.w3.org/1999/xlink" width="1373.083" height="705.314" viewBox="0 0 1373.083 705.314">
  <defs>
    <clipPath id="clip-path">
      <rect id="Retângulo_67" data-name="Retângulo 67" width="469" height="126.967" fill="none"/>
    </clipPath>
    <clipPath id="clip-path-2">
      <rect id="Retângulo_73" data-name="Retângulo 73" width="417.928" height="484.776" fill="none"/>
    </clipPath>
  </defs>
  <g id="Grupo_264" data-name="Grupo 264" transform="translate(0 -522.033)">
    <g id="Seta01" transform="translate(0 522.033)">
      <g id="Grupo_83" data-name="Grupo 83" clip-path="url(#clip-path)">
        <path id="Caminho_297" data-name="Caminho 297" d="M489.84,48.763a17.94,17.94,0,0,1-1.4,4.312,2.127,2.127,0,0,0,3.866,1.777,22.151,22.151,0,0,0,1.73-5.329,2.13,2.13,0,0,0-4.191-.76" transform="translate(-280.26 -27.117)" fill="#b6492e"/>
        <path id="Caminho_298" data-name="Caminho 298" d="M466.241,84.914a2.139,2.139,0,0,0,3,.256,48.5,48.5,0,0,0,3.9-3.634,2.108,2.108,0,0,0-.075-2.993,2.139,2.139,0,0,0-3.011.074,44.226,44.226,0,0,1-3.558,3.314,2.108,2.108,0,0,0-.258,2.983" transform="translate(-267.346 -44.954)" fill="#b6492e"/>
        <path id="Caminho_299" data-name="Caminho 299" d="M485.291,20.9a2.128,2.128,0,0,0,3.866-1.777,17.746,17.746,0,0,0-3.231-4.757,2.138,2.138,0,0,0-3.011-.084,2.107,2.107,0,0,0-.085,2.992,13.553,13.553,0,0,1,2.46,3.626" transform="translate(-276.822 -7.903)" fill="#b6492e"/>
        <path id="Caminho_300" data-name="Caminho 300" d="M492.078,291.8a2.124,2.124,0,0,0,2.13,2.1h.022c1.711-.017,3.465-.077,5.211-.178a2.117,2.117,0,1,0-.248-4.227c-1.678.1-3.363.155-5.005.171a2.123,2.123,0,0,0-2.109,2.138" transform="translate(-282.464 -166.93)" fill="#b6492e"/>
        <path id="Caminho_301" data-name="Caminho 301" d="M842.3,206.435a2.192,2.192,0,0,0,.277-.018c1.677-.217,3.374-.424,5.043-.615a2.117,2.117,0,1,0-.487-4.206c-1.69.193-3.408.4-5.106.623a2.116,2.116,0,0,0,.273,4.216" transform="translate(-482.281 -116.239)" fill="#b6492e"/>
        <path id="Caminho_302" data-name="Caminho 302" d="M878.094,202.877c.061,0,.123,0,.184-.008,1.679-.143,3.384-.276,5.064-.395a2.117,2.117,0,1,0-.3-4.223c-1.7.12-3.427.254-5.126.4a2.116,2.116,0,0,0,.179,4.226" transform="translate(-502.825 -114.316)" fill="#b6492e"/>
        <path id="Caminho_303" data-name="Caminho 303" d="M985.9,201.075c1.683.067,3.391.146,5.078.235.039,0,.077,0,.115,0a2.117,2.117,0,0,0,.111-4.231c-1.705-.09-3.432-.17-5.133-.237a2.117,2.117,0,1,0-.171,4.23" transform="translate(-564.758 -113.507)" fill="#b6492e"/>
        <path id="Caminho_304" data-name="Caminho 304" d="M451.82,4.228A25.243,25.243,0,0,1,456.46,5,2.118,2.118,0,1,0,457.569.908a29.537,29.537,0,0,0-5.429-.9,2.117,2.117,0,1,0-.319,4.222" transform="translate(-258.224 0)" fill="#b6492e"/>
        <path id="Caminho_305" data-name="Caminho 305" d="M435.609,105.23a2.136,2.136,0,0,0,2.845.984q.8-.385,1.6-.779c1.027-.508,2.06-1.058,3.07-1.632a2.109,2.109,0,0,0,.791-2.888,2.136,2.136,0,0,0-2.906-.786c-.941.534-1.9,1.045-2.854,1.517q-.775.383-1.553.757a2.111,2.111,0,0,0-.99,2.827" transform="translate(-249.928 -57.576)" fill="#b6492e"/>
        <path id="Caminho_306" data-name="Caminho 306" d="M914.014,200.879l.092,0c1.678-.071,3.387-.13,5.077-.178a2.117,2.117,0,1,0-.12-4.232c-1.711.048-3.439.108-5.137.18a2.117,2.117,0,0,0,.088,4.232" transform="translate(-523.444 -113.29)" fill="#b6492e"/>
        <path id="Caminho_307" data-name="Caminho 307" d="M806.714,211.568a2.167,2.167,0,0,0,.371-.032c1.661-.29,3.347-.571,5.012-.837a2.117,2.117,0,1,0-.675-4.18c-1.685.268-3.392.553-5.073.847a2.116,2.116,0,0,0,.365,4.2" transform="translate(-461.851 -119.07)" fill="#b6492e"/>
        <path id="Caminho_308" data-name="Caminho 308" d="M1021.755,203.2c1.673.131,3.378.275,5.067.428.066.006.13.009.2.009a2.116,2.116,0,0,0,.19-4.225c-1.706-.155-3.428-.3-5.119-.432a2.117,2.117,0,1,0-.333,4.221" transform="translate(-585.385 -114.737)" fill="#b6492e"/>
        <path id="Caminho_309" data-name="Caminho 309" d="M950,200.359h.144c1.637,0,3.3.011,4.939.033h.029a2.117,2.117,0,0,0,.027-4.233c-1.659-.022-3.339-.033-5-.033H950a2.117,2.117,0,1,0,0,4.234" transform="translate(-544.1 -113.093)" fill="#b6492e"/>
        <path id="Caminho_310" data-name="Caminho 310" d="M599.841,271.666a2.146,2.146,0,0,0,.664-.106c1.567-.511,3.161-1.043,4.873-1.627a2.118,2.118,0,1,0-1.384-4c-1.693.578-3.268,1.1-4.817,1.609a2.116,2.116,0,0,0,.663,4.129" transform="translate(-343.1 -153.277)" fill="#b6492e"/>
        <path id="Caminho_311" data-name="Caminho 311" d="M334.938,174.931a2.129,2.129,0,0,0-4.139,1c.413,1.687.9,3.385,1.456,5.047a2.129,2.129,0,0,0,4.044-1.33c-.518-1.554-.975-3.141-1.361-4.718" transform="translate(-189.852 -99.939)" fill="#b6492e"/>
        <path id="Caminho_312" data-name="Caminho 312" d="M530.062,290.117a2.157,2.157,0,0,0,.311-.022c1.69-.246,3.415-.533,5.126-.851a2.117,2.117,0,1,0-.784-4.161c-1.656.308-3.325.585-4.959.823a2.116,2.116,0,0,0,.306,4.212" transform="translate(-303.047 -164.368)" fill="#b6492e"/>
        <path id="Caminho_313" data-name="Caminho 313" d="M346.19,214.592a2.138,2.138,0,0,0,2.932.686,2.11,2.11,0,0,0,.69-2.914c-.864-1.388-1.685-2.826-2.439-4.276a2.136,2.136,0,0,0-2.87-.909,2.11,2.11,0,0,0-.915,2.852c.8,1.547,1.679,3.081,2.6,4.561" transform="translate(-197.092 -119.33)" fill="#b6492e"/>
        <path id="Caminho_314" data-name="Caminho 314" d="M771.394,218.276a2.17,2.17,0,0,0,.463-.05c1.642-.362,3.315-.717,4.971-1.056a2.117,2.117,0,1,0-.86-4.146c-1.676.343-3.369.7-5.032,1.069a2.116,2.116,0,0,0,.458,4.184" transform="translate(-441.577 -122.811)" fill="#b6492e"/>
        <path id="Caminho_315" data-name="Caminho 315" d="M463.2,292.2a2.117,2.117,0,1,0,.42-4.213c-1.664-.164-3.326-.378-4.938-.637a2.117,2.117,0,1,0-.679,4.179c1.7.273,3.447.5,5.2.671" transform="translate(-261.878 -165.679)" fill="#b6492e"/>
        <path id="Caminho_316" data-name="Caminho 316" d="M427.848,283.809a2.132,2.132,0,0,0,2.659-1.406,2.114,2.114,0,0,0-1.415-2.643c-1.588-.482-3.161-1.024-4.678-1.611a2.119,2.119,0,1,0-1.545,3.945c1.615.625,3.291,1.2,4.979,1.714" transform="translate(-241.958 -160.308)" fill="#b6492e"/>
        <path id="Caminho_317" data-name="Caminho 317" d="M367.169,237.471a2.14,2.14,0,0,0-3-.228,2.108,2.108,0,0,0-.229,2.985c1.145,1.326,2.354,2.619,3.592,3.843a2.139,2.139,0,0,0,3.012-.008,2.108,2.108,0,0,0-.008-2.994c-1.16-1.146-2.291-2.358-3.364-3.6" transform="translate(-208.613 -136.509)" fill="#b6492e"/>
        <path id="Caminho_318" data-name="Caminho 318" d="M396.3,268.009a2.131,2.131,0,0,0,1.834-1.038,2.11,2.11,0,0,0-.746-2.9c-1.4-.826-2.791-1.726-4.129-2.675a2.138,2.138,0,0,0-2.971.493,2.109,2.109,0,0,0,.5,2.953c1.436,1.018,2.926,1.985,4.431,2.871a2.131,2.131,0,0,0,1.084.3" transform="translate(-223.808 -150.503)" fill="#b6492e"/>
        <path id="Caminho_319" data-name="Caminho 319" d="M701.825,236.305a2.146,2.146,0,0,0,.638-.1c1.611-.5,3.248-1,4.864-1.48a2.118,2.118,0,1,0-1.218-4.057c-1.636.485-3.292.989-4.922,1.5a2.116,2.116,0,0,0,.637,4.137" transform="translate(-401.642 -132.961)" fill="#b6492e"/>
        <path id="Caminho_320" data-name="Caminho 320" d="M736.413,226.536a2.145,2.145,0,0,0,.552-.072c1.629-.433,3.284-.861,4.921-1.271a2.118,2.118,0,1,0-1.042-4.1c-1.656.415-3.332.848-4.981,1.287a2.116,2.116,0,0,0,.549,4.162" transform="translate(-421.496 -127.449)" fill="#b6492e"/>
        <path id="Caminho_321" data-name="Caminho 321" d="M667.7,247.515a2.132,2.132,0,0,0,.713-.123q2.4-.847,4.805-1.671a2.118,2.118,0,1,0-1.385-4q-2.426.829-4.845,1.685a2.116,2.116,0,0,0,.713,4.112" transform="translate(-382.051 -139.316)" fill="#b6492e"/>
        <path id="Caminho_322" data-name="Caminho 322" d="M565.318,282.243a2.157,2.157,0,0,0,.53-.066c1.617-.412,3.3-.862,4.988-1.34a2.118,2.118,0,1,0-1.163-4.073c-1.658.468-3.3.909-4.881,1.311a2.116,2.116,0,0,0,.526,4.168" transform="translate(-323.284 -159.545)" fill="#b6492e"/>
        <path id="Caminho_323" data-name="Caminho 323" d="M416.583,7.4a2.136,2.136,0,0,0,.71-.122,37.992,37.992,0,0,1,4.652-1.307,2.118,2.118,0,1,0-.894-4.14,42.25,42.25,0,0,0-5.179,1.456,2.116,2.116,0,0,0,.71,4.113" transform="translate(-237.905 -1.028)" fill="#b6492e"/>
        <path id="Caminho_324" data-name="Caminho 324" d="M633.841,259.682a2.135,2.135,0,0,0,.724-.127q2.406-.864,4.809-1.734a2.119,2.119,0,1,0-1.456-3.979q-2.4.867-4.8,1.732a2.116,2.116,0,0,0,.724,4.108" transform="translate(-362.617 -146.3)" fill="#b6492e"/>
        <path id="Caminho_325" data-name="Caminho 325" d="M402.374,119.737A2.135,2.135,0,0,0,405.1,121c1.62-.586,3.248-1.2,4.84-1.841a2.113,2.113,0,0,0,1.181-2.754,2.134,2.134,0,0,0-2.771-1.174c-1.548.619-3.132,1.221-4.707,1.79a2.114,2.114,0,0,0-1.274,2.713" transform="translate(-230.898 -66.359)" fill="#b6492e"/>
        <path id="Caminho_326" data-name="Caminho 326" d="M4.444,43.175a2.139,2.139,0,0,0,3.008-.156,2.108,2.108,0,0,0-.157-2.99c-1.246-1.116-2.487-2.265-3.687-3.415A2.139,2.139,0,0,0,.6,36.668a2.108,2.108,0,0,0,.054,2.993c1.234,1.184,2.511,2.366,3.794,3.514" transform="translate(0 -20.771)" fill="#b6492e"/>
        <path id="Caminho_327" data-name="Caminho 327" d="M57.5,84.343c1.445.914,2.929,1.821,4.412,2.7A2.12,2.12,0,1,0,64.086,83.4c-1.444-.851-2.89-1.734-4.3-2.625a2.139,2.139,0,0,0-2.941.648,2.109,2.109,0,0,0,.652,2.923" transform="translate(-32.441 -46.385)" fill="#b6492e"/>
        <path id="Caminho_328" data-name="Caminho 328" d="M226.85,143.618c1.705.194,3.438.365,5.149.508.061.005.121.008.182.008a2.117,2.117,0,0,0,.177-4.226c-1.67-.14-3.361-.307-5.024-.5a2.117,2.117,0,1,0-.483,4.207" transform="translate(-129.134 -80.382)" fill="#b6492e"/>
        <path id="Caminho_329" data-name="Caminho 329" d="M88.917,102.3c1.526.774,3.089,1.538,4.647,2.268a2.119,2.119,0,1,0,1.818-3.828c-1.517-.712-3.041-1.456-4.528-2.21a2.137,2.137,0,0,0-2.866.923,2.111,2.111,0,0,0,.929,2.848" transform="translate(-50.374 -56.683)" fill="#b6492e"/>
        <path id="Caminho_330" data-name="Caminho 330" d="M262.941,146.135c1.468.037,2.954.055,4.417.055l.758,0a2.117,2.117,0,1,0-.009-4.234H268.1l-.74,0c-1.427,0-2.877-.018-4.309-.054a2.117,2.117,0,1,0-.108,4.232" transform="translate(-149.743 -81.826)" fill="#b6492e"/>
        <path id="Caminho_331" data-name="Caminho 331" d="M191.122,137.937c1.683.342,3.393.664,5.084.956a2.117,2.117,0,1,0,.73-4.171c-1.65-.285-3.319-.6-4.961-.933a2.117,2.117,0,1,0-.853,4.148" transform="translate(-108.731 -77.123)" fill="#b6492e"/>
        <path id="Caminho_332" data-name="Caminho 332" d="M27.961,63.43c1.353,1.055,2.742,2.1,4.129,3.113a2.138,2.138,0,0,0,2.977-.457,2.108,2.108,0,0,0-.46-2.958c-1.349-.983-2.7-2-4.016-3.027a2.139,2.139,0,0,0-2.991.358,2.109,2.109,0,0,0,.36,2.972" transform="translate(-15.582 -34.395)" fill="#b6492e"/>
        <path id="Caminho_333" data-name="Caminho 333" d="M156.034,129.135c1.645.488,3.32.958,4.979,1.4a2.132,2.132,0,0,0,2.607-1.5,2.116,2.116,0,0,0-1.509-2.591c-1.619-.429-3.254-.888-4.858-1.364a2.118,2.118,0,1,0-1.218,4.057" transform="translate(-88.694 -72.073)" fill="#b6492e"/>
        <path id="Caminho_334" data-name="Caminho 334" d="M121.867,117.245c1.6.633,3.222,1.251,4.835,1.835a2.118,2.118,0,1,0,1.459-3.977c-1.573-.57-3.159-1.172-4.714-1.79a2.135,2.135,0,0,0-2.768,1.181,2.113,2.113,0,0,0,1.188,2.751" transform="translate(-69.185 -65.253)" fill="#b6492e"/>
        <path id="Caminho_335" data-name="Caminho 335" d="M367.929,130.806a2.129,2.129,0,0,0,2.062,1.592,2.163,2.163,0,0,0,.53-.067c1.666-.424,3.347-.881,5-1.358a2.118,2.118,0,1,0-1.19-4.065c-1.606.464-3.242.909-4.864,1.322a2.115,2.115,0,0,0-1.535,2.576" transform="translate(-211.162 -73.131)" fill="#b6492e"/>
        <path id="Caminho_336" data-name="Caminho 336" d="M385.6,23.187a2.13,2.13,0,0,0,1.327-.462c1.286-1.02,2.625-1.993,3.98-2.891a2.109,2.109,0,0,0,.59-2.936,2.139,2.139,0,0,0-2.954-.586c-1.454.965-2.891,2.008-4.272,3.1a2.109,2.109,0,0,0-.337,2.975,2.131,2.131,0,0,0,1.666.8" transform="translate(-220.119 -9.201)" fill="#b6492e"/>
        <path id="Caminho_337" data-name="Caminho 337" d="M298.975,144.889c.046,0,.092,0,.139,0,1.718-.11,3.454-.248,5.16-.409a2.117,2.117,0,1,0-.4-4.215c-1.664.157-3.357.291-5.032.4a2.117,2.117,0,0,0,.135,4.229" transform="translate(-170.397 -80.875)" fill="#b6492e"/>
        <path id="Caminho_338" data-name="Caminho 338" d="M359.179,47.175a2.139,2.139,0,0,0,2.987-.389c1-1.3,2.068-2.569,3.162-3.774a2.108,2.108,0,0,0-.155-2.99,2.139,2.139,0,0,0-3.008.153c-1.17,1.288-2.306,2.645-3.378,4.032a2.108,2.108,0,0,0,.391,2.968" transform="translate(-205.699 -22.764)" fill="#b6492e"/>
        <path id="Caminho_339" data-name="Caminho 339" d="M341.178,77.383a2.136,2.136,0,0,0,2.816-1.062c.674-1.489,1.415-2.97,2.2-4.4a2.11,2.11,0,0,0-.849-2.873,2.136,2.136,0,0,0-2.89.844c-.839,1.527-1.629,3.107-2.347,4.695a2.111,2.111,0,0,0,1.069,2.8" transform="translate(-195.123 -39.665)" fill="#b6492e"/>
        <path id="Caminho_340" data-name="Caminho 340" d="M326.846,143.576a2.125,2.125,0,0,0,2.123,1.969c.05,0,.1,0,.151-.005a2.122,2.122,0,0,0,1.976-2.259c-.051-.715-.088-1.434-.11-2.138-.009-.29-.016-.581-.021-.873a2.17,2.17,0,0,0,.716.008c1.7-.265,3.415-.562,5.1-.879a2.117,2.117,0,1,0-.794-4.16c-1.643.309-3.315.6-4.97.857a1.641,1.641,0,0,1-2.146.138h-.038a2.124,2.124,0,0,0-2.129,2.08c-.006.344-.009.689-.009,1.03,0,.641.011,1.292.031,1.934.024.757.063,1.53.118,2.3" transform="translate(-187.532 -77.962)" fill="#b6492e"/>
        <path id="Caminho_341" data-name="Caminho 341" d="M330.889,111.248a2.156,2.156,0,0,0,.394.036,2.127,2.127,0,0,0,2.091-1.729c.3-1.594.671-3.2,1.1-4.784a2.129,2.129,0,0,0-4.111-1.111c-.462,1.69-.859,3.411-1.18,5.117a2.118,2.118,0,0,0,1.7,2.469" transform="translate(-188.94 -58.874)" fill="#b6492e"/>
        <path id="Caminho_342" data-name="Caminho 342" d="M1028.315,198.384c8.212-5.45,20.9-9.962,30.962-12.271-9.139-4.767-20.264-12.333-26.815-19.676l3.74,16.717Z" transform="translate(-590.277 -95.974)" fill="#b6492e"/>
      </g>
    </g>
    <g id="Seta07" transform="translate(884.763 666.439) rotate(2)">
      <g id="Grupo_95" data-name="Grupo 95" transform="translate(75.836) rotate(9)" clip-path="url(#clip-path-2)">
        <path id="Caminho_470" data-name="Caminho 470" d="M5.355.01a3.878,3.878,0,0,1,3.6,4.133A78.265,78.265,0,0,1,7.683,13.85a3.877,3.877,0,1,1-7.607-1.5A70.164,70.164,0,0,0,1.224,3.614,3.879,3.879,0,0,1,5.355.01" transform="translate(325.056 255.057)" fill="#b6492e"/>
        <path id="Caminho_471" data-name="Caminho 471" d="M7.684,3.154c.6,3.151,1.092,6.337,1.463,9.467a3.879,3.879,0,0,1-3.395,4.307,4.015,4.015,0,0,1-.46.026,3.878,3.878,0,0,1-3.845-3.423C1.1,10.581.635,7.578.07,4.606A3.876,3.876,0,1,1,7.684,3.154" transform="translate(407.946 148.916)" fill="#b6492e"/>
        <path id="Caminho_472" data-name="Caminho 472" d="M13.763,6.15a3.877,3.877,0,1,1-4.6,6.24C6.738,10.6,4.225,8.816,1.689,7.08A3.877,3.877,0,0,1,6.064.678c2.613,1.787,5.2,3.629,7.7,5.471" transform="translate(329.108 38.095)" fill="#b6492e"/>
        <path id="Caminho_473" data-name="Caminho 473" d="M8.294,16.3a3.87,3.87,0,0,1-4.9-2.462C2.456,11,1.407,8.136.28,5.325A3.876,3.876,0,1,1,7.474,2.437C8.661,5.4,9.764,8.412,10.754,11.4a3.878,3.878,0,0,1-2.46,4.9" transform="translate(400.054 122.173)" fill="#b6492e"/>
        <path id="Caminho_474" data-name="Caminho 474" d="M6.422.953c2.387,2.08,4.744,4.224,7.006,6.375a3.877,3.877,0,1,1-5.34,5.623C5.908,10.878,3.634,8.811,1.332,6.8A3.878,3.878,0,1,1,6.422.953" transform="translate(351.208 55.12)" fill="#b6492e"/>
        <path id="Caminho_475" data-name="Caminho 475" d="M12.884,7.879a48.432,48.432,0,0,0-8.6.16,3.768,3.768,0,0,1-.416.022A3.878,3.878,0,0,1,3.466.326,56,56,0,0,1,13.447.143a3.878,3.878,0,0,1-.563,7.735" transform="translate(262.381 179.987)" fill="#b6492e"/>
        <path id="Caminho_476" data-name="Caminho 476" d="M13.631,7.416A57.559,57.559,0,0,0,5.988,11.59a3.878,3.878,0,0,1-4.22-6.507A65.529,65.529,0,0,1,10.442.346a3.878,3.878,0,0,1,3.189,7.07" transform="translate(236.354 185.205)" fill="#b6492e"/>
        <path id="Caminho_477" data-name="Caminho 477" d="M1.772,7.136A3.877,3.877,0,0,1,5.982.624a80.874,80.874,0,0,0,7.709,4.4,3.878,3.878,0,1,1-3.469,6.937A88.833,88.833,0,0,1,1.772,7.136" transform="translate(240.659 273.337)" fill="#b6492e"/>
        <path id="Caminho_478" data-name="Caminho 478" d="M4.953,2.815c2-.772,4.013-1.606,5.983-2.48a3.878,3.878,0,0,1,3.14,7.091c-2.085.925-4.216,1.807-6.332,2.625q-1.262.489-2.531.955A3.878,3.878,0,0,1,2.543,3.724q1.207-.443,2.41-.908" transform="translate(250.929 337.968)" fill="#b6492e"/>
        <path id="Caminho_479" data-name="Caminho 479" d="M12.5,11.245a3.849,3.849,0,0,1-1.481-.3C8.256,9.8,5.375,8.64,2.455,7.487A3.878,3.878,0,0,1,5.3.272c2.959,1.167,5.882,2.349,8.685,3.511A3.879,3.879,0,0,1,12.5,11.245" transform="translate(254.73 0.004)" fill="#b6492e"/>
        <path id="Caminho_480" data-name="Caminho 480" d="M9.343.4A3.88,3.88,0,0,1,11.1,5.6c-1.323,2.675-2.536,5.433-3.6,8.2A3.877,3.877,0,1,1,.264,11C1.415,8.02,2.723,5.045,4.15,2.16A3.874,3.874,0,0,1,9.343.4" transform="translate(28.936 421.131)" fill="#b6492e"/>
        <path id="Caminho_481" data-name="Caminho 481" d="M11.319.836a3.877,3.877,0,0,1,.644,5.446,44.963,44.963,0,0,0-4.639,7.178A3.876,3.876,0,1,1,.435,9.9,52.4,52.4,0,0,1,5.877,1.479,3.871,3.871,0,0,1,11.319.836" transform="translate(217.572 202.086)" fill="#b6492e"/>
        <path id="Caminho_482" data-name="Caminho 482" d="M12.44,1.027a3.88,3.88,0,0,1,.227,5.48,88.487,88.487,0,0,0-5.687,6.856,3.877,3.877,0,1,1-6.2-4.651A95.909,95.909,0,0,1,6.964,1.255a3.872,3.872,0,0,1,5.476-.227" transform="translate(42.395 398.125)" fill="#b6492e"/>
        <path id="Caminho_483" data-name="Caminho 483" d="M6.946,1.51A74.655,74.655,0,0,1,12.4,9.66,3.876,3.876,0,1,1,5.7,13.548a66.772,66.772,0,0,0-4.889-7.3A3.877,3.877,0,1,1,6.946,1.51" transform="translate(310.814 202.627)" fill="#b6492e"/>
        <path id="Caminho_484" data-name="Caminho 484" d="M5.754.486c2.764,1.53,5.514,3.1,8.173,4.678a3.877,3.877,0,1,1-3.947,6.675C7.385,10.3,4.7,8.767,2,7.274A3.878,3.878,0,0,1,5.754.486" transform="translate(305.331 23.49)" fill="#b6492e"/>
        <path id="Caminho_485" data-name="Caminho 485" d="M11.869,12.495a3.857,3.857,0,0,1-2.236-.713A53.086,53.086,0,0,0,2.185,7.368,3.877,3.877,0,1,1,5.571.392a60.655,60.655,0,0,1,8.54,5.06,3.878,3.878,0,0,1-2.243,7.043" transform="translate(289.5 185)" fill="#b6492e"/>
        <path id="Caminho_486" data-name="Caminho 486" d="M16.8,6.41A3.87,3.87,0,0,1,12.361,9.62C9.384,9.139,6.4,8.521,3.494,7.785q-.3-.076-.606-.156A3.878,3.878,0,0,1,4.868.13l.519.133c2.693.682,5.456,1.253,8.209,1.7A3.876,3.876,0,0,1,16.8,6.41" transform="translate(266.128 284.484)" fill="#b6492e"/>
        <path id="Caminho_487" data-name="Caminho 487" d="M7.6,2.8A84.654,84.654,0,0,1,9.776,12.3,3.878,3.878,0,0,1,6.6,16.773a4.048,4.048,0,0,1-.65.054,3.879,3.879,0,0,1-3.817-3.233A77,77,0,0,0,.156,4.963,3.876,3.876,0,1,1,7.6,2.8" transform="translate(323.249 227.439)" fill="#b6492e"/>
        <path id="Caminho_488" data-name="Caminho 488" d="M9.347.735A3.877,3.877,0,0,1,13.88,7.026c-2.558,1.845-5.238,3.637-7.963,5.323a3.878,3.878,0,0,1-4.078-6.6C4.41,4.161,6.937,2.473,9.347.735" transform="translate(276.007 324.128)" fill="#b6492e"/>
        <path id="Caminho_489" data-name="Caminho 489" d="M5.5.357c2.88,1.326,5.735,2.678,8.487,4.022a3.878,3.878,0,1,1-3.4,6.971C7.887,10.032,5.084,8.7,2.257,7.4A3.878,3.878,0,0,1,5.5.357" transform="translate(280.41 10.93)" fill="#b6492e"/>
        <path id="Caminho_490" data-name="Caminho 490" d="M3.88,14.068A3.878,3.878,0,0,1,1.357,7.245C3.639,5.288,5.867,3.231,7.98,1.129a3.877,3.877,0,0,1,5.466,5.5C11.2,8.866,8.827,11.055,6.4,13.135a3.862,3.862,0,0,1-2.52.933" transform="translate(370.194 251.357)" fill="#b6492e"/>
        <path id="Caminho_491" data-name="Caminho 491" d="M3.483.968,6.711.639q3.012-.3,6.024-.616a3.878,3.878,0,0,1,.8,7.716q-3.019.311-6.036.617l-3.224.328a3.605,3.605,0,0,1-.4.021A3.878,3.878,0,0,1,3.483.968" transform="translate(168.822 355.614)" fill="#b6492e"/>
        <path id="Caminho_492" data-name="Caminho 492" d="M3.392,1.29C6.644.881,9.633.473,12.529.046A3.878,3.878,0,0,1,13.66,7.719c-2.95.436-5.992.85-9.3,1.267a4.051,4.051,0,0,1-.49.031A3.879,3.879,0,0,1,3.392,1.29" transform="translate(196.566 352.275)" fill="#b6492e"/>
        <path id="Caminho_493" data-name="Caminho 493" d="M0,4.98q0-.605.016-1.206a3.876,3.876,0,1,1,7.75.21q-.014.5-.014,1a36.125,36.125,0,0,0,.186,3.649c.127,1.25.315,2.513.558,3.755A3.877,3.877,0,0,1,5.44,16.935a3.824,3.824,0,0,1-.75.074,3.878,3.878,0,0,1-3.8-3.133C.6,12.4.378,10.9.227,9.416A44.016,44.016,0,0,1,0,4.98" transform="translate(212.86 227.724)" fill="#b6492e"/>
        <path id="Caminho_494" data-name="Caminho 494" d="M2.433,3.5C5.312,2.341,8.319,1.233,11.37.205a3.878,3.878,0,0,1,2.473,7.351c-2.911.98-5.778,2.036-8.519,3.139A3.878,3.878,0,0,1,2.433,3.5" transform="translate(87.02 369.784)" fill="#b6492e"/>
        <path id="Caminho_495" data-name="Caminho 495" d="M1.758.632A3.875,3.875,0,0,1,7.123,1.759a54.636,54.636,0,0,0,5.321,6.856,3.877,3.877,0,1,1-5.735,5.219A62.393,62.393,0,0,1,.632,6,3.878,3.878,0,0,1,1.758.632" transform="translate(220.738 254.061)" fill="#b6492e"/>
        <path id="Caminho_496" data-name="Caminho 496" d="M.459,10.381a3.879,3.879,0,0,1,1.6-5.247C4.7,3.722,7.323,2.2,9.854.6a3.877,3.877,0,0,1,4.133,6.561C11.3,8.857,8.513,10.478,5.7,11.978a3.874,3.874,0,0,1-5.244-1.6" transform="translate(347.187 268.701)" fill="#b6492e"/>
        <path id="Caminho_497" data-name="Caminho 497" d="M3.344,1.228c2.963-.411,6.006-.8,9.3-1.2a3.878,3.878,0,0,1,.918,7.7c-3.246.387-6.24.772-9.153,1.176a3.732,3.732,0,0,1-.537.038,3.878,3.878,0,0,1-.529-7.72" transform="translate(141.1 358.553)" fill="#b6492e"/>
        <path id="Caminho_498" data-name="Caminho 498" d="M1.842.579A3.873,3.873,0,0,1,7.176,1.843c1.667,2.7,3.273,5.474,4.772,8.239a3.877,3.877,0,1,1-6.813,3.7C3.7,11.144,2.17,8.5.579,5.915A3.878,3.878,0,0,1,1.842.579" transform="translate(387.467 97.286)" fill="#b6492e"/>
        <path id="Caminho_499" data-name="Caminho 499" d="M1.7,5.6C4.307,3.822,7.046,2.112,9.841.514a3.878,3.878,0,0,1,3.847,6.734c-2.62,1.5-5.188,3.1-7.63,4.763A3.878,3.878,0,0,1,1.7,5.6" transform="translate(62.384 381.066)" fill="#b6492e"/>
        <path id="Caminho_500" data-name="Caminho 500" d="M6.806,1.338c2.071,2.39,4.1,4.864,6.034,7.354a3.876,3.876,0,1,1-6.121,4.758C4.87,11.07,2.928,8.7.948,6.419A3.877,3.877,0,1,1,6.806,1.338" transform="translate(370.957 74.81)" fill="#b6492e"/>
        <path id="Caminho_501" data-name="Caminho 501" d="M3.076,2.2C6.127,1.551,9.122.854,11.978.125a3.878,3.878,0,0,1,1.916,7.516c-2.96.755-6.06,1.476-9.215,2.143A3.878,3.878,0,0,1,3.076,2.2" transform="translate(224.1 346.926)" fill="#b6492e"/>
        <path id="Caminho_502" data-name="Caminho 502" d="M3.875,17.084a3.879,3.879,0,0,1-3.351-5.82A88.062,88.062,0,0,0,4.586,3.339a3.877,3.877,0,0,1,6.451-.966c2.224-.646,4.45-1.365,6.637-2.144a3.878,3.878,0,0,1,2.6,7.307c-3.015,1.073-6.1,2.04-9.158,2.872a3.832,3.832,0,0,1-1.376.119q-1.185,2.336-2.5,4.618a3.875,3.875,0,0,1-3.359,1.937" transform="translate(315.088 280.895)" fill="#b6492e"/>
        <path id="Caminho_503" data-name="Caminho 503" d="M3.8.578C6.758.522,9.769.336,12.754.023a3.878,3.878,0,0,1,.806,7.714c-3.2.335-6.434.536-9.609.6H3.875A3.878,3.878,0,0,1,3.8.578" transform="translate(293.765 287.113)" fill="#b6492e"/>
        <path id="Caminho_504" data-name="Caminho 504" d="M7.287,1.353a3.877,3.877,0,1,1,5.881,5.054C11.109,8.8,8.9,11.17,6.6,13.437A3.877,3.877,0,0,1,1.158,7.911c2.149-2.117,4.21-4.323,6.129-6.558" transform="translate(297.962 305.357)" fill="#b6492e"/>
        <path id="Caminho_505" data-name="Caminho 505" d="M2.992,2.061C5.953,1.366,9.061.7,12.229.077a3.878,3.878,0,0,1,1.492,7.611c-3.076.6-6.089,1.25-8.958,1.924A3.878,3.878,0,0,1,2.992,2.061" transform="translate(113.648 362.773)" fill="#b6492e"/>
        <path id="Caminho_506" data-name="Caminho 506" d="M5.779,1.843a3.877,3.877,0,1,1,6.6,4.072C10.713,8.616,8.9,11.3,7,13.889A3.877,3.877,0,1,1,.755,9.3C2.533,6.874,4.223,4.367,5.779,1.843" transform="translate(389.168 229.564)" fill="#b6492e"/>
        <path id="Caminho_507" data-name="Caminho 507" d="M3.44,17.012A3.877,3.877,0,0,1,.028,12.72C.363,9.767.583,6.749.683,3.75a3.876,3.876,0,1,1,7.747.258c-.106,3.2-.343,6.431-.7,9.59A3.876,3.876,0,0,1,3.44,17.012" transform="translate(409.49 176.692)" fill="#b6492e"/>
        <path id="Caminho_508" data-name="Caminho 508" d="M.281,11.223C1.393,8.443,2.386,5.6,3.232,2.771a3.876,3.876,0,1,1,7.427,2.222c-.912,3.051-1.983,6.117-3.181,9.113a3.876,3.876,0,1,1-7.2-2.883" transform="translate(402.745 204.189)" fill="#b6492e"/>
        <path id="Caminho_509" data-name="Caminho 509" d="M58.982.034C47.165,13.579,36,35.436,29.46,53.054,22.94,35.429,11.8,13.559,0,0L29.482,10.69Z" transform="translate(0.007 431.716)" fill="#b6492e"/>
      </g>
    </g>
  </g>
</svg>
