<?xml version="1.0" encoding="UTF-8"?>
<svg id="Camada_1" xmlns="http://www.w3.org/2000/svg" version="1.1" viewBox="0 0 496.6 486.2">
  <!-- Generator: Adobe Illustrator 30.3.0, SVG Export Plug-In . SVG Version: 2.1.3 Build 182)  -->
  <defs>
    <style>
      .st0 {
        fill: #d5ad90;
      }

      .st1 {
        fill: #dac8ae;
        stroke: #fff;
        stroke-miterlimit: 10;
        stroke-width: 22.5px;
      }

      .st2 {
        fill: #947554;
      }

      .st3 {
        fill: #b75637;
      }

      .st4 {
        fill: #fff;
      }

      .st5 {
        fill: #cfbda2;
      }

      .st6 {
        fill: #905539;
      }

      .st7 {
        fill: #6c5742;
      }

      .st8 {
        fill: #302b27;
      }

      .st9 {
        fill: #f2ece4;
      }
    </style>
  </defs>
  <circle class="st1" cx="259.3" cy="239" r="208.6"/>
  <g>
    <g>
      <path class="st4" d="M240.9,351.1c-2.1.7-4.3,1.1-6.5,1.1-11.3,0-20.4-9.2-20.4-20.4s.4-4.9,1.3-7.2c3-7.9,10.7-13.2,19.1-13.2s4.3.3,6.3,1l7.4,2.5-.2-49.8h-54.8c-1.5-16.1-15.1-28.7-31.6-28.7s-30.1,12.6-31.6,28.7h-57.6l4.3,8.3c6.6,12.6,15.6,25.4,26.7,37.9,10.3,11.6,22.6,23.1,36.6,34.3,38.8,31,80.5,51.6,96.8,59.1,2.2,1.2,3.6,1.8,5.1,1.8s.5,0,.8,0h.5c0,0,.5-.2.5-.2.4-.1.9-.3,1.4-.5l3.5-1.4-.3-55.4-7.4,2.5Z"/>
      <path class="st4" d="M471.1,463c-30.3-24.7-36.7-31.7-38-33.5,0-3.5,2.2-15.8,4-25.7,6.5-35.9,8.5-51.9,4.5-58.6-6.1-9.8-23.2-27.6-31.1-35.6,9.9-11.3,18.1-22.9,24.4-34.4l5.5-10.3h-71.1c7.9-5.6,13.2-14.7,13.4-25h51.7l1.6-3c.1-.2.2-.4.3-.6.2-.4.5-.9.7-1.3.1-.3.3-.6.4-.8v-.2c18-36,12.2-66.5,4.3-85.6-1.1-2.7-2.4-5.5-3.8-8.2-15.9-30.5-47-52.8-81.2-58.2-31.7-5-62.4,4.7-87,27.3l-4.8-2.4.2,46.4c-4.5-5-10.6-8.6-17.5-10v-29.8c-.1,0-1.8-1.6-1.8-1.6-19.6-19.2-43.3-29.9-68.8-31.1-2-2.5-4.1-5-6.2-7.4l1-4.1h-1.9c-.5-3.4-1.7-7.9-4.2-13.1-1.3-2.8-3.1-6.5-63.6-41.1l-3.4-1.9-3,2.4C57,47,28.3,90.4,14.9,137.6c-.1.3-.2.6-.3.8v.5c-.2.4-.4.8-.4,1.2l-.7,3.3,2.6,2.1c2,1.7,20.5,16.8,38.8,29.4l5.1,3.5c1.2.8,2.3,1.6,3.5,2.4-.6,11.8.9,23.7,4.5,35.3,1.5,5,3.5,10,5.8,15,.5,1.2,1.1,2.4,1.8,3.7.3.6.6,1.2.9,1.7l1.8,3.3h64.7s-.3-5.9-.3-5.9c0-.4,0-.8,0-1.2,0-6.1,3.1-11.7,8.3-15,2.8-1.7,6-2.7,9.3-2.7,7,0,13.3,4.1,16.1,10.5,1,2.2,1.5,4.6,1.5,7.1s0,.8,0,1.3l-.3,5.9h70.3l-.2-34.5c6.9-1.4,13-5,17.4-10l.2,44.5h53.8c.3,10.3,5.5,19.4,13.5,25h-67.3l.2,36.6c-13,4.1-22.1,16.1-22.1,30.2s0,1.1,0,1.7c.7,13.3,9.8,24.7,22.3,28.5l.2,47,7.9-3.6c.7-.3,1.4-.7,1.7-.8,5.9-2.7,17.1-8.1,31.1-15.8.8,1.1,1.6,2.2,2.4,3.3,1.1,1.4,2.7,3.1,4.9,4.4,3.9,2.3,8.7,2.4,12.7.7,1.1.9,2.3,1.6,3.6,2.2,2.2,1,4.7,1.6,7.1,1.6s4.8-.5,6.8-1.5c1,.6,2,1.1,3,1.5,0,23.9.6,53.5,3.9,66.9v.2c.1.4.3.8.4,1.2l1.3,3.9h130.4l-12.3-10ZM269.2,159l4.3-2.4c3-1.7,6.5-2.6,10-2.6,11.3,0,20.4,9.2,20.4,20.4s-9.2,20.5-20.4,20.5-6.8-.9-9.9-2.5l-4.4-2.4c2.6-4.6,4-9.9,4-15.5s-1.5-10.8-4.1-15.4ZM331.6,272.5l2.3-6.6c4.9,3.1,10.7,4.9,17,4.9s12-1.8,16.9-4.9l2.3,6.6c.8,2.2,1.2,4.5,1.2,6.8s0,.3,0,.5v.2c-.1,3.3-1,6.4-2.6,9.2-2.8-1.5-6.3-2.4-10-2.6-4.6-.2-13.4.7-20.5,8.7-4.9-3.8-7.8-9.7-7.8-16.1s.4-4.6,1.2-6.8Z"/>
    </g>
    <g>
      <g>
        <path class="st7" d="M306,367c-.1,7.7,2.6,15.5,7.5,21.4,1,1.2,2.1,2.3,3.5,3.1,3.4,2,8.2,1.2,10.8-1.8,1.9,2.8,4.2,4.4,7.4,5.1,3.2.8,7.1-.6,8.5-3.6,3.4,1.8,6.9,3.6,10.7,3.6,3.9,0,7.9-1.6,10.2-4.8,1.8-2.5,2.4-5.7,2.7-8.8.5-5.4.1-10.9-1-16.2-1.5-6.9-4.5-13.7-9.5-18.7-3.4-3.4-7.6-5.8-12.1-7.5-9.6-3.6-20.8-3.5-29.6,1.7-8.8,5.2-8.8,16.2-9,26.5Z"/>
        <path class="st0" d="M306,367c-.1,7.7,2.6,15.5,7.5,21.4,1,1.2,2.1,2.3,3.5,3.1,3.4,2,8.2,1.2,10.8-1.8,1.9,2.8,4.2,4.4,7.4,5.1,3.2.8,7.1-.6,8.5-3.6,3.4,1.8,6.9,3.6,10.7,3.6,3.9,0,7.9-1.6,10.2-4.8,1.8-2.5,2.4-5.7,2.7-8.8.5-5.4.1-10.9-1-16.2-1.5-6.9-4.5-13.7-9.5-18.7-3.4-3.4-7.6-5.8-12.1-7.5-9.6-3.6-20.8-3.5-29.6,1.7-8.8,5.2-8.8,16.2-9,26.5Z"/>
        <g>
          <path class="st8" d="M354.8,397s0,0,0,0c-4.7-.4-9.1-2.8-12.2-6.4-2.6-3.1-4-6.9-5.1-10.2-1.6-5-2.8-10.3-3.5-15.5,0-.6.3-1.1.9-1.2.6,0,1.1.3,1.2.9.7,5.1,1.9,10.2,3.5,15.2,1,3.1,2.4,6.7,4.7,9.5,2.7,3.2,6.6,5.3,10.8,5.7.6,0,1,.6.9,1.1,0,.5-.5.9-1,.9Z"/>
          <path class="st8" d="M337.7,395.3c-1.6,0-3.2-.3-4.7-1.1-3.2-1.5-6-4.5-7.7-8.6-1.5-3.5-2.2-7.3-2.8-10.9l-.9-5.4c0-.6.3-1.1.8-1.2.6-.1,1.1.3,1.2.8l.9,5.4c.6,3.5,1.2,7.2,2.7,10.4,1.6,3.5,3.9,6.2,6.7,7.5,3.2,1.5,7,1,9.2-1.1.4-.4,1.1-.4,1.4,0,.4.4.4,1.1,0,1.4-1.7,1.7-4.2,2.5-6.7,2.5Z"/>
        </g>
      </g>
      <g>
        <g>
          <path class="st2" d="M432.4,231.4c-.2.3-.3.6-.5,1-.3.7-.7,1.3-1,1.9h-54.3c.3,1.5.4,3.1.4,4.7,0,14.4-11.7,26.1-26.1,26.1s-26.1-11.7-26.1-26.1.2-3.2.5-4.7h-54.2v-6.4s-.2-30.6-.2-30.6c3.7,2,8,3.2,12.6,3.2,14.4,0,26.1-11.7,26.1-26.1s-11.7-26.1-26.1-26.1-9,1.2-12.8,3.3l-.2-35.7s0,0,.1,0c55.2-54.2,133.8-27.8,162.2,26.7,1.3,2.5,2.5,5.1,3.6,7.7,9.9,23.8,10.3,52.1-4,81Z"/>
          <path class="st2" d="M242.2,200.4v30.8c.1,0,.2,3,.2,3h-58.7c0-.5,0-1,0-1.5,0-3.3-.7-6.5-2-9.3-3.6-8.2-11.8-13.9-21.3-13.9s-8.7,1.3-12.3,3.5c-6.6,4.1-11,11.4-11,19.7s0,1,0,1.5h-55.5c-.4-.6-.7-1.3-1-1.9-.6-1.1-1.1-2.3-1.6-3.4-2.2-4.8-4.1-9.6-5.6-14.4-14.6-47.5,9-91.2,45.7-113.2,9-5.4,18.8-9.5,29-12.1,30.7-7.6,65.3-1.1,93.7,26.7l.2,32.4c14.2.2,25.6,11.8,25.6,26.1s-11.3,25.7-25.4,26.1Z"/>
          <path class="st2" d="M430.9,270.6c-.4.7-.7,1.3-1.1,2-37.7,69.2-133.1,116.2-156.5,126.9,0,0-.8.4-1.6.8l-.2-42.7c-12.1-1.8-21.6-11.9-22.3-24.3,0-.5,0-.9,0-1.4,0-13.1,9.6-23.8,22.1-25.8l-.2-35.4h55.3c-1,2.7-1.5,5.6-1.5,8.7,0,14.4,11.7,26.1,26.1,26.1s1.8,0,2.6-.1h0c12.9-1.3,23-11.9,23.4-25.1,0-.3,0-.6,0-.9,0-3.1-.5-6-1.5-8.7h55.4Z"/>
          <path class="st2" d="M242.9,400.2c-.4.2-.8.3-1,.4-.3,0-2.6-1.2-2.6-1.2-14.5-6.7-56.8-27.3-95.8-58.5-12.7-10.1-25-21.4-35.9-33.7-10.2-11.4-19.1-23.7-26-36.7h53.9c0-.9-.1-1.8-.1-2.6,0-14.4,11.7-26.1,26.1-26.1s26.1,11.7,26.1,26.1,0,1.8-.1,2.6h54.8l.2,36.4c-2.6-.8-5.3-1.3-8.1-1.3-11.2,0-20.7,7-24.4,16.9-1.1,2.8-1.7,6-1.7,9.2,0,14.4,11.7,26.1,26.1,26.1s5.7-.5,8.3-1.4l.2,43.8Z"/>
        </g>
        <path class="st9" d="M242.3,270.6l.2,36.4c-2.6-.8-5.3-1.3-8.1-1.3-11.2,0-20.7,7-24.4,16.9-5.2-1.8-10.4-3.7-15.5-5.6-19.8-7.5-40.1-15.9-61.2-15-8.9.4-17.4,2.4-25.7,5.4-10.2-11.4-19.1-23.7-26-36.7h53.9c0-.9-.1-1.8-.1-2.6,0-14.4,11.7-26.1,26.1-26.1s26.1,11.7,26.1,26.1,0,1.8-.1,2.6h54.8Z"/>
        <path class="st9" d="M350.9,305.4c.9,0,1.8,0,2.6-.1-.4.5-.9,1.1-1.4,1.6-19.1,20.5-48.2,29.4-76.3,29-9-.1-17.9-1.1-26.7-2.7,0-.5,0-.9,0-1.4,0-13.1,9.6-23.8,22.1-25.8l-.2-35.4h55.3c-1,2.7-1.5,5.6-1.5,8.7,0,14.4,11.7,26.1,26.1,26.1Z"/>
        <path class="st5" d="M375.5,270.6h55.4c-.4.7-.7,1.3-1.1,2-18.9-1.2-37.8-2.3-52.8,7.6,0-.3,0-.6,0-.9,0-3.1-.5-6-1.5-8.7Z"/>
        <path class="st9" d="M242.2,200.4v30.8c.1,0,.2,3,.2,3h-58.7c0-.5,0-1,0-1.5,0-3.3-.7-6.5-2-9.3-3.6-8.2-11.8-13.9-21.3-13.9s-8.7,1.3-12.3,3.5c-6.6,4.1-11,11.4-11,19.7s0,1,0,1.5h-55.5c-.4-.6-.7-1.3-1-1.9-.6-1.1-1.1-2.3-1.6-3.4-2.2-4.8-4.1-9.6-5.6-14.4-14.6-47.5,9-91.2,45.7-113.2,9.5-4.5,19.2-8.5,29-12.1,30.7-7.6,65.3-1.1,93.7,26.7l.2,32.4c14.2.2,25.6,11.8,25.6,26.1s-11.3,25.7-25.4,26.1Z"/>
        <path class="st9" d="M432.4,231.4c-.2.3-.3.6-.5,1-.3.7-.7,1.3-1,1.9h-54.3c.3,1.5.4,3.1.4,4.7,0,14.4-11.7,26.1-26.1,26.1s-26.1-11.7-26.1-26.1.2-3.2.5-4.7h-54.2v-6.4s-.2-30.6-.2-30.6c3.7,2,8,3.2,12.6,3.2,14.4,0,26.1-11.7,26.1-26.1s-11.7-26.1-26.1-26.1-9,1.2-12.8,3.3l-.2-35.7s0,0,.1,0c55.2-54.2,133.8-27.8,162.2,26.7,1.3,2.5,2.5,5.1,3.6,7.7,9.9,23.8,10.3,52.1-4,81Z"/>
        <path class="st3" d="M242.2,200.4v30.8c-16.7.6-33.6-1-50-5-3.5-.8-7-1.8-10.5-2.8-3.6-8.2-11.8-13.9-21.3-13.9s-8.7,1.3-12.3,3.5c-7.9-2.2-15.9-4.1-24.2-5.1-17.1-2-34.5.5-50.5,6.6-14.6-47.5,9-91.2,45.7-113.2,9-5.4,18.8-9.5,29-12.1,30.7-7.6,65.3-1.1,93.7,26.7l.2,32.4c14.2.2,25.6,11.8,25.6,26.1s-11.3,25.7-25.4,26.1Z"/>
        <path class="st3" d="M436.4,150.4c-9.2-2.6-18.5-5.5-27.8-6.2-32-2.7-60.4,20.3-81.2,44.9-8.4,9.9-16.3,20.6-27.2,27.7-8.8,5.8-18.9,9-29.3,11.1l-.2-30.6c3.7,2,8,3.2,12.6,3.2,14.4,0,26.1-11.7,26.1-26.1s-11.7-26.1-26.1-26.1-9,1.2-12.8,3.3l-.2-35.7s0,0,.1,0c55.2-54.2,133.8-27.8,162.2,26.7,1.3,2.5,2.5,5.1,3.6,7.7Z"/>
      </g>
      <g>
        <path class="st0" d="M467.6,467.4h-109.3c-.2-.4-.3-.8-.4-1.2-5.7-18.3-3.9-61.3-3.6-69.3,0-.8,0-1.3,0-1.3,0,0,0-.3-.2-.8h0c-.2-.9-.5-2.4-.9-4.4-1.3-6.1-3.6-17-5.8-29.2,0,0,0,0,0-.1-.2-1.2-.4-2.4-.6-3.6h0c-1.1-6.3-2.2-12.8-3.1-19.1-1.1-7.9-2-15.5-2.4-21.9h0c-.3-5.4-.3-9.9.4-12.9.3-1.5.7-2.6,1.2-3.3,5.6-7.7,23-8.4,25.8-2.8.1.2.2.4.3.7,3.1,6.8,11.2,32.2,11.2,32.2l.8-.7,21.5-19.9h.1c1.8,1.8,26.9,26.7,34.1,38.4,6,9.7-11.2,76.8-9.1,83.1,1.4,4.3,24.9,23.8,39.9,36.1Z"/>
        <g>
          <path class="st8" d="M397.6,385.8c-.5.2-1.1-.1-1.3-.7-3.7-11.9-10.6-34.1-16.7-53-5.2-16-9.8-29.7-11.4-33.3-.2-.4-.3-.6-.4-.7-1.1-1.7-4.6-3.6-9.3-3.8-3.4-.1-9.8.5-14.9,6.7-.6.7-1,1.7-1.3,2.9-.7,2.9-.8,7.1-.4,12.2h0c.4,6.6,1.5,14.5,3.1,22.8,1,5.8,2.2,11.7,3.5,17.4,2.4,11.2,5.1,21.5,6.9,28.2,0,0,0,.2,0,.3,0,.2,0,4-.1,10h0c0,0,0,.1,0,.2v1.9c-.1,18.9.1,54.9,3.6,69,.1.5.3.9.5,1.4h-2.2c-.1-.3-.2-.6-.3-.9-3.6-14.6-3.8-50.7-3.7-69.7,0-.7,0-1.4,0-2h0c0-1.7,0-3.1,0-4.4,0-2.9.1-4.8.1-5.5-.4-1.7-3.1-11.3-5.9-23.7,0,0,0,0,0-.1-.3-1.2-.5-2.3-.8-3.5-1.4-6.2-2.8-12.9-4-19.5-1.3-7.3-2.3-14.4-2.7-20.6-.4-5.9-.4-10.9.5-14.4.3-1.5.9-2.7,1.5-3.5,5.7-6.8,12.8-7.5,16.6-7.4,4.7.2,9.1,2.1,10.9,4.7,0,.1.2.2.2.4,1.6,3.1,6.2,16.7,11.2,32.2.1.4.2.7.3,1,2.6,8.1,5.3,16.7,7.8,24.6.2.7.5,1.4.7,2.1.3.9.6,1.8.9,2.7.3.9.6,1.8.8,2.7,3.7,11.8,6.4,20.7,6.8,21.8.2.5-.1,1.1-.7,1.3Z"/>
          <path class="st8" d="M388.8,357.9c-.3,0-.6-.1-.8-.3-.4-.4-.3-1.1,0-1.4,3.4-3,7.2-5.7,11.1-8,.5-.3,1.1-.1,1.4.4.3.5.1,1.1-.4,1.4-3.8,2.2-7.4,4.9-10.8,7.8-.2.2-.4.3-.7.3Z"/>
          <path class="st8" d="M400.3,367c-.2,0-.3,0-.4-.1l-10.1-4.9c-.5-.2-.7-.9-.5-1.4.3-.5.9-.7,1.4-.5l10.1,4.9c.5.2.7.9.5,1.4-.2.4-.5.6-.9.6Z"/>
          <path class="st8" d="M366.9,302.4v-1.5c0,0-.1-.8-.1-.8h0c0-.6-.4-.9-.9-1-7.5-.5-14.9,1.1-21.5,4.7-.3.1-.4.4-.5.7,0,.2,0,.3,0,.5.2.8.4,1.6.5,2.5.4,1.9.8,3.8,1.5,5.5,0,.2.2.5.3.7,1.5,3,3.5,5.4,6,6.7,1.5.8,3.2,1.3,4.9,1.3s3-.4,4.3-1.1c1.5-.8,2.7-2.2,3.7-4,2.4-4.3,2.1-9.5,1.9-14.2ZM363.2,315.5c-.8,1.5-1.8,2.5-2.9,3.2-2,1.2-4.8,1.1-7.1-.2-2.6-1.4-4.2-4-5.1-5.8-.2-.4-.4-.8-.5-1.3-.5-1.4-.8-3-1.1-4.5-.1-.6-.2-1.2-.4-1.8.1,0,.3-.1.4-.2,5.7-2.8,12-4.1,18.4-3.9v1.4c.3,4.6.5,9.3-1.6,13.1Z"/>
        </g>
      </g>
      <g>
        <path class="st6" d="M209.7,204.2c-.9,1.1-1.8,2.1-2.7,2.9h0c-2.2,1.8-4.6,2.8-7.3,3.1-.1,0-.3,0-.4,0-7.6.6-17-4.2-28.1-9.9-12.4-6.3-51.3-29.8-71-41.9,0,0,0,0,0,0-.7-.4-1.3-.8-1.8-1.1-1.6-1-3-1.8-4.1-2.5-2.2-1.3-3.9-2.4-4.8-2.9,0,0-.1-.1-.2-.1-.1,0-.2-.1-.3-.2.2.1.4.2.6.4,0,0,0,0,.1,0,8.2,5.4,55.6,38.2,38.1,55.8-.2.2-.5.4-.7.6-2,1.5-4.7,1.7-6.8.4-.6-.4-1.3-.8-2.1-1.3-1.9-1.2-4.2-2.6-6.9-4.2-.2-.1-.3-.2-.5-.3-3-1.8-6.4-4-10.2-6.3-.5-.3-1.1-.7-1.6-1-.3-.2-.7-.4-.9-.6-8.6-5.4-18.6-11.7-28.5-18.2,0,0,0,0,0,0-21.6-14.1-42.8-29-49.4-36.8,0-.2.1-.4.2-.6,13.2-47.1,41.5-89,79-119.6,32.3,18.5,59.5,34.8,61.3,38.6,4.2,8.8,4,15.1,4,16.3,0,0,0,0,0,0,0,.1,0,.2,0,.2,0,0,4.4,5.4,8.6,11.3,3.6,5.1,7,10.5,7.2,13,.4,5.1-5.7,15.3-6.6,16.7v.2c0,0,0,0,0,.1.5.9,4.2,8.9,3.1,14-.9,4.4-6.9,15.7-9.2,20.2-.2.4-.4.7-.6,1h0c-.2.5-.4.8-.4.8,0,0,27.4,21.4,39.1,37.4,0,0,.1.1.2.2,1.5,2.2,2.8,4.2,3.7,6.1,0,0,0,0,0,.1,1.5,3.3,1.7,6,.3,8Z"/>
        <path class="st8" d="M132.4,202.2c-.7,2.8-2.3,4.9-4,6.4-1.1,1-2.3,1.7-3.3,2.1-.2,0-.5.1-.8.1-1.7,0-4.7-1.2-9-3.4h0c-9.5-5-25.2-15.3-45.8-29.3,0,0,0,0,0,0-2.7-1.8-5.6-3.8-8.5-5.8l-2.7-1.9c-17.2-11.8-34.7-26-38.4-29.1,0-.4.2-.8.3-1.2,0-.2.1-.4.2-.6,1.8,1.5,20.5,16.9,38.9,29.5l2.7,1.9c2.2,1.5,4.8,3.3,7.7,5.3,0,0,0,0,0,0,8.3,5.7,18.8,12.8,28.4,19,.3.2.6.4.9.6.5.4,1.1.7,1.6,1,3.6,2.3,7.1,4.5,10.2,6.3.2.1.3.2.5.3,3.1,1.8,5.8,3.3,7.9,4.3h0c1,.5,1.9.9,2.7,1.1t0,0c.5.2.9.3,1.2.4h0c.6.1,1,.1,1.3,0,.5-.2,1-.5,1.6-.8h0c2-1.3,4-3.5,4.7-6.5,1.3-5-1-11.2-6.5-17.8-9.6-11.6-26.5-25.5-34.7-32,0,0,0,0-.1,0,0,0,0,0-.1-.1,0,0-.1-.1-.2-.1-2.6-2-4.2-3.3-4.2-3.3-.4-.3-.5-.8-.2-1.2.3-.4.8-.5,1.2-.2,0,0,2.2,1.7,5.5,4.3,2.4,1.9,5.4,4.3,8.7,7.1,0,0,0,0,0,0h0c8.3,7.1,18.6,16.3,25.3,24.4,7.4,9,7.8,15.5,6.8,19.3Z"/>
        <path class="st8" d="M199.3,211.9c-5.7,0-12-3-16.5-5.2-22.5-10.8-91.1-53.6-91.7-54-.4-.3-.5-.8-.3-1.2.3-.4.8-.5,1.2-.3.7.4,69.2,43.1,91.5,53.9,5.9,2.8,14.8,7.1,21,3.8,4.9-2.6,6.8-9.7,4.1-14.8-1.3-2.4-3.1-4.5-4.9-6.6l-.6-.7c-6.9-7.9-14.9-15-23.2-22.1-3.4-2.9-6.8-5.8-10.2-8.7l-3.8-3.2c-11.7-9.9-50.8-32.7-51.2-32.9-.4-.2-.6-.8-.3-1.2.2-.4.8-.6,1.2-.3.4.2,39.7,23.1,51.5,33.1l3.8,3.2c3.4,2.9,6.9,5.8,10.2,8.7,8.3,7.2,16.4,14.3,23.4,22.3l.6.7c1.9,2.1,3.8,4.3,5.2,6.9,3.2,6,1,14-4.8,17.1-1.9,1-3.9,1.4-6,1.4Z"/>
        <path class="st8" d="M166.4,151.4c-.2,0-.4,0-.5-.2-.4-.3-.5-.8-.2-1.2,3.3-4.5,6-9.4,8-14.6,1-2.6,2.1-5.7,2-8.9-.2-5.1-3.3-9.7-6.3-13.6-7.6-9.7-16.8-18.1-27.1-24.8-.4-.3-.5-.8-.3-1.2.3-.4.8-.5,1.2-.3,10.6,6.8,19.8,15.3,27.6,25.2,3.2,4.1,6.5,9,6.6,14.6.1,3.5-1,6.8-2.1,9.6-2.1,5.3-4.9,10.3-8.2,14.9-.2.2-.4.4-.7.4Z"/>
        <path class="st8" d="M173.7,116.3c-.1,0-.3,0-.4,0-.4-.2-.6-.7-.4-1.2,1.8-3.7,3.5-7.5,4.9-11.4.6-1.6,1.1-3.1,1.1-4.6,0-3.1-1.9-6-3.8-8.7-7.2-9.8-15.3-18.9-24.2-27.2-.3-.3-.4-.9,0-1.2.3-.4.9-.4,1.2,0,9,8.3,17.2,17.6,24.4,27.4,2,2.8,4.2,6,4.2,9.7,0,1.8-.6,3.5-1.2,5.2-1.4,3.9-3.1,7.8-5,11.5-.2.3-.5.5-.8.5Z"/>
        <path class="st8" d="M122.6,209.2h0c-.5,0-.9-.4-.8-.9.2-5.1-2.9-10.2-7.5-12.5-4.6-2.3-10.5-1.7-14.5,1.5-.4.3-.9.2-1.2-.1-.3-.4-.2-.9.1-1.2,4.6-3.6,11.2-4.3,16.4-1.6,5.2,2.6,8.6,8.3,8.4,14.1,0,.5-.4.8-.9.8Z"/>
        <path class="st8" d="M206,192.5c-1.8-1.6-3.7-3-5.4-3.8-3.1-1.6-6.5-1.9-9.3-1-3.3,1.1-5.7,4.1-5.9,7.3-.2,2.8,1.3,5.3,2.6,7.2.8,1.1,1.8,2.5,3.2,3.7,1.2,1,2.5,1.7,3.9,2.5l.7.4c.7.4,1.6.7,2.4.7,1.4,0,2.8-.6,3.7-1.7,2.2-2.5,4-5.4,5.4-8.4,1.1-2.3.5-5.1-1.3-6.7ZM205.7,198.5c-1.4,2.9-3.1,5.6-5.2,8-1,1.2-2.6,1.4-3.9.7l-.7-.4c-1.4-.8-2.5-1.4-3.7-2.3-1.2-1-2.1-2.2-2.8-3.3-1.2-1.7-2.5-3.8-2.4-6.1.1-2.5,2.1-4.8,4.7-5.7.9-.3,1.8-.4,2.7-.4,1.7,0,3.5.5,5.3,1.3,1.5.8,3.3,2.1,5,3.5.8.8,1.3,1.8,1.3,3s-.1,1.2-.4,1.7Z"/>
      </g>
    </g>
  </g>
</svg>