<svg xmlns="http://www.w3.org/2000/svg" xmlns:xlink="http://www.w3.org/1999/xlink" width="483.526" height="429.211" viewBox="0 0 483.526 429.211">
  <defs>
    <linearGradient id="linear-gradient" x1="8.078" y1="-11.099" x2="8.132" y2="-7.141" gradientUnits="objectBoundingBox">
      <stop offset="0" stop-color="#553f37"/>
      <stop offset="1" stop-color="#7a6353"/>
    </linearGradient>
    <linearGradient id="linear-gradient-2" x1="11.611" y1="-25.209" x2="11.613" y2="-21.386" gradientUnits="objectBoundingBox">
      <stop offset="0" stop-color="#8c776a"/>
      <stop offset="1" stop-color="#c5ac9b"/>
    </linearGradient>
    <linearGradient id="linear-gradient-3" x1="22.193" y1="-24.21" x2="27.037" y2="-21.309" gradientUnits="objectBoundingBox">
      <stop offset="0" stop-color="#8b7566"/>
      <stop offset="1" stop-color="#c1a795"/>
    </linearGradient>
  </defs>
  <g id="NUSMAD_CRISE_TopicosOp1_Top07" transform="translate(0 10)" style="isolation: isolate">
    <g id="Camada_1" data-name="Camada 1" transform="translate(0 0)">
      <ellipse id="Elipse_12" data-name="Elipse 12" cx="204.605" cy="204.605" rx="204.605" ry="204.605" transform="translate(37.091)" fill="#dccab0" stroke="#fff" stroke-miterlimit="10" stroke-width="20"/>
      <g id="Grupo_157" data-name="Grupo 157" transform="translate(0 20.387)">
        <path id="Caminho_1346" data-name="Caminho 1346" d="M486.994,209.109l-74.282,28.037q.282-6.434-.022-12.891c-2.112-39.181-17.932-73.088-45.7-98A135.709,135.709,0,0,0,269.52,90.892a137.282,137.282,0,0,0-96.139,44.023,140.494,140.494,0,0,0-36.727,84.675,173.569,173.569,0,0,0-.188,18.153q.2,5.008.785,10.016L60.934,201.724,31.46,334.357l74.548,35.886,38.86,17.645,3.858-8.424,11.089,5.318c2.41,1.8,5.683,4.345,9.751,7.562l.409.332a19.2,19.2,0,0,0-.376,6c.873,9.5,8.258,20.044,16.816,24.013a22.929,22.929,0,0,0,3.062,1.172,22.966,22.966,0,0,0,6.357,11.863l5.052,3.77a22.988,22.988,0,0,0,6.125,2.255,28.186,28.186,0,0,0,8.181.486,25.932,25.932,0,0,0,4.466,4.865c.641.553,1.316,1.072,2.078,1.614a27.2,27.2,0,0,0,12.637,4.809l10.016,5.66.2.111a25.579,25.579,0,0,0,4.057,1.879l.31.1a30.658,30.658,0,0,0,10.713,2.045,23.46,23.46,0,0,0,11.885-3.107c2-1.161,3.847-2.255,5.484-3.228a41.751,41.751,0,0,0,14.24,2.311,21.5,21.5,0,0,0,17.2-8.435,26.173,26.173,0,0,0,24.588-8.833,29.217,29.217,0,0,0,2.488-3.416,25.121,25.121,0,0,0,2.753-6.07c7.717-1.7,15.754-6.3,19.712-15.212,0-.022.022-.044.033-.066l.155-.354a28.967,28.967,0,0,0,2-7.208c11.078-.453,17.313-7.927,19.447-11.067,3.969-5.837,4.632-13.267,4.489-18.474l-.022-.962-.044-.243a18.237,18.237,0,0,0-.862-4.08c.1-.066.2-.144.31-.221l.453-.332c.564-.409,1.128-.818,1.714-1.26l.652-.5c.542-.409,1.083-.829,1.614-1.249.188-.155.376-.31.575-.464l.354-.287c.475-.387.962-.774,1.448-1.183.221-.188.442-.376.663-.575l.232-.2c.5-.431.995-.851,1.515-1.316.254-.232.509-.464.752-.7l.254-.232c.464-.431.929-.851,1.393-1.316.166-.155.332-.321.5-.486l2.377,6.888,42.144-14.383,74.824-24.521L487,209.12Z" transform="translate(-31.46 -90.771)" fill="#fff"/>
        <g id="Grupo_156" data-name="Grupo 156" transform="translate(12.714 11.066)">
          <g id="Grupo_154" data-name="Grupo 154" transform="translate(103.211)">
            <path id="Caminho_1347" data-name="Caminho 1347" d="M258.86,100.89a125.472,125.472,0,0,1,89.627,32.492c26.235,23.537,40.209,55.5,42.1,90.412a129.194,129.194,0,0,1-32.658,92.137c-19.292,21.415-43.57,35.455-72.082,40.618a142.2,142.2,0,0,1-17.866,1.824,135.726,135.726,0,0,1-23-1.271,124.34,124.34,0,0,1-66.19-31.442,144.521,144.521,0,0,1-12.471-12.891c-17.833-21.47-28.767-48.567-29.872-76.516a165.1,165.1,0,0,1,.166-16.882,128.9,128.9,0,0,1,33.819-78.008A125.424,125.424,0,0,1,258.86,100.89Z" transform="translate(-136.316 -100.78)" fill="#32221e"/>
            <path id="Caminho_1348" data-name="Caminho 1348" d="M202.113,118.431c2.5-1.7,9.121-4.732,11.962-5.959a124.931,124.931,0,0,1,152.058,43.835,131.311,131.311,0,0,1,12.791,23.449,61.665,61.665,0,0,1,2.62,7.076c1.879,3.792,3.206,10.061,4.146,14.262a127.526,127.526,0,0,1-2.067,63.912c-.442,1.515-.741,3.007-1.249,4.533A128.478,128.478,0,0,1,348.4,322.627c-27.982,26.633-66.046,38.086-104,32.271a124.772,124.772,0,0,1-34.35-10.448,127.451,127.451,0,0,1-71.673-126.222c.232-2.974.575-5.937,1.05-8.878a31.5,31.5,0,0,1,.619-3.339,121.5,121.5,0,0,1,8.325-27.562,125.566,125.566,0,0,1,42.243-52.68c1.9-1.371,9.452-6.556,11.52-7.352Z" transform="translate(-136.151 -100.61)" fill="url(#linear-gradient)"/>
            <path id="Caminho_1349" data-name="Caminho 1349" d="M195.98,118.431c2.5-1.7,9.121-4.732,11.962-5.959A124.931,124.931,0,0,1,360,156.307a131.311,131.311,0,0,1,12.791,23.449,61.67,61.67,0,0,1,2.62,7.076h-.022c-.509-.044-.907-3.405-1.813-4.046l-.144.088.022.254.265.077c-1.6,1.017.066,1.537-.066,2.786-.4-.431-2.277-5.815-2.686-6.832-.929-2.51-2.366-4.71-3.516-7.142a110.184,110.184,0,0,0-17.158-25.782,124.119,124.119,0,0,0-41.071-30.458,17.775,17.775,0,0,0-4.721-2.123l-1.205-.52c-3.427-1.758-7.485-2.631-11.122-3.925a47.308,47.308,0,0,0-10.425-2.266c-.077-.033-.862-.232-.995-.265-6.744-1.957-18.286-2.576-25.262-2.078a118.715,118.715,0,0,0-34.88,5.1c-3.206,1.006-6.512,2.454-9.784,3.46-2.211.674-4.677,2.277-6.877,3.1-.752.332-2.045,1.083-2.731,1.327a2.037,2.037,0,0,1,.818-.829l-.022-.133c-1.282-.077-2.41,1.526-3.693,1.382l-.321-.4c-.829.321-1.139.763-2.012.785Z" transform="translate(-130.019 -100.61)" fill="url(#linear-gradient-2)"/>
            <path id="Caminho_1350" data-name="Caminho 1350" d="M201.907,117.069c.873-.033,1.194-.475,2.012-.785l.321.4c1.282.144,2.41-1.459,3.693-1.382l.022.133a2.106,2.106,0,0,0-.818.829c-.884.6-1.89.907-2.808,1.415a151.266,151.266,0,0,0-18.043,11.951c-13.455,10.326-23.924,23.891-32.315,38.518-1.669,2.9-3.073,6.5-4.643,9.508-1.294,2.488-1.99,5.793-3.04,8.4a121.82,121.82,0,0,0-4.422,14.007c-.243.94-.9,4.124-1.061,5.1-.254-1.028,1.205-4.124.354-4.787-.619.542-.752,3.582-1.227,4.5l-.1-.221a121.5,121.5,0,0,1,8.325-27.562A125.566,125.566,0,0,1,190.4,124.41c1.9-1.371,9.452-6.556,11.52-7.352Z" transform="translate(-135.946 -99.248)" fill="url(#linear-gradient-3)"/>
            <path id="Caminho_1351" data-name="Caminho 1351" d="M273.561,106.54a47.945,47.945,0,0,1,10.425,2.266c3.637,1.294,7.695,2.167,11.122,3.925l1.205.52a17.774,17.774,0,0,1,4.721,2.123c-1.338-.111-1.581-.9-2.5-.862l-.1.155c.2.321.42.343.785.486l.155.055c-1-.122-2.377-1.216-3.825-1.426a3.822,3.822,0,0,1-1.747-.8,20.874,20.874,0,0,0-2.255-.774c-4.787-1.327-9.342-3.228-14.273-4.024a4.447,4.447,0,0,1-1.99-.741,2.292,2.292,0,0,0,1.26.254c-.475-.807-1.537-.453-3-1.161Z" transform="translate(-121.83 -100.172)" fill="#927966"/>
            <path id="Caminho_1352" data-name="Caminho 1352" d="M249.811,104.446c6.976-.5,18.518.122,25.262,2.078-2.432.453-5.417-.254-7.883-.475-3.129-.287-6.047-.708-9.209-.862h0a4.481,4.481,0,0,0,.774-.077c-2.742-.973-5.992-.475-8.955-.663Z" transform="translate(-124.337 -100.411)" fill="#927966"/>
            <path id="Caminho_1353" data-name="Caminho 1353" d="M257.93,113.648h.52a111.69,111.69,0,0,1,81.3,30.746,112.9,112.9,0,0,1,34.239,67.118,119.163,119.163,0,0,1,.995,23.228,113.987,113.987,0,0,1-30.922,71.972A111.276,111.276,0,0,1,279.1,340.729a101.741,101.741,0,0,1-12.283,1.205c-3.317.077-8.259.1-11.476-.1a111.867,111.867,0,0,1-62.984-24.112c-1.349-1.061-2.576-2.322-3.881-3.438a113.979,113.979,0,0,1-38.628-74.592c-6.777-65.869,41.447-123.115,108.09-126.067Z" transform="translate(-134.955 -99.431)" fill="#32221e"/>
            <path id="Caminho_1354" data-name="Caminho 1354" d="M257.6,119.779h.033a105.857,105.857,0,0,1,75.211,27.042,109.444,109.444,0,0,1,7.872,154.236,106.694,106.694,0,0,1-74.8,35.1c-3.759.088-8.06.1-11.774-.166a106.48,106.48,0,0,1-64.631-27.738,107.588,107.588,0,0,1-34.958-73.829,119.678,119.678,0,0,1,.818-22.155A107.409,107.409,0,0,1,257.6,119.79Z" transform="translate(-134.408 -98.785)" fill="#d4bca5"/>
            <path id="Caminho_1355" data-name="Caminho 1355" d="M257.814,129.133c0-1.78-.2-3.295,1.227-4.654a3.171,3.171,0,0,1,4.831.409c1.017,1.3.94,2.565.951,4.113,2.355.4,5.461.354,8,.63a99.224,99.224,0,0,1,28.148,7.673c1.8.763,4.267,2.233,6.058,2.753,1.183-2.089,2.874-3.98,5.461-2.5a3.523,3.523,0,0,1,1.658,2.189c.409,1.6-.254,2.465-.995,3.847,2.819,2.288,6.18,4.356,8.977,6.578a106.181,106.181,0,0,1,13.477,12.9q3.051,3.565,5.727,7.418c.763,1.083,2.189,3.328,2.974,4.245,1.194-.6,2.244-1.172,3.626-.741a3.485,3.485,0,0,1,2.244,4.566,4.1,4.1,0,0,1-1.592,1.714c-5.3,3.328-10.746,6.423-16.1,9.663-2.311,1.393-3.914,1.913-6.014-.332-.033,2.786,2.764,3.737,4.754,2.521,3.306-2.012,6.766-3.936,10.116-5.87a65.5,65.5,0,0,1,7.3-4.157c6.379,12.891,10.525,26.036,11.155,40.519-.884,0-2.709-.022-3.516.077.829.011,2.056.055,2.852,0a3.514,3.514,0,0,1,2.786,6.114c-1.183,1.106-4.975.829-6.589.829h-7.02c-2.565,0-5.141.011-7.717,0-2.189-.011-2.819.155-4.478-1.371a2.165,2.165,0,0,0,.033,1.813,2.928,2.928,0,0,0,1.725,1.636c1.913.708,18.032.033,22.111.265a54.324,54.324,0,0,1-.354,7.341,99.96,99.96,0,0,1-7.518,29.2c-.365.862-1.8,4.433-2.211,5,1.7,2.786-.232,4.82-2.93,5.583a7.511,7.511,0,0,1-1.548-.608c-5.384-3.062-10.658-6.346-16.064-9.386a14.734,14.734,0,0,1-2.786-1.857,3.445,3.445,0,0,0,.1,2.056,61.6,61.6,0,0,0,7.065,4.522c4.068,2.377,8.1,4.787,12.139,7.23-1.238,1.824-2.4,3.659-3.659,5.473A99.442,99.442,0,0,1,317.2,311.362a9.33,9.33,0,0,1-2.764,1.57c-.365,3.295-2.786,4.577-5.749,3.107a2.708,2.708,0,0,1-.52.884c-2.266,1.758-6.136,3.283-8.767,4.411a97.609,97.609,0,0,1-29.883,7.418c-1.3.111-3.438.343-4.677.332l-.221-.21c-2.189,2.255-3.77,1.813-5.76.155h-.022a1.967,1.967,0,0,1-.332.188c-2.808-.188-5.749-.321-8.546-.608a96.9,96.9,0,0,1-35.157-10.624c1.824-3.847,4.942-9.563,7.131-13.3a3.611,3.611,0,0,0-.066-1.879c-1.669,2.908-3.217,5.97-4.876,8.811-.9,1.537-2.344,5.2-4.124,5.484-2.7.431-4.245-1.482-4.433-3.847a5.2,5.2,0,0,1-.188.918l-.2.033c-3.682-2.709-6.335-4.312-10.094-7.308a99.252,99.252,0,0,1-16.318-16.838c-2.045-2.731-3.748-5.45-5.716-8.181,2.93-1.658,20.232-11.089,20.707-12.725.188-.663-.177-1.083-.52-1.625a25.128,25.128,0,0,1-4.964,3.217c-4.654,2.631-9.254,5.373-13.9,7.993-2.9,1.636-5.329.365-5.472-2.952a10.039,10.039,0,0,1,.332-1.426c-.763-.509-2.2-4.223-2.609-5.2a96.332,96.332,0,0,1-8.082-36.915q6.65.05,13.3,0c3.306,0,6.666.044,9.961-.155,1.68-1.117,2.145-2.167,1.515-4.091a5.818,5.818,0,0,0,.21-.752c.542-2.355-.951-3.9-3.173-4.312-.84-.177-7.628-.1-8.856-.1h-8.015c-1.382,0-3.438-.066-4.754.088a50.213,50.213,0,0,1,.608-7.474,102.347,102.347,0,0,1,6.667-25.174c1.183-2.9,2.786-5.649,3.9-8.513.829.409,1.7.774,2.532,1.161,5.683,2.664,10.912,6.191,16.241,9.475,2.277,1.4,5.882-.354,4.533-3.217-.9,1.083-2.388,2.609-4.013,1.846-3.483-1.636-6.788-3.825-10.127-5.76-2.852-1.647-5.727-3.383-8.524-5.119-2.587-1.647-2.078-4.876.575-6.114,1.028-.475,2.322.022,3.295.453a1.2,1.2,0,0,1,.066-.122c1.537-2,2.8-4.046,4.356-6.092a95.733,95.733,0,0,1,14.792-15.644q2.886-2.5,5.97-4.765c1.769-1.282,5.185-3.272,6.39-4.732a4.531,4.531,0,0,1-.674-3.261,3.653,3.653,0,0,1,1.581-2.266,3.091,3.091,0,0,1,2.432-.4c1.437.365,2.09,1.4,2.83,2.554,1.581-.785,3.416-1.437,5.041-2.156,11.929-5.285,24.61-8.48,37.733-8.469Z" transform="translate(-133.667 -98.377)" fill="#fcfcf2"/>
            <path id="Caminho_1356" data-name="Caminho 1356" d="M248.618,129.133c0-1.78-.2-3.295,1.227-4.654a3.171,3.171,0,0,1,4.831.409c1.017,1.3.94,2.565.951,4.113l.033,12.736c0,2.421.376,6.976-.785,9-1.946,1.7-3.494,1.526-5.473.044-1.194-1.736-.807-6.479-.8-8.734l.033-12.913Z" transform="translate(-124.471 -98.377)"/>
            <path id="Caminho_1357" data-name="Caminho 1357" d="M249.6,311.965a5.969,5.969,0,0,1-.652-2.465c-.2-2.211-.276-20.6.2-22.266a3.026,3.026,0,0,1,1.647-1.846,3.715,3.715,0,0,1,2.974-.144,3.338,3.338,0,0,1,1.835,2.012,5.856,5.856,0,0,1,.31,1.68c.177,3.383-.044,6.855-.033,10.249.011,3.471.3,7.827-.044,11.2a4.366,4.366,0,0,1-.453,1.437c-2.189,2.255-3.77,1.813-5.76.155H249.6Z" transform="translate(-124.444 -81.335)"/>
            <path id="Caminho_1358" data-name="Caminho 1358" d="M294.056,138.769c1.183-2.09,2.874-3.98,5.461-2.5a3.523,3.523,0,0,1,1.658,2.189c.409,1.6-.254,2.465-.995,3.847q-3.333,5.87-6.556,11.807a65.222,65.222,0,0,1-3.438,5.915c-2.123,1.614-3.516.84-5.373-.586-1.106-2.609-.453-3.339.862-5.627.486-.84,1-1.747,1.459-2.609l6.921-12.437Z" transform="translate(-120.701 -97.09)"/>
            <path id="Caminho_1359" data-name="Caminho 1359" d="M203.941,297.157a.186.186,0,0,1,.022-.055c1.216-3.394,3.593-6.9,5.262-10.171,1.647-3.007,3.2-6.036,4.9-9.01.862-1.5,2.112-2.488,3.936-1.957,2.476.719,3.173,2.7,2.5,5.052-1.039,1.924-2.134,3.792-3.2,5.7-1.669,2.908-3.217,5.97-4.876,8.811-.9,1.537-2.344,5.2-4.124,5.484-2.7.431-4.245-1.481-4.433-3.847Z" transform="translate(-129.179 -82.304)"/>
            <path id="Caminho_1360" data-name="Caminho 1360" d="M191.951,248.73c2.941.663,4.455,2.62,3.162,5.572a25.13,25.13,0,0,1-4.964,3.217c-4.654,2.631-9.253,5.373-13.9,7.993-2.9,1.636-5.329.365-5.473-2.952a10.046,10.046,0,0,1,.332-1.426,4.013,4.013,0,0,1,1.282-1.371c5.859-3.648,11.907-7.042,17.9-10.47a8.272,8.272,0,0,1,1.647-.564Z" transform="translate(-132.679 -85.163)"/>
            <path id="Caminho_1361" data-name="Caminho 1361" d="M204.413,141.835a4.531,4.531,0,0,1-.674-3.261,3.653,3.653,0,0,1,1.581-2.266,3.091,3.091,0,0,1,2.432-.4c1.437.365,2.09,1.4,2.83,2.554q3.3,6.086,6.777,12.084c.9,1.559,3.051,4.986,3.494,6.479a7.884,7.884,0,0,1-.708,2.366c-1.769,1.868-3.217,1.935-5.34.674-1.282-1.9-2.443-4.19-3.593-6.2-2.277-3.98-4.444-8.115-6.8-12.04Z" transform="translate(-129.209 -97.082)"/>
            <path id="Caminho_1362" data-name="Caminho 1362" d="M295.7,299.979c-1.161-1.238-10.823-18.6-11.31-20.154a2.514,2.514,0,0,1,.254-1.99,4.275,4.275,0,0,1,2.432-2.045,3.1,3.1,0,0,1,2.432.4A5.28,5.28,0,0,1,291.1,277.8c1.592,2.366,2.83,5.141,4.212,7.639,1.5,2.709,5.495,8.723,6.125,11.42-.365,3.295-2.786,4.577-5.749,3.107Z" transform="translate(-120.697 -82.317)"/>
            <path id="Caminho_1363" data-name="Caminho 1363" d="M310.859,254.085c-1.128-1.99-1.05-3.958.995-5.285a3.723,3.723,0,0,1,2.576-.431,72.356,72.356,0,0,1,7.639,4.389c2.62,1.835,10.348,5.439,12.106,7.606,1.7,2.786-.232,4.82-2.93,5.583a7.507,7.507,0,0,1-1.548-.608c-5.384-3.062-10.658-6.346-16.064-9.386a14.735,14.735,0,0,1-2.786-1.857Z" transform="translate(-117.969 -85.212)"/>
            <path id="Caminho_1364" data-name="Caminho 1364" d="M339.645,213.226c.829.011,2.056.055,2.852,0a3.514,3.514,0,0,1,2.786,6.114c-1.183,1.106-4.975.829-6.589.829h-7.02c-2.565,0-5.141.011-7.717,0-2.189-.011-2.819.155-4.477-1.371-1.061-2.156-.575-5.008,2.156-5.484a41.816,41.816,0,0,1,5.9-.1q6.053.033,12.095,0Z" transform="translate(-117.037 -88.918)"/>
            <path id="Caminho_1365" data-name="Caminho 1365" d="M328.587,169.935c1.194-.6,2.244-1.172,3.626-.741a3.484,3.484,0,0,1,2.244,4.566,4.1,4.1,0,0,1-1.592,1.714c-5.3,3.328-10.746,6.423-16.1,9.663-2.311,1.393-3.914,1.913-6.014-.332-1.791-3.759.94-4.92,3.7-6.49.862-.486,1.758-1.006,2.62-1.515q5.788-3.366,11.5-6.854Z" transform="translate(-117.964 -93.575)"/>
            <path id="Caminho_1366" data-name="Caminho 1366" d="M195.106,184.375c-.9,1.083-2.388,2.609-4.013,1.846-3.482-1.636-6.788-3.825-10.127-5.76-2.852-1.647-5.727-3.383-8.524-5.119-2.587-1.647-2.078-4.876.575-6.114,1.028-.475,2.322.022,3.295.453,1.658.9,3.35,1.891,4.953,2.9,4.234,2.653,8.645,5.008,12.9,7.617,1.47.907,1.515,2.72.94,4.179Z" transform="translate(-132.682 -93.576)"/>
            <path id="Caminho_1367" data-name="Caminho 1367" d="M219.08,157.15c1.139,2.333-1.294,3.04-3.073,3.405-1.448-.553-2.333-1.028-2.266-2.731C215.874,159.085,217.311,159.018,219.08,157.15Z" transform="translate(-128.144 -94.83)" fill="#cac4b3"/>
            <path id="Caminho_1368" data-name="Caminho 1368" d="M284.751,157.18c1.868,1.437,3.261,2.2,5.373.586.708,1.592-.907,2.664-2.344,2.675a3.2,3.2,0,0,1-2.322-.94c-.8-.807-.719-1.271-.708-2.322Z" transform="translate(-120.649 -94.827)" fill="#cac4b3"/>
            <path id="Caminho_1369" data-name="Caminho 1369" d="M254.8,148.14c1.4,3.825-7.02,3.261-5.473.044C251.307,149.666,252.855,149.843,254.8,148.14Z" transform="translate(-124.407 -95.781)" fill="#cac4b3"/>
            <path id="Caminho_1370" data-name="Caminho 1370" d="M216.09,286.215c1.061-1.913,2.156-3.781,3.2-5.7a2.2,2.2,0,0,0,.265,1.006c-.077,1.548-2.465,5.218-3.383,6.567a3.61,3.61,0,0,0-.066-1.879Z" transform="translate(-127.896 -81.809)" fill="#cac4b3"/>
            <path id="Caminho_1371" data-name="Caminho 1371" d="M256.836,213.29c-.907,1.437-.818,3.162-1.6,4.212a2.346,2.346,0,1,1-.542,4.588,50.284,50.284,0,0,1-2.808,6.832c-.343.232.265-2.443.088-1.946l-.464.929c.055-1.028.1-.973-.575-1.669.144-.641-.343,2.764-.509,2l-.022-.155a15,15,0,0,0-1.371-1.448,9.741,9.741,0,0,1-2.653-5.086c0-.6-.1-1.382-.144-1.979a37.272,37.272,0,0,1-4.323-3.615l-7.087-6.2L219.491,196.63c-1.813-1.548-4.057-3.295-5.727-5.019-.5-.509-.221-1.647-.111-2.355-2.189-3.35.652-7.319,4.057-6.423,1.382.365,5.4,4.157,6.81,5.362L237.5,199.349q4.726,3.98,9.4,8.015a64.216,64.216,0,0,1,4.776,4.3" transform="translate(-128.234 -92.133)"/>
            <path id="Caminho_1372" data-name="Caminho 1372" d="M213.6,188.61c2.908,2.189,5.815,4.842,8.6,7.208q7.264,6.136,14.439,12.371c3.228,2.786,6.678,5.848,9.994,8.513-.166.685-.31,1.736-.442,2.222a37.27,37.27,0,0,1-4.323-3.615l-7.087-6.2-15.334-13.123c-1.813-1.548-4.057-3.295-5.727-5.019-.5-.509-.221-1.647-.111-2.355Z" transform="translate(-128.176 -91.509)" fill="#cac4b3"/>
            <path id="Caminho_1373" data-name="Caminho 1373" d="M250.7,221.864a2.344,2.344,0,0,0,2.565-3.637c.641-1.216,2.1-5.008,2.852-5.771l.4.2a1.9,1.9,0,0,0,1.095-.265c4.632-2.465,9.209-5.2,13.764-7.794l24.986-14.262c2.841-1.647,5.638-3.372,8.5-4.953,3.814-2.112,7.385,1.349,5.848,5.34a5.249,5.249,0,0,1-.332,3.129c-1.294,1.205-6.014,3.67-7.805,4.676l-12.581,7.1c-8.734,4.92-17.357,10.1-26.124,14.958-.862.475-2.852,1.614-3.759,1.636l-.3,1.172" transform="translate(-124.242 -91.918)"/>
            <path id="Caminho_1374" data-name="Caminho 1374" d="M244.679,217.83a9.741,9.741,0,0,0,2.653,5.086c.354.387,1.128,1.083,1.371,1.448l.022.155c.177.763-.619,1.868-.763,2.51a7.449,7.449,0,0,1-.7,1.393c-2.023-.177-10.8,6.434-14.107,7.2-2.443-.685-4.168-2.432-3.737-5.1-1.117-3.726.674-4.489,3.681-6.18.719-.409,1.481-.807,2.2-1.216Q240.013,220.505,244.679,217.83Z" transform="translate(-126.524 -88.425)" fill="#811711"/>
            <path id="Caminho_1375" data-name="Caminho 1375" d="M264.037,191.813c.321-.287.608-.5.951-.763-.531,1.316-2.841,7.3-3.56,8.093-.243-.077-.166,0-.287-.144a5.072,5.072,0,0,1,.144-1.282,56.8,56.8,0,0,1,2.753-5.893Z" transform="translate(-123.14 -91.252)" fill="#d4bca5"/>
            <path id="Caminho_1376" data-name="Caminho 1376" d="M266.392,186.07l.21.741.155.033.155-.155a1.124,1.124,0,0,1,.276-.232,35.243,35.243,0,0,1-2.487,5.119,10.245,10.245,0,0,0-.951.763c.7-2.112,1.758-4.19,2.631-6.269Z" transform="translate(-122.865 -91.777)" fill="#c79c80"/>
            <path id="Caminho_1377" data-name="Caminho 1377" d="M266.14,186.456c.674-1.515,1.172-2.587,1.979-4.046.133,1.935-.343,2.687-1.172,4.433a1.124,1.124,0,0,0-.276.232l-.155.155-.155-.033-.21-.741Z" transform="translate(-122.613 -92.164)" fill="#d4bca5"/>
            <path id="Caminho_1378" data-name="Caminho 1378" d="M183.486,213.443c2.222.409,3.715,1.957,3.173,4.312-.055.254-.133.509-.21.752-1.8,2.5-3.88,1.9-6.711,1.9H165.554c-1.636,0-4.157.287-5.406-.763a3.436,3.436,0,0,1-1.216-2.41c-.343-4.654,5.406-3.759,8.391-3.759H177.6c1.835.011,4.08.066,5.882-.044Z" transform="translate(-133.931 -88.892)"/>
            <path id="Caminho_1379" data-name="Caminho 1379" d="M312.975,190.14a34.167,34.167,0,0,1-6.2,3.847l-6.335,3.6q-11.21,6.5-22.487,12.847l-9.884,5.616c-1.89,1.061-3.781,2.034-5.616,3.2-.022.42-.033.851-.055,1.271A9.036,9.036,0,0,0,246.31,228.7c-.5.3-.984.586-1.349.807l-6.8,3.947a38.114,38.114,0,0,1-5.086,2.7,6.61,6.61,0,0,1-3.67-2.7c-.431,2.664,1.294,4.411,3.737,5.1,3.306-.763,12.084-7.374,14.107-7.2a2.935,2.935,0,0,0,.332-.575,9.043,9.043,0,0,0,16.042-5.727,9.2,9.2,0,0,0-.7-3.494,18.948,18.948,0,0,0,3.217-1.537c8.767-4.864,17.39-10.038,26.124-14.958l12.581-7.1c1.8-1.006,6.523-3.482,7.805-4.676a5.248,5.248,0,0,0,.332-3.129Z" transform="translate(-126.497 -91.348)" fill="#d4bca5"/>
            <ellipse id="Elipse_13" data-name="Elipse 13" cx="9.043" cy="9.043" rx="9.043" ry="9.043" transform="translate(118.122 119.477)"/>
            <path id="Caminho_1380" data-name="Caminho 1380" d="M251.4,214.18a2.346,2.346,0,1,1-.542,4.588,2.273,2.273,0,0,1-.995-.608,2.345,2.345,0,0,1,1.537-3.98Z" transform="translate(-124.401 -88.811)" fill="#a96645"/>
          </g>
          <g id="Grupo_155" data-name="Grupo 155" transform="translate(0 117.299)">
            <path id="Caminho_1381" data-name="Caminho 1381" d="M228.99,416.778s8.955,5.3,16.174,1.094,12.283-7.374,12.283-7.374l-15.865-9.309L228.99,416.767Z" transform="translate(-23.323 -186.369)" fill="#ffa074"/>
            <path id="Caminho_1382" data-name="Caminho 1382" d="M228.99,416.778s8.955,5.3,16.174,1.094,12.283-7.374,12.283-7.374l-15.865-9.309L228.99,416.767Z" transform="translate(-23.323 -186.369)" fill="#cc8a79" opacity="0.5" style="mix-blend-mode: multiply;isolation: isolate"/>
            <path id="Caminho_1383" data-name="Caminho 1383" d="M365.583,375.617c-3.328,4.887-10.226,10.038-24.223,2.211l.022.033c.321.509,4.588,7.286,2.6,15.279a17.486,17.486,0,0,1-.884,2.664c-.033.066-.055.122-.088.188-4.157,9.5-16.97,10.215-20.5,9.055h0c.088.188,2.377,5.041-1.293,10.956a18.731,18.731,0,0,1-1.548,2.134c-5.871,6.954-14.007,5.307-16.462,4.533a20.272,20.272,0,0,1-5.262-2.974,17.342,17.342,0,0,1-2.952,7.385,10.468,10.468,0,0,1-8.723,4.389c-6.81.055-12.161-1.868-18.33-5.207-1.393-.752-2.819-1.57-4.323-2.465-1.935-1.15-3.98-2.41-6.191-3.759-11.542-7.064-56.45-29.231-56.45-29.231s-8.3-6.866-17.788-14.527c-8.17-6.622-17.225-13.853-22.553-17.788l-8.944-4.29-26.1-12.5-12.25-5.871L78.16,318.99l48.368-69.13,23.847,10.425,29.905,13.068,17.777,7.772,40.519-9.386,9.707-2.277,32.481,20.6,80.418,51,3.206,12.88,3.173,7.1h0a6.821,6.821,0,0,1,.586,2.5v.166c.077,2.664-.111,8.314-2.576,11.94Z" transform="translate(-39.244 -202.343)" fill="#b15942"/>
            <path id="Caminho_1384" data-name="Caminho 1384" d="M259.089,415.929c-1.935-1.15-3.98-2.41-6.191-3.759-11.542-7.065-56.45-29.22-56.45-29.22s-8.314-6.866-17.777-14.538c-8.181-6.622-17.225-13.842-22.564-17.777l-8.944-4.29-26.1-12.5,5.539-9.652,39.49,18.64s49.009,41.282,63.172,50.192,29.308,20.5,29.308,20.5l.52,2.421Z" transform="translate(-34.716 -194.497)" fill="#875c50" opacity="0.5" style="mix-blend-mode: multiply;isolation: isolate"/>
            <path id="Caminho_1385" data-name="Caminho 1385" d="M176.921,272.338,148.343,353.2,109.98,334.824l37.036-75.554Z" transform="translate(-35.886 -201.35)" fill="#875c50" opacity="0.5" style="mix-blend-mode: multiply;isolation: isolate"/>
            <path id="Caminho_1386" data-name="Caminho 1386" d="M355.434,359.143h0l-3.162-7.1-3.217-12.88-80.418-51h0l-32.481-20.6-9.7,2.277-6.114,8.789-27.3,37.423s4.665,11.73,19.624,10.47,27.595-22.012,32.879-24.477c2.1-.984,13.808,3.2,28.324,9.32,21.448,11.874,63.3,35.19,72.215,41.182a40.459,40.459,0,0,1,9.939,9.088,7.178,7.178,0,0,0-.586-2.5Z" transform="translate(-27.117 -200.474)" fill="#875c50" opacity="0.5" style="mix-blend-mode: multiply;isolation: isolate"/>
            <path id="Caminho_1387" data-name="Caminho 1387" d="M322.45,383.169c-8.435-5.926-22.631-15.588-29.872-20.552-11.874-8.126-10.392-18.4-10.392-18.4l37.644,23.637.022.033c.321.509,4.588,7.286,2.6,15.279Z" transform="translate(-17.714 -192.383)" fill="#875c50" opacity="0.5" style="mix-blend-mode: multiply;isolation: isolate"/>
            <path id="Caminho_1388" data-name="Caminho 1388" d="M301.008,403.25c-6-4.046-15.843-10.691-21.824-14.759-9.077-6.169-9.475-18.021-9.475-18.021L302.3,392.3h0C302.39,392.493,304.668,397.335,301.008,403.25Z" transform="translate(-19.025 -189.612)" fill="#875c50" opacity="0.5" style="mix-blend-mode: multiply;isolation: isolate"/>
            <path id="Caminho_1389" data-name="Caminho 1389" d="M279.643,405.048a17.275,17.275,0,0,1-2.963,7.385,195.254,195.254,0,0,1-17.545-11.487c-7.894-6.136-7.485-12.526-7.485-12.526l27.993,16.617Z" transform="translate(-20.932 -187.717)" fill="#875c50" opacity="0.5" style="mix-blend-mode: multiply;isolation: isolate"/>
            <path id="Caminho_1390" data-name="Caminho 1390" d="M470.012,303.781l-67.627,24.742-27.473,10.05-.586.685a87.676,87.676,0,0,1-15.975,13.786c-3.516,2.41-5.948,3.77-5.948,3.77l-1.9-2.443a25.239,25.239,0,0,0-6.965-6.158l-11.476-6.877-21.724-13.023-4.046-2.421-2.6-1.559-46.046-27.606a7.829,7.829,0,0,0-5.616-.951,9.058,9.058,0,0,0-.94.254l-13.256,4.577-.752.265a7.354,7.354,0,0,0-.763.31,7.665,7.665,0,0,0-2.255,1.592,6.945,6.945,0,0,0-1.028,1.3C222.9,320.1,212.329,325.107,204.4,326.058a26.268,26.268,0,0,1-2.863.188,24.422,24.422,0,0,1-5.406-.586,5.459,5.459,0,0,1-3.814-7.363l14.405-31.508a14.5,14.5,0,0,1,6.567-7.374l39.059-21.127a14.536,14.536,0,0,1,8.358-1.68l67.527,6.8,20.961-7.75,27.351-10.1L439.5,222.29l25.682,68.533,4.853,12.957Z" transform="translate(-27.236 -205.253)" fill="#ffa074"/>
            <path id="Caminho_1391" data-name="Caminho 1391" d="M179.5,270.969l-41.282,90.048L109.6,348.026,42.96,315.943,67.194,206.88l82.22,49.606Z" transform="translate(-42.96 -206.88)" fill="#4b8287"/>
            <path id="Caminho_1392" data-name="Caminho 1392" d="M257.91,414.172c-3.184-1.725-6.578-3.825-10.5-6.224-11.542-7.065-56.45-29.22-56.45-29.22s-8.314-6.865-17.777-14.538c4.267.133,12.813,1.658,21.625,10.558l11.7-5.55s12.769,1.05,17.656,17.888l12.051-5.362a19.679,19.679,0,0,1,9.906,15.19s9.685,3.46,11.3,9.541a19.606,19.606,0,0,1,.52,7.728Z" transform="translate(-29.214 -190.275)" fill="#875c50" opacity="0.5" style="mix-blend-mode: multiply;isolation: isolate"/>
            <path id="Caminho_1393" data-name="Caminho 1393" d="M183,384.989a11.1,11.1,0,0,1-6.147-1.05c-7.186-3.328-13.941-16.4-8.546-20.221,0,0,2.886-2.9,10.37,1.592,4.389,2.631,7.252,5.174,8.933,7.706a11.287,11.287,0,0,1,1.957,5.307c.265,2.974-2.476,6.1-6.567,6.655Z" transform="translate(-29.935 -190.422)" fill="#ffa074"/>
            <path id="Caminho_1394" data-name="Caminho 1394" d="M181.41,384.013a64.672,64.672,0,0,1,4.61-11.973,11.286,11.286,0,0,1,1.957,5.307c.265,2.974-2.476,6.1-6.567,6.656Z" transform="translate(-28.346 -189.446)" fill="#cc8a79" opacity="0.5" style="mix-blend-mode: multiply;isolation: isolate"/>
            <path id="Caminho_1395" data-name="Caminho 1395" d="M193.231,401.727a11.81,11.81,0,0,1-8.911-14.295,48.3,48.3,0,0,1,5.992-14.715c6.379-9.939,25.03-5.738,23.172,10.923L206.3,399.8s-6.512,3.328-13.079,1.935Z" transform="translate(-28.072 -189.936)" fill="#ffa074"/>
            <path id="Caminho_1396" data-name="Caminho 1396" d="M234.77,393.65l-8.656,18.01c-.486.221-8.988,3.14-16.174-1.968a16.174,16.174,0,0,1-1.3-1.017c-5.616-4.754-4.455-9.685-4.455-9.685l7.186-16.163s5.152-9.873,14.1-7.584c.188.044.376.1.553.155,9.287,2.852,11.067,11.431,8.756,18.242Z" transform="translate(-25.953 -189.144)" fill="#ffa074"/>
            <path id="Caminho_1397" data-name="Caminho 1397" d="M248.7,401.619c-.94,4.71-4.887,16.749-4.887,16.749-1.636,1.559-4.356,3.261-11.741.575a13.406,13.406,0,0,1-3.637-1.957,11.2,11.2,0,0,1-4.411-7.142l7.087-14.77c3.162-2.72,6.18-3.328,8.789-2.808,5.495,1.106,9.22,7.241,8.8,9.342Z" transform="translate(-23.848 -187.329)" fill="#ffa074"/>
            <path id="Caminho_1398" data-name="Caminho 1398" d="M225.46,375.264c-2.543,1.89-7.275,6.324-10.492,14.87-2.4,6.39-4.688,13.355-6.324,18.551-5.616-4.754-4.455-9.685-4.455-9.685l7.186-16.163s5.152-9.873,14.1-7.584Z" transform="translate(-25.952 -189.143)" fill="#cc8a79" opacity="0.5" style="mix-blend-mode: multiply;isolation: isolate"/>
            <path id="Caminho_1399" data-name="Caminho 1399" d="M239.9,392.276c-1.7,1.47-4.223,4.533-6.589,10.8-1.979,5.24-3.67,10.2-4.887,13.919a11.2,11.2,0,0,1-4.411-7.142l7.087-14.77c3.162-2.72,6.18-3.328,8.789-2.808Z" transform="translate(-23.849 -187.328)" fill="#cc8a79" opacity="0.5" style="mix-blend-mode: multiply;isolation: isolate"/>
            <path id="Caminho_1400" data-name="Caminho 1400" d="M463.968,284.939C414.218,301.732,356.7,321.455,351.555,324.6a41.9,41.9,0,0,1-12.46,4.964c-5.384-3.427-12.272-7.772-19.789-12.471,12.548-9.917,11.453-25.947,11.453-25.947-3.869,12.294-10.2,19.126-16.3,22.918-26.578-16.55-58.5-35.953-60.839-36.019-3.9-.1-20.707,5.362-20.707,5.362s-1.039,16.926-14.826,27.462a86.183,86.183,0,0,1-14.892,9.309c7.927-.951,18.485-5.959,28.634-21.978a7.861,7.861,0,0,1,1.028-1.3c.144-.144.3-.287.453-.42.033-.033.066-.055.1-.088.155-.133.321-.254.486-.376.011,0,.033-.022.044-.033a5.5,5.5,0,0,1,.5-.321.619.619,0,0,0,.088-.055,5.648,5.648,0,0,1,.575-.3c.122-.055.232-.111.354-.155s.265-.1.4-.155l.752-.265,13.256-4.577a3.52,3.52,0,0,1,.453-.133c.044-.011.077-.022.122-.033.1-.022.21-.055.321-.077a7.79,7.79,0,0,1,5.671.929l46.046,27.606,6.644,3.98,21.724,13.023h0l11.476,6.877a25.4,25.4,0,0,1,6.965,6.158l1.9,2.443s2.443-1.36,5.948-3.77a86.455,86.455,0,0,0,16.572-14.461L468.821,297.9Z" transform="translate(-26.046 -199.369)" fill="#cc8a79" opacity="0.5" style="mix-blend-mode: multiply;isolation: isolate"/>
            <path id="Caminho_1401" data-name="Caminho 1401" d="M387.359,326.3l-27.473,10.05-.586.685-25.14-83.6,27.351-10.1L387.37,326.3Z" transform="translate(-12.222 -203.032)" fill="#cc8a79" opacity="0.5" style="mix-blend-mode: multiply;isolation: isolate"/>
            <path id="Caminho_1402" data-name="Caminho 1402" d="M469.4,312.455l-65.316,21.4L372.3,344.7,339.95,251.085l31.663-11.619,74.846-28.236Z" transform="translate(-11.611 -206.421)" fill="#78896a"/>
          </g>
        </g>
      </g>
    </g>
  </g>
</svg>
