<svg xmlns="http://www.w3.org/2000/svg" xmlns:xlink="http://www.w3.org/1999/xlink" width="582.441" height="511.984" viewBox="0 0 582.441 511.984">
  <defs>
    <linearGradient id="linear-gradient" x1="-5.379" y1="1.983" x2="-5.968" y2="3.268" gradientUnits="objectBoundingBox">
      <stop offset="0" stop-color="#5c8167"/>
      <stop offset="1" stop-color="#7d906c"/>
    </linearGradient>
    <linearGradient id="linear-gradient-2" x1="-11.378" y1="4.547" x2="-12.128" y2="6.391" gradientUnits="objectBoundingBox">
      <stop offset="0" stop-color="#728567"/>
      <stop offset="1" stop-color="#d2dea0"/>
    </linearGradient>
    <linearGradient id="linear-gradient-3" x1="-38.82" y1="13.832" x2="-38.709" y2="14.345" gradientUnits="objectBoundingBox">
      <stop offset="0" stop-color="#d3d3b0"/>
      <stop offset="1" stop-color="#f5f8de"/>
    </linearGradient>
    <linearGradient id="linear-gradient-4" x1="-56.071" y1="10.73" x2="-52.814" y2="10.591" gradientUnits="objectBoundingBox">
      <stop offset="0" stop-color="#bc5335"/>
      <stop offset="1" stop-color="#bc5335"/>
    </linearGradient>
    <linearGradient id="linear-gradient-5" x1="-21.36" y1="10.079" x2="-23.665" y2="12.14" gradientUnits="objectBoundingBox">
      <stop offset="0" stop-color="#bc5335"/>
      <stop offset="1" stop-color="#dac9b0"/>
    </linearGradient>
    <linearGradient id="linear-gradient-6" x1="-49.855" y1="13.43" x2="-51.339" y2="15.469" gradientUnits="objectBoundingBox">
      <stop offset="0" stop-color="#04101c"/>
      <stop offset="1" stop-color="#383b33"/>
    </linearGradient>
    <linearGradient id="linear-gradient-7" x1="-51.176" y1="36.204" x2="-51.292" y2="37.972" gradientUnits="objectBoundingBox">
      <stop offset="0" stop-color="#06111c"/>
      <stop offset="1" stop-color="#33322d"/>
    </linearGradient>
    <linearGradient id="linear-gradient-8" x1="-51.32" y1="61.636" x2="-51.484" y2="65.28" gradientUnits="objectBoundingBox">
      <stop offset="0" stop-color="#091a38"/>
      <stop offset="1" stop-color="#222b31"/>
    </linearGradient>
    <linearGradient id="linear-gradient-9" x1="-308.608" y1="192.92" x2="-307.993" y2="190.181" gradientUnits="objectBoundingBox">
      <stop offset="0" stop-color="#5d5c4e"/>
      <stop offset="1" stop-color="#736468"/>
    </linearGradient>
    <linearGradient id="linear-gradient-10" x1="-228.353" y1="220.318" x2="-228.646" y2="223.034" gradientUnits="objectBoundingBox">
      <stop offset="0" stop-color="#353739"/>
      <stop offset="1" stop-color="#464b42"/>
    </linearGradient>
    <linearGradient id="linear-gradient-11" x1="-218.963" y1="119.973" x2="-217.062" y2="120.064" gradientUnits="objectBoundingBox">
      <stop offset="0" stop-color="#343927"/>
      <stop offset="1" stop-color="#4e4b38"/>
    </linearGradient>
    <linearGradient id="linear-gradient-12" x1="-51.329" y1="49.316" x2="-51.877" y2="53.166" gradientUnits="objectBoundingBox">
      <stop offset="0" stop-color="#242729"/>
      <stop offset="1" stop-color="#474938"/>
    </linearGradient>
    <linearGradient id="linear-gradient-13" x1="-51.612" y1="60.086" x2="-51.437" y2="56.339" gradientUnits="objectBoundingBox">
      <stop offset="0" stop-color="#20393c"/>
      <stop offset="1" stop-color="#0b121f"/>
    </linearGradient>
    <linearGradient id="linear-gradient-14" x1="-255.719" y1="166.41" x2="-255.936" y2="163.259" gradientUnits="objectBoundingBox">
      <stop offset="0" stop-color="#353c3b"/>
      <stop offset="1" stop-color="#525042"/>
    </linearGradient>
    <linearGradient id="linear-gradient-15" x1="-124.544" y1="62.204" x2="-125.404" y2="62.555" gradientUnits="objectBoundingBox">
      <stop offset="0" stop-color="#f2ede6"/>
      <stop offset="1" stop-color="#dfcfb4"/>
    </linearGradient>
  </defs>
  <g id="NUSMAD_CRISE_TopicosOp1_Top01" transform="translate(-21.275 -62.33)">
    <circle id="Elipse_2" data-name="Elipse 2" cx="245.992" cy="245.992" r="245.992" transform="translate(79.407 72.33)" fill="#dccab0" stroke="#fff" stroke-miterlimit="10" stroke-width="20"/>
    <g id="Grupo_118" data-name="Grupo 118" transform="translate(21.275 102.514)">
      <path id="Caminho_597" data-name="Caminho 597" d="M325.97,95.226c5.822-.877,16.748,1.3,19.645,6.938,3.841,7.483,1.3,21.134,1.954,29.6a45.24,45.24,0,0,1-.518,9.211c8.015,1.422,21.254,5.968,27.394,11.285,5.343-9.131,22.623-36.672,33.535-38.254,10.022-1.462,19.512,10.554,14.422,21.8-6.473,14.315-17.027,25.427-26.637,37.868a62.242,62.242,0,0,1,7,10.3c.811,1.5,2.432,5.809,2.991,6.433,2.818.053,12.454-3.429,16.083-4.227,13.438-2.924,31.355-8.826,35.316,10.381,1.1,5.011-3.376,14.648-8.294,16.469-10.687,3.961-24.816,7.164-35.994,9.078a50.438,50.438,0,0,1-1.289,11.644c-2.884,15.432-11.178,27.793-21.054,39.57-3.562,4.24-8.44,9.344-11.3,13.9-1.927,3.084-3.283,8.852-4.386,12.441-.359,1.156-2.02,6.433-2.034,7.2,1.715.572,46.256-4.187,52.476-4.346,5.357-14.422,14.448-23.3,29.441-27.634,22.317-6.447,47.2,4.107,55.959,26.039,1.409,3.522,3,6.074,4.081,10.009L564.585,326.8c8.6,2.791,24.643,6.859,32.339,12.042,2.831,1.9,2.565,9.969,2.871,13.358.279,3.057,3.841,6.593,3.921,9.118-11.218,13.451-29.255,30.518-41.776,43.119l-62.711,64.2-40.341,41.643-11.351,11.776a67.661,67.661,0,0,1-7.5,7.031c-3.655-2.167-11.391-5.5-15.565-7.483L393.4,507.007q-13.079-6.1-26.079-12.428c-4.665-2.26-10.022-5.038-14.687-6.978-4.107-2.193-9-4.187-13.279-6.34-3.735-1.887-8.587-4.785-12.388-6.034-1.037-.332-6.712-.625-8.161-.731q-8.553-.618-17.107-1.369-30.265-2.911-60.584-5.064c-8.945-.638-17.838-1.741-26.8-2.459l-23.912-2.047c-4.479-.346-14.355-.7-18.29-1.927-7.031-2.193-16.243-4.027-22.875-6.885-3.735-1.608-9.2-4.665-13.026-6.553l-31.595-15.472L60.16,411.372c-7.111-3.389-32.033-14-38.294-20.788-1.675-5.091.7-14,1.037-18.888.292-4.32,1.342-7.536,4.519-9.118,17.2-8.547,35.409-14.82,52.808-22.928,4.984-2.326,10.7-3.828,15.538-6.46l.4-.226c-1.409-2.592-2.379-6.739-3.416-9.623-5.436-15.259-4.931-32.578,4.253-46.309,11.325-16.934,35.051-23.792,54.124-17.465,11.458,3.775,23.965,12.295,29.654,23.261,9.464-4.891,18.356-11.285,28.4-15.219,4.546-1.781,6.832-.837,11.258-.744,9.131.186,16.668.691,24.391,5.995,4.227,2.658,11.325,5.715,15.964,8.081,2.7,1.382,8.812,2.672,12.109,3.416-.625-8.055,1.1-9.623-3.828-16.934-7.962-11.8-15.525-27.634-16.522-42.029-6.965.106-13.385-.279-20.31-.691-4.134-.479-11.537.532-15.365-1.1-11.431-4.918-10.78-17.386-5.1-26.57,1.5-2.977,6.247-7.085,9.783-7.324,10.886-.758,22.264,3.336,33.323,3.509,3.017-8.135,5.928-14.448,11.059-21.506-2.007-2.087-4.439-3.881-6.606-5.822-5.636-5.024-11.471-9.809-17.08-14.847a50.381,50.381,0,0,1-4.107-4.147c-2.632-3-4.214-5.622-3.815-9.783a17.925,17.925,0,0,1,6.167-12.361,17.186,17.186,0,0,1,11.936-3.615c6.752.8,11.7,6.978,16.442,11.165,4.812,4.24,9.291,8.467,13.757,13.039a80.421,80.421,0,0,1,5.809,6.061c4.692-2.712,8.852-5.476,14-7.377,1.874-.7,8.972-2.127,9.823-3.35.585-.851-3.217-32.405,5.157-42.228,2.313-2.712,5.264-2.911,8.573-3.243Z" transform="translate(-21.275 -95.039)" fill="#fefefe"/>
      <path id="Caminho_598" data-name="Caminho 598" d="M429.8,241.874c1.675-.412,5.423-.585,7.018-.013a25.066,25.066,0,0,1,17.279,9.876c5.556,7.018,6.247,13.372,5.343,21.918.625.93,31.209,11.418,35.037,12.76q20.895,7.357,41.869,14.435c4.147,1.422,8.307,3.177,12.428,4.546-3.456,3.5-7.018,7.018-10.434,10.554,2.579,2.419,7.35,3.722,10.74,4.479-14.7,14.608-31.9,28.205-47.053,42.521-16.987,16.07-33.309,32.95-49.738,49.592-17.173,17-34.718,33.934-51.386,51.453q-39.5-19.22-79.352-37.722c-8-3.735-21.28-11.059-29.083-13.4-4.386-1.316-21.161-2.406-26.6-2.884q-27.713-2.552-55.467-4.838c-5.091-.465-16.017-1.5-21.413-2.632-1.382-.279.465-1.156-3.044-1.529l-34.266-1.475c-5.729-.253-12.521-.359-18.143-.957.359-3.31,6.26-9.012,8.759-12.016,1.781-6.061,4.439-5.224,8.414-8.48,4.732-3.881,11.205-7.723,15.6-11.577,1.794-1.582,5.662-9.809,6.938-12.335l.465-.851c3.283-6.38,8.733-7.7,14.342-11.178a40.925,40.925,0,0,0,7.364-6.566c1.077-.611,1.887-1.143,2.911-1.834l.585-.412a159.593,159.593,0,0,1,15.618-8.121c2.592-1.263,5.343-3.775,8.161-4.758,8.068-2.8,17.878-3.084,25.055-7.922,4.094-2.765,5.144-3.934,6.54-8.454.439-1.409,3.257-3.735,3.031-6.021-.066-.6,1.475-.691,1.98-.784,2.951-.465,8.214-2.552,10.434-4.559l.452-.093a4.933,4.933,0,0,1,1.422-.784c1,7.776,8.2,11.232,14.887,13.252.651.97,2.446,4.227,2.7,4.559l.12.4c1.13,4.014.505,7.51,4.187,9.743,1.17.505,2.446,1.01,3.562,1.582-.638.572-1.05.944-1.648,1.582.665,1.21,3.961,2.951,5.3,3.482,10.314,4.107,21.559,4.174,32.5,4.267a34.252,34.252,0,0,1,4.214.146,24.344,24.344,0,0,0,4.346-.824,4.058,4.058,0,0,1,1.821,1.117,7.235,7.235,0,0,1,.93-.758,41.155,41.155,0,0,0,4.931-3.748c1.7-1.582,4.12-4.785,5.835-6.114,6.34-4.878,12.189-8.826,17.864-14.621l1.342-.665c6.154-5.968,12.295-9.557,18.808-14.568,4.984-3.841,9.092-7.816,14.488-11.816l-.027-1.435c-.545-.891-.93-4.612-1.436-6.207-.678-4.692.93-10.54,2.964-14.767,3.363-7.231,12.534-13.837,20.523-14.515Z" transform="translate(15.681 -46.828)" fill="url(#linear-gradient)"/>
      <path id="Caminho_599" data-name="Caminho 599" d="M271.615,279.35c1,7.776,8.2,11.232,14.887,13.252.651.97,2.446,4.227,2.7,4.559l.12.4c1.13,4.014.505,7.51,4.187,9.743,1.17.505,2.446,1.01,3.562,1.582-.638.572-1.05.944-1.648,1.582.665,1.21,3.961,2.951,5.3,3.482,10.314,4.107,21.559,4.174,32.5,4.267a34.252,34.252,0,0,1,4.214.146l-.4.651a5.113,5.113,0,0,1,2.7-.186l.053.465-.824.9c-1.342,1.183-6.912,7.377-7.576,8.8l.08.625c2.127,1.156,4.506-1.635,9.052-.213a6.386,6.386,0,0,1,1.356,3.243c-2.113,3.881-7.736,9.3-10.939,13.053q-12.182,13.239-25.321,25.56c-4.652,4.4-13.93,11.431-16.163,17.226l-.253.824a1.305,1.305,0,0,1-1.21.106c-2.02.306-11.378-.04-13.877-.093-1.741.159-6.473-.066-8.361-.106l-16.788-.372-29.827-.545c-12.135-.213-21-.532-33.19.239l-34.266-1.475c-5.729-.253-12.521-.359-18.143-.957.359-3.31,6.26-9.012,8.759-12.016,1.781-6.061,4.439-5.224,8.414-8.48,4.732-3.881,11.205-7.723,15.6-11.577,1.794-1.582,5.662-9.809,6.938-12.335l.465-.851c3.283-6.38,8.733-7.7,14.342-11.178a40.925,40.925,0,0,0,7.364-6.566c1.077-.611,1.887-1.143,2.911-1.834l.585-.412a159.593,159.593,0,0,1,15.618-8.121c2.592-1.263,5.343-3.775,8.161-4.758,8.068-2.8,17.878-3.084,25.055-7.922,4.094-2.765,5.144-3.934,6.54-8.454.439-1.409,3.256-3.735,3.031-6.021-.066-.6,1.475-.691,1.98-.784,2.951-.465,8.214-2.552,10.434-4.559l.452-.093a4.934,4.934,0,0,1,1.422-.784Z" transform="translate(15.681 -34.367)" fill="#dac9b0"/>
      <path id="Caminho_600" data-name="Caminho 600" d="M188.4,310.912a6.99,6.99,0,0,0,.4,1.156c2.658.106,5.995-.585,8.733-.744,11.458-.651,26.544-2.339,35.635,6.167,3.948,3.708,2.924,10.182-1.409,13.385-10.58,7.816-24.55,7.935-37.124,6.752-5.755-.678-25.321-4.28-29.8-6.486l-.053-1.05-1,.4c3.283-6.38,8.733-7.7,14.342-11.178a40.925,40.925,0,0,0,7.364-6.566c1.077-.611,1.887-1.143,2.911-1.834Z" transform="translate(25.635 -24.033)" fill="#7e8f55"/>
      <path id="Caminho_601" data-name="Caminho 601" d="M143.08,350.47l.239.651c1.2.332,2.738,0,4.014-.013,17.758-.2,35.463,3.2,53.207,4.107,0,1.555.027,3.163-.04,4.719,7.988.532,16.083.452,24.085.917,1.6.093,8.028-.146,8.945.7,2.672.944,5.436-1.648,7.47-3.2,2.605.917,10.009.558,13.2.944,4.984.585,9.8,1.635,14.727,2.592,2.113.412,6.965,1.05,8.719,1.622l-.7.266c4.4.6,4.214,1.954,8.493-.465l1.4-.771.4.12a7.892,7.892,0,0,1-.385,2.924c-1.675-.013-14.315-.452-14.78-.053,1.023.053,1.422-.133,2.06.385-1.741.16-6.473-.066-8.361-.106l-16.788-.372-29.827-.545c-12.135-.213-21-.532-33.19.239l-34.266-1.475c-5.729-.253-12.521-.359-18.143-.957.359-3.31,6.26-9.012,8.759-12.016l.771-.186Z" transform="translate(15.684 -10.955)" fill="#dac9b0"/>
      <path id="Caminho_602" data-name="Caminho 602" d="M298.813,309.258a5.112,5.112,0,0,1,2.7-.186l.053.465-.824.9c-1.342,1.183-6.912,7.377-7.576,8.8l.08.625c2.127,1.156,4.506-1.635,9.052-.213a6.387,6.387,0,0,1,1.356,3.243c-2.113,3.881-7.736,9.3-10.939,13.053q-12.182,13.239-25.321,25.56c-4.652,4.4-13.93,11.431-16.163,17.226l-.253.824a1.3,1.3,0,0,1-1.21.106c-1.17-5.583,4.958-7.6,6.407-12.135,2.3-7.191.359-12.534,9.929-14.4,2.167.093,2.937.04,4.865,1.01,5.915-3.243,16.5-15.179,21.214-20.5,1.941-2.193,4.838-5.131,6.606-7.43.864-.811,2.818-3.363,2.432-4.546-2.326-1.2-6.513,2.22-10.368,1.183-3.27-2.765,4.2-9.6,6.114-11.657a17.176,17.176,0,0,0,1.808-1.954Z" transform="translate(53.892 -24.626)" fill="#fdfdf1"/>
      <path id="Caminho_603" data-name="Caminho 603" d="M265.263,343.45l.665.053c.385.944.027,1.874-.173,3.044a80.939,80.939,0,0,1-8.334,7.776l-.585.08a23.311,23.311,0,0,1,1.236-6.912c1.5-2.685,4.466-3.336,7.178-4.041Z" transform="translate(56.26 -13.266)" fill="#dac9b0"/>
      <path id="Caminho_604" data-name="Caminho 604" d="M253.994,279.93c-.425,3.084-8.985,5-11.537,5.583-1.462,5.463-7.124,13.744-12.268,16.243-6.978,3.389-15.458,4.333-22.942,6.34-4.227,1.289-9.344,6.433-14.063,7.7-2.818.758-7.47,5.224-10.434,4.852a159.6,159.6,0,0,1,15.618-8.121c2.592-1.263,5.343-3.775,8.161-4.758,8.068-2.8,17.878-3.084,25.055-7.922,4.094-2.765,5.144-3.934,6.54-8.454.439-1.409,3.257-3.735,3.031-6.021-.066-.6,1.475-.691,1.98-.784,2.951-.465,8.214-2.552,10.434-4.559l.452-.093Z" transform="translate(31.88 -34.176)" fill="#7e8f55"/>
      <path id="Caminho_605" data-name="Caminho 605" d="M220.792,346.03c.9.173.944.319,1.635.93a9.752,9.752,0,0,1,.811,5.875c-.957,3.3-4.665,4.865-7.018,6.978-2.034,1.542-4.8,4.134-7.47,3.2,3.775-3.988,8.281-7.031,12.641-10.3-.266-2.18-.4-4.466-.611-6.672Z" transform="translate(40.438 -12.417)" fill="#f2ede6"/>
      <path id="Caminho_606" data-name="Caminho 606" d="M249.633,366.871c3.549-3.416,9-6.792,9.77-11.883.877-5.755,1.622-10.926,7.962-12.787,1.356-.4,1.289-.518,2.658.106-9.57,1.861-7.643,7.2-9.929,14.4-1.449,4.533-7.576,6.54-6.407,12.135-2.02.306-11.378-.04-13.877-.093-.638-.518-1.037-.332-2.06-.385.465-.4,13.106.04,14.78.053a7.927,7.927,0,0,0,.385-2.924l-.4-.12-1.4.771c-4.28,2.419-4.094,1.063-8.493.465l.7-.266c2.113.279,4.187.4,6.314.545Z" transform="translate(49.985 -13.786)" fill="#7e8f55"/>
      <path id="Caminho_607" data-name="Caminho 607" d="M220.28,344.1c4.094-6.167,7.337-6.726,14.049-9.225-2.8,5.622-7.51,6.593-13.066,9.65l-.984-.439Z" transform="translate(44.234 -16.087)" fill="#f2ede6"/>
      <path id="Caminho_608" data-name="Caminho 608" d="M171.552,325.7l1-.4.053,1.05c-2.765,3.629-5.543,10.846-8.587,13.624-3.948,3.576-10.527,7.59-14.9,11.139-4.147,3.363-5.2,2.353-8.214,7.643l-.771.186c1.781-6.061,4.439-5.224,8.414-8.48,4.732-3.881,11.205-7.723,15.6-11.577,1.794-1.582,5.662-9.809,6.938-12.335l.465-.851Z" transform="translate(17.85 -19.241)" fill="#7f8d6b"/>
      <path id="Caminho_609" data-name="Caminho 609" d="M289.074,325.667c.4-1.582,1.941-2.605,1.794-4.453l-.465-.359c-2.273,1.7-7.284,4.214-10.035,2.472-4.267-2.712,4.386-12.282,6.9-12.667-1.927,2.06-9.384,8.892-6.114,11.657,3.855,1.023,8.028-2.393,10.368-1.183.385,1.183-1.582,3.735-2.432,4.546Z" transform="translate(63.631 -24.06)" fill="#7e8f55"/>
      <path id="Caminho_610" data-name="Caminho 610" d="M218.993,345.263c.851-1.409.8-2.113,2.1-3.443l.984.439a10.457,10.457,0,0,0-1.887,3.536,9.161,9.161,0,0,1-.744,2.565c-.691-.611-.731-.758-1.635-.93l1.183-2.167Z" transform="translate(43.421 -13.803)" fill="#f5f2ea"/>
      <path id="Caminho_611" data-name="Caminho 611" d="M246.414,306.81c.651.213.372.04.8.625-1.289,2.326-1.09,1.369-.811,4.147.425,4.12-.877,6.739-3.562,9.77-1.077-3.6-.066-5.8-.4-9.384a32.456,32.456,0,0,0-1.21-3.429l.226-.053a27.629,27.629,0,0,0,4.931-1.675Z" transform="translate(51.13 -25.327)" fill="#f2ede6"/>
      <path id="Caminho_612" data-name="Caminho 612" d="M242.537,322.12c.837.239.465.027,1.077.744.346,3.5-4.652,7.669-7.35,9.45-1.023-.811-.877-.452-1.183-1.515.479-1.715,5.782-6.7,7.457-8.68Z" transform="translate(49.106 -20.288)" fill="#f2ede6"/>
      <path id="Caminho_613" data-name="Caminho 613" d="M358.907,269.56c1.369,2.924,2.366,6.048,3.7,9,4.612,10.142,8.547,20.456,13.6,30.412,2.074,4.094,4.16,9.2,6.739,12.973l.572,2.007-.492.758c-1.435-.027-2.366-.465-3.708-.359l-.452.439c.279,2.233,4.12,3.576,6.021,4.572,15.086,7.855,31.555,10.062,47.651,15.365-.478,8.387-4.665,9.331-11.085,13.372a21.892,21.892,0,0,1-5.662,3.084c-3.443,1.342-32.352,10.3-34.319,10.195a4.757,4.757,0,0,1-.984-.173l.173-.359c-6.7.359-20.576-1.728-27.394-2.924-9.73-1.715-14.169-3.8-24.616-1.462-1.821-3.655-10.328-12.587-14.116-14.355-9.065-4.24-22.676-2.632-32.485-3.2,3.2-3.748,8.826-9.171,10.939-13.053a6.554,6.554,0,0,0-1.356-3.243c-4.546-1.422-6.925,1.369-9.052.213l-.08-.625c.665-1.422,6.234-7.616,7.576-8.8l.824-.9-.053-.465a5.112,5.112,0,0,0-2.7.186l.4-.651a24.339,24.339,0,0,0,4.346-.824,4.058,4.058,0,0,1,1.821,1.116,7.24,7.24,0,0,1,.93-.758,41.162,41.162,0,0,0,4.931-3.748c1.7-1.582,4.12-4.785,5.835-6.114,6.34-4.878,12.189-8.826,17.864-14.621l1.342-.665c6.154-5.968,12.295-9.557,18.808-14.568,4.984-3.841,9.092-7.816,14.488-11.816Z" transform="translate(64.564 -37.59)" fill="#7e8f55"/>
      <path id="Caminho_614" data-name="Caminho 614" d="M320.911,290.075l1.342-.665c2.725.8,7.5.12,10.421.2,10.833.319,30.106-.372,31.222,14.368.279,3.762-.226,6.433-3.642,8.52a29.3,29.3,0,0,1-9.836,1.927c-19.167.478-38.666.492-57.833.292-.106-.053-.2-.106-.306-.16a41.161,41.161,0,0,0,4.931-3.748c1.7-1.582,4.12-4.785,5.835-6.114C309.387,299.817,315.235,295.87,320.911,290.075Z" transform="translate(67.935 -31.055)" fill="#7f8d6b"/>
      <path id="Caminho_615" data-name="Caminho 615" d="M356.276,349.042c.784-1.116,4.346-3.35,5.649-4.014,9.4-4.812,18.516-9.49,29.375-9.185a20.9,20.9,0,0,1,5.755.452,21.891,21.891,0,0,1-5.662,3.084c-3.443,1.342-32.352,10.3-34.319,10.195a4.755,4.755,0,0,1-.984-.173l.173-.359Z" transform="translate(88.94 -15.775)" fill="#5c8154"/>
      <path id="Caminho_616" data-name="Caminho 616" d="M289.25,318.564a3.414,3.414,0,0,1,.771-.412c5.662-2.552,9.477-5.676,15.924-5.9l-.173.771c-2.592.625-13.5,5.343-15.06,7.43l-.093,1.342a6.554,6.554,0,0,0-1.356-3.243Z" transform="translate(66.938 -23.537)" fill="#dac9b0"/>
      <path id="Caminho_617" data-name="Caminho 617" d="M316.109,317.68c3.762,1.342,5.064,3.629,6.726,7.138.159.346.319.691.478,1.023l-.6.8c-2.459-2.565-4.665-5.383-6.925-8.135l.319-.824Z" transform="translate(75.674 -21.749)" fill="#f2ede6"/>
      <path id="Caminho_618" data-name="Caminho 618" d="M301.863,312.35c4.546-1.17,8.773.651,12.428,3.2-.824.332-.811.452-1.98.013-4.36-1.555-6.3-1.475-10.62-2.446l.173-.771Z" transform="translate(71.033 -23.623)" fill="#f5f2ea"/>
      <path id="Caminho_619" data-name="Caminho 619" d="M311.664,314.67a60.671,60.671,0,0,1,6.473,4l-.319.824c-3.07-2.286-5.463-2.937-8.148-4.812,1.17.439,1.156.319,1.98-.013Z" transform="translate(73.66 -22.74)" fill="#dac9b0"/>
      <path id="Caminho_620" data-name="Caminho 620" d="M287.029,308.894a24.338,24.338,0,0,0,4.346-.824,4.058,4.058,0,0,1,1.821,1.117,27.177,27.177,0,0,1-4.639,1.555l.824-.9-.053-.465a5.112,5.112,0,0,0-2.7.186l.4-.651Z" transform="translate(66.075 -24.913)" fill="#d6dec2"/>
      <path id="Caminho_621" data-name="Caminho 621" d="M321.611,323.82a24.033,24.033,0,0,1,3.11,5.21A52.861,52.861,0,0,1,321,324.618l.6-.8Z" transform="translate(77.389 -19.728)" fill="#f5f2ea"/>
      <path id="Caminho_622" data-name="Caminho 622" d="M340.941,333.385c-5.649-.186-9.7.731-15.352-2.818-.372-.226-.266-.292-.359-.824,2.246-1.887,12.813,2.153,15.844,2.8l.292.066-.439.784Z" transform="translate(78.782 -17.942)" fill="#f5f2ea"/>
      <path id="Caminho_623" data-name="Caminho 623" d="M356.427,330.52a5.051,5.051,0,0,1,2.871.6c-2.977,1.635-9.6,2.552-12.986,2.472l-1.5-.691A56.878,56.878,0,0,1,356.427,330.52Z" transform="translate(85.227 -17.523)" fill="#f5f2ea"/>
      <path id="Caminho_624" data-name="Caminho 624" d="M389.816,328.11c1.077.173,1.236-.04,1.821,1.01-1.449,2.06-5.157,3.363-7.629,3.549h-.6c-1.329,0-1.635.04-2.419-.771q4.466-1.774,8.826-3.788Z" transform="translate(97.137 -18.316)" fill="#f5f2ea"/>
      <path id="Caminho_625" data-name="Caminho 625" d="M361.03,330.136h.372c2.127-.04,3.669-.4,5.755-.478a80.052,80.052,0,0,1,10.248.492l-.691,1.037c-5.064.332-10.341-.518-14.01-.239-.558-.226-1.143-.545-1.675-.811Z" transform="translate(90.566 -17.817)" fill="#f5f2ea"/>
      <path id="Caminho_626" data-name="Caminho 626" d="M373.518,330.033c2.938.08,9.1,2.127,10.155,1.236.784.811,1.09.758,2.419.771h.6c-.093.013-.186.04-.279.053l-.465.066a33.038,33.038,0,0,1-13.106-1.1l.691-1.037Z" transform="translate(94.454 -17.687)" fill="#dac9b0"/>
      <path id="Caminho_627" data-name="Caminho 627" d="M337.479,331.77c1.648.08,8.613.425,9.889.718l1.5.691a90.1,90.1,0,0,1-11.83-.625Z" transform="translate(82.669 -17.111)" fill="#dac9b0"/>
      <path id="Caminho_628" data-name="Caminho 628" d="M353.55,330.692c.744-.465,8.467-.771,9.942-.678a17.594,17.594,0,0,0,1.675.811c-1.914,0-7.271-.292-8.746.452a5.187,5.187,0,0,0-2.871-.6Z" transform="translate(88.104 -17.695)" fill="#dac9b0"/>
      <path id="Caminho_629" data-name="Caminho 629" d="M387.63,328.729c1.01-.784,2.858-2.486,3.974-2.5l.439.292c-.638,1.675-2.5,2.034-2.592,3.217C388.866,328.7,388.707,328.9,387.63,328.729Z" transform="translate(99.323 -18.935)" fill="#dac9b0"/>
      <path id="Caminho_630" data-name="Caminho 630" d="M292.31,329.26c9.809.585,23.42-1.037,32.485,3.2,3.788,1.768,12.295,10.7,14.116,14.355,10.447-2.339,14.887-.253,24.616,1.462,6.819,1.2,20.7,3.283,27.394,2.924l-.173.359c-2.339,1.608-13.611,19.047-16.11,22.091-2.087,2.539-4.6,8.055-6.965,10.461-6.287,6.38-12.933,5.543-17,14.555.545,1.555,1.794,4.413.837,5.862-2.658,4.014-8.294,5.45-12.641,5.343l-.372.226a5.249,5.249,0,0,0-2.951-.545l-.319.585c1.382-.093,1.515.372,2.977,1.117l-.08.412-.226.146c-1.794-.718-3.6-1.661-5.37-2.459-21.134-9.53-42-19.619-63.229-28.923-5.529-2.419-11.431-6.26-17.346-7.4-.891-.292-.479-.053-1.117-.957,2.22-5.8,11.511-12.827,16.163-17.226q13.119-12.322,25.321-25.56Z" transform="translate(54.294 -17.937)" fill="#5c8154"/>
      <path id="Caminho_631" data-name="Caminho 631" d="M251.749,362.443l-.279-.744c2.459-1.489,8.839,2.672,11.763,3.894q35.19,15.073,69.649,31.728c1.635.784,4.413,1.17,5.8,1.98l-.372.226a5.249,5.249,0,0,0-2.951-.545l-.319.585c1.382-.093,1.515.372,2.977,1.117l-.08.412-.226.146c-1.794-.718-3.6-1.661-5.37-2.459-21.134-9.53-42-19.619-63.229-28.923-5.529-2.419-11.431-6.26-17.346-7.4Z" transform="translate(54.501 -7.364)" fill="#7f8d6b"/>
      <path id="Caminho_632" data-name="Caminho 632" d="M386.982,433.19c29.1-29.348,59.707-58.67,89.281-87.606l33.961-33.19c4.572-4.453,10.567-10.939,15.139-14.874,2.579,2.419,7.35,3.722,10.74,4.479-14.7,14.608-31.9,28.205-47.053,42.521-16.987,16.07-33.309,32.95-49.738,49.592-17.173,17-34.718,33.934-51.386,51.453q-39.5-19.22-79.352-37.722c-8-3.735-21.28-11.059-29.083-13.4-4.386-1.316-21.161-2.406-26.6-2.884q-27.713-2.552-55.467-4.838c-5.091-.465-16.017-1.5-21.413-2.632-1.382-.279.465-1.156-3.044-1.529,12.189-.771,21.054-.452,33.19-.239l29.827.545,16.788.372c1.9.04,6.633.266,8.361.106,2.5.066,11.87.412,13.877.093a1.3,1.3,0,0,0,1.21-.106l.253-.824c.638.9.226.678,1.117.957,5.928,1.156,11.816,4.984,17.346,7.4,21.227,9.3,42.1,19.393,63.229,28.923,1.768.8,3.576,1.741,5.37,2.459.837.638,6.207,3.044,7.35,3.576,5.37,2.459,10.766,4.772,16.1,7.35Z" transform="translate(28.66 -28.386)" fill="#dccdaf"/>
      <path id="Caminho_633" data-name="Caminho 633" d="M362.286,241.874c1.675-.412,5.423-.585,7.018-.013a25.066,25.066,0,0,1,17.279,9.876c5.556,7.018,6.247,13.372,5.343,21.918-3.934,14.368-9.9,24.789-16.11,38.174-1.608,3.456-5.7,10.873-6.792,14.089a67.1,67.1,0,0,0-3.2,6.992,4.411,4.411,0,0,0-.957.266l-.572-2.007c-2.579-3.775-4.665-8.879-6.739-12.973-5.051-9.956-8.985-20.27-13.6-30.412-1.342-2.951-2.326-6.061-3.7-9l-.027-1.435c-.545-.891-.93-4.612-1.436-6.207-.678-4.692.93-10.54,2.964-14.767,3.363-7.231,12.534-13.837,20.523-14.515Z" transform="translate(83.196 -46.828)" fill="#bb132c"/>
      <path id="Caminho_634" data-name="Caminho 634" d="M362.279,241.874c1.675-.412,5.423-.585,7.018-.013.651,1.2,2.738,1.6,3.775,2.751,1.635,1.821,2.632,4.293,4.041,6.274-8.985.306-17.452-2.206-24.178,5.1a17.42,17.42,0,0,0-4.466,12.88,18.359,18.359,0,0,0,.917,4.931c2.486,6.061,5.875,7.138,8.268,11.152l.253.93a140.035,140.035,0,0,1,2.18,14.98c.572,7.576,5.33,23.42,4.227,30.332-2.579-3.775-4.665-8.879-6.739-12.973-5.051-9.956-8.985-20.27-13.6-30.412-1.342-2.951-2.326-6.061-3.7-9l-.027-1.435c-.545-.891-.93-4.612-1.436-6.207-.678-4.692.93-10.54,2.964-14.767,3.363-7.231,12.534-13.837,20.523-14.515Z" transform="translate(83.203 -46.828)" fill="#bc5335"/>
      <path id="Caminho_635" data-name="Caminho 635" d="M340.99,256.295c3.363-7.231,12.534-13.837,20.523-14.515-1.356,1.449-4.466,1.661-5.077,3.27l.718.478c-.133,1.17-2.911,3.482-3.948,4.107-3.363,2.047-5.742,7.749-8.44,9.956-1.382-.213-1.755-.944-2.512-2.06-.784-.439-.744-.479-1.263-1.236Z" transform="translate(83.969 -46.734)" fill="#bc5335"/>
      <path id="Caminho_636" data-name="Caminho 636" d="M340.99,256.295c3.363-7.231,12.534-13.837,20.523-14.515-1.356,1.449-4.466,1.661-5.077,3.27-5.6,1.6-12.295,6.805-14.182,12.481-.784-.439-.744-.479-1.263-1.236Z" transform="translate(83.969 -46.734)" fill="#bc6139"/>
      <path id="Caminho_637" data-name="Caminho 637" d="M343.712,267.773c.957.093,1.688-.027,2.339.651,1.861,1.941,7.217,22.29,7.178,23.181h-.385c-4.546-2.831-7.736-13.97-9.583-18.954-.7-1.9-1.063-3.443.452-4.891Z" transform="translate(84.517 -38.182)" fill="#bc5335"/>
      <path id="Caminho_638" data-name="Caminho 638" d="M360.608,278.2l.4-.066c9.663-1.608,14.4-10.221,12.494-19.313-.2-.944-1.09-3.509-.917-4.134,2.938,1.316,3.868,9.025,3.35,11.936-1.568,8.932-7.909,13.677-16.362,15.086-.944-.758-2.379-1.6-2.712-2.512l.505-.532,3.23-.465Z" transform="translate(89.194 -42.484)" fill="#bc5335"/>
      <path id="Caminho_639" data-name="Caminho 639" d="M346.72,265.869l.385-.319c.6,1.09.665,1.848,1.741,2.539l.306-.492,1.13-.093.253-.518c.957.505,1.329,1.515,2.1,2.379a14.758,14.758,0,0,0,7.882,4.931c1.063.2,2.406.146,3.429.332l-3.23.465c-2.991-.465-3,1.555-5.715,1.914-2.393-4.014-5.782-5.091-8.268-11.152Z" transform="translate(85.856 -38.91)" fill="#bc6139"/>
      <path id="Caminho_640" data-name="Caminho 640" d="M352.94,274.661c2.712-.359,2.725-2.379,5.715-1.914l-.505.532c.319.917,1.768,1.755,2.712,2.512-2.579.944-4.878.2-7.669-.2Z" transform="translate(87.903 -36.563)" fill="#bc5335"/>
      <path id="Caminho_641" data-name="Caminho 641" d="M350.077,267.554a12.014,12.014,0,1,1,11.537,8.294A11.989,11.989,0,0,1,350.077,267.554Z" transform="translate(86.765 -43.426)" fill="#fefefe"/>
      <path id="Caminho_642" data-name="Caminho 642" d="M359.646,259.893c3.6.93,9.078,3.589,13.2,4.8a12.014,12.014,0,0,1-22.915.213,70.584,70.584,0,0,1,9.7-5.024Z" transform="translate(86.912 -40.776)" fill="#7e8f55"/>
      <path id="Caminho_643" data-name="Caminho 643" d="M359.1,312.011a64.461,64.461,0,0,1,3.2-6.992c.4,2.645-.585,2.02.944,5.383a1.532,1.532,0,0,0,1.329.412,41.139,41.139,0,0,1-5.25,1.369l-.226-.173Z" transform="translate(89.931 -25.917)" fill="#7e8f55"/>
      <path id="Caminho_644" data-name="Caminho 644" d="M423.7,286.4a9.14,9.14,0,0,1,1.21-.027l-1.5.678c-3.19,5.024-11.391,17.811-12.2,22.955a2.07,2.07,0,0,1-.292.93l-.12-1.289a13.755,13.755,0,0,1-2.672-3.868c-.505-.984-4.36-3.482-5.41-4.187-2.113-.891-7.869-4.067-9.078-6.074s-.824-2.9-.452-5.011c5.3-.146,10.594.678,15.924.718,5.529.053,9.8-2.419,14.608-4.825Z" transform="translate(101.03 -32.058)" fill="#5c8154"/>
      <path id="Caminho_645" data-name="Caminho 645" d="M102.858,251.817a29.95,29.95,0,0,1,10.075-14.807,31.4,31.4,0,0,1,42.826,3.682c7.523,8.56,9.318,19.18,6.792,30.119,3.283-.492,10.354-5.848,13.744-7.789,12.135-6.938,24.111-14.156,35.795-21.825a24.168,24.168,0,0,1,5.955-3.163c1.13.625,3.443,1.568,4.692,2.113,6.659,2.685,14.076,6.3,20.8,9.251,19.978,8.773,40.407,17,59.893,26.77.359.186.332.12.837.133l.266.027c.439.425,2.087,1.967,2.393,2.353l-.2.572a12.768,12.768,0,0,0-2.113,2.3c-2.977,3.429-.758,5.6,1.741,8.268a18.132,18.132,0,0,0-2.552,2.3l.558,1.183-1,2.193a4.639,4.639,0,0,0-1.422.784l-.452.093c-2.22,2.007-7.483,4.081-10.434,4.559-.505.093-2.034.186-1.98.784.239,2.286-2.592,4.612-3.031,6.021-1.4,4.519-2.446,5.689-6.54,8.454-7.178,4.838-16.987,5.117-25.055,7.922-2.818.97-5.569,3.5-8.161,4.758a162.683,162.683,0,0,0-15.618,8.121l-.585.412c-1.023.7-1.834,1.223-2.911,1.834a40.925,40.925,0,0,1-7.364,6.566c-5.609,3.482-11.059,4.8-14.342,11.178l-.465.851c-1.276,2.525-5.144,10.753-6.938,12.335-4.4,3.868-10.873,7.7-15.6,11.577-3.974,3.256-6.646,2.419-8.414,8.48-2.5,3-8.4,8.706-8.759,12.016-.4,0-1.369-.12-1.821-.173-1.6-1.183-7.59-4.32-9.623-5.357-4.984-2.552-10.368-5.622-15.392-7.988-4.081-.837-11.737-5.649-16.083-7.6l-.306.213.106.744c1.568,2.153,4.559,3.522,6.952,4.852-11.617-4.984-24.922-12.561-36.34-18.329L64.8,354.283C59.872,351.7,54.7,349.1,50,346.135a6.046,6.046,0,0,1-2.672-2.937c-1.436-.864-4.958-2.472-6.606-3.283-1.13.226-.691.359-1.515-.04l-.6-1.834a6.717,6.717,0,0,0-1.342-2.658l-.213-.306c3.974-1.9,8.706-2.977,12.8-4.812q23.427-10.687,46.575-21.945,6.619-3.09,13.092-6.46a42.012,42.012,0,0,0,5.064-2.672c-5.915-13.411-18.369-32.286-11.737-47.4Z" transform="translate(-16.082 -50.55)" fill="url(#linear-gradient-2)"/>
      <path id="Caminho_646" data-name="Caminho 646" d="M114.591,282.12a16.786,16.786,0,0,1,1.622,3.376q4.366,8.115,8.533,16.349c1.475,2.911,4.253,8.706,6.141,11.165l.385,1.063a12.009,12.009,0,0,1,.9,1.741c.146,2.565.758,2.911-1.741,3.934a22.152,22.152,0,0,0,3.961.518c5.224-.08,15.3,3.482,20.775,5.077q13.239,3.828,26.437,7.789c2.765.944,19.313,5.7,20.616,6.859l.319.279c.08.066.146.146.226.213a2.589,2.589,0,0,1,2.246.292c-1.276,2.525-5.144,10.753-6.938,12.335-4.4,3.868-10.873,7.7-15.6,11.577-3.974,3.257-6.646,2.419-8.414,8.48-2.5,3-8.4,8.706-8.759,12.016-.4,0-1.369-.12-1.821-.173-1.6-1.183-7.59-4.32-9.623-5.357-4.984-2.552-10.368-5.622-15.392-7.988-4.081-.837-11.737-5.649-16.083-7.6l-.306.213.106.744c1.568,2.153,4.559,3.522,6.952,4.852-11.617-4.984-24.922-12.561-36.34-18.329L64.813,337.228c-4.931-2.579-10.1-5.184-14.807-8.148a6.046,6.046,0,0,1-2.672-2.937c-1.436-.864-4.958-2.472-6.606-3.283-1.13.226-.691.359-1.515-.04l-.6-1.834a6.717,6.717,0,0,0-1.342-2.658l-.213-.306c3.974-1.9,8.706-2.977,12.8-4.812q23.427-10.687,46.575-21.945,6.619-3.09,13.092-6.46a42.012,42.012,0,0,0,5.064-2.672Z" transform="translate(-16.079 -33.455)" fill="#dac9b0"/>
      <path id="Caminho_647" data-name="Caminho 647" d="M40.417,311.405c.771.665,1.17,1.2,2.18,1.289.093-.053.186-.12.292-.173,2.8-1.529,17.572-1.874,20.988-1.555,3.7.346,7.284,1.422,10.952,2.007,8.852,1.409,15.578,1.941,24.364,4.8,8.746,2.858,15.153,5.45,22.45,11.3l.146.385c1.914,4.971,1.356,10.833,1.7,16.123.093,1.449-.558,4.36-.146,5.37,2.034-.213,11.471-3.868,15.193-4.852,5.4-1.422,13.092-1.4,16.987-2.565,2.552-2.18,7.311-3.961,10.328-5.609,1.675-.917,1.994-.93,2.539-2.672a20.812,20.812,0,0,1-.917-4.878c2.977-.944,12.042-3.828,13.385-6.739,2.765.944,19.313,5.7,20.616,6.859l.319.279c.08.066.146.146.226.213a2.589,2.589,0,0,1,2.246.292c-1.276,2.525-5.144,10.753-6.938,12.335-4.4,3.868-10.873,7.7-15.6,11.577-3.974,3.257-6.646,2.419-8.414,8.48-2.5,3-8.4,8.706-8.759,12.016-.4,0-1.369-.12-1.821-.173-1.6-1.183-7.59-4.32-9.623-5.357-4.984-2.552-10.368-5.622-15.392-7.988-4.081-.837-11.737-5.649-16.083-7.6l-.306.213.106.744c1.568,2.153,4.559,3.522,6.952,4.852-11.617-4.984-24.922-12.561-36.34-18.329L64.063,327.728c-4.931-2.579-10.1-5.184-14.807-8.148a6.045,6.045,0,0,1-2.672-2.937c-1.436-.864-4.958-2.472-6.606-3.283-.6-.784-.518-.385-.558-1.2l1.01-.8Z" transform="translate(-15.302 -23.995)" fill="#7e8f55"/>
      <path id="Caminho_648" data-name="Caminho 648" d="M44.8,315.243c4.958,1.848,10.673,5.317,15.6,7.563a58.091,58.091,0,0,0,5.556,2.539q25.4,12.321,50.442,25.361c4.533,2.339,15.764,7.43,19.512,10.049-4.081-.837-11.737-5.649-16.083-7.6l-.306.213.106.744c1.568,2.153,4.559,3.522,6.952,4.852-11.617-4.984-24.922-12.561-36.34-18.329L62.269,326.315c-4.931-2.579-10.1-5.184-14.807-8.148a6.045,6.045,0,0,1-2.672-2.937Z" transform="translate(-13.534 -22.556)" fill="url(#linear-gradient-3)"/>
      <path id="Caminho_649" data-name="Caminho 649" d="M171.461,326.051a2.589,2.589,0,0,1,2.246.292c-1.276,2.525-5.144,10.753-6.938,12.335-4.4,3.868-10.873,7.7-15.6,11.577-3.974,3.257-6.646,2.419-8.414,8.48-2.5,3-8.4,8.706-8.759,12.016-.4,0-1.369-.12-1.821-.173l.4-.93c.385-3.07,6.048-8.015,7.723-11.365a29.967,29.967,0,0,0,2.02-4.852c2.1-1.755,4.8-2.977,7.111-4.479,3.828-2.406,7.124-5.835,11.006-8.148a19.959,19.959,0,0,0,8.347-9.145,55.615,55.615,0,0,0,2.685-5.609Z" transform="translate(15.23 -19.035)" fill="#fdfdf1"/>
      <path id="Caminho_650" data-name="Caminho 650" d="M60.71,322.928a1.883,1.883,0,0,1,1.834-.12c31.222,15.458,62.565,30.93,93.255,47.425l.279.518-.4.93c-1.6-1.183-7.59-4.32-9.623-5.357-4.984-2.552-10.368-5.622-15.392-7.988-3.748-2.618-14.993-7.709-19.512-10.049Q86.111,335.25,60.71,322.928Z" transform="translate(-8.294 -20.126)" fill="#7f8d6b"/>
      <path id="Caminho_651" data-name="Caminho 651" d="M114.588,282.12a16.786,16.786,0,0,1,1.622,3.376c-5.516,2.326-11.7,5.6-17.24,8.188L55.758,313.768c-3.27,1.489-11.976,6.181-14.568,7.111l-1.01.8c.027.811-.053.412.558,1.2-1.13.226-.691.359-1.515-.04l-.6-1.834a6.717,6.717,0,0,0-1.342-2.658l-.213-.306c3.974-1.9,8.706-2.977,12.8-4.812Q73.3,302.536,96.445,291.278q6.619-3.09,13.092-6.46a42.013,42.013,0,0,0,5.064-2.672Z" transform="translate(-16.076 -33.455)" fill="#f5f2ea"/>
      <path id="Caminho_652" data-name="Caminho 652" d="M108.342,306.16a12.007,12.007,0,0,1,.9,1.741c.146,2.565.758,2.911-1.741,3.934a22.152,22.152,0,0,0,3.961.518,25.293,25.293,0,0,1-4.745.239c.266-1.728.133-3.27.319-4.984C107.145,306.638,107.6,306.585,108.342,306.16Z" transform="translate(6.852 -25.541)" fill="#7e8f55"/>
      <path id="Caminho_653" data-name="Caminho 653" d="M87.032,251.817A29.95,29.95,0,0,1,97.108,237.01a31.4,31.4,0,0,1,42.826,3.682c7.523,8.56,9.318,19.18,6.792,30.119-.425,1.409-.957,3.416-1.436,4.758-6.739,16.827-15.286,32.8-23.5,48.954a49.345,49.345,0,0,0-2.326,4.865c-.824,1.369-1.582,3.124-3.124,3.509a13.487,13.487,0,0,0-.9-1.741l-.385-1.063c-1.9-2.472-4.679-8.268-6.141-11.165q-4.167-8.234-8.533-16.349a16.786,16.786,0,0,0-1.622-3.376c-5.915-13.411-18.369-32.286-11.737-47.4Z" transform="translate(-0.257 -50.55)" fill="url(#linear-gradient-4)"/>
      <path id="Caminho_654" data-name="Caminho 654" d="M87.036,251.817A29.95,29.95,0,0,1,97.111,237.01a30.4,30.4,0,0,1,22.33-6.619c-.572.332-2.1.957-2.366,1.21,4.918,2.1,7.6,3.536,9.716,8.8l.133.332c-5.011-1.422-7.935-1.9-13.185-1.409-8.055.744-15.166,7.284-17.319,15.006a22.634,22.634,0,0,0,2.127,17.093c2.459,4.32,5.809,7.071,10.54,7.829a5.321,5.321,0,0,1-.239,1.914c-.465,1.954-.053,4.692.173,6.739.891,7.9,2.193,15.87,3.482,23.726,1.09,6.646,2.379,11.657,2.539,18.489-1.9-2.472-4.679-8.268-6.141-11.165q-4.167-8.234-8.533-16.349a16.786,16.786,0,0,0-1.622-3.376c-5.915-13.411-18.369-32.286-11.737-47.4Z" transform="translate(-0.26 -50.55)" fill="#bc5335"/>
      <path id="Caminho_655" data-name="Caminho 655" d="M86.56,251.817A29.95,29.95,0,0,1,96.635,237.01a30.4,30.4,0,0,1,22.33-6.619c-.572.332-2.1.957-2.366,1.21-3.948-.837-8.866-.186-11.83,2.765,0,2.9-4.506,5.423-6.393,7.643a67.347,67.347,0,0,0-6.128,9.1l-3.084-1.994c-1.941,1.356-.891,2.02-2.26,2.791l-.346-.093Z" transform="translate(0.216 -50.55)" fill="#bc5335"/>
      <path id="Caminho_656" data-name="Caminho 656" d="M86.56,251.817A29.95,29.95,0,0,1,96.635,237.01a30.4,30.4,0,0,1,22.33-6.619c-.572.332-2.1.957-2.366,1.21-3.948-.837-8.866-.186-11.83,2.765-7.191,3.2-12.282,6.194-15.392,14.2l-.213.558c-1.941,1.356-.891,2.02-2.26,2.791Z" transform="translate(0.216 -50.55)" fill="#bc6139"/>
      <path id="Caminho_657" data-name="Caminho 657" d="M88.94,261.843a9.223,9.223,0,0,1,5.423,2.8c3.124,3.5,8.44,22.57,8.228,26.358-2.977-1.156-13.106-25.228-13.637-29.176Z" transform="translate(0.999 -40.134)" fill="#bc5335"/>
      <path id="Caminho_658" data-name="Caminho 658" d="M110.49,275.831c-10.168-1.515-16-8.64-15.565-18.928a20.481,20.481,0,0,1,6.859-14.435,14.831,14.831,0,0,1,11.71-3.5c6.247.6,9.038,2.087,13.053,6.739a4.429,4.429,0,0,1,2.8,1.848c3.124,3.522,3.509,8.028,3.3,12.481-.558,11.67-10.9,19.06-22.064,18.6a5.883,5.883,0,0,1-3.8-1.422l-.106-.4c1.01-1.329,2.286-1.05,3.8-1Z" transform="translate(2.962 -47.689)" fill="#bb132c"/>
      <path id="Caminho_659" data-name="Caminho 659" d="M123.631,244.023a4.429,4.429,0,0,1,2.8,1.848c3.124,3.522,3.509,8.028,3.3,12.481-.558,11.67-10.9,19.06-22.064,18.6a5.883,5.883,0,0,1-3.8-1.422l-.106-.4c1.01-1.329,2.286-1.05,3.8-1,8.68.173,16.189-4.054,19.353-12.534,2.512-6.726-.346-11.71-3.283-17.585Z" transform="translate(5.878 -46)" fill="#bc5335"/>
      <path id="Caminho_660" data-name="Caminho 660" d="M102.337,246.1a14.022,14.022,0,1,1-2.765,16.588,2.915,2.915,0,0,1-.758-.279c-1.316-2.991-1.409-4.971-1.648-8.241l-.186.412c0-3.35,1.861-7.736,5.37-8.467Z" transform="translate(3.646 -46.587)" fill="#fefefe"/>
      <path id="Caminho_661" data-name="Caminho 661" d="M99.572,261.725a2.915,2.915,0,0,1-.758-.279c-1.316-2.991-1.409-4.971-1.648-8.241l-.186.412c0-3.35,1.861-7.736,5.37-8.467A14.009,14.009,0,0,0,99.572,261.725Z" transform="translate(3.646 -45.625)" fill="#6e0c0e"/>
      <path id="Caminho_662" data-name="Caminho 662" d="M112.172,305.07c16.176-4.32,52,6.526,70.38,8.52,3.163.346,19.379-.053,20.217.253l.213-.027,1.09,1.13a40.921,40.921,0,0,1-7.364,6.566c-5.609,3.482-11.059,4.8-14.342,11.178l-.465.851a2.589,2.589,0,0,0-2.246-.292c-.08-.066-.146-.146-.226-.213l-.319-.279c-1.3-1.156-17.851-5.915-20.616-6.859q-13.2-3.968-26.437-7.789c-5.476-1.6-15.551-5.144-20.775-5.077a23.419,23.419,0,0,1-3.961-.518c2.5-1.023,1.887-1.369,1.741-3.934,1.542-.385,2.3-2.153,3.124-3.509Z" transform="translate(7.049 -26.232)" fill="#7f8d6b"/>
      <path id="Caminho_663" data-name="Caminho 663" d="M185.067,311.4l1.09,1.13a40.92,40.92,0,0,1-7.364,6.566c-5.609,3.482-11.059,4.8-14.342,11.178l-.465.851a2.589,2.589,0,0,0-2.246-.292c1.3-1.529,3.336-4.945,4.865-6.008,7.47-5.25,12.029-6.287,18.276-13.4l.213-.027Z" transform="translate(24.964 -23.817)" fill="#f4f1e3"/>
      <path id="Caminho_664" data-name="Caminho 664" d="M131.832,268.868c3.283-.492,10.354-5.848,13.744-7.789,12.135-6.938,24.111-14.156,35.795-21.825a24.168,24.168,0,0,1,5.955-3.163c1.13.625,3.443,1.568,4.692,2.113-2.313,1.529-4.9,2.8-7.3,4.227-16.229,9.623-32.392,19.286-48.821,28.564-1.941,1.09-3.256,2.1-5.49,2.605.479-1.342,1.01-3.35,1.436-4.758Z" transform="translate(14.65 -48.607)" fill="#f5f2ea"/>
      <path id="Caminho_665" data-name="Caminho 665" d="M239.489,286.427c.013-.439.04-.891.08-1.329A2.928,2.928,0,0,1,241,282.28c1.648.758,1.249,1.09,3.257,1.529-.505.093-2.034.186-1.98.784.239,2.286-2.592,4.612-3.031,6.021-1.4,4.519-2.446,5.689-6.54,8.454-7.178,4.838-16.987,5.117-25.055,7.922-2.818.97-5.569,3.5-8.161,4.758a162.688,162.688,0,0,0-15.618,8.121l-.585.412c-1.023.7-1.834,1.223-2.911,1.834l-1.09-1.13c4.307-4.293,14.874-8.972,20.509-11.684,2.339-1.13,6.1-3.788,8.321-4.533,11.537-3.868,19.193-2.618,28.312-11.577.12-3.655.625-4.027,3.057-6.766Z" transform="translate(30.741 -33.402)" fill="#fdfdf1"/>
      <path id="Caminho_666" data-name="Caminho 666" d="M225.71,283.393c3.177.346,9.57-3.031,12.441-4.493.133.492.226.8.385,1.289l.864.186c-2.22,2.007-7.483,4.081-10.434,4.559-2.02-.439-1.608-.771-3.257-1.529Z" transform="translate(46.021 -34.515)" fill="#f2ede6"/>
      <path id="Caminho_667" data-name="Caminho 667" d="M238.632,276.8l.558,1.183-1,2.193a4.639,4.639,0,0,0-1.422.784l-.452.093-.864-.186c-.159-.478-.253-.8-.385-1.289A26.219,26.219,0,0,0,238.632,276.8Z" transform="translate(49.103 -35.206)" fill="#fdfdf1"/>
      <path id="Caminho_668" data-name="Caminho 668" d="M175.915,292c2.579-.771,13.066-3.948,15.166-2.964-.944,3.522-12.415,4.293-15.711,3.629Z" transform="translate(29.45 -31.24)" fill="#f2ede6"/>
      <path id="Caminho_669" data-name="Caminho 669" d="M139.73,294.07c1.436.332,12.135,6.779,13.305,7.922C149.313,302.391,140.275,298.257,139.73,294.07Z" transform="translate(17.718 -29.521)" fill="#f2ede6"/>
      <path id="Caminho_670" data-name="Caminho 670" d="M157.76,288.138c2.552-.306,13.345,1.608,14.913,3.283C169.311,291.886,159.647,291.448,157.76,288.138Z" transform="translate(23.653 -31.485)" fill="#f2ede6"/>
      <path id="Caminho_671" data-name="Caminho 671" d="M129.61,273.72c1.21.545,10.966,9.225,11.856,10.594C137.691,284.167,130.474,277.535,129.61,273.72Z" transform="translate(14.387 -36.22)" fill="#f2ede6"/>
      <path id="Caminho_672" data-name="Caminho 672" d="M204.565,279.96l.611.558a57.935,57.935,0,0,1-13.917,8.44c4.825-4.267,7.244-6.965,13.305-9Z" transform="translate(34.681 -34.166)" fill="#f2ede6"/>
      <path id="Caminho_673" data-name="Caminho 673" d="M146.823,285.163l.6.226.106.585c-.851,3.1-4.107,5.8-6.433,7.9l-.625-.306-.08-.824c.784-2.167,4.679-5.8,6.433-7.59Z" transform="translate(17.936 -32.458)" fill="#f2ede6"/>
      <path id="Caminho_674" data-name="Caminho 674" d="M206.14,278.7l.279-.159c2.818-1.622,6.646-5.609,9.929-3.509l-.146.439c-1.369.585-8.626,3.23-9.384,3.708l-.665-.492Z" transform="translate(39.579 -35.986)" fill="#f2ede6"/>
      <path id="Caminho_675" data-name="Caminho 675" d="M201.27,280.724c1.941-.572,4.758-2.831,6.486-3.084l.665.492c-2.167,1.17-4.16,2.7-6.54,3.15l-.611-.558Z" transform="translate(37.976 -34.93)" fill="#dac9b0"/>
      <path id="Caminho_676" data-name="Caminho 676" d="M176.927,292.059c-1.037-.053-5.915-.372-6.327-1.13,1.887-.611,4.931.106,6.872.478l-.545.665Z" transform="translate(27.88 -30.634)" fill="#dac9b0"/>
      <path id="Caminho_677" data-name="Caminho 677" d="M247.59,273.656c-6.952-17.24-20.483-23.952-29.88-39.025-7.6-12.2-9.384-29.694-6.1-43.624,3.669-15.525,14.422-29.242,27.74-37.868,10.66-6.912,30.053-11.936,42.507-8.985,34.811,4.679,58.59,34.745,53.633,69.769-2.3,16.256-10.633,27.434-21.732,38.812a64.883,64.883,0,0,0-15.445,25.573c-.319,1.077-1.3,4.307-.811,5.277v.957c-3.615,4.214-12.322,5.277-17.452,5.995a10.711,10.711,0,0,0-.784.758c-1.329-.093-2.645-.213-3.961-.359-1.781.066-4.187-.2-6.247-.159a5.733,5.733,0,0,1-.811.638c-1.117,0-.585.133-1.608-.572-.665-.08-1.329-.173-1.994-.266-4.665-.678-10.833-1.728-13.837-5.729-.027-1.635-2.565-9.384-3.2-11.165Z" transform="translate(40.862 -79.155)" fill="url(#linear-gradient-5)"/>
      <path id="Caminho_678" data-name="Caminho 678" d="M264.558,143.94c34.811,4.679,58.59,34.745,53.633,69.769-2.3,16.256-10.633,27.434-21.732,38.812a64.883,64.883,0,0,0-15.445,25.573c-.319,1.077-1.3,4.307-.811,5.277v.957c-3.615,4.214-12.322,5.277-17.452,5.995.159-8.188-.957-24.59,1.1-32.3,1.263-.08,2.991-2.193,3.988-3.1A72.026,72.026,0,0,0,289.679,217.3c2.924-13.8,2.472-31.794-2.22-45.179-3.11-8.892-9.331-16.907-16.336-23.075-2.087-1.834-4-3.722-6.579-4.8l.053-.292Z" transform="translate(58.161 -78.941)" fill="#bc5335"/>
      <path id="Caminho_679" data-name="Caminho 679" d="M251.329,221.242l-.319-.226c-2.206-1.555-11.059-9.238-9.065-11.923.279-.053.545-.12.824-.173,2.432,1.5,5.7,6.845,8.228,7.576l.4-.226-.093-.944.159-.332h.385c1.555-.891,1.568-1.17,3.217-.359a35.388,35.388,0,0,0-.691,3.828c4.971,2.14,10.58,1.954,15.817,1.276a15.254,15.254,0,0,0-1.2-6.991c.505-1.143.359-1.063,1.409-1.369l.412.385-.346.385.4.226,1.342-.532a4.6,4.6,0,0,1,.824.479c-.665,1.768-.372,4.227-.027,6.061.572.558.213.385,1,.611l.691.213.372-.266c2.645-1.834,4.546-1.9,5.862-5.37l.465.027c-.4,2.512-5.357,5.237-5.038,6.3a17.071,17.071,0,0,1-3.469,2.153c-.425,4.825-.572,9.863-1.05,14.581-2.06,7.709-.944,24.111-1.1,32.3a10.723,10.723,0,0,0-.784.758c-1.329-.093-2.645-.213-3.961-.359-1.781.066-4.187-.2-6.247-.159a5.731,5.731,0,0,1-.811.638c-1.117,0-.585.133-1.608-.572-.665-.08-1.329-.173-1.994-.266-4.665-.678-10.833-1.728-13.837-5.729-.027-1.635-2.565-9.384-3.2-11.165,7.483-.412,9.1.465,17.107-2.14q-.917-7.915-2.167-15.777c-.651-4.027-1.608-8.919-1.9-12.906Z" transform="translate(50.162 -57.551)" fill="#bb132c"/>
      <path id="Caminho_680" data-name="Caminho 680" d="M250.72,218.87c6.141,1.462,9.092,1.449,15.405.665a157.783,157.783,0,0,1-1.794,17.718c-.385,0-.851.027-1.422.04-2.313,1.422-6.207,5.29-8.786,5.941-.917-8.228-2.618-16.668-3.389-24.364Z" transform="translate(54.254 -54.276)" fill="#c56e4f"/>
      <path id="Caminho_681" data-name="Caminho 681" d="M255.4,239.76c.744,5.915,1.116,13.943,1.914,19.3-.665-.08-1.329-.173-1.994-.266-4.665-.678-10.833-1.728-13.837-5.729-.027-1.635-2.565-9.384-3.2-11.165,7.483-.412,9.1.465,17.107-2.14Z" transform="translate(50.159 -47.399)" fill="#bc5335"/>
      <path id="Caminho_682" data-name="Caminho 682" d="M253.274,238.691c2.579-.651,6.486-4.519,8.786-5.941.572-.013,1.037-.027,1.422-.04-.226,5.038-.585,9.291-.558,14.382.013,3.057.691,11.8.372,13.956a8.4,8.4,0,0,1-2.246.439c-1.781.066-4.187-.2-6.247-.159-.266-6.513-1.622-17.107-1.542-22.636Z" transform="translate(55.089 -49.72)" fill="#bc5335"/>
      <path id="Caminho_683" data-name="Caminho 683" d="M248.46,205.464c3.921-1.848,5.237,1.356,4.918,4.692a22.511,22.511,0,0,1-3.722,5.543c-2.26-2.911-2.645-4.386-3.3-7.882A14.624,14.624,0,0,1,248.46,205.464Z" transform="translate(52.819 -58.867)" fill="#c56e4f"/>
      <path id="Caminho_684" data-name="Caminho 684" d="M262.734,204.863c1.994.532,3.708,1.249,3.562,3.642a14.337,14.337,0,0,0,1.263,1.821c-.638,1.09-1.3,2.26-1.98,3.323a4.6,4.6,0,0,0-.824-.479l-1.342.532-.4-.226.346-.385-.412-.385c-2.06-2.937-3.23-5.144-.226-7.855Z" transform="translate(57.605 -58.891)" fill="#bc5335"/>
      <path id="Caminho_685" data-name="Caminho 685" d="M262.849,212.186a39.737,39.737,0,0,0,2.924-4.586,14.334,14.334,0,0,0,1.263,1.821c-.638,1.09-1.3,2.26-1.98,3.323a4.6,4.6,0,0,0-.824-.479l-1.342.532-.4-.226.346-.385Z" transform="translate(58.129 -57.986)" fill="#bb132c"/>
      <path id="Caminho_686" data-name="Caminho 686" d="M248.33,204.113l.385,1.622a13.515,13.515,0,0,0-2.1,2.353c.651,3.5,1.037,4.971,3.3,7.882a21.909,21.909,0,0,0,3.722-5.543c.346.253.837.625,1.183.824l-2.153,4.958c-1.648-.811-1.661-.532-3.217.372h-.385l-.16.306a11.4,11.4,0,0,1-3.31-7.709c.133-2.525.957-3.416,2.738-5.077Z" transform="translate(52.564 -59.138)" fill="#6e0c0e"/>
      <path id="Caminho_687" data-name="Caminho 687" d="M265.163,219.15c1.874-1.542,3.748-2.393,5.357-4.227,1.568-1.794,1.967-5.8,3.855-6.513l.4.279c.532,3.669-4.041,9.863-7.271,11.365-.319-1.077,4.652-3.788,5.038-6.3l-.465-.027c-1.316,3.469-3.217,3.549-5.862,5.37l-.372.266-.691-.213Z" transform="translate(59.004 -57.719)" fill="#6e0c0e"/>
      <path id="Caminho_688" data-name="Caminho 688" d="M250.415,202.97c3.576,2.326,4.865,4.307,3.722,8.653-.346-.2-.837-.585-1.183-.824.319-3.336-1-6.54-4.918-4.692l-.385-1.622c.9-.505,1.848-1.063,2.765-1.515Z" transform="translate(53.244 -59.51)" fill="#6e0c0e"/>
      <path id="Caminho_689" data-name="Caminho 689" d="M261.855,214.414c-1.781-3.988-4.054-10.1,2.486-10.594a7.087,7.087,0,0,1-1.3,1.369c-3,2.712-1.834,4.918.226,7.855C262.214,213.337,262.36,213.257,261.855,214.414Z" transform="translate(57.301 -59.23)" fill="#6e0c0e"/>
      <path id="Caminho_690" data-name="Caminho 690" d="M263.583,203.82c4.041.9,4.386,3.323,3.522,6.845a14.337,14.337,0,0,1-1.263-1.821c.133-2.393-1.582-3.124-3.562-3.642a7.087,7.087,0,0,0,1.3-1.369Z" transform="translate(58.06 -59.23)" fill="#bc5335"/>
      <path id="Caminho_691" data-name="Caminho 691" d="M244.733,154.2c3.057-.319,7.164,1.342,7.656,4.453,1.09,6.9-10.607,12.242-14.621,16.814-4.506,5.144-7.284,9.158-9.8,15.286-1.741,4.24-2.937,8.626-5.091,12.375a24.671,24.671,0,0,1-1.808,2.127c-1.821-.984-3.536-2.087-4.054-4.174-1.994-8.028.97-18.688,4.466-25.706,5.6-11.218,11.79-17.04,23.234-21.161Z" transform="translate(42.949 -75.577)" fill="#fdfdf1"/>
      <path id="Caminho_692" data-name="Caminho 692" d="M247.72,153.731a11.769,11.769,0,0,1,2.738.173c2.778.718,3.881,4.506,1.236,6.061-1.289.2-3.017.585-4.214-.146-2.246-1.369-1.183-4.386.253-6.074Z" transform="translate(52.761 -75.719)" fill="#fdfdf1"/>
      <path id="Caminho_693" data-name="Caminho 693" d="M288.525,248.837a9.974,9.974,0,0,1,3.243,3.416c1.755,4.439-.811,6.26-3.841,9.158,6.287,3.6,5.6,6.779.585,11.2a21.732,21.732,0,0,1,3.469,3.336l.213.412a105.458,105.458,0,0,1,11.418-1.449l18.29-1.834,25.653-2.379c8.095-.811,16.535-1.9,24.643-1.954.518,1.6.891,5.317,1.435,6.207l.027,1.436c-5.4,4-9.5,7.975-14.488,11.816-6.513,5.011-12.667,8.6-18.808,14.568l-1.342.665c-5.676,5.8-11.524,9.743-17.864,14.621-1.715,1.316-4.134,4.519-5.835,6.114a40.131,40.131,0,0,1-4.931,3.748,8.569,8.569,0,0,0-.93.758,4.132,4.132,0,0,0-1.821-1.117,23.214,23.214,0,0,1-4.346.824,37.082,37.082,0,0,0-4.214-.146c-10.939-.093-22.171-.16-32.5-4.267-1.342-.532-4.639-2.273-5.3-3.482.6-.638,1.01-1.01,1.648-1.582-1.117-.572-2.393-1.09-3.562-1.582-3.682-2.233-3.057-5.729-4.187-9.743l-.12-.4c-.253-.332-2.047-3.576-2.7-4.559-6.686-2.034-13.89-5.49-14.887-13.252l1-2.193L237.91,286a17.431,17.431,0,0,1,2.552-2.3c-2.5-2.685-4.719-4.838-1.741-8.268a13.235,13.235,0,0,1,2.113-2.3l.2-.572c-.292-.385-1.941-1.927-2.393-2.353l-.266-.027c-1.821-4.2-.346-5.4,2.991-7.909l.412-.532c-.346-.213-.678-.439-1.01-.678-2.951-2.167-4.891-5.157-2.406-8.454a8.911,8.911,0,0,1,3.469-2.539c2.991,4,9.158,5.051,13.837,5.729.665.093,1.329.186,1.994.266,1.037.7.492.572,1.608.572a5.062,5.062,0,0,0,.811-.638c2.06-.027,4.466.226,6.247.159,1.316.146,2.632.266,3.961.359a10.736,10.736,0,0,1,.784-.758c5.131-.718,13.837-1.781,17.465-5.995v-.957Z" transform="translate(49.811 -44.42)" fill="#dac9b0"/>
      <path id="Caminho_694" data-name="Caminho 694" d="M288.525,248.833a9.974,9.974,0,0,1,3.243,3.416c1.755,4.439-.811,6.26-3.841,9.158,6.287,3.6,5.6,6.779.585,11.2a21.732,21.732,0,0,1,3.469,3.336l.213.412c.638,3.748-1.555,5.21-4.24,7.5,1.861,1.728,4.36,3.748,4.253,6.486-.279,6.726-9.477,10.328-14.515,12.029-.917,2.246-2.353,5.543-3.017,7.8-.651,6.832-5.476,8.653-11.75,8.746-1.116-.572-2.393-1.09-3.562-1.582-3.682-2.233-3.057-5.729-4.187-9.743l-.12-.4c-.253-.332-2.047-3.576-2.7-4.559-6.686-2.034-13.89-5.49-14.887-13.252l1-2.193-.558-1.183a17.431,17.431,0,0,1,2.552-2.3c-2.5-2.685-4.719-4.838-1.741-8.268a13.234,13.234,0,0,1,2.113-2.3l.2-.572c-.292-.385-1.941-1.927-2.393-2.353l-.266-.027c-1.821-4.2-.346-5.4,2.991-7.909l.412-.532c-.346-.213-.678-.439-1.01-.678-2.951-2.167-4.891-5.157-2.406-8.454a8.91,8.91,0,0,1,3.469-2.539c2.991,4,9.158,5.051,13.837,5.729.665.093,1.329.186,1.994.266,1.037.7.492.572,1.608.572a5.063,5.063,0,0,0,.811-.638c2.06-.027,4.466.226,6.247.159,1.316.146,2.632.266,3.961.359a10.735,10.735,0,0,1,.784-.758c5.131-.718,13.837-1.781,17.466-5.995v-.957Z" transform="translate(49.811 -44.417)" fill="url(#linear-gradient-6)"/>
      <path id="Caminho_695" data-name="Caminho 695" d="M288.525,248.833a9.974,9.974,0,0,1,3.243,3.416c1.755,4.439-.811,6.26-3.841,9.158,6.287,3.6,5.6,6.779.585,11.2a44.26,44.26,0,0,1-12.308,4.679c-3.217.279-7.749.478-10.78.851-8.467-.292-17.08-.558-24.391-5.569-.292-.385-1.941-1.927-2.393-2.353l-.266-.027c-1.821-4.2-.346-5.4,2.991-7.909l.412-.532c-.346-.213-.678-.439-1.01-.678-2.951-2.167-4.891-5.157-2.406-8.454a8.91,8.91,0,0,1,3.469-2.539c2.991,4,9.158,5.051,13.837,5.729.665.093,1.329.186,1.994.266,1.037.7.492.572,1.608.572a5.06,5.06,0,0,0,.811-.638c2.06-.027,4.466.226,6.247.159,1.316.146,2.632.266,3.961.359a10.735,10.735,0,0,1,.784-.758c5.131-.718,13.837-1.781,17.466-5.995v-.957Z" transform="translate(49.811 -44.417)" fill="url(#linear-gradient-7)"/>
      <path id="Caminho_696" data-name="Caminho 696" d="M288.529,248.833a9.974,9.974,0,0,1,3.243,3.416c1.755,4.439-.811,6.26-3.841,9.158-2.286,1.755-7.669,3.27-10.54,4.094-4.28,1.117-7.271.572-10.421,1.249a71.522,71.522,0,0,1-19.074-2.14c-2.06-.917-4.107-1.861-6.128-2.858-.346-.213-.678-.439-1.01-.678-2.951-2.167-4.891-5.157-2.406-8.454a8.91,8.91,0,0,1,3.469-2.539c2.991,4,9.158,5.051,13.837,5.729.665.093,1.329.186,1.994.266,1.037.7.492.572,1.608.572a5.063,5.063,0,0,0,.811-.638c2.06-.027,4.466.226,6.247.159,1.316.146,2.632.266,3.961.359a10.735,10.735,0,0,1,.784-.758c5.131-.718,13.837-1.781,17.466-5.995v-.957Z" transform="translate(49.808 -44.417)" fill="url(#linear-gradient-8)"/>
      <path id="Caminho_697" data-name="Caminho 697" d="M241.556,249.773c2.991,4,9.158,5.051,13.837,5.729.665.093,1.329.186,1.994.266,1.037.7.492.572,1.608.572a5.062,5.062,0,0,0,.811-.638c2.06-.027,4.466.226,6.247.159,1.316.146,2.632.266,3.961.359v.332c-1.422.146-2.751.292-4.174.518l-3.217.066a4.234,4.234,0,0,1-.292,1.914,58.847,58.847,0,0,1-6.314,0c-4.466-.6-13.265-1.263-14.794-6.287-1.236-.346-.691-.425-1.728.053l-.877,1.276a3.544,3.544,0,0,0-.518-1.794,8.91,8.91,0,0,1,3.469-2.539Z" transform="translate(50.1 -44.107)" fill="#fefefe"/>
      <path id="Caminho_698" data-name="Caminho 698" d="M241.556,249.777c2.991,4,9.158,5.051,13.837,5.729.665.093,1.329.186,1.994.266,1.037.7.492.572,1.608.572a5.062,5.062,0,0,0,.811-.638c2.06-.027,4.466.226,6.247.159,1.316.146,2.632.266,3.961.359v.332c-1.422.146-2.751.292-4.174.518l-3.217.066a51.264,51.264,0,0,1-13.106-1.808c-2.632-.758-5.662-2.313-8.294-2.579-1.236-.346-.691-.425-1.728.053l-.877,1.276a3.544,3.544,0,0,0-.518-1.794,8.91,8.91,0,0,1,3.469-2.539Z" transform="translate(50.1 -44.111)" fill="#4b382f"/>
      <path id="Caminho_699" data-name="Caminho 699" d="M280.34,248.83a9.974,9.974,0,0,1,3.243,3.416,5.761,5.761,0,0,1-3.3,1.223,14.74,14.74,0,0,1-6.593,3.177c-2.273.625-4.639,1.342-6.938,1.741-1.7-1.449-2.446-1.356-4.665-1.515v-.332c.133-.159.625-.6.8-.758,5.131-.718,13.837-1.781,17.465-5.995v-.957Z" transform="translate(57.997 -44.413)" fill="#4b382f"/>
      <path id="Caminho_700" data-name="Caminho 700" d="M262.1,254.855c4.852.518,9.676-1.582,12.973-.678h-.6l.173-.013a2.619,2.619,0,0,0-.957.811c-2.273.625-4.639,1.342-6.938,1.741-1.7-1.449-2.446-1.356-4.665-1.515v-.332Z" transform="translate(57.997 -42.729)" fill="#4b463d"/>
      <path id="Caminho_701" data-name="Caminho 701" d="M275.833,248.83a9.974,9.974,0,0,1,3.243,3.416,5.761,5.761,0,0,1-3.3,1.223,9.81,9.81,0,0,0,.053-3.682Z" transform="translate(62.504 -44.413)" fill="#332524"/>
      <path id="Caminho_702" data-name="Caminho 702" d="M238.48,253.429l.877-1.276c1.037-.479.478-.4,1.728-.053,1.529,5.024,10.341,5.676,14.794,6.287-3.895.97-7.988-2.193-9.863.133,2.167.957,4.054.585,6.686,1.422l.12.292a48.559,48.559,0,0,1-6.579-1.156c-3.961-1.063-5.729-2.22-7.762-5.649Z" transform="translate(50.225 -43.43)" fill="#4b463d"/>
      <path id="Caminho_703" data-name="Caminho 703" d="M259.839,255.27a19.675,19.675,0,0,1,2.645.12c.611.851.425.572.478,1.781-2.113.346-5.742-.465-6.633.08a4.009,4.009,0,0,0,.292-1.914Z" transform="translate(56.101 -42.294)" fill="#7e7d75"/>
      <path id="Caminho_704" data-name="Caminho 704" d="M263.12,254.88c2.22.159,2.964.066,4.665,1.515-1.7.266-4.067.558-5.7.9-.053-1.21.133-.944-.478-1.781a19.577,19.577,0,0,0-2.645-.12c1.409-.226,2.738-.359,4.16-.518Z" transform="translate(56.967 -42.422)" fill="#6b605a"/>
      <path id="Caminho_705" data-name="Caminho 705" d="M240.792,258.553q3.031,1.5,6.128,2.858a71.46,71.46,0,0,0,19.074,2.14c3.15-.665,6.141-.133,10.421-1.249,1.289.505,1.276.266,1.98,1.2-.186,2.366-3.961,3.748-6.048,3.682-4.812,1.09-13.823,1.5-18.422.505l-3.855-.625c-4.984-1.143-7.085-1-9.77-5.237l-.04-.332c.944-1.289.877-1.143.146-2.419l.412-.532Z" transform="translate(50.811 -41.217)" fill="#6b605a"/>
      <path id="Caminho_706" data-name="Caminho 706" d="M240.8,258.553q3.031,1.5,6.128,2.858c.452,1.263,1.622,1.9,2.778,2.9,2.5.505,11.949,1.249,12.8,2.419l-.08.572c-1.369.638-6.7.306-8.52.385l-3.855-.625c-4.984-1.143-7.085-1-9.77-5.237l-.04-.332c.944-1.289.877-1.143.146-2.419l.412-.532Z" transform="translate(50.804 -41.217)" fill="#fefefe"/>
      <path id="Caminho_707" data-name="Caminho 707" d="M240.8,258.55q3.031,1.5,6.128,2.858c.452,1.263,1.622,1.9,2.778,2.9-3.283-.452-7.417-3-9.424-2.472l-.04-.332c.944-1.289.877-1.143.146-2.419Z" transform="translate(50.804 -41.214)" fill="url(#linear-gradient-9)"/>
      <path id="Caminho_708" data-name="Caminho 708" d="M270.027,261.373c1.289.505,1.276.266,1.98,1.2-.186,2.366-3.961,3.748-6.048,3.682l.492-.478c.6-.093.292.027.851-.425-1.2-.066-3.642-.12-4.665-.678-.385-.213-.505-.984-.665-1.5-.744-.7-1-.465-2.353-.558,3.15-.665,6.141-.133,10.421-1.249Z" transform="translate(57.184 -40.289)" fill="url(#linear-gradient-10)"/>
      <path id="Caminho_709" data-name="Caminho 709" d="M238.3,266.859c-1.821-4.2-.346-5.4,2.991-7.909.731,1.276.8,1.13-.146,2.419l.04.332c2.685,4.227,4.785,4.094,9.769,5.237a14.854,14.854,0,0,1-3.443.2l-.2.425.837.292-.027.173c-3.1.266-6.872-2.738-8.839-2.951a2.79,2.79,0,0,0-.718,1.808l-.266-.027Z" transform="translate(49.905 -41.082)" fill="url(#linear-gradient-11)"/>
      <path id="Caminho_710" data-name="Caminho 710" d="M276.193,271.409A44.42,44.42,0,0,0,288.5,266.73a21.732,21.732,0,0,1,3.469,3.336l.213.412c.638,3.748-1.555,5.21-4.24,7.5-.93.6-7.988,4.12-7.762,3.868-3.323,1.09-9.743,1.263-11.046,1.794l.625.638-.173,1.635c.691.625.385.425,1.369.665-1.821.093-5.809,1.063-7.071.093-1.622-1.156-8.613-1.05-11.032-1.808-1.17-.372-2.858-.718-4.16-1.143-2.725-.385-4.054-2.1-6.354-2.658.066-.558.066-.385.4-.9-.505-.811-.465-.651-1.276-1.236l-1-1.05c-2.5-2.685-4.719-4.838-1.741-8.268a13.234,13.234,0,0,1,2.113-2.3l.2-.572c7.311,5.011,15.924,5.277,24.391,5.569,3.044-.372,7.576-.572,10.78-.851Z" transform="translate(49.835 -38.521)" fill="url(#linear-gradient-12)"/>
      <path id="Caminho_711" data-name="Caminho 711" d="M238.7,268.86c1.768,4.679-3.031,4.519,6.407,7.364,9.663,2.911,20.137,3.708,29.947.957,3.629-1.037,12.547-4.386,15.206-6.579.319-.784.239-.891.784-1.382l.917.16.213.412c.638,3.748-1.555,5.21-4.24,7.5-.93.6-7.988,4.12-7.762,3.868-3.323,1.09-9.743,1.263-11.046,1.794l.625.638-.173,1.635c.691.625.385.425,1.369.665-1.821.093-5.809,1.063-7.071.093-1.622-1.156-8.613-1.05-11.032-1.808-1.17-.372-2.858-.718-4.16-1.143-2.725-.385-4.054-2.1-6.353-2.658.066-.558.066-.385.4-.9-.505-.811-.465-.651-1.276-1.236l-1-1.05c-2.5-2.685-4.719-4.838-1.741-8.268Z" transform="translate(49.832 -37.82)" fill="url(#linear-gradient-13)"/>
      <path id="Caminho_712" data-name="Caminho 712" d="M251.336,279a74.227,74.227,0,0,0,14.967.572l.625.638-.173,1.635c.691.625.385.425,1.369.665-1.821.093-5.809,1.063-7.071.093-1.622-1.156-8.613-1.05-11.032-1.808-1.17-.372-2.858-.718-4.16-1.143,2.672.146,3.017-.558,5.49-.651Z" transform="translate(52.654 -34.482)" fill="#6b605a"/>
      <path id="Caminho_713" data-name="Caminho 713" d="M241.07,277.714c.066-.558.066-.385.4-.9,3.2.9,8.387,2.353,11.444,2.911-2.472.093-2.818.8-5.49.651C244.7,279.987,243.369,278.272,241.07,277.714Z" transform="translate(51.078 -35.203)" fill="#5b543b"/>
      <path id="Caminho_714" data-name="Caminho 714" d="M240.149,266.7c7.311,5.011,15.924,5.277,24.391,5.569a25.729,25.729,0,0,0,4.293-.013c.691.811.505,1.635.8,2.432.093.266.864.439,1.117,1.329a38.2,38.2,0,0,1-15.259.7c-3.589-.478-13.558-1.4-14.515-5.29a7.726,7.726,0,0,0-1.023-4.147l.2-.572Z" transform="translate(50.709 -38.531)" fill="#6b605a"/>
      <path id="Caminho_715" data-name="Caminho 715" d="M240.71,270.383c.465-.4.691-.678,1.409-.465,5.357,1.675,10.421,3.429,16.136,3.4,1.3,0,3.057-.173,3.828.944-.173,2.087-5.024,1.342-6.859,1.4-3.589-.478-13.558-1.4-14.515-5.29Z" transform="translate(50.959 -37.496)" fill="#fefefe"/>
      <path id="Caminho_716" data-name="Caminho 716" d="M258.44,271.105c3.044-.372,7.576-.572,10.78-.851,1.077,0,2.087-.16,2.924.439l.053.532c-1.236,1.462-5.622,3.416-7.55,3.615-.253-.877-1.023-1.05-1.117-1.329-.279-.8-.106-1.622-.8-2.432a25.726,25.726,0,0,1-4.293.013Z" transform="translate(56.796 -37.367)" fill="#4b463d"/>
      <path id="Caminho_717" data-name="Caminho 717" d="M241.183,277.493c2.3.558,3.629,2.273,6.354,2.658,1.3.425,2.991.771,4.16,1.143,2.419.771,9.411.651,11.032,1.808-1.316,2.419-3.6,1.329-6.074,1.489-3.921-.186-13.292-.891-15.751-4.918-.425-.691.013-1.489.279-2.193Z" transform="translate(50.965 -34.982)" fill="#fefefe"/>
      <path id="Caminho_718" data-name="Caminho 718" d="M272.289,278.09c-.066,2.273-2.977,3.895-4.519,5.317l-4.227.572-.492-1.156c-.984-.253-.678-.04-1.369-.665l.173-1.635-.625-.638c1.3-.518,7.723-.7,11.046-1.794Z" transform="translate(57.714 -34.782)" fill="url(#linear-gradient-14)"/>
      <path id="Caminho_719" data-name="Caminho 719" d="M250.653,292.753c1.143.9,3.3,2.632,3.416,4.147a4.959,4.959,0,0,0,2.326,4.413,3.088,3.088,0,0,0-1.449,1.568c-3.682-2.233-3.057-5.729-4.187-9.743l-.12-.4Z" transform="translate(54.228 -29.959)" fill="#223127"/>
      <path id="Caminho_720" data-name="Caminho 720" d="M253.22,295.87c4.586,2.937,4.719,3.7,10.115,4.612-3.35,1.01-4.36,1.09-7.789-.2a4.959,4.959,0,0,1-2.326-4.413Z" transform="translate(55.077 -28.929)" fill="#7e7d75"/>
      <path id="Caminho_721" data-name="Caminho 721" d="M258.784,281.733c1.263.97,5.264,0,7.071-.093l.492,1.156c-3.31,1.01-10.354,1.117-13.637.425C255.2,283.076,257.482,284.152,258.784,281.733Z" transform="translate(54.909 -33.613)" fill="#7e7d75"/>
      <path id="Caminho_722" data-name="Caminho 722" d="M237.75,277.369a17.427,17.427,0,0,1,2.552-2.3l1,1.05a32.256,32.256,0,0,0-2.977,2.419l-.558-1.183Z" transform="translate(49.985 -35.776)" fill="#d6dec2"/>
      <path id="Caminho_723" data-name="Caminho 723" d="M331.226,289.651l.279-.053,1.568.439c-5.676,5.8-11.524,9.743-17.864,14.621-1.715,1.316-4.134,4.519-5.835,6.114a40.131,40.131,0,0,1-4.931,3.748,8.568,8.568,0,0,0-.93.758,4.132,4.132,0,0,0-1.821-1.117,23.214,23.214,0,0,1-4.346.824,37.083,37.083,0,0,0-4.214-.146c-10.939-.093-22.171-.159-32.5-4.267-1.342-.532-4.639-2.273-5.3-3.482.6-.638,1.01-1.01,1.648-1.582,6.274-.093,11.1-1.927,11.75-8.746l.159.492c1.249.465,8.135-1.648,9.969-1.941,16.734-2.685,35.37-6.407,52.383-5.649Z" transform="translate(55.772 -31.004)" fill="#7e8f55"/>
      <path id="Caminho_724" data-name="Caminho 724" d="M319.744,289.643l.279-.053,1.568.439c-5.676,5.8-11.524,9.743-17.864,14.621-1.715,1.316-4.134,4.519-5.835,6.114a40.131,40.131,0,0,1-4.931,3.748,8.565,8.565,0,0,0-.93.758,4.132,4.132,0,0,0-1.821-1.117c6.593-3.974,7.709-6.114,13.146-11.032,5.011-4.546,11.644-8.268,16.4-13.478Z" transform="translate(67.254 -30.996)" fill="#f4f1e3"/>
      <path id="Caminho_725" data-name="Caminho 725" d="M343.523,271.444a24.491,24.491,0,0,1,5.277-2.964l.027,1.436c-5.4,4-9.5,7.975-14.488,11.816-6.513,5.011-12.667,8.6-18.808,14.568l-1.342.665-1.568-.439a92.907,92.907,0,0,1,10.873-9.318c4.346-3.11,7.909-5.2,11.976-8.812,2.738-2.525,5.171-4.6,8.055-6.952Z" transform="translate(74.631 -37.945)" fill="#fdfdf1"/>
      <path id="Caminho_726" data-name="Caminho 726" d="M330,277.665l-.425.12-.292-.253c1.462-2.167,6.194-6.566,8.773-6.832-2.884,2.353-5.3,4.426-8.055,6.952Z" transform="translate(80.115 -37.214)" fill="#dac9b0"/>
      <path id="Caminho_727" data-name="Caminho 727" d="M189.681,127.732c1.077-1.9,2.605-3.895,4.8-4.546,1.675-.505,3.017.093,4.466.93,6.353,3.669,24.856,21.825,26.517,28.71a29.883,29.883,0,0,1,.532,6.26l-2.964-.691a9.506,9.506,0,0,1-4.413-1.7c-4.945-2.02-16.15-11.75-20.536-15.711-3.124-2.765-10.487-8.626-8.4-13.239Z" transform="translate(34.04 -85.834)" fill="#bc5335"/>
      <path id="Caminho_728" data-name="Caminho 728" d="M198.081,139.809c-3.124-2.765-10.487-8.626-8.4-13.239a2.72,2.72,0,0,0,1.475,1.2c2.632,1.117,8.945,8.161,11.71,10.54,3.815,3.27,7.829,7.191,11.71,10.421a7.418,7.418,0,0,0-1.794,1.2c.984.917,5.37,4.878,5.835,5.6C213.673,153.5,202.468,143.77,198.081,139.809Z" transform="translate(34.04 -84.659)" fill="#f2ede6"/>
      <path id="Caminho_729" data-name="Caminho 729" d="M198.081,139.809c-3.124-2.765-10.487-8.626-8.4-13.239a2.72,2.72,0,0,0,1.475,1.2c-1.2,3.27,6.314,9.264,8.493,11.391,3.642,3.35,8.985,8.361,13.146,10.766.984.917,5.37,4.878,5.835,5.6-4.945-2.02-16.15-11.75-20.536-15.711Z" transform="translate(34.04 -84.659)" fill="#d6c497"/>
      <path id="Caminho_730" data-name="Caminho 730" d="M208.764,143.23c2.472,1.927,7.377,5.636,8.454,8.493a9.506,9.506,0,0,1-4.413-1.7c-.465-.718-4.852-4.679-5.835-5.6A6.935,6.935,0,0,1,208.764,143.23Z" transform="translate(39.852 -79.175)" fill="#c56e4f"/>
      <path id="Caminho_731" data-name="Caminho 731" d="M310.882,122.428c3.017-3.31,5.516-6.221,10.288-4.227,4.984,2.951,5.091,7.284,2.3,11.909-1.236,2.06-6.034,8-7.9,9.171-3.708,4.16-10.447,11.085-15.219,13.611-1.542,1.316-4.772,2.911-6.34.877a16.386,16.386,0,0,1-.545-2.1C293.629,144.24,306.35,128.091,310.882,122.428Z" transform="translate(68.327 -87.629)" fill="#bc5335"/>
      <path id="Caminho_732" data-name="Caminho 732" d="M310.879,121.263c1.529,1.117,1.449.891,3.23-.173l.7.08c1.063,2.074-4.732,9.318-5.476,12.069-6.234,6.872-9.942,12.082-15.312,19.366a16.386,16.386,0,0,1-.545-2.1c.159-7.43,12.88-23.58,17.412-29.242Z" transform="translate(68.33 -86.463)" fill="url(#linear-gradient-15)"/>
      <path id="Caminho_733" data-name="Caminho 733" d="M306.952,122.428c3.017-3.31,5.516-6.221,10.288-4.227a31.916,31.916,0,0,1-11.83,16.216c.744-2.751,6.54-10,5.476-12.069l-.7-.08c-1.768,1.05-1.688,1.289-3.23.173Z" transform="translate(72.257 -87.629)" fill="#c56e4f"/>
      <path id="Caminho_734" data-name="Caminho 734" d="M298.65,147.508c.319-2.592,11.577-10.673,13.77-13.079a2.69,2.69,0,0,1,1.449-.518c-3.708,4.16-10.447,11.085-15.219,13.611Z" transform="translate(70.032 -82.243)" fill="#bc5335"/>
      <path id="Caminho_735" data-name="Caminho 735" d="M248.274,102.97c1.715-1.635,2.632-1.688,4.958-2.02,3.19.359,6.978,2.818,7.377,6.074.478,3.748,1.4,17.7.372,20.642-.226,5.011-.944,12-3.323,16.482-.731,1.1-.425.957-1.462,1.489a4.361,4.361,0,0,1-2.127-.625c-1.635-1.555-2.459-4.2-3.3-6.353-2.193-7.3-5.835-28.91-2.5-35.689Z" transform="translate(53.005 -93.093)" fill="#bc5335"/>
      <path id="Caminho_736" data-name="Caminho 736" d="M248.274,102.473a7.123,7.123,0,0,0,1.037,1.661c4.732,6.38,2.539,7.231,3.336,13.824.027,4.546.133,9.092.346,13.624-.146,1.568-.133,5.224-.678,6.167l-.4.12a12.614,12.614,0,0,1-.439-2.22l-.625-.824-.08,3.323c-2.193-7.3-5.835-28.91-2.5-35.689Z" transform="translate(53.005 -92.596)" fill="#f2ede6"/>
      <path id="Caminho_737" data-name="Caminho 737" d="M248.27,102.47a7.123,7.123,0,0,0,1.037,1.661c-1.98,4.293-.957,16.628-.106,21.413.518,2.871,1.4,6.367,1.661,9.291l-.08,3.323c-2.193-7.3-5.835-28.91-2.5-35.689Z" transform="translate(53.009 -92.593)" fill="#d6c497"/>
      <path id="Caminho_738" data-name="Caminho 738" d="M247.94,102.97c1.715-1.635,2.632-1.688,4.958-2.02-.027,4.652-.306,12.787-.572,17.505-.8-6.593,1.4-7.443-3.336-13.824a6.858,6.858,0,0,1-1.037-1.661Z" transform="translate(53.339 -93.093)" fill="#c56e4f"/>
      <path id="Caminho_739" data-name="Caminho 739" d="M252.05,124.37c.306,2.605,1.821,10.66,1.17,12.587a2.432,2.432,0,0,0-.093.332c-1.635-1.555-2.459-4.2-3.3-6.353l.08-3.323.625.824a13.953,13.953,0,0,0,.439,2.22l.4-.12c.545-.944.532-4.612.678-6.167Z" transform="translate(53.961 -85.384)" fill="#c56e4f"/>
      <path id="Caminho_740" data-name="Caminho 740" d="M255,138.671c-.213-2.512,2.432-12.215,2.751-15.365.159-1.568-.04-4.852.239-5.755l.266.16c0,1.236-.053,2.791.027,4l.04.465c-.226,5.011-.944,12-3.323,16.482Z" transform="translate(55.66 -87.629)" fill="#bc5335"/>
      <path id="Caminho_741" data-name="Caminho 741" d="M308.44,183.183c2.7-4.931,10.248-6.845,15.286-8.48,5.875-1.808,11.6-3.522,17.784-3.881,7.217-.412,9.118,1.967,9.225,8.852-1.861,7.271-31.5,8.972-38,6.739-2.26-.771-3.27-1.05-4.293-3.243Z" transform="translate(73.255 -70.107)" fill="#c56e4f"/>
      <path id="Caminho_742" data-name="Caminho 742" d="M308.44,181.044c9.849,2.525,39.929-5.3,42.295-3.5-1.861,7.271-31.5,8.972-38,6.739C310.474,183.516,309.464,183.237,308.44,181.044Z" transform="translate(73.255 -67.968)" fill="#bc5335"/>
      <path id="Caminho_743" data-name="Caminho 743" d="M172.123,184.952c-.864-3.868.412-8.174,4.878-8.52,9.025-.718,29.4,1.436,35.356,8.68a1.935,1.935,0,0,1,.239,1.422c-3.589,6.287-31.276,5.064-37.882,2.3-1.608-.678-2.113-2.393-2.605-3.868Z" transform="translate(28.298 -68.288)" fill="#c56e4f"/>
      <path id="Caminho_744" data-name="Caminho 744" d="M172.06,182.81c5.184.744,36.366,2.884,39.224,1.09a5.229,5.229,0,0,0,1.023-.93,1.935,1.935,0,0,1,.239,1.422c-3.589,6.287-31.276,5.064-37.882,2.3-1.608-.678-2.113-2.393-2.605-3.868Z" transform="translate(28.361 -66.146)" fill="#bc5335"/>
    </g>
  </g>
</svg>
