<?xml version="1.0" encoding="UTF-8"?>
<svg id="Camada_1" xmlns="http://www.w3.org/2000/svg" version="1.1" xmlns:xlink="http://www.w3.org/1999/xlink" viewBox="0 0 436 363.6">
  <!-- Generator: Adobe Illustrator 30.3.0, SVG Export Plug-In . SVG Version: 2.1.3 Build 182)  -->
  <defs>
    <style>
      .st0 {
        fill: #4b8186;
      }

      .st1 {
        fill: #d5ad90;
      }

      .st2 {
        fill: #212342;
      }

      .st3 {
        fill: #72adb0;
      }

      .st4 {
        fill: #fff;
      }

      .st5 {
        fill: none;
      }

      .st6 {
        fill: #ba5336;
      }

      .st7 {
        fill: #f0ebe4;
      }

      .st8 {
        fill: #905539;
      }

      .st9 {
        fill: #f2ebe2;
      }

      .st10 {
        fill: #393849;
      }

      .st11 {
        fill: #575252;
      }

      .st12 {
        fill: #cecac5;
      }

      .st13 {
        fill: #80889b;
      }

      .st14 {
        fill: #8c9980;
      }

      .st15 {
        fill: #bf9866;
      }

      .st16 {
        fill: #dac8ae;
        stroke: #fff;
        stroke-miterlimit: 10;
        stroke-width: 17.6px;
      }

      .st17 {
        clip-path: url(#clippath);
      }

      .st18 {
        fill: #2d5893;
      }
    </style>
    <clipPath id="clippath">
      <path class="st5" d="M286.2,151.8c-4.5-7.7-11.8-13.4-19.8-17.5-6.6-28.1-26.3-101.9-52-108.8-25.6-6.9-34,13.7-36,20.3-20.1,4.3-28.7,17.3-18.9,37.5,0,0,7.4,15.3,12.9,26.6,5.5,11.3,10.7,14.5,20,10,2.4-1.2,5.1-3,7.6-5.4l1.3,4-4.3,1.1v10.4s-37.9,11.8-53.3,27.4c-15.4,15.5-27.9,126.1-27.9,126.1h201.7s-19.3-111.5-31.2-131.6ZM222.3,113.1l-4.9,1.3-8.7-14.2c.7-2.8,1-5.9.5-9,1.1-.1,2.2-.4,3.2-.9,5-2.4,7-8.4,4.6-13.3,0-10-5-23.7-16.5-29.5,17.9-16.3,30.7,52.9,34.6,77.1-5.8-1-9.7-1.2-9.7-1.2l-3.1-10.2Z"/>
    </clipPath>
  </defs>
  <circle class="st16" cx="215.6" cy="180.9" r="162.4"/>
  <g>
    <path class="st4" d="M177.6,353.1h247.4v-79.3h-28.7v-49.3c0-4-1.5-7.7-4.3-10.5-2.8-2.8-6.5-4.3-10.5-4.3s-7,1.3-9.7,3.6h-15.8l1.4-14.1c1.8-2.3,2.1-5.3.6-8.1-1.5-2.7-2-4-2-4l-2.8-7.2-4.8,6.1c-2.5,3.2-4.5,8-2.8,12l-.5,3.6s-7,10.5-6.8,11.7h-30.2c-.7-3.1-1.3-6.2-2-9.1-.4-1.9-.9-3.8-1.3-5.7-.6-2.8-1.3-5.6-2-8.3,0-.3-.1-.5-.2-.8.6-.9,1.1-1.9,1.5-2.9l1.4-9.4c-.4-9.2-5.4-17.7-9.6-23.2,4.9-3.5,7.7-8.6,7.9-14.8.2-9.7-4.4-19.2-11.9-24.8-7.3-5.4-17.2-7.8-28.1-6.9l-1.2-4.3c-.2-.8-.5-1.6-.7-2.4l-1.8-5.8c-.2-.6-.4-1.3-.6-1.9l-.2-.6c-.3-.8-.5-1.7-.8-2.5v-.2c-3.8-11.1-14.3-38.6-15.7-39,0,0,0,0,0,0l-.4-.7c-.3-.6-.7-1.3-1-1.9v-.3c-.5-.7-.9-1.4-1.3-2.1l-.3-.6c-.3-.5-.6-1-.9-1.5l-.4-.7c-.3-.5-.6-.9-.9-1.4l-.4-.6c-.3-.5-.7-1-1-1.5l-.3-.4s0,0,0,0c.8,0,1.5,0,2.3,0-.2-.3-.4-.6-.6-1-2.2-3.6-4.9-5.2-7.8-8-.2,0-.5,0-.7.1,0,0-.1-.1-.2-.2l-.3-.3c-.4-.4-.7-.8-1.1-1.1-.1-.1-.3-.3-.5-.4-.3-.3-.7-.6-1-.9-.2-.1-.3-.3-.5-.4-.4-.3-.7-.6-1.1-.9h-.1c-.1-.2-.2-.3-.3-.3-.5-.4-1-.7-1.5-1.1,0,0-.2-.1-.2-.1-.4-.3-.9-.6-1.4-.8-.1,0-.3-.1-.4-.2h-.1c-.4-.3-.7-.5-1.1-.6-.2,0-.4-.2-.6-.3-.4-.2-.8-.3-1.2-.5h-.1c-.1,0-.3-.2-.4-.2-.6-.2-1.2-.4-1.7-.5-.8-.2-1.6-.4-2.3-.6h-.4c-.4-.2-.8-.3-1.2-.3h.2c0,0-.4,0-.4,0-.2,0-.5,0-.7-.1h-.4c-.7-.2-1.5-.3-2.1-.3h-.1c-.7,0-1.4-.1-2-.1h-.3c-.7,0-1.3,0-2,0h-.4c-.6,0-1.3,0-2,.1h-.1c-.6,0-1.2.2-1.8.3h-.2c-.6.1-1.2.3-1.8.4h-.3c-.6.2-1.1.4-1.7.5h-.2c-.5.2-1,.4-1.5.6h-.2c-.5.3-1,.5-1.5.7l-.3.2c-.5.2-.9.5-1.4.7-8.1,1.3-14,6.3-16.5,13.6-1.8-.1-3.7-.1-5.5.1-5.8.8-11.4,3.5-15.8,7.4-5.9-7.3-14.1-11.5-24.6-12.4-35.7-3.2-42.6,27.7-48.6,54.9-1.7,7.9-14.8,15.1-25.3,20.8-4.7,2.6-9.2,5-12.7,7.5-9.4,6.7-21.1,20.8-23.4,49.9l-1,12.7c0,.3,0,.5-.1.8l-.2,1.7c0,.4-.1.8-.2,1.3l-.2,1.8c0,.4-.1.9-.2,1.3l-.7,6.3-1.7,20-1.3,30.4c-.3,12.3,4.2,23.8,12.8,32.6,8.5,8.8,20,13.6,32.2,13.6h51.1s0,0,0,0h16.5c0,0-.1,0-.2,0h10.4s0,0-.1,0h10.4s0,0,0,0h14.7c.6-.3,1.2-.4,1.9-.4h11c3.7,0,5,3.7,3.9,6.3,0,.2,0,.4,0,.6M213.7,96.2c0,0,0-.2,0-.3,0-.4,0-.9,0-1.3,0,0,0-.1,0-.2.2,0,.3-.2.5-.2,1.3-.6,2.5-1.5,3.6-2.4.7-.6,1.3-1.3,1.8-2.1.3-.4.5-.8.8-1.2.9-1.5,1.5-3.1,1.7-4.8,0,.2.1.5.2.7h0c.3,1.3.6,2.5.9,3.6h0c.3,1.3.6,2.5.9,3.7h0c-2.1,1.8-4.6,3.1-7.2,3.9-1.1.3-2.2.6-3.3.7ZM229.7,119.3c-.4,0-.7,0-1-.1l-3.5-11.3-5.9,1.5-2.1-3.4c4.2.5,7.8,1.5,10.5,2.9l1.3,7.1c.2.9.3,1.8.5,2.7h0c0,0,4.3-.7,4.3-.7l-4.3.9v.4ZM267.5,120.7l-1-3.8c2.5,0,5.5,0,8.7.6-2.7.5-5.3,1.6-7.7,3.2ZM328.7,258.1c-1.9,5.3-1.2,11.1,1.6,15.7h-2.2l-7.4-22.5c2-3,3.2-6.5,3.3-10.1,1.2-.2,2.4-.4,3.6-.7,2.7,3,5,6.3,7,9.6-2.7,2.1-4.7,4.9-5.9,8.1ZM366.7,273.8h-.8l.8-2.2v2.2ZM366.7,254c-1.7.1-3.3.5-4.9,1.1-2.1-3.5-5.3-6.3-9.1-7.8l.8-8h13.2v14.7Z"/>
    <g>
      <g>
        <polygon class="st1" points="118.2 97.6 112.7 119.8 130.1 126.1 130.1 103 118.2 97.6"/>
        <polygon class="st6" points="116.8 103.3 114.9 110.8 130.1 113.1 130.1 110.7 116.8 103.3"/>
        <path class="st1" d="M153.6,66.2s-2,16.9-3.4,29.4c-1.5,12.5-5.4,17.2-15.6,16-10.3-1.2-27.8-10.7-25.6-29.4,2.2-18.7,2.7-22.8,2.7-22.8l31.1-14.6,10.9,21.4Z"/>
        <path class="st1" d="M117,81.5c-.6,5.5-5.6,9.4-11.1,8.8-5.5-.6-9.4-5.6-8.8-11.1.6-5.5,5.6-9.4,11.1-8.8,5.5.6,9.4,5.6,8.8,11.1Z"/>
        <path class="st2" d="M145.9,72.3c-.5-2.4-1.9-6.3-5-5.3-1.7,1.1-2.4,3.3-2.9,5.2-1.1,4.5-.7,12.8,3.2,15.9,0,0,.5.4.5.4.8.5.6,1.8-.3,2.1-2.1.4-4.2.6-6.3.8h0c2-.7,4-1.2,6-1.7.2,0,.2-.2,0-.3,0,0-.6-.4-.6-.4-4.9-3.9-3.9-11.5-2.9-16.9.5-2.1.8-4.7,2.8-6,2.6-1.1,4.7,1.2,5.2,3.6.2.9.3,1.7.3,2.6h-.1Z"/>
        <path class="st14" d="M104.9,123.3l3.9-10.2,31.7,6.5v10.4s47.2,11.8,66.5,27.4c19.2,15.5,34.8,126.1,34.8,126.1H57.9c-23.2,0-41.8-19.1-41.2-42.3.9-33.8,3.7-77.4,12.5-89.3,18.9-25.7,75.8-28.5,75.8-28.5Z"/>
        <path class="st2" d="M104.9,123.3c4.6.2,9,1.2,13.4,2.4,4.4.9,9,1.2,13.4,2.1,3,.6,5.9,1.3,8.8,2.2h0c-4.5-.2-9-.9-13.4-1.9-3-.6-5.8-1.5-8.8-2-3-.4-6-.7-8.9-1.4-1.5-.3-2.9-.7-4.4-1.2h0Z"/>
        <path class="st0" d="M114.9,283.4h-57.6c-22.9,0-41.2-18.9-40.7-41.7.9-33.9,3.7-77.9,12.5-89.9,12.6-17.2,42.3-24.1,60.6-26.8l25.2,158.4Z"/>
        <path class="st0" d="M241.7,283.4h-80.5l-13.3-151.4h0c14.1,4,44.5,13.6,59,25.3,19.2,15.5,34.8,126.1,34.8,126.1Z"/>
        <polygon class="st0" points="186.2 283.4 178.1 171.4 191.8 283.4 186.2 283.4"/>
        <path class="st8" d="M189.5,108.2c-12.2-1.3-32.6,1.9-31.3-16.9,1.6-24.9-2.6-52.4-30.7-54.9-29.8-2.7-36.8,19.2-43.9,51.4-3,13.8-28.3,22.8-39.8,30.9-9.5,6.8-19.5,20.2-21.5,46.7,1.2-3,2.4-5.7,3.5-8.1,1.1-2.3,2.3-4.2,3.3-5.7,18.9-25.7,75.8-28.5,75.8-28.5l3.9-10.2,5.3,1.1,2.7-10.9h0c-3.6-3.4-6.5-7.7-7.6-13.2h0c-1.7.4-3.4.3-5.2-.3-4.2-1.4-7.1-5.4-6.9-9.8.2-5.9,5.4-10.2,11.1-9.6.7,0,1.4.2,2.1.5h0s24.7-.6,32.5-15.2l10.4,14.7c-.7,5.8-1.9,16.6-2.9,25.3-1.5,12.5-5.4,17.2-15.6,16-1.4-.2-2.9-.5-4.5-.9v6.8l10.4,2.1v10.4s47.2,11.8,66.5,27.4c1.7,1.3,3.3,3.4,4.9,6,0,0,3.1-16,1.6-23.2-4.6-21.4-11.8-30.7-23.9-32Z"/>
        <path class="st8" d="M142.9,55.7c-1.2,5.1-4.2,9.8-8.3,13.1-4,3.6-8.9,6-14.4,5.5-3.5-.3-6.9-1.5-9.9-3.3h0c3.3,1.1,6.6,1.9,9.9,2.2,5,.3,10.3-1.1,14.1-4.6,3.6-3.7,6.1-8.2,8.4-12.8,0,0,.1,0,.1,0h0Z"/>
        <polygon class="st3" points="104.9 220.6 75.3 177.3 90.1 164.1 72 159.5 77.3 127.2 89.7 124.9 104.9 220.6"/>
        <polygon class="st3" points="155.7 220.6 170.1 176.8 162.9 165.5 173.4 165.5 161.2 136 148 132 155.7 220.6"/>
        <g>
          <polygon class="st10" points="206.9 97.3 218.8 116.8 204.1 128 197.2 106 206.9 97.3"/>
          <path class="st10" d="M159.4,83.3s7.4,15.3,12.9,26.6c5.5,11.3,10.7,14.5,20,10s22.7-19.2,14.5-36.2c-8.2-17-10-20.6-10-20.6l-34.2-3.6-3.3,23.8Z"/>
          <path class="st10" d="M199,85.6c2.4,5,8.4,7,13.3,4.6,5-2.4,7-8.4,4.6-13.3-2.4-5-8.4-7-13.3-4.6-5,2.4-7,8.4-4.6,13.3Z"/>
          <path class="st10" d="M225.4,123.3l-3.1-10.2-25.4,6.5v10.4s-37.9,11.8-53.3,27.4c-15.4,15.5-27.9,126.1-27.9,126.1h201.7s-19.3-111.5-31.2-131.6c-15.1-25.7-60.8-28.5-60.8-28.5Z"/>
          <path class="st10" d="M159.4,83.3c-10.6-21.9.4-35.3,24.2-38.4,23.8-3.1,33.3,18.1,33.4,32l-57.6,6.4Z"/>
          <path class="st10" d="M177.8,47.8s6.1-30.5,36.6-22.3c31.9,8.5,54.4,119.6,54.4,119.6l-32.5-12.5s-16.2-118.7-40-79.9l-18.5-4.9Z"/>
          <g class="st17">
            <g>
              <path class="st11" d="M192.6,27.5c-19.8,1.8-18.5,25.2-8.7,37.3,2.2,2.6,5.4,5.1,9,4.2,6.2-1.8,5.1-8.6,2.4-13-5.3-8.9-15.8-15.3-26.3-13.9-6.8,1-13.3,5.2-16.9,11.1-4.6,7.7-1.7,17.7,4.3,23.7,3.4,3.6,9.8,6.5,11.7-.1,1-3.4-1.6-6.5-4.3-8.3-5.7-3.8-13.2-5.4-19.9-4-3.3.7-6.6,2.7-7.8,5.9-1.2,3.2-1,6.9.3,10.1,1.9,4.8,6.1,8.8,11.2,10.1,2.5.6,5.5,0,6.6-2.4,1-2,1.2-7.3-1.7-7.8-3-.2-5.5,2.8-7.1,5-2.8,3.9-4.5,11,.4,14,4.7,2.5,10.3,2.1,15.4,1.5,5.8-.7,23.3-5.6,16.1-13.8-3.3-3.2-4.5,4.1-4.4,6.3,0,3.4,1,7,3.6,9.4,6.9,6,17.7-.3,23.1-5.7,2.7-2.7,8.4-9.6,4.2-12.9-3.9-2.6-5.3,1.9-4.9,5.1.4,3.4,2.1,6.6,4.7,8.8,4.1,3.3,9.8,3.2,14.7,1.7,6.7-1.9,12.5-6.7,15.2-13.1,1.1-2.9,2.2-6.9,0-9.5-.5-.6-2-1.3-2.6-.6-.5,1,0,2.3.4,3.3,1.8,3.9,5.1,7.1,9,8.7,4.7,2,10.5.7,14.3-2.6,2.6-2.3,3.5-5.8,3-9.1-.7-5.2-3.5-9.8-6.8-13.8-2.7-3.2-10.8-10.5-14.4-5.2-1.1,2.3,3.1,3.3,4.8,3.6,4.9.7,10.9-.1,13.9-4.3,2.9-4.4,1.3-10.3-1.3-14.5-7.2-10.4-23.4-9.2-33.5-4-4.4,2.3-9.3,6.3-9,11.8,0,.4,0,.9.3,1.2.8,1.1,2.3-.9,2.8-1.6,2-2.9,3-6.4,3-9.9-.1-12.7-15.2-13.6-24.8-12.5h0ZM192.6,27.4c41.1-4.4,19.4,33.2,18.4,22.9-.3-5.7,4.6-9.8,9.1-12.2,6.3-3.3,13.6-4.7,20.7-3.8,7.3.9,14,5.3,16,12.7,1.8,5.6.6,11.5-5.2,14.1-3.3,1.5-7.1,1.9-10.7,1.3-2.4-.4-7.2-1.9-5.6-5.2,4.3-6.3,12.9,1.1,16.2,5,3.5,4.1,6.3,9,7.1,14.4.5,3.6-.5,7.7-3.4,10.2-4.2,3.6-10.3,5-15.5,2.8-4.2-1.8-7.7-5.2-9.6-9.3-.5-1.3-1.2-2.9-.3-4.4,1.1-1.5,3.4-.7,4.4.5,2.5,3,1.4,7.4.1,10.7-2.8,6.7-8.9,11.7-15.9,13.7-21.1,6.2-24.7-17.9-17.1-18.2,3.2.2,5.2,3.1,4.4,6.1-.9,3.6-3.3,6.5-5.8,9-5.7,5.6-16.9,11.9-24.1,5.6-2.7-2.5-3.7-6.3-3.7-9.9,0-2.4.4-6.1,2.7-7.5,2.5-1.1,5.1,3.7,4.5,5.8-.9,3.6-4.8,5.5-7.9,6.9-6.6,2.6-13.9,3.8-20.9,2.8-2.6-.4-5.4-1.3-7-3.5-3.3-5.5.5-13,5.1-16.6,4.5-3.2,6.8-.2,6.5,4.5-.2,4.4-3.7,6.3-7.7,5.3-5.3-1.2-9.7-5.3-11.7-10.3-1.3-3.3-1.5-7.2-.3-10.6,1.3-3.5,4.8-5.7,8.3-6.4,7-1.4,14.6,0,20.6,4,3,2,5.8,5.5,4.7,9.3-2.2,7.4-9.3,4.8-13.4.6-6.3-6.3-9.2-16.9-4.4-24.9,3.7-6.2,10.4-10.4,17.5-11.4,7.2-.9,14.4,1.9,19.9,6.4,2.8,2.3,5.2,5,6.9,8.1,1.7,3,3.1,6.9,1.5,10.3-1.7,3.4-6.3,4.3-9.4,2.4-6-3.6-9.1-11.3-10.4-17.9-2.2-11.7,2.5-22,15.3-23.2h0Z"/>
              <path class="st11" d="M202,101.7c-11.4,1-20.2,7.4-22.7,18.8-2.7,12.7,1.4,27.3,9.5,37.4,3.3,3.9,8.2,7.7,13.6,6.3,2.5-.7,4.8-2.3,6-4.7,4.1-9.2-5.8-21.4-12.7-26.8-8.1-6.6-18.8-10.6-29.3-9.2-10.3,1.5-20.1,7.8-25.5,16.7-6.9,11.6-2.7,26.8,6.4,36,5.4,5.6,15.1,9.9,18.1-.3,2.5-10.7-12.6-17-21-18.7-9.5-1.9-23.2-1.5-27.6,8.9-3.6,10.1,1.4,21.7,10.2,27.4,6.4,4.5,17.4,6.1,18.2-4.3.4-6.7-2.5-10.8-8.9-6.3-4.2,3.1-7.3,7.8-8.8,12.8-1.4,4.9-.9,11.3,4,14,2.3,1.4,4.9,2.1,7.5,2.5,5.2.8,10.6.6,15.8-.2,8.8-1,35.3-8.5,24.2-21-2.3-2.6-4.5-.8-5.5,1.9-1,2.4-1.3,5.1-1.3,7.7,0,5.2,1.6,10.7,5.4,14.3,10.3,9.1,26.9-.5,35-8.5,4.2-4,12.8-14.8,6.3-19.7-4.1-2.8-7.1-.5-7.7,4-.5,3.9.4,7.8,2.2,11.3,5.5,10.4,16.9,11.7,27.3,8.6,10.1-2.8,19-10.1,23-19.8,1.4-3.6,2.4-7.5,1.6-11.3-.4-2.4-2.2-4.7-4.7-4.7-2.8,0-1.3,4.2-.6,5.8,2.7,5.9,7.7,10.8,13.7,13.2,7.2,3,15.9,1.1,21.8-4,4-3.4,5.4-8.9,4.6-14-1.5-10.3-8.1-19.7-15.9-26.4-3.7-2.9-9.1-6.6-13.9-4.7-1.4.7-3.2,2.2-3,4,.8,2.8,5.1,3.8,7.7,4.3,7.4,1.1,16.5-.2,21.2-6.6,4.5-6.5,2-15.8-2-22-7.6-11.4-23-13.3-35.6-11-9.9,1.9-21.3,6.4-26.7,15.3-1.3,2.3-2,4.9-1.9,7.5,0,.8.2,2.1,1.1,2.3.3,0,.6,0,.9-.2,1.1-.6,2-1.7,2.7-2.7,2.9-4.4,4.5-9.7,4.6-15-.3-19.1-22.9-20.4-37.3-18.8h0ZM202,101.6c14.6-1.6,37.2-.4,37.6,18.9,0,5.3-1.6,10.7-4.5,15.1-.9,1.2-2.2,3.1-3.9,3-1.2-.3-1.3-1.7-1.4-2.6-.4-5.5,3-10.4,7.1-13.8,13.4-10.9,38.1-15,52.6-4.3,6.5,4.9,10.2,13.1,10.1,21.2-.4,12.5-14.2,16.6-24.7,14.9-3-.6-7.8-1.7-8.6-5.2-.3-2.3,1.7-4.2,3.6-5.2,7.3-2.9,16.4,5.5,20.8,10.5,6.6,7.8,12.9,19.1,10,29.6-1.6,5.4-6.3,9.1-11.4,11-5.1,2-10.9,2.1-16,0-5.1-2-9.3-5.8-12.3-10.3-1.7-2.3-5.7-10.6-.3-10.9,3.1,0,5.3,2.8,5.8,5.6.8,4.1-.2,8.2-1.7,12-4.2,10-13.3,17.5-23.7,20.4-7.7,2.2-16.8,2.4-23.3-2.9-4.3-3.4-6.9-8.6-7.5-14-.6-4.6,1.2-11.9,7.3-9.6,18.1,7.6-22.7,46.6-40.3,30.4-11-10.1-3.6-37,4.4-21.3,4.4,11.3-18.8,17.4-26.8,18.4-7.8,1-21.3,1.8-26.5-5.1-3.7-5.9-1.4-13.5,2.2-18.9,2.3-3.2,5.2-6.5,9.1-7.6,5.2-1.3,6.2,4.6,5.9,8.4-.3,6.5-5.5,9.3-11.5,7.9-10.5-2.5-18.7-12.5-19.1-23.3-.2-5.5,1.4-11.1,6.1-14.3,10.3-7.1,28.4-3.9,38.3,2.8,6.1,4,9.9,10.9,5.2,17.5-2.6,3.8-7.6,3.7-11.4,1.8-4.9-2.4-8.6-6.6-11.5-11.1-5.7-9.1-7.2-21.3-1.5-30.8,5.6-9.2,15.6-15.6,26.2-17,10.7-1.4,21.6,2.8,29.8,9.5,7,5.6,16.9,18,12.6,27.4-1.8,3.6-6.3,5.7-10.2,4.9-4-.8-7.2-3.6-9.8-6.6-8.1-10.1-12.2-24.8-9.5-37.5,2.5-11.5,11.4-17.9,22.9-18.9h0Z"/>
              <path class="st11" d="M119.6,287.8c.8-1.9,1.9-3.7,3-5.4,2.8-4.2,11.1-13.2,16.4-8.9,3.1,2.9,3,10.6,1.4,14.3h.4c1-2.5,1.4-5.7.8-9.9-1.3-7.3-7-7.2-12.1-3.4-4.5,3.4-8,8.1-10.2,13.2h.4Z"/>
              <path class="st11" d="M168.2,310c-13.8,4.4-33.6,6.6-44.8.3-3.1-1.7-5-4.8-5.7-8.2-.3-1.4-.4-2.7-.4-4.1-.1,0-.2,0-.4,0,0,3.2.7,6.4,2.4,9.1,3.1,4.4,8.7,6,13.8,6.9,11.6,1.6,23.8.1,35.1-3.4v-.4Z"/>
              <path class="st11" d="M346,265.2c-1.6-11.3-7.9-21.9-15.8-30.2.8-.3,1.5-.6,2.2-.9,11.2-5.2,13.4-16.2,10-27.3-4.1-14.6-16.6-22.9-31.2-24.8-13.9-2-33,1.5-45.9,10.5-.8-24.9-30.2-26.5-49.3-24.4-15.1,1.4-26.6,9.7-30,24.8-.3,1.3-.5,2.6-.7,4-12.2-2.9-25.4-.6-35.8,6.5-12.1,7.7-20.6,20.5-19.3,35.3,0,.1,0,.3,0,.4,0,0-.2,0-.2,0-15.7-.2-29,6.4-28.1,23.9.2,10.6,6.1,19.4,13.2,24.8h.8c-7.8-5.8-13.2-15.1-13.4-24.9-.8-17.1,12.3-23.3,27.5-23.1.1,0,.2,0,.4,0,1.5,13.2,9.6,27,21.6,33.2,3.2,1.5,7,2.4,10.5,1.1,3.5-1.4,5.6-4.8,6.6-8.2,1-3.5.3-7.3-1.6-10.4-6.9-10.9-23.6-15.9-36.1-16.4,0-.2,0-.3,0-.5-1.3-14.4,7-26.9,18.8-34.5,10.9-7.4,23.4-9.1,35.3-6.4-1.7,15.5,3.6,32.6,13.3,44.5,4.3,5.2,10.9,10.3,18.1,8.5,7.8-2.1,10.8-9.1,9-16.6-4-16.5-20.1-30.4-35.8-35.8-1.4-.5-2.9-.9-4.4-1.3,2-14.8,11.1-26.9,30.5-28.7,15.6-1.4,38.9-1.7,46.9,14.6,1.4,3,2.1,6.3,2.1,9.8-4.2,2.9-7.7,6.4-10.2,10.5-1.8,3.1-2.7,6.6-2.4,10.1.1,1.2.3,3.1,1.8,3.4,2.2.1,3.9-2.4,5.1-4,3.8-5.8,5.9-12.7,6-19.7,17.8-12.1,47.4-15.9,64.8-2.9,8.3,6.2,12.9,16.7,12.7,27-.3,8.9-6.1,14.4-13.5,17-1.5-1.6-3.1-3.1-4.8-4.4-5.6-4.5-15.2-10.6-21.9-4.8-7,6.7,2.9,11,8.9,11.7,5.8.9,11.8.6,17.4-1.2,7.9,8.2,14.2,18.8,15.8,29.9,1,6.7-.9,14-6.2,18.5-5.2,4.4-12,7.1-18.8,7.2-7.7,0-15-3.5-20.6-8.8,1.2-4,1.7-8.2,1-12.2-.7-3.6-3.5-7.2-7.4-7.2-5,.1-3.4,6.5-2.1,9.4,1.7,3.8,4.2,7.3,7.2,10.4-4.4,14-17.2,24.9-31.2,28.8-6.6,1.9-13.7,2.8-20.4,1-5.3-1.3-9.9-4.5-13.2-8.8,8.4-9.3,12.2-19.5,5.4-24.5-8.9-5.8-12.8,3.4-11.8,11.2.5,4.8,2.3,9.5,5.2,13.4-.8.8-1.5,1.6-2.1,2.2-10.6,10.6-32.6,23.1-46.1,11.2-3-2.8-4.9-6.5-6-10.4,5.1-2.6,10.5-6.2,11.8-11.7.8-3.6-1.2-7.1-3.5-9.7-3.4-3.7-6.7-1.3-8.3,2.6-.3.8-.6,1.6-.8,2.5.1.4.2.8.2,1.2.4-2,1.1-4,2.3-5.7,2.7-3.8,5.9-1.3,7.8,1.8,1.4,2.1,2.4,4.7,1.8,7.2-1.3,5.3-6.5,8.8-11.5,11.3-.3-1.3-.6-2.6-.7-3.9v3.3c0,.3.1.5.2.8,0,0-.1,0-.2,0v.5c.1,0,.2,0,.3-.2,1.7,5.8,5.1,11,10.5,13.6,13.4,6.6,33.1-3.8,44.7-16.2,3.4,4.4,8.1,7.7,13.6,9,13.1,3.3,29.4-2.2,39.5-10.8,5.6-4.8,10.8-11.6,13.3-19.1,5.7,5.3,13.1,8.8,21,8.8,5.4,0,10.6-1.7,15.2-4.4,8.5-4.6,12.2-13.2,10.9-22.7ZM159.5,248.8c4.1,2.9,8,6.8,8.9,12,.6,3.3-.5,6.8-2.4,9.5-1.9,2.8-5.4,4.1-8.7,3.5-5.1-.8-9.5-4.1-13.1-7.6-6.9-7-11.7-16.4-12.8-26.2,9.9.5,19.9,3.3,28.1,8.8ZM207.8,208.9c7.9,6.5,15.1,15,17.5,25.2,1.7,7.3-1.1,14.2-8.7,16.3-10.6,2.4-19.2-8.8-23.6-17-5.8-11-8.8-24.1-7.5-35.7,8,1.8,15.7,5.7,22.4,11.2ZM257.5,214.6c-5.3,5.5-5.1-2.9-4.2-6.5,1.3-5.1,4.8-9.3,8.7-12.6,1-.8,2-1.5,3.1-2.3,0,7.7-2.9,15.9-7.6,21.3ZM311.8,235.6c-3.4-.6-9.3-2-10.3-5.8-.3-2.4,2-4.4,4-5.4,6.3-2.5,13.6,2.4,18.4,6.2,1.5,1.2,2.9,2.6,4.3,4-5.3,1.6-11.2,1.9-16.4,1ZM227.8,290.2c-.9-6.9,2.2-15.8,10.4-10.4,7.4,5.5.3,16.7-5.4,23.2-2.7-3.7-4.5-8.2-4.9-12.8ZM298.4,281.3c-2.7-2.8-5-6.1-6.6-9.6-.9-2.2-2.8-7.7,1-7.8,1.6,0,3.2.8,4.2,1.9,2.3,2.5,2.6,6.2,2.4,9.4-.2,2.1-.6,4.1-1.1,6Z"/>
            </g>
          </g>
        </g>
        <g>
          <polygon class="st0" points="59.2 223.8 177.1 182.5 200.1 226.4 76.3 276 59.2 223.8"/>
          <path class="st2" d="M163.4,187.3c3.5,5.3,6.2,10.9,8.8,16.6,2.9,5.6,6.3,10.9,9.1,16.5,1.9,3.7,3.7,7.5,5.3,11.4h0c-3.4-5.3-6.4-10.8-9.1-16.4-1.9-3.7-3.5-7.6-5.5-11.3-2.1-3.6-4.3-7.2-6-11-.9-1.9-1.8-3.8-2.6-5.7h0Z"/>
          <path class="st1" d="M216.5,212.1l14.9-5.9c.8-.3,1.5-.8,2.1-1.4l7.7-7.8c1.8-1.8,1.1-5-1.3-5.9h0c-2.7-1-5.8-.3-7.8,1.7l-6,6.5-19.5,3,9.8,9.7Z"/>
          <path class="st1" d="M209.8,205.5l20.8-8.5c.8-.3,1.5-.8,2.1-1.4l7.7-7.8c1.8-1.8,1.1-5-1.3-5.9h0c-2.7-1-5.8-.3-7.8,1.7l-6,6.5-25.5,5.5,10,9.9Z"/>
          <path class="st1" d="M202.9,198.7l23.8-10c.8-.3,1.5-.8,2.1-1.4l7.7-7.8c1.8-1.8,1.1-5-1.3-5.9h0c-2.7-1-5.8-.3-7.8,1.7l-6,6.5-27.8,7.7,9.3,9.1Z"/>
          <path class="st1" d="M196.6,192.5l20.8-8.5c.8-.3,1.5-.8,2.1-1.4l7.7-7.8c1.8-1.8,1.1-5-1.3-5.9h0c-2.7-1-5.8-.3-7.8,1.7l-6,6.5-26,5,10.5,10.3Z"/>
          <path class="st1" d="M180.1,186.4l13.6-13.5c1.6-1.6,4-2.1,6.1-1.3h0c1.4.5,2,2.1,1.4,3.4l-4.6,10.1-16.4,1.2Z"/>
          <polygon class="st1" points="216.5 212.1 196.6 219.7 178.7 185.6 186.1 182.2 216.5 212.1"/>
          <polygon class="st6" points="196.6 219.7 182.4 183.9 178.7 185.6 196.6 219.7"/>
          <path class="st6" d="M212.2,202.1c1.7-.5,4.1-1.2,5.8-1.6,1.9-.6,3.9-1,5.9-.8,0,0,0,.1,0,.1-1.8,1-3.8,1.4-5.8,1.6,0,0-3,.4-3,.4-1,.1-2,.3-3,.4h0Z"/>
          <path class="st6" d="M204.9,194.8c2-.6,6-1.8,8.1-2.3,2.7-.8,5.4-1.5,8.2-1.6h0c-3.7,1.9-8.2,2.4-12.2,3.3l-4.1.8h0Z"/>
          <path class="st6" d="M203,186.9c2.1-.7,6.2-2.1,8.3-2.7,2.8-1,5.6-1.8,8.5-2,0,0,0,.1,0,.1-3.8,2-8.4,2.7-12.5,3.7l-4.3,1h0Z"/>
        </g>
        <polygon class="st7" points="52.2 163.9 68.5 220.6 99.8 209.6 72 212.1 52.2 163.9"/>
        <path class="st2" d="M111.5,261.9c-4.7,2.8-9.7,4.9-14.7,6.8-4.9,2.2-9.7,5-14.6,7.1-3.3,1.5-6.7,2.8-10.1,4h0c4.7-2.8,9.6-5.2,14.6-7.3,3.3-1.5,6.8-2.6,10-4.2,3.2-1.6,6.4-3.4,9.8-4.7,1.7-.7,3.4-1.3,5.1-1.9h0Z"/>
        <g>
          <path class="st1" d="M288.5,124.3h0c6.4,4.4,8.8,12.7,5.8,19.8l-5.9,14-31.4-21.4,10.6-10.6c5.6-5.6,14.3-6.4,20.8-1.9Z"/>
          <path class="st1" d="M270.3,127.3l-16-2.4c-1.1-.2-2.2.3-2.8,1.2h0c-1.2,2-.3,4.5,1.9,5.5l13.2,5.6,3.7-9.8Z"/>
          <path class="st1" d="M257.1,136.8l9.7,6.6-19.2,14.4c-1.7,1.3-4.1.6-4.8-1.3h0c-1-2.5-.4-5.4,1.6-7.3l12.8-12.3Z"/>
          <path class="st1" d="M264.1,141.5l12.3,7.7-20.6,19.3c-1.5,1.5-4,1.2-5-.7h0c-1.3-2.4-1.1-5.3.6-7.4l12.7-18.9Z"/>
          <path class="st1" d="M272.8,146.3l10.1,5.8-13,20.2c-1.1,1.8-3.6,2-5,.4h0c-1.8-2-2.2-4.9-1-7.4l9-19.1Z"/>
          <path class="st1" d="M279.8,152.6l11.5-1.8-4.2,23.6c-.3,2.1-2.6,3.2-4.5,2.3h0c-2.5-1.2-4-3.7-3.8-6.4l.9-17.8Z"/>
        </g>
      </g>
      <g>
        <path class="st9" d="M332.5,325.5c3.3-1.1,6.7.7,7.8,4l3.7,11.4c4.2-3.9,6-10,4.2-15.7-.9-2.6-2.4-4.9-4.3-6.6-2-1.7-4.3-2.9-6.9-3.4l-9.3-28.5-11.7-35.9v-.3c3.4-3.9,4.8-9.4,3-14.7-1.2-3.6-3.6-6.5-6.7-8.3-1-.6-2-1.1-3.1-1.4-.9-.3-1.9-.5-2.8-.6l3.7,11.4c1.1,3.3-.7,6.7-4,7.8-3.3,1.1-6.8-.7-7.8-4l-3.7-11.4c-4.2,3.9-6,9.9-4.1,15.7.6,1.8,1.5,3.4,2.6,4.8.5.7,1.1,1.3,1.7,1.8,2,1.7,4.3,2.9,6.9,3.4l8.8,26.9,12.2,37.4v.4c.1,0,.1,0,0,0-3.4,3.9-4.8,9.4-3.1,14.6,1,2.9,2.7,5.3,4.9,7t0,0c0,0,.2.2.3.2,2.2,1.6,4.7,2.7,7.4,3l-3.7-11.4c-1.1-3.3.7-6.7,4-7.8Z"/>
        <path class="st15" d="M340.1,328.8l13.1-131.3c0-.1,0-.2-.1-.3.9-.7,2.2-2.1,1.1-4.2-1.7-3.1-2.2-4.5-2.2-4.5,0,0-4.2,5.4-1.6,8.5,0,0,0,0,0,.1l-20.1,130.4c-.6,4.2,1.1,8,4,8.4h0c2.8.4,5.5-2.9,5.9-7.2Z"/>
        <path class="st18" d="M391.9,224.5v105.9h-20.9v-105.9c0-5.8,4.7-10.4,10.4-10.4s5.5,1.2,7.4,3.1c1.9,1.9,3.1,4.5,3.1,7.4Z"/>
        <path class="st13" d="M378,234.9h-162.3v-17.3h162.3c4.8,0,8.6,3.9,8.6,8.6h0c0,4.8-3.9,8.6-8.6,8.6Z"/>
        <rect class="st12" x="342.4" y="278.2" width="78.3" height="70.6"/>
        <rect class="st18" x="182" y="278.2" width="78.3" height="70.6"/>
        <path class="st18" d="M231.5,330.4h-20.9v-105.9c0-5.8,4.7-10.4,10.4-10.4h0c5.8,0,10.4,4.7,10.4,10.4v105.9Z"/>
        <path class="st8" d="M372.8,259.1c-4.4-1.6-9.1-.8-12.6,1.6-.2.1-.4.3-.6.4,0-.2-.1-.5-.2-.7-1.2-4.2-4.3-7.7-8.7-9.3-7.2-2.6-15.2,1.2-17.8,8.4-2.6,7.2,1.2,15.2,8.4,17.8,1.1.4,2.3.7,3.4.8l-10.2,38.4,9.1,3.3,15.8-34.4.5-1,.3-.7c1,.7,2,1.2,3.1,1.6,7.2,2.6,15.2-1.2,17.8-8.4,2.6-7.2-1.2-15.2-8.4-17.8ZM350.4,269.5c-.5,1.3-1.6,2.3-3,2.6-.4,0-.8.1-1.2.1-1,0-2-.1-3-.5-4-1.4-6.2-5.9-4.8-10,1.4-4.2,6-6.3,10.1-4.9,1.4.5,2.5,1.3,3.4,2.3.9,1.1,1.2,2.6.7,3.9l-2.3,6.3ZM375.4,275c-1.5,4-6,6.1-10.1,4.6-1-.4-1.9-.9-2.6-1.5-.3-.3-.6-.6-.8-.9-.9-1.1-1.1-2.5-.6-3.8l2.3-6.4c.5-1.3,1.6-2.3,2.9-2.5,1.4-.3,2.8-.2,4.2.3,4.1,1.5,6.3,6.1,4.7,10.2Z"/>
        <path class="st8" d="M289.9,219.5l-6.9,2.8c-1.3.5-1.9,2-1.4,3.3l1.9,4.7c-.2,0-.4.2-.6.3-2.3,1.4-5.3,2.4-7.8,1.2-2.5-1.1-5-2.5-6.2-3.9-.8-.9-2-1.3-3.2-.9-6.8,2.3-28.8,11.2-28.9,30.8,0,1.4.9,2.6,2.3,2.9h0c1.1.3,2.3-.2,3-1.1,2.9-4.1,11.4-14.1,20.2-4.8.8.9,2.1,1.2,3.2.7l.8-.3,30.3,73.9c.4,1.1,1.7,1.6,2.8,1.2l6.7-2.8c1.1-.4,1.6-1.7,1.2-2.8l-30.3-73.9,2.1-.9c1-.4,1.6-1.3,1.8-2.3.3-1.8,1.6-4.7,6.8-7l1.1,2.6c.5,1.3,2,1.9,3.3,1.4l6.9-2.8c1.3-.5,1.9-2,1.4-3.3l-7.2-17.6c-.5-1.3-2-1.9-3.3-1.4Z"/>
        <rect class="st13" x="260.2" y="278.2" width="160.4" height="70.6"/>
        <rect class="st4" x="182" y="298.8" width="238.6" height="1.9"/>
        <rect class="st4" x="182" y="326.3" width="238.6" height="1.9"/>
      </g>
    </g>
  </g>
</svg>