<svg xmlns="http://www.w3.org/2000/svg" xmlns:xlink="http://www.w3.org/1999/xlink" width="503.798" height="485.735" viewBox="0 0 503.798 485.735">
  <defs>
    <linearGradient id="linear-gradient" x1="20.265" y1="3.719" x2="20.319" y2="7.677" gradientUnits="objectBoundingBox">
      <stop offset="0" stop-color="#593e3e"/>
      <stop offset="1" stop-color="#80615d"/>
    </linearGradient>
    <linearGradient id="linear-gradient-2" x1="28.651" y1="19.363" x2="28.654" y2="23.185" gradientUnits="objectBoundingBox">
      <stop offset="0" stop-color="#937576"/>
      <stop offset="1" stop-color="#c9aaa6"/>
    </linearGradient>
    <linearGradient id="linear-gradient-3" x1="67.082" y1="17.666" x2="71.927" y2="20.567" gradientUnits="objectBoundingBox">
      <stop offset="0" stop-color="#927372"/>
      <stop offset="1" stop-color="#c6a5a0"/>
    </linearGradient>
  </defs>
  <g id="NUSMAD_CRISE_Topicos_Top04" transform="translate(-47.06 -64.197)">
    <path id="Caminho_1622" data-name="Caminho 1622" d="M353.107,110.909a130.868,130.868,0,0,1,93.087,35.5,136,136,0,0,1,5.838,191.458c-17.175,18.471-41.007,32.652-65.619,38.377a140.1,140.1,0,0,1-27.8,3.372l-.34.025a129.487,129.487,0,0,1-15.124-.617c-28.324-2.454-53.841-14.13-75.106-32.853a134.655,134.655,0,0,1-43.259-78.189,137.062,137.062,0,0,1-.868-39.484,135.018,135.018,0,0,1,32.652-73.143,132.7,132.7,0,0,1,74.011-42.19c7.625-1.422,14.848-1.762,22.536-2.24Z" transform="translate(45.412 11.819)" fill="#fcfcf3"/>
    <path id="Caminho_1623" data-name="Caminho 1623" d="M349.762,116.382a124.229,124.229,0,0,1,88.746,32.174c25.983,23.3,39.812,54.949,41.674,89.513a127.872,127.872,0,0,1-32.338,91.224c-19.1,21.2-43.133,35.106-71.369,40.214a141.2,141.2,0,0,1-17.679,1.8,133.9,133.9,0,0,1-22.762-1.258A123.133,123.133,0,0,1,270.5,338.92a145.878,145.878,0,0,1-12.344-12.759c-17.654-21.252-28.475-48.078-29.582-75.76a160.66,160.66,0,0,1,.164-16.71,127.645,127.645,0,0,1,33.483-77.232A124.2,124.2,0,0,1,349.762,116.382Z" transform="translate(46.845 13.216)" fill="#342121"/>
    <path id="Caminho_1624" data-name="Caminho 1624" d="M293.4,133.548c2.466-1.686,9.034-4.681,11.84-5.9a123.717,123.717,0,0,1,150.552,43.41,129.268,129.268,0,0,1,12.658,23.215,59.963,59.963,0,0,1,2.592,7.009c1.862,3.75,3.171,9.965,4.1,14.118a126.294,126.294,0,0,1-2.051,63.278c-.44,1.5-.73,2.982-1.233,4.479a127.307,127.307,0,0,1-33.634,52.57c-27.707,26.361-65.392,37.71-102.964,31.947a123.28,123.28,0,0,1-34.011-10.343A126.192,126.192,0,0,1,230.281,232.36q.34-4.417,1.044-8.8c.088-.541.428-2.894.6-3.309a119.636,119.636,0,0,1,8.242-27.279A124.412,124.412,0,0,1,282,140.821c1.887-1.359,9.362-6.493,11.4-7.285Z" transform="translate(47.193 13.579)" fill="url(#linear-gradient)"/>
    <path id="Caminho_1625" data-name="Caminho 1625" d="M280.343,133.548c2.466-1.686,9.034-4.681,11.84-5.9a123.717,123.717,0,0,1,150.552,43.41,129.271,129.271,0,0,1,12.658,23.215,59.957,59.957,0,0,1,2.592,7.009h-.025c-.5-.038-.906-3.372-1.787-4l-.151.088v.252l.277.075c-1.585,1.007.063,1.523-.063,2.756-.39-.428-2.252-5.75-2.655-6.757-.919-2.479-2.34-4.656-3.473-7.071A108.682,108.682,0,0,0,433.122,161.1a122.8,122.8,0,0,0-40.667-30.161,17.9,17.9,0,0,0-4.668-2.1l-1.2-.516c-3.4-1.736-7.411-2.6-11.01-3.888a46.612,46.612,0,0,0-10.318-2.24c-.076-.038-.856-.226-.994-.264-6.681-1.938-18.107-2.554-25.014-2.064a117.221,117.221,0,0,0-34.54,5.046c-3.171.994-6.455,2.428-9.689,3.435-2.189.667-4.63,2.252-6.807,3.07-.742.327-2.026,1.082-2.705,1.321a2.046,2.046,0,0,1,.805-.83l-.025-.138c-1.271-.088-2.391,1.51-3.649,1.359l-.315-.4c-.818.315-1.132.755-2,.78Z" transform="translate(60.246 13.579)" fill="url(#linear-gradient-2)"/>
    <path id="Caminho_1626" data-name="Caminho 1626" d="M292.954,130.647c.868-.025,1.183-.466,2-.78l.315.4c1.271.138,2.391-1.447,3.649-1.359l.025.138a2.046,2.046,0,0,0-.805.83c-.881.591-1.875.893-2.781,1.409A149.213,149.213,0,0,0,277.5,143.117c-13.312,10.23-23.693,23.655-32,38.138-1.648,2.869-3.045,6.43-4.605,9.412-1.283,2.454-1.963,5.738-3.02,8.317A122.206,122.206,0,0,0,233.5,212.85c-.239.931-.881,4.089-1.044,5.046-.252-1.019,1.183-4.089.352-4.744-.6.541-.755,3.536-1.208,4.454l-.1-.214a119.633,119.633,0,0,1,8.242-27.279,124.412,124.412,0,0,1,41.825-52.155c1.887-1.359,9.362-6.493,11.4-7.285Z" transform="translate(47.635 16.479)" fill="url(#linear-gradient-3)"/>
    <path id="Caminho_1627" data-name="Caminho 1627" d="M347.835,121.28a47.337,47.337,0,0,1,10.318,2.24c3.6,1.271,7.625,2.139,11.01,3.888l1.2.516a17.9,17.9,0,0,1,4.668,2.1c-1.321-.113-1.56-.881-2.479-.856l-.1.151c.189.315.415.34.78.478l.151.063c-.981-.113-2.353-1.208-3.787-1.409a3.674,3.674,0,0,1-1.724-.793,20.442,20.442,0,0,0-2.24-.768c-4.744-1.321-9.248-3.2-14.13-3.989a4.429,4.429,0,0,1-1.976-.73,2.29,2.29,0,0,0,1.258.252c-.478-.805-1.522-.453-2.97-1.145Z" transform="translate(77.674 14.51)" fill="#997772"/>
    <path id="Caminho_1628" data-name="Caminho 1628" d="M327.16,119.473c6.908-.491,18.345.126,25.014,2.064-2.4.44-5.373-.252-7.8-.466-3.1-.277-5.989-.7-9.11-.856h0a3.872,3.872,0,0,0,.768-.075c-2.718-.956-5.926-.478-8.858-.654Z" transform="translate(72.341 14.001)" fill="#997772"/>
    <path id="Caminho_1629" data-name="Caminho 1629" d="M347.295,127.467h.516a110.5,110.5,0,0,1,80.491,30.45,111.738,111.738,0,0,1,33.9,66.449,118.13,118.13,0,0,1,.981,23,112.7,112.7,0,0,1-30.626,71.256,110.228,110.228,0,0,1-64.323,33.684,101.161,101.161,0,0,1-12.155,1.2c-3.284.076-8.179.1-11.362-.088a110.7,110.7,0,0,1-62.36-23.869c-1.334-1.044-2.554-2.3-3.838-3.41a112.815,112.815,0,0,1-38.239-73.848c-6.707-65.216,41.045-121.9,107.028-124.82Z" transform="translate(49.74 16.086)" fill="#342121"/>
    <path id="Caminho_1630" data-name="Caminho 1630" d="M346.349,132.809h.025a104.835,104.835,0,0,1,74.464,26.763,108.365,108.365,0,0,1,7.789,152.716,105.619,105.619,0,0,1-74.062,34.753c-3.725.088-7.977.1-11.664-.164A106.4,106.4,0,0,1,244.3,246.3a119.417,119.417,0,0,1,.805-21.932,106.34,106.34,0,0,1,101.215-91.564Z" transform="translate(50.9 17.463)" fill="#d7bbaf"/>
    <path id="Caminho_1631" data-name="Caminho 1631" d="M345.7,141.605c0-1.762-.2-3.259,1.208-4.605a3.135,3.135,0,0,1,4.781.4c1.007,1.3.931,2.542.944,4.077,2.328.39,5.411.352,7.915.629a98.123,98.123,0,0,1,27.871,7.6c1.774.755,4.228,2.2,6,2.718,1.17-2.064,2.844-3.938,5.4-2.466a3.457,3.457,0,0,1,1.636,2.177c.4,1.585-.252,2.441-.981,3.813,2.793,2.265,6.115,4.316,8.883,6.518a104.968,104.968,0,0,1,13.35,12.771c2.013,2.353,3.9,4.807,5.662,7.336.755,1.082,2.164,3.3,2.944,4.2,1.183-.591,2.215-1.158,3.586-.73a3.461,3.461,0,0,1,2.227,4.517,4.04,4.04,0,0,1-1.585,1.7c-5.234,3.3-10.632,6.367-15.93,9.563-2.29,1.384-3.875,1.9-5.952-.327-.038,2.756,2.743,3.7,4.706,2.491,3.271-2,6.707-3.9,10.016-5.813a64.513,64.513,0,0,1,7.222-4.115c6.316,12.759,10.418,25.769,11.048,40.114-.881,0-2.68-.025-3.485.076.818.013,2.038.063,2.818,0a3.48,3.48,0,0,1,2.756,6.052c-1.17,1.095-4.932.818-6.518.83H427.643c-2.177-.013-2.793.151-4.429-1.359a2.141,2.141,0,0,0,.038,1.8,2.917,2.917,0,0,0,1.7,1.623c1.887.692,17.855.025,21.894.264a52.061,52.061,0,0,1-.352,7.273,98.652,98.652,0,0,1-7.449,28.9c-.352.856-1.787,4.391-2.189,4.958,1.686,2.756-.227,4.781-2.894,5.524a7.348,7.348,0,0,1-1.535-.6c-5.335-3.032-10.544-6.279-15.9-9.286a15.009,15.009,0,0,1-2.756-1.837,3.426,3.426,0,0,0,.1,2.038,59.693,59.693,0,0,0,7,4.467q6.04,3.529,12.016,7.16c-1.221,1.8-2.378,3.624-3.624,5.423a98.31,98.31,0,0,1-24.775,24.587,8.89,8.89,0,0,1-2.743,1.548c-.365,3.271-2.756,4.53-5.687,3.083a2.414,2.414,0,0,1-.516.868c-2.252,1.736-6.077,3.246-8.67,4.366a96.592,96.592,0,0,1-29.582,7.336c-1.283.113-3.41.34-4.63.327l-.214-.214c-2.164,2.227-3.724,1.8-5.713.151H346.7a2.774,2.774,0,0,1-.327.189c-2.781-.189-5.7-.327-8.456-.6a95.74,95.74,0,0,1-34.8-10.519c1.812-3.813,4.882-9.475,7.059-13.174a3.414,3.414,0,0,0-.075-1.85c-1.648,2.881-3.183,5.914-4.819,8.72-.893,1.522-2.315,5.146-4.077,5.436-2.668.428-4.2-1.472-4.391-3.812a4.466,4.466,0,0,1-.189.906l-.189.025c-3.649-2.68-6.279-4.266-9.991-7.235a98.272,98.272,0,0,1-16.156-16.659c-2.026-2.705-3.712-5.4-5.65-8.091,2.894-1.648,20.032-10.972,20.5-12.608.189-.654-.176-1.07-.516-1.611a25.7,25.7,0,0,1-4.907,3.2c-4.605,2.6-9.16,5.31-13.753,7.914-2.869,1.623-5.272.365-5.411-2.932a9.741,9.741,0,0,1,.327-1.409c-.755-.5-2.177-4.177-2.579-5.146a95.289,95.289,0,0,1-8-36.553q6.587.038,13.174,0c3.272,0,6.593.038,9.852-.151,1.661-1.107,2.114-2.139,1.5-4.052a7.193,7.193,0,0,0,.214-.742c.529-2.328-.944-3.863-3.146-4.266-.83-.176-7.55-.1-8.77-.1h-7.94c-1.371,0-3.4-.063-4.706.088a49.027,49.027,0,0,1,.6-7.4,101.041,101.041,0,0,1,6.606-24.914c1.17-2.869,2.756-5.587,3.863-8.43.818.4,1.686.768,2.5,1.145,5.624,2.642,10.8,6.128,16.081,9.374,2.252,1.384,5.813-.352,4.492-3.183-.881,1.082-2.366,2.592-3.976,1.837-3.448-1.623-6.719-3.787-10.028-5.7-2.818-1.636-5.675-3.347-8.43-5.071-2.554-1.636-2.051-4.832.566-6.052,1.019-.478,2.29.025,3.271.453.025-.038.038-.088.063-.126,1.522-1.988,2.768-4.014,4.316-6.027a94.324,94.324,0,0,1,14.646-15.489q2.85-2.491,5.914-4.719c1.749-1.271,5.134-3.234,6.317-4.681a4.452,4.452,0,0,1-.667-3.234,3.606,3.606,0,0,1,1.56-2.24,3.006,3.006,0,0,1,2.4-.39c1.422.365,2.076,1.4,2.793,2.529,1.56-.78,3.385-1.422,5-2.139a91.807,91.807,0,0,1,37.358-8.38Z" transform="translate(52.488 18.331)" fill="#fcfcf3"/>
    <path id="Caminho_1632" data-name="Caminho 1632" d="M326.138,141.605c0-1.762-.2-3.259,1.208-4.605a3.135,3.135,0,0,1,4.781.4c1.007,1.3.931,2.542.944,4.077l.038,12.608c0,2.4.365,6.908-.78,8.909-1.925,1.686-3.46,1.51-5.423.05-1.183-1.724-.793-6.417-.793-8.644l.025-12.784Z" transform="translate(72.055 18.331)"/>
    <path id="Caminho_1633" data-name="Caminho 1633" d="M327.082,303.222a5.864,5.864,0,0,1-.642-2.441c-.189-2.189-.264-20.384.2-22.045a3.029,3.029,0,0,1,1.636-1.837,3.745,3.745,0,0,1,2.944-.151,3.292,3.292,0,0,1,1.812,1.988,5.774,5.774,0,0,1,.3,1.661c.176,3.347-.05,6.782-.025,10.154.013,3.435.3,7.751-.038,11.085a4.349,4.349,0,0,1-.44,1.422c-2.164,2.227-3.724,1.8-5.713.151h-.025Z" transform="translate(72.117 54.602)"/>
    <path id="Caminho_1634" data-name="Caminho 1634" d="M366.837,149.684c1.17-2.064,2.844-3.938,5.4-2.466a3.457,3.457,0,0,1,1.636,2.177c.4,1.585-.252,2.441-.981,3.813q-3.3,5.813-6.493,11.689c-.856,1.535-2.4,4.517-3.41,5.864-2.1,1.6-3.473.83-5.322-.579-1.095-2.579-.453-3.3.856-5.574.478-.83.981-1.736,1.447-2.579l6.858-12.318Z" transform="translate(80.075 21.073)"/>
    <path id="Caminho_1635" data-name="Caminho 1635" d="M287.26,289.67a.589.589,0,0,1,.025-.063c1.208-3.36,3.561-6.832,5.209-10.079,1.623-2.97,3.158-5.977,4.857-8.921.856-1.485,2.089-2.466,3.9-1.938,2.454.7,3.146,2.668,2.466,5.008-1.019,1.9-2.114,3.762-3.158,5.65-1.648,2.881-3.183,5.914-4.819,8.72-.893,1.522-2.315,5.146-4.077,5.436-2.668.428-4.2-1.472-4.391-3.813Z" transform="translate(62.036 52.538)"/>
    <path id="Caminho_1636" data-name="Caminho 1636" d="M279.378,244.97c2.907.667,4.417,2.592,3.133,5.511a25.7,25.7,0,0,1-4.907,3.2c-4.605,2.6-9.16,5.31-13.753,7.915-2.869,1.623-5.272.365-5.411-2.932a9.748,9.748,0,0,1,.327-1.409,4.109,4.109,0,0,1,1.271-1.359c5.8-3.611,11.79-6.971,17.729-10.356a8.654,8.654,0,0,1,1.636-.566Z" transform="translate(54.593 46.455)"/>
    <path id="Caminho_1637" data-name="Caminho 1637" d="M287.766,152.7a4.452,4.452,0,0,1-.667-3.234,3.605,3.605,0,0,1,1.56-2.24,3.006,3.006,0,0,1,2.4-.39c1.422.365,2.076,1.4,2.793,2.529q3.265,6.04,6.719,11.966c.881,1.548,3.02,4.932,3.46,6.417a7.711,7.711,0,0,1-.692,2.34c-1.749,1.85-3.183,1.913-5.3.667-1.271-1.887-2.416-4.152-3.561-6.14-2.252-3.938-4.4-8.028-6.732-11.916Z" transform="translate(61.971 21.086)"/>
    <path id="Caminho_1638" data-name="Caminho 1638" d="M368.45,292.475c-1.145-1.221-10.72-18.409-11.2-19.956a2.441,2.441,0,0,1,.252-1.963,4.312,4.312,0,0,1,2.416-2.026,3.056,3.056,0,0,1,2.4.39,5.333,5.333,0,0,1,1.585,1.6c1.573,2.353,2.806,5.083,4.177,7.562,1.485,2.68,5.436,8.632,6.065,11.312-.365,3.271-2.756,4.53-5.687,3.083Z" transform="translate(80.086 52.514)"/>
    <path id="Caminho_1639" data-name="Caminho 1639" d="M380.358,250.333c-1.12-1.963-1.044-3.926.994-5.234a3.662,3.662,0,0,1,2.554-.428,72.232,72.232,0,0,1,7.562,4.341c2.592,1.812,10.242,5.385,11.991,7.537,1.686,2.756-.227,4.781-2.894,5.524a7.35,7.35,0,0,1-1.535-.6c-5.335-3.032-10.544-6.279-15.9-9.286a15.016,15.016,0,0,1-2.756-1.837Z" transform="translate(85.894 46.352)"/>
    <path id="Caminho_1640" data-name="Caminho 1640" d="M407.792,214.091c.818.013,2.038.063,2.819,0a3.48,3.48,0,0,1,2.756,6.052c-1.17,1.095-4.932.818-6.518.83H392.265c-2.177-.013-2.793.151-4.429-1.359-1.057-2.126-.566-4.958,2.139-5.423a39.264,39.264,0,0,1,5.851-.088c3.989.025,7.99.025,11.979,0Z" transform="translate(87.878 38.466)"/>
    <path id="Caminho_1641" data-name="Caminho 1641" d="M397.91,176.531c1.183-.591,2.215-1.158,3.586-.73a3.461,3.461,0,0,1,2.227,4.517,4.041,4.041,0,0,1-1.585,1.7c-5.234,3.3-10.632,6.367-15.93,9.563-2.29,1.384-3.875,1.9-5.952-.327-1.774-3.724.931-4.87,3.674-6.417.856-.491,1.736-.994,2.592-1.5q5.738-3.322,11.387-6.795Z" transform="translate(85.908 28.552)"/>
    <path id="Caminho_1642" data-name="Caminho 1642" d="M282.5,190.826c-.881,1.082-2.366,2.592-3.976,1.837-3.448-1.623-6.719-3.787-10.028-5.7-2.818-1.636-5.675-3.347-8.43-5.071-2.554-1.636-2.051-4.832.566-6.052,1.019-.478,2.29.025,3.272.453,1.648.893,3.309,1.875,4.895,2.869,4.2,2.617,8.556,4.958,12.771,7.537C283.028,187.592,283.065,189.391,282.5,190.826Z" transform="translate(54.579 28.55)"/>
    <path id="Caminho_1643" data-name="Caminho 1643" d="M301.078,165.3c1.132,2.3-1.283,3.007-3.045,3.372-1.434-.554-2.3-1.007-2.252-2.705,2.114,1.246,3.536,1.183,5.3-.667Z" transform="translate(64.236 25.879)" fill="#cec3bb"/>
    <path id="Caminho_1644" data-name="Caminho 1644" d="M357.561,165.333c1.85,1.422,3.221,2.177,5.322.579.7,1.573-.906,2.63-2.315,2.642a3.182,3.182,0,0,1-2.3-.931c-.793-.805-.7-1.258-.7-2.3Z" transform="translate(80.192 25.884)" fill="#cec3bb"/>
    <path id="Caminho_1645" data-name="Caminho 1645" d="M332.182,157.47c1.4,3.787-6.958,3.221-5.423.05C328.722,158.98,330.244,159.169,332.182,157.47Z" transform="translate(72.189 23.856)" fill="#cec3bb"/>
    <path id="Caminho_1646" data-name="Caminho 1646" d="M297.83,278.27c1.044-1.887,2.139-3.75,3.158-5.65a2.3,2.3,0,0,0,.264,1.007c-.075,1.535-2.441,5.171-3.347,6.505a3.414,3.414,0,0,0-.076-1.85Z" transform="translate(64.766 53.596)" fill="#cec3bb"/>
    <path id="Caminho_1647" data-name="Caminho 1647" d="M333.443,221.132c.352-11.312.088-23.744.088-35.131v-9.173a37.69,37.69,0,0,1,.126-5.348c.717-4.668,7.575-3.875,7.638.893.025,1.862-.038,3.75-.038,5.587v29.053c0,2.63.113,6.493-.075,9.06a10.218,10.218,0,0,1-.881,3.108c-.906,1.422-2.529,6.719-3.309,7.751a2.308,2.308,0,0,1,2,.931,2.344,2.344,0,0,1,.038,2.718,2.318,2.318,0,0,1-2.567.881,50.116,50.116,0,0,1-2.781,6.77,10.212,10.212,0,0,0-1.17,2.529l-.453.919c.05-1.007.1-.969-.566-1.648.138-.642.931-1.724.755-2.479l-.025-.151a15.737,15.737,0,0,0-1.359-1.434,9.719,9.719,0,0,1-2.63-5.033c0-.591-.088-1.359-.138-1.963a37.442,37.442,0,0,1-4.278-3.574l-7.021-6.14-15.175-12.985c-1.787-1.535-4.026-3.259-5.662-4.97-.491-.5-.226-1.636-.113-2.34-2.164-3.309.642-7.248,4.014-6.367,1.372.365,5.335,4.115,6.744,5.31l12.847,11.035q4.681,3.945,9.311,7.927c1.321,1.145,3.611,3.02,4.731,4.266Z" transform="translate(64.057 26.669)"/>
    <path id="Caminho_1648" data-name="Caminho 1648" d="M295.683,192.68c2.881,2.177,5.75,4.794,8.518,7.134q7.191,6.077,14.294,12.256c3.2,2.756,6.619,5.8,9.89,8.43-.164.679-.315,1.724-.44,2.2a37.435,37.435,0,0,1-4.278-3.573l-7.021-6.14L301.471,200c-1.787-1.535-4.026-3.259-5.662-4.97-.491-.5-.227-1.636-.113-2.34Z" transform="translate(64.17 32.95)" fill="#cec3bb"/>
    <path id="Caminho_1649" data-name="Caminho 1649" d="M328.816,214.913a2.308,2.308,0,0,1,2,.931,2.344,2.344,0,0,1,.038,2.718,2.318,2.318,0,1,1-2.026-3.662Z" transform="translate(72.208 38.689)" fill="#f8ad68"/>
    <path id="Caminho_1650" data-name="Caminho 1650" d="M327.979,218.04a2.394,2.394,0,0,0,.981.591,50.111,50.111,0,0,1-2.781,6.769,10.213,10.213,0,0,0-1.17,2.529l-.453.919c.05-1.007.1-.969-.566-1.648.138-.642.931-1.724.755-2.479l-.025-.151C325.412,224.206,327.173,219.323,327.979,218.04Z" transform="translate(71.522 39.5)" fill="#9d2121"/>
    <path id="Caminho_1651" data-name="Caminho 1651" d="M334.506,216.945a1.827,1.827,0,0,0,1.082-.264c4.58-2.441,9.122-5.146,13.627-7.713l24.738-14.13c2.806-1.623,5.574-3.334,8.418-4.907,3.775-2.089,7.311,1.334,5.788,5.285a5.237,5.237,0,0,1-.327,3.1c-1.271,1.183-5.952,3.636-7.726,4.63l-12.457,7.034c-8.644,4.87-17.188,10-25.857,14.81-.856.478-2.819,1.6-3.724,1.623l-.289,1.158c.83,4.291-2.856,7.927-6.845,8.556a14.378,14.378,0,0,1-5.662-.541l-.491-.239a9.589,9.589,0,0,1,1.17-2.529,51.791,51.791,0,0,0,2.781-6.77,2.314,2.314,0,0,0,2.529-3.6c.642-1.208,2.076-4.958,2.819-5.713l.39.2Z" transform="translate(71.726 32.076)"/>
    <path id="Caminho_1652" data-name="Caminho 1652" d="M385.452,194a5.237,5.237,0,0,1-.327,3.1c-1.271,1.183-5.952,3.636-7.726,4.63l-12.457,7.034c-8.644,4.87-17.188,10-25.857,14.81-.856.478-2.818,1.6-3.724,1.623,0-.793.038-1.6.063-2.391,1.824-1.145,3.7-2.1,5.562-3.158l9.789-5.562q11.173-6.285,22.259-12.721L379.3,197.8c1.988-1.107,4.53-2.315,6.14-3.8Z" transform="translate(74.459 33.291)" fill="#d7bbaf"/>
    <path id="Caminho_1653" data-name="Caminho 1653" d="M337.788,219.72c.83,4.291-2.856,7.927-6.845,8.556a14.378,14.378,0,0,1-5.662-.541l-.491-.239a9.591,9.591,0,0,1,1.17-2.529c5.247,2.064,9.387-.591,11.815-5.247Z" transform="translate(71.729 39.933)" fill="#d7bbaf"/>
    <path id="Caminho_1654" data-name="Caminho 1654" d="M324.567,218.09a9.672,9.672,0,0,0,2.63,5.033,17.684,17.684,0,0,1,1.359,1.434l.025.151c.176.755-.617,1.85-.755,2.479a7.9,7.9,0,0,1-.692,1.384c-2.013-.176-10.7,6.367-13.967,7.134-2.428-.679-4.127-2.4-3.7-5.046-1.107-3.7.667-4.442,3.649-6.115.717-.4,1.46-.805,2.177-1.208Q319.956,220.751,324.567,218.09Z" transform="translate(67.686 39.513)" fill="#9d2121"/>
    <path id="Caminho_1655" data-name="Caminho 1655" d="M328.527,223.35c.176.755-.617,1.85-.755,2.479a7.9,7.9,0,0,1-.692,1.384c-2.013-.176-10.7,6.367-13.967,7.134-2.428-.679-4.127-2.4-3.7-5.046a6.523,6.523,0,0,0,3.624,2.668,38.106,38.106,0,0,0,5.046-2.668l6.732-3.913a34.875,34.875,0,0,1,3.712-2.038Z" transform="translate(67.741 40.871)" fill="#dfb7af"/>
    <path id="Caminho_1656" data-name="Caminho 1656" d="M345.241,185c1.774.805,2.34.969,1.447,2.881.138,1.913-.34,2.655-1.158,4.391a35.572,35.572,0,0,1-2.466,5.071c-.529,1.309-2.819,7.222-3.523,8-1.623,3.825-3.5,7.713-5.1,11.564-.176.415-.717.83-.856,1.158l-.39-.2c-.755.755-2.189,4.517-2.819,5.712a2.308,2.308,0,0,0-2-.931c.78-1.032,2.416-6.342,3.309-7.751a10.591,10.591,0,0,0,.881-3.108,1.167,1.167,0,0,0,.126.44c.654-.352,11.06-24.624,12.558-27.216Z" transform="translate(72.656 30.966)" fill="#9d2121"/>
    <path id="Caminho_1657" data-name="Caminho 1657" d="M338.413,200.04a5.46,5.46,0,0,0-.138,1.271c.126.138.038.076.277.151-1.623,3.825-3.5,7.713-5.1,11.563-.176.415-.717.83-.856,1.158l-.39-.2c.214-1.334,5.31-12.344,6.2-13.929Z" transform="translate(73.645 34.851)" fill="#dfb7af"/>
    <path id="Caminho_1658" data-name="Caminho 1658" d="M339.886,195.555a10.787,10.787,0,0,1,.944-.755c-.528,1.309-2.819,7.222-3.523,8-.239-.075-.164,0-.277-.151a6.236,6.236,0,0,1,.138-1.271,54.583,54.583,0,0,1,2.73-5.838Z" transform="translate(74.89 33.497)" fill="#d7bbaf"/>
    <path id="Caminho_1659" data-name="Caminho 1659" d="M341.907,190.46l.2.742.151.025.164-.151a.806.806,0,0,1,.277-.226,35.561,35.561,0,0,1-2.466,5.071,10.764,10.764,0,0,0-.944.755c.692-2.089,1.749-4.14,2.6-6.2Z" transform="translate(75.474 32.377)" fill="#dfb7af"/>
    <path id="Caminho_1660" data-name="Caminho 1660" d="M341.37,191.281c.667-1.5,1.158-2.567,1.95-4,.138,1.913-.34,2.655-1.158,4.391a1.689,1.689,0,0,0-.277.227l-.164.151-.151-.025-.2-.742Z" transform="translate(76.011 31.555)" fill="#d7bbaf"/>
    <path id="Caminho_1661" data-name="Caminho 1661" d="M327.216,225.32c.667.692.617.642.566,1.648l.453-.919.491.239c-.226.226-.2.076-.214.365a12.306,12.306,0,0,1-1.17,3.662c-4.593,10.217-9.4,20.346-13.816,30.639-.264.6-.591,1.372-1.271,1.548-.566-.138-.39.025-.654-.34.642-.768.994-.491,1.246-1.2-.214-.4-.076-.252-.44-.478-.566-.2-.654-.176-.906-.6.076-1.095,13.69-30.1,15.036-33.168a7.9,7.9,0,0,0,.692-1.384Z" transform="translate(68.297 41.38)" fill="#811c14"/>
    <path id="Caminho_1662" data-name="Caminho 1662" d="M328.214,225.91l.491.239c-.226.226-.2.075-.214.365a12.3,12.3,0,0,1-1.17,3.662c-4.593,10.217-9.4,20.346-13.816,30.639-.264.6-.591,1.371-1.271,1.548-.566-.138-.39.025-.654-.34.642-.768.994-.491,1.246-1.2-.214-.4-.076-.252-.44-.478,1.434-2.6,2.932-6.379,4.2-9.11,3.787-8.128,7.285-16.295,11.186-24.385l.453-.919Z" transform="translate(68.317 41.532)" fill="#dfb7af"/>
    <path id="Caminho_1663" data-name="Caminho 1663" d="M272.428,214.279c2.189.4,3.674,1.938,3.146,4.266a7.185,7.185,0,0,1-.214.742c-1.787,2.479-3.838,1.887-6.644,1.887H254.661c-1.623,0-4.115.289-5.36-.755a3.455,3.455,0,0,1-1.208-2.391c-.34-4.605,5.348-3.724,8.3-3.724h10.179c1.812.013,4.039.075,5.826-.038Z" transform="translate(51.917 38.517)"/>
    <circle id="Elipse_18" data-name="Elipse 18" cx="232.868" cy="232.868" r="232.868" transform="translate(69.646 74.197)" fill="#dccab0" stroke="#fff" stroke-miterlimit="10" stroke-width="20"/>
    <g id="Grupo_195" data-name="Grupo 195" transform="translate(47.06 65.1)">
      <path id="Caminho_1664" data-name="Caminho 1664" d="M409.67,243.483v-.013Z" transform="translate(46.591 -19.033)" fill="#fff"/>
      <path id="Caminho_1665" data-name="Caminho 1665" d="M544.428,98.167c-96.773,1.535-109.608,10.179-113.7,13.174l-.566.428c-.226.176-.428.352-.617.516l-.151.138c-.289.264-.554.528-.793.78l-.239.264c-.264.3-.5.617-.73.931l-.1.151c-.176.264-.327.528-.466.78a20.22,20.22,0,0,0-17.993-1.372,9.988,9.988,0,0,0-2,1.019,15.279,15.279,0,0,0-1.485-.6,15.8,15.8,0,0,0-12.155.692l-4.744,2.29-.566.315a3.364,3.364,0,0,0-.415.277,12.639,12.639,0,0,0-11.186-.78h-.013v-8.141l-10.532,14.558c-.277-.113-.541-.2-.83-.3a13.746,13.746,0,0,0-10.733.893l-5.511,2.881a15.654,15.654,0,0,0-8.38,12.96c-5.234,1.9-10.381,3.875-15.4,5.914.088-.39.164-.793.239-1.208.113-.679.214-1.4.277-2.152q.151-1.6.151-3.473a69.723,69.723,0,0,0-1.032-11.022c-.1-.629-.214-1.271-.34-1.938-.516-2.844-1.007-5.939-1.472-9.2-.793-5.662-1.5-11.954-2.1-18.7-.365-4.039-.679-8.229-.956-12.457-.075-1.246-.151-2.428-.214-3.548s-.126-2.177-.176-3.146-.1-1.887-.138-2.705c-.151-3.221-.2-5.134-.2-5.171l-.176-6.115H216.4l.679,6.908c.264,2.73,6.568,67.091,11.954,96.27,1.2,6.455,3.12,11.249,5.9,14.659.377.453.742.868,1.12,1.246l.2.189c.34.34.692.642.994.893l.226.176a14.311,14.311,0,0,0,2.6,1.661l.164.076a11.775,11.775,0,0,0,1.12.466l.164.063a11.9,11.9,0,0,0,1.321.39l.214.05c.138.025.277.063.415.088l1.057,4.341.805,3.221c.164.629.315,1.271.478,1.9a20.8,20.8,0,0,0,.617,9.978,15.061,15.061,0,0,0-.78,17.062l1.988,3.246a12.571,12.571,0,0,0,1.913,17l3.888,3.334a12.8,12.8,0,0,0-.768,3.221,12.6,12.6,0,0,0,4.1,10.607l5.977,5.36a10.394,10.394,0,0,0,4.693,2.428c2.517,7.059,5.184,14.055,7.952,20.912-4.3-.277-9.336,1.271-16.471,3.485-2.466.755-5.247,1.623-8.267,2.479-20.7,5.914-53.061,9.852-53.388,9.9l-5.536.667v29.9h-68.45A21.254,21.254,0,0,0,88.18,353.407v70.7H47.06V537.844H401.741V424.109h-41.12V375.037a3,3,0,0,0,.264-.164l.289-.176c.176-.113.352-.227.516-.352a13.058,13.058,0,0,0,11.337.906l3.234-1.271a14.822,14.822,0,0,0,8.317-8.1c.189-.453.352-.906.5-1.371a11.509,11.509,0,0,0,2.441-.654,20.555,20.555,0,0,0,4.832-2.642l.629-.491a3.286,3.286,0,0,0,.39-.34c.365-.3.717-.629,1.107-1.007.113-.1.214-.214.34-.34.39-.4.768-.83,1.158-1.3l.214-.252a17.841,17.841,0,0,0,1.183-1.686c.088-.138.176-.277.239-.4.277-.466.541-.931.78-1.422.076-.164.164-.327.277-.579.2-.428.377-.868.591-1.422.076-.189.138-.377.189-.528.164-.5.315-1.007.44-1.5.05-.164.088-.34.126-.491a17.727,17.727,0,0,0,.34-1.988c.025-.214.05-.428.063-.654.038-.415.063-.83.076-1.271v-.516c.013-.189,0-.39,0-.591-.013-.415-.038-.83-.076-1.258q5.153-1.887,10.179-3.762c1.359-.5,2.73-1.007,4.127-1.522.151,3.46.6,7.474,1.12,12.054a551.762,551.762,0,0,1,3.888,67.946v6.291H520.786l-.428-6.694c-.453-7.071-.931-13.992-1.46-20.56q-.378-4.813-.78-9.3c-.994-11.375-2.114-21.869-3.322-31.167-.428-3.259-.868-6.43-1.309-9.4-.566-3.775-1.158-7.411-1.774-10.8-.3-1.648-.591-3.221-.893-4.706s-.591-2.919-.893-4.278c-.428-1.95-.868-3.85-1.321-5.662-.289-1.17-.591-2.265-.868-3.3-1.183-4.266-3.737-13.451-8.393-18.056a16.818,16.818,0,0,0,3.007-5.26,17.668,17.668,0,0,0,.78-2.944l.063-.415c.063-.466.113-.944.138-1.5l.025-.541c0-.138.013-.277.013-.415,0-.264,0-.529-.025-.78v-.189c-.013-.2-.025-.4-.05-.642-.05-.591-.138-1.17-.239-1.724-.025-.113-.038-.226-.063-.327-.126-.566-.277-1.158-.466-1.736-.063-.189-.126-.365-.2-.579-.151-.415-.315-.83-.5-1.258a6.7,6.7,0,0,0-.3-.629c-.2-.4-.4-.793-.617-1.132a.275.275,0,0,0-.038-.063c.088-.226.164-.466.239-.7.038-.138.088-.264.138-.478.126-.415.227-.831.327-1.321.038-.164.063-.315.088-.428.1-.579.176-1.158.226-1.749v-.34a7.9,7.9,0,0,0,.05-.944,3.711,3.711,0,0,0-.025-.528c-.013-.44-.05-.881-.1-1.371a6.137,6.137,0,0,0-.076-.654,16,16,0,0,0-.466-2.189l-1.22-4.266-.2.05.2-.063a12.9,12.9,0,0,0-2.579-4.794,13.759,13.759,0,0,0,.554-9.689l-2.517-8.128a13.66,13.66,0,0,0-4.945-6.971,3.22,3.22,0,0,0,.063-.34c.05-.214.088-.428.113-.617q.075-.491.113-.944l7.16,3.5-7.7-9.072a20.181,20.181,0,0,0-.906-2.667c-.126-.315-.277-.617-.415-.893a18.5,18.5,0,0,0-3.775-5.222c-.138-.151-.277-.289-.39-.39l-2.831-2.592c-.541-.491-1.12-.969-1.824-1.5l-.377-.277c-.667-.478-1.309-.881-1.938-1.246a2.675,2.675,0,0,0-.264-.138c-.365-.2-.73-.4-1.095-.579l-1.321-.642H475a22.985,22.985,0,0,0-3.347-1.07c-.239-.654-.478-1.309-.7-1.963l-.34-.956c-.516-1.422-1.032-2.819-1.535-4.19l-.289-.793c-.768-2.076-1.535-4.14-2.3-6.153a31.554,31.554,0,0,0,5.26-1.07l3.46-.856c.919-.214,1.925-.453,3.007-.692,2.454-.541,5.008-1.057,7.575-1.51q2.17-.377,4.605-.755c2.6-.39,5.285-.742,7.99-1.044,1.925-.214,3.951-.415,6.065-.591a310.54,310.54,0,0,1,39.849-.6l6.568.289V98.079l-6.392.1ZM377.985,354.854ZM130.7,381.68v-7.109H135.4A47.932,47.932,0,0,0,130.7,381.68Zm3.158,29.783a10.391,10.391,0,0,0,10.834-4.152c3.2-4.517,8.128-9.437,12.419-9.739.805-.05,3.271-.226,6.77,3.5a10.606,10.606,0,0,0,6.48,3.259l8.091,19.73H130.7V410.168A10.581,10.581,0,0,0,133.855,411.464Zm93.1,12.6H209.88l-7.512-18.346c3.649-.528,9.89-1.447,17.7-2.743l6.9,21.089Zm39.032,0h-3.2l-8.959-27.367q7.587-1.585,14.6-3.209a26.172,26.172,0,0,0-2.441,30.576Zm52.1-49.488v21.114a26.646,26.646,0,0,0-7,1.522,26.3,26.3,0,0,0-13.073-11.186l.088-.919c8.544-3.259,14.156-6.694,17.1-10.519h2.881Zm0,46.279v3.2h-1.158ZM358,249.927c-2.73-3.485-5.272-6.971-7.3-9.978,1.51-.956,3.3-2.114,5.3-3.435h0c.73-.478,1.472-.981,2.265-1.51q5.4-3.643,10.582-7.436a108.385,108.385,0,0,0,8.066,9.06,82.415,82.415,0,0,0-14.47,9.7c-1.661,1.283-3.158,2.517-4.454,3.6Z" transform="translate(-47.06 -65.1)" fill="#fff"/>
    </g>
    <g id="Grupo_206" data-name="Grupo 206" transform="translate(198.014 71.354)">
      <g id="Grupo_198" data-name="Grupo 198" transform="translate(25.329)">
        <path id="Caminho_1666" data-name="Caminho 1666" d="M195.483,101.28c10.217,58.27,23.165,110.061,37.962,152.666,14.948,43.02,34.955,83.272,51.966,102.461a13.8,13.8,0,0,0,15.728,3.573h0a3.8,3.8,0,0,0,1.774-5.448l-12.381-20.724,14.734,24.675a8.068,8.068,0,0,0,9.9,3.36l3.083-1.22a6.4,6.4,0,0,0,3.41-8.707l-10.192-21.29,12.344,25.983a6.765,6.765,0,0,0,8.569,3.4l3.234-1.271a8.635,8.635,0,0,0,4.769-11.5l-10.054-23.077,9.311,21.365a5.73,5.73,0,0,0,7.285,3.07h0a13.838,13.838,0,0,0,8.518-16.219c-4.618-18.9-18.27-61.957-33.759-79.485-6.694-7.575-12.608-14.822-17.968-24.335-11.815-20.988-21.114-53.376-31.406-127.261H195.47Z" transform="translate(-185.014 -62.009)" fill="#e47a4e"/>
        <path id="Caminho_1667" data-name="Caminho 1667" d="M321.7,252.876c-6.694-7.575-14.458-17.905-17.968-24.335-16.735-30.651-21.68-67.758-25.379-88.016-2.818-15.414-4.077-29-6.027-39.245H195.48c6.493,37.006,14.08,71.394,22.548,102.486h0a1,1,0,0,0,.05.164.4.4,0,0,0,.038.113h0c4.844,17.754,9.965,34.439,15.338,49.89,8.9-4.089,43.511-17.578,56.974-15.212,16.4,2.881,30.639,12.721,37.194,22.133a64.442,64.442,0,0,0-5.914-8Z" transform="translate(-185.011 -62.009)" fill="#bc5335"/>
        <g id="Grupo_196" data-name="Grupo 196" transform="translate(101.726 229.269)">
          <path id="Caminho_1668" data-name="Caminho 1668" d="M284.733,310.022a3.788,3.788,0,0,1-2.315,3.5,2.751,2.751,0,0,0,.315-3.272l-13.476-22.359a8.868,8.868,0,0,1-1.233-5.109l.1-1.611L284.2,308.084a3.807,3.807,0,0,1,.541,1.95Z" transform="translate(-268.006 -244.819)" fill="#bc5335"/>
          <path id="Caminho_1669" data-name="Caminho 1669" d="M299.74,308.649a6.411,6.411,0,0,1-3.762,7.814h0a3.785,3.785,0,0,0,1.221-4.668l-14.445-31a10.341,10.341,0,0,1-.78-6.505l.415-2.026,16.987,35.483,2.152,4.693-1.8-3.787Z" transform="translate(-264.453 -247.12)" fill="#bc5335"/>
          <path id="Caminho_1670" data-name="Caminho 1670" d="M309.368,315.764h0a6.364,6.364,0,0,0,2.378-7.889l-13.916-31.9a8.073,8.073,0,0,1-.44-5.184l.78-3.183,15.225,34.942.742,1.7a8.645,8.645,0,0,1-4.769,11.5Z" transform="translate(-260.479 -248.321)" fill="#bc5335"/>
          <path id="Caminho_1671" data-name="Caminho 1671" d="M325.746,296.659a13.9,13.9,0,0,1-5.159,10.771l-.466.352a17.151,17.151,0,0,0,1.46-13.715l-7.965-25.178a33.282,33.282,0,0,1-1.422-12.822l.327-3.787a321.87,321.87,0,0,1,12.809,41.082,14.149,14.149,0,0,1,.4,3.3Z" transform="translate(-256.624 -252.28)" fill="#bc5335"/>
        </g>
        <g id="Grupo_197" data-name="Grupo 197">
          <path id="Caminho_1672" data-name="Caminho 1672" d="M212.25,180.355c-3.4-14.7,66.072-44.87,68.035-32.979,0,0,5.411-1.258,1.762-21.428C277.6,101.4,276.7,70.08,276.7,70.08H187.16s6.48,66.487,11.878,95.742c3.548,19.226,13.212,14.546,13.212,14.546Z" transform="translate(-187.16 -70.067)" fill="#4aa1a8"/>
          <path id="Caminho_1673" data-name="Caminho 1673" d="M273.389,70.07H256.327c.264,14.961,1.422,31.192,2.668,42.378a31.832,31.832,0,0,1-19.654,33.13c-28.21,11.3-41.724,26.612-39.032,32.061,4.014,4.932,8.619,2.705,8.619,2.705-3.4-14.7,66.072-44.87,68.035-32.979,0,0,5.411-1.258,1.762-21.428-4.442-24.549-5.348-55.867-5.348-55.867Z" transform="translate(-183.851 -70.07)" fill="#3e9193"/>
        </g>
      </g>
      <g id="Grupo_201" data-name="Grupo 201" transform="translate(51.64 33.105)">
        <path id="Caminho_1674" data-name="Caminho 1674" d="M467.135,101.28V174.1c-51.941-1.862-114.792,16.257-132.458,30.513-7.839,6.329-15.452,11.752-21.5,15.829-.768.516-1.51,1.007-2.227,1.485-6.342,4.2-10.481,6.618-10.481,6.618a6.658,6.658,0,0,0-8.518-3.02L231.3,251.429a2.007,2.007,0,0,0-1.221,1.762v.113a1.989,1.989,0,0,0,.113.654,4.14,4.14,0,0,1-4.832-.5l-5.977-5.36a6.251,6.251,0,0,1,1.019-10.054l34.212-20.006-34.187,19.981-8.38-7.185a6.267,6.267,0,0,1,.541-9.915l1.573-1.082-4.769-7.763a8.842,8.842,0,0,1,2.617-12l.088-.05-1.082-3.032a14.649,14.649,0,0,1,4.907-16.584c23.2-17.742,97.189-64.147,251.2-79.107Z" transform="translate(-208.07 -95.114)" fill="#fbc9a6"/>
        <path id="Caminho_1675" data-name="Caminho 1675" d="M317.51,197.877c25.568-12.6,77.371-25.354,121.36-23.781V101.28c-47.9,4.656-88.066,12.356-121.36,21.277v75.32Z" transform="translate(-179.806 -95.114)" fill="#f9a577"/>
        <g id="Grupo_199" data-name="Grupo 199" transform="translate(6.291 70.765)">
          <path id="Caminho_1676" data-name="Caminho 1676" d="M213.083,185.234h0a12.587,12.587,0,0,1,4.618-5.989L235.882,166.6a33.048,33.048,0,0,0,9.789-10.7l1.875-3.284h0a32.924,32.924,0,0,1-13.489,18.635L213.07,185.234Z" transform="translate(-213.07 -152.62)" fill="#f9a577"/>
          <path id="Caminho_1677" data-name="Caminho 1677" d="M217.34,197.279h0a6.115,6.115,0,0,1,2.592-5l26.034-18.434h0a16.116,16.116,0,0,1-6.14,8.04Z" transform="translate(-211.967 -147.137)" fill="#f9a577"/>
          <path id="Caminho_1678" data-name="Caminho 1678" d="M221.42,212.554a4.873,4.873,0,0,0,.126-.742,5.616,5.616,0,0,1,2.655-4.177l29.393-17.8-.151.34a17.14,17.14,0,0,1-6.983,7.738l-25.027,14.634Z" transform="translate(-210.913 -143.01)" fill="#f9a577"/>
          <path id="Caminho_1679" data-name="Caminho 1679" d="M308.718,196.2c-.768.516-1.51,1.007-2.227,1.485-6.342,4.2-10.481,6.618-10.481,6.618a6.658,6.658,0,0,0-8.518-3.02l-60.649,25.908a2.007,2.007,0,0,0-1.221,1.762l-.214-1.623a4.209,4.209,0,0,1,2.5-4.417l58.812-25.2a32.3,32.3,0,0,1,17.83-2.189l4.165.679Z" transform="translate(-209.893 -141.645)" fill="#f9a577"/>
          <path id="Caminho_1680" data-name="Caminho 1680" d="M259.77,202.653l1.221-.516a8.317,8.317,0,0,0,5-8.506l-.214-2.1.981,2.3a6.076,6.076,0,0,1-4.442,8.342l-2.529.491Z" transform="translate(-201.009 -142.571)" fill="#f9a577"/>
          <path id="Caminho_1681" data-name="Caminho 1681" d="M253.85,185.243l1.221-.516a8.317,8.317,0,0,0,5-8.506l-.214-2.1.982,2.3a6.076,6.076,0,0,1-4.442,8.342l-2.529.491Z" transform="translate(-202.538 -147.067)" fill="#f9a577"/>
          <path id="Caminho_1682" data-name="Caminho 1682" d="M246.99,168.293l1.22-.516a8.318,8.318,0,0,0,5-8.506l-.214-2.1.981,2.3a6.076,6.076,0,0,1-4.442,8.342l-2.529.491Z" transform="translate(-204.31 -151.445)" fill="#f9a577"/>
        </g>
        <g id="Grupo_200" data-name="Grupo 200" transform="translate(182.619)">
          <path id="Caminho_1683" data-name="Caminho 1683" d="M465.459,96.38C335.782,98.431,354.1,113.329,354.1,113.329c10.871-2.705,31.495,64.461,28.009,65.015,0,0,2.026,4.1,4.744,4.115,3.485,0,26.4-9.475,78.6-7.134V96.38Z" transform="translate(-353.204 -96.38)" fill="#78896a"/>
          <path id="Caminho_1684" data-name="Caminho 1684" d="M380.729,146.3c-9.563-28.462-21.026-42.479-25.493-40.29-3.762,2.768-1.145,4.895-1.145,4.895,10.871-2.705,31.495,64.461,28.009,65.015,0,0,2.026,4.1,4.744,4.115,3.485,0,26.4-9.475,78.6-7.134V156.764c-20.56-3.574-46.984-.516-63.719,2.227a18.927,18.927,0,0,1-21-12.709Z" transform="translate(-353.206 -93.951)" fill="#60704d"/>
        </g>
      </g>
      <g id="Grupo_203" data-name="Grupo 203" transform="translate(148.769 47.417)">
        <path id="Caminho_1685" data-name="Caminho 1685" d="M447.2,374.527H368.016c-1.762-60.2-9.424-104.965-22.661-127.7l-.843-1.409a40.082,40.082,0,0,0-9.311-10.821c-19.5-14.936-26.474-26.927-26.474-26.927a12.591,12.591,0,0,0,4.869-9.94,12.391,12.391,0,0,0-1.107-5.146l-.642-1.434-25.795-57.453a9.381,9.381,0,0,1,4.253-12.079l5.511-2.881a7.625,7.625,0,0,1,10.356,3.372l.227.478a2.234,2.234,0,0,1,.214-2.252l2.1-2.907a11.554,11.554,0,0,1,4.958-3.913l3.75-1.548A6.314,6.314,0,0,1,325.5,115l14.923,30.211-12.834-26.046c-1.145-5.02,2.328-7.147,2.328-7.147l4.744-2.29a9.6,9.6,0,0,1,12.834,4.492,5.236,5.236,0,0,1,.4-3.775,3.651,3.651,0,0,1,1.925-1.611,13.977,13.977,0,0,1,17.855,6.618c15.351,30.538,62.725,134.22,79.535,259.078Z" transform="translate(-285.263 -107.755)" fill="#754841"/>
        <path id="Caminho_1686" data-name="Caminho 1686" d="M367.349,140.79c-11.425,5.31,7.059,57.893-20.019,68.009l4.4,10.2h45.2C386.7,187.736,376.132,161.073,367.349,140.79Z" transform="translate(-269.233 -99.223)" fill="#431e2f"/>
        <path id="Caminho_1687" data-name="Caminho 1687" d="M351.986,338.76h79.183a795.77,795.77,0,0,0-18.3-92.521c-24.914,7.449-49.815,20.774-65.543,30.1A619.328,619.328,0,0,1,352,338.761Z" transform="translate(-269.233 -71.988)" fill="#431e2f"/>
        <path id="Caminho_1688" data-name="Caminho 1688" d="M302.205,122.249a2.564,2.564,0,0,1,.214-2.642l1.988-2.743h0a11.387,11.387,0,0,0,1.032,7.336l12.23,24.5a6.448,6.448,0,0,1,.227,5.385h0l-15.678-31.834Zm33.91,22.41h0a6.054,6.054,0,0,0-.113-5.31L326.628,120.6a12.859,12.859,0,0,1-1.019-9.135h0s-3.485,2.126-2.328,7.147Zm20.938-6.568L343.59,109.88h0a5.237,5.237,0,0,0-.4,3.775l14.08,29.167.063-.2a6.168,6.168,0,0,0-.277-4.542Zm-49.525,52.495.642,1.434a12.56,12.56,0,0,1-3.762,15.087s6.971,11.991,26.474,26.927a39.483,39.483,0,0,1,9.311,10.821l-32.677-54.282Zm35.5-25.354c-2.152,9.324-13.162,7.273-13.162,7.273C343.2,177.738,343.024,165.231,343.024,165.231ZM363.5,155.09c-2.152,9.324-13.161,7.273-13.161,7.273C363.672,167.6,363.5,155.09,363.5,155.09Z" transform="translate(-280.957 -107.206)" fill="#431e2f"/>
        <g id="Grupo_202" data-name="Grupo 202" transform="translate(74.078 185.057)">
          <path id="Caminho_1689" data-name="Caminho 1689" d="M349.25,283.013c1.359,13.791,72.753-5.473,68.626-22.171l-1.447-6s13.526-2.366,20.887,114.037H349.25c-.05-73.483-11.085-86.934-.579-90.8Z" transform="translate(-344.136 -254.825)" fill="#f4eee6"/>
          <path id="Caminho_1690" data-name="Caminho 1690" d="M416.415,254.831l1.447,6c4.14,16.7-67.255,35.961-68.626,22.171l-.579-4.932c-3.2,1.17-4.391,3.548-4.517,8.355,1.938,7.864,27.971,7.147,45.927.365,19.327-7.3,30.249,13.891,33.709,82.077H437.3c-7.361-116.4-20.887-114.037-20.887-114.037Z" transform="translate(-344.135 -254.827)" fill="#dccab0"/>
        </g>
      </g>
      <g id="Grupo_205" data-name="Grupo 205" transform="translate(0 145.169)">
        <path id="Caminho_1691" data-name="Caminho 1691" d="M458.559,259.954a10.71,10.71,0,0,1-5.637,7.8c-17.817,9.261-55.238,24.738-98.12,40.265-5.159-20.006-18.3-60.12-33.105-76.88-.944-1.07-1.862-2.126-2.781-3.183.78-.654,1.56-1.309,2.315-1.975,8.015-6.971,15.527-13.753,28.563-18.5l5.134,4.215c29.469-15.552,58.434-24.247,70.551-26.071a16.922,16.922,0,0,1,13.891,4.24l2.844,2.592a12.353,12.353,0,0,1,4.026,8.871,7.293,7.293,0,0,1-5.939,7.311l-26.549,5.046,28.915-5.5a7.408,7.408,0,0,1,8.456,5.083l2.517,8.128a7.486,7.486,0,0,1-5.2,9.45l-28.751,7.826,27.8-7.512a6.668,6.668,0,0,1,8.141,4.593l1.233,4.278a10.865,10.865,0,0,1-1.824,9.626l.214.2a11.533,11.533,0,0,1,3.309,10.091Zm-211.4,7.688c-18.811,7.2-37.094,12.369-51.677,15.074v71.746c24.675-4.24,55.666-12.457,87.739-22.359-11.639-14.13-24.486-37.471-36.062-64.448Z" transform="translate(-159.682 -185.442)" fill="#fed194"/>
        <path id="Caminho_1692" data-name="Caminho 1692" d="M446.24,200.978a7.277,7.277,0,0,1-4.152,6.732l-1.762.579h0l-22.032,5.058a.236.236,0,0,0-.1.025,14.041,14.041,0,0,1-8.317-.692l-3.8-1.535,31.356-7.776a6.175,6.175,0,0,0,3.46-10.041l-5.524-6.518h0a17.1,17.1,0,0,1,4.014,2.718l2.831,2.592a12.353,12.353,0,0,1,4.014,8.871Zm-48.846,5.461c2.479,9.324-6.442,12.482-6.442,12.482C404.667,215.952,397.394,206.439,397.394,206.439ZM411.7,229.1c2.479,9.324-6.442,12.482-6.442,12.482C418.974,238.613,411.7,229.1,411.7,229.1Zm41.951-8.053-2.517-8.128,1.07,3.586a5.861,5.861,0,0,1-4.077,7.323l-18.887,5.109a13.856,13.856,0,0,0-9.538,9.4l28.751-7.826a7.487,7.487,0,0,0,5.184-9.462Zm3.636,21.642a10.723,10.723,0,0,0-.428-3.007L455.64,235.4a7.121,7.121,0,0,1-5.033,8.569l-26.638,7.348a3.619,3.619,0,0,1-3.888-1.359c-.013-.025-.025-.025-.025-.025,2.479,9.324-6.442,12.482-6.442,12.482a14.855,14.855,0,0,0,5.864-2.391,10.969,10.969,0,0,1,3.7-1.887l31.847-8.833a10.9,10.9,0,0,0,2.252-6.618Zm-2.038,6.82-.214-.2s5.624,7.134,0,11.161l-56.383,23.983c-6.115,2.6-22.146,9.94-26.373,15.061l-2.24,2.542c32.942-12.092,68.4-27.141,82.87-34.653a10.678,10.678,0,0,0,5.637-7.8,11.521,11.521,0,0,0-3.309-10.091ZM195.48,282.363v71.746c24.675-4.24,55.666-12.457,87.739-22.359-11.639-14.13-24.486-37.471-36.062-64.448-18.811,7.2-37.094,12.369-51.677,15.074Zm154.327-75.232c-15.6,5.562-30.89,20.472-30.89,20.472s18.006-7.663,36.024-16.257l-5.134-4.215Z" transform="translate(-159.682 -185.089)" fill="#e8a452"/>
        <path id="Caminho_1693" data-name="Caminho 1693" d="M320.542,261.908c-10.192-31.092-26.965-41.586-18.27-45.361l-2.5-1.548c-1.3,1.107-2.567,2.227-3.863,3.347-.755.667-1.535,1.321-2.315,1.976.906,1.057,1.837,2.114,2.781,3.183,14.81,16.76,27.946,56.886,33.105,76.88q3.643-1.321,7.222-2.63c-7.977,2.944-5.964-4.781-16.144-35.836Z" transform="translate(-134.344 -177.809)" fill="#e8a452"/>
        <g id="Grupo_204" data-name="Grupo 204" transform="translate(0 80.528)">
          <path id="Caminho_1694" data-name="Caminho 1694" d="M248.7,253.277C238.575,257.43,269.428,321.991,280,318.77c0,0,6.291,8.053-31.155,17.817-38.277,9.978-81.813,15.766-81.813,15.766V265.306s32.929-3.964,54.357-10.091c16.9-4.832,25.128-9.16,27.33-1.938Z" transform="translate(-167.03 -249.441)" fill="#4b8287"/>
          <path id="Caminho_1695" data-name="Caminho 1695" d="M248.84,336.566c37.459-9.764,31.155-17.817,31.155-17.817-10.569,3.209-41.422-61.353-31.293-65.493a4.778,4.778,0,0,0-3.372-3.611h0c-5.952-1.485-6.48,10.569,1.371,32.375q2.7,7.493,5.033,13.237A19.287,19.287,0,0,1,238.786,321.1c-16.7,4.4-48,10.129-71.746,11.815v19.4s43.549-5.788,81.813-15.766Z" transform="translate(-167.027 -249.42)" fill="#3a6d70"/>
        </g>
      </g>
    </g>
    <g id="Grupo_207" data-name="Grupo 207" transform="translate(53.339 301.956)">
      <path id="Caminho_1696" data-name="Caminho 1696" d="M236.137,438.745a8.847,8.847,0,0,1,11.186,5.662l5.335,16.357a21.48,21.48,0,0,0-.252-32.01,21.776,21.776,0,0,0-9.84-4.932L229.192,382.9,212.369,331.49l-.138-.428a21.433,21.433,0,0,0-5.134-32.916,19.772,19.772,0,0,0-4.442-1.975,21.4,21.4,0,0,0-4.077-.881l5.36,16.357a8.877,8.877,0,1,1-16.873,5.524l-5.36-16.358a21.521,21.521,0,0,0-5.914,22.573,20.923,20.923,0,0,0,3.724,6.832,21.024,21.024,0,0,0,12.344,7.524l12.57,38.49,17.553,53.678.2.579a.474.474,0,0,1-.088.1,21.428,21.428,0,0,0,2.63,31.079l.05.038a4.307,4.307,0,0,0,.415.3,21.836,21.836,0,0,0,10.632,4.253l-5.335-16.358a8.858,8.858,0,0,1,5.662-11.186Z" transform="translate(-20.369 -242.506)" fill="#d0ccc6"/>
      <path id="Caminho_1697" data-name="Caminho 1697" d="M235.167,454.386,253.9,266.2a.586.586,0,0,0-.176-.44c1.359-.969,3.209-2.957,1.585-5.964a64.821,64.821,0,0,1-3.171-6.455s-6.077,7.726-2.328,12.155a.3.3,0,0,0-.063.176L221,452.6c-.919,6,1.611,11.526,5.675,12.042h0c4.064.516,7.889-4.215,8.493-10.255Z" transform="translate(-8.465 -253.34)" fill="#c19a66"/>
      <path id="Caminho_1698" data-name="Caminho 1698" d="M297.394,297.263v151.86H267.46V297.263a14.967,14.967,0,1,1,29.934,0Z" transform="translate(3.584 -245.863)" fill="#2d5895"/>
      <path id="Caminho_1699" data-name="Caminho 1699" d="M323.142,311.133H90.45V286.37H323.142a12.381,12.381,0,0,1,12.381,12.381h0A12.38,12.38,0,0,1,323.142,311.133Z" transform="translate(-42.132 -244.809)" fill="#81899d"/>
      <rect id="Retângulo_135" data-name="Retângulo 135" width="112.175" height="101.152" transform="translate(229.923 128.394)" fill="#d0ccc6"/>
      <rect id="Retângulo_136" data-name="Retângulo 136" width="112.175" height="101.152" transform="translate(0 128.394)" fill="#2d5895"/>
      <path id="Caminho_1700" data-name="Caminho 1700" d="M114.677,449.124H84.73V297.263A14.977,14.977,0,0,1,99.7,282.29h0a14.977,14.977,0,0,1,14.973,14.973Z" transform="translate(-43.61 -245.863)" fill="#2d5895"/>
      <path id="Caminho_1701" data-name="Caminho 1701" d="M281.432,336.286a19.965,19.965,0,0,0-18.106,2.353c-.289.2-.579.415-.868.629-.076-.352-.164-.692-.264-1.044a19.966,19.966,0,1,0-25.971,24.222,19.625,19.625,0,0,0,4.932,1.095l-14.609,54.974,13.1,4.706,22.661-49.274.654-1.409.453-.994a20.257,20.257,0,0,0,4.5,2.3,19.964,19.964,0,0,0,13.514-37.572ZM249.4,351.071a5.719,5.719,0,0,1-4.253,3.7,10.975,10.975,0,0,1-1.7.2,11.3,11.3,0,1,1,3.372-21.932,11.371,11.371,0,0,1,4.832,3.36,5.754,5.754,0,0,1,1.007,5.65l-3.246,9.022Zm35.861,7.977a11.312,11.312,0,0,1-18.132,4.442,10.466,10.466,0,0,1-1.208-1.271,5.652,5.652,0,0,1-.906-5.473l3.284-9.11A5.649,5.649,0,0,1,272.461,344a11.318,11.318,0,0,1,12.809,15.074Z" transform="translate(-7.897 -235.172)" fill="#925539"/>
      <path id="Caminho_1702" data-name="Caminho 1702" d="M190.575,288.564l-9.89,4.052a3.663,3.663,0,0,0-2,4.781l2.781,6.782a4.3,4.3,0,0,0-.919.415c-3.322,2.038-7.575,3.4-11.2,1.762-3.649-1.648-7.172-3.624-8.82-5.612a4.16,4.16,0,0,0-4.517-1.283c-9.8,3.3-41.221,16.03-41.46,44.115a4.177,4.177,0,0,0,3.259,4.1h0a4.174,4.174,0,0,0,4.316-1.648c4.165-5.889,16.4-20.246,28.9-6.908a4.222,4.222,0,0,0,4.656,1.044l1.17-.478L200.288,445.7a3.032,3.032,0,0,0,3.964,1.661l9.651-3.951a3.032,3.032,0,0,0,1.661-3.964L172.128,333.434l2.995-1.221a4.252,4.252,0,0,0,2.554-3.271c.415-2.542,2.328-6.757,9.789-10.1L189,322.575a3.663,3.663,0,0,0,4.781,2l9.89-4.052a3.663,3.663,0,0,0,2-4.781l-10.305-25.165a3.663,3.663,0,0,0-4.781-2Z" transform="translate(-35.908 -244.311)" fill="#925539"/>
      <rect id="Retângulo_137" data-name="Retângulo 137" width="229.911" height="101.152" transform="translate(112.175 128.394)" fill="#81899d"/>
      <rect id="Retângulo_138" data-name="Retângulo 138" width="342.098" height="2.693" transform="translate(0 157.913)" fill="#fff"/>
      <rect id="Retângulo_139" data-name="Retângulo 139" width="342.098" height="2.693" transform="translate(0 197.322)" fill="#fff"/>
    </g>
  </g>
</svg>
