<svg xmlns="http://www.w3.org/2000/svg" xmlns:xlink="http://www.w3.org/1999/xlink" width="502.326" height="509.004" viewBox="0 0 502.326 509.004">
  <defs>
    <linearGradient id="linear-gradient" x1="-43.621" y1="135.682" x2="-41.356" y2="136.291" gradientUnits="objectBoundingBox">
      <stop offset="0" stop-color="#bca99c"/>
      <stop offset="1" stop-color="#d6bdbf"/>
    </linearGradient>
    <linearGradient id="linear-gradient-2" x1="-2.569" y1="38.641" x2="-4.2" y2="32.948" gradientUnits="objectBoundingBox">
      <stop offset="0" stop-color="#997c65"/>
      <stop offset="1" stop-color="#ae9675"/>
    </linearGradient>
    <linearGradient id="linear-gradient-3" x1="-6.315" y1="22.241" x2="-3.365" y2="17.519" gradientUnits="objectBoundingBox">
      <stop offset="0" stop-color="#9b8368"/>
      <stop offset="1" stop-color="#c0b6a3"/>
    </linearGradient>
    <linearGradient id="linear-gradient-4" x1="-5.067" y1="31.592" x2="-5.947" y2="36.54" gradientUnits="objectBoundingBox">
      <stop offset="0" stop-color="#9f8969"/>
      <stop offset="1" stop-color="#c2ab91"/>
    </linearGradient>
    <linearGradient id="linear-gradient-5" x1="-0.77" y1="13.087" x2="-0.519" y2="8.22" gradientUnits="objectBoundingBox">
      <stop offset="0" stop-color="#9c8268"/>
      <stop offset="1" stop-color="#bcae93"/>
    </linearGradient>
    <linearGradient id="linear-gradient-6" x1="8.151" y1="8.797" x2="8.251" y2="9.51" gradientUnits="objectBoundingBox">
      <stop offset="0" stop-color="#060a10"/>
      <stop offset="1" stop-color="#172e28"/>
    </linearGradient>
  </defs>
  <g id="NUSMAD_CRISE_TopicosOp1_Top02" transform="translate(1.829)">
    <ellipse id="Elipse_4" data-name="Elipse 4" cx="241.163" cy="241.163" rx="241.163" ry="241.163" transform="translate(8.171 16.678)" fill="#dccab0" stroke="#fff" stroke-miterlimit="10" stroke-width="20"/>
    <g id="Grupo_121" data-name="Grupo 121" transform="translate(0 0)">
      <path id="Caminho_893" data-name="Caminho 893" d="M556.182,519.286a15.827,15.827,0,0,0-6.1-8.275c-12.366-29.2-43.276-33.437-67.683-31.639-7.193.534-14.438,2.476-20.81,4.2-.925.248-1.837.5-2.736.73-2.88.313-6.555.391-9.3.456-1.564.039-3.61.222-5.981.43-.925.078-2.2.2-3.44.287l-5-5.056-3.414,3.323a14.344,14.344,0,0,0-5.056-2.645,138.906,138.906,0,0,0-15.09-3.584c-1.876-.378-3.727-.73-5.473-1.121-1.42-.313-2.932-.691-4.5-1.095-2.4-.6-4.926-1.238-7.506-1.759v-2.059c2.15-.078,4.339-.182,6.568-.352,12.08-.925,23.9-1.785,35.783-2.319l19.234-1.016c.287-.013.691-.026,1.173-.026,6.763-.156,18.608-.417,23.169-8.757l11.9-.56a62.762,62.762,0,0,0,11.48-1.16c1.916-.482,4.209-1.225,6.411-1.955,1.029-.339,2.02-.665,2.854-.912l1.108-.391c9.017-3.7,14-11.793,12.992-21.11-1-9.265-2.763-19.781-5.369-32.147a65.127,65.127,0,0,0-1.069-7.063l-2.359-12.875-6.424-36.408L485.1,195.207l-4.522-25.384c-.235-1.29-.443-2.567-.665-3.857-.482-2.828-.977-5.747-1.577-8.692-1.694-8.353-7.675-14.738-15.233-16.289a74.159,74.159,0,0,0-12.718-1.16c-.769-.026-1.538-.052-2.228-.078l-21.058-.964c-.912-.039-1.916-.078-2.971-.117-.417-.013-.847-.026-1.29-.052-2.906-13.344-14.021-30.831-29.163-34.076-5.082-1.095-11.376-1.3-16.927-1.5-2.15-.078-4.183-.143-5.838-.248s-3.323-.235-5.03-.378c-7.011-.547-14.907-1.16-22.53-.534-4.079-.5-7.988-.743-11.793-.964A37.387,37.387,0,0,0,325.9,75.584a35.743,35.743,0,0,0-22.57-15.376c-11.611-2.319-19.768,1.707-26.844,6.411l-.639.443c-4.509,3.414-9.982,8.483-12.392,17.487a36.978,36.978,0,0,0-1.121,12.458c-2.554-.182-5.173-.313-7.884-.287-3.258-.665-8.3-.977-18.243-1.316-1.577-.052-2.841-.091-3.544-.143L202.21,93.423c-1.173-.065-2.75-.169-4.522-.3-8.327-.573-15.1-.977-19.494-.639-6.072.065-13.122,1.186-19.95,8.131-6.555,6.659-11.311,17.357-14.165,25.918-7.024-.313-17.149-.951-24.733-1.42-17.97-1.121-25.606-1.564-28.85-1.329-.456.026-.821.039-1.121.052-4.991.13-7.623,1.394-11.637,4.183l-.612.443c-.339.274-.769.6-1.277.977-9.995,7.662-17.07,13.748-17.11,22.2-.026,5.968,1.108,13.748,2.1,20.615.222,1.551.443,3.023.625,4.339l6.489,47.745L85.87,355.383c2.163,16.38,4.457,32.981,6.841,49.309.3,2.15.612,4.535.925,7,.678,5.225,1.368,10.633,2.215,15.207.2,1.264.573,4.027,1,7.206,3.792,27.743,4.678,31.6,6.568,34.871l.378.652.456.6c3.232,4.313,9.825,9.213,16.68,9.773a107.9,107.9,0,0,0,17.149-.456c2.111-.169,4.1-.339,5.994-.43l58.9-3.232,21.579-1.329c.482-.026,1.186-.091,2.033-.156s2.645-.208,4.313-.313c3.088,2.671,7.506,5.473,12.653,5.812.639.039,1.277.078,1.916.1a14.664,14.664,0,0,0-8.5,4.274l-2.906,2.932-.586,4.092s-.313,2.58-.365,5.9H233c-2.254.1-4.574.209-7,.43l-2.254.222h-.039c-1.486.1-3.1.2-4.782.274a176.431,176.431,0,0,0-17.944,1.538l-5.538.208-3.583,4.418c-3.127,3.857-3.349,8.249-3.349,15.051,0,2.619.091,7.284.352,9.382l.951,7.923,7.571,2.489c4.431,1.459,8.874,3.245,13.591,5.147,1.394.56,2.776,1.121,4.157,1.668l4.144,1.642c8.626,3.4,17.54,6.932,26.166,10.555l1.069.456a61.858,61.858,0,0,0,9.773,3.505l.795.2.821.091a55.381,55.381,0,0,0,5.577.248c4.978,0,11.1-.443,18.191-1,2.254-.182,4.3-.339,6.007-.443l65.376-4.522,106.371-7.818c16.823-1.016,33.854-2.189,50.508-3.479,2.606-.182,5.225-.352,7.832-.521,5.682-.378,11.558-.756,17.383-1.225l.651-.065c.443-.065.925-.1,1.42-.156,3.323-.339,8.353-.847,12.744-3.714,6.216-4.053,6.437-10.959,6.541-14.282,0-.182,0-.352.013-.521l.482-2.606-.951-3Z" transform="translate(-58.74 -59.532)" fill="#fff"/>
      <g id="Grupo_120" data-name="Grupo 120" transform="translate(12.601 12.543)">
        <path id="Caminho_894" data-name="Caminho 894" d="M280.544,74.152c5.747-3.818,10.36-5.968,17.435-4.561A22.952,22.952,0,0,1,312.5,79.507a24.81,24.81,0,0,1,3.492,18.348c-.612,3.245-2.945,6.763-4.887,9.369a26,26,0,0,0,3.714,2.215c8.509,1.095,16.836.977,25.423,2.124,8.653-.9,18.3.235,26.948.808,6.1.4,15.233.261,20.967,1.5,9.93,2.137,19.455,17.774,19.989,27.547a34.609,34.609,0,0,0,.73,5.942c4.222.756,10.438.821,14.777,1.016l21.032.964c4.235.169,8.887.156,13,1,2.984.612,4.9,3.727,5.46,6.5.834,4.066,1.46,8.157,2.189,12.249l4.522,25.384,26.44,149.2,6.424,36.4,2.228,12.2a51.366,51.366,0,0,1,1.042,7.1,322.7,322.7,0,0,1,5.395,31.965c.417,3.922-1.668,6.672-5.291,8.17-2.515.769-6.333,2.124-8.653,2.7-2.385.6-7.6.73-10.229.86l-13.865.665c-1.355.078-11.128.508-11.7.86,1.433,1.225,4.183,3.167,4.665,4.848-.6,3.075-11.7,2.8-14.269,2.945L432.862,453.4c-12.04.534-24.068,1.42-36.083,2.346-6.072.456-12.249.365-18.361.938l-51.329,3.023-17.435.99c-4.235.235-9.03.417-13.2.964-10.855,1.368-22.778,1.355-33.737,2.072-6.763.443-14.4,1.2-21.2.756-2.658-.169-6.411-3.531-8.053-5.668-1.564-.7-10.19.169-12.562.326l-21.553,1.329L140.54,463.7c-6.8.352-14.66,1.459-21.436.912-2.567-.208-6.112-2.723-7.649-4.8-1.512-2.619-5.225-32.525-6.085-37.92-1.186-6.411-2.15-15.233-3.088-21.866q-3.577-24.57-6.815-49.179L77.536,219.759l-6.489-47.732c-.9-6.607-2.645-16.875-2.606-23.2.013-3.375,10.451-10.92,13.591-13.4,3.414-2.372,3.088-1.8,6.476-2.033,6.281-.43,60.02,3.974,62.3,2.763l.117-.652c1.863-8.7,7.1-22.583,13.409-28.994,3.544-3.6,6.724-4.391,11.6-4.391,4.73-.5,17.527.639,22.752.912l30.375,1.837c3.375.209,18.856.43,21.006,1.525,5.694-.248,11.428.521,17.123.847,2.619.143,9.109.86,11.493.378-.782-1.121-1.837-2.15-2.684-3.284-4.027-5.369-4.978-13.057-3.271-19.468,1.29-4.834,3.961-7.779,7.845-10.724ZM301.8,102.494a11.536,11.536,0,0,0,2.489-8.092,15.5,15.5,0,0,0-4.952-10.724A14.551,14.551,0,0,0,288.1,79.859c-1.759.886-2.632,2.619-3.258,4.417a15.175,15.175,0,0,0,4.248,15.924c2.984,2.632,9.33,5.629,12.705,2.293Z" transform="translate(-68.4 -69.157)" fill="#f9f8f4"/>
        <path id="Caminho_895" data-name="Caminho 895" d="M150.89,127.835c1.863-8.7,7.1-22.583,13.409-28.994,3.544-3.6,6.724-4.391,11.6-4.391a38.447,38.447,0,0,1,6.033,6.333c5.238,7.923,7.532,20.55,8.874,29.815a207.9,207.9,0,0,1,1.876,21.4c-6.776-.143-14.347-.678-21.188-.964l-.795.039.586.339c.782,3.688,1.433,8.535,2.085,12.405q2.951,16.868,5.33,33.815c3.323,22.856,7.219,45.908,8.144,69.051.156,3.961.287,7.91.4,11.871q.919,33.209-.925,66.432c-.639,12.2-1.381,24.277-2.645,36.434-.169,1.629-.248,3.284-.456,4.9-.469,5.89-2.007,12.21-2.385,17.6a2.78,2.78,0,0,0,1.264.352l-1.629.13-45.439,1.942c-2.02.1-12.145.365-13.292.678l-16.38,7.206c-1.186-6.411-2.15-15.233-3.088-21.866q-3.577-24.57-6.815-49.179L77.526,212.093l-6.489-47.732c-.9-6.607-2.645-16.875-2.606-23.2.013-3.375,10.451-10.92,13.591-13.4,3.414-2.372,3.088-1.8,6.476-2.033,6.281-.43,60.02,3.974,62.3,2.763l.117-.652Z" transform="translate(-68.403 -61.491)" fill="#e6dbcb"/>
        <path id="Caminho_896" data-name="Caminho 896" d="M150.893,127.835c1.863-8.7,7.1-22.583,13.409-28.994,3.544-3.6,6.724-4.391,11.6-4.391a38.448,38.448,0,0,1,6.033,6.333c5.238,7.923,7.532,20.55,8.874,29.815a207.894,207.894,0,0,1,1.876,21.4c-6.776-.143-14.347-.678-21.188-.964l-.795.039c-13.474-.834-27.091-1.121-40.591-1.8-7.91-.391-16.041-.925-23.951-.912,1.746,8.77,2.828,19.6,4.118,28.668q4.378,29.984,8.431,60.033l21.345,150.728c14.269-.456,28.9-1.225,43.158-1.473-.469,5.89-2.007,12.21-2.385,17.6a2.78,2.78,0,0,0,1.264.352l-1.629.13-45.439,1.942c-2.02.1-12.145.365-13.292.678l-16.38,7.206c-1.186-6.411-2.15-15.233-3.088-21.866q-3.577-24.57-6.815-49.179L77.516,212.093l-6.489-47.732c-.9-6.607-2.645-16.875-2.606-23.2.013-3.375,10.451-10.92,13.591-13.4,3.414-2.372,3.088-1.8,6.476-2.033,6.281-.43,60.02,3.974,62.3,2.763l.117-.652Z" transform="translate(-68.406 -61.491)" fill="#2f3030"/>
        <path id="Caminho_897" data-name="Caminho 897" d="M82.014,120.013a25.467,25.467,0,0,1,.639,4.209q1.075,6.841,1.968,13.7,3.284,22.185,6.255,44.4L112.9,338.072q2.7,18.237,5.134,36.5c.847,6.542,2.15,18.765,3.688,24.681l-16.38,7.206c-1.186-6.411-2.15-15.233-3.088-21.866q-3.577-24.57-6.815-49.179L77.506,204.323l-6.489-47.732c-.9-6.607-2.645-16.875-2.606-23.2.013-3.375,10.451-10.92,13.591-13.4Z" transform="translate(-68.409 -53.747)" fill="#1b1e20"/>
        <path id="Caminho_898" data-name="Caminho 898" d="M131.713,127.835c1.863-8.7,7.1-22.583,13.409-28.994,3.544-3.6,6.724-4.391,11.6-4.391a38.447,38.447,0,0,1,6.033,6.333c5.238,7.923,7.532,20.55,8.874,29.815-5.773,0-12.64-.508-18.452-.795-.886-.2-3.193-.1-4.222-.182-3.258-.274-14.49-.3-17.018-1.095l-.235-.691Z" transform="translate(-49.227 -61.491)" fill="#706c60"/>
        <path id="Caminho_899" data-name="Caminho 899" d="M148.391,121.59c5.812.3,12.679.782,18.452.795a207.907,207.907,0,0,1,1.876,21.4c-6.776-.143-14.347-.678-21.188-.964,0-.534-.026-.13.091-.573a43.764,43.764,0,0,0,.925-14.438c-.182-1.655-.964-4.522-.821-5.942l.678-.274Z" transform="translate(-44.429 -53.266)" fill="#1b1e20"/>
        <path id="Caminho_900" data-name="Caminho 900" d="M329.686,129.18c4.222.756,10.438.821,14.777,1.016l21.032.964c4.235.169,8.887.156,13,1,2.984.612,4.9,3.727,5.46,6.5.834,4.066,1.459,8.157,2.189,12.249l4.522,25.384,26.44,149.2,6.424,36.4,2.228,12.2a51.382,51.382,0,0,1,1.042,7.1c-.612-.443-.717-.365-1.681-.339-6.2.182-12.431.443-18.634.717l-24.6,1.069c-4.613.235-9.213.443-13.826.6-2.176.091-7.428.078-9.3.612q-2.463-8.327-4.782-16.706c-.873-2.267-1.746-5.955-2.4-8.418L348.021,345c-8.418-32.89-11.272-63.838-11.7-97.706-.222-18.087.13-36.083-.6-54.183q-.489-15.227-1.694-30.414c-.248-3.1-.665-9.76-1.225-12.588-.56-7.245-2.2-13.891-3.14-20.928Z" transform="translate(10.773 -50.965)" fill="#e6dbcb"/>
        <path id="Caminho_901" data-name="Caminho 901" d="M329.683,129.18c4.222.756,10.438.821,14.777,1.016l21.032.964c4.235.169,8.887.156,13,1,2.984.612,4.9,3.727,5.46,6.5.834,4.066,1.459,8.157,2.189,12.249l4.522,25.384,26.44,149.2,6.424,36.4,2.228,12.2a51.386,51.386,0,0,1,1.042,7.1c-.612-.443-.717-.365-1.681-.339-6.2.182-12.431.443-18.634.717l-24.6,1.069c-4.613.235-9.213.443-13.826.6-2.176.091-7.428.078-9.3.612q-2.463-8.327-4.782-16.706a63,63,0,0,0,7.154-.117l12.484-.56c8.561-.365,21.423-.352,29.71-1.264-1.968-14.516-4.913-30.375-7.362-44.9l-11.4-68.595q-4.945-30.961-10.229-61.871c-2.059-12.588-3.961-26.062-6.555-38.467-11.454-.013-23.443-.86-34.962-1.251-.56-7.245-2.2-13.891-3.14-20.928Z" transform="translate(10.776 -50.965)" fill="#2f3030"/>
        <path id="Caminho_902" data-name="Caminho 902" d="M207.451,331.08c3,11.115,5.825,26.127,11.181,36.3a77.3,77.3,0,0,0,4.3,8.483,12.3,12.3,0,0,1,1.942,3.57c-1.564-.7-10.19.169-12.562.326l-21.553,1.329-58.808,3.219c-6.8.352-14.66,1.459-21.436.912-2.567-.209-6.111-2.723-7.649-4.8-1.512-2.619-5.225-32.525-6.085-37.92l16.38-7.206c1.147-.313,11.272-.573,13.292-.678l45.439-1.942,1.629-.13c1.746-.065,3.779-.182,5.5-.117,1.955-.261,5.76-.209,7.975-.287l14.412-.6a41.2,41.2,0,0,0,6.085-.456Z" transform="translate(-59.811 10.229)" fill="#c3bdac"/>
        <path id="Caminho_903" data-name="Caminho 903" d="M206.036,331.08c3,11.115,5.825,26.127,11.181,36.3a77.3,77.3,0,0,0,4.3,8.483,12.3,12.3,0,0,1,1.942,3.57c-1.564-.7-10.19.169-12.562.326l-21.553,1.329-58.808,3.219c-6.8.352-14.66,1.459-21.436.912-2.567-.209-6.111-2.723-7.649-4.8,2.189-2.567,12.014-5.968,15.507-7.167,1.42,3.623,6.151,7.832,10.073,7.636,8.822-.43,18.452-.7,27.2-1.642a34.648,34.648,0,0,1,2.267-4.8c6.607-13.279,10.281-27.508,13.982-41.777l1.629-.13c1.746-.065,3.779-.182,5.5-.117,1.955-.261,5.76-.209,7.975-.287l14.412-.6a41.213,41.213,0,0,0,6.085-.456Z" transform="translate(-58.395 10.229)" fill="#877e6d"/>
        <path id="Caminho_904" data-name="Caminho 904" d="M188.329,331.08c3,11.115,5.825,26.127,11.181,36.3a77.306,77.306,0,0,0,4.3,8.483c-.743.339-.469.378-1.095.313-6.568-.717-13.787.274-20.393.678-2.111.13-6.059.665-8,.482-1.277-5.838-3.154-11.871-4.8-17.618q-2.346-8.268-4.4-16.6c-.847-3.414-1.837-7.115-2.359-10.555-.977-.013-1.929-.078-2.893-.13,1.955-.261,5.76-.209,7.975-.287l14.412-.6a41.213,41.213,0,0,0,6.085-.456Z" transform="translate(-40.689 10.229)" fill="#706c60"/>
        <path id="Caminho_905" data-name="Caminho 905" d="M116.941,363.44c1.42,3.623,6.151,7.832,10.073,7.636,8.822-.43,18.452-.7,27.2-1.642,1.577.235,11.024-.443,13.135-.573q12.334-.84,24.694-1.342c1.942.182,5.89-.352,8-.482,6.607-.391,13.826-1.381,20.393-.678.612.065.352.026,1.095-.313a12.3,12.3,0,0,1,1.942,3.57c-1.564-.7-10.19.169-12.562.326l-21.553,1.329-58.809,3.219c-6.8.352-14.66,1.46-21.436.912-2.567-.209-6.112-2.723-7.649-4.8,2.189-2.567,12.015-5.968,15.507-7.167Z" transform="translate(-58.392 20.037)" fill="#454b45"/>
        <path id="Caminho_906" data-name="Caminho 906" d="M113.15,334.31c1.355,11.181,2.984,22.3,4.457,33.476.2,1.525.43,3,.756,4.5-3.492,1.2-13.3,4.6-15.507,7.167-1.512-2.619-5.225-32.525-6.085-37.92l16.38-7.206Z" transform="translate(-59.814 11.208)" fill="#706c60"/>
        <path id="Caminho_907" data-name="Caminho 907" d="M147.708,137.889c6.841.3,14.412.821,21.188.964.86,12.471.925,26.661,1.225,39.288q.586,41.712,2.671,83.372c2.189,37.32,8.314,74.055,15.65,110.658,1.108,5.5,2.411,12.041,3.831,17.461a41.086,41.086,0,0,1-6.085.456l-14.412.6c-2.2.065-6.02.026-7.975.287-1.72-.052-3.753.065-5.5.117a2.782,2.782,0,0,1-1.264-.352c.391-5.382,1.929-11.7,2.385-17.6.208-1.616.287-3.271.456-4.9,1.264-12.158,2.007-24.238,2.645-36.434q1.837-33.19.925-66.432c-.117-3.961-.248-7.91-.4-11.871-.925-23.143-4.808-46.195-8.144-69.051q-2.365-16.947-5.33-33.815c-.665-3.87-1.3-8.718-2.085-12.405l-.586-.339.795-.039Z" transform="translate(-44.62 -48.337)" fill="#302b27"/>
        <path id="Caminho_908" data-name="Caminho 908" d="M157.078,318.657q14.5-.117,29.007-.977c1.108,5.5,2.411,12.041,3.831,17.461a41.069,41.069,0,0,1-6.085.456l-14.412.6c-2.2.065-6.02.026-7.975.287-1.72-.052-3.753.065-5.5.117a2.781,2.781,0,0,1-1.264-.352c.391-5.382,1.929-11.7,2.385-17.6Z" transform="translate(-42.262 6.168)" fill="#1b1e20"/>
        <path id="Caminho_909" data-name="Caminho 909" d="M401,325.322c1.889-.534,7.128-.521,9.3-.612,4.613-.169,9.213-.365,13.826-.6l24.6-1.069c6.2-.274,12.432-.534,18.634-.717.964-.026,1.068-.1,1.681.339a322.7,322.7,0,0,1,5.395,31.965c.417,3.922-1.668,6.672-5.291,8.17-2.515.769-6.333,2.124-8.653,2.7-2.385.6-7.6.73-10.229.86l-13.865.665c-1.355.078-11.128.508-11.7.86,1.433,1.225,4.183,3.167,4.665,4.847-.6,3.075-11.7,2.8-14.269,2.945l-19.181,1.016c-12.041.534-24.068,1.42-36.083,2.346-6.072.456-12.249.365-18.361.938L290.149,383l-17.435.99c-4.235.235-9.03.417-13.2.964-10.855,1.368-22.778,1.355-33.737,2.072-6.763.443-14.4,1.2-21.2.756-2.658-.169-6.411-3.531-8.053-5.668a12.3,12.3,0,0,0-1.942-3.57,76.149,76.149,0,0,1-4.3-8.483c1.381,1.043,5.76,11.181,8.053,13.239.652,1.029,4.47,3.805,5.708,3.883,8.6.612,17.057-.834,25.684-.86,5.46,0,11.4-1.446,16.94-.873,2.554.261,4.848-.7,7.362-.86l24.107-1.368,67.331-4.313c4.248-.261,8.574.117,12.861-.508,1.212-.182,2.776.508,3.531-.43,9.2-.443,18.321-1.3,27.482-1.486,1.811-.065,3.61-.586,5.421-.665.873-.039,1.512.743,2.411.508,3.323-.873,6.7-.665,10.086-.873l12.366-.782c3.935-.235,5.655.469,9.161-1.916-.6-1.746-5.447-4.847-7.076-6.255a40.17,40.17,0,0,1-3.649-3.649c-8.483-9.578-13.239-25.241-17.057-37.49Z" transform="translate(-31.472 7.569)" fill="#c3bdac"/>
        <path id="Caminho_910" data-name="Caminho 910" d="M367.09,355.641l34.9-2.085c3.987-.208,8.431-.508,12.444-.586a2.233,2.233,0,0,1,1.134.534c-2.515.769-6.333,2.124-8.653,2.7-2.385.6-7.6.73-10.229.86l-13.865.665c-1.355.078-11.128.508-11.7.86-1.863-.639-2.684-1.577-4.027-2.932Z" transform="translate(22.118 16.864)" fill="#454b45"/>
        <path id="Caminho_911" data-name="Caminho 911" d="M238.3,74.152c5.747-3.818,10.36-5.968,17.435-4.561a22.953,22.953,0,0,1,14.516,9.917,24.81,24.81,0,0,1,3.492,18.348c-.612,3.245-2.945,6.763-4.887,9.369a26,26,0,0,0,3.714,2.215c8.509,1.095,16.836.977,25.423,2.124,4.574,2.137,6.867,5.1,8.731,9.786a7.111,7.111,0,0,1,.691,3.492c-.7-.417-18.178-1.108-20.068-1.225l-56.893-3.167-11.076-.625a48.048,48.048,0,0,1-6.281-.326c-.378-1.694-3.974-11.793-4.756-12.458l.339-.339-.873-.313c5.695-.248,11.428.521,17.123.847,2.619.143,9.109.86,11.493.378-.782-1.121-1.837-2.15-2.684-3.284-4.027-5.369-4.978-13.057-3.271-19.468,1.29-4.834,3.961-7.779,7.845-10.724Zm21.253,28.342a11.535,11.535,0,0,0,2.489-8.092,15.5,15.5,0,0,0-4.952-10.724,14.551,14.551,0,0,0-11.233-3.818c-1.759.886-2.632,2.619-3.258,4.417a15.175,15.175,0,0,0,4.248,15.924c2.984,2.632,9.33,5.629,12.705,2.293Z" transform="translate(-26.159 -69.157)" fill="#302b27"/>
        <path id="Caminho_912" data-name="Caminho 912" d="M231.323,106.456c-.782-1.121-1.837-2.15-2.684-3.284-4.027-5.369-4.978-13.057-3.271-19.468,1.29-4.834,3.961-7.779,7.845-10.724-.743,2.176-1.994,4.1-2.684,6.138a24.677,24.677,0,0,0,3.258,21.384c1,1.433,2.88,2.15,2.411,3.857a7.047,7.047,0,0,1-4.9,2.085Z" transform="translate(-21.082 -67.999)" fill="#454b45"/>
        <path id="Caminho_913" data-name="Caminho 913" d="M237.01,78.193c1.095-1.707,3.636-2.945,5.59-3.323,12.34-2.4,21.11,15.9,11.832,24.185-1.173,1.056-2.059,2.306-3.714,1.772a11.536,11.536,0,0,0,2.489-8.092,15.5,15.5,0,0,0-4.952-10.724,14.551,14.551,0,0,0-11.233-3.818Z" transform="translate(-17.308 -67.491)" fill="#2f3030"/>
        <path id="Caminho_914" data-name="Caminho 914" d="M212.672,107.8a48.172,48.172,0,0,0,6.281.326l11.076.625,56.893,3.167c1.889.1,19.377.808,20.068,1.225q-1.583,4.066-3.323,8.066c-1.082-.026-2.241-.078-3.31-.078-1.89-.209-4.861-.235-6.867-.339q-8.522-.508-17.031-.9l-45.282-2.424c-4.769-.261-18.374-.573-22-1.5.7-1,2.789-6.659,3.492-8.17Z" transform="translate(-25.743 -57.445)" fill="#454b45"/>
        <path id="Caminho_915" data-name="Caminho 915" d="M210.454,98.246c.782.678,4.378,10.764,4.756,12.458-.7,1.512-2.789,7.167-3.492,8.17,3.636.938,17.227,1.238,22,1.5L279,122.8q8.522.391,17.031.9c2.007.117,4.965.13,6.867.339a25.192,25.192,0,0,1-1.746,4.5c-8.105.4-18.23-.612-26.44-1.029q-22.635-.977-45.269-2.28c-3.9-.208-7.806-.365-11.7-.5a46.485,46.485,0,0,1-7.362-.547c-3.466-2.984-7.245-7.076-9.083-11.324-2.163-5.017,3.531-6.932,4.365-9.356.821-2.5,2.737-3.74,4.782-5.278Z" transform="translate(-28.281 -60.349)" fill="#c3bdac"/>
        <path id="Caminho_916" data-name="Caminho 916" d="M209.322,98.24c.782.678,4.378,10.764,4.756,12.458-.7,1.512-2.789,7.167-3.492,8.17a22.975,22.975,0,0,1-3.753-3.18c1.655-2.984,2.984-6.372,1.381-9.812-.795-1.694-2.02-1.9-3.675-2.359.821-2.5,2.736-3.74,4.782-5.278Z" transform="translate(-27.15 -60.343)" fill="#2f3030"/>
        <path id="Caminho_917" data-name="Caminho 917" d="M223.34,161.059c2.958-2.789,15.155-16.693,16.289-5.043.182,1.876-1.863,3.818-3.167,5,.691.86.678.586.756,1.512-1.2,3.219-10.75,8.327-12.614,11.728a6.147,6.147,0,0,0-.248,2.111c0,1.3.1,2.606.209,3.909.456,5.538.521,11.128,1.095,16.654-4.209-.352-9.356-.391-13.617-.521l-25.228-.665c0-5.89-.7-12-.9-17.917-.287-8.353-1.225-16.654-1.486-25.032q12.647.7,25.293,1.212c4.183.182,9.083.248,13.2.639.078,2.137.222,4.274.417,6.411Z" transform="translate(-33.245 -44.22)" fill="#454b45"/>
        <path id="Caminho_918" data-name="Caminho 918" d="M223,161.059c2.958-2.789,15.155-16.693,16.289-5.043.182,1.876-1.863,3.818-3.167,5,.691.86.678.586.756,1.512-1.2,3.219-10.75,8.327-12.614,11.728a6.147,6.147,0,0,0-.248,2.111,9.6,9.6,0,0,0-.652-3.844c-1.512,1.264-2.658,2.333-4.079,3.7l.117,2.137c-3.036,2.671-10.62,11.194-14.2,12.484l.026.261a21.518,21.518,0,0,0,2.723.43c-1.9.013-5.356.391-6.985.065l1.3-.169-.221-.117c-3.075-1.6-8.509-8.718-11.9-11.637-1.108-1.564-3.18-3.844-4.483-5.473-.521-5.825.964-3.153,4.313-5.147a3.477,3.477,0,0,1,1.824.443,142.169,142.169,0,0,1,10.685,10.842c4.652-5.512,11.3-10.1,15.741-15.181.99-.5,4.352-3.127,4.782-4.053Z" transform="translate(-32.902 -44.22)" fill="#bc5335"/>
        <path id="Caminho_919" data-name="Caminho 919" d="M215.7,170.45l.117,2.137c-3.036,2.671-10.62,11.194-14.2,12.484l.026.261a21.516,21.516,0,0,0,2.723.43c-1.9.013-5.356.391-6.985.065l1.3-.169-.221-.117c2.789-.573,4.6-3.258,6.646-5.238q5.18-5.043,10.607-9.838Z" transform="translate(-29.32 -38.457)" fill="#ceaea7"/>
        <path id="Caminho_920" data-name="Caminho 920" d="M214.57,170.3c2.867-3.1,9.421-8.561,12.757-11.506.691.86.678.586.756,1.512-1.2,3.219-10.751,8.327-12.614,11.728a6.146,6.146,0,0,0-.248,2.111A9.6,9.6,0,0,0,214.57,170.3Z" transform="translate(-24.11 -41.991)" fill="#ceaea7"/>
        <path id="Caminho_921" data-name="Caminho 921" d="M188.22,156.623c9.317.3,19.989,1.251,29.046,1.251-.052,1.694.091,3.948.143,5.668-4.444,5.1-11.089,9.669-15.741,15.181a142.174,142.174,0,0,0-10.685-10.842,3.476,3.476,0,0,0-1.824-.443l-.352-.261c-.378-3.271-.521-7.271-.573-10.568Z" transform="translate(-32.096 -42.651)" fill="#f9f8f4"/>
        <path id="Caminho_922" data-name="Caminho 922" d="M214.831,172.093c.665,4.391.326,9.356.86,13.513-4.1-.143-8.2-.261-12.3-.352a24.156,24.156,0,0,1-2.723-.43l-.026-.261c3.57-1.29,11.167-9.812,14.2-12.484Z" transform="translate(-28.332 -37.962)" fill="#f9f8f4"/>
        <path id="Caminho_923" data-name="Caminho 923" d="M189.073,173.083c3.388,2.932,8.822,10.047,11.9,11.637l.222.117-1.3.169c-2.476-.378-5.134-.274-7.688-.469a2.969,2.969,0,0,1-1.955-.274c-.925-1.459-.6-4.691-.652-6.646-.235-1.459-.378-3.062-.534-4.548Z" transform="translate(-31.841 -37.662)" fill="url(#linear-gradient)"/>
        <path id="Caminho_924" data-name="Caminho 924" d="M189.483,176.57c2.854,2.789,4.027,4.991,7.688,6.841-1.342,0-3.831-.065-5.082.078a2.969,2.969,0,0,1-1.955-.274c-.925-1.459-.6-4.691-.652-6.646Z" transform="translate(-31.718 -36.602)" fill="#f9f8f4"/>
        <path id="Caminho_925" data-name="Caminho 925" d="M226.407,205.919c2.619-2.267,4.939-5.069,7.571-7.584,3.831-3.662,8.8.065,7.258,4.665a10.064,10.064,0,0,1-2.02,2.593l.951.691c-.521,3.232-10.373,10.672-12.679,12.953a51.471,51.471,0,0,0,.313,7.858c.313,5.173,1,10.542,1.082,15.715-12.835.1-26.127-.248-38.988-.4-.013-1.564-.182-3.18-.248-4.743-.534-12.523-1.655-25.045-2.137-37.581,8.3.586,17.566.456,25.932.808,4.157.169,8.4,0,12.575.365.2,1.42.274,3.219.4,4.678Z" transform="translate(-32.311 -30.454)" fill="#454b45"/>
        <path id="Caminho_926" data-name="Caminho 926" d="M226.029,205.919c2.619-2.267,4.939-5.069,7.571-7.584,3.831-3.662,8.8.065,7.258,4.665a10.065,10.065,0,0,1-2.02,2.593l.951.691c-.521,3.232-10.373,10.672-12.679,12.953l-.2-1.9a28.1,28.1,0,0,0-4.417,4.639c-2.8,2.815-5.773,5.747-8.613,8.522-1.759,1.72-5.434,6.138-7.193,7.206-2.632.3-3.023-.521-4.7-2.267-3.023-3.4-5.551-6.229-8.8-9.434-1.564-1.863-3.427-3.649-4.222-5.981-.469-1.394-.078-1.929.417-3.3a11.07,11.07,0,0,0,3.245-1.655c3.258.847,10.242,8.926,12.718,11.832,5.186-5.251,11.558-11.35,16.445-16.732A18.984,18.984,0,0,0,226.029,205.919Z" transform="translate(-31.933 -30.454)" fill="#bc5335"/>
        <path id="Caminho_927" data-name="Caminho 927" d="M218.04,215.3c3.44-3.01,8.561-8.4,11.923-11.741l.951.691c-.521,3.232-10.373,10.672-12.679,12.953Z" transform="translate(-23.058 -28.421)" fill="#ceaea7"/>
        <path id="Caminho_928" data-name="Caminho 928" d="M191.3,203.32c9.851.443,19.755.339,29.658.782a28.787,28.787,0,0,0,.078,4.1c-4.887,5.395-11.272,11.48-16.445,16.732-2.476-2.906-9.46-10.972-12.718-11.832-.326-3.479-.547-6.307-.56-9.786Z" transform="translate(-31.163 -28.494)" fill="#f9f8f4"/>
        <path id="Caminho_929" data-name="Caminho 929" d="M218.326,216.13c.039.5.13,1.5.1,1.955q.547,6.978.977,13.956L214.339,232c-3.688.209-7.727-.182-11.532.13l-.287-.261c1.772-1.069,5.434-5.5,7.193-7.206,2.841-2.776,5.812-5.708,8.613-8.522Z" transform="translate(-27.762 -24.611)" fill="#f9f8f4"/>
        <path id="Caminho_930" data-name="Caminho 930" d="M218.329,216.13c.039.5.13,1.5.1,1.955a150.89,150.89,0,0,1-13.63,13.6c1.707.065,8.379.039,9.526.313-3.688.209-7.727-.182-11.532.13l-.287-.261c1.772-1.069,5.434-5.5,7.193-7.206,2.841-2.776,5.812-5.708,8.613-8.522Z" transform="translate(-27.765 -24.611)" fill="#ceaea7"/>
        <path id="Caminho_931" data-name="Caminho 931" d="M192.15,219.22c3.245,3.193,5.773,6.02,8.8,9.434-.456.612-.756,1.381-1.564,1.407-1.968-.6-4.926-5-6.581-6.737l-.2-.2c-.091-1.316-.287-2.606-.456-3.909Z" transform="translate(-30.905 -23.675)" fill="#ceaea7"/>
        <path id="Caminho_932" data-name="Caminho 932" d="M192.5,222.223l.2.2c1.655,1.733,4.613,6.138,6.581,6.737l.469.873-6.945-.143q-.235-3.831-.3-7.675Z" transform="translate(-30.799 -22.769)" fill="#f9f8f4"/>
        <path id="Caminho_933" data-name="Caminho 933" d="M199.267,226.46c1.694,1.759,2.072,2.567,4.7,2.267l.287.261a21.333,21.333,0,0,1-6.1-.235l-.469-.873c.808-.026,1.108-.795,1.564-1.407Z" transform="translate(-29.226 -21.48)" fill="#cf8585"/>
        <path id="Caminho_934" data-name="Caminho 934" d="M233.148,297.663c1.486-1.629,3.036-3.31,4.444-5,2.072-2.489,4.756-4.456,7.7-1.733a4.254,4.254,0,0,1,1.394,3.166c-.039,2.307-1.538,3.649-3,5.212.391,1.381.1,1.955-.886,3.062-2.033,2.267-5.408,6.932-8.066,8.223,1.095,7.61,1.694,16.432,2.906,23.768a91.061,91.061,0,0,1-9.851.652c-9.513.3-19.116.925-28.629,1.068q-.86-9.206-2.189-18.36l-.521-3.831c-.521-6.333-1.577-13.617-2.333-20.015,4.04.222,10.972-.091,15.051-.209q11.63-.313,23.247-.508a19.149,19.149,0,0,0,.7,4.5Z" transform="translate(-30.308 -2.34)" fill="#bc5335"/>
        <path id="Caminho_935" data-name="Caminho 935" d="M194.133,293.057c4.04.222,10.972-.091,15.051-.208q11.63-.313,23.247-.508a19.15,19.15,0,0,0,.7,4.5c-.6,1.095-3.036,4.1-4.1,4.613-4.887,6.177-10.672,12.549-15.78,18.725-3.023-2.854-9.265-9.786-12.914-10.112a10.578,10.578,0,0,1-3.883,3.023c-.521-6.333-1.577-13.617-2.332-20.015Z" transform="translate(-30.308 -1.513)" fill="#f9f8f4"/>
        <path id="Caminho_936" data-name="Caminho 936" d="M194.136,293.057c4.04.222,10.972-.091,15.051-.208q11.63-.313,23.247-.508a19.15,19.15,0,0,0,.7,4.5c-.6,1.095-3.036,4.1-4.1,4.613a8.312,8.312,0,0,1-.326-4.183c-9.122-.143-20.055.508-29.411.678.313,2.893,1.316,9.63,1.029,12.106a10.579,10.579,0,0,1-3.883,3.023c-.521-6.333-1.577-13.617-2.333-20.015Z" transform="translate(-30.311 -1.513)" fill="#454b45"/>
        <path id="Caminho_937" data-name="Caminho 937" d="M233.748,305.04l.326.886c1.095,7.61,1.694,16.432,2.906,23.768a91.047,91.047,0,0,1-9.851.652c-9.513.3-19.116.925-28.629,1.069q-.86-9.206-2.189-18.361c1.955.9,3.675,3.232,5.212,4.769,3.9,3.036,6.072,5.968,9.161,8.509a10.527,10.527,0,0,0,5.356-.352c1.029-1.108,2.046-2.306,3.049-3.466a120.3,120.3,0,0,1,9.864-11.845l1.016-1.225A26.379,26.379,0,0,1,233.748,305.04Z" transform="translate(-29.644 2.336)" fill="#454b45"/>
        <path id="Caminho_938" data-name="Caminho 938" d="M225.377,308.42c.6,4.574,1.446,11.324,1.707,15.872-4.5.065-11.167.248-15.624.678,1.029-1.108,2.046-2.306,3.049-3.466a120.3,120.3,0,0,1,9.864-11.845l1.016-1.225Z" transform="translate(-25.052 3.361)" fill="#f9f8f4"/>
        <path id="Caminho_939" data-name="Caminho 939" d="M213.79,321.215a120.3,120.3,0,0,1,9.864-11.845c.365,1.837-.091,2.15-1.173,3.792a38.157,38.157,0,0,1-7.493,8.092,4.1,4.1,0,0,1-1.2-.039Z" transform="translate(-24.346 3.649)" fill="#ceaea7"/>
        <path id="Caminho_940" data-name="Caminho 940" d="M200.32,314.86c3.9,3.036,6.072,5.968,9.161,8.509a52.918,52.918,0,0,0-6.463-.13c-.951.1-.56.222-1.277-.13a18.644,18.644,0,0,1-.625-3.857C200.88,317.8,200.594,316.319,200.32,314.86Z" transform="translate(-28.429 5.313)" fill="#ceaea7"/>
        <path id="Caminho_941" data-name="Caminho 941" d="M200.92,318.424l.248-.834c.43.065.261-.039.547.3a17.993,17.993,0,0,0,5.655,4.2,34.548,34.548,0,0,0-4.535.326c-.951.1-.56.222-1.277-.13a18.645,18.645,0,0,1-.625-3.857Z" transform="translate(-28.247 6.14)" fill="#f9f8f4"/>
        <path id="Caminho_942" data-name="Caminho 942" d="M234.318,297.06c.391,1.381.1,1.955-.886,3.062-2.033,2.267-5.408,6.932-8.066,8.223l-.326-.886A109.677,109.677,0,0,1,234.318,297.06Z" transform="translate(-20.936 -0.082)" fill="#ceaea7"/>
        <path id="Caminho_943" data-name="Caminho 943" d="M189.99,245.44l39.288.13c-.052,4.887,3.7,41.165,3.479,41.816a3.2,3.2,0,0,1-.222.352l-38.91.691c-.938-14.112-2.489-28.8-3.623-42.989Z" transform="translate(-31.56 -15.728)" fill="#454b45"/>
        <path id="Caminho_944" data-name="Caminho 944" d="M193.85,249.26H223.9c.339,3.57,2.828,31,2.515,32.538l-29.7.313c-1.095-10.946-1.837-21.892-2.867-32.851Z" transform="translate(-30.39 -14.57)" fill="#f9f8f4"/>
        <path id="Caminho_945" data-name="Caminho 945" d="M332.729,295.332a117.134,117.134,0,0,1,11.91-.1,2.807,2.807,0,0,1,2.111,4.417,4.661,4.661,0,0,1-2.163.612c-8.926.43-17.931.378-26.87.678q-32.427,1.056-64.881,1.577c-3.675.039-7.441.521-11.089.339-2.776-.13-3.466-2.111-2.815-4.5a3.822,3.822,0,0,1,2.541-.795c8.8-.482,17.709-.443,26.544-.7l64.7-1.551Z" transform="translate(-16.794 -0.674)" fill="#c3bdac"/>
        <path id="Caminho_946" data-name="Caminho 946" d="M342.86,303.929a17.252,17.252,0,0,1,4.248.248c1,1.824,2.2,4.874-1.173,4.939-11.65.248-23.286.73-34.936,1.055l-65.1,1.942c-1.8.117-3.844.378-5.317-.847-2.359-1.981-.274-4.378,2.163-4.509,3.193-.169,6.424-.1,9.63-.169l18.986-.534,71.5-2.137Z" transform="translate(-16.54 1.988)" fill="#c3bdac"/>
        <path id="Caminho_947" data-name="Caminho 947" d="M232.936,214.354c4.222-.182,9.76.091,14.126.117l34.74.469c10.737.208,21.5.456,32.238.521,7.519.039,15.025,0,22.543.313,1.407,2.163,1.446,2.554.547,4.965-1.616.235-5.069.117-6.841.143-5.173.065-10.386-.143-15.559-.2l-54.261-.7c-7.1-.117-14.23,0-21.332-.117-4.339-.065-8.079,0-6.2-5.5Z" transform="translate(-18.694 -25.168)" fill="#c3bdac"/>
        <path id="Caminho_948" data-name="Caminho 948" d="M229.8,159.935c6.085-.13,14.373.43,20.628.691l36.864,1.6,22.5.964c3.623.117,22.53.482,24.733,1.29,1.381,1.225,1.942,4.131-.274,4.522-14.712.13-31.808-1.147-46.612-1.668q-22.166-.626-44.331-1.642c-3.362-.13-6.763-.2-10.125-.313-1.6-.052-4.209.13-4.821-1.733-.521-1.577-.469-3.245,1.42-3.714Z" transform="translate(-20.014 -41.65)" fill="#c3bdac"/>
        <path id="Caminho_949" data-name="Caminho 949" d="M261.05,260.02l53.779-.1c4.365,0,23.547-.456,26.362.469,1.733,1.824,1.486,4.287-1.3,4.457-2.567.156-5.408.039-8,.026-5.069-.026-10.151.039-15.22.182l-56.072.287c-7.245,0-14.49.169-21.723.182-.6-.065-1.863-.026-2.28-.482-1.121-1.238-1.486-3.336-.313-4.587,2.2-.5,7.727-.339,10.268-.339q7.252,0,14.5-.065Z" transform="translate(-17.749 -11.374)" fill="#c3bdac"/>
        <path id="Caminho_950" data-name="Caminho 950" d="M230.182,169.133c4.965-.235,12.08.339,17.214.547l30.675,1.147c18.738.717,37.555,1.121,56.267,2.163,1.108.065,2.593,3.9-.208,4.73-8.418.13-18.712-.365-27.209-.7l-34.884-1.251-28.16-.99c-4.183-.13-8.822-.182-13.018-.43a2.635,2.635,0,0,1-1.629-1.3c-.73-1.59-.612-3.023.951-3.922Z" transform="translate(-19.797 -38.872)" fill="#c3bdac"/>
        <path id="Caminho_951" data-name="Caminho 951" d="M232.777,205.136c4.183-.169,9.747.026,13.982.091l32,.743,35.288.717c6.88.1,13.748.1,20.628.3,2.671.078,3.753,3.492,1.85,4.887-3.023.378-10.946,0-14.556-.078l-22.127-.274-36.916-.743c-4.261-.065-27.391.1-30.088-.925-1.368-1.3-1.043-3.31-.052-4.73Z" transform="translate(-18.848 -27.964)" fill="#c3bdac"/>
        <path id="Caminho_952" data-name="Caminho 952" d="M236.641,250.952l70.067.052c10.959,0,22.726-.2,33.62.117l1.147,2.385c-.586,1.368-.626,1.811-1.811,2.5-7.858.235-16.719.026-24.655.026H265.57l-19.182.091c-2.189.013-9,.182-10.659-.209-1.3-1.095-1.069-2.8-.4-4.248.274-.6.691-.547,1.3-.7Z" transform="translate(-17.982 -14.06)" fill="#c3bdac"/>
        <path id="Caminho_953" data-name="Caminho 953" d="M301.158,313.707c2.567-.117,6.255-.521,8.731.313.417.143.795,1.486.834,1.955.156,1.733-1.069,2.7-2.671,2.8-2.815.026-5.668.091-8.509.2l-20.445.7c-9.773.274-19.325.873-29.163.99-2.645.026-8.47,1.407-8.913-2.163-.352-2.763,1.329-2.75,3.466-2.932,5.8-.5,11.637-.417,17.448-.612l39.236-1.264Z" transform="translate(-16.107 4.902)" fill="#c3bdac"/>
        <path id="Caminho_954" data-name="Caminho 954" d="M230.654,178.107c4.079-.313,64.777,1.759,65.962,2.215a2,2,0,0,1,1.251,1.134,5.365,5.365,0,0,1-.222,3.44l-.469.13c-2.333.443-7.206.091-9.864.013q-8.5-.2-17.005-.56l-26.961-.847c-3.14-.1-6.333-.117-9.434-.274-1.056-.156-3.453-.013-4.014-1.134-.821-1.642-.7-3.1.769-4.131Z" transform="translate(-19.618 -36.145)" fill="#c3bdac"/>
        <path id="Caminho_955" data-name="Caminho 955" d="M287.77,268.656c2.463-.013,14.073-.6,15.546.586a2.56,2.56,0,0,1,.769,2.033,2.524,2.524,0,0,1-.469,1.9c-2.58.834-13.917.7-17.383.743q-17.22.254-34.428.3c-3.948-.026-10.646.691-14.595-.3-1.147-.287-1.16-3.336-.274-4.352,2.359-.586,11.141-.547,14.008-.586l36.812-.313Z" transform="translate(-17.521 -8.738)" fill="#c3bdac"/>
        <path id="Caminho_956" data-name="Caminho 956" d="M234.521,223.2c3.258-.248,6.88-.117,10.164-.091l17.931.287c11.988.208,24.459.052,36.33.534,1.512,1.85,2.28,3.323,0,5.03-4.7.156-9.943-.052-14.7-.13l-19.872-.2-18.426-.169c-3.127-.052-6.463-.248-9.552-.287-4.2-.065-4.691-3.544-1.876-4.978Z" transform="translate(-18.598 -22.512)" fill="#c3bdac"/>
        <path id="Caminho_957" data-name="Caminho 957" d="M266.268,371.518c4.17-.547,8.965-.743,13.2-.964l17.435-.99,51.329-3.023c.222,5.017.261,11.975.156,17.031-.013,1.381-.417,7.753.222,8.444,6.555-.717,15.142,2.163,21.709,3.6,6.164,1.342,13.526,2.5,19.442,4.391.586.2.938.182,1.186.834a12.225,12.225,0,0,1-.013,4.717c-1.681,0-6.932.4-8.288,1.068.365.795.182.834.86,1.042a17.192,17.192,0,0,1,5.134,2.2c-.026.795.13.6-.222,1.069a37.081,37.081,0,0,1,6.294.56c2.215-.7,2.645.248,4.913-.339l.052-.352c.443-.443.626-.313,1.433-.417a20.229,20.229,0,0,0,3.87-.1l-.287-.6c.951-.443.678-.1,1.056-.873-.4-1.446-2.163-2.007-3.232-2.906,1.055.86-.938-1.16-.612-.821,2.671.417,11.65-.743,14.842-.821a113.2,113.2,0,0,0,11.363-.652c7.063-1.837,14.881-4.235,22.126-4.769,23.573-1.746,48.4,2.385,56.632,27.834,1.889.99,3.675,1.486,4.261,3.349-.274,1.446.091,5.421-.977,6.111-2.333,1.512-6.255,1.59-8.991,1.955-8.366.678-16.732,1.173-25.085,1.746q-25.234,1.935-50.495,3.479l-106.449,7.819-65.324,4.509c-6.789.4-21.071,1.929-27.586,1.238a60.9,60.9,0,0,1-8.926-3.323c-10.125-4.261-20.354-8.262-30.557-12.3-6.072-2.411-12.236-5.017-18.439-7.05-.248-2.033-.547-14.021.274-15.038l.7-.026c6.685-1.238,17.6-1.407,24.694-1.955l.2-.091c4.4-.417,8.861-.365,13.409-.847l.808.1c4.053-.547,5.642-1.72,10.907-2.072-.782-1.329-5.486-1.915-6.151-3.166-.625-1.173-.456-9.8-.274-11.063.652-.665,1.134-.626,2.059-.782,7.128-.756,12.731-.951,19.729-1.407q15.559-1.075,31.157-1.824c.756-1.082.56-21.918.456-24.524Z" transform="translate(-38.213 20.977)" fill="#302b27"/>
        <path id="Caminho_958" data-name="Caminho 958" d="M337.333,404.353c1.929.365,5.473.1,7.61.052l.847.182v.508l.508.365,1.629.508,1.486.56-.652,1.329.521.534c-.039.508.026.352-.2.795-1.538,1.173-2.932.56-4.939.795-1.381.1-3.688.235-4.965.469-.782-1.355-1.16-1.355-2.658-1.981a24.831,24.831,0,0,0-4.235-1.85c.886-1.069,5.238-1.16,6.789-1.29a7.276,7.276,0,0,1-2.1-.795l.339-.2Z" transform="translate(11.57 32.433)" fill="#f9f8f4"/>
        <path id="Caminho_959" data-name="Caminho 959" d="M336.239,404.35c1.929.365,5.473.1,7.61.052l.847.182v.508l.508.365-.821.782c-1.942-1.655-3.388-.7-6.164-.886H338a7.7,7.7,0,0,1-2.1-.808l.339-.2Z" transform="translate(12.664 32.436)" fill="#9f876d"/>
        <path id="Caminho_960" data-name="Caminho 960" d="M343.244,405.213l1.629.508,1.486.56-.652,1.329a32.251,32.251,0,0,1-3.3-1.629l.821-.782Z" transform="translate(14.638 32.694)" fill="#9f876d"/>
        <path id="Caminho_961" data-name="Caminho 961" d="M225.9,421.12c1.043.612,1.5,1.381,2.632.847,1.147.665,5.2,2.815,5.89,3.466-.43,1.225-1,2.554-.6,3.792l.065.821a5.883,5.883,0,0,1-4.339.3,30.467,30.467,0,0,1,.235-4.079l-.039-.678c-.143-1.525-2.684-1.108-5.108-3.375.456-.951.339-.821,1.264-1.082Z" transform="translate(-21.058 37.519)" fill="#9f876d"/>
        <path id="Caminho_962" data-name="Caminho 962" d="M228.645,425.06c2.346,1.85.639,2.163,4.04,2.958l.065.821a5.883,5.883,0,0,1-4.339.3A30.457,30.457,0,0,1,228.645,425.06Z" transform="translate(-19.915 38.713)" fill="#706c60"/>
        <path id="Caminho_963" data-name="Caminho 963" d="M242.909,422.472c-.73-.756-.547-.339-.769-1.212l.261-.391c1.329-.3,1.212-.2,2.541.274,1.459.977,2.854,1.46,4.04,2.619a40.923,40.923,0,0,1-.534,4.652,1.857,1.857,0,0,0-2.072-.1c-.078-1.147.065-2.906,0-4.3a8.634,8.634,0,0,0-3.453-1.525Z" transform="translate(-15.753 37.392)" fill="#9f876d"/>
        <path id="Caminho_964" data-name="Caminho 964" d="M255.874,371.518c4.17-.547,8.965-.743,13.2-.964l17.435-.99,51.329-3.023c.222,5.017.261,11.975.156,17.031-.013,1.381-.417,7.753.222,8.444,6.555-.717,15.142,2.163,21.71,3.6,6.164,1.342,13.526,2.5,19.442,4.391.586.2.938.182,1.186.834a12.225,12.225,0,0,1-.013,4.717c-1.681,0-6.932.4-8.288,1.068.365.795.182.834.86,1.042a17.192,17.192,0,0,1,5.134,2.2c-.026.795.13.6-.222,1.069a37.081,37.081,0,0,1,6.294.56,48.355,48.355,0,0,0,6.62,3.453,66.18,66.18,0,0,0-6.581.925c-2.137.052-5.681.313-7.61-.052l-.339.2a7.279,7.279,0,0,0,2.1.795c-1.538.13-5.9.221-6.789,1.29a22.555,22.555,0,0,1,4.235,1.85c1.486.625,1.876.625,2.658,1.981l-.482.769c-1.863-.078-3.349.417-4.365.378a3.391,3.391,0,0,0-2.254.274c-4.053-.208-9.617-.378-13.4.925,1.994.769,4.365,1.629,6.294,2.476l-.847.469a14.642,14.642,0,0,0-1.837-.326c-2.58-.847-3.779-.9-5.577-2.828a98.209,98.209,0,0,0-10.4.508h-.13c-.678-.586-1.407-.391-2.346-.391l.078-.313a4.217,4.217,0,0,0,2.2-.469l-.052-.391c-.756-.769-4.417-2.463-5.655-3.1-1.929-1.472-6.424-.143-8.926-.274-.13-1.069.078-.626-.638-1.407l.208-.078.052-.169c-2.4-1-4.378-1.746-6.1-3.7l-.209.026c-3.023.326-9.864-.639-11.624,1.681a2.243,2.243,0,0,1-1.512-1.173l-.5-.235c-2.372-.274-4.808,0-7.232-.4-2.841-.456-3.922-2.085-6.685-2.176a3.349,3.349,0,0,1-.248,1.212l.274.287c.4.4.782.717,1.212,1.082l-.1.378c-.326.143-.691.326-1.016.456-1.824-.247-7.91.156-10.412.1a16.632,16.632,0,0,0-1.433-.912l-1.629.13-1.042-.13c-.013,1,.156.886-.352,1.433l-.7.2-.352.078c-3.375-.2-6.958.287-10.216-.208-1.368-.209-1.16-1.968-3.818-1.538l-.612.86c.586.873.56.469.456,1.251a12.564,12.564,0,0,1-2.007.586l-1.29.326c-.235.456-.182.261-.235.586-1.446.065-7.3.2-8.327.378l-.261-1.316-.508-.6c-1.082-1.082-1.329-1.525-2.828-1.564a1.981,1.981,0,0,1-1.3-1.055c-.052.769-.013,1.225-.639,1.785-1.225-.665-3.727-2.163-5.043-2.072-2.189.156-9.07-.013-10.516,1.251-.052.873-.169,1.564-.3,2.437a39.282,39.282,0,0,0-4.717-2.632c-1.746-.456-9.617-.013-10.946.6l-.143.678a4.745,4.745,0,0,1-.56,1.9c-.717-.547-1.446-1.082-2.176-1.6-1.277-.912-4.3-2.932-5.812-2.684l-.156.573c-.782-1.329-5.486-1.916-6.151-3.167-.625-1.173-.456-9.8-.274-11.063.652-.665,1.134-.625,2.059-.782,7.128-.756,12.731-.951,19.729-1.407q15.559-1.075,31.157-1.824c.756-1.082.56-21.918.456-24.524Z" transform="translate(-27.819 20.977)" fill="#1b1e20"/>
        <path id="Caminho_965" data-name="Caminho 965" d="M243.526,371.518c4.17-.547,8.965-.743,13.2-.964l17.435-.99,51.329-3.023c.221,5.017.261,11.975.156,17.031-.013,1.381-.417,7.753.221,8.444l-.339.169a90.749,90.749,0,0,0-.222,9.669q-22.517,1.955-45.1,3c-2.306.1-7.675.769-9.643.378-8.131-2.554-19.142-4.092-26.857-6.62-.625-.782-.326-1.316-.56-2.241l-.078-.326c.756-1.082.56-21.918.456-24.524Z" transform="translate(-15.472 20.977)" fill="#1b1e20"/>
        <path id="Caminho_966" data-name="Caminho 966" d="M264.163,401.664c.261-.026,1.368-.065,1.433-.365.99-4.5-1.225-13.643,1.355-17.54,2.059-3.1,15.494-2.8,18.96-3.167,10.907-1.121,21.9-1.2,32.747-2.293.6.456.43.665.573,1.707-.013,1.381-.417,7.753.222,8.444l-.339.169a90.741,90.741,0,0,0-.221,9.669q-22.517,1.955-45.1,3c-2.306.1-7.675.769-9.643.378Z" transform="translate(-9.082 24.541)" fill="#2f3030"/>
        <path id="Caminho_967" data-name="Caminho 967" d="M337.691,386.116c6.555-.717,15.142,2.163,21.71,3.6,6.164,1.342,13.526,2.5,19.442,4.391a2.156,2.156,0,0,1-1.433.795c-8.275,1.212-16.992,1.277-25.345,1.746-11.389.638-22.8,1.342-34.154,2.267-1.968.169-12.861.925-14.125,1.316-1.9-.7-1.72-.052-3.636.182-1.837.221-3.792.3-5.655.378l-60.072,2.658c-9.46-2.124-19.638-6.033-28.994-8.77a1.834,1.834,0,0,1-1.407-1.329c7.128-.756,12.731-.951,19.729-1.407q15.559-1.075,31.157-1.824l.078.326c.235.925-.065,1.459.56,2.241,7.714,2.541,18.725,4.079,26.857,6.62,1.968.391,7.336-.274,9.643-.378q22.576-1.056,45.1-3a94.309,94.309,0,0,1,.222-9.669l.339-.169Z" transform="translate(-27.307 26.876)" fill="#454b45"/>
        <path id="Caminho_968" data-name="Caminho 968" d="M325.94,399.605l-.1-.925c1.2-1.863,7.167-1.212,9.33-1.446,1.525-.169,3.57,1.069,5.134,1.629l-.052-1.525c.365.795.182.834.86,1.042a17.188,17.188,0,0,1,5.134,2.2c-.026.795.13.6-.221,1.069a37.072,37.072,0,0,1,6.294.56,48.363,48.363,0,0,0,6.62,3.453,66.16,66.16,0,0,0-6.581.925c-2.137.052-5.681.313-7.61-.052l-.339.2a7.276,7.276,0,0,0,2.1.795c-1.538.13-5.9.222-6.789,1.29a22.561,22.561,0,0,1,4.235,1.85c1.486.626,1.876.626,2.658,1.981l-.482.769c-1.863-.078-3.349.417-4.365.378a3.391,3.391,0,0,0-2.254.274c-4.053-.208-9.617-.378-13.4.925,1.994.769,4.365,1.629,6.294,2.476l-.847.469a14.667,14.667,0,0,0-1.837-.326c-2.58-.847-3.779-.9-5.577-2.828a98.217,98.217,0,0,0-10.4.508h-.13c-.678-.586-1.407-.391-2.346-.391l.078-.313a4.219,4.219,0,0,0,2.2-.469l-.052-.391c-.756-.769-4.417-2.463-5.655-3.1a8.633,8.633,0,0,1,1.642-.13c.156-.6,0-.326.678-.717a7.606,7.606,0,0,0,2.346-.274l-.951-.847c.782-.143,1.251-.156,1.655-.717-.417-.7-.769-.717-1.616-1.2l.769-1.016a3.93,3.93,0,0,1-1.486-1.016l.091-.391a12.49,12.49,0,0,1,1.759-.912l-.13-.508.287-.222-.13-.4a9.91,9.91,0,0,0-2.763-1.355l.508-.547a2.154,2.154,0,0,1-.443-1.082l.365-.443a63.5,63.5,0,0,1,10.868-.6,33.015,33.015,0,0,1,4.131,1.942l.508-.573Z" transform="translate(4.16 30.275)" fill="#9f876d"/>
        <path id="Caminho_969" data-name="Caminho 969" d="M324.777,406.907c.938-.756,9.943-1.277,11.585-1.277L338,406.738a16.583,16.583,0,0,1,1.72-.5,22.563,22.563,0,0,1,4.235,1.85c1.486.626,1.876.626,2.658,1.981l-.482.769c-1.863-.078-3.349.417-4.365.378a3.39,3.39,0,0,0-2.254.274c-4.053-.209-9.617-.378-13.4.925,1.994.769,4.365,1.629,6.294,2.476l-.847.469a14.641,14.641,0,0,0-1.837-.326c-2.58-.847-3.779-.9-5.577-2.828a98.183,98.183,0,0,0-10.4.508h-.13c-.678-.586-1.407-.391-2.345-.391l.078-.313a4.219,4.219,0,0,0,2.2-.469l-.052-.391c-.756-.769-4.417-2.463-5.655-3.1a8.633,8.633,0,0,1,1.642-.13c.156-.6,0-.326.678-.717a7.6,7.6,0,0,0,2.346-.274c2.046-.456,7.884-.443,10.164-.378a1.889,1.889,0,0,1,.261,1.3c.2-.469.091-.339.391-.678.313-.365.951-.274,1.42-.3Z" transform="translate(4.163 32.824)" fill="#f9f8f4"/>
        <path id="Caminho_970" data-name="Caminho 970" d="M320.84,406.907c.938-.756,9.943-1.277,11.585-1.277l1.642,1.108a16.579,16.579,0,0,1,1.72-.5,22.565,22.565,0,0,1,4.235,1.85,10.094,10.094,0,0,0-.235,1l.326.326-.117.339c-3.427,1-8.926,1.538-12.5.7a20.208,20.208,0,0,1-2.841-1.29c-1.108-.5-2.619-1.616-3.818-2.28Z" transform="translate(8.1 32.824)" fill="#f9f8f4"/>
        <path id="Caminho_971" data-name="Caminho 971" d="M332.71,406.1a22.562,22.562,0,0,1,4.235,1.85,10.085,10.085,0,0,0-.235,1,20.5,20.5,0,0,1-5.721-2.346,16.553,16.553,0,0,1,1.72-.5Z" transform="translate(11.176 32.967)" fill="#877e6d"/>
        <path id="Caminho_972" data-name="Caminho 972" d="M307.866,407.54a8.633,8.633,0,0,1,1.642-.13c1.746.469,4.952,2.632,6.529,3.714,2.241.13,11.272.065,12.835-1.251-.2-.417-.039-.248-.469-.5l.182-.73a24.651,24.651,0,0,0,2.841,1.29c3.583.821,9.069.3,12.5-.7l.117-.339-.326-.326c.039-.274.169-.717.235-1,1.486.625,1.876.625,2.658,1.981l-.482.769c-1.863-.078-3.349.417-4.365.378a3.39,3.39,0,0,0-2.254.273c-4.053-.208-9.617-.378-13.4.925,1.994.769,4.365,1.629,6.294,2.476l-.847.469a14.658,14.658,0,0,0-1.837-.326c-2.58-.847-3.779-.9-5.577-2.828a98.192,98.192,0,0,0-10.4.508h-.13c-.678-.586-1.407-.391-2.346-.391l.078-.313a4.219,4.219,0,0,0,2.2-.469l-.052-.391c-.756-.769-4.418-2.463-5.655-3.1Z" transform="translate(4.16 33.364)" fill="#9f876d"/>
        <path id="Caminho_973" data-name="Caminho 973" d="M319.45,407.587c.2-.469.091-.339.391-.678.313-.365.951-.274,1.42-.3,1.2.665,2.71,1.785,3.818,2.28l-.182.73c-1.916-.261-3.206-1.525-5.447-2.033Z" transform="translate(7.678 33.121)" fill="#877e6d"/>
        <path id="Caminho_974" data-name="Caminho 974" d="M341.841,400.6a37.062,37.062,0,0,1,6.294.56,48.358,48.358,0,0,0,6.62,3.453,66.224,66.224,0,0,0-6.581.925c-2.137.052-5.681.313-7.61-.052-.352-1.16-5.564-3.662-6.932-2.724.7,1.238,4,1.72,4.613,2.463-.938,1.433-9.669,1.407-11.272,1-.938-1.46-4.965-2.046-5.343-3.727.573-.5,5.46-1.055,6.529-1,4.652.261,9.043-.573,13.656-.886Z" transform="translate(8.339 31.3)" fill="#f9f8f4"/>
        <path id="Caminho_975" data-name="Caminho 975" d="M312.04,402.012c1.889-.339,7.011-.117,9.4-.222,1.59,1.342,4.548,2.463,5.6,3.766v.43c-.886.717-3.688.847-4.834.86l-.222.9c-2.28-.065-8.118-.078-10.164.378l-.951-.847c.782-.143,1.251-.156,1.655-.717-.417-.7-.769-.717-1.616-1.2l.769-1.016a3.93,3.93,0,0,1-1.486-1.016l.091-.391a12.487,12.487,0,0,1,1.759-.912Z" transform="translate(4.872 31.661)" fill="#f9f8f4"/>
        <path id="Caminho_976" data-name="Caminho 976" d="M311.518,403.75a14.312,14.312,0,0,1,4.652,2.567c1.955-.039,3.935-.1,5.877-.065l-.222.9c-2.28-.065-8.118-.078-10.164.378l-.951-.847c.782-.143,1.251-.156,1.655-.717-.417-.7-.769-.717-1.616-1.2l.769-1.016Z" transform="translate(5.029 32.255)" fill="url(#linear-gradient-2)"/>
        <path id="Caminho_977" data-name="Caminho 977" d="M310,400.132a2.154,2.154,0,0,1-.443-1.082l.365-.443a63.492,63.492,0,0,1,10.868-.6,33.015,33.015,0,0,1,4.131,1.942,9.022,9.022,0,0,1,4.7,1.85c-4.691.091-9.526.964-14.256.469-1.486-.156-4.1-2.007-5.356-2.137Z" transform="translate(4.681 30.504)" fill="#f9f8f4"/>
        <path id="Caminho_978" data-name="Caminho 978" d="M321.754,399.605l-.1-.925c1.2-1.863,7.167-1.212,9.33-1.446,1.525-.169,3.57,1.069,5.134,1.629.873.3,2.163.639,2.684,1.342-.534,1.8-9.656,1.759-11.7,1.785-1.668-1.238-3.219-2.619-5.33-2.372Z" transform="translate(8.345 30.275)" fill="#f9f8f4"/>
        <path id="Caminho_979" data-name="Caminho 979" d="M316.2,401.576l.13.508a12.492,12.492,0,0,0-1.759.912l-.091.391a4.143,4.143,0,0,0,1.486,1.016l-.769,1.016c.834.482,1.186.5,1.616,1.2-.391.56-.873.56-1.655.717l.951.847a7.6,7.6,0,0,1-2.346.274c-.678.391-.521.13-.678.717a8.634,8.634,0,0,0-1.642.13c-1.929-1.473-6.424-.143-8.926-.274-.13-1.069.078-.625-.639-1.407l.209-.078.052-.169c-2.4-1-4.378-1.746-6.1-3.7l.6-.691c1.942.326,2.293.886,3.427-.756.6.534.612.4.834,1.082,1.59.339,8.262-.313,10.412-.443.534-.547.808-.456,1.694-.678l3.18-.639Z" transform="translate(0.583 31.588)" fill="#f9f8f4"/>
        <path id="Caminho_980" data-name="Caminho 980" d="M300.067,402.106c.6.534.612.4.834,1.082-.469,1.029-.5.586-.2,1.407,3.427,3.167,6.659,2.763,10.764,2.8a24.214,24.214,0,0,0,2.293.912c-.678.391-.521.13-.678.717a8.634,8.634,0,0,0-1.642.13c-1.929-1.473-6.424-.143-8.926-.274-.13-1.069.078-.626-.639-1.407l.209-.078.052-.169c-2.4-1-4.378-1.746-6.1-3.7l.6-.691c1.942.326,2.293.886,3.427-.756Z" transform="translate(0.583 31.748)" fill="url(#linear-gradient-3)"/>
        <path id="Caminho_981" data-name="Caminho 981" d="M312.647,401.573l.13.508a12.487,12.487,0,0,0-1.759.912l-.091.391a4.144,4.144,0,0,0,1.486,1.016l-.769,1.016a7.821,7.821,0,0,1-3.883-2.541c.534-.547.808-.456,1.694-.678l3.18-.638Z" transform="translate(4.135 31.591)" fill="#877e6d"/>
        <path id="Caminho_982" data-name="Caminho 982" d="M307.88,406.205l3.688-.2.951.847a7.6,7.6,0,0,1-2.346.274c-.221-.169-1.538-.456-2.293-.912Z" transform="translate(4.172 32.94)" fill="#a89c85"/>
        <path id="Caminho_983" data-name="Caminho 983" d="M286.4,401.028l-.169-.717c1.108-1.055,7.349-.886,9.252-1.029,2.2-.156,4.04,2.293,6.529,2.437l.86-.13.3.261v1.108c-1.147,1.642-1.5,1.082-3.44.756l-.6.691-.209.026c-3.023.326-9.864-.639-11.624,1.681a2.243,2.243,0,0,1-1.512-1.173,4.276,4.276,0,0,0,1-.508c.534-.912.43-.443.391-1.433-.56-.808-.2-.508-1.173-.886.4-.417.248-.339.417-1.081Z" transform="translate(-2.524 30.898)" fill="#f9f8f4"/>
        <path id="Caminho_984" data-name="Caminho 984" d="M286.4,400.62c2.059.912,3.792,2.033,5.864,2.437,1.512.287,6.242-.182,7.467.247l-.6.691-.209.026c-3.023.326-9.864-.639-11.624,1.681a2.243,2.243,0,0,1-1.512-1.173,4.276,4.276,0,0,0,1-.508c.534-.912.43-.443.391-1.433-.56-.808-.2-.508-1.173-.886.4-.417.248-.339.417-1.082Z" transform="translate(-2.524 31.306)" fill="#c3bdac"/>
        <path id="Caminho_985" data-name="Caminho 985" d="M297.96,399.592c2.085-1.16,8.379-1.055,10.79-.756a17.355,17.355,0,0,1,4.261,1.642,9.734,9.734,0,0,1,2.763,1.355l.13.4-.287.222-3.18.638c-.886.222-1.173.117-1.694.678-2.15.13-8.809.795-10.412.443-.222-.678-.235-.547-.834-1.082v-1.108l-.287-.261-.86.13a17.335,17.335,0,0,1-.365-2.306Z" transform="translate(1.165 30.705)" fill="#f9f8f4"/>
        <path id="Caminho_986" data-name="Caminho 986" d="M297.96,399.37l.339.665a15.92,15.92,0,0,1,5.447,2.841c2.841,0,5.877-.052,8.692.013-.886.221-1.173.117-1.694.678-2.15.13-8.809.795-10.412.443-.222-.678-.234-.547-.834-1.082V401.82l-.287-.261-.86.13a17.327,17.327,0,0,1-.365-2.306Z" transform="translate(1.165 30.927)" fill="url(#linear-gradient-4)"/>
        <path id="Caminho_987" data-name="Caminho 987" d="M250.959,402.584c1.368-.756,1.811-.586,3.362-.5.326.977.586,1.121,1.433,1.772l-.612.86c.586.873.56.469.456,1.251a12.558,12.558,0,0,1-2.007.586l-1.29.326c-.235.456-.182.261-.235.586-1.446.065-7.3.2-8.327.378l-.261-1.316-.508-.6c-1.082-1.082-1.329-1.525-2.828-1.564a1.981,1.981,0,0,1-1.3-1.055c1.225-1.134,10.438-1.512,12.132-.7Z" transform="translate(-16.754 31.726)" fill="#f9f8f4"/>
        <path id="Caminho_988" data-name="Caminho 988" d="M242.39,405.45c3.049.391,7,.013,10.125.039l-1.29.326c-.235.456-.182.261-.235.586-1.446.065-7.3.2-8.327.378l-.261-1.316Z" transform="translate(-15.678 32.77)" fill="#c3bdac"/>
        <path id="Caminho_989" data-name="Caminho 989" d="M248.14,402.584c1.368-.756,1.811-.586,3.362-.5.326.977.586,1.121,1.433,1.772l-.612.86a21.04,21.04,0,0,1-4.183-2.124Z" transform="translate(-13.935 31.726)" fill="#2f3030"/>
        <path id="Caminho_990" data-name="Caminho 990" d="M262.685,402.679l-.117-.9c1.251-1.212,9.7-1.3,11.65-1.147a21.919,21.919,0,0,0,3.974,2.294l.274.287c.4.4.782.717,1.212,1.082l-.1.378c-.326.143-.691.326-1.016.456-1.824-.248-7.91.156-10.412.1a16.611,16.611,0,0,0-1.433-.912l-1.629.13-1.042-.13a7.167,7.167,0,0,1-1.59-.691,3.085,3.085,0,0,0,.222-.951Z" transform="translate(-9.598 31.292)" fill="#f9f8f4"/>
        <path id="Caminho_991" data-name="Caminho 991" d="M262.682,402.19c2.1.391,2.359.313,4.04,1.642l-1.629.13-1.042-.13a7.164,7.164,0,0,1-1.59-.691,3.086,3.086,0,0,0,.222-.951Z" transform="translate(-9.595 31.782)" fill="#877e6d"/>
        <path id="Caminho_992" data-name="Caminho 992" d="M250.733,402.3a55.268,55.268,0,0,1,12.418-.938,7.64,7.64,0,0,0,2.854,2.046,6.392,6.392,0,0,0,1.59.691c-.013,1,.156.886-.352,1.433l-.7.2-.352.078c-3.375-.2-6.958.287-10.216-.208-1.368-.208-1.16-1.968-3.818-1.538-.834-.652-1.108-.795-1.433-1.772Z" transform="translate(-13.153 31.513)" fill="#f9f8f4"/>
        <path id="Caminho_993" data-name="Caminho 993" d="M274.79,401.9c-.287-.808-.417-.717-.169-1.3,1.746-.547,7.9-.691,9.969-.612.691.026,3.766,1.551,4.808,1.9.977.378.612.078,1.173.886.052.99.143.521-.391,1.433a4.277,4.277,0,0,1-1,.508l-.5-.235c-2.372-.274-4.808,0-7.232-.4-2.841-.456-3.922-2.085-6.685-2.176Z" transform="translate(-5.949 31.107)" fill="#f9f8f4"/>
        <path id="Caminho_994" data-name="Caminho 994" d="M227.35,400.233l60.072-2.658c1.863-.078,3.805-.156,5.655-.378,1.929-.234,1.733-.886,3.636-.182a33.017,33.017,0,0,1-4.444.834c-8.5-.326-17.266,1.538-25.658,1.225-4.1-.156-37.646.951-38.428,1.9l.222.43c3.779,1.147,11.715-.339,15.82-.573,3.766-.221,7.819.052,11.454-.678a6.686,6.686,0,0,1,2.815-.352l.222.287c-1.433.99-14.634.743-17.292,1.238-2.1.391-11.793,1.277-13.383.2a6.061,6.061,0,0,1-.482-1.121l-.2-.156Z" transform="translate(-20.236 30.117)" fill="#2f3030"/>
        <path id="Caminho_995" data-name="Caminho 995" d="M300.99,401.453c2.776.091,3.844,1.707,6.685,2.176,2.424.391,4.861.13,7.232.4l.5.235a2.279,2.279,0,0,0,1.512,1.173c1.772-2.32,8.613-1.355,11.624-1.681l.208-.026c1.733,1.955,3.7,2.7,6.1,3.7l-.052.169-.208.078c.717.782.508.326.638,1.407,2.515.13,7-1.2,8.926.274,1.238.625,4.913,2.333,5.655,3.1l.052.391a4.218,4.218,0,0,1-2.2.469l-.078.313c.938,0,1.668-.2,2.346.365l-.2.078a11.015,11.015,0,0,1-2.046.547c-.13.482-.182.274,0,.626l-.56.56a16,16,0,0,1-2.776-1.668c-2.359.182-9.239.248-10.685,1.577-.6-.847-.222-.547-1.134-.964-.73.287-.534.078-.925.99l-.078.2c1.355,1.368,3.127,1.89,4.926,2.606l-.222,1.056-1.251.6c1.108.769,1.225.639,2.658.639-4.691.717-11.037.769-15.872,1.095l-33.828,2.2c-1.8.1-12.627.639-13.461,1.069a37.591,37.591,0,0,1,4.665,3.245c-.508.665-.469.612-1.264.86a2.087,2.087,0,0,0-.3,1.16c-.378-.795-.13-.43-1-1.016v-.182c-2.958.456-8.379.912-11.22.339-1.186-1.147-2.58-1.642-4.04-2.619-1.329-.456-1.225-.573-2.541-.274l-.261.391c.222.873.039.456.769,1.212-1.186-.378-.743-.2-1.642-1.446-1.733-.652-7.636-.039-9.539.352-1.486.026-7.493.2-8.5.717-1.134.547-1.59-.221-2.632-.847-.925.274-.795.13-1.264,1.082-1.5-.261-13.135.469-14.021.912-.951-.013-1.069-.625-1.538-1.355l-1.264.169c-.678-.912-4.574-3.049-5.773-3.753-1.863.612-1.616,1.551-3.727,2.306a8.106,8.106,0,0,1-1.251-.1,4.589,4.589,0,0,1-1.329-2.306,18.313,18.313,0,0,0,.534-2.176,52.089,52.089,0,0,1-3.844-3.792,10.421,10.421,0,0,1-1.681-1.043c-.821-.743-4.835-3.219-5.981-3.948-1.355,1.225-.1,1.694-1.056,3.271a3.972,3.972,0,0,1-1.472-.99,9.2,9.2,0,0,0,.3-4.157c-1.642-1.2-3.349-2.372-5.043-3.518-.6-.4-.508-.652-.508-1.186,4.4-.417,8.861-.365,13.409-.847l.808.1c4.053-.547,5.642-1.72,10.907-2.072l.156-.573c1.5-.248,4.535,1.772,5.812,2.684.73.521,1.459,1.055,2.176,1.6a5.2,5.2,0,0,0,.56-1.9l.143-.678c1.342-.612,9.2-1.056,10.946-.6a36.682,36.682,0,0,1,4.717,2.632c.13-.873.248-1.564.3-2.437,1.446-1.264,8.327-1.081,10.516-1.251,1.316-.091,3.818,1.407,5.043,2.072.625-.56.6-1.016.639-1.785a1.981,1.981,0,0,0,1.3,1.056c1.486.026,1.746.469,2.828,1.564l.508.6.261,1.316c1.029-.182,6.88-.313,8.327-.378.052-.326,0-.117.235-.586l1.29-.326a10.084,10.084,0,0,0,2.007-.586c.1-.782.13-.378-.456-1.251l.612-.86c2.658-.43,2.45,1.329,3.818,1.538,3.258.5,6.841.013,10.216.209l.352-.078.7-.2c.508-.56.339-.43.352-1.433l1.042.13,1.629-.13a16.623,16.623,0,0,1,1.433.912c2.5.052,8.587-.339,10.412-.1.326-.13.691-.313,1.016-.456l.1-.378c-.43-.365-.808-.691-1.212-1.082l-.274-.287a3.145,3.145,0,0,0,.248-1.212Z" transform="translate(-32.149 31.554)" fill="#b09d81"/>
        <path id="Caminho_996" data-name="Caminho 996" d="M232.977,415.446a79.445,79.445,0,0,1,9.5.065c.9.352.769.156,1.916,0l.1.287c.078.612-.065.56.378.847,2.02,1.368,4.183,2.15,6.177,3.636a76.984,76.984,0,0,1,8.783-.365l-.052.143c.86.261,1.42.782,2.111.9a37.6,37.6,0,0,1,4.665,3.245c-.508.665-.469.612-1.264.86a2.088,2.088,0,0,0-.3,1.16c-.378-.795-.13-.43-1-1.016v-.182c-2.958.456-8.379.912-11.22.339-1.186-1.147-2.58-1.642-4.04-2.619-1.329-.456-1.225-.573-2.541-.274l-.261.391c.222.873.039.456.769,1.212-1.186-.378-.743-.2-1.642-1.446-1.733-.652-7.636-.039-9.539.352a2.175,2.175,0,0,0,1.108-1.629,75.791,75.791,0,0,1-6.945-3.727l.026-.339a7.281,7.281,0,0,1,2.984-.7l.3-1.147Z" transform="translate(-19.53 35.765)" fill="#c3bdac"/>
        <path id="Caminho_997" data-name="Caminho 997" d="M255.35,418.97c.86.261,1.42.782,2.111.9a37.6,37.6,0,0,1,4.665,3.245c-.508.665-.469.612-1.264.86a2.088,2.088,0,0,0-.3,1.16c-.378-.795-.13-.43-1-1.016v-.182c-2.958.456-8.379.912-11.22.339-1.186-1.147-2.58-1.642-4.04-2.619,1.29-1.942,7.61-1.277,10.268-1.942l.795-.743Z" transform="translate(-15.099 36.868)" fill="#f9f8f4"/>
        <path id="Caminho_998" data-name="Caminho 998" d="M252.962,418.97c.86.261,1.42.782,2.111.9a37.591,37.591,0,0,1,4.665,3.245c-.508.665-.469.612-1.264.86a2.087,2.087,0,0,0-.3,1.16c-.378-.795-.13-.43-1-1.016v-.182c-.013-.795.091-.443-.326-1.108a11.567,11.567,0,0,1-4.665-3.1l.795-.743Z" transform="translate(-12.71 36.868)" fill="#9f876d"/>
        <path id="Caminho_999" data-name="Caminho 999" d="M232.68,416.346c9.669-.326,5.864-.834,13.7,3.883-1.746.365-8.353,1.915-9.76.886a75.815,75.815,0,0,1-6.945-3.727l.026-.339a7.28,7.28,0,0,1,2.984-.7Z" transform="translate(-19.533 36.012)" fill="#f9f8f4"/>
        <path id="Caminho_1000" data-name="Caminho 1000" d="M233.179,417c1.368,1.121,4.509,2.841,4.8,3.857-.639,1.069-5.525,1.355-6.763,1.342l-.052.182c-.925.274-.795.13-1.264,1.081-1.5-.261-13.135.469-14.021.912-.951-.013-1.069-.625-1.538-1.355l-1.264.169c-.678-.912-4.574-3.049-5.773-3.753l.365-.5c1.433-.821,12.822-.925,15.52-1.134l1.29-.13c2.645-.078,5.942-.521,8.7-.7Z" transform="translate(-26.313 36.261)" fill="#f9f8f4"/>
        <path id="Caminho_1001" data-name="Caminho 1001" d="M212.7,421.818c1.42-.248,2.945-.143,4.43-.261a120.148,120.148,0,0,1,12.445-.573l-.052.182c-.925.274-.795.13-1.264,1.081-1.5-.261-13.135.469-14.021.912-.951-.013-1.069-.626-1.538-1.355Z" transform="translate(-24.676 37.473)" fill="#c3bdac"/>
        <path id="Caminho_1002" data-name="Caminho 1002" d="M199.91,414.462c2.033-.665,16.067-1.629,18.5-.7-.482-.182,4.717,3.18,4.834,3.271,1.3.612,1.681.612,2.176,1.889-2.71.209-14.086.313-15.52,1.134l-.365.5c-1.863.612-1.616,1.551-3.727,2.306a8.105,8.105,0,0,1-1.251-.1,4.588,4.588,0,0,1-1.329-2.306,18.306,18.306,0,0,0,.534-2.176,52.115,52.115,0,0,1-3.844-3.792Z" transform="translate(-28.553 35.172)" fill="#f9f8f4"/>
        <path id="Caminho_1003" data-name="Caminho 1003" d="M222.465,416.18c1.3.612,1.681.612,2.176,1.889-2.71.209-14.086.313-15.52,1.134l-.365.5c-1.863.612-1.616,1.551-3.727,2.307a8.09,8.09,0,0,1-1.251-.1,4.588,4.588,0,0,1-1.329-2.306,18.323,18.323,0,0,0,.534-2.176c.456.039.9.065,1.355.091,3.062.1,16.276.417,18.126-1.316Z" transform="translate(-27.783 36.022)" fill="#c3bdac"/>
        <path id="Caminho_1004" data-name="Caminho 1004" d="M252.03,415.949c5.343-1.108,9.63-.912,14.92-1.186,3.922-.2,10.36-1.355,14.269-1.029a3.323,3.323,0,0,0,.6,1.068l3.922,1.733a2.029,2.029,0,0,1,.912.5c-.156.756-.43.769-1.147,1.407-3.544,0-6.815.352-10.438.222-1.759-1.5-6.8-4.17-9.03-2.919.6,1.056,3.922,1.473,4.7,3.114-1.733,1.186-10.633,1.029-12.809.039-1.759-.795-4.014-2.111-5.89-2.971Z" transform="translate(-12.756 35.263)" fill="#f9f8f4"/>
        <path id="Caminho_1005" data-name="Caminho 1005" d="M252.681,403.446c2.658-.43,2.45,1.329,3.818,1.538,3.258.5,6.841.013,10.216.209a2.907,2.907,0,0,0-1.681,1.277,3,3,0,0,0,1.512,1.264,25.857,25.857,0,0,0,4.352,2.124,33.233,33.233,0,0,1-11.115,1.16,8.645,8.645,0,0,1-3.505.5l-2.189-.052.521-1.082c-2.32-1.329-4.535-.4-5.629-3.349.052-.326,0-.117.235-.586l1.29-.326a10.086,10.086,0,0,0,2.007-.586c.1-.782.13-.378-.456-1.251l.612-.86Z" transform="translate(-13.68 32.142)" fill="#f9f8f4"/>
        <path id="Caminho_1006" data-name="Caminho 1006" d="M252.678,403.446c2.658-.43,2.45,1.329,3.818,1.538,3.258.5,6.841.013,10.216.209a2.907,2.907,0,0,0-1.681,1.277c-1.108-.769-10.138-.417-11.22.678.287,1.16,2.137,1.642,3.14,2.254a15.639,15.639,0,0,0,2.841,1.616,8.646,8.646,0,0,1-3.505.5l-2.189-.052.521-1.082c-2.319-1.329-4.535-.4-5.629-3.349.052-.326,0-.117.235-.586l1.29-.326a10.08,10.08,0,0,0,2.007-.586c.1-.782.13-.378-.456-1.251l.612-.86Z" transform="translate(-13.677 32.142)" fill="#c3bdac"/>
        <path id="Caminho_1007" data-name="Caminho 1007" d="M252.524,405.046c.6.521.469.209.573.886-.834.782-3.062.86-4.118.586.052-.326,0-.117.235-.586l1.29-.326a10.084,10.084,0,0,0,2.007-.586Z" transform="translate(-13.68 32.639)" fill="#a89c85"/>
        <path id="Caminho_1008" data-name="Caminho 1008" d="M253.421,408.841l.612-.391c.86.521.287.639,1.056,1.525l-2.189-.052.521-1.082Z" transform="translate(-12.492 33.679)" fill="#a89c85"/>
        <path id="Caminho_1009" data-name="Caminho 1009" d="M188.077,405.527c4.4-.417,8.861-.365,13.409-.847,1.082,2.88,4.887,2.176,4.743,4.079-.352.222-.7.456-1.056.665a3.094,3.094,0,0,1,.43,1.85,33.307,33.307,0,0,0-9.591.013l-.352.326.169.508c-1.355,1.225-.1,1.694-1.056,3.271a3.973,3.973,0,0,1-1.472-.99,9.2,9.2,0,0,0,.3-4.157c-1.642-1.2-3.349-2.372-5.043-3.518-.6-.4-.508-.652-.508-1.186Z" transform="translate(-32.149 32.536)" fill="#f9f8f4"/>
        <path id="Caminho_1010" data-name="Caminho 1010" d="M192.4,409.118a103.327,103.327,0,0,0,11.558-.808,3.093,3.093,0,0,1,.43,1.85,33.309,33.309,0,0,0-9.591.013l-.352.326.169.508c-1.355,1.225-.1,1.694-1.055,3.271a3.973,3.973,0,0,1-1.473-.99,9.2,9.2,0,0,0,.3-4.157Z" transform="translate(-30.923 33.637)" fill="#c3bdac"/>
        <path id="Caminho_1011" data-name="Caminho 1011" d="M209.894,403.308l.156-.573c1.5-.248,4.535,1.772,5.812,2.684.73.521,1.459,1.055,2.176,1.6.612.652,1.225,1.342,1.824,2.007-3.557,0-8.327.469-11.689.078-.86-.1-4.365-2.1-5.421-2.515-1.212-.482-2.515-.795-3.753-1.212,4.053-.547,5.642-1.72,10.907-2.072Z" transform="translate(-28.829 31.941)" fill="#f9f8f4"/>
        <path id="Caminho_1012" data-name="Caminho 1012" d="M214.8,408.617c2.75-.7,10.386-1.785,12.914-.208,1.316.821,3.127,2.267,4.926,3.271v.313c-1.108.756-3.193.743-4.6.86-.091.352-.222.912-.339,1.238-1.42-.521-5.851.313-7.6.417l.065-1.694c-.665-1.473-3.57-2.45-5.369-4.183Z" transform="translate(-24.04 33.42)" fill="#f9f8f4"/>
        <path id="Caminho_1013" data-name="Caminho 1013" d="M218.935,411.637c2.189-.026,5.968-.365,7.871.039-.091.352-.222.912-.339,1.238-1.42-.521-5.851.313-7.6.417Z" transform="translate(-22.806 34.597)" fill="#c3bdac"/>
        <path id="Caminho_1014" data-name="Caminho 1014" d="M289.455,413.991c.065-.143.287-.717.456-.769a49.037,49.037,0,0,1,10.164-1.212,1.4,1.4,0,0,1,1.407.717c1.355,1.368,3.127,1.89,4.926,2.606l-.222,1.056-1.251.6c-2.033.13-5.408.248-7.31.6-.365.3-4.782.182-5.147-.013-.248-.756-.326-.586-1.2-1.147a23.322,23.322,0,0,0-4.04-1.668c.782-.86.795-.639,2.189-.769Z" transform="translate(-2.084 34.757)" fill="#f9f8f4"/>
        <path id="Caminho_1015" data-name="Caminho 1015" d="M287.263,414.3c.782-.86.795-.639,2.189-.769a24.306,24.306,0,0,0,3.062,1.577l.078.469a2.981,2.981,0,0,1-1.3.391,23.325,23.325,0,0,0-4.04-1.668Z" transform="translate(-2.081 35.219)" fill="#9f876d"/>
        <path id="Caminho_1016" data-name="Caminho 1016" d="M291.572,414.73c3.049,1.394,1.486,1.85,5.134,2.033-.365.3-4.782.182-5.147-.013-.248-.756-.326-.586-1.2-1.147a2.981,2.981,0,0,0,1.3-.391l-.078-.469Z" transform="translate(-1.138 35.583)" fill="#a89c85"/>
        <path id="Caminho_1017" data-name="Caminho 1017" d="M288.461,403.43l.5.235a2.28,2.28,0,0,0,1.512,1.173,24.931,24.931,0,0,1,3.74,1.551,8.906,8.906,0,0,0-1.147,1.069l.378.365-.182.378a5.049,5.049,0,0,1-2.241.56c-5.16.208-7.975,1.082-12.653-1.772-.925-.56-1.681-.443-3.062-1.59,1.72-1.629,8.744-1.264,11.22-1.342.665-.652.795-.456,1.942-.626Z" transform="translate(-5.703 32.158)" fill="#f9f8f4"/>
        <path id="Caminho_1018" data-name="Caminho 1018" d="M285.852,403.43l.5.235a2.28,2.28,0,0,0,1.512,1.173,24.932,24.932,0,0,1,3.74,1.551,8.907,8.907,0,0,0-1.147,1.069,15.17,15.17,0,0,1-6.542-3.4C284.575,403.4,284.7,403.6,285.852,403.43Z" transform="translate(-3.093 32.158)" fill="#9f876d"/>
        <path id="Caminho_1019" data-name="Caminho 1019" d="M219.649,413.037c1.746-.1,6.177-.938,7.6-.417,1.173,1.577,4.8,2.776,5.147,4.365-.717.5-.7.339-1.707.417.117.665.156.352-.235.951-2.776.182-6.059.612-8.7.7l.209-1.381c-1.3-.938-5.5-2.789-5.655-4.2.534-.365,2.15-.274,3.127-.417l.222-.039Z" transform="translate(-23.585 34.891)" fill="#f9f8f4"/>
        <path id="Caminho_1020" data-name="Caminho 1020" d="M220.688,416.525c2.906.013,5.76-.326,8.731-.274.117.665.156.352-.235.951-2.776.182-6.059.612-8.7.7l.209-1.381Z" transform="translate(-22.318 36.042)" fill="#c3bdac"/>
        <path id="Caminho_1021" data-name="Caminho 1021" d="M226.467,404.022c1.446-1.264,8.327-1.082,10.516-1.251,1.316-.091,3.818,1.407,5.043,2.072.7.261.665.313,1.16.9.026.365.143.612-.1.743-2.059,1.095-8.666.86-11.037.977l.065.73a10.1,10.1,0,0,1-2.333-.221l-1.29-.469a17.566,17.566,0,0,1-2.306-1.069c.13-.873.248-1.564.3-2.437Z" transform="translate(-20.591 31.957)" fill="#f9f8f4"/>
        <path id="Caminho_1022" data-name="Caminho 1022" d="M226.17,406.167c.13-.873.248-1.564.3-2.437.534,1.029,4.391,2.88,5.577,3.453l.065.73a10.1,10.1,0,0,1-2.333-.221l-1.29-.469a17.554,17.554,0,0,1-2.306-1.069Z" transform="translate(-20.594 32.248)" fill="#9f876d"/>
        <path id="Caminho_1023" data-name="Caminho 1023" d="M270.024,414.485c-2.215-2.346-3.987-1.981-6.242-3.636l-.052-.417c1.16-.795,10.75-1.629,12.041-1.251l1.069,1.055a34.531,34.531,0,0,0,4.17,2.385,12.981,12.981,0,0,1,.143,1.394c-.391.117-10.216.469-11.128.469Z" transform="translate(-9.21 33.872)" fill="#f9f8f4"/>
        <path id="Caminho_1024" data-name="Caminho 1024" d="M227.593,412.482c2.658-.743,10.49-1.694,12.914-.235,1.212.73,3.557,2.5,4.756,3.4-.326.717-1.42.86-2.163,1.042a82.262,82.262,0,0,0-9.5-.065c-1.668-1.72-4.118-2.71-6.02-4.131Z" transform="translate(-20.166 34.599)" fill="#f9f8f4"/>
        <path id="Caminho_1025" data-name="Caminho 1025" d="M286.946,404.907c1.772-2.32,8.613-1.355,11.624-1.681l.208-.026c1.733,1.955,3.7,2.7,6.1,3.7l-.052.169-.208.078c.717.782.508.326.638,1.407a8.1,8.1,0,0,0-1.772.9l-.573-1.2c-2.8-.521-6.88.078-10.2-.274a7.235,7.235,0,0,0-2.046-1.525,28.73,28.73,0,0,0-3.74-1.551Z" transform="translate(-2.181 32.088)" fill="#f9f8f4"/>
        <path id="Caminho_1026" data-name="Caminho 1026" d="M299.21,407.338a15.91,15.91,0,0,1,1.707-1.108c.717.782.508.326.638,1.407a8.1,8.1,0,0,0-1.772.9l-.573-1.2Z" transform="translate(1.544 33.006)" fill="#a89c85"/>
        <path id="Caminho_1027" data-name="Caminho 1027" d="M231.806,407a61.682,61.682,0,0,1,7.271-.182c1.29.964,4.991,3.154,5.447,4.248l-.248.743a9.991,9.991,0,0,0-3.466,0c-2.567.1-4.665.117-7.219.078-1.889-1.16-3.675-3-5.655-3.818-.782-.326,0,.156-.756-.365l.117-.261a6.845,6.845,0,0,1,2.189-.652,10.107,10.107,0,0,0,2.332.222Z" transform="translate(-20.288 33.165)" fill="#f9f8f4"/>
        <path id="Caminho_1028" data-name="Caminho 1028" d="M276.66,414.4c1.981-1.811,8.861-1.329,11.845-1.42a5.868,5.868,0,0,0,1.968,1.486,22.35,22.35,0,0,1,4.04,1.668c.873.56.938.391,1.2,1.147-3.14.013-7.714.86-11.767.9a12.334,12.334,0,0,0-5.3-2.906,9.52,9.52,0,0,0-1.968-.873Z" transform="translate(-5.291 35.052)" fill="#f9f8f4"/>
        <path id="Caminho_1029" data-name="Caminho 1029" d="M251.871,406.183c1.082,2.945,3.31,2.02,5.629,3.349l-.521,1.082-1.9.586c-.521-.391-1-.222-1.551-.156-6.906.691-8.887.756-14.086-4.548a14.455,14.455,0,0,0,4.1.052c1.029-.182,6.88-.313,8.327-.378Z" transform="translate(-16.572 32.988)" fill="#f9f8f4"/>
        <path id="Caminho_1030" data-name="Caminho 1030" d="M252.754,410.968c1.916-.782,8.47-1.055,10.594-.964,2.033,1.929,4.756,2.815,7.206,4.1-3.531,1.251-8.848,1.147-12.666.977a18.006,18.006,0,0,0-5.408-3.44l.287-.678Z" transform="translate(-12.619 34.145)" fill="#f9f8f4"/>
        <path id="Caminho_1031" data-name="Caminho 1031" d="M240.815,411.2l1.694.065c3.036.143,6.242-.678,9.291-.365.782.078,4.613,2.984,4.861,3.649-.925,1.642-8.366,1.355-10.294,1.3l-6.346-3.883.795-.769Z" transform="translate(-16.396 34.399)" fill="#f9f8f4"/>
        <path id="Caminho_1032" data-name="Caminho 1032" d="M214.036,404.9l.143-.678c1.342-.612,9.2-1.055,10.946-.6a36.68,36.68,0,0,1,4.717,2.632,17.548,17.548,0,0,0,2.306,1.069c-1.212.756-11.493.886-13.669.977a12.615,12.615,0,0,0-4.47-3.4Z" transform="translate(-24.279 32.159)" fill="#f9f8f4"/>
        <path id="Caminho_1033" data-name="Caminho 1033" d="M279.827,408.766c2.984-.156,7.05-1.055,9.408.7,1.251.938,1.772,1.655,3.3,2.176l.3,1.212c-3.036.964-7.884.469-11.128.678a2.5,2.5,0,0,0-1.147-1.577c-1.459-.534-3.219-.977-4.027-2.267l.9-.834A6.785,6.785,0,0,0,279.827,408.766Z" transform="translate(-5.33 33.663)" fill="#f9f8f4"/>
        <path id="Caminho_1034" data-name="Caminho 1034" d="M290.161,407.931c5.473-.222,8.887-1.186,13.4,2.815a1.37,1.37,0,0,1,.586,1.29c-.86.99-2.137.678-3.3.508-2.189-.313-4.391.469-6.568-.052a3.586,3.586,0,0,0-1.916-1.042,18.049,18.049,0,0,0-4.874-1.968c.834-.5,1.85-1.056,2.658-1.564Z" transform="translate(-2.008 33.442)" fill="#f9f8f4"/>
        <path id="Caminho_1035" data-name="Caminho 1035" d="M266.194,405.116c8.027-.534,8.092-1.316,14.608,3.232l.2.482-.86.078-1.29.573a13.637,13.637,0,0,0-2.776.208,22.611,22.611,0,0,0-5.043.091,28.838,28.838,0,0,0-6.4-3.127c.2-.977.743-1.056,1.564-1.551Z" transform="translate(-8.937 32.543)" fill="#f9f8f4"/>
        <path id="Caminho_1036" data-name="Caminho 1036" d="M241.04,415.76c2.606.391,8.131-.339,11.441-.3,1.486,1.277,4.717,2.189,5.33,3.531-.287.743-.586.834-1.433.9a71.457,71.457,0,0,0-8.783.365c-1.994-1.486-4.157-2.28-6.177-3.636-.443-.3-.3-.235-.378-.847Z" transform="translate(-16.087 35.803)" fill="#f9f8f4"/>
        <path id="Caminho_1037" data-name="Caminho 1037" d="M301.422,407.409c2.515.13,7-1.2,8.926.274,1.238.626,4.913,2.333,5.655,3.1l.052.391a4.218,4.218,0,0,1-2.2.469q-4.5-.02-8.991.026a11.033,11.033,0,0,0-4.274-2.359,1.367,1.367,0,0,1-.938-.977,7.092,7.092,0,0,1,1.772-.9Z" transform="translate(1.677 33.234)" fill="#f9f8f4"/>
        <path id="Caminho_1038" data-name="Caminho 1038" d="M194.069,410.658l-.169-.508.352-.326a32.854,32.854,0,0,1,9.591-.013c2.554,1.746,4.014,1.355,5.708,3.883-3.3.652-6.516.365-9.5.912C199.23,413.863,195.216,411.387,194.069,410.658Z" transform="translate(-30.375 33.986)" fill="#f9f8f4"/>
        <path id="Caminho_1039" data-name="Caminho 1039" d="M273.553,408.589a14.806,14.806,0,0,1,2.776-.209l.73,1.59.56-.261c.808,1.29,2.567,1.733,4.027,2.267-1.642,1.355-1.681.182-3.427.847a35.544,35.544,0,0,1-4.17-2.385l-1.069-1.055.573-.808Z" transform="translate(-6.406 33.658)" fill="#b09d81"/>
        <path id="Caminho_1040" data-name="Caminho 1040" d="M273.553,408.589a14.806,14.806,0,0,1,2.776-.209l.73,1.59c-.99.365-.5.339-1.551.039-.469-.73-.3-.326-.365-1.3a4.855,4.855,0,0,0-.156,1.225c-.313.182-.612.365-.938.521L272.98,409.4Z" transform="translate(-6.406 33.658)" fill="#c3bdac"/>
        <path id="Caminho_1041" data-name="Caminho 1041" d="M264.388,403.45l1.042.13c1.069.261,1.082.091,1.746.743l.091.352-.065.808c-.821.5-1.368.56-1.564,1.551-.795,1.147-1.5.834-2.828.678a3,3,0,0,1-1.512-1.264,2.907,2.907,0,0,1,1.681-1.277l.352-.078.7-.2c.508-.56.339-.43.352-1.433Z" transform="translate(-9.946 32.164)" fill="#9f876d"/>
        <path id="Caminho_1042" data-name="Caminho 1042" d="M263.912,403.45l1.042.13c1.069.261,1.082.091,1.746.743l.091.352c-1.668.482-2.2.782-3.922.417l.7-.2c.508-.56.339-.43.352-1.433Z" transform="translate(-9.47 32.164)" fill="#c3bdac"/>
        <path id="Caminho_1043" data-name="Caminho 1043" d="M291.967,410.57a3.541,3.541,0,0,1,1.916,1.042,7.217,7.217,0,0,1-4.782.586l-.3-1.212c1.264-.13,1.981.222,3.154-.417Z" transform="translate(-1.611 34.322)" fill="#c3bdac"/>
        <path id="Caminho_1044" data-name="Caminho 1044" d="M274.9,414.719c.508-.13.378-.13.743-.573.821-.3.573-.208,1.551-.039a8.877,8.877,0,0,1,1.968.873l.691.665c-.287.482-.482.482-1.029.808l-3.922-1.733Z" transform="translate(-5.824 35.346)" fill="#9f876d"/>
        <path id="Caminho_1045" data-name="Caminho 1045" d="M280.414,411.14a2.5,2.5,0,0,1,1.147,1.577,30.87,30.87,0,0,0-4.417.678c0-.4-.1-.977-.143-1.394,1.746-.678,1.772.5,3.427-.847Z" transform="translate(-5.188 34.494)" fill="#c3bdac"/>
        <path id="Caminho_1046" data-name="Caminho 1046" d="M237.643,410.663a10.67,10.67,0,0,1,3.466,0c.169.3.2.456.43.612l-.795.769c-2.033-.026-1.9.117-3.114-1.394Z" transform="translate(-17.12 34.307)" fill="#c3bdac"/>
        <path id="Caminho_1047" data-name="Caminho 1047" d="M250.25,409.932c.547-.065,1.029-.235,1.551.156.534.912.482.912,1.629.938l-.287.678c-1.42.065-2.737-.235-2.88-1.759Z" transform="translate(-13.295 34.1)" fill="#c3bdac"/>
        <path id="Caminho_1048" data-name="Caminho 1048" d="M275.55,408.513l1.29-.573c.86.639.665.248.9,1.069l-.9.834-.56.261-.73-1.59Z" transform="translate(-5.627 33.524)" fill="#9f876d"/>
        <path id="Caminho_1049" data-name="Caminho 1049" d="M239.83,403.8c1.486.026,1.746.469,2.828,1.564-1.134.039-1.147.222-1.968-.248C240.456,404.582,240.364,404.113,239.83,403.8Z" transform="translate(-16.454 32.27)" fill="#c3bdac"/>
        <path id="Caminho_1050" data-name="Caminho 1050" d="M276.543,407.958l.86-.078a3.694,3.694,0,0,0,2.111.521l.4.3-.091.234a6.482,6.482,0,0,1-2.4.091c-.235-.821-.039-.43-.9-1.069Z" transform="translate(-5.33 33.506)" fill="#9f876d"/>
        <path id="Caminho_1051" data-name="Caminho 1051" d="M212.86,408.451a3.563,3.563,0,0,1,2.111.261c.417,3.154,3.193,1.6,4.339,3.857l-.169.5c-1.459,1.016-5.317.417-7.792.5a17.006,17.006,0,0,1-1.824,0c-1.42-.612-4.887-2.411-4.743-4.17,1.16-.873,6.385-.86,8.079-.951Z" transform="translate(-27.078 33.665)" fill="#f9f8f4"/>
        <path id="Caminho_1052" data-name="Caminho 1052" d="M497.575,415.26c-.273,1.446.091,5.421-.977,6.111-2.333,1.512-6.255,1.59-8.991,1.955-8.366.678-16.732,1.173-25.084,1.746q-25.234,1.935-50.495,3.479L305.578,436.37l-65.324,4.509c-6.789.4-21.071,1.929-27.586,1.238-.117-.99.1-5.773.143-7.089,3.271.964,17.957-.156,22.2-.417l29.046-1.981,105.107-7.61q42.611-2.7,85.157-6.229l27.052-2.072c5.825-.456,10.347-.6,16.184-1.46Z" transform="translate(-24.696 35.743)" fill="#454b45"/>
        <path id="Caminho_1053" data-name="Caminho 1053" d="M368.151,396.181c7.063-1.837,14.881-4.235,22.126-4.769,23.573-1.746,48.4,2.385,56.632,27.834a19.1,19.1,0,0,1-2.58-.626c-7.988,2.958-12.992,3.3-21.436,3.792-1.251.078-5.421.052-6.19.261a13.881,13.881,0,0,1-5.616-3.349,40.734,40.734,0,0,0-3.831-5.9c-7.362-9.447-16.992-10.308-27.912-12.223-5.108-.886-8.288-1.655-13.6-2.254.964-1.121,1.811-1.433,2.411-2.763Z" transform="translate(21.709 28.409)" fill="#f9f8f4"/>
        <path id="Caminho_1054" data-name="Caminho 1054" d="M372.711,408.07c.86.443.547.13,1.016.938-.7.652-.795.521-.99,1.3.652,1.016,2.033.9,3.284,1.46-.938.717-1.173.665-2.489.691l.4.182-.378,1.512a7.31,7.31,0,0,1,2.476.313l.547.248c-.2.4-.065.248-.391.482-3.974.182-10.79.678-14.595.508-.808.612-1.225.678-1.407,1.433,1.225.938,2.919.743,4.144,1.994,0,0,.834.612.925.678l-.117,4.2h-.169c-1.329-.652-3.375-2.293-4.652-2.411-.065-.56-.1-.964-.13-1.538-3.922.782-8.8.73-12.953,1.081q-17.533,1.525-35.118,2.5l-28.72,1.9L268.411,426.6c-2.541.2-5.069.43-7.61.612a2.326,2.326,0,0,1-1.746-.782,38.6,38.6,0,0,0-4.665-3.245c.834-.43,11.663-.964,13.461-1.068l33.828-2.2c4.847-.339,11.18-.378,15.872-1.095-1.42,0-1.551.13-2.658-.639l1.251-.6.222-1.056c-1.8-.717-3.57-1.251-4.926-2.606l.078-.2c.391-.912.2-.7.925-.99.912.417.534.117,1.134.964,1.433-1.329,8.314-1.394,10.685-1.577a16.852,16.852,0,0,0,2.776,1.668l.56-.56c-.182-.339-.143-.143,0-.626a11.008,11.008,0,0,0,2.046-.547l.2-.078h.13a101.958,101.958,0,0,1,10.4-.5c1.8,1.929,3,1.981,5.577,2.828a11.079,11.079,0,0,1,1.837.326l.847-.469c-1.929-.847-4.3-1.694-6.294-2.476,3.766-1.29,9.343-1.134,13.4-.925a3.3,3.3,0,0,1,2.254-.274c1.016.039,2.489-.456,4.365-.378l.482-.769c1.29-.235,3.583-.352,4.965-.469,1.994-.234,3.4.391,4.939-.795Z" transform="translate(-12.041 33.564)" fill="#f9f8f4"/>
        <path id="Caminho_1055" data-name="Caminho 1055" d="M316.691,411.2a98.216,98.216,0,0,1,10.4-.508c1.8,1.929,3,1.981,5.577,2.828a11.1,11.1,0,0,1,1.837.326l.847-.469a10.021,10.021,0,0,1,3.088,1.642l.078.469c-.756.925-1.694.717-2.88.769-10.438.508-20.915,1-31.326,1.746-1.42,0-1.551.13-2.658-.638l1.251-.6.222-1.056c-1.8-.717-3.57-1.251-4.926-2.606l.078-.2c.391-.912.2-.7.925-.99.912.417.534.117,1.134.964,1.433-1.329,8.314-1.394,10.685-1.577a16.853,16.853,0,0,0,2.776,1.668l.56-.56c-.182-.339-.143-.143,0-.626a11.014,11.014,0,0,0,2.046-.547l.2-.078h.13Z" transform="translate(1.238 34.356)" fill="url(#linear-gradient-5)"/>
        <path id="Caminho_1056" data-name="Caminho 1056" d="M300.314,412.747c1.433-1.329,8.314-1.394,10.685-1.577a16.85,16.85,0,0,0,2.776,1.668c1.16.482,3.623,1.225,4,2.489-1.069,1.394-9.252,1.381-11.1.743l-.977-.508c-.964.612-1.486.287-2.58.026-1.8-.717-3.57-1.251-4.926-2.606l.078-.2c.391-.912.2-.7.925-.99.912.417.534.117,1.134.964Z" transform="translate(1.235 34.503)" fill="#f9f8f4"/>
        <path id="Caminho_1057" data-name="Caminho 1057" d="M298.18,412.826l.078-.2c.391-.912.2-.7.925-.99.912.417.534.117,1.134.964,1.147.586,4.47,2.176,5.382,2.8-.964.612-1.486.287-2.58.026-1.8-.717-3.57-1.251-4.926-2.606Z" transform="translate(1.232 34.646)" fill="#9f876d"/>
        <path id="Caminho_1058" data-name="Caminho 1058" d="M312.39,411.2a98.215,98.215,0,0,1,10.4-.508c1.8,1.929,3,1.981,5.577,2.828l-.3,1.473c-1.225.652-8.014.847-9.669.886a14.326,14.326,0,0,0-4.066-2.528c-1.407-.534-1.577-.691-1.929-2.163Z" transform="translate(5.539 34.356)" fill="#f9f8f4"/>
        <path id="Caminho_1059" data-name="Caminho 1059" d="M312.837,411.063h.13c.365,1.486.521,1.642,1.929,2.176a19.384,19.384,0,0,1-4.287-.938c-.182-.339-.143-.143,0-.625a11.015,11.015,0,0,0,2.046-.547l.2-.078Z" transform="translate(4.962 34.467)" fill="#c3bdac"/>
        <path id="Caminho_1060" data-name="Caminho 1060" d="M324.71,412.86a11.088,11.088,0,0,1,1.837.326c.691.469.547.169.73.795a2.805,2.805,0,0,1-2.32.443c-.182-.026-.365-.039-.547-.078l.3-1.473Z" transform="translate(9.182 35.016)" fill="#c3bdac"/>
        <path id="Caminho_1061" data-name="Caminho 1061" d="M304.592,414.54l.977.508a10.1,10.1,0,0,1-3.779.573l.222-1.055c1.095.261,1.616.586,2.58-.026Z" transform="translate(2.326 35.525)" fill="#c3bdac"/>
        <path id="Caminho_1062" data-name="Caminho 1062" d="M348.857,408.07c.86.443.547.13,1.016.938-.7.652-.795.521-.99,1.3.652,1.016,2.033.9,3.284,1.46-.938.717-1.173.665-2.489.691l.4.182-.378,1.512a49.7,49.7,0,0,1-7.493.573c-.938-.417-9.017-3.649-9.122-3.766l1.016-.482c1.016.039,2.489-.456,4.365-.378l.482-.769c1.29-.234,3.583-.352,4.965-.469,1.994-.235,3.4.391,4.939-.795Z" transform="translate(11.813 33.564)" fill="#f9f8f4"/>
        <path id="Caminho_1063" data-name="Caminho 1063" d="M346.339,408.073c.86.443.547.13,1.016.938-.7.652-.795.521-.99,1.3.652,1.016,2.033.9,3.284,1.459-.938.717-1.173.665-2.489.691-1.577-.86-3.062-1.5-4.7-2.215l.339-.365c.534-.13,1.082-.222,1.2-.808a9.115,9.115,0,0,0-2.593-.222c1.994-.235,3.4.391,4.939-.795Z" transform="translate(14.331 33.561)" fill="#9f876d"/>
        <path id="Caminho_1064" data-name="Caminho 1064" d="M342.68,408.68a8.635,8.635,0,0,1,2.593.222c-.117.586-.665.678-1.2.808l-.339.365c-.456-.378-5.512-.156-6.515-.143l.482-.769c1.29-.235,3.583-.352,4.965-.469Z" transform="translate(13.064 33.748)" fill="#c3bdac"/>
        <path id="Caminho_1065" data-name="Caminho 1065" d="M332.82,410.218a3.3,3.3,0,0,1,2.254-.274l-1.016.482c.1.117,8.183,3.349,9.122,3.766a49.576,49.576,0,0,0,7.493-.573,7.31,7.31,0,0,1,2.476.313l.547.248c-.2.4-.065.248-.391.482-3.974.182-10.79.678-14.595.508-.808.612-1.225.678-1.407,1.433,1.225.938,2.919.743,4.144,1.994,0,0,.834.612.925.678l-.117,4.2h-.169c-1.329-.652-3.375-2.293-4.652-2.411-.065-.56-.1-.964-.13-1.538-.56-4.274-6.333-1.251-7.362-4.183,1.251-.769,6.815.156,7.9-1.095-.964-1.9-3.9-1.446-5.03-4Z" transform="translate(10.858 34.113)" fill="#9f876d"/>
        <path id="Caminho_1066" data-name="Caminho 1066" d="M168.281,421.964c-.248-2.033-.547-14.021.274-15.038l.7-.026c4.639,2.776,12.888,2.906,17.852,5.225,2.2,1.029,4.548,3,6.672,4.339,10.842,6.8,22.14,13.709,32.564,21.084-.039,1.329-.274,6.1-.143,7.089a60.9,60.9,0,0,1-8.926-3.323c-10.125-4.261-20.354-8.262-30.557-12.3C180.648,426.6,174.484,424,168.281,421.964Z" transform="translate(-38.219 33.209)" fill="#454b45"/>
        <path id="Caminho_1067" data-name="Caminho 1067" d="M359.772,417.26c.026.573.065.977.13,1.538l-.078.326a7.391,7.391,0,0,0-.235,2.684c-29.906,1.381-60.151,4.861-90.07,6.489-3.284.182-6.724.43-9.995.717a11.448,11.448,0,0,1-3.675.117,43.084,43.084,0,0,1,.222-4.5c.886.586.639.221,1,1.016a2.01,2.01,0,0,1,.3-1.16c.795-.248.769-.2,1.264-.86a2.325,2.325,0,0,0,1.746.782c2.541-.182,5.069-.417,7.61-.612l14.986-1.055,28.72-1.9q17.572-.977,35.118-2.5C350.976,417.99,355.85,418.042,359.772,417.26Z" transform="translate(-11.599 36.349)" fill="#c3bdac"/>
        <path id="Caminho_1068" data-name="Caminho 1068" d="M256.052,422.92c.886.586.639.221,1,1.016.234,1.069.339,2.411,1.016,3.153a3.549,3.549,0,0,0,1.433.208,11.45,11.45,0,0,1-3.675.117,43.117,43.117,0,0,1,.221-4.5Z" transform="translate(-11.605 38.065)" fill="#877e6d"/>
        <path id="Caminho_1069" data-name="Caminho 1069" d="M356.731,399.67c2.5,1.277,5.773,2.385,7.714,4.157l1.042,1.121c1.889-.065,5.942,2.1,7.766,3.062a3.465,3.465,0,0,1,.261,1.668l-.039.625a19.608,19.608,0,0,1,3.075.13c1.837.5,5.642,1.707,6.75,3.232-.235,1.186-1.955,1.082-2.945,1.108-1.968.013-3.818.026-5.786.156a3.786,3.786,0,0,1,2.176.612c-.612,1.3-2.541.717-3.362,1.368l-1.355-.86c-2.346.313-5.786.1-7.675.977h-1.16c-.782-.521-11.7.612-13.552.717.326-.235.182-.078.391-.482l-.547-.248a7.27,7.27,0,0,0-2.476-.313l.378-1.512-.4-.182c1.316-.026,1.538.026,2.489-.691-1.264-.56-2.632-.443-3.284-1.459.2-.769.287-.639.99-1.3-.482-.808-.156-.5-1.016-.938a1.365,1.365,0,0,0,.2-.795l-.521-.534.652-1.329L345,407.4l-1.629-.508-.508-.365v-.508l-.847-.182a66.145,66.145,0,0,1,6.581-.925,47.62,47.62,0,0,1-6.62-3.453c2.215-.7,2.645.248,4.913-.339l.052-.352c.443-.443.625-.313,1.433-.417a20.237,20.237,0,0,0,3.87-.1,43.687,43.687,0,0,0,4.5-.56Z" transform="translate(14.507 31.018)" fill="#f9f8f4"/>
        <path id="Caminho_1070" data-name="Caminho 1070" d="M356.731,399.67c2.5,1.277,5.773,2.385,7.714,4.157l1.042,1.121c1.889-.065,5.942,2.1,7.766,3.062a3.465,3.465,0,0,1,.261,1.668c-3.844-.078-8.5.234-12.405.417-3.284-.013-6.672.378-10.06.391-1.564-1.095-2.71-2.176-4.561-2.528L345,407.4l-1.629-.508-.508-.365v-.508l-.847-.182a66.19,66.19,0,0,1,6.581-.925,47.629,47.629,0,0,1-6.62-3.453c2.215-.7,2.645.248,4.913-.339l.052-.352c.443-.443.626-.313,1.433-.417a20.236,20.236,0,0,0,3.87-.1,43.669,43.669,0,0,0,4.5-.56Z" transform="translate(14.507 31.018)" fill="#f9f8f4"/>
        <path id="Caminho_1071" data-name="Caminho 1071" d="M356.731,399.67c2.5,1.277,5.773,2.385,7.714,4.157l1.042,1.121c-2.333,1.016-18.686.248-20.485,2.437l-1.629-.508-.508-.365V406l-.847-.182a66.181,66.181,0,0,1,6.581-.925,47.619,47.619,0,0,1-6.62-3.453c2.215-.7,2.645.248,4.913-.339l.052-.352c.443-.443.626-.313,1.433-.417a20.227,20.227,0,0,0,3.87-.1,43.66,43.66,0,0,0,4.5-.56Z" transform="translate(14.507 31.018)" fill="#c3bdac"/>
        <path id="Caminho_1072" data-name="Caminho 1072" d="M355.588,399.673c2.5,1.277,5.773,2.385,7.714,4.157-1.2.248-10.151.456-11.624.052-.652-.182-4.2-2.163-5.642-2.684l-.287-.1.052-.352c.443-.443.625-.313,1.433-.417a20.233,20.233,0,0,0,3.87-.1,43.669,43.669,0,0,0,4.5-.56Z" transform="translate(15.65 31.015)" fill="#f9f8f4"/>
        <path id="Caminho_1073" data-name="Caminho 1073" d="M348.322,411.438a20.594,20.594,0,0,0,2.489,1.277c2.072.169,6.424.339,8.183-.665l.091-.391c-.951-.821-2.476-1.538-3.01-2.4,1.134-.625,4.118,2.111,5.343,2.554,3.883,1.407,8.04.417,11.988.222a3.786,3.786,0,0,1,2.176.612c-.612,1.3-2.541.717-3.362,1.368l-1.355-.86c-2.346.313-5.786.1-7.675.977h-1.16c-.782-.521-11.7.612-13.552.717.326-.235.182-.078.391-.482l-.547-.248a7.27,7.27,0,0,0-2.476-.313l.378-1.512-.4-.182c1.316-.026,1.538.026,2.489-.691Z" transform="translate(15.671 33.897)" fill="#b09d81"/>
        <path id="Caminho_1074" data-name="Caminho 1074" d="M346.228,411.58c.938.052,2.124.182,2.671,1.056-.182.652,0,.391-.573.769a7.271,7.271,0,0,0-2.476-.313Z" transform="translate(15.68 34.628)" fill="#c3bdac"/>
        <path id="Caminho_1075" data-name="Caminho 1075" d="M345.585,406.03c1.85.339,2.984,1.433,4.561,2.528,3.375,0,6.763-.417,10.06-.391l-1.3.339a5.861,5.861,0,0,0,.6.678c-1.889.222-11.624.756-13.2.456-.482-.808-.156-.5-1.016-.938a1.365,1.365,0,0,0,.2-.795l-.521-.534.652-1.329Z" transform="translate(15.41 32.946)" fill="#b09d81"/>
        <path id="Caminho_1076" data-name="Caminho 1076" d="M369.362,407.343l-.039.626c-3.427.222-10.034.378-13.083.808a7.414,7.414,0,0,1-.6-.678l1.3-.339c3.909-.182,8.561-.5,12.405-.417Z" transform="translate(18.647 33.34)" fill="#9f876d"/>
        <path id="Caminho_1077" data-name="Caminho 1077" d="M365.379,400.368c-.287-.222-.56-.43-.86-.625l-.039-.7a5.036,5.036,0,0,1,1.642-1.929c5.3.6,8.483,1.368,13.6,2.254,10.92,1.9,20.55,2.763,27.912,12.223a40.731,40.731,0,0,1,3.831,5.9l-1.2-.169c-1.121-.626-2.267-1.225-3.362-1.863-8.4-4.861-17.748-7.206-26.909-10.19l-.717.9c-4.417-1.655-9.2-3.127-13.487-5.03-.352-.156-.235-.208-.4-.769Z" transform="translate(21.327 30.242)" fill="#a89c85"/>
        <path id="Caminho_1078" data-name="Caminho 1078" d="M365.17,399.613a149.971,149.971,0,0,0,14.608,4.887l-.717.9c-4.417-1.655-9.2-3.127-13.487-5.03-.352-.156-.235-.208-.4-.769Z" transform="translate(21.536 30.997)" fill="#2f3030"/>
        <path id="Caminho_1079" data-name="Caminho 1079" d="M351.592,413.738c1.85-.1,12.77-1.238,13.552-.717,1.082,2.059,2.319,1.6,4.365,2.463.039.626.078,1.264.13,1.889a10.641,10.641,0,0,0,.313,3.375c-7.011.261-14.334,1.16-21.371,1.486-1.512.065-6.841.6-8.04.3l.117-4.2c-.1-.078-.912-.678-.925-.678-1.225-1.251-2.919-1.056-4.144-1.994.182-.756.6-.821,1.407-1.433,3.805.182,10.607-.326,14.595-.508Z" transform="translate(12.57 35.023)" fill="#c3bdac"/>
        <path id="Caminho_1080" data-name="Caminho 1080" d="M351.589,413.738c1.85-.1,12.77-1.238,13.552-.717,1.082,2.059,2.319,1.6,4.365,2.463l-.4.951c-1.863.508-14.2.912-16.9,1.108-1.863.143-10.021.808-11.532.795-.1-.078-.912-.678-.925-.678-1.225-1.251-2.919-1.055-4.144-1.994.182-.756.6-.821,1.407-1.433,3.805.182,10.607-.326,14.595-.508Z" transform="translate(12.573 35.023)" fill="#f9f8f4"/>
        <path id="Caminho_1081" data-name="Caminho 1081" d="M236.126,421.358c1.9-.391,7.806-1,9.539-.352.9,1.251.456,1.082,1.642,1.446a8.713,8.713,0,0,1,3.453,1.525c.065,1.394-.065,3.167,0,4.3-.326.534-.235.652-.886.717-4.209.469-12.914,1.473-16.888,1.147l-.065-.821c-.4-1.238.169-2.567.6-3.792-.691-.652-4.743-2.8-5.89-3.466,1-.508,7.011-.691,8.5-.717Z" transform="translate(-20.151 37.398)" fill="#c3bdac"/>
        <path id="Caminho_1082" data-name="Caminho 1082" d="M236.126,421.358c1.9-.391,7.806-1,9.539-.352.9,1.251.456,1.082,1.642,1.446a8.712,8.712,0,0,1,3.453,1.525c-.182.156-.365.3-.534.456-5.382.612-11.024.782-16.458,1.16a1.686,1.686,0,0,1-.248-.052c-.691-.652-4.743-2.8-5.89-3.466C228.633,421.567,234.641,421.384,236.126,421.358Z" transform="translate(-20.151 37.398)" fill="#f9f8f4"/>
        <path id="Caminho_1083" data-name="Caminho 1083" d="M213.88,422.875c.886-.443,12.523-1.173,14.021-.912,2.424,2.28,4.965,1.85,5.108,3.375l.039.678a28.437,28.437,0,0,0-.235,4.079c-3.583-.1-13.1,1.173-15.259.534a18.2,18.2,0,0,1,.235-4.613,35.16,35.16,0,0,0-3.245-2.671l-.665-.482Z" transform="translate(-24.319 37.758)" fill="#c3bdac"/>
        <path id="Caminho_1084" data-name="Caminho 1084" d="M213.88,422.875c.886-.443,12.523-1.173,14.021-.912,2.424,2.28,4.965,1.85,5.108,3.375-2.867.274-12.588,1.147-15.22.678a35.157,35.157,0,0,0-3.245-2.671l-.665-.482Z" transform="translate(-24.319 37.758)" fill="#f9f8f4"/>
        <path id="Caminho_1085" data-name="Caminho 1085" d="M367.1,412.24l1.355.86c1.89.782,6.711,1.72,7.506,3l-.717.235c-.078.665-.182,1.42-.2,2.072-.13.86-.013,1.016-.482,1.6a40.816,40.816,0,0,1-7.1.365l-.156.026-.313.521c-1.16.208-2.815.56-3.9.052a10.28,10.28,0,0,1-.313-3.375c-.052-.626-.1-1.264-.13-1.889-2.046-.86-3.3-.4-4.365-2.463h1.16c1.89-.873,5.33-.678,7.675-.977Z" transform="translate(19.451 34.828)" fill="#f9f8f4"/>
        <path id="Caminho_1086" data-name="Caminho 1086" d="M365.18,415.3c1.72-.261,6.411-.365,7.962.156-.078.665-.182,1.42-.2,2.072-.13.86-.013,1.016-.482,1.6a40.81,40.81,0,0,1-7.1.365c-.1-1.381-.13-2.815-.182-4.2Z" transform="translate(21.539 35.69)" fill="#c3bdac"/>
        <path id="Caminho_1087" data-name="Caminho 1087" d="M358.27,412.99h1.16a59.322,59.322,0,0,0,7.845,2.945c.052,1.381.078,2.815.182,4.2l-.156.026-.313.521c-1.16.209-2.815.56-3.9.052a10.278,10.278,0,0,1-.313-3.375c-.052-.626-.1-1.264-.13-1.889-2.046-.86-3.3-.4-4.365-2.463Z" transform="translate(19.444 35.055)" fill="#9f876d"/>
        <path id="Caminho_1088" data-name="Caminho 1088" d="M361.73,416.34c1.186.756,3.362,2.215,4.535,2.815l-.313.521c-1.16.208-2.815.56-3.9.052a10.28,10.28,0,0,1-.313-3.375Z" transform="translate(20.493 36.07)" fill="#706c60"/>
        <path id="Caminho_1089" data-name="Caminho 1089" d="M208.16,418.87c1.2.7,5.108,2.828,5.773,3.753l1.264-.169c.469.73.586,1.342,1.538,1.355l.665.482a35.157,35.157,0,0,1,3.245,2.671,18.164,18.164,0,0,0-.235,4.613c-1.42-1.668-13.735-9.369-15.989-10.373,2.111-.756,1.863-1.694,3.727-2.306Z" transform="translate(-27.186 36.837)" fill="#9f876d"/>
        <path id="Caminho_1090" data-name="Caminho 1090" d="M211.73,421.789l1.264-.169c.469.73.586,1.342,1.538,1.355l.665.482c-.378.743-.613,1.407-1.407,1.655-2.463-1.2-.795-.678-1.095-2.528a4.3,4.3,0,0,1-.964-.782Z" transform="translate(-24.97 37.671)" fill="#a89c85"/>
        <path id="Caminho_1091" data-name="Caminho 1091" d="M367.269,411.406c1.981-.117,3.818-.13,5.786-.156a15.974,15.974,0,0,0-1.668.469c1.681.365,2.88-.235,4.913.391a8.631,8.631,0,0,0,2.88-.378c1.5.6,6.359,2.2,6.763,3.649-1.655.56-9.486.3-11.532-.1l.13,1.316-.964-.222c-.795-1.277-5.6-2.215-7.506-3,.821-.652,2.75-.065,3.362-1.368a3.785,3.785,0,0,0-2.176-.612Z" transform="translate(21.809 34.528)" fill="#f9f8f4"/>
        <path id="Caminho_1092" data-name="Caminho 1092" d="M367.272,411.406c1.981-.117,3.818-.13,5.786-.156a15.976,15.976,0,0,0-1.668.469c1.681.365,2.88-.235,4.913.391-1.538-.013-5.838-.4-6.841.573.2,1.108,3.805,2.1,4.939,2.593l.13,1.316-.964-.222c-.795-1.277-5.6-2.215-7.506-3,.821-.652,2.75-.065,3.362-1.368a3.785,3.785,0,0,0-2.176-.612Z" transform="translate(21.806 34.528)" fill="#9f876d"/>
        <path id="Caminho_1093" data-name="Caminho 1093" d="M372.886,414.35c2.046.4,9.878.665,11.532.1-.2,1.446-.221,2.645-.378,4.04-1.981.274-9.122,1.264-10.633.678l-.417-.743a2.765,2.765,0,0,0-1.042-.938l-.808.261a18.843,18.843,0,0,1,.2-2.072l.717-.234.964.221Z" transform="translate(23.345 35.467)" fill="#c3bdac"/>
        <path id="Caminho_1094" data-name="Caminho 1094" d="M372.049,415.19l.964.222a10.32,10.32,0,0,0-.013,2.762,2.764,2.764,0,0,0-1.042-.938l-.808.261a18.857,18.857,0,0,1,.2-2.072l.717-.235Z" transform="translate(23.348 35.722)" fill="#877e6d"/>
        <path id="Caminho_1095" data-name="Caminho 1095" d="M247.514,423.119c2.841.573,8.275.13,11.22-.339v.182c-.117,1.525-.222,2.958-.208,4.5-2.189.065-10.412.99-11.545.3a40.921,40.921,0,0,0,.534-4.652Z" transform="translate(-14.286 38.022)" fill="#c3bdac"/>
        <path id="Caminho_1096" data-name="Caminho 1096" d="M193.23,413.651c.938-1.577-.313-2.033,1.055-3.271,1.134.73,5.16,3.206,5.981,3.948a10.423,10.423,0,0,0,1.681,1.042c1.473,1.785,2.463,2.346,3.844,3.792a16.1,16.1,0,0,1-.534,2.176A95.665,95.665,0,0,1,196.644,416a30.03,30.03,0,0,0-3.414-2.345Z" transform="translate(-30.578 34.264)" fill="#a89c85"/>
        <path id="Caminho_1097" data-name="Caminho 1097" d="M376.547,403.37c9.161,2.984,18.5,5.33,26.909,10.19,1.108.638,2.254,1.238,3.362,1.863l.5.678-.56.534c-9.6-5.121-20.615-8.848-30.922-12.366l.717-.9Z" transform="translate(24.767 32.139)" fill="url(#linear-gradient-6)"/>
        <path id="Caminho_1098" data-name="Caminho 1098" d="M188.178,405.421l.2-.091c0,.534-.091.782.508,1.186,1.694,1.147,3.388,2.306,5.043,3.518a9.184,9.184,0,0,1-.3,4.157c-.808-.86-5.264-3.362-6.515-4.079.235-2.02.873-3.14,1.082-4.691Z" transform="translate(-32.433 32.733)" fill="#a89c85"/>
        <path id="Caminho_1099" data-name="Caminho 1099" d="M335.727,418.44c1.277.117,3.323,1.772,4.652,2.4l-.274.391c-.886.521-3.375.326-4.5.3.065-.912.039-1.85.039-2.763Z" transform="translate(12.576 36.707)" fill="#706c60"/>
        <path id="Caminho_1100" data-name="Caminho 1100" d="M399.625,412.62l1.2.169a13.8,13.8,0,0,0,5.616,3.349,6.157,6.157,0,0,0,1.108.209c-2.515.691-5.877-1.225-7.988-2.515l.56-.534-.5-.678Z" transform="translate(31.959 34.943)" fill="#2f3030"/>
        <path id="Caminho_1101" data-name="Caminho 1101" d="M341,396.6c1.016.235,5.225-.43,6.646-.469,1.486-.052,2.776-.052,4.326,0-.339-.339,1.668,1.694.612.821,1.082.886,2.828,1.459,3.232,2.906-.378.769-.1.43-1.056.873l.287.6a21.313,21.313,0,0,1-3.87.1c-.808.091-.99-.039-1.433.417l-.052.352c-2.267.586-2.7-.365-4.913.339a39.943,39.943,0,0,0-6.294-.56c.365-.456.2-.274.222-1.069a17.528,17.528,0,0,0-5.134-2.2c-.691-.208-.5-.248-.86-1.042,1.368-.665,6.607-1.069,8.288-1.069Z" transform="translate(11.697 29.933)" fill="#f9f8f4"/>
        <path id="Caminho_1102" data-name="Caminho 1102" d="M351.5,399.552a6.689,6.689,0,0,1,1.916.13l.287.6a21.318,21.318,0,0,1-3.87.1c-.808.091-.99-.039-1.433.417l-.052.352c-2.267.586-2.7-.365-4.913.339a39.949,39.949,0,0,0-6.294-.56c.365-.456.2-.274.221-1.068,4.1.182,9.578-.391,14.139-.313Z" transform="translate(13.04 30.98)" fill="#c3bdac"/>
        <path id="Caminho_1103" data-name="Caminho 1103" d="M348.921,399.552a6.69,6.69,0,0,1,1.916.13l.287.6a21.332,21.332,0,0,1-3.87.1q-.8-.156-1.6-.352l.091-.13a28.68,28.68,0,0,0,3.167-.339Z" transform="translate(15.619 30.98)" fill="#9f876d"/>
      </g>
    </g>
  </g>
</svg>
