<svg xmlns="http://www.w3.org/2000/svg" xmlns:xlink="http://www.w3.org/1999/xlink" width="436.003" height="363.588" viewBox="0 0 436.003 363.588">
  <defs>
    <clipPath id="clip-path">
      <path id="Caminho_1729" data-name="Caminho 1729" d="M316.391,213.686c-4.794-8.151-12.5-14.113-20.938-18.472C288.461,165.476,267.68,87.564,240.5,80.285c-27.1-7.261-35.961,14.447-38.075,21.476-21.226,4.534-30.35,18.268-20,39.577l13.622,28.116c5.786,11.953,11.341,15.337,21.179,10.571a32.563,32.563,0,0,0,7.984-5.675l1.326,4.191-4.562,1.159v10.933s-40.041,12.5-56.333,28.9-29.46,133.178-29.46,133.178H349.3s-20.373-117.748-32.91-139.039Zm-67.526-40.81-5.211,1.326-9.18-14.948a24.437,24.437,0,0,0,.538-9.551,10.542,10.542,0,0,0,8.281-15.069c-.046-10.58-5.249-25.056-17.48-31.185,18.861-17.266,32.455,55.833,36.563,81.435-6.157-1.011-10.228-1.261-10.228-1.261l-3.283-10.738Z" transform="translate(-136.18 -78.819)" fill="none"/>
    </clipPath>
  </defs>
  <g id="NUSMAD_CRISE_Topicos_Top05" transform="translate(-18.473 -62.33)">
    <circle id="Elipse_19" data-name="Elipse 19" cx="171.615" cy="171.615" r="171.615" transform="translate(61.627 72.33)" fill="#dccab0" stroke="#fff" stroke-miterlimit="10" stroke-width="20"/>
    <g id="Grupo_216" data-name="Grupo 216" transform="translate(18.473 73.705)">
      <path id="Caminho_1703" data-name="Caminho 1703" d="M193.09,426.026H454.476V342.207h-30.3V290.1A15.663,15.663,0,0,0,398.3,278.214H381.618l1.484-14.9a7.564,7.564,0,0,0,.621-8.54,44.929,44.929,0,0,1-2.086-4.228l-2.93-7.595-5.035,6.4c-2.68,3.412-4.757,8.476-2.93,12.713l-.575,3.765s-7.381,11.044-7.233,12.389H331.071c-.714-3.329-1.428-6.537-2.1-9.579q-.682-3.018-1.363-5.981-1.029-4.451-2.068-8.754c-.065-.278-.139-.556-.2-.835a19.6,19.6,0,0,0,1.539-3.051l1.5-9.922c-.408-9.7-5.74-18.657-10.172-24.508a19.259,19.259,0,0,0,8.318-15.6,32.379,32.379,0,0,0-12.546-26.2c-7.715-5.675-18.129-8.216-29.646-7.307l-1.307-4.535c-.25-.844-.5-1.688-.751-2.541l-1.873-6.12c-.213-.677-.427-1.363-.649-2.049l-.185-.584c-.278-.872-.566-1.753-.853-2.643l-.074-.232c-3.885-11.74-15-40.736-16.534-41.163,0-.019-.019-.037-.028-.056l-.371-.733c-.352-.677-.7-1.354-1.066-2.022l-.139-.269c-.408-.751-.825-1.5-1.243-2.235l-.334-.584c-.306-.538-.612-1.066-.927-1.586l-.427-.714c-.3-.482-.584-.964-.9-1.465l-.408-.658c-.343-.538-.686-1.076-1.039-1.6l-.269-.408s-.019-.028-.028-.046c.8-.009,1.6.019,2.4.074-.213-.334-.436-.677-.64-1.011-2.309-3.765-5.137-5.545-8.2-8.42-.26.046-.51.083-.77.13-.074-.074-.148-.158-.223-.241l-.278-.287c-.389-.408-.788-.807-1.187-1.2-.148-.148-.3-.287-.5-.464-.343-.325-.686-.64-1.085-.983-.167-.148-.334-.287-.491-.427-.371-.315-.742-.621-1.122-.918l-.111-.093c-.111-.093-.232-.185-.343-.269-.529-.408-1.066-.788-1.595-1.141-.083-.056-.176-.111-.232-.148q-.709-.473-1.447-.89c-.139-.083-.278-.158-.408-.232l-.13-.074c-.389-.213-.779-.417-1.168-.6l-.621-.3c-.408-.185-.816-.352-1.224-.519l-.121-.046c-.139-.056-.287-.111-.445-.176-.658-.232-1.243-.427-1.818-.575-.835-.223-1.651-.417-2.467-.593l-.427-.093c-.427-.093-.853-.167-1.27-.25l.167-.1-.417.065c-.26-.046-.51-.083-.76-.13l-.436-.065c-.77-.111-1.53-.213-2.263-.278h-.139c-.723-.074-1.437-.121-2.142-.148h-.352c-.7-.037-1.382-.028-2.068-.009l-.4.019c-.686.028-1.354.074-2.059.139l-.148.019c-.64.065-1.261.148-1.91.26l-.241.037c-.621.111-1.233.232-1.855.38l-.352.083c-.6.148-1.187.306-1.753.482l-.241.074c-.547.176-1.076.362-1.614.566l-.2.074c-.547.213-1.066.445-1.558.668l-.352.167c-.5.241-1,.491-1.5.77-8.531,1.4-14.753,6.621-17.378,14.373a27.922,27.922,0,0,0-5.777.13,30.876,30.876,0,0,0-16.645,7.854c-6.2-7.706-14.92-12.1-26.011-13.093-37.75-3.357-44.965,29.21-51.317,57.956-1.845,8.364-15.644,15.9-26.734,21.968a141.843,141.843,0,0,0-13.418,7.938c-9.931,7.066-22.264,21.949-24.694,52.763L23.376,240.89c-.037.269-.083.538-.121.807L23,243.533c-.065.445-.13.881-.185,1.335l-.241,1.873c-.056.454-.121.909-.176,1.363l-.77,6.7-1.753,21.179-1.382,32.149a47.6,47.6,0,0,0,47.58,48.831h54.006l.083.083h17.4c-.074-.028-.148-.046-.223-.074h11.016a.737.737,0,0,0-.111.074h10.979s.019-.056.028-.074h15.486a4.613,4.613,0,0,1,2.059-.454h11.656c3.885,0,5.239,3.922,4.071,6.667.019.195.037.408.037.621m38.705-209.17c0-.1.019-.2.019-.315.028-.445.037-.9.046-1.363v-.2c.176-.074.352-.158.529-.241a15.025,15.025,0,0,0,3.765-2.587,15.3,15.3,0,0,0,2.745-3.459,15.277,15.277,0,0,0,1.845-5.119c.065.241.13.491.195.733l.028.121q.487,1.864.946,3.728l.037.148c.306,1.243.612,2.485.909,3.746l.028.111a22.243,22.243,0,0,1-11.081,4.692Zm16.942,24.4c-.389-.046-.751-.083-1.094-.121l-3.663-11.99-6.185,1.576-2.179-3.552a31.846,31.846,0,0,1,11.118,3.069l1.4,7.53c.176.983.343,1.938.5,2.847l.019.093,4.562-.8-4.544.909.074.445Zm39.911,1.419-1.066-4.071a44.666,44.666,0,0,1,9.162.658,22.131,22.131,0,0,0-8.1,3.4Zm64.66,145.178a19.307,19.307,0,0,0,1.66,16.58h-2.355l-7.789-23.8a20.524,20.524,0,0,0,3.524-10.72c1.28-.185,2.541-.436,3.774-.733a64.51,64.51,0,0,1,7.372,10.1,19.369,19.369,0,0,0-6.185,8.6Zm40.059,16.58h-.853l.853-2.355Zm0-20.911a19.636,19.636,0,0,0-5.156,1.122,19.382,19.382,0,0,0-9.635-8.244l.844-8.429h13.947v15.56Z" transform="translate(-18.473 -73.812)" fill="#fff"/>
      <g id="Grupo_215" data-name="Grupo 215" transform="translate(4.591 4.643)">
        <g id="Grupo_213" data-name="Grupo 213">
          <path id="Caminho_1704" data-name="Caminho 1704" d="M138.7,162.56l-5.861,23.433,18.351,6.639V168.226Z" transform="translate(-31.38 -84.907)" fill="#d7af92"/>
          <path id="Caminho_1705" data-name="Caminho 1705" d="M137.393,169l-2,7.993,15.987,2.439v-2.569Z" transform="translate(-31.565 -85.376)" fill="#bc5335"/>
          <path id="Caminho_1706" data-name="Caminho 1706" d="M175.795,125.06s-2.077,17.841-3.616,31.037-5.666,18.212-16.524,16.951S126.3,161.763,128.6,141.974s2.81-24.054,2.81-24.054l32.863-15.43L175.8,125.07Z" transform="translate(-31.057 -80.54)" fill="#d7af92"/>
          <path id="Caminho_1707" data-name="Caminho 1707" d="M136.092,143.278a10.545,10.545,0,1,1-9.254-11.693A10.542,10.542,0,0,1,136.092,143.278Z" transform="translate(-30.088 -82.65)" fill="#d7af92"/>
          <path id="Caminho_1708" data-name="Caminho 1708" d="M169.781,133.173c-.575-2.485-2.012-6.667-5.249-5.619-1.753,1.178-2.522,3.542-3.106,5.517-1.159,4.794-.7,13.529,3.357,16.83l.538.389a1.247,1.247,0,0,1-.287,2.188c-2.226.38-4.451.64-6.7.862l-.019-.111c2.077-.64,4.182-1.178,6.3-1.688a.167.167,0,0,0,.083-.315l-.593-.38c-5.184-4.08-4.173-12.138-3.032-17.86.538-2.17.872-5,3-6.361,2.736-1.168,4.961,1.28,5.5,3.774a10.344,10.344,0,0,1,.334,2.763h-.121Z" transform="translate(-33.231 -82.273)" fill="#212342"/>
          <path id="Caminho_1709" data-name="Caminho 1709" d="M116.68,190.988l4.089-10.738,33.5,6.834v10.933s49.9,12.5,70.206,28.9S261.19,360.1,261.19,360.1H67a43.57,43.57,0,0,1-43.546-44.7c.927-35.71,3.95-81.788,13.158-94.343,19.918-27.142,80.063-30.072,80.063-30.072Z" transform="translate(-23.426 -86.193)" fill="#8e9b80"/>
          <path id="Caminho_1710" data-name="Caminho 1710" d="M124.009,191.769a68.859,68.859,0,0,1,14.123,2.5c4.692.909,9.5,1.224,14.178,2.207a95.065,95.065,0,0,1,9.292,2.309l-.019.111a97.587,97.587,0,0,1-14.188-2.151c-3.125-.621-6.176-1.623-9.329-2.114a79.493,79.493,0,0,1-9.449-1.5c-1.549-.362-3.1-.751-4.627-1.27l.019-.111h0Z" transform="translate(-30.736 -87.03)" fill="#212342"/>
          <path id="Caminho_1711" data-name="Caminho 1711" d="M127.25,361.076H66.382a42.972,42.972,0,0,1-42.943-44.084c.909-35.794,3.913-82.335,13.177-94.955,13.335-18.175,44.705-25.491,63.974-28.348Z" transform="translate(-23.425 -87.171)" fill="#e0dcff"/>
          <path id="Caminho_1712" data-name="Caminho 1712" d="M272.065,361.661H187.051L173.03,201.73h0c14.892,4.247,47,14.392,62.314,26.753,20.308,16.4,36.712,133.178,36.712,133.178Z" transform="translate(-34.301 -87.755)" fill="#fbf5da"/>
          <path id="Caminho_1713" data-name="Caminho 1713" d="M215.977,364.922,207.39,246.58l14.447,118.342Z" transform="translate(-36.8 -91.016)" fill="#f2ede6"/>
          <path id="Caminho_1714" data-name="Caminho 1714" d="M206.482,168.658c-12.843-1.363-34.393,2-33.086-17.823,1.734-26.27-2.782-55.35-32.418-57.993-31.445-2.81-38.854,20.308-46.374,54.34-3.218,14.549-29.859,24.045-42,32.678-10.08,7.168-20.558,21.346-22.756,49.351,1.27-3.2,2.522-6.065,3.737-8.513a41.9,41.9,0,0,1,3.505-6.009c19.918-27.142,80.063-30.072,80.063-30.072l4.089-10.738,5.592,1.141,2.893-11.563h0a25.557,25.557,0,0,1-8-13.928h0a10.548,10.548,0,1,1-1.085-20.771,10.816,10.816,0,0,1,2.2.5h0s26.141-.677,34.347-16.107l10.942,15.542c-.714,6.111-2.049,17.526-3.116,26.688-1.539,13.186-5.666,18.212-16.524,16.942a28.98,28.98,0,0,1-4.776-1v7.14l11.035,2.244v10.942s49.889,12.5,70.206,28.895a24.662,24.662,0,0,1,5.165,6.352s3.273-16.951,1.669-24.462c-4.84-22.635-12.417-32.409-25.3-33.781Z" transform="translate(-23.892 -79.822)" fill="#844e3e"/>
          <path id="Caminho_1715" data-name="Caminho 1715" d="M164.521,114.769a25.241,25.241,0,0,1-8.744,13.807c-4.238,3.848-9.356,6.343-15.208,5.861a24.506,24.506,0,0,1-10.469-3.514l.046-.1a38.9,38.9,0,0,0,10.506,2.383c5.3.334,10.933-1.187,14.874-4.9,3.765-3.941,6.426-8.689,8.893-13.557l.111.037h0Z" transform="translate(-31.18 -81.431)" fill="#844e3e"/>
          <path id="Caminho_1716" data-name="Caminho 1716" d="M121.267,294.7l-31.25-45.734,15.625-13.928-19.1-4.794,5.573-34.189,13.075-2.365Z" transform="translate(-28.013 -87.171)" fill="#f1eeff"/>
          <path id="Caminho_1717" data-name="Caminho 1717" d="M181.237,295.285l15.189-46.17-7.595-11.971h11.081L187.051,206,173.03,201.73Z" transform="translate(-34.301 -87.755)" fill="#f1eeff"/>
          <g id="Grupo_210" data-name="Grupo 210" transform="translate(104.558)">
            <path id="Caminho_1718" data-name="Caminho 1718" d="M239.339,162.23l12.639,20.586-15.5,11.86-7.353-23.284Z" transform="translate(-142.937 -84.883)" fill="#393849"/>
            <path id="Caminho_1719" data-name="Caminho 1719" d="M186.049,144.281,199.671,172.4c5.786,11.953,11.341,15.337,21.179,10.571s24.008-20.317,15.319-38.242-10.562-21.791-10.562-21.791L189.5,119.17l-3.459,25.111Z" transform="translate(-139.805 -81.753)" fill="#393849"/>
            <path id="Caminho_1720" data-name="Caminho 1720" d="M231.127,147.733a10.545,10.545,0,1,0,4.9-14.086A10.554,10.554,0,0,0,231.127,147.733Z" transform="translate(-143.006 -82.729)" fill="#393849"/>
            <path id="Caminho_1721" data-name="Caminho 1721" d="M252.149,190.988l-3.283-10.738-26.882,6.834v10.933s-40.041,12.5-56.333,28.9S136.19,360.1,136.19,360.1H349.311S328.938,242.351,316.4,221.06c-15.987-27.142-64.252-30.072-64.252-30.072Z" transform="translate(-136.181 -86.193)" fill="#393849"/>
            <path id="Caminho_1722" data-name="Caminho 1722" d="M185.715,143.048c-11.211-23.1.436-37.3,25.593-40.523s35.2,19.075,35.274,33.809l-60.859,6.723Z" transform="translate(-139.471 -80.52)" fill="#393849"/>
            <path id="Caminho_1723" data-name="Caminho 1723" d="M207.02,103.885s6.473-32.214,38.64-23.6c33.661,9.023,57.5,126.372,57.5,126.372l-34.338-13.214s-17.081-125.426-42.3-84.375l-19.5-5.193Z" transform="translate(-141.33 -78.819)" fill="#393849"/>
            <g id="Grupo_209" data-name="Grupo 209" clip-path="url(#clip-path)">
              <g id="Grupo_208" data-name="Grupo 208" transform="translate(-14.506 3.095)">
                <path id="Caminho_1724" data-name="Caminho 1724" d="M219.092,82.651c-20.929,1.91-19.566,26.623-9.227,39.447,2.281,2.708,5.759,5.388,9.477,4.423,6.584-1.892,5.36-9.06,2.522-13.715-5.619-9.366-16.719-16.154-27.81-14.707a25.341,25.341,0,0,0-17.8,11.684c-4.813,8.086-1.845,18.685,4.507,25.065,3.635,3.811,10.376,6.853,12.407-.111,1.029-3.616-1.678-6.881-4.534-8.809a28.972,28.972,0,0,0-21.077-4.228c-3.514.751-6.964,2.8-8.271,6.269a15.668,15.668,0,0,0,.269,10.72,17.551,17.551,0,0,0,11.842,10.627c2.587.631,5.814.093,6.992-2.55,1.011-2.086,1.215-7.706-1.762-8.253-3.153-.167-5.8,2.94-7.5,5.295-2.94,4.173-4.738,11.591.4,14.772,4.924,2.671,10.914,2.253,16.311,1.586,6.1-.733,24.666-5.9,16.96-14.623-3.477-3.366-4.8,4.34-4.637,6.667.046,3.607,1.1,7.446,3.783,9.968,7.3,6.3,18.694-.371,24.416-6.027,2.865-2.819,8.874-10.154,4.4-13.65-4.154-2.791-5.647,1.957-5.174,5.378a13.864,13.864,0,0,0,5.017,9.264c4.358,3.524,10.376,3.338,15.56,1.818a24.521,24.521,0,0,0,16.024-13.835c1.2-3.088,2.272-7.242.056-10.061-.575-.64-2.114-1.372-2.782-.621-.519,1.02.046,2.392.464,3.459a18.262,18.262,0,0,0,9.523,9.162c5.007,2.1,11.044.714,15.087-2.754a10.679,10.679,0,0,0,3.19-9.662c-.751-5.443-3.663-10.395-7.177-14.559-2.875-3.431-11.359-11.128-15.208-5.545-1.15,2.439,3.31,3.533,5.063,3.839,5.156.779,11.461-.13,14.725-4.572,3.088-4.6,1.363-10.905-1.372-15.291-7.585-11-24.685-9.672-35.349-4.228-4.683,2.448-9.829,6.63-9.542,12.426a2.813,2.813,0,0,0,.306,1.261c.844,1.122,2.392-.964,2.921-1.678a18.913,18.913,0,0,0,3.2-10.478c-.13-13.381-16.089-14.327-26.2-13.2h0Zm-.009-.121c43.435-4.609,20.53,35.089,19.427,24.23-.362-5.972,4.85-10.358,9.662-12.917a37.512,37.512,0,0,1,21.893-4.034c7.743.918,14.763,5.6,16.9,13.4,1.91,5.935.621,12.138-5.453,14.911a19.793,19.793,0,0,1-11.285,1.419c-2.569-.38-7.632-2.021-5.907-5.545,4.5-6.7,13.641,1.178,17.146,5.323,3.663,4.321,6.686,9.477,7.483,15.189a11.924,11.924,0,0,1-3.579,10.729c-4.4,3.793-10.914,5.276-16.367,3a19.467,19.467,0,0,1-10.172-9.829c-.547-1.4-1.224-3.106-.343-4.609,1.141-1.539,3.552-.7,4.627.482,2.634,3.2,1.512,7.826.148,11.313a25.636,25.636,0,0,1-16.784,14.447c-22.264,6.6-26.131-18.908-18.036-19.251a4.993,4.993,0,0,1,4.637,6.463c-.927,3.783-3.459,6.816-6.129,9.5-6.046,5.907-17.8,12.556-25.408,5.916-2.81-2.68-3.9-6.658-3.941-10.432.065-2.55.371-6.408,2.81-7.891,2.624-1.2,5.406,3.932,4.7,6.139-1,3.82-5.026,5.759-8.346,7.242a44.184,44.184,0,0,1-22.079,2.977c-2.726-.473-5.749-1.354-7.446-3.728-3.514-5.842.5-13.733,5.425-17.489,4.748-3.412,7.168-.213,6.816,4.7-.167,4.609-3.941,6.63-8.188,5.638a18.154,18.154,0,0,1-12.333-10.9,16.306,16.306,0,0,1-.352-11.211c1.363-3.718,5.054-5.99,8.772-6.8a29.7,29.7,0,0,1,21.81,4.228c3.153,2.086,6.092,5.833,4.943,9.866-2.3,7.789-9.857,5.054-14.1.584-6.7-6.658-9.69-17.832-4.609-26.27A26.015,26.015,0,0,1,193.944,97.3c7.585-.974,15.217,1.975,21.022,6.751a31.03,31.03,0,0,1,7.326,8.522c1.771,3.218,3.264,7.307,1.558,10.859a7.06,7.06,0,0,1-9.922,2.5c-6.3-3.848-9.662-11.944-11.016-18.926-2.272-12.324,2.671-23.294,16.172-24.471h0Z" transform="translate(-123.244 -82.157)" fill="#575252"/>
                <path id="Caminho_1725" data-name="Caminho 1725" d="M227.417,167.2c-12.018,1.085-21.346,7.8-23.989,19.909-2.8,13.418,1.53,28.858,10.07,39.457,3.45,4.089,8.67,8.132,14.317,6.7a9.808,9.808,0,0,0,6.324-4.933c4.312-9.755-6.1-22.589-13.39-28.357-8.605-6.964-19.872-11.23-30.99-9.718A38.3,38.3,0,0,0,162.812,207.9c-7.3,12.25-2.838,28.329,6.806,37.982,5.684,5.925,15.922,10.414,19.084-.278,2.634-11.294-13.325-17.99-22.237-19.733-10.061-2-24.546-1.558-29.108,9.4-3.811,10.664,1.456,22.96,10.766,28.96,6.751,4.7,18.425,6.435,19.2-4.553.464-7.057-2.634-11.406-9.375-6.621a26.3,26.3,0,0,0-9.254,13.566c-1.521,5.137-.927,11.944,4.182,14.818a22.109,22.109,0,0,0,7.873,2.615,57.092,57.092,0,0,0,16.719-.2c9.245-1.057,37.305-9,25.593-22.19-2.467-2.708-4.757-.807-5.851,1.975a21.416,21.416,0,0,0-1.372,8.132c.065,5.462,1.66,11.276,5.712,15.106,10.849,9.57,28.422-.491,36.953-9.013,4.386-4.228,13.52-15.606,6.6-20.846-4.293-2.977-7.5-.538-8.114,4.2A20.129,20.129,0,0,0,239.36,273.1c5.851,10.951,17.841,12.379,28.811,9.1,10.645-2.967,20.039-10.673,24.286-20.948,1.53-3.765,2.513-7.956,1.715-11.981-.473-2.513-2.29-4.933-4.98-4.961-2.912.093-1.391,4.4-.677,6.083a27.732,27.732,0,0,0,14.475,13.937c7.65,3.2,16.8,1.113,23-4.2,4.2-3.626,5.675-9.4,4.905-14.79-1.613-10.886-8.531-20.818-16.784-27.865-3.858-3.051-9.579-6.992-14.633-4.989-1.512.751-3.357,2.346-3.125,4.182.807,2.986,5.425,4.043,8.142,4.562,7.854,1.178,17.433-.213,22.4-7,4.711-6.843,2.068-16.738-2.068-23.266-8.03-12.018-24.314-14.058-37.574-11.647-10.423,1.966-22.468,6.732-28.236,16.154a14.32,14.32,0,0,0-1.966,7.956c.093.89.167,2.207,1.178,2.467a1.558,1.558,0,0,0,.918-.176,8.774,8.774,0,0,0,2.9-2.875,28.691,28.691,0,0,0,4.813-15.8c-.269-20.215-24.165-21.55-39.447-19.863h0Zm-.009-.121c15.43-1.725,39.355-.408,39.7,19.983a29.218,29.218,0,0,1-4.794,15.977c-.983,1.28-2.3,3.292-4.136,3.208-1.224-.269-1.391-1.78-1.484-2.782-.436-5.823,3.162-11.026,7.455-14.6,14.113-11.545,40.263-15.838,55.582-4.581a27.672,27.672,0,0,1,10.655,22.385c-.408,13.158-15.013,17.572-26.076,15.727-3.19-.593-8.244-1.79-9.115-5.508-.325-2.467,1.79-4.451,3.8-5.443,7.66-3.106,17.294,5.768,21.94,11.109,6.945,8.244,13.659,20.2,10.553,31.259-1.66,5.721-6.7,9.607-12.073,11.647a22.6,22.6,0,0,1-16.877.065,29.125,29.125,0,0,1-13.047-10.84c-1.827-2.476-6.009-11.192-.3-11.526,3.255,0,5.61,2.94,6.129,5.9.862,4.284-.185,8.717-1.8,12.667-4.4,10.6-14.086,18.518-25.046,21.56-8.1,2.374-17.73,2.587-24.573-3.042a22.1,22.1,0,0,1-7.928-14.809c-.677-4.831,1.307-12.556,7.687-10.154,19.167,8.04-24.017,49.184-42.563,32.094-11.582-10.682-3.83-39.132,4.683-22.478,4.655,11.944-19.891,18.416-28.283,19.4-8.207,1.085-22.5,1.873-27.977-5.406-3.867-6.269-1.465-14.308,2.365-20,2.392-3.412,5.462-6.834,9.6-8.058,5.49-1.419,6.547,4.859,6.25,8.893-.306,6.918-5.8,9.811-12.175,8.346-11.072-2.615-19.807-13.233-20.122-24.629-.25-5.833,1.456-11.675,6.463-15.124,10.9-7.53,29.98-4.145,40.421,2.977,6.417,4.275,10.423,11.471,5.453,18.518-2.791,4.034-8.021,3.922-12.018,1.864-5.156-2.569-9.134-6.955-12.166-11.758-6.055-9.57-7.65-22.524-1.632-32.5a39,39,0,0,1,27.671-17.99c11.35-1.465,22.774,2.93,31.472,10.07,7.4,5.944,17.85,19.028,13.353,28.987a10.268,10.268,0,0,1-10.822,5.211c-4.219-.807-7.65-3.793-10.349-6.973-8.568-10.645-12.9-26.2-10.052-39.661,2.661-12.138,12.073-18.926,24.147-19.983h0Z" transform="translate(-121.618 -88.291)" fill="#575252"/>
                <path id="Caminho_1726" data-name="Caminho 1726" d="M140.708,377.98a37.768,37.768,0,0,1,3.153-5.7c2.9-4.479,11.712-13.9,17.34-9.431,3.273,3.042,3.19,11.146,1.437,15.143h.473c1.076-2.615,1.447-6.055.807-10.451-1.354-7.687-7.363-7.585-12.815-3.542a34.426,34.426,0,0,0-10.8,13.993h.4Z" transform="translate(-121.974 -102.449)" fill="#575252"/>
                <path id="Caminho_1727" data-name="Caminho 1727" d="M191.89,403.561c-14.531,4.6-35.46,7-47.366.269a12.6,12.6,0,0,1-6.037-8.679,19.96,19.96,0,0,1-.436-4.312c-.121,0-.25-.009-.371-.018a17.315,17.315,0,0,0,2.559,9.56c3.329,4.636,9.227,6.343,14.586,7.261,12.277,1.725,25.176.158,37.073-3.626v-.454Z" transform="translate(-121.783 -104.597)" fill="#575252"/>
                <path id="Caminho_1728" data-name="Caminho 1728" d="M378.412,345.432c-1.734-11.9-8.318-23.09-16.682-31.908.807-.3,1.595-.621,2.374-.983,11.869-5.517,14.16-17.136,10.525-28.811-4.33-15.439-17.554-24.212-32.928-26.224-14.633-2.1-34.82,1.595-48.488,11.081-.844-26.307-31.908-27.967-52.049-25.732-15.9,1.428-28.143,10.247-31.676,26.224-.287,1.382-.519,2.782-.7,4.191a48.084,48.084,0,0,0-37.862,6.843c-12.825,8.151-21.773,21.643-20.41,37.259.009.148.037.287.046.436h-.26c-16.562-.213-30.619,6.741-29.729,25.269.26,11.2,6.435,20.465,13.993,26.252h.853c-8.281-6.12-13.919-15.959-14.16-26.27-.816-18.119,12.973-24.648,29.034-24.388.121,0,.25.009.38.019,1.567,13.984,10.191,28.542,22.793,35.07,3.385,1.632,7.446,2.578,11.09,1.15,3.672-1.428,5.916-5.044,6.918-8.7a14.041,14.041,0,0,0-1.706-11c-7.289-11.508-24.944-16.83-38.177-17.359-.019-.176-.046-.362-.056-.538-1.382-15.245,7.391-28.431,19.9-36.434a46.649,46.649,0,0,1,37.259-6.806c-1.818,16.395,3.82,34.4,14,47.042,4.572,5.48,11.554,10.868,19.112,8.967,8.271-2.207,11.359-9.625,9.551-17.591-4.238-17.452-21.226-32.149-37.778-37.824a44.938,44.938,0,0,0-4.636-1.354c2.068-15.6,11.693-28.412,32.233-30.332,16.46-1.512,41.1-1.771,49.527,15.421a25.746,25.746,0,0,1,2.272,10.367,37.607,37.607,0,0,0-10.729,11.118,19.321,19.321,0,0,0-2.578,10.7c.121,1.3.325,3.255,1.892,3.607,2.3.139,4.164-2.569,5.378-4.182a38.167,38.167,0,0,0,6.3-20.762c18.843-12.806,50.074-16.793,68.509-3.032,8.726,6.565,13.659,17.693,13.437,28.524-.315,9.421-6.491,15.161-14.3,17.915-1.623-1.66-3.3-3.236-5.026-4.7-5.925-4.776-16.07-11.239-23.09-5.1-7.353,7.057,3.116,11.573,9.375,12.4a39.834,39.834,0,0,0,18.333-1.307c8.364,8.7,15.022,19.853,16.728,31.63,1.029,7.122-.946,14.79-6.5,19.585a31.8,31.8,0,0,1-19.844,7.576c-8.188.046-15.875-3.691-21.736-9.347a28.094,28.094,0,0,0,1.011-12.917c-.7-3.848-3.654-7.576-7.863-7.595-5.276.111-3.579,6.881-2.17,9.913a38.368,38.368,0,0,0,7.632,10.951c-4.683,14.772-18.184,26.307-33.012,30.406-6.964,1.957-14.457,2.93-21.532,1.076a25.312,25.312,0,0,1-13.947-9.254c8.884-9.811,12.88-20.632,5.749-25.9-9.384-6.157-13.474,3.626-12.426,11.842a28.662,28.662,0,0,0,5.49,14.16c-.8.881-1.567,1.66-2.244,2.309-11.192,11.2-34.44,24.444-48.665,11.823a23.552,23.552,0,0,1-6.315-11.026c5.425-2.708,11.09-6.547,12.509-12.361.835-3.8-1.243-7.493-3.7-10.237-3.616-3.867-7.066-1.4-8.735,2.782-.315.835-.584,1.706-.825,2.6a5.267,5.267,0,0,1,.2,1.317,17.394,17.394,0,0,1,2.43-6.055c2.81-4,6.213-1.335,8.188,1.873a9.921,9.921,0,0,1,1.929,7.622c-1.345,5.564-6.871,9.338-12.129,11.99a34.177,34.177,0,0,1-.779-4.089v3.514c.065.287.13.575.2.862-.074.037-.139.065-.2.1v.529c.111-.056.223-.1.334-.158,1.753,6.176,5.378,11.619,11.063,14.392,14.2,6.973,34.968-4.024,47.227-17.127a26.245,26.245,0,0,0,14.373,9.523c13.882,3.45,31.027-2.3,41.691-11.424A48.4,48.4,0,0,0,328.709,364.7c6.018,5.647,13.845,9.338,22.162,9.292a32.872,32.872,0,0,0,16.052-4.618c8.976-4.905,12.862-13.984,11.48-23.924Zm-197.051-17.4c4.377,3.06,8.494,7.224,9.421,12.639a13.729,13.729,0,0,1-2.55,10.07A9.28,9.28,0,0,1,179,354.455c-5.378-.872-9.987-4.293-13.807-8.058a47.88,47.88,0,0,1-13.511-27.68c10.451.5,20.975,3.459,29.683,9.319Zm51.122-42.118c8.374,6.908,15.9,15.885,18.444,26.651,1.8,7.752-1.131,14.985-9.208,17.183-11.2,2.569-20.252-9.273-24.972-17.952-6.167-11.61-9.329-25.464-7.919-37.7a57.926,57.926,0,0,1,23.646,11.832Zm52.476,6.046c-5.592,5.8-5.434-3.079-4.423-6.825,1.354-5.36,5.035-9.8,9.208-13.307q1.544-1.252,3.227-2.4C292.971,277.609,289.883,286.252,284.959,291.964Zm57.372,22.153c-3.589-.658-9.848-2.151-10.849-6.129-.325-2.485,2.151-4.683,4.21-5.684,6.6-2.689,14.373,2.559,19.4,6.575q2.323,1.975,4.516,4.191a38.57,38.57,0,0,1-17.285,1.048ZM253.524,371.8c-.946-7.242,2.3-16.719,10.951-11.007,7.817,5.851.269,17.684-5.731,24.5a27.623,27.623,0,0,1-5.211-13.492Zm74.61-9.4a37.253,37.253,0,0,1-6.927-10.089c-.992-2.318-2.977-8.123,1.057-8.244a6.313,6.313,0,0,1,4.47,2.031c2.374,2.615,2.791,6.528,2.578,9.968a36.115,36.115,0,0,1-1.187,6.343Z" transform="translate(-120.537 -93.788)" fill="#575252"/>
              </g>
            </g>
          </g>
          <g id="Grupo_211" data-name="Grupo 211" transform="translate(44.923 152.566)">
            <path id="Caminho_1730" data-name="Caminho 1730" d="M71.87,302.926,196.462,259.25l24.267,46.4L89.989,358.044Z" transform="translate(-71.87 -244.503)" fill="#e0dcff"/>
            <path id="Caminho_1731" data-name="Caminho 1731" d="M190.573,264.73a132.664,132.664,0,0,1,9.338,17.563c3.051,5.888,6.621,11.5,9.607,17.424,2,3.941,3.922,7.928,5.647,12.018l-.1.056a187.21,187.21,0,0,1-9.653-17.4c-2.012-3.932-3.7-8.04-5.823-11.916-2.188-3.839-4.516-7.6-6.38-11.628-.964-1.984-1.882-4.006-2.726-6.055l.1-.056h0Z" transform="translate(-80.493 -244.902)" fill="#212342"/>
            <path id="Caminho_1732" data-name="Caminho 1732" d="M250.284,291.209l15.773-6.194a6.306,6.306,0,0,0,2.188-1.447l8.123-8.244a3.792,3.792,0,0,0-1.363-6.2h0a7.737,7.737,0,0,0-8.225,1.808l-6.343,6.825-20.558,3.208,10.4,10.247Z" transform="translate(-84.085 -245.185)" fill="#d7af92"/>
            <path id="Caminho_1733" data-name="Caminho 1733" d="M242.65,283.493l21.977-8.958a6.306,6.306,0,0,0,2.188-1.447l8.123-8.244a3.792,3.792,0,0,0-1.363-6.2h0a7.737,7.737,0,0,0-8.225,1.808l-6.343,6.825-26.947,5.777,10.6,10.441Z" transform="translate(-83.516 -244.423)" fill="#d7af92"/>
            <path id="Caminho_1734" data-name="Caminho 1734" d="M234.871,275.655,260,265.065a6.307,6.307,0,0,0,2.188-1.447l8.123-8.244a3.792,3.792,0,0,0-1.363-6.2h0a7.737,7.737,0,0,0-8.225,1.808l-6.343,6.825-29.321,8.179,9.811,9.662Z" transform="translate(-83.007 -243.734)" fill="#d7af92"/>
            <path id="Caminho_1735" data-name="Caminho 1735" d="M227.581,268.693l21.977-8.958a6.306,6.306,0,0,0,2.188-1.447l8.123-8.244a3.792,3.792,0,0,0-1.363-6.2h0a7.737,7.737,0,0,0-8.225,1.808l-6.343,6.825L216.5,257.769l11.09,10.924Z" transform="translate(-82.385 -243.347)" fill="#d7af92"/>
            <path id="Caminho_1736" data-name="Caminho 1736" d="M209.629,262.426l14.317-14.234a6.067,6.067,0,0,1,6.473-1.354h0a2.681,2.681,0,0,1,1.465,3.616L227,261.174l-17.378,1.252Z" transform="translate(-81.885 -243.571)" fill="#d7af92"/>
            <path id="Caminho_1737" data-name="Caminho 1737" d="M247.972,290.5l-21.022,8.086-18.88-36.1,7.808-3.589Z" transform="translate(-81.772 -244.478)" fill="#d7af92"/>
            <path id="Caminho_1738" data-name="Caminho 1738" d="M226.95,298.729l-14.976-37.9-3.9,1.8Z" transform="translate(-81.772 -244.618)" fill="#bc5335"/>
            <path id="Caminho_1739" data-name="Caminho 1739" d="M246.24,281.374c1.743-.529,4.3-1.215,6.092-1.688a16.106,16.106,0,0,1,6.259-.89l.028.111a16.122,16.122,0,0,1-6.092,1.688l-3.125.473c-1.048.139-2.086.3-3.134.417l-.028-.111h0Z" transform="translate(-84.547 -245.921)" fill="#bc5335"/>
            <path id="Caminho_1740" data-name="Caminho 1740" d="M237.86,273c2.114-.64,6.389-1.882,8.522-2.476a31.692,31.692,0,0,1,8.717-1.678l.028.111c-3.895,1.929-8.661,2.43-12.871,3.338l-4.368.807-.028-.111h0Z" transform="translate(-83.938 -245.201)" fill="#bc5335"/>
            <path id="Caminho_1741" data-name="Caminho 1741" d="M235.79,263.92c2.179-.742,6.575-2.188,8.772-2.884a34.349,34.349,0,0,1,8.986-2.1l.028.111c-3.987,2.114-8.921,2.838-13.251,3.95l-4.507,1.02-.028-.111h0Z" transform="translate(-83.787 -244.481)" fill="#bc5335"/>
          </g>
          <path id="Caminho_1742" data-name="Caminho 1742" d="M63.95,238.09l17.2,59.839,33.114-11.6L84.9,288.989Z" transform="translate(-26.371 -90.399)" fill="#f2ede6"/>
          <path id="Caminho_1743" data-name="Caminho 1743" d="M128.248,349.772A98.524,98.524,0,0,1,112.669,357c-5.221,2.346-10.191,5.23-15.458,7.511-3.5,1.539-7.029,2.986-10.655,4.228l-.046-.1a139.741,139.741,0,0,1,15.43-7.567c3.487-1.549,7.14-2.745,10.571-4.414,3.4-1.725,6.741-3.6,10.312-4.98,1.762-.733,3.552-1.409,5.378-2.012l.046.1Z" transform="translate(-28.011 -98.511)" fill="#212342"/>
          <g id="Grupo_212" data-name="Grupo 212" transform="translate(238.304 102.784)">
            <path id="Caminho_1744" data-name="Caminho 1744" d="M330.557,192.7h0a17.293,17.293,0,0,1,6.167,20.966L330.5,228.449l-33.142-22.57L308.58,194.7a17.284,17.284,0,0,1,21.977-2.012Z" transform="translate(-281.645 -189.662)" fill="#d7af92"/>
            <path id="Caminho_1745" data-name="Caminho 1745" d="M310.788,196.156l-16.951-2.569a2.9,2.9,0,0,0-2.912,1.3h0a3.992,3.992,0,0,0,2.04,5.768l13.956,5.87,3.867-10.367Z" transform="translate(-281.136 -189.945)" fill="#d7af92"/>
            <path id="Caminho_1746" data-name="Caminho 1746" d="M296.137,207.16l10.2,6.945L286.02,229.3a3.315,3.315,0,0,1-5.119-1.419h0a7.083,7.083,0,0,1,1.7-7.706l13.548-13.019Z" transform="translate(-280.413 -190.934)" fill="#d7af92"/>
            <path id="Caminho_1747" data-name="Caminho 1747" d="M304.179,212.6l12.945,8.142-21.717,20.41a3.314,3.314,0,0,1-5.267-.7h0a7.1,7.1,0,0,1,.631-7.863l13.4-19.974Z" transform="translate(-281.054 -191.33)" fill="#d7af92"/>
            <path id="Caminho_1748" data-name="Caminho 1748" d="M314.509,218.08l10.627,6.157-13.743,21.328a3.314,3.314,0,0,1-5.295.454h0A7.1,7.1,0,0,1,305,238.2l9.514-20.122Z" transform="translate(-282.149 -191.728)" fill="#d7af92"/>
            <path id="Caminho_1749" data-name="Caminho 1749" d="M323.121,225.012l12.194-1.892L330.864,248.1a3.32,3.32,0,0,1-4.711,2.467h0a7.108,7.108,0,0,1-4.024-6.788l1-18.768Z" transform="translate(-283.445 -192.095)" fill="#d7af92"/>
          </g>
        </g>
        <g id="Grupo_214" data-name="Grupo 214" transform="translate(174.661 173.776)">
          <path id="Caminho_1750" data-name="Caminho 1750" d="M379.7,413.891a6.52,6.52,0,0,1,8.244,4.173l3.932,12.055a15.83,15.83,0,0,0-.185-23.59,16.047,16.047,0,0,0-7.251-3.635l-9.857-30.156-12.4-37.889-.1-.315a15.8,15.8,0,0,0-3.783-24.258,14.575,14.575,0,0,0-3.273-1.456,15.776,15.776,0,0,0-3-.649l3.95,12.055a6.542,6.542,0,1,1-12.435,4.071l-3.95-12.055a15.86,15.86,0,0,0-4.358,16.636,15.419,15.419,0,0,0,2.745,5.035,15.494,15.494,0,0,0,9.1,5.545l9.264,28.366,12.936,39.558.148.427a.352.352,0,0,1-.065.074,15.792,15.792,0,0,0,1.938,22.9l.037.028a3.178,3.178,0,0,0,.306.223,16.092,16.092,0,0,0,7.836,3.134l-3.932-12.055a6.528,6.528,0,0,1,4.173-8.244Z" transform="translate(-220.697 -269.27)" fill="#f4ede4"/>
          <path id="Caminho_1751" data-name="Caminho 1751" d="M391.121,414.384,404.928,275.7a.432.432,0,0,0-.13-.325,3.176,3.176,0,0,0,1.168-4.4,47.771,47.771,0,0,1-2.337-4.757s-4.479,5.694-1.716,8.958a.222.222,0,0,0-.046.13L380.679,413.067c-.677,4.423,1.187,8.494,4.182,8.874h0c3,.38,5.814-3.106,6.259-7.557Z" transform="translate(-224.049 -266.22)" fill="#c19a66"/>
          <path id="Caminho_1752" data-name="Caminho 1752" d="M449.24,306.2V418.12H427.18V306.2a11.03,11.03,0,1,1,22.06,0Z" transform="translate(-227.44 -268.325)" fill="#2d5895"/>
          <path id="Caminho_1753" data-name="Caminho 1753" d="M421.665,317.5H250.18V299.25H421.665a9.124,9.124,0,0,1,9.125,9.125h0A9.124,9.124,0,0,1,421.665,317.5Z" transform="translate(-214.572 -268.621)" fill="#81899d"/>
          <rect id="Retângulo_140" data-name="Retângulo 140" width="82.669" height="74.545" transform="translate(169.436 94.621)" fill="#d0ccc6"/>
          <rect id="Retângulo_141" data-name="Retângulo 141" width="82.669" height="74.545" transform="translate(0 94.621)" fill="#2d5895"/>
          <path id="Caminho_1754" data-name="Caminho 1754" d="M266.52,418.12H244.45V306.2a11.037,11.037,0,0,1,11.035-11.035h0A11.037,11.037,0,0,1,266.52,306.2Z" transform="translate(-214.155 -268.325)" fill="#2d5895"/>
          <path id="Caminho_1755" data-name="Caminho 1755" d="M425.784,345.852a14.714,14.714,0,0,0-13.344,1.734c-.213.148-.427.306-.64.464-.056-.26-.121-.51-.195-.77a14.714,14.714,0,1,0-19.139,17.85,14.464,14.464,0,0,0,3.635.807l-10.766,40.514,9.653,3.468,16.7-36.313.482-1.039.334-.733a14.928,14.928,0,0,0,3.32,1.7,14.713,14.713,0,0,0,9.959-27.689Zm-23.6,10.9a4.215,4.215,0,0,1-3.134,2.726,8.093,8.093,0,0,1-1.252.148,8.331,8.331,0,1,1,2.485-16.163,8.38,8.38,0,0,1,3.561,2.476,4.24,4.24,0,0,1,.742,4.164l-2.392,6.649Zm26.419,5.879a8.337,8.337,0,0,1-13.362,3.273,7.713,7.713,0,0,1-.89-.937,4.165,4.165,0,0,1-.668-4.034l2.42-6.714a4.163,4.163,0,0,1,3.069-2.68,8.341,8.341,0,0,1,9.44,11.109Z" transform="translate(-224.208 -271.334)" fill="#925539"/>
          <path id="Caminho_1756" data-name="Caminho 1756" d="M330.3,301.375l-7.289,2.986a2.7,2.7,0,0,0-1.474,3.524l2.049,5a3.166,3.166,0,0,0-.677.306c-2.448,1.5-5.582,2.5-8.253,1.3-2.689-1.215-5.286-2.671-6.5-4.136a3.066,3.066,0,0,0-3.329-.946c-7.224,2.429-30.378,11.814-30.554,32.511a3.078,3.078,0,0,0,2.4,3.023h0a3.076,3.076,0,0,0,3.181-1.215c3.069-4.34,12.083-14.92,21.3-5.091a3.112,3.112,0,0,0,3.431.77l.862-.352,32.01,78.125a2.234,2.234,0,0,0,2.921,1.224l7.112-2.912a2.235,2.235,0,0,0,1.224-2.921L316.7,334.442l2.207-.9a3.133,3.133,0,0,0,1.882-2.411c.306-1.873,1.715-4.98,7.214-7.446l1.131,2.754a2.7,2.7,0,0,0,3.524,1.474l7.289-2.986a2.7,2.7,0,0,0,1.474-3.524l-7.595-18.546a2.7,2.7,0,0,0-3.524-1.474Z" transform="translate(-216.323 -268.762)" fill="#925539"/>
          <rect id="Retângulo_142" data-name="Retângulo 142" width="169.436" height="74.545" transform="translate(82.669 94.621)" fill="#81899d"/>
          <rect id="Retângulo_143" data-name="Retângulo 143" width="252.114" height="1.984" transform="translate(0 116.376)" fill="#fff"/>
          <rect id="Retângulo_144" data-name="Retângulo 144" width="252.114" height="1.984" transform="translate(0 145.419)" fill="#fff"/>
        </g>
      </g>
    </g>
  </g>
</svg>
