<svg xmlns="http://www.w3.org/2000/svg" width="496.58" height="486.158" viewBox="0 0 496.58 486.158">
  <g id="NUSMAD_CRISE_Topicos_Top06" transform="translate(-32.1 -56.92)">
    <circle id="Elipse_20" data-name="Elipse 20" cx="220.436" cy="220.436" r="220.436" transform="translate(71.299 75.275)" fill="#dccab0" stroke="#fff" stroke-miterlimit="10" stroke-width="20"/>
    <g id="Grupo_226" data-name="Grupo 226" transform="translate(32.1 56.92)">
      <g id="Grupo_217" data-name="Grupo 217">
        <path id="Caminho_1757" data-name="Caminho 1757" d="M262.39,376.41a21.614,21.614,0,0,1-27.1-28.1,21.689,21.689,0,0,1,20.213-14,21.339,21.339,0,0,1,6.694,1.06l7.861,2.6-.262-52.635H211.876a33.525,33.525,0,0,0-66.749,0H84.25l4.562,8.719a201.432,201.432,0,0,0,28.253,40.009A312.964,312.964,0,0,0,155.7,370.348c41.009,32.815,85.08,54.576,102.3,62.485,2.37,1.263,3.812,1.87,5.36,1.87a6.7,6.7,0,0,0,.834-.06l.572-.071.548-.179c.381-.131.929-.345,1.465-.572l3.692-1.536-.262-58.53-7.837,2.656Z" transform="translate(-22.134 -19.069)" fill="#fff"/>
        <path id="Caminho_1758" data-name="Caminho 1758" d="M515.638,532.477c-31.993-26.061-38.77-33.541-40.188-35.435-.024-3.74,2.311-16.652,4.2-27.133,6.861-37.913,9.029-54.886,4.7-61.913-6.4-10.41-24.56-29.182-32.922-37.591a204.039,204.039,0,0,0,25.787-36.364l5.8-10.851H407.9a33.532,33.532,0,0,0,14.21-26.442h54.624l1.668-3.228c.107-.214.226-.429.345-.643.25-.465.512-.929.738-1.405.155-.286.31-.584.453-.881l.107-.214c18.9-38.091,12.828-70.275,4.431-90.511-1.179-2.894-2.525-5.813-4.014-8.647C463.67,159,430.8,135.425,394.694,129.72c-33.494-5.3-66,4.931-91.976,28.836l-5.05-2.489.214,49.073a33.633,33.633,0,0,0-18.5-10.541l-.155-31.445-1.775-1.739c-20.7-20.3-45.786-31.636-72.716-32.91q-3.162-4-6.527-7.873l1.1-4.383h-2.037a49,49,0,0,0-4.407-13.876c-1.394-2.918-3.311-6.908-67.237-43.427l-3.549-2.025L118.907,59.5c-40.962,33.4-71.275,79.244-85.378,129.1-.119.322-.2.607-.274.869l-.143.536c-.119.417-.226.822-.31,1.227l-.7,3.49,2.751,2.263c2.156,1.787,21.654,17.807,41.009,31.088l5.384,3.7c1.239.858,2.466,1.691,3.669,2.513a107.353,107.353,0,0,0,4.729,37.341A124.829,124.829,0,0,0,95.776,287.5c.56,1.251,1.191,2.585,1.858,3.895.322.631.643,1.227.977,1.834l1.93,3.5h62.2l6.218-.036-.274-6.218c-.024-.441-.036-.858-.036-1.3a18.619,18.619,0,0,1,35.673-7.468,18.342,18.342,0,0,1,1.56,7.48c0,.417-.024.822-.048,1.346l-.262,6.206h74.277l-.191-36.436a33.269,33.269,0,0,0,18.4-10.553l.226,47H355.1A33.529,33.529,0,0,0,369.323,323.2H298.251l.167,38.663a33.292,33.292,0,0,0-23.31,31.933c0,.6.024,1.179.06,1.822a33.542,33.542,0,0,0,23.56,30.159l.226,49.645,8.385-3.823c.738-.333,1.513-.727,1.81-.881,6.182-2.835,18.093-8.516,32.874-16.652a40.4,40.4,0,0,0,2.573,3.442,20.17,20.17,0,0,0,5.217,4.633,15.273,15.273,0,0,0,13.448.774,19.425,19.425,0,0,0,3.811,2.346,17.934,17.934,0,0,0,7.54,1.668,16.8,16.8,0,0,0,7.218-1.584A25.282,25.282,0,0,0,385,466.919c-.1,25.311.6,56.506,4.1,70.656l.048.167c.107.4.226.822.381,1.263l1.358,4.074h137.8L515.7,532.5Zm-213.433-321.3,4.538-2.561a21.607,21.607,0,1,1,10.565,40.462,21.842,21.842,0,0,1-10.422-2.668l-4.645-2.537a33.649,33.649,0,0,0,4.24-16.413,32.8,32.8,0,0,0-4.288-16.282Zm66.022,119.943,2.466-7a33.409,33.409,0,0,0,35.816,0l2.466,7a21.588,21.588,0,0,1,1.239,7.218v.75a21.665,21.665,0,0,1-2.716,9.755,25.287,25.287,0,0,0-10.541-2.716,27.12,27.12,0,0,0-21.7,9.183,21.61,21.61,0,0,1-7-24.191Z" transform="translate(-32.1 -56.92)" fill="#fff"/>
      </g>
      <g id="Grupo_225" data-name="Grupo 225" transform="translate(6.551 7.17)">
        <g id="Grupo_219" data-name="Grupo 219" transform="translate(302.521 334.538)">
          <path id="Caminho_1759" data-name="Caminho 1759" d="M291.591,376.232a34.574,34.574,0,0,0,7.968,22.619,14.444,14.444,0,0,0,3.657,3.311,9.322,9.322,0,0,0,11.387-1.894,12.409,12.409,0,0,0,7.861,5.431c3.43.834,7.552-.6,8.957-3.835,3.609,1.953,7.242,3.835,11.351,3.8s8.338-1.739,10.756-5.062c1.93-2.656,2.549-6.039,2.835-9.314a57.78,57.78,0,0,0-1.108-17.176c-1.6-7.313-4.752-14.472-10.065-19.748a36.131,36.131,0,0,0-12.816-7.945c-10.112-3.788-21.988-3.692-31.266,1.834s-9.314,17.164-9.517,27.955Z" transform="translate(-291.585 -343.806)" fill="#6c5742"/>
          <path id="Caminho_1760" data-name="Caminho 1760" d="M291.591,376.232a34.574,34.574,0,0,0,7.968,22.619,14.444,14.444,0,0,0,3.657,3.311,9.322,9.322,0,0,0,11.387-1.894,12.409,12.409,0,0,0,7.861,5.431c3.43.834,7.552-.6,8.957-3.835,3.609,1.953,7.242,3.835,11.351,3.8s8.338-1.739,10.756-5.062c1.93-2.656,2.549-6.039,2.835-9.314a57.78,57.78,0,0,0-1.108-17.176c-1.6-7.313-4.752-14.472-10.065-19.748a36.131,36.131,0,0,0-12.816-7.945c-10.112-3.788-21.988-3.692-31.266,1.834s-9.314,17.164-9.517,27.955Z" transform="translate(-291.585 -343.806)" fill="#d7af92"/>
          <g id="Grupo_218" data-name="Grupo 218" transform="translate(16.235 28.912)">
            <path id="Caminho_1761" data-name="Caminho 1761" d="M338.427,403.277h-.1a19.261,19.261,0,0,1-12.876-6.754c-2.716-3.24-4.24-7.278-5.372-10.815a97.549,97.549,0,0,1-3.752-16.39,1.088,1.088,0,0,1,.917-1.227,1.067,1.067,0,0,1,1.227.917,96.182,96.182,0,0,0,3.669,16.032c1.072,3.323,2.489,7.123,4.967,10.077a17.1,17.1,0,0,0,11.411,5.991,1.086,1.086,0,0,1-.107,2.168Z" transform="translate(-303.093 -368.079)" fill="#302b27"/>
            <path id="Caminho_1762" data-name="Caminho 1762" d="M322.385,400.719a12.031,12.031,0,0,1-5.014-1.108,17.454,17.454,0,0,1-8.183-9.04,49.655,49.655,0,0,1-2.978-11.53l-.977-5.658a1.082,1.082,0,0,1,2.132-.369l.977,5.658a47.519,47.519,0,0,0,2.835,11.03,15.293,15.293,0,0,0,7.111,7.945c3.371,1.56,7.349,1.084,9.684-1.167a1.087,1.087,0,1,1,1.513,1.56,10.165,10.165,0,0,1-7.087,2.68Z" transform="translate(-305.216 -367.307)" fill="#302b27"/>
          </g>
        </g>
        <g id="Grupo_221" data-name="Grupo 221" transform="translate(52.043 70.227)">
          <g id="Grupo_220" data-name="Grupo 220" transform="translate(0)">
            <path id="Caminho_1763" data-name="Caminho 1763" d="M431.145,275.321c-.167.333-.334.679-.512,1.012-.333.7-.727,1.358-1.084,2.037H372.138a26.585,26.585,0,0,1,.465,5,27.562,27.562,0,1,1-54.636-5H260.652l-.024-6.777-.167-32.362a27.561,27.561,0,1,0,13.281-51.717,27.228,27.228,0,0,0-13.5,3.526l-.167-37.77a.651.651,0,0,0,.119.1c58.3-57.292,141.407-29.337,171.411,28.217,1.382,2.656,2.656,5.372,3.776,8.147,10.446,25.156,10.91,55.064-4.252,85.616Z" transform="translate(-47.128 -121.896)" fill="#967554"/>
            <path id="Caminho_1764" data-name="Caminho 1764" d="M264.278,242.582l.143,32.6.024,3.192H202.388c.024-.536.048-1.06.048-1.6a24.572,24.572,0,1,0-49.145-.012c0,.536.024,1.06.048,1.6H94.665c-.381-.679-.75-1.334-1.108-2.037-.607-1.2-1.2-2.418-1.739-3.633a118.532,118.532,0,0,1-5.9-15.21C70.5,207.278,95.4,161.087,134.2,137.8a112.991,112.991,0,0,1,30.695-12.769c32.481-8.076,69-1.179,98.98,28.217l.167,34.268a27.532,27.532,0,0,1,.238,55.053Z" transform="translate(-81.293 -121.9)" fill="#967554"/>
            <path id="Caminho_1765" data-name="Caminho 1765" d="M433.174,285.474l-1.132,2.084c-39.878,73.109-140.7,122.778-165.443,134.106,0,0-.87.441-1.691.822l-.214-45.154A27.515,27.515,0,0,1,241.158,351.6c-.024-.488-.048-.989-.048-1.5a27.546,27.546,0,0,1,23.334-27.228l-.167-37.412h58.4a27.568,27.568,0,0,0,26,36.745,26.787,26.787,0,0,0,2.787-.143h.024A27.509,27.509,0,0,0,376.2,295.586c.024-.31.024-.631.024-.941a27.5,27.5,0,0,0-1.572-9.2h58.507Z" transform="translate(-50.753 -90.646)" fill="#967554"/>
            <path id="Caminho_1766" data-name="Caminho 1766" d="M262.934,427.361c-.4.167-.8.334-1.084.417a16.218,16.218,0,0,1-2.775-1.239c-15.353-7.039-60.019-28.825-101.231-61.794a307.134,307.134,0,0,1-37.9-35.578A195.554,195.554,0,0,1,92.5,290.349h56.982a27.18,27.18,0,0,1-.143-2.8,27.562,27.562,0,0,1,55.124,0,27.189,27.189,0,0,1-.143,2.8h57.947l.191,38.425a27.149,27.149,0,0,0-8.564-1.358,27.552,27.552,0,0,0-25.8,17.866A27.026,27.026,0,0,0,226.332,355a27.587,27.587,0,0,0,36.352,26.121l.214,46.262Z" transform="translate(-79.152 -95.51)" fill="#967554"/>
          </g>
          <path id="Caminho_1767" data-name="Caminho 1767" d="M262.3,290.337l.191,38.425a27.148,27.148,0,0,0-8.564-1.358,27.552,27.552,0,0,0-25.8,17.866c-5.491-1.906-10.958-3.895-16.354-5.944-20.916-7.909-42.344-16.783-64.688-15.842a90.55,90.55,0,0,0-27.133,5.681A195.554,195.554,0,0,1,92.51,290.349h56.982a27.189,27.189,0,0,1-.143-2.8,27.562,27.562,0,0,1,55.124,0,27.185,27.185,0,0,1-.143,2.8h57.947Z" transform="translate(-79.15 -95.51)" fill="#f4eee6"/>
          <path id="Caminho_1768" data-name="Caminho 1768" d="M348.678,322.227a26.771,26.771,0,0,0,2.787-.143c-.441.56-.941,1.132-1.453,1.668-20.142,21.714-50.979,31.076-80.6,30.671a174.159,174.159,0,0,1-28.253-2.811c-.024-.488-.048-.989-.048-1.5a27.546,27.546,0,0,1,23.334-27.228l-.167-37.412h58.4a27.568,27.568,0,0,0,26,36.745Z" transform="translate(-50.753 -90.642)" fill="#f4eee6"/>
          <path id="Caminho_1769" data-name="Caminho 1769" d="M353.232,285.47h58.507l-1.132,2.084c-20-1.239-39.949-2.442-55.839,8.052.024-.31.024-.631.024-.941a27.5,27.5,0,0,0-1.572-9.2Z" transform="translate(-29.329 -90.642)" fill="#d1bfa4"/>
          <path id="Caminho_1770" data-name="Caminho 1770" d="M264.278,242.582l.143,32.6.024,3.192H202.388c.024-.536.048-1.06.048-1.6a24.572,24.572,0,1,0-49.145-.012c0,.536.024,1.06.048,1.6H94.665c-.381-.679-.75-1.334-1.108-2.037-.607-1.2-1.2-2.418-1.739-3.633a118.532,118.532,0,0,1-5.9-15.21C70.5,207.278,95.4,161.087,134.2,137.8c10.041-4.717,20.284-8.945,30.695-12.769,32.481-8.076,69-1.179,98.98,28.217l.167,34.268a27.532,27.532,0,0,1,.238,55.053Z" transform="translate(-81.293 -121.9)" fill="#f4eee6"/>
          <path id="Caminho_1771" data-name="Caminho 1771" d="M431.145,275.321c-.167.333-.334.679-.512,1.012-.333.7-.727,1.358-1.084,2.037H372.138a26.585,26.585,0,0,1,.465,5,27.562,27.562,0,1,1-54.636-5H260.652l-.024-6.777-.167-32.362a27.561,27.561,0,1,0,13.281-51.717,27.228,27.228,0,0,0-13.5,3.526l-.167-37.77a.651.651,0,0,0,.119.1c58.3-57.292,141.407-29.337,171.411,28.217,1.382,2.656,2.656,5.372,3.776,8.147,10.446,25.156,10.91,55.064-4.252,85.616Z" transform="translate(-47.128 -121.896)" fill="#f4eee6"/>
          <path id="Caminho_1772" data-name="Caminho 1772" d="M264.278,242.582l.143,32.6a194.543,194.543,0,0,1-52.944-5.277c-3.728-.893-7.421-1.93-11.1-3a24.593,24.593,0,0,0-35.495-10.994,161.863,161.863,0,0,0-25.537-5.348,114.639,114.639,0,0,0-53.421,6.92C70.5,207.278,95.4,161.087,134.2,137.8a112.99,112.99,0,0,1,30.695-12.769c32.481-8.076,69-1.179,98.98,28.217l.167,34.268a27.532,27.532,0,0,1,.238,55.053Z" transform="translate(-81.293 -121.9)" fill="#b95637"/>
          <path id="Caminho_1773" data-name="Caminho 1773" d="M435.386,189.7c-9.719-2.7-19.546-5.777-29.337-6.6-33.863-2.859-63.867,21.475-85.759,47.477-8.826,10.517-17.247,21.738-28.729,29.289-9.243,6.122-20.022,9.529-30.933,11.708l-.167-32.362a27.561,27.561,0,1,0,13.281-51.717,27.228,27.228,0,0,0-13.5,3.526l-.167-37.77a.652.652,0,0,0,.119.1c58.3-57.292,141.407-29.337,171.411,28.217,1.382,2.656,2.656,5.372,3.776,8.147Z" transform="translate(-47.128 -121.899)" fill="#b95637"/>
        </g>
        <g id="Grupo_223" data-name="Grupo 223" transform="translate(338.065 287.964)">
          <path id="Caminho_1774" data-name="Caminho 1774" d="M456.352,489.476H340.827a13.074,13.074,0,0,1-.453-1.227c-6.015-19.379-4.157-64.819-3.776-73.2.06-.893.083-1.346.083-1.346s-.06-.286-.2-.834v-.024c-.2-.893-.548-2.489-1-4.633-1.37-6.468-3.776-17.95-6.1-30.837-.024-.024-.024-.083-.024-.119-.226-1.263-.453-2.525-.691-3.812v-.024c-1.2-6.611-2.323-13.483-3.287-20.13-1.2-8.385-2.144-16.4-2.525-23.131v-.024c-.345-5.693-.286-10.446.369-13.662a8.757,8.757,0,0,1,1.286-3.526c5.9-8.1,24.334-8.85,27.288-2.954a5.43,5.43,0,0,1,.31.691c3.287,7.159,11.887,34.018,11.887,34.018l.858-.774,22.762-21.011.119.119c1.858,1.834,28.455,28.146,36.043,40.485,6.3,10.255-11.828,81.2-9.588,87.843,1.489,4.49,26.287,25.192,42.177,38.139Z" transform="translate(-321.194 -304.432)" fill="#d7af92"/>
          <g id="Grupo_222" data-name="Grupo 222">
            <path id="Caminho_1775" data-name="Caminho 1775" d="M382.605,403.56a1.087,1.087,0,0,1-1.346-.715c-3.895-12.626-11.161-35.995-17.6-56.005-5.467-16.866-10.3-31.433-12.078-35.185a3.722,3.722,0,0,0-.429-.774c-1.2-1.775-4.812-3.776-9.85-4.014a19.03,19.03,0,0,0-15.722,7.039,7.417,7.417,0,0,0-1.37,3.1c-.738,3.037-.858,7.468-.453,12.888v.024a212.751,212.751,0,0,0,3.24,24.108c1.084,6.1,2.382,12.364,3.692,18.414,2.573,11.828,5.36,22.762,7.278,29.8a1.192,1.192,0,0,1,.06.31c0,.167-.083,4.2-.143,10.541v.024a.537.537,0,0,1-.024.167v2c-.143,19.987.143,57.983,3.835,72.955a8.837,8.837,0,0,0,.512,1.489h-2.346c-.119-.345-.2-.655-.286-.977-3.812-15.437-4.038-53.564-3.895-73.61,0-.715.024-1.429.024-2.084v-.143c0-1.656.024-3.144.024-4.467.06-3.061.119-5.122.119-5.812-.453-1.751-3.24-11.971-6.218-25.025-.024-.024-.024-.083-.024-.119-.286-1.227-.572-2.466-.834-3.716-1.465-6.551-2.918-13.626-4.181-20.582-1.346-7.706-2.43-15.258-2.894-21.785-.453-6.241-.369-11.542.572-15.175a8.962,8.962,0,0,1,1.632-3.716,21.224,21.224,0,0,1,17.521-7.79c5.014.226,9.648,2.2,11.542,4.919a3.548,3.548,0,0,1,.262.453c1.691,3.24,6.551,17.6,11.887,34.065.119.369.226.715.345,1.084,2.751,8.564,5.646,17.64,8.242,25.966.262.774.488,1.513.715,2.263.31.977.6,1.941.917,2.894.286.941.6,1.918.893,2.835,3.895,12.423,6.789,21.845,7.158,22.988a1.072,1.072,0,0,1-.738,1.346Z" transform="translate(-321.427 -304.704)" fill="#302b27"/>
            <path id="Caminho_1776" data-name="Caminho 1776" d="M365.2,364.589a1.1,1.1,0,0,1-.81-.369,1.077,1.077,0,0,1,.1-1.525,75.825,75.825,0,0,1,11.72-8.481,1.089,1.089,0,0,1,1.1,1.882,72.909,72.909,0,0,0-11.387,8.242,1.1,1.1,0,0,1-.715.274Z" transform="translate(-313.268 -295.271)" fill="#302b27"/>
            <path id="Caminho_1777" data-name="Caminho 1777" d="M377.066,372.165a1.153,1.153,0,0,1-.476-.107l-10.672-5.217a1.087,1.087,0,0,1,.953-1.953l10.672,5.217a1.085,1.085,0,0,1-.476,2.061Z" transform="translate(-313.041 -293.224)" fill="#302b27"/>
            <path id="Caminho_1778" data-name="Caminho 1778" d="M349.453,314.209l-.083-1.572-.024-.834v-.06a1.117,1.117,0,0,0-1-1,42.554,42.554,0,0,0-22.7,4.919,1.133,1.133,0,0,0-.548.691,1.213,1.213,0,0,0,0,.548c.2.834.4,1.715.572,2.632a30.837,30.837,0,0,0,1.608,5.836c.083.262.2.512.31.774a15.76,15.76,0,0,0,6.325,7.075,10.753,10.753,0,0,0,5.157,1.346,8.8,8.8,0,0,0,4.49-1.179,10.6,10.6,0,0,0,3.919-4.2C349.965,324.691,349.68,319.129,349.453,314.209Zm-3.895,13.948a8.363,8.363,0,0,1-3.1,3.383,7.847,7.847,0,0,1-7.528-.2,14.154,14.154,0,0,1-5.408-6.122,10.978,10.978,0,0,1-.548-1.346,42.011,42.011,0,0,1-1.2-4.752c-.119-.655-.262-1.286-.4-1.918.143-.06.286-.143.429-.2a40.958,40.958,0,0,1,19.415-4.121v.369l.06,1.084c.226,4.836.488,9.85-1.715,13.829Z" transform="translate(-320.732 -303.565)" fill="#302b27"/>
          </g>
        </g>
        <g id="Grupo_224" data-name="Grupo 224">
          <path id="Caminho_1779" data-name="Caminho 1779" d="M238.268,257.827a18.858,18.858,0,0,1-2.894,3.061h-.024a13.828,13.828,0,0,1-7.671,3.24,2.449,2.449,0,0,1-.4.024c-8.016.631-17.95-4.467-29.694-10.482-13.09-6.694-54.171-31.528-75.075-44.261-.06,0-.083-.024-.083-.06-.691-.4-1.346-.8-1.941-1.2-1.715-1.036-3.18-1.941-4.348-2.668-2.346-1.405-4.1-2.489-5.122-3.1a.484.484,0,0,0-.2-.143c-.143-.083-.262-.143-.345-.2.167.119.4.262.655.453.06.024.083.06.143.083,8.671,5.753,58.781,40.342,40.307,59.007a9.673,9.673,0,0,1-.738.655,6.421,6.421,0,0,1-7.182.369c-.655-.4-1.405-.858-2.227-1.346-2-1.227-4.467-2.751-7.278-4.467-.167-.119-.31-.2-.488-.31-3.18-1.942-6.813-4.2-10.732-6.67-.572-.345-1.12-.691-1.691-1.036-.345-.2-.691-.429-1-.631-9.136-5.729-19.665-12.4-30.123-19.272a.023.023,0,0,1-.024-.024c-22.821-14.913-45.262-30.695-52.194-38.937a5.006,5.006,0,0,1,.2-.6c14-49.728,43.809-94.025,83.484-126.375,34.184,19.522,62.878,36.757,64.82,40.831,4.467,9.338,4.264,15.973,4.181,17.235-.024.024,0,.024,0,.024a1,1,0,0,0-.024.167s4.669,5.753,9.052,11.971c3.776,5.384,7.385,11.077,7.563,13.769.369,5.408-6.075,16.211-6.992,17.7l-.083.167a.379.379,0,0,1,.06.119c.488,1,4.443,9.386,3.264,14.829-.977,4.633-7.242,16.64-9.767,21.333-.226.429-.4.774-.6,1.06v.024c-.262.512-.429.834-.429.834s28.979,22.6,41.283,39.568c.024.06.119.143.167.226a41.489,41.489,0,0,1,3.871,6.444c.024.024.024.083.06.119,1.548,3.466,1.834,6.384.286,8.445Z" transform="translate(-37.545 -62.94)" fill="#d7af92"/>
          <path id="Caminho_1780" data-name="Caminho 1780" d="M156.579,235.39a13.209,13.209,0,0,1-4.264,6.789,12.938,12.938,0,0,1-3.526,2.227,2.521,2.521,0,0,1-.858.119c-1.775,0-4.955-1.263-9.481-3.633h-.024c-10.053-5.3-26.657-16.175-48.382-31a.023.023,0,0,1-.024-.024c-2.894-1.941-5.872-4.014-8.957-6.122L78.2,201.766c-18.152-12.459-36.65-27.514-40.6-30.778.083-.429.226-.858.345-1.322a5,5,0,0,1,.2-.6c1.894,1.572,21.7,17.89,41.081,31.183l2.859,1.977c2.346,1.632,5.1,3.526,8.135,5.586a.023.023,0,0,0,.024.024c8.79,6.015,19.9,13.543,30.039,20.07.31.2.655.429,1,.631.548.369,1.12.715,1.656,1.06,3.835,2.466,7.468,4.729,10.768,6.646.167.119.31.2.488.31,3.264,1.894,6.1,3.466,8.385,4.55h.024a18.879,18.879,0,0,0,2.811,1.143l.024.024a6,6,0,0,0,1.286.4h.024a2.334,2.334,0,0,0,1.346.024,9.6,9.6,0,0,0,1.656-.858h.024a11.886,11.886,0,0,0,5.015-6.9c1.346-5.265-1.036-11.792-6.873-18.843-10.136-12.28-28-26.966-36.614-33.779-.06-.024-.083-.06-.143-.083a.232.232,0,0,0-.119-.119.485.485,0,0,0-.2-.143c-2.716-2.144-4.407-3.43-4.467-3.49a.943.943,0,0,1-.2-1.286.9.9,0,0,1,1.286-.167c.083.06,2.323,1.751,5.813,4.55,2.525,1.977,5.693,4.55,9.2,7.5,0,.024.024.06.083.06l.083.083c8.814,7.444,19.617,17.152,26.716,25.74,7.849,9.481,8.242,16.354,7.218,20.439Z" transform="translate(-37.6 -42.659)" fill="#302b27"/>
          <path id="Caminho_1781" data-name="Caminho 1781" d="M215.342,249.254c-6.063,0-12.638-3.156-17.426-5.467-23.786-11.435-96.229-56.589-96.967-57.042a.917.917,0,0,1,.965-1.56c.727.453,73.1,45.571,96.753,56.934,6.265,3.013,15.663,7.54,22.19,4.026,5.134-2.751,7.182-10.208,4.312-15.627a37.734,37.734,0,0,0-5.205-6.92l-.631-.727c-7.266-8.314-15.734-15.806-24.5-23.393-3.573-3.085-7.194-6.134-10.815-9.16l-3.978-3.335c-12.352-10.41-53.742-34.542-54.147-34.78a.915.915,0,0,1,.917-1.584c.417.238,41.939,24.453,54.409,34.959l3.966,3.335c3.621,3.037,7.254,6.086,10.827,9.183,8.814,7.623,17.342,15.163,24.68,23.572l.631.715a38.976,38.976,0,0,1,5.455,7.278c3.383,6.372,1.012,14.841-5.062,18.093a13.31,13.31,0,0,1-6.372,1.489Z" transform="translate(-25.577 -46.208)" fill="#302b27"/>
          <path id="Caminho_1782" data-name="Caminho 1782" d="M171.839,190.707a.918.918,0,0,1-.738-1.453,70.618,70.618,0,0,0,8.457-15.389,23.757,23.757,0,0,0,2.1-9.362c-.167-5.384-3.442-10.267-6.622-14.329a116.973,116.973,0,0,0-28.694-26.2.914.914,0,0,1,.989-1.537,118.578,118.578,0,0,1,29.146,26.609c3.359,4.3,6.825,9.493,7.016,15.4a25.391,25.391,0,0,1-2.227,10.1,72.282,72.282,0,0,1-8.683,15.794.915.915,0,0,1-.738.381Z" transform="translate(-16.901 -51.599)" fill="#302b27"/>
          <path id="Caminho_1783" data-name="Caminho 1783" d="M178.085,157.858a.962.962,0,0,1-.4-.1.927.927,0,0,1-.417-1.227,119.093,119.093,0,0,0,5.169-12.006,15.292,15.292,0,0,0,1.167-4.872c.06-3.311-1.965-6.337-4.026-9.148a207.72,207.72,0,0,0-25.6-28.717.91.91,0,1,1,1.239-1.334,209.206,209.206,0,0,1,25.823,28.967c2.156,2.93,4.455,6.384,4.4,10.267a16.717,16.717,0,0,1-1.274,5.455,121.627,121.627,0,0,1-5.241,12.2.908.908,0,0,1-.822.5Z" transform="translate(-15.417 -55.817)" fill="#302b27"/>
          <path id="Caminho_1784" data-name="Caminho 1784" d="M132.963,233.79h-.024a.908.908,0,0,1-.881-.941,14.364,14.364,0,0,0-23.25-11.708.916.916,0,0,1-1.132-1.441,16.192,16.192,0,0,1,26.2,13.2.9.9,0,0,1-.917.881Z" transform="translate(-24.275 -33.638)" fill="#302b27"/>
          <path id="Caminho_1785" data-name="Caminho 1785" d="M206.3,217.122a28.619,28.619,0,0,0-5.693-4.038,12.99,12.99,0,0,0-9.85-1.036,8.953,8.953,0,0,0-6.241,7.671c-.167,2.978,1.406,5.646,2.775,7.611a18.21,18.21,0,0,0,3.383,3.871,27.9,27.9,0,0,0,4.121,2.609l.715.4a5.034,5.034,0,0,0,2.525.691,5.174,5.174,0,0,0,3.919-1.8,42.275,42.275,0,0,0,5.753-8.874,6.062,6.062,0,0,0-1.405-7.1Zm-.25,6.3a37.677,37.677,0,0,1-5.5,8.481,3.307,3.307,0,0,1-4.157.738l-.715-.4a27.667,27.667,0,0,1-3.871-2.466,16.437,16.437,0,0,1-3-3.466c-1.227-1.751-2.608-4.062-2.489-6.5a7.163,7.163,0,0,1,5.015-6.039,9.743,9.743,0,0,1,2.894-.453,12.565,12.565,0,0,1,5.551,1.405,28.893,28.893,0,0,1,5.3,3.752,4.169,4.169,0,0,1,1.37,3.121,4.083,4.083,0,0,1-.4,1.834Z" transform="translate(-9.528 -34.551)" fill="#302b27"/>
        </g>
      </g>
    </g>
  </g>
</svg>
