<?xml version="1.0" encoding="UTF-8"?>
<svg id="Camada_1" xmlns="http://www.w3.org/2000/svg" version="1.1" xmlns:xlink="http://www.w3.org/1999/xlink" viewBox="0 0 500 500">
  <!-- Generator: Adobe Illustrator 30.3.0, SVG Export Plug-In . SVG Version: 2.1.3 Build 182)  -->
  <defs>
    <style>
      .st0 {
        fill: #4b8186;
      }

      .st1 {
        fill: #d5ad90;
      }

      .st2 {
        fill: #212342;
      }

      .st3 {
        fill: #fff;
      }

      .st4 {
        fill: none;
      }

      .st5 {
        fill: #dac8ae;
        stroke: #fff;
        stroke-miterlimit: 10;
        stroke-width: 19.3px;
      }

      .st6 {
        fill: #ba5336;
      }

      .st7 {
        fill: #f0ebe4;
      }

      .st8 {
        fill: #905539;
      }

      .st9 {
        fill: #f2ebe2;
      }

      .st10 {
        fill: #393849;
      }

      .st11 {
        fill: #575252;
      }

      .st12 {
        fill: #cecac5;
      }

      .st13 {
        fill: #80889b;
      }

      .st14 {
        fill: #8c9980;
      }

      .st15 {
        fill: #bf9866;
      }

      .st16 {
        clip-path: url(#clippath);
      }

      .st17 {
        fill: #2d5893;
      }
    </style>
    <clipPath id="clippath">
      <path class="st4" d="M329.1,220.3c-5-8.5-13-14.7-21.8-19.3-7.3-31-29-112.3-57.3-119.9-28.3-7.6-37.5,15.1-39.7,22.4-22.1,4.7-31.6,19-20.9,41.3,0,0,8.2,16.9,14.2,29.3,6,12.5,11.8,16,22.1,11,2.6-1.3,5.6-3.3,8.3-5.9l1.4,4.4-4.8,1.2v11.4s-41.8,13-58.8,30.1c-17,17.1-30.7,138.9-30.7,138.9h222.3s-21.2-122.8-34.3-145ZM258.6,177.7l-5.4,1.4-9.6-15.6c.8-3.1,1.1-6.5.6-10,1.2-.1,2.4-.5,3.5-1,5.5-2.6,7.7-9.2,5.1-14.7,0-11-5.5-26.1-18.2-32.5,19.7-18,33.8,58.2,38.1,84.9-6.4-1.1-10.7-1.3-10.7-1.3l-3.4-11.2Z"/>
    </clipPath>
  </defs>
  <circle class="st5" cx="251.3" cy="252.4" r="179"/>
  <g>
    <path class="st3" d="M209.4,442.1h272.6v-87.4h-31.6v-54.3c0-4.4-1.7-8.5-4.8-11.6-3.1-3.1-7.2-4.8-11.6-4.8s-7.7,1.4-10.6,3.9h-17.4l1.5-15.5c2-2.6,2.3-5.8.6-8.9-1.6-3-2.2-4.4-2.2-4.4l-3.1-7.9-5.3,6.7c-2.8,3.6-5,8.8-3.1,13.3l-.6,3.9s-7.7,11.5-7.5,12.9h-33.2c-.7-3.5-1.5-6.8-2.2-10-.5-2.1-.9-4.2-1.4-6.2-.7-3.1-1.4-6.1-2.2-9.1,0-.3-.1-.6-.2-.9.6-1,1.2-2.1,1.6-3.2l1.6-10.3c-.4-10.1-6-19.5-10.6-25.6,5.4-3.9,8.5-9.5,8.7-16.3.2-10.7-4.8-21.2-13.1-27.3-8-5.9-18.9-8.6-30.9-7.6l-1.4-4.7c-.3-.9-.5-1.8-.8-2.6l-2-6.4c-.2-.7-.4-1.4-.7-2.1l-.2-.6c-.3-.9-.6-1.8-.9-2.8v-.2c-4.1-12.2-15.7-42.5-17.3-42.9,0,0,0,0,0,0l-.4-.8c-.4-.7-.7-1.4-1.1-2.1v-.3c-.6-.8-1-1.6-1.4-2.3l-.3-.6c-.3-.6-.6-1.1-1-1.7l-.4-.7c-.3-.5-.6-1-.9-1.5l-.4-.7c-.4-.6-.7-1.1-1.1-1.7l-.3-.4s0,0,0,0c.8,0,1.7,0,2.5,0-.2-.4-.5-.7-.7-1.1-2.4-3.9-5.4-5.8-8.5-8.8-.3,0-.5,0-.8.1,0,0-.2-.2-.2-.2l-.3-.3c-.4-.4-.8-.8-1.2-1.2-.2-.2-.3-.3-.5-.5-.4-.3-.7-.7-1.1-1-.2-.2-.3-.3-.5-.4-.4-.3-.8-.6-1.2-1h-.1c-.1-.2-.2-.3-.4-.4-.6-.4-1.1-.8-1.7-1.2,0,0-.2-.1-.2-.2-.5-.3-1-.6-1.5-.9-.1,0-.3-.2-.4-.2h-.1c-.4-.3-.8-.5-1.2-.7-.2-.1-.4-.2-.6-.3-.4-.2-.8-.4-1.3-.5h-.1c-.1-.1-.3-.2-.5-.2-.7-.2-1.3-.4-1.9-.6-.9-.2-1.7-.4-2.6-.6h-.4c-.4-.2-.9-.3-1.3-.4h.2c0-.1-.4,0-.4,0-.3,0-.5,0-.8-.1h-.5c-.8-.2-1.6-.3-2.4-.4h-.1c-.8,0-1.5-.1-2.2-.2h-.4c-.7,0-1.4,0-2.2,0h-.4c-.7,0-1.4,0-2.1.2h-.2c-.7,0-1.3.2-2,.3h-.3c-.6.2-1.3.3-1.9.4h-.4c-.6.2-1.2.4-1.8.6h-.3c-.6.3-1.1.5-1.7.7h-.2c-.6.3-1.1.5-1.6.8l-.4.2c-.5.3-1,.5-1.6.8-8.9,1.5-15.4,6.9-18.1,15-2-.2-4-.1-6,.1-6.4.9-12.6,3.8-17.4,8.2-6.5-8-15.6-12.6-27.1-13.7-39.4-3.5-46.9,30.5-53.5,60.4-1.9,8.7-16.3,16.6-27.9,22.9-5.2,2.9-10.2,5.6-14,8.3-10.4,7.4-23.2,22.9-25.8,55l-1.1,14c0,.3,0,.6-.1.8l-.3,1.9c0,.5-.1.9-.2,1.4l-.3,2c0,.5-.1.9-.2,1.4l-.8,7-1.8,22.1-1.4,33.5c-.3,13.5,4.7,26.3,14.1,35.9,9.4,9.7,22,15,35.5,15h56.3s0,0,0,0h18.1c0,0-.2,0-.2,0h11.5s0,0-.1,0h11.4s0,0,0,0h16.2c.6-.3,1.3-.5,2.1-.5h12.2c4.1,0,5.5,4.1,4.2,7,0,.2,0,.4,0,.6M249.2,159.1c0-.1,0-.2,0-.3,0-.5,0-.9,0-1.4,0,0,0-.1,0-.2.2,0,.4-.2.6-.3,1.4-.7,2.8-1.6,3.9-2.7.8-.7,1.4-1.5,2-2.3.3-.4.6-.8.8-1.3,1-1.6,1.6-3.5,1.9-5.3,0,.3.1.5.2.8h0c.3,1.4.7,2.7,1,4v.2c.4,1.3.7,2.6,1,3.9h0c-2.3,2-5,3.4-7.9,4.3-1.2.4-2.5.6-3.6.8ZM266.9,184.6c-.4,0-.8,0-1.1-.1l-3.8-12.5-6.5,1.6-2.3-3.7c4.7.5,8.5,1.6,11.6,3.2l1.5,7.8c.2,1,.4,2,.5,3h0c0,.1,4.8-.7,4.8-.7l-4.7.9v.5ZM308.5,186l-1.1-4.2c2.8,0,6.1,0,9.6.7-3,.6-5.9,1.8-8.4,3.6ZM375.9,337.4c-2.1,5.9-1.4,12.2,1.7,17.3h-2.5l-8.1-24.8c2.3-3.3,3.5-7.2,3.7-11.2,1.3-.2,2.6-.5,3.9-.8,2.9,3.3,5.6,6.9,7.7,10.5-2.9,2.3-5.2,5.4-6.5,9ZM417.7,354.7h-.9l.9-2.5v2.5ZM417.7,332.9c-1.8.1-3.6.5-5.4,1.2-2.3-3.9-5.8-6.9-10-8.6l.9-8.8h14.5v16.2Z"/>
    <g>
      <g>
        <polygon class="st1" points="144 160.6 137.9 185.1 157 192 157 166.5 144 160.6"/>
        <polygon class="st6" points="142.5 166.9 140.4 175.2 157 177.7 157 175.1 142.5 166.9"/>
        <path class="st1" d="M183,126.1s-2.2,18.6-3.8,32.4c-1.6,13.8-5.9,19-17.2,17.7-11.3-1.3-30.6-11.8-28.2-32.4,2.4-20.6,2.9-25.1,2.9-25.1l34.3-16.1,12,23.5Z"/>
        <path class="st1" d="M142.6,142.9c-.7,6-6.2,10.4-12.2,9.6-6-.7-10.4-6.2-9.6-12.2.7-6,6.2-10.4,12.2-9.6,6,.7,10.4,6.2,9.6,12.2Z"/>
        <path class="st2" d="M174.5,132.7c-.6-2.6-2.1-7-5.5-5.9-1.8,1.2-2.6,3.7-3.2,5.8-1.2,5-.7,14.1,3.5,17.6,0,0,.6.4.6.4.8.5.7,2-.3,2.3-2.3.4-4.6.7-7,.9h0c2.2-.8,4.4-1.3,6.6-1.9.2,0,.2-.3,0-.3,0,0-.6-.4-.6-.4-5.4-4.3-4.3-12.7-3.2-18.6.6-2.3.9-5.2,3.1-6.6,2.9-1.2,5.2,1.3,5.7,3.9.2.9.4,1.9.4,2.9h-.1Z"/>
        <path class="st14" d="M129.3,188.9l4.3-11.2,34.9,7.1v11.4s52,13,73.2,30.1c21.2,17.1,38.3,138.9,38.3,138.9H77.5c-25.6,0-46.1-21.1-45.4-46.6,1-37.2,4.1-85.3,13.7-98.4,20.8-28.3,83.5-31.4,83.5-31.4Z"/>
        <path class="st2" d="M129.4,188.9c5,.2,9.9,1.3,14.7,2.6,4.9.9,9.9,1.3,14.8,2.3,3.3.7,6.5,1.4,9.7,2.4h0c-5-.2-9.9-1-14.8-2.1-3.3-.6-6.4-1.7-9.7-2.2-3.3-.4-6.6-.7-9.9-1.6-1.6-.4-3.2-.8-4.8-1.3h0Z"/>
        <path class="st14" d="M140.4,365.3h-63.5c-25.2,0-45.4-20.8-44.8-46,.9-37.3,4.1-85.9,13.7-99,13.9-19,46.6-26.6,66.7-29.6l27.8,174.6Z"/>
        <path class="st14" d="M280.1,365.3h-88.7l-14.6-166.8h0c15.5,4.4,49,15,65,27.9,21.2,17.1,38.3,138.9,38.3,138.9Z"/>
        <polygon class="st0" points="219 365.3 210 241.9 225.1 365.3 219 365.3"/>
        <path class="st8" d="M222.5,172.3c-13.4-1.4-35.9,2.1-34.5-18.6,1.8-27.4-2.9-57.7-33.8-60.5-32.8-2.9-40.5,21.2-48.4,56.7-3.4,15.2-31.1,25.1-43.8,34.1-10.5,7.5-21.4,22.3-23.7,51.5,1.3-3.3,2.6-6.3,3.9-8.9,1.3-2.6,2.5-4.7,3.7-6.3,20.8-28.3,83.5-31.4,83.5-31.4l4.3-11.2,5.8,1.2,3-12.1h0c-4-3.7-7.2-8.5-8.3-14.5h0c-1.8.4-3.8.4-5.8-.3-4.6-1.5-7.8-6-7.6-10.8.2-6.5,5.9-11.3,12.3-10.5.8,0,1.6.3,2.3.5h0s27.3-.7,35.8-16.8l11.4,16.2c-.7,6.4-2.1,18.3-3.2,27.8-1.6,13.8-5.9,19-17.2,17.7-1.5-.2-3.2-.5-5-1v7.5l11.5,2.3v11.4s52,13,73.2,30.1c1.8,1.5,3.6,3.7,5.4,6.6,0,0,3.4-17.7,1.7-25.5-5-23.6-12.9-33.8-26.4-35.2Z"/>
        <path class="st8" d="M171.2,114.4c-1.3,5.7-4.6,10.8-9.1,14.4-4.4,4-9.8,6.6-15.9,6.1-3.9-.3-7.6-1.7-10.9-3.7h0c3.6,1.2,7.3,2.1,11,2.4,5.5.3,11.4-1.2,15.5-5.1,3.9-4.1,6.7-9.1,9.3-14.1,0,0,.1,0,.1,0h0Z"/>
        <g>
          <polygon class="st10" points="241.7 160.3 254.8 181.8 238.7 194.2 231 169.9 241.7 160.3"/>
          <path class="st10" d="M189.4,144.9s8.2,16.9,14.2,29.3c6,12.5,11.8,16,22.1,11s25-21.2,16-39.9c-9.1-18.7-11-22.7-11-22.7l-37.7-3.9-3.6,26.2Z"/>
          <path class="st10" d="M233,147.4c2.6,5.5,9.2,7.7,14.7,5.1,5.5-2.6,7.7-9.2,5.1-14.7-2.6-5.5-9.2-7.7-14.7-5.1-5.5,2.6-7.7,9.2-5.1,14.7Z"/>
          <path class="st10" d="M262.1,188.9l-3.4-11.2-28,7.1v11.4s-41.8,13-58.8,30.1c-17,17.1-30.7,138.9-30.7,138.9h222.3s-21.2-122.8-34.3-145c-16.7-28.3-67-31.4-67-31.4Z"/>
          <path class="st10" d="M189.4,144.9c-11.7-24.1.5-38.9,26.7-42.3,26.2-3.4,36.7,19.9,36.8,35.3l-63.5,7Z"/>
          <path class="st10" d="M209.6,105.8s6.7-33.6,40.3-24.6c35.1,9.4,60,131.8,60,131.8l-35.8-13.8s-17.8-130.8-44.1-88l-20.3-5.4Z"/>
          <g class="st16">
            <g>
              <path class="st11" d="M226,83.4c-21.8,2-20.4,27.8-9.6,41.1,2.4,2.8,6,5.6,9.9,4.6,6.9-2,5.6-9.5,2.6-14.3-5.9-9.8-17.4-16.8-29-15.3-7.5,1.1-14.7,5.7-18.6,12.2-5,8.4-1.9,19.5,4.7,26.1,3.8,4,10.8,7.1,12.9-.1,1.1-3.8-1.7-7.2-4.7-9.2-6.3-4.2-14.5-5.9-22-4.4-3.7.8-7.3,2.9-8.6,6.5-1.3,3.6-1.1,7.6.3,11.2,2.1,5.3,6.8,9.7,12.3,11.1,2.7.7,6.1.1,7.3-2.7,1.1-2.2,1.3-8-1.8-8.6-3.3-.2-6,3.1-7.8,5.5-3.1,4.3-4.9,12.1.4,15.4,5.1,2.8,11.4,2.3,17,1.7,6.4-.8,25.7-6.2,17.7-15.3-3.6-3.5-5,4.5-4.8,7,0,3.8,1.2,7.8,3.9,10.4,7.6,6.6,19.5-.4,25.5-6.3,3-2.9,9.3-10.6,4.6-14.2-4.3-2.9-5.9,2-5.4,5.6.4,3.7,2.3,7.3,5.2,9.7,4.5,3.7,10.8,3.5,16.2,1.9,7.3-2,13.8-7.4,16.7-14.4,1.3-3.2,2.4-7.6,0-10.5-.6-.7-2.2-1.4-2.9-.6-.5,1.1,0,2.5.5,3.6,1.9,4.2,5.6,7.8,9.9,9.6,5.2,2.2,11.5.7,15.7-2.9,2.9-2.5,3.9-6.4,3.3-10.1-.8-5.7-3.8-10.8-7.5-15.2-3-3.6-11.8-11.6-15.9-5.8-1.2,2.5,3.5,3.7,5.3,4,5.4.8,12-.1,15.4-4.8,3.2-4.8,1.4-11.4-1.4-15.9-7.9-11.5-25.7-10.1-36.9-4.4-4.9,2.6-10.2,6.9-10,13,0,.5,0,.9.3,1.3.9,1.2,2.5-1,3-1.8,2.2-3.2,3.3-7.1,3.3-10.9-.1-14-16.8-14.9-27.3-13.8h0ZM225.9,83.3c45.3-4.8,21.4,36.6,20.3,25.3-.4-6.2,5.1-10.8,10.1-13.5,7-3.6,15-5.2,22.8-4.2,8.1,1,15.4,5.8,17.6,14,2,6.2.7,12.7-5.7,15.5-3.7,1.7-7.8,2.1-11.8,1.5-2.7-.4-8-2.1-6.2-5.8,4.7-7,14.2,1.2,17.9,5.6,3.8,4.5,7,9.9,7.8,15.8.6,4-.6,8.5-3.7,11.2-4.6,4-11.4,5.5-17.1,3.1-4.7-1.9-8.5-5.7-10.6-10.3-.6-1.5-1.3-3.2-.4-4.8,1.2-1.6,3.7-.7,4.8.5,2.7,3.3,1.6,8.2.2,11.8-3.1,7.4-9.8,12.9-17.5,15.1-23.2,6.9-27.2-19.7-18.8-20.1,3.6.2,5.7,3.4,4.8,6.7-1,3.9-3.6,7.1-6.4,9.9-6.3,6.2-18.6,13.1-26.5,6.2-2.9-2.8-4.1-6.9-4.1-10.9,0-2.7.4-6.7,2.9-8.2,2.7-1.2,5.6,4.1,4.9,6.4-1,4-5.2,6-8.7,7.6-7.3,2.9-15.3,4.2-23,3.1-2.8-.5-6-1.4-7.8-3.9-3.7-6.1.5-14.3,5.7-18.2,4.9-3.6,7.5-.2,7.1,4.9-.2,4.8-4.1,6.9-8.5,5.9-5.8-1.4-10.6-5.9-12.9-11.4-1.4-3.7-1.7-7.9-.4-11.7,1.4-3.9,5.3-6.2,9.1-7.1,7.7-1.6,16.1.1,22.7,4.4,3.3,2.2,6.4,6.1,5.2,10.3-2.4,8.1-10.3,5.3-14.7.6-7-6.9-10.1-18.6-4.8-27.4,4.1-6.8,11.5-11.5,19.3-12.5,7.9-1,15.9,2.1,21.9,7,3,2.5,5.7,5.5,7.6,8.9,1.8,3.4,3.4,7.6,1.6,11.3-1.9,3.7-6.9,4.8-10.3,2.6-6.6-4-10.1-12.5-11.5-19.7-2.4-12.8,2.8-24.3,16.9-25.5h0Z"/>
              <path class="st11" d="M236.3,165.2c-12.5,1.1-22.3,8.1-25,20.8-2.9,14,1.6,30.1,10.5,41.2,3.6,4.3,9,8.5,14.9,7,2.8-.7,5.3-2.6,6.6-5.1,4.5-10.2-6.4-23.6-14-29.6-9-7.3-20.7-11.7-32.3-10.1-11.4,1.6-22.2,8.6-28.1,18.4-7.6,12.8-3,29.5,7.1,39.6,5.9,6.2,16.6,10.9,19.9-.3,2.7-11.8-13.9-18.8-23.2-20.6-10.5-2.1-25.6-1.6-30.4,9.8-4,11.1,1.5,23.9,11.2,30.2,7,4.9,19.2,6.7,20-4.7.5-7.4-2.7-11.9-9.8-6.9-4.6,3.5-8,8.6-9.6,14.1-1.6,5.4-1,12.5,4.4,15.5,2.5,1.5,5.4,2.3,8.2,2.7,5.8.9,11.7.6,17.4-.2,9.6-1.1,38.9-9.4,26.7-23.1-2.6-2.8-5-.8-6.1,2.1-1.1,2.7-1.4,5.6-1.4,8.5,0,5.7,1.7,11.8,6,15.8,11.3,10,29.6-.5,38.5-9.4,4.6-4.4,14.1-16.3,6.9-21.7-4.5-3.1-7.8-.6-8.5,4.4-.6,4.2.5,8.6,2.5,12.4,6.1,11.4,18.6,12.9,30,9.5,11.1-3.1,20.9-11.1,25.3-21.8,1.6-3.9,2.6-8.3,1.8-12.5-.5-2.6-2.4-5.1-5.2-5.2-3,0-1.4,4.6-.7,6.3,3,6.5,8.5,11.9,15.1,14.5,8,3.3,17.5,1.2,24-4.4,4.4-3.8,5.9-9.8,5.1-15.4-1.7-11.4-8.9-21.7-17.5-29.1-4-3.2-10-7.3-15.3-5.2-1.6.8-3.5,2.4-3.3,4.4.8,3.1,5.7,4.2,8.5,4.8,8.2,1.2,18.2-.2,23.4-7.3,4.9-7.1,2.2-17.5-2.2-24.3-8.4-12.5-25.4-14.7-39.2-12.1-10.9,2.1-23.4,7-29.4,16.8-1.5,2.5-2.2,5.4-2,8.3.1.9.2,2.3,1.2,2.6.3,0,.6,0,1-.2,1.3-.6,2.2-1.9,3-3,3.2-4.8,5-10.7,5-16.5-.3-21.1-25.2-22.5-41.1-20.7h0ZM236.3,165.1c16.1-1.8,41-.4,41.4,20.8,0,5.9-1.8,11.8-5,16.7-1,1.3-2.4,3.4-4.3,3.3-1.3-.3-1.5-1.9-1.5-2.9-.5-6.1,3.3-11.5,7.8-15.2,14.7-12,42-16.5,58-4.8,7.2,5.4,11.3,14.4,11.1,23.3-.4,13.7-15.7,18.3-27.2,16.4-3.3-.6-8.6-1.9-9.5-5.7-.3-2.6,1.9-4.6,4-5.7,8-3.2,18,6,22.9,11.6,7.2,8.6,14.2,21.1,11,32.6-1.7,6-7,10-12.6,12.1-5.6,2.3-12,2.4-17.6,0-5.6-2.2-10.3-6.3-13.6-11.3-1.9-2.6-6.3-11.7-.3-12,3.4,0,5.8,3.1,6.4,6.1.9,4.5-.2,9.1-1.9,13.2-4.6,11-14.7,19.3-26.1,22.5-8.4,2.5-18.5,2.7-25.6-3.2-4.7-3.8-7.6-9.5-8.3-15.4-.7-5,1.4-13.1,8-10.6,20,8.4-25,51.3-44.4,33.5-12.1-11.1-4-40.8,4.9-23.4,4.9,12.5-20.7,19.2-29.5,20.2-8.6,1.1-23.5,2-29.2-5.6-4-6.5-1.5-14.9,2.5-20.9,2.5-3.6,5.7-7.1,10-8.4,5.7-1.5,6.8,5.1,6.5,9.3-.3,7.2-6,10.2-12.7,8.7-11.5-2.7-20.7-13.8-21-25.7-.3-6.1,1.5-12.2,6.7-15.8,11.4-7.9,31.3-4.3,42.2,3.1,6.7,4.5,10.9,12,5.7,19.3-2.9,4.2-8.4,4.1-12.5,1.9-5.4-2.7-9.5-7.2-12.7-12.3-6.3-10-8-23.5-1.7-33.9,6.1-10.1,17.2-17.2,28.9-18.8,11.8-1.5,23.8,3.1,32.8,10.5,7.7,6.2,18.6,19.8,13.9,30.2-2,4-6.9,6.3-11.3,5.4-4.4-.8-8-4-10.8-7.3-8.9-11.1-13.4-27.3-10.5-41.4,2.8-12.7,12.6-19.7,25.2-20.8h0Z"/>
              <path class="st11" d="M145.5,370.2c.9-2.1,2-4.1,3.3-6,3-4.7,12.2-14.5,18.1-9.8,3.4,3.2,3.3,11.6,1.5,15.8h.5c1.1-2.7,1.5-6.3.8-10.9-1.4-8-7.7-7.9-13.4-3.7-5,3.7-8.8,8.9-11.3,14.6h.4Z"/>
              <path class="st11" d="M199.1,394.7c-15.2,4.8-37,7.3-49.4.3-3.4-1.9-5.6-5.3-6.3-9-.3-1.5-.5-3-.5-4.5-.1,0-.3,0-.4,0,0,3.5.8,7,2.7,10,3.5,4.8,9.6,6.6,15.2,7.6,12.8,1.8,26.3.2,38.7-3.8v-.5Z"/>
              <path class="st11" d="M394.9,345.3c-1.8-12.4-8.7-24.1-17.4-33.3.8-.3,1.7-.6,2.5-1,12.4-5.8,14.8-17.9,11-30-4.5-16.1-18.3-25.3-34.3-27.3-15.3-2.2-36.3,1.7-50.6,11.6-.9-27.4-33.3-29.2-54.3-26.8-16.6,1.5-29.4,10.7-33,27.4-.3,1.4-.5,2.9-.7,4.4-13.4-3.2-28-.7-39.5,7.1-13.4,8.5-22.7,22.6-21.3,38.9,0,.2,0,.3,0,.5,0,0-.2,0-.3,0-17.3-.2-31.9,7-31,26.4.3,11.7,6.7,21.3,14.6,27.4h.9c-8.6-6.4-14.5-16.6-14.8-27.4-.8-18.9,13.5-25.7,30.3-25.4.1,0,.3,0,.4,0,1.6,14.6,10.6,29.8,23.8,36.6,3.5,1.7,7.8,2.7,11.6,1.2,3.8-1.5,6.2-5.3,7.2-9.1,1.1-3.9.3-8.1-1.8-11.5-7.6-12-26-17.6-39.8-18.1,0-.2,0-.4,0-.6-1.4-15.9,7.7-29.7,20.8-38,12-8.2,25.8-10.1,38.9-7.1-1.9,17.1,4,35.9,14.6,49.1,4.8,5.7,12.1,11.3,19.9,9.3,8.6-2.3,11.8-10,10-18.3-4.4-18.2-22.1-33.5-39.4-39.4-1.6-.6-3.2-1-4.8-1.4,2.2-16.3,12.2-29.6,33.6-31.6,17.2-1.6,42.9-1.8,51.6,16.1,1.5,3.3,2.3,7,2.4,10.8-4.6,3.2-8.5,7.1-11.2,11.6-1.9,3.4-2.9,7.3-2.7,11.2.1,1.4.3,3.4,2,3.8,2.4.1,4.3-2.7,5.6-4.4,4.2-6.4,6.5-14,6.6-21.7,19.7-13.4,52.2-17.5,71.4-3.2,9.1,6.8,14.2,18.5,14,29.7-.3,9.8-6.8,15.8-14.9,18.7-1.7-1.7-3.4-3.4-5.2-4.9-6.2-5-16.8-11.7-24.1-5.3-7.7,7.4,3.3,12.1,9.8,12.9,6.4,1,13,.6,19.1-1.4,8.7,9.1,15.7,20.7,17.4,33,1.1,7.4-1,15.4-6.8,20.4-5.7,4.9-13.2,7.8-20.7,7.9-8.5,0-16.6-3.8-22.7-9.7,1.3-4.4,1.8-9,1-13.5-.7-4-3.8-7.9-8.2-7.9-5.5.1-3.7,7.2-2.3,10.3,1.9,4.2,4.7,8.1,8,11.4-4.9,15.4-19,27.4-34.4,31.7-7.3,2-15.1,3.1-22.5,1.1-5.9-1.4-10.9-5-14.5-9.7,9.3-10.2,13.4-21.5,6-27-9.8-6.4-14.1,3.8-13,12.3.5,5.3,2.6,10.5,5.7,14.8-.8.9-1.6,1.7-2.3,2.4-11.7,11.7-35.9,25.5-50.7,12.3-3.3-3.1-5.4-7.2-6.6-11.5,5.7-2.8,11.6-6.8,13-12.9.9-4-1.3-7.8-3.9-10.7-3.8-4-7.4-1.5-9.1,2.9-.3.9-.6,1.8-.9,2.7.1.4.2.9.2,1.4.5-2.2,1.3-4.4,2.5-6.3,2.9-4.2,6.5-1.4,8.5,2,1.6,2.3,2.6,5.1,2,7.9-1.4,5.8-7.2,9.7-12.6,12.5-.4-1.4-.6-2.8-.8-4.3v3.7c0,.3.1.6.2.9,0,0-.1,0-.2.1v.6c.1,0,.2-.1.4-.2,1.8,6.4,5.6,12.1,11.5,15,14.8,7.3,36.5-4.2,49.3-17.9,3.8,4.8,8.9,8.5,15,9.9,14.5,3.6,32.4-2.4,43.5-11.9,6.2-5.2,11.9-12.8,14.7-21,6.3,5.9,14.4,9.7,23.1,9.7,5.9,0,11.7-1.9,16.7-4.8,9.4-5.1,13.4-14.6,12-25ZM189.4,327.2c4.6,3.2,8.9,7.5,9.8,13.2.6,3.7-.5,7.5-2.7,10.5-2.1,3.1-6,4.5-9.6,3.9-5.6-.9-10.4-4.5-14.4-8.4-7.6-7.7-12.8-18-14.1-28.9,10.9.5,21.9,3.6,31,9.7ZM242.7,283.3c8.7,7.2,16.6,16.6,19.2,27.8,1.9,8.1-1.2,15.6-9.6,17.9-11.7,2.7-21.1-9.7-26-18.7-6.4-12.1-9.7-26.6-8.3-39.3,8.8,2,17.3,6.3,24.7,12.3ZM297.5,289.6c-5.8,6.1-5.7-3.2-4.6-7.1,1.4-5.6,5.3-10.2,9.6-13.9,1.1-.9,2.2-1.7,3.4-2.5,0,8.5-3.2,17.5-8.4,23.5ZM357.3,312.7c-3.7-.7-10.3-2.2-11.3-6.4-.3-2.6,2.2-4.9,4.4-5.9,6.9-2.8,15,2.7,20.2,6.9,1.6,1.4,3.2,2.8,4.7,4.4-5.8,1.8-12.3,2.1-18,1.1ZM264.7,372.8c-1-7.6,2.4-17.4,11.4-11.5,8.2,6.1.3,18.4-6,25.6-3-4.1-4.9-9-5.4-14.1ZM342.5,363c-3-3.1-5.5-6.7-7.2-10.5-1-2.4-3.1-8.5,1.1-8.6,1.7,0,3.5.8,4.7,2.1,2.5,2.7,2.9,6.8,2.7,10.4-.2,2.3-.6,4.5-1.2,6.6Z"/>
            </g>
          </g>
        </g>
        <g>
          <polygon class="st14" points="78.9 299.7 208.9 254.2 234.2 302.5 97.8 357.2 78.9 299.7"/>
          <path class="st2" d="M193.7,259.5c3.8,5.8,6.8,12,9.7,18.3,3.2,6.1,6.9,12,10,18.2,2.1,4.1,4.1,8.3,5.9,12.5h-.1c-3.7-5.8-7-11.9-10.1-18.1-2.1-4.1-3.9-8.4-6.1-12.4-2.3-4-4.7-7.9-6.7-12.1-1-2.1-2-4.2-2.8-6.3h.1Z"/>
          <path class="st1" d="M252.3,286.8l16.5-6.5c.9-.3,1.6-.8,2.3-1.5l8.5-8.6c2-2,1.3-5.5-1.4-6.5h0c-3-1.1-6.3-.4-8.6,1.9l-6.6,7.1-21.4,3.3,10.9,10.7Z"/>
          <path class="st1" d="M244.9,279.5l22.9-9.3c.9-.3,1.6-.8,2.3-1.5l8.5-8.6c2-2,1.3-5.5-1.4-6.5h0c-3-1.1-6.3-.4-8.6,1.9l-6.6,7.1-28.1,6,11.1,10.9Z"/>
          <path class="st1" d="M237.3,272.1l26.2-11c.9-.3,1.6-.8,2.3-1.5l8.5-8.6c2-2,1.3-5.5-1.4-6.5h0c-3-1.1-6.3-.4-8.6,1.9l-6.6,7.1-30.6,8.5,10.2,10.1Z"/>
          <path class="st1" d="M230.4,265.2l22.9-9.3c.9-.3,1.6-.8,2.3-1.5l8.5-8.6c2-2,1.3-5.5-1.4-6.5h0c-3-1.1-6.3-.4-8.6,1.9l-6.6,7.1-28.6,5.5,11.6,11.4Z"/>
          <path class="st1" d="M212.2,258.4l14.9-14.8c1.8-1.8,4.4-2.3,6.8-1.4h0c1.5.6,2.2,2.3,1.5,3.8l-5.1,11.2-18.1,1.3Z"/>
          <polygon class="st1" points="252.3 286.8 230.3 295.2 210.7 257.6 218.8 253.8 252.3 286.8"/>
          <polygon class="st6" points="230.3 295.2 214.7 255.7 210.7 257.6 230.3 295.2"/>
          <path class="st6" d="M247.6,275.7c1.8-.6,4.5-1.3,6.4-1.8,2.1-.7,4.3-1.1,6.5-.9,0,0,0,.1,0,.1-2,1.1-4.1,1.5-6.4,1.8,0,0-3.3.5-3.3.5-1.1.1-2.2.3-3.3.4h0Z"/>
          <path class="st6" d="M239.5,267.8c2.2-.7,6.7-2,8.9-2.6,3-.9,5.9-1.7,9.1-1.7h0c-4.1,2.1-9,2.6-13.4,3.6l-4.6.8h0Z"/>
          <path class="st6" d="M237.5,259c2.3-.8,6.9-2.3,9.1-3,3-1.1,6.1-2,9.4-2.2,0,0,0,.1,0,.1-4.2,2.2-9.3,3-13.8,4.1l-4.7,1.1h0Z"/>
        </g>
        <polygon class="st7" points="71.3 233.7 89.2 296.1 123.8 284 93.1 286.8 71.3 233.7"/>
        <path class="st2" d="M136.6,341.7c-5.1,3.1-10.7,5.4-16.2,7.5-5.4,2.4-10.6,5.5-16.1,7.8-3.6,1.6-7.3,3.1-11.1,4.4h0c5.2-3.1,10.6-5.7,16.1-8,3.6-1.6,7.4-2.9,11-4.6,3.6-1.8,7-3.8,10.8-5.2,1.8-.8,3.7-1.5,5.6-2.1h0Z"/>
        <g>
          <path class="st1" d="M331.6,190h0c7.1,4.8,9.7,14,6.4,21.9l-6.5,15.4-34.6-23.5,11.7-11.6c6.1-6.1,15.8-7,22.9-2.1Z"/>
          <path class="st1" d="M311.5,193.3l-17.7-2.7c-1.2-.2-2.4.4-3,1.4h0c-1.3,2.2-.3,5,2.1,6l14.6,6.1,4-10.8Z"/>
          <path class="st1" d="M297,203.8l10.6,7.2-21.2,15.9c-1.8,1.4-4.5.7-5.3-1.5h0c-1.1-2.8-.4-6,1.8-8l14.1-13.6Z"/>
          <path class="st1" d="M304.7,209l13.5,8.5-22.6,21.3c-1.6,1.7-4.4,1.3-5.5-.7h0c-1.5-2.6-1.2-5.9.7-8.2l14-20.8Z"/>
          <path class="st1" d="M314.4,214.3l11.1,6.4-14.3,22.2c-1.2,2-4,2.2-5.5.5h0c-2-2.2-2.4-5.5-1.1-8.2l9.9-21Z"/>
          <path class="st1" d="M322,221.2l12.7-2-4.6,26.1c-.4,2.3-2.8,3.6-4.9,2.6h0c-2.7-1.3-4.4-4.1-4.2-7.1l1-19.6Z"/>
        </g>
      </g>
      <g>
        <path class="st9" d="M380.1,411.7c3.6-1.2,7.4.8,8.6,4.4l4.1,12.6c4.7-4.3,6.6-11,4.6-17.3-1-2.9-2.6-5.4-4.8-7.3-2.2-1.9-4.8-3.2-7.6-3.8l-10.3-31.5-12.9-39.5v-.3c3.7-4.2,5.2-10.3,3.3-16.2-1.3-4-4-7.2-7.4-9.1-1.1-.6-2.2-1.2-3.4-1.5-1-.3-2.1-.5-3.1-.7l4.1,12.6c1.2,3.6-.8,7.4-4.4,8.6-3.6,1.2-7.5-.8-8.6-4.4l-4.1-12.6c-4.6,4.3-6.6,11-4.5,17.3.6,2,1.6,3.7,2.9,5.3.6.7,1.2,1.4,1.9,2,2.2,1.9,4.8,3.2,7.6,3.8l9.7,29.6,13.5,41.3.2.4s0,0,0,0c-3.8,4.3-5.3,10.3-3.4,16.1,1.1,3.2,3,5.8,5.4,7.8t0,0c.1,0,.2.2.3.2,2.4,1.8,5.2,2.9,8.2,3.3l-4.1-12.6c-1.2-3.6.8-7.4,4.4-8.6Z"/>
        <path class="st15" d="M388.5,415.4l14.4-144.6c0-.1,0-.2-.1-.3,1-.7,2.5-2.3,1.2-4.6-1.8-3.4-2.4-5-2.4-5,0,0-4.7,5.9-1.8,9.3,0,0,0,0,0,.1l-22.1,143.7c-.7,4.6,1.2,8.9,4.4,9.3h0c3.1.4,6.1-3.2,6.5-7.9Z"/>
        <path class="st17" d="M445.6,300.4v116.7h-23v-116.7c0-6.4,5.1-11.5,11.5-11.5s6.1,1.3,8.1,3.4c2.1,2.1,3.4,5,3.4,8.1Z"/>
        <path class="st13" d="M430.2,311.9h-178.8v-19h178.8c5.3,0,9.5,4.3,9.5,9.5h0c0,5.3-4.3,9.5-9.5,9.5Z"/>
        <rect class="st12" x="390.9" y="359.6" width="86.2" height="77.7"/>
        <rect class="st17" x="214.2" y="359.6" width="86.2" height="77.7"/>
        <path class="st17" d="M268.9,417.1h-23v-116.7c0-6.4,5.2-11.5,11.5-11.5h0c6.4,0,11.5,5.2,11.5,11.5v116.7Z"/>
        <path class="st8" d="M424.5,338.6c-4.8-1.7-10-.9-13.9,1.8-.2.2-.4.3-.7.5,0-.3-.1-.5-.2-.8-1.3-4.6-4.7-8.5-9.6-10.3-8-2.9-16.8,1.3-19.6,9.2s1.3,16.8,9.2,19.6c1.3.5,2.5.7,3.8.8l-11.2,42.3,10.1,3.6,17.4-37.9.5-1.1.4-.8c1.1.7,2.2,1.3,3.5,1.8,8,2.9,16.8-1.3,19.6-9.2,2.9-8-1.3-16.8-9.2-19.6ZM399.9,350c-.5,1.4-1.8,2.5-3.3,2.8-.4,0-.9.1-1.3.2-1.1,0-2.2-.1-3.3-.5-4.5-1.6-6.8-6.5-5.3-11,1.6-4.6,6.6-7,11.2-5.4,1.5.5,2.8,1.4,3.7,2.6,1,1.2,1.3,2.9.8,4.3l-2.5,6.9ZM427.4,356.1c-1.7,4.4-6.6,6.7-11.1,5.1-1.1-.4-2-1-2.9-1.7-.3-.3-.6-.6-.9-1-1-1.2-1.2-2.8-.7-4.2l2.5-7c.5-1.4,1.7-2.5,3.2-2.8,1.5-.3,3.1-.2,4.7.3,4.6,1.6,6.9,6.7,5.2,11.2Z"/>
        <path class="st8" d="M333.1,294.9l-7.6,3.1c-1.4.6-2.1,2.2-1.5,3.7l2.1,5.2c-.2,0-.5.2-.7.3-2.5,1.6-5.8,2.6-8.6,1.4-2.8-1.3-5.5-2.8-6.8-4.3-.8-1-2.2-1.4-3.5-1-7.5,2.5-31.7,12.3-31.9,33.9,0,1.5,1,2.8,2.5,3.2h0c1.3.3,2.6-.2,3.3-1.3,3.2-4.5,12.6-15.6,22.2-5.3.9,1,2.3,1.3,3.6.8l.9-.4,33.4,81.5c.5,1.2,1.9,1.8,3,1.3l7.4-3c1.2-.5,1.8-1.9,1.3-3l-33.4-81.5,2.3-.9c1.1-.4,1.8-1.4,2-2.5.3-2,1.8-5.2,7.5-7.8l1.2,2.9c.6,1.4,2.2,2.1,3.7,1.5l7.6-3.1c1.4-.6,2.1-2.2,1.5-3.7l-7.9-19.3c-.6-1.4-2.2-2.1-3.7-1.5Z"/>
        <rect class="st13" x="300.5" y="359.6" width="176.7" height="77.7"/>
        <rect class="st3" x="214.2" y="382.3" width="262.9" height="2.1"/>
        <rect class="st3" x="214.2" y="412.5" width="262.9" height="2.1"/>
      </g>
    </g>
  </g>
</svg>