<svg id="Seta09" xmlns="http://www.w3.org/2000/svg" xmlns:xlink="http://www.w3.org/1999/xlink" width="400.892" height="317.128" viewBox="0 0 400.892 317.128">
  <defs>
    <clipPath id="clip-path">
      <rect id="Retângulo_75" data-name="Retângulo 75" width="214.886" height="350" fill="none"/>
    </clipPath>
  </defs>
  <g id="Grupo_100" data-name="Grupo 100" transform="translate(0 203.179) rotate(-71)">
    <g id="Grupo_99" data-name="Grupo 99" clip-path="url(#clip-path)">
      <path id="Caminho_532" data-name="Caminho 532" d="M122.748,50.649a2.639,2.639,0,0,0-3.538-1.188c-1.932.96-3.852,1.962-5.706,2.975a2.639,2.639,0,1,0,2.532,4.632c1.795-.981,3.653-1.95,5.525-2.881a2.639,2.639,0,0,0,1.188-3.538" transform="translate(-52.94 -23.221)" fill="#b6492e"/>
      <path id="Caminho_533" data-name="Caminho 533" d="M91.781,68.284a2.638,2.638,0,0,0-3.658-.742c-1.791,1.187-3.572,2.426-5.293,3.682a2.639,2.639,0,1,0,3.112,4.263c1.658-1.209,3.372-2.4,5.1-3.545a2.64,2.64,0,0,0,.742-3.658" transform="translate(-38.595 -31.681)" fill="#b6492e"/>
      <path id="Caminho_534" data-name="Caminho 534" d="M103.619,359.078c-1.932-.987-3.8-1.969-5.543-2.921a2.639,2.639,0,1,0-2.526,4.635c1.787.974,3.694,1.978,5.668,2.987a2.639,2.639,0,1,0,2.4-4.7" transform="translate(-44.462 -168.001)" fill="#b6492e"/>
      <path id="Caminho_535" data-name="Caminho 535" d="M232.529,423.755c-1.764-1.2-3.575-2.381-5.383-3.516a2.64,2.64,0,1,0-2.807,4.472c1.755,1.1,3.513,2.249,5.224,3.411a2.64,2.64,0,0,0,2.966-4.367" transform="translate(-105.334 -198.217)" fill="#b6492e"/>
      <path id="Caminho_536" data-name="Caminho 536" d="M135.853,374.823q-2.874-1.313-5.729-2.646a2.639,2.639,0,0,0-2.236,4.782q2.873,1.344,5.771,2.666a2.64,2.64,0,0,0,2.195-4.8" transform="translate(-59.661 -175.599)" fill="#b6492e"/>
      <path id="Caminho_537" data-name="Caminho 537" d="M155.621,36.572a2.639,2.639,0,0,0-3.4-1.537c-2.014.761-4.022,1.554-5.967,2.357a2.639,2.639,0,1,0,2.014,4.879c1.9-.783,3.853-1.556,5.818-2.3a2.639,2.639,0,0,0,1.537-3.4" transform="translate(-68.28 -16.461)" fill="#b6492e"/>
      <path id="Caminho_538" data-name="Caminho 538" d="M168.637,389.776q-2.878-1.336-5.779-2.653a2.639,2.639,0,0,0-2.187,4.8q2.881,1.311,5.744,2.637a2.639,2.639,0,1,0,2.222-4.788" transform="translate(-75.128 -182.661)" fill="#b6492e"/>
      <path id="Caminho_539" data-name="Caminho 539" d="M189.7,25.408a2.641,2.641,0,0,0-3.274-1.792c-2.073.607-4.132,1.234-6.118,1.865a2.639,2.639,0,1,0,1.6,5.031c1.949-.619,3.969-1.234,6-1.83a2.639,2.639,0,0,0,1.792-3.274" transform="translate(-84.258 -11.1)" fill="#b6492e"/>
      <path id="Caminho_540" data-name="Caminho 540" d="M201.184,405.528c-1.809-.968-3.668-1.93-5.685-2.944a2.639,2.639,0,0,0-2.371,4.715c1.976.994,3.8,1.937,5.566,2.884a2.639,2.639,0,1,0,2.49-4.655" transform="translate(-90.495 -189.939)" fill="#b6492e"/>
      <path id="Caminho_541" data-name="Caminho 541" d="M308.7,491.617a2.639,2.639,0,0,0-4.047,3.39c1.326,1.583,2.649,3.217,3.931,4.855a2.639,2.639,0,1,0,4.157-3.253c-1.318-1.684-2.677-3.364-4.041-4.992" transform="translate(-143.548 -231.662)" fill="#b6492e"/>
      <path id="Caminho_542" data-name="Caminho 542" d="M294.984,2.154A2.645,2.645,0,0,0,291.9.045q-3.109.582-6.229,1.172a2.64,2.64,0,0,0,.488,5.233,2.679,2.679,0,0,0,.494-.046q3.115-.59,6.219-1.17a2.64,2.64,0,0,0,2.109-3.08" transform="translate(-133.862 0)" fill="#b6492e"/>
      <path id="Caminho_543" data-name="Caminho 543" d="M331.842,529.966a2.64,2.64,0,0,0,2.23-4.048c-1.137-1.8-2.32-3.609-3.518-5.374a2.64,2.64,0,0,0-4.368,2.966c1.165,1.716,2.316,3.474,3.422,5.225a2.636,2.636,0,0,0,2.234,1.232" transform="translate(-153.788 -245.219)" fill="#b6492e"/>
      <path id="Caminho_544" data-name="Caminho 544" d="M251.392,13.286q3.089-.647,6.183-1.266a2.639,2.639,0,1,0-1.038-5.176q-3.115.625-6.228,1.276a2.639,2.639,0,1,0,1.083,5.166" transform="translate(-117.188 -3.207)" fill="#b6492e"/>
      <path id="Caminho_545" data-name="Caminho 545" d="M362.383,592.087a2.639,2.639,0,1,0,4.942-1.853c-.746-1.992-1.54-4-2.358-5.977a2.639,2.639,0,1,0-4.876,2.022c.8,1.917,1.566,3.871,2.292,5.808" transform="translate(-169.915 -275.078)" fill="#b6492e"/>
      <path id="Caminho_546" data-name="Caminho 546" d="M284.043,465.046a2.639,2.639,0,0,0-3.681,3.784c1.485,1.444,2.966,2.935,4.4,4.43a2.639,2.639,0,0,0,3.808-3.656c-1.476-1.538-3-3.072-4.528-4.558" transform="translate(-131.991 -219.21)" fill="#b6492e"/>
      <path id="Caminho_547" data-name="Caminho 547" d="M256.78,441.143a2.639,2.639,0,0,0-3.268,4.145c1.625,1.282,3.252,2.611,4.834,3.95a2.639,2.639,0,1,0,3.411-4.029c-1.628-1.378-3.3-2.746-4.976-4.066" transform="translate(-119.216 -208.01)" fill="#b6492e"/>
      <path id="Caminho_548" data-name="Caminho 548" d="M349.379,551.524a2.639,2.639,0,1,0-4.644,2.511c.989,1.829,1.956,3.693,2.876,5.543a2.639,2.639,0,0,0,4.726-2.351c-.945-1.9-1.941-3.821-2.958-5.7" transform="translate(-162.61 -259.738)" fill="#b6492e"/>
      <path id="Caminho_549" data-name="Caminho 549" d="M224.479,16.428a2.638,2.638,0,0,0-3.174-1.966c-2.12.5-4.2,1.006-6.2,1.507a2.639,2.639,0,1,0,1.287,5.119c1.966-.494,4.024-.995,6.117-1.486a2.639,2.639,0,0,0,1.966-3.173" transform="translate(-100.618 -6.795)" fill="#b6492e"/>
      <path id="Caminho_550" data-name="Caminho 550" d="M9.615,258.741c-.6-1.914-1.126-3.89-1.548-5.876a2.639,2.639,0,0,0-5.163,1.1c.458,2.151,1.022,4.294,1.678,6.369a2.639,2.639,0,0,0,5.033-1.591" transform="translate(-1.344 -118.399)" fill="#b6492e"/>
      <path id="Caminho_551" data-name="Caminho 551" d="M20.264,285.783a2.639,2.639,0,1,0-4.637,2.521c1.038,1.91,2.177,3.8,3.387,5.618a2.639,2.639,0,1,0,4.4-2.924c-1.123-1.688-2.181-3.443-3.145-5.214" transform="translate(-7.226 -134.276)" fill="#b6492e"/>
      <path id="Caminho_552" data-name="Caminho 552" d="M5.587,190.949a2.636,2.636,0,0,0,3.137-2.022c.428-1.979.936-3.984,1.512-5.96a2.64,2.64,0,0,0-5.069-1.476c-.61,2.095-1.149,4.221-1.6,6.322a2.639,2.639,0,0,0,2.022,3.137" transform="translate(-1.655 -84.79)" fill="#b6492e"/>
      <path id="Caminho_553" data-name="Caminho 553" d="M72.893,340.878c-1.776-1.145-3.5-2.318-5.135-3.485a2.64,2.64,0,0,0-3.072,4.293c1.7,1.216,3.5,2.437,5.347,3.628a2.639,2.639,0,1,0,2.86-4.436" transform="translate(-30.019 -159.061)" fill="#b6492e"/>
      <path id="Caminho_554" data-name="Caminho 554" d="M17.32,157.22a2.639,2.639,0,0,0,2.418-1.578c.818-1.861,1.712-3.735,2.658-5.571a2.639,2.639,0,1,0-4.692-2.418c-1,1.931-1.937,3.9-2.8,5.865a2.641,2.641,0,0,0,2.414,3.7" transform="translate(-6.932 -69.036)" fill="#b6492e"/>
      <path id="Caminho_555" data-name="Caminho 555" d="M40.971,314.239a2.64,2.64,0,1,0-3.849,3.614c1.46,1.554,3.02,3.1,4.638,4.583a2.64,2.64,0,1,0,3.573-3.887c-1.523-1.4-2.99-2.849-4.362-4.311" transform="translate(-17.189 -147.969)" fill="#b6492e"/>
      <path id="Caminho_556" data-name="Caminho 556" d="M2.736,226.59A2.639,2.639,0,0,0,5.3,223.882q-.025-.955-.025-1.91c0-1.39.042-2.8.122-4.2a2.64,2.64,0,0,0-5.271-.3c-.086,1.5-.13,3.012-.13,4.5q0,1.026.027,2.051a2.639,2.639,0,0,0,2.637,2.569h.072" transform="translate(0 -101.499)" fill="#b6492e"/>
      <path id="Caminho_557" data-name="Caminho 557" d="M63.611,93.753a2.639,2.639,0,1,0-3.59-3.87c-1.577,1.462-3.132,2.994-4.625,4.55a2.639,2.639,0,1,0,3.81,3.653c1.422-1.482,2.9-2.94,4.405-4.333" transform="translate(-25.807 -42.104)" fill="#b6492e"/>
      <path id="Caminho_558" data-name="Caminho 558" d="M36.911,125.089c1.144-1.7,2.355-3.388,3.6-5.026a2.639,2.639,0,0,0-4.2-3.2c-1.306,1.718-2.578,3.492-3.777,5.272a2.639,2.639,0,1,0,4.377,2.95" transform="translate(-15.147 -54.685)" fill="#b6492e"/>
      <path id="Caminho_559" data-name="Caminho 559" d="M333.18,597.133c10,7.046,20.918,19.693,28.093,30.282,1.466-12.706,5.3-28.964,10.918-39.835l-17.775,11.832Z" transform="translate(-157.305 -277.415)" fill="#b6492e"/>
    </g>
  </g>
</svg>
