<svg id="Seta06" xmlns="http://www.w3.org/2000/svg" xmlns:xlink="http://www.w3.org/1999/xlink" width="400" height="267.153" viewBox="0 0 400 267.153">
  <defs>
    <clipPath id="clip-path">
      <rect id="Retângulo_72" data-name="Retângulo 72" width="400" height="267.153" fill="none"/>
    </clipPath>
  </defs>
  <g id="Grupo_93" data-name="Grupo 93" clip-path="url(#clip-path)">
    <path id="Caminho_431" data-name="Caminho 431" d="M673.93,9.679a2.89,2.89,0,0,0,4.087.113c1.671-1.58,3.366-3.2,5.037-4.827A2.891,2.891,0,1,0,679.026.817c-1.653,1.606-3.329,3.212-4.982,4.775a2.891,2.891,0,0,0-.114,4.087" transform="translate(-283.931 0)" fill="#b6492e"/>
    <path id="Caminho_432" data-name="Caminho 432" d="M621.856,58.273a2.881,2.881,0,0,0,1.816-.643c1.781-1.44,3.6-2.927,5.4-4.42a2.891,2.891,0,0,0-3.693-4.45c-1.78,1.478-3.577,2.949-5.338,4.374a2.891,2.891,0,0,0,1.819,5.139" transform="translate(-261.08 -20.286)" fill="#b6492e"/>
    <path id="Caminho_433" data-name="Caminho 433" d="M416.072,182.924a2.89,2.89,0,0,0-3.824-1.445c-2.082.94-4.2,1.882-6.308,2.8a2.891,2.891,0,1,0,2.313,5.3c2.126-.929,4.271-1.88,6.375-2.831a2.89,2.89,0,0,0,1.445-3.824" transform="translate(-170.494 -76.44)" fill="#b6492e"/>
    <path id="Caminho_434" data-name="Caminho 434" d="M347.578,213.905a2.891,2.891,0,0,0-1.965-5.437c-2.153.778-4.342,1.552-6.5,2.3A2.891,2.891,0,1,0,341,216.233c2.187-.758,4.4-1.541,6.576-2.328" transform="translate(-142.216 -87.859)" fill="#b6492e"/>
    <path id="Caminho_435" data-name="Caminho 435" d="M278.36,96.952a58.905,58.905,0,0,1,6.053,2.646,2.891,2.891,0,1,0,2.608-5.16,64.589,64.589,0,0,0-6.649-2.907,2.891,2.891,0,0,0-2.012,5.421" transform="translate(-116.617 -38.531)" fill="#b6492e"/>
    <path id="Caminho_436" data-name="Caminho 436" d="M346.5,284.293a2.888,2.888,0,0,0,3.84-1.4c1.006-2.165,1.94-4.378,2.778-6.578a2.891,2.891,0,1,0-5.4-2.057c-.789,2.072-1.67,4.158-2.619,6.2a2.89,2.89,0,0,0,1.4,3.84" transform="translate(-145.448 -114.895)" fill="#b6492e"/>
    <path id="Caminho_437" data-name="Caminho 437" d="M359.234,250.213a2.893,2.893,0,0,0,2.822-2.276c.29-1.333.555-2.693.786-4.039.171-1,.326-2.017.459-3.04a2.891,2.891,0,1,0-5.733-.748c-.123.945-.266,1.89-.424,2.809-.217,1.263-.465,2.537-.738,3.787a2.893,2.893,0,0,0,2.828,3.507" transform="translate(-150.305 -100.217)" fill="#b6492e"/>
    <path id="Caminho_438" data-name="Caminho 438" d="M333.3,135.891a2.891,2.891,0,0,0-.676,4.032c1.284,1.8,2.513,3.689,3.653,5.61a2.891,2.891,0,1,0,4.973-2.951c-1.222-2.059-2.541-4.083-3.917-6.015a2.891,2.891,0,0,0-4.032-.676" transform="translate(-140.077 -57.092)" fill="#b6492e"/>
    <path id="Caminho_439" data-name="Caminho 439" d="M327.665,315.39a2.89,2.89,0,0,0,4.04-.624c1.407-1.921,2.76-3.9,4.024-5.871a2.891,2.891,0,1,0-4.871-3.116c-1.2,1.873-2.482,3.747-3.818,5.571a2.89,2.89,0,0,0,.625,4.04" transform="translate(-137.71 -128.415)" fill="#b6492e"/>
    <path id="Caminho_440" data-name="Caminho 440" d="M317.656,114.594c-1.73-1.69-3.545-3.3-5.393-4.788a2.891,2.891,0,0,0-3.624,4.505c1.705,1.371,3.38,2.858,4.977,4.419a2.891,2.891,0,1,0,4.04-4.136" transform="translate(-129.729 -46.047)" fill="#b6492e"/>
    <path id="Caminho_441" data-name="Caminho 441" d="M364.006,204.2a2.891,2.891,0,1,0-5.73.771c.3,2.216.5,4.458.614,6.665a2.891,2.891,0,0,0,2.886,2.748c.048,0,.1,0,.146,0a2.892,2.892,0,0,0,2.744-3.031c-.118-2.368-.34-4.774-.66-7.149" transform="translate(-151.11 -85.076)" fill="#b6492e"/>
    <path id="Caminho_442" data-name="Caminho 442" d="M448.622,167.378a2.891,2.891,0,0,0-3.877-1.3c-2.049,1.022-4.134,2.045-6.2,3.042a2.891,2.891,0,1,0,2.515,5.206c2.084-1.007,4.191-2.04,6.261-3.073a2.891,2.891,0,0,0,1.3-3.877" transform="translate(-184.292 -69.925)" fill="#b6492e"/>
    <path id="Caminho_443" data-name="Caminho 443" d="M305.776,227.621a2.914,2.914,0,0,0,.79-.11c2.142-.608,4.342-1.265,6.723-2.011a2.891,2.891,0,0,0-1.728-5.518c-2.331.73-4.481,1.373-6.572,1.965a2.891,2.891,0,0,0,.786,5.673" transform="translate(-127.757 -92.733)" fill="#b6492e"/>
    <path id="Caminho_444" data-name="Caminho 444" d="M349.379,170.892c.816,2.072,1.559,4.2,2.208,6.335a2.891,2.891,0,0,0,5.532-1.686c-.694-2.277-1.488-4.554-2.36-6.767a2.891,2.891,0,0,0-5.38,2.119" transform="translate(-147.283 -70.416)" fill="#b6492e"/>
    <path id="Caminho_445" data-name="Caminho 445" d="M373.83,203.757a2.876,2.876,0,0,0,1.051-.2c2.152-.841,4.333-1.709,6.482-2.582a2.891,2.891,0,0,0-2.175-5.357c-2.126.863-4.283,1.722-6.41,2.554a2.891,2.891,0,0,0,1.052,5.584" transform="translate(-156.462 -82.423)" fill="#b6492e"/>
    <path id="Caminho_446" data-name="Caminho 446" d="M511.836,132.61a2.892,2.892,0,0,0-3.965-1c-1.965,1.177-3.966,2.356-5.946,3.507a2.891,2.891,0,1,0,2.907,5c2-1.163,4.021-2.355,6.007-3.543a2.891,2.891,0,0,0,1-3.965" transform="translate(-211.106 -55.342)" fill="#b6492e"/>
    <path id="Caminho_447" data-name="Caminho 447" d="M270.991,235.8c2.268-.3,4.629-.686,7.017-1.147a2.891,2.891,0,0,0-1.1-5.677c-2.276.439-4.523.807-6.678,1.092a2.891,2.891,0,0,0,.376,5.758,2.958,2.958,0,0,0,.382-.025" transform="translate(-112.925 -96.561)" fill="#b6492e"/>
    <path id="Caminho_448" data-name="Caminho 448" d="M78.639,417.726c-2.279.112-4.6.206-6.888.282a2.891,2.891,0,0,0,.094,5.78l.1,0c2.322-.076,4.671-.172,6.98-.285a2.891,2.891,0,0,0-.282-5.775" transform="translate(-29.085 -176.196)" fill="#b6492e"/>
    <path id="Caminho_449" data-name="Caminho 449" d="M649.405,34.953a2.881,2.881,0,0,0,1.9-.715c1.726-1.511,3.482-3.067,5.22-4.627a2.891,2.891,0,0,0-3.862-4.3c-1.72,1.544-3.457,3.084-5.165,4.577a2.891,2.891,0,0,0,1.9,5.067" transform="translate(-272.7 -10.363)" fill="#b6492e"/>
    <path id="Caminho_450" data-name="Caminho 450" d="M597.206,71.144c-1.821,1.4-3.673,2.8-5.5,4.165a2.891,2.891,0,0,0,3.461,4.633c1.849-1.381,3.721-2.8,5.562-4.209a2.891,2.891,0,1,0-3.519-4.588" transform="translate(-249.091 -29.757)" fill="#b6492e"/>
    <path id="Caminho_451" data-name="Caminho 451" d="M162.189,168.161a2.891,2.891,0,1,0-5.756.545,37.466,37.466,0,0,0,.777,4.831c.194.845.42,1.7.673,2.531a2.891,2.891,0,1,0,5.533-1.679c-.215-.707-.407-1.428-.571-2.145a31.64,31.64,0,0,1-.657-4.084" transform="translate(-65.978 -69.826)" fill="#b6492e"/>
    <path id="Caminho_452" data-name="Caminho 452" d="M542.408,113.442a2.892,2.892,0,0,0-4-.844c-1.924,1.254-3.877,2.509-5.806,3.731a2.891,2.891,0,1,0,3.095,4.884c1.95-1.236,3.924-2.5,5.868-3.771a2.891,2.891,0,0,0,.844-4" transform="translate(-224.085 -47.296)" fill="#b6492e"/>
    <path id="Caminho_453" data-name="Caminho 453" d="M117.579,417.64a2.891,2.891,0,0,0-3.169-2.584c-2.256.23-4.563.442-6.857.633a2.891,2.891,0,0,0,.236,5.772c.08,0,.161,0,.242-.01,2.33-.193,4.673-.409,6.964-.642a2.891,2.891,0,0,0,2.584-3.169" transform="translate(-44.248 -175.065)" fill="#b6492e"/>
    <path id="Caminho_454" data-name="Caminho 454" d="M222.976,394.193a2.892,2.892,0,0,0-3.736-1.661c-2.048.787-4.2,1.558-6.408,2.291a2.891,2.891,0,1,0,1.824,5.487c2.287-.76,4.528-1.562,6.66-2.381a2.892,2.892,0,0,0,1.661-3.736" transform="translate(-88.938 -165.489)" fill="#b6492e"/>
    <path id="Caminho_455" data-name="Caminho 455" d="M251.69,377.365c-1.962,1.107-3.981,2.182-6,3.2a2.891,2.891,0,1,0,2.593,5.168c2.1-1.055,4.206-2.175,6.249-3.327a2.891,2.891,0,1,0-2.841-5.037" transform="translate(-102.959 -159.016)" fill="#b6492e"/>
    <path id="Caminho_456" data-name="Caminho 456" d="M188.569,405.245a2.89,2.89,0,0,0-3.51-2.1c-2.164.545-4.408,1.073-6.668,1.569a2.891,2.891,0,1,0,1.24,5.648c2.318-.509,4.619-1.051,6.841-1.61a2.891,2.891,0,0,0,2.1-3.509" transform="translate(-74.287 -170.011)" fill="#b6492e"/>
    <path id="Caminho_457" data-name="Caminho 457" d="M153.284,412.743a2.891,2.891,0,0,0-3.324-2.38c-2.221.367-4.507.719-6.794,1.044a2.891,2.891,0,1,0,.815,5.725c2.33-.331,4.659-.69,6.923-1.064a2.89,2.89,0,0,0,2.38-3.323" transform="translate(-59.34 -173.075)" fill="#b6492e"/>
    <path id="Caminho_458" data-name="Caminho 458" d="M197.9,222.5a2.892,2.892,0,0,0,1.233,3.9,59.879,59.879,0,0,0,6.662,2.956,2.891,2.891,0,0,0,2.019-5.418,53.872,53.872,0,0,1-6.016-2.669,2.892,2.892,0,0,0-3.9,1.233" transform="translate(-83.337 -93.192)" fill="#b6492e"/>
    <path id="Caminho_459" data-name="Caminho 459" d="M312.649,337.675a2.891,2.891,0,0,0-4.234-3.938c-1.522,1.637-3.121,3.262-4.752,4.832a2.891,2.891,0,0,0,4.009,4.166c1.707-1.643,3.381-3.346,4.976-5.06" transform="translate(-127.712 -140.382)" fill="#b6492e"/>
    <path id="Caminho_460" data-name="Caminho 460" d="M161.313,132.209a45.326,45.326,0,0,0-2.565,6.946,2.891,2.891,0,1,0,5.571,1.548,39.574,39.574,0,0,1,2.237-6.057,2.891,2.891,0,1,0-5.243-2.437" transform="translate(-66.915 -55.06)" fill="#b6492e"/>
    <path id="Caminho_461" data-name="Caminho 461" d="M469.361,156.635a2.889,2.889,0,0,0,3.909,1.2c2.015-1.07,4.081-2.184,6.14-3.311a2.891,2.891,0,0,0-2.777-5.072c-2.037,1.115-4.08,2.217-6.075,3.276a2.891,2.891,0,0,0-1.2,3.909" transform="translate(-197.835 -62.888)" fill="#b6492e"/>
    <path id="Caminho_462" data-name="Caminho 462" d="M244.131,90.693a56.939,56.939,0,0,1,6.585.423,2.891,2.891,0,0,0,.706-5.739,62.726,62.726,0,0,0-7.256-.466,2.891,2.891,0,0,0-.035,5.782" transform="translate(-101.763 -35.815)" fill="#b6492e"/>
    <path id="Caminho_463" data-name="Caminho 463" d="M281.684,357.679c-1.771,1.38-3.609,2.737-5.463,4.036a2.891,2.891,0,0,0,3.319,4.735c1.933-1.355,3.849-2.771,5.7-4.21a2.891,2.891,0,1,0-3.553-4.561" transform="translate(-115.991 -150.612)" fill="#b6492e"/>
    <path id="Caminho_464" data-name="Caminho 464" d="M235.054,231.417a2.891,2.891,0,1,0-.686,5.741c2.338.279,4.758.45,7.192.509h.071a2.891,2.891,0,0,0,.068-5.781c-2.251-.054-4.487-.212-6.645-.469" transform="translate(-97.782 -97.604)" fill="#b6492e"/>
    <path id="Caminho_465" data-name="Caminho 465" d="M208.9,95.423a2.877,2.877,0,0,0,1.029-.191,50.772,50.772,0,0,1,6.268-1.928,2.891,2.891,0,0,0-1.343-5.624,56.446,56.446,0,0,0-6.985,2.15,2.891,2.891,0,0,0,1.03,5.593" transform="translate(-86.893 -36.95)" fill="#b6492e"/>
    <path id="Caminho_466" data-name="Caminho 466" d="M179.069,113.131a2.882,2.882,0,0,0,2.108-.912,39.126,39.126,0,0,1,3.694-3.455q.544-.446,1.1-.872a2.891,2.891,0,1,0-3.513-4.593q-.634.485-1.254.992a44.833,44.833,0,0,0-4.243,3.969,2.891,2.891,0,0,0,2.106,4.87" transform="translate(-74.313 -43.321)" fill="#b6492e"/>
    <path id="Caminho_467" data-name="Caminho 467" d="M568.2,92.433c-1.85,1.31-3.754,2.638-5.658,3.951a2.891,2.891,0,1,0,3.279,4.761c1.925-1.326,3.849-2.669,5.719-3.993a2.891,2.891,0,1,0-3.34-4.719" transform="translate(-236.753 -38.764)" fill="#b6492e"/>
    <path id="Caminho_468" data-name="Caminho 468" d="M170.457,203.077a46.875,46.875,0,0,0,5,5.435,2.891,2.891,0,1,0,3.939-4.233,41.174,41.174,0,0,1-4.386-4.763,2.891,2.891,0,1,0-4.556,3.561" transform="translate(-71.64 -83.687)" fill="#b6492e"/>
    <path id="Caminho_469" data-name="Caminho 469" d="M0,406.812c12.986,5.256,29.031,14.05,38.869,23.153l-7.144-21.734a2.875,2.875,0,0,0,.049-.482,2.829,2.829,0,0,0-.043-.422l8.439-21.335C29.811,394.5,13.274,402.328,0,406.812" transform="translate(0 -162.812)" fill="#b6492e"/>
  </g>
</svg>
