<svg id="Seta04" xmlns="http://www.w3.org/2000/svg" xmlns:xlink="http://www.w3.org/1999/xlink" width="300" height="279.559" viewBox="0 0 300 279.559">
  <defs>
    <clipPath id="clip-path">
      <rect id="Retângulo_70" data-name="Retângulo 70" width="300" height="279.559" fill="none"/>
    </clipPath>
  </defs>
  <g id="Grupo_89" data-name="Grupo 89" clip-path="url(#clip-path)">
    <path id="Caminho_385" data-name="Caminho 385" d="M22.408,350.5a3.092,3.092,0,0,0,2.7-4.592c-1.158-2.085-2.259-4.242-3.274-6.413a3.091,3.091,0,0,0-5.6,2.617c1.075,2.3,2.243,4.588,3.47,6.8a3.09,3.09,0,0,0,2.7,1.591" transform="translate(-6.087 -128.957)" fill="#b6492e"/>
    <path id="Caminho_386" data-name="Caminho 386" d="M42.285,380.407a3.091,3.091,0,0,0,2.314-5.139l-.431-.491c-1.419-1.631-2.8-3.337-4.12-5.069a3.091,3.091,0,1,0-4.924,3.738c1.4,1.841,2.871,3.654,4.379,5.388l.465.531a3.083,3.083,0,0,0,2.316,1.043" transform="translate(-13.172 -140.709)" fill="#b6492e"/>
    <path id="Caminho_387" data-name="Caminho 387" d="M434.194,257.01a3.088,3.088,0,0,0,3.9-1.964c.778-2.353,1.527-4.776,2.224-7.2a3.091,3.091,0,1,0-5.941-1.707c-.675,2.348-1.4,4.692-2.152,6.968a3.091,3.091,0,0,0,1.964,3.9" transform="translate(-164.99 -93.135)" fill="#b6492e"/>
    <path id="Caminho_388" data-name="Caminho 388" d="M88.568,138.183a3.078,3.078,0,0,0,1.361-.318c2.142-1.053,4.349-2.036,6.56-2.921a3.091,3.091,0,1,0-2.3-5.738c-2.355.943-4.707,1.99-6.989,3.112a3.091,3.091,0,0,0,1.366,5.865" transform="translate(-32.639 -49.253)" fill="#b6492e"/>
    <path id="Caminho_389" data-name="Caminho 389" d="M93.139,415.76a3.091,3.091,0,1,0-3.07,5.365c2.182,1.249,4.44,2.452,6.712,3.573a3.091,3.091,0,1,0,2.738-5.542c-2.159-1.067-4.305-2.21-6.379-3.4" transform="translate(-33.799 -158.605)" fill="#b6492e"/>
    <path id="Caminho_390" data-name="Caminho 390" d="M455.3,142.837q0-1.317-.012-2.635a3.091,3.091,0,0,0-3.09-3.063h-.028a3.092,3.092,0,0,0-3.064,3.119q.012,1.289.012,2.578c0,1.59-.014,3.19-.042,4.756a3.09,3.09,0,0,0,3.035,3.144h.056a3.091,3.091,0,0,0,3.089-3.036c.028-1.6.043-3.239.043-4.865" transform="translate(-171.483 -52.368)" fill="#b6492e"/>
    <path id="Caminho_391" data-name="Caminho 391" d="M59.9,395.7a3.091,3.091,0,0,0,.321,4.359c1.9,1.642,3.9,3.252,5.929,4.784a3.091,3.091,0,0,0,3.722-4.935c-1.924-1.451-3.812-2.975-5.613-4.529a3.092,3.092,0,0,0-4.36.321" transform="translate(-22.586 -150.692)" fill="#b6492e"/>
    <path id="Caminho_392" data-name="Caminho 392" d="M300.031,419.494c2.223-1.146,4.454-2.363,6.633-3.617a3.09,3.09,0,1,0-3.083-5.357c-2.1,1.207-4.244,2.378-6.384,3.481a3.091,3.091,0,1,0,2.834,5.494" transform="translate(-112.848 -156.603)" fill="#b6492e"/>
    <path id="Caminho_393" data-name="Caminho 393" d="M58.289,156.638a3.082,3.082,0,0,0,1.942-.687c1.851-1.5,3.787-2.947,5.751-4.307a3.091,3.091,0,1,0-3.518-5.082c-2.091,1.448-4.15,2.989-6.121,4.583a3.09,3.09,0,0,0,1.945,5.494" transform="translate(-21.077 -55.756)" fill="#b6492e"/>
    <path id="Caminho_394" data-name="Caminho 394" d="M122.4,127.167a3.122,3.122,0,0,0,.691-.078c2.33-.532,4.7-.972,7.041-1.309a3.091,3.091,0,1,0-.878-6.118c-2.509.36-5.045.831-7.539,1.4a3.091,3.091,0,0,0,.685,6.1" transform="translate(-45.561 -45.682)" fill="#b6492e"/>
    <path id="Caminho_395" data-name="Caminho 395" d="M453.055,183.911c.26-2.459.487-4.975.676-7.479a3.091,3.091,0,0,0-6.165-.464c-.184,2.442-.405,4.9-.659,7.293a3.091,3.091,0,0,0,2.748,3.4,3.125,3.125,0,0,0,.329.018,3.092,3.092,0,0,0,3.07-2.766" transform="translate(-170.648 -66.103)" fill="#b6492e"/>
    <path id="Caminho_396" data-name="Caminho 396" d="M125.324,430.495a3.091,3.091,0,1,0-2.065,5.827c2.374.841,4.807,1.625,7.23,2.328a3.091,3.091,0,1,0,1.724-5.936c-2.31-.671-4.627-1.417-6.889-2.219" transform="translate(-46.281 -164.319)" fill="#b6492e"/>
    <path id="Caminho_397" data-name="Caminho 397" d="M194.937,448.279h.019c2.516-.015,5.07-.1,7.593-.262a3.091,3.091,0,0,0-.388-6.169c-2.406.151-4.843.236-7.242.25a3.091,3.091,0,0,0,.018,6.181" transform="translate(-73.258 -168.721)" fill="#b6492e"/>
    <path id="Caminho_398" data-name="Caminho 398" d="M230.75,444.271a3.122,3.122,0,0,0,.538-.047c2.469-.434,4.969-.943,7.429-1.511a3.091,3.091,0,0,0-1.393-6.022c-2.354.545-4.744,1.031-7.1,1.445a3.091,3.091,0,0,0,.53,6.136" transform="translate(-86.934 -166.723)" fill="#b6492e"/>
    <path id="Caminho_399" data-name="Caminho 399" d="M166.1,446.539a3.091,3.091,0,1,0,.679-6.144c-2.385-.264-4.8-.6-7.17-1a3.091,3.091,0,0,0-1.031,6.1c2.489.421,5.02.775,7.522,1.051" transform="translate(-59.571 -167.769)" fill="#b6492e"/>
    <path id="Caminho_400" data-name="Caminho 400" d="M329.378,400.694a3.076,3.076,0,0,0,1.772-.56c2.045-1.434,4.091-2.936,6.085-4.467a3.091,3.091,0,1,0-3.764-4.9c-1.922,1.476-3.9,2.925-5.869,4.307a3.091,3.091,0,0,0,1.776,5.622" transform="translate(-124.594 -148.972)" fill="#b6492e"/>
    <path id="Caminho_401" data-name="Caminho 401" d="M158.036,124.435c2.38.07,4.775.248,7.118.529a3.024,3.024,0,0,0,.372.023,3.091,3.091,0,0,0,.365-6.16c-2.526-.3-5.108-.5-7.672-.571a3.091,3.091,0,1,0-.182,6.179" transform="translate(-59.202 -45.156)" fill="#b6492e"/>
    <path id="Caminho_402" data-name="Caminho 402" d="M0,271.176c.015,2.528.128,5.1.336,7.641a3.092,3.092,0,0,0,3.077,2.84c.084,0,.169,0,.255-.011A3.09,3.09,0,0,0,6.5,278.314c-.2-2.387-.3-4.8-.315-7.175a3.091,3.091,0,0,0-3.09-3.072H3.073A3.091,3.091,0,0,0,0,271.176" transform="translate(0 -102.363)" fill="#b6492e"/>
    <path id="Caminho_403" data-name="Caminho 403" d="M406.583,320.932c1.377-2.1,2.723-4.258,4-6.406a3.091,3.091,0,0,0-5.312-3.161c-1.233,2.072-2.532,4.151-3.861,6.181a3.091,3.091,0,1,0,5.172,3.386" transform="translate(-153.089 -118.32)" fill="#b6492e"/>
    <path id="Caminho_404" data-name="Caminho 404" d="M426.006,278.052a3.092,3.092,0,0,0-4.057,1.625c-.957,2.236-1.971,4.465-3.012,6.625a3.091,3.091,0,1,0,5.568,2.684c1.081-2.243,2.133-4.557,3.127-6.877a3.091,3.091,0,0,0-1.625-4.057" transform="translate(-159.857 -106.081)" fill="#b6492e"/>
    <path id="Caminho_405" data-name="Caminho 405" d="M447.478,219.829c.5-2.425.977-4.912,1.4-7.391a3.091,3.091,0,0,0-6.092-1.05c-.415,2.409-.874,4.825-1.365,7.18a3.091,3.091,0,1,0,6.052,1.26" transform="translate(-168.537 -79.741)" fill="#b6492e"/>
    <path id="Caminho_406" data-name="Caminho 406" d="M449.211,68.068a3.091,3.091,0,1,0-6.107.957c.376,2.4.731,4.847,1.053,7.271a3.091,3.091,0,0,0,6.127-.816c-.328-2.47-.689-4.964-1.073-7.412" transform="translate(-169.188 -24.994)" fill="#b6492e"/>
    <path id="Caminho_407" data-name="Caminho 407" d="M389.024,340.2a3.091,3.091,0,0,0-4.339.53c-1.489,1.9-3.041,3.8-4.611,5.647a3.091,3.091,0,0,0,4.707,4.008c1.626-1.908,3.231-3.875,4.773-5.846a3.09,3.09,0,0,0-.529-4.339" transform="translate(-144.853 -129.657)" fill="#b6492e"/>
    <path id="Caminho_408" data-name="Caminho 408" d="M360.624,367.339c-1.714,1.7-3.49,3.393-5.276,5.025a3.091,3.091,0,0,0,4.167,4.565c1.851-1.69,3.69-3.441,5.465-5.2a3.091,3.091,0,1,0-4.356-4.386" transform="translate(-135.308 -139.928)" fill="#b6492e"/>
    <path id="Caminho_409" data-name="Caminho 409" d="M17.539,209.855c.941-2.164,2-4.325,3.134-6.424a3.091,3.091,0,1,0-5.434-2.946c-1.222,2.255-2.356,4.577-3.368,6.9a3.091,3.091,0,1,0,5.668,2.467" transform="translate(-4.435 -75.939)" fill="#b6492e"/>
    <path id="Caminho_410" data-name="Caminho 410" d="M4.823,245.84a3.092,3.092,0,0,0,3.052-2.623c.361-2.363.824-4.727,1.374-7.026a3.091,3.091,0,1,0-6.012-1.438c-.59,2.465-1.084,5-1.472,7.529A3.09,3.09,0,0,0,4.352,245.8a3.141,3.141,0,0,0,.472.036" transform="translate(-0.66 -88.736)" fill="#b6492e"/>
    <path id="Caminho_411" data-name="Caminho 411" d="M447.41,104.542c.209,2.45.389,4.915.535,7.323a3.091,3.091,0,0,0,3.083,2.9c.063,0,.127,0,.19-.006a3.091,3.091,0,0,0,2.9-3.272c-.15-2.459-.334-4.973-.548-7.473a3.09,3.09,0,1,0-6.159.525" transform="translate(-170.843 -38.64)" fill="#b6492e"/>
    <path id="Caminho_412" data-name="Caminho 412" d="M31.2,180.841a3.09,3.09,0,0,0,4.337-.543c1.455-1.872,3.01-3.718,4.622-5.485a3.091,3.091,0,0,0-4.567-4.166c-1.72,1.887-3.381,3.858-4.935,5.856a3.091,3.091,0,0,0,.543,4.337" transform="translate(-11.459 -64.778)" fill="#b6492e"/>
    <path id="Caminho_413" data-name="Caminho 413" d="M271.363,426.038c-2.253.9-4.543,1.751-6.806,2.528a3.091,3.091,0,1,0,2.008,5.846c2.359-.81,4.746-1.7,7.093-2.635a3.091,3.091,0,0,0-2.294-5.74" transform="translate(-100.226 -162.601)" fill="#b6492e"/>
    <path id="Caminho_414" data-name="Caminho 414" d="M6.278,314.9a3.091,3.091,0,1,0,5.91-1.813c-.7-2.289-1.33-4.627-1.866-6.95a3.091,3.091,0,0,0-6.023,1.39c.569,2.465,1.234,4.946,1.979,7.374" transform="translate(-1.611 -115.987)" fill="#b6492e"/>
    <path id="Caminho_415" data-name="Caminho 415" d="M457.092,35.523C445.391,27.25,432.64,12.417,424.262,0c-1.744,14.875-6.272,33.905-12.874,46.623L432.23,32.807Z" transform="translate(-157.092)" fill="#b6492e"/>
  </g>
</svg>
