<svg id="Seta05" xmlns="http://www.w3.org/2000/svg" xmlns:xlink="http://www.w3.org/1999/xlink" width="76.338" height="350" viewBox="0 0 76.338 350">
  <defs>
    <clipPath id="clip-path">
      <rect id="Retângulo_71" data-name="Retângulo 71" width="76.338" height="350" fill="none"/>
    </clipPath>
  </defs>
  <g id="Grupo_91" data-name="Grupo 91" clip-path="url(#clip-path)">
    <path id="Caminho_416" data-name="Caminho 416" d="M3.524,14.2c.046,0,.094,0,.14,0a3.229,3.229,0,0,0,3.088-3.364q-.165-3.871-.3-7.717A3.229,3.229,0,0,0,0,3.339Q.135,7.212.3,11.11A3.228,3.228,0,0,0,3.524,14.2" transform="translate(0 0)" fill="#b6492e"/>
    <path id="Caminho_417" data-name="Caminho 417" d="M15.988,157.575a3.228,3.228,0,0,0,2.8-3.61q-.486-3.831-.947-7.654a3.228,3.228,0,1,0-6.41.772q.462,3.844.951,7.7a3.229,3.229,0,0,0,3.2,2.823,3.281,3.281,0,0,0,.411-.026" transform="translate(-4.04 -50.823)" fill="#b6492e"/>
    <path id="Caminho_418" data-name="Caminho 418" d="M17.149,190.482a3.228,3.228,0,0,0,3.191,2.767,3.267,3.267,0,0,0,.466-.034,3.228,3.228,0,0,0,2.733-3.658q-.552-3.824-1.083-7.644a3.229,3.229,0,0,0-6.4.888q.533,3.838,1.089,7.68" transform="translate(-5.678 -63.456)" fill="#b6492e"/>
    <path id="Caminho_419" data-name="Caminho 419" d="M22.539,226.112a3.229,3.229,0,0,0,6.375-1.033q-.618-3.814-1.214-7.63a3.229,3.229,0,0,0-6.381,1q.6,3.832,1.22,7.665" transform="translate(-7.538 -76.063)" fill="#b6492e"/>
    <path id="Caminho_420" data-name="Caminho 420" d="M8.052,86.065c.094,0,.19,0,.286-.013a3.228,3.228,0,0,0,2.934-3.5q-.338-3.859-.648-7.7a3.229,3.229,0,0,0-6.436.519q.312,3.865.652,7.746a3.229,3.229,0,0,0,3.213,2.947" transform="translate(-1.48 -25.465)" fill="#b6492e"/>
    <path id="Caminho_421" data-name="Caminho 421" d="M10.346,107.756a3.23,3.23,0,0,0-2.888,3.537q.389,3.846.8,7.706a3.23,3.23,0,0,0,3.207,2.883,3.352,3.352,0,0,0,.349-.019,3.23,3.23,0,0,0,2.865-3.556q-.414-3.839-.8-7.664a3.225,3.225,0,0,0-3.537-2.888" transform="translate(-2.636 -38.166)" fill="#b6492e"/>
    <path id="Caminho_422" data-name="Caminho 422" d="M5.6,50.152a3.229,3.229,0,0,0,3.009-3.435q-.255-3.866-.48-7.71a3.228,3.228,0,1,0-6.446.376q.225,3.869.483,7.76a3.228,3.228,0,0,0,3.218,3.016c.071,0,.144,0,.216-.007" transform="translate(-0.593 -12.741)" fill="#b6492e"/>
    <path id="Caminho_423" data-name="Caminho 423" d="M74.219,465.242q1.028,3.756,2.07,7.488a3.229,3.229,0,0,0,6.219-1.738q-1.037-3.715-2.061-7.453a3.229,3.229,0,1,0-6.229,1.7" transform="translate(-26.251 -163.363)" fill="#b6492e"/>
    <path id="Caminho_424" data-name="Caminho 424" d="M29.811,250.277a3.228,3.228,0,0,0-2.63,3.732q.663,3.825,1.346,7.649a3.228,3.228,0,1,0,6.356-1.137q-.68-3.806-1.34-7.615a3.228,3.228,0,0,0-3.732-2.63" transform="translate(-9.612 -88.642)" fill="#b6492e"/>
    <path id="Caminho_425" data-name="Caminho 425" d="M54.5,358.749a3.229,3.229,0,0,0-6.3,1.4q.847,3.8,1.713,7.592a3.228,3.228,0,1,0,6.295-1.437q-.861-3.773-1.7-7.559" transform="translate(-17.045 -126.189)" fill="#b6492e"/>
    <path id="Caminho_426" data-name="Caminho 426" d="M56.314,395.326q.908,3.793,1.831,7.569a3.229,3.229,0,0,0,6.273-1.534Q63.5,397.6,62.6,393.824a3.229,3.229,0,0,0-6.281,1.5" transform="translate(-19.917 -138.632)" fill="#b6492e"/>
    <path id="Caminho_427" data-name="Caminho 427" d="M36.192,285.712a3.228,3.228,0,0,0-2.569,3.774q.726,3.818,1.47,7.632a3.229,3.229,0,1,0,6.337-1.239q-.741-3.8-1.463-7.6a3.23,3.23,0,0,0-3.774-2.569" transform="translate(-11.89 -101.191)" fill="#b6492e"/>
    <path id="Caminho_428" data-name="Caminho 428" d="M43.139,321.054a3.229,3.229,0,0,0-2.51,3.814q.786,3.811,1.59,7.612a3.229,3.229,0,1,0,6.317-1.337q-.8-3.785-1.584-7.579a3.226,3.226,0,0,0-3.814-2.51" transform="translate(-14.369 -113.707)" fill="#b6492e"/>
    <path id="Caminho_429" data-name="Caminho 429" d="M67.32,426.455a3.23,3.23,0,0,0-2.327,3.929q.966,3.77,1.947,7.52a3.229,3.229,0,0,0,6.247-1.635q-.976-3.733-1.938-7.486a3.229,3.229,0,0,0-3.929-2.327" transform="translate(-22.987 -151.033)" fill="#b6492e"/>
    <path id="Caminho_430" data-name="Caminho 430" d="M92.394,465.586,71.409,481.142l-26.085-1.469c12.659,7.989,26.776,22.764,36.2,35.258,1-15.614,4.682-35.715,10.872-49.345" transform="translate(-16.056 -164.931)" fill="#b6492e"/>
  </g>
</svg>
