<svg id="Seta01" xmlns="http://www.w3.org/2000/svg" xmlns:xlink="http://www.w3.org/1999/xlink" width="635" height="172.968" viewBox="0 0 635 172.968">
  <defs>
    <clipPath id="clip-path">
      <rect id="Retângulo_67" data-name="Retângulo 67" width="635" height="172.967" fill="none"/>
    </clipPath>
  </defs>
  <g id="Grupo_83" data-name="Grupo 83" clip-path="url(#clip-path)">
    <path id="Caminho_297" data-name="Caminho 297" d="M490.407,49.392a24.55,24.55,0,0,1-1.9,5.874,2.884,2.884,0,1,0,5.235,2.421,30.308,30.308,0,0,0,2.342-7.26,2.884,2.884,0,0,0-5.674-1.035" transform="translate(-206.648 -19.904)" fill="#b6492e"/>
    <path id="Caminho_298" data-name="Caminho 298" d="M466.418,87.433a2.884,2.884,0,0,0,4.063.349,65.832,65.832,0,0,0,5.281-4.95,2.884,2.884,0,1,0-4.178-3.976,60.034,60.034,0,0,1-4.817,4.514,2.884,2.884,0,0,0-.349,4.063" transform="translate(-197.125 -32.997)" fill="#b6492e"/>
    <path id="Caminho_299" data-name="Caminho 299" d="M486.367,23.511A2.884,2.884,0,1,0,491.6,21.09a24.182,24.182,0,0,0-4.374-6.48,2.884,2.884,0,0,0-4.191,3.962,18.468,18.468,0,0,1,3.331,4.94" transform="translate(-204.112 -5.801)" fill="#b6492e"/>
    <path id="Caminho_300" data-name="Caminho 300" d="M492.078,292.639a2.884,2.884,0,0,0,2.883,2.855h.029c2.317-.023,4.691-.1,7.055-.243a2.884,2.884,0,0,0-.336-5.758c-2.272.133-4.553.212-6.777.234a2.884,2.884,0,0,0-2.856,2.912" transform="translate(-208.273 -122.527)" fill="#b6492e"/>
    <path id="Caminho_301" data-name="Caminho 301" d="M843.057,208.193a2.954,2.954,0,0,0,.375-.024c2.271-.3,4.568-.577,6.828-.838a2.884,2.884,0,1,0-.66-5.729c-2.289.264-4.614.548-6.913.848a2.884,2.884,0,0,0,.369,5.743" transform="translate(-355.606 -85.32)" fill="#b6492e"/>
    <path id="Caminho_302" data-name="Caminho 302" d="M878.847,204.555c.083,0,.166,0,.25-.011,2.274-.194,4.581-.375,6.857-.538a2.884,2.884,0,1,0-.409-5.752c-2.3.164-4.639.347-6.941.544a2.884,2.884,0,0,0,.243,5.757" transform="translate(-370.754 -83.908)" fill="#b6492e"/>
    <path id="Caminho_303" data-name="Caminho 303" d="M986.627,202.608c2.278.091,4.591.2,6.876.32.052,0,.1,0,.155,0a2.884,2.884,0,0,0,.15-5.763c-2.309-.123-4.647-.232-6.95-.324a2.884,2.884,0,1,0-.231,5.763" transform="translate(-416.42 -83.314)" fill="#b6492e"/>
    <path id="Caminho_304" data-name="Caminho 304" d="M452.518,5.76A33.985,33.985,0,0,1,458.8,6.805a2.884,2.884,0,1,0,1.5-5.569A39.768,39.768,0,0,0,452.949.009a2.884,2.884,0,0,0-.431,5.751" transform="translate(-190.4 0)" fill="#b6492e"/>
    <path id="Caminho_305" data-name="Caminho 305" d="M435.684,107.18a2.882,2.882,0,0,0,3.852,1.34q1.082-.524,2.161-1.061c1.39-.693,2.789-1.441,4.157-2.224a2.883,2.883,0,0,0-2.864-5.006c-1.273.728-2.574,1.423-3.864,2.066q-1.049.522-2.1,1.032a2.884,2.884,0,0,0-1.34,3.852" transform="translate(-184.282 -42.261)" fill="#b6492e"/>
    <path id="Caminho_306" data-name="Caminho 306" d="M914.768,202.478l.124,0c2.272-.1,4.585-.178,6.874-.242a2.884,2.884,0,0,0-.162-5.765c-2.316.065-4.656.148-6.955.245a2.884,2.884,0,0,0,.119,5.765" transform="translate(-385.957 -83.155)" fill="#b6492e"/>
    <path id="Caminho_307" data-name="Caminho 307" d="M807.467,213.407a2.915,2.915,0,0,0,.5-.044c2.249-.4,4.532-.778,6.786-1.14a2.884,2.884,0,0,0-.914-5.695c-2.281.366-4.593.754-6.869,1.154a2.884,2.884,0,0,0,.495,5.725" transform="translate(-340.542 -87.398)" fill="#b6492e"/>
    <path id="Caminho_308" data-name="Caminho 308" d="M1022.45,204.736c2.265.178,4.574.374,6.86.583.089.008.177.012.265.012a2.884,2.884,0,0,0,.258-5.756c-2.31-.211-4.642-.408-6.931-.588a2.884,2.884,0,0,0-.452,5.75" transform="translate(-431.629 -84.217)" fill="#b6492e"/>
    <path id="Caminho_309" data-name="Caminho 309" d="M950.754,201.892h.195c2.216,0,4.466.014,6.687.044h.039a2.884,2.884,0,0,0,.037-5.767c-2.246-.03-4.521-.045-6.776-.045h-.182a2.884,2.884,0,1,0,0,5.767" transform="translate(-401.187 -83.01)" fill="#b6492e"/>
    <path id="Caminho_310" data-name="Caminho 310" d="M600.595,273.786a2.889,2.889,0,0,0,.9-.144c2.122-.7,4.28-1.421,6.6-2.217a2.884,2.884,0,0,0-1.873-5.455c-2.293.787-4.425,1.5-6.522,2.192a2.884,2.884,0,0,0,.9,5.624" transform="translate(-252.982 -112.506)" fill="#b6492e"/>
    <path id="Caminho_311" data-name="Caminho 311" d="M336.425,175.516a2.884,2.884,0,0,0-5.6,1.363c.559,2.3,1.222,4.611,1.971,6.875a2.884,2.884,0,0,0,5.476-1.812c-.7-2.117-1.32-4.279-1.843-6.427" transform="translate(-139.986 -73.355)" fill="#b6492e"/>
    <path id="Caminho_312" data-name="Caminho 312" d="M530.815,291.954a2.9,2.9,0,0,0,.421-.031c2.289-.336,4.623-.726,6.94-1.159a2.884,2.884,0,0,0-1.061-5.669c-2.242.42-4.5.8-6.714,1.121a2.884,2.884,0,0,0,.415,5.737" transform="translate(-223.449 -120.646)" fill="#b6492e"/>
    <path id="Caminho_313" data-name="Caminho 313" d="M347.194,217.364a2.884,2.884,0,0,0,4.9-3.035c-1.17-1.891-2.281-3.85-3.3-5.826a2.884,2.884,0,0,0-5.124,2.647c1.088,2.107,2.274,4.2,3.521,6.214" transform="translate(-145.324 -87.588)" fill="#b6492e"/>
    <path id="Caminho_314" data-name="Caminho 314" d="M772.147,220.195a2.918,2.918,0,0,0,.626-.069c2.224-.493,4.488-.976,6.731-1.439a2.884,2.884,0,1,0-1.164-5.649c-2.269.468-4.562.957-6.813,1.456a2.884,2.884,0,0,0,.621,5.7" transform="translate(-325.593 -90.143)" fill="#b6492e"/>
    <path id="Caminho_315" data-name="Caminho 315" d="M465.675,293.965a2.884,2.884,0,1,0,.569-5.739c-2.253-.224-4.5-.516-6.685-.868a2.884,2.884,0,1,0-.92,5.694c2.3.371,4.666.678,7.036.914" transform="translate(-193.094 -121.609)" fill="#b6492e"/>
    <path id="Caminho_316" data-name="Caminho 316" d="M430.091,285.912a2.884,2.884,0,1,0,1.685-5.515c-2.15-.657-4.28-1.4-6.334-2.195a2.884,2.884,0,0,0-2.092,5.375c2.187.851,4.455,1.637,6.741,2.335" transform="translate(-178.406 -117.666)" fill="#b6492e"/>
    <path id="Caminho_317" data-name="Caminho 317" d="M368.495,237.738a2.884,2.884,0,1,0-4.376,3.756c1.55,1.806,3.187,3.568,4.864,5.236a2.884,2.884,0,1,0,4.067-4.089c-1.57-1.562-3.1-3.212-4.555-4.9" transform="translate(-153.819 -100.198)" fill="#b6492e"/>
    <path id="Caminho_318" data-name="Caminho 318" d="M398.569,270.548a2.884,2.884,0,0,0,1.474-5.365c-1.9-1.125-3.779-2.351-5.59-3.644a2.884,2.884,0,0,0-3.351,4.694c1.944,1.387,3.962,2.7,6,3.912a2.872,2.872,0,0,0,1.468.4" transform="translate(-165.023 -110.469)" fill="#b6492e"/>
    <path id="Caminho_319" data-name="Caminho 319" d="M702.579,238.379a2.889,2.889,0,0,0,.864-.133c2.181-.685,4.4-1.363,6.586-2.016a2.884,2.884,0,0,0-1.649-5.526c-2.215.661-4.457,1.347-6.664,2.04a2.884,2.884,0,0,0,.863,5.636" transform="translate(-296.147 -97.594)" fill="#b6492e"/>
    <path id="Caminho_320" data-name="Caminho 320" d="M737.167,228.533a2.887,2.887,0,0,0,.747-.1c2.2-.59,4.447-1.173,6.663-1.732a2.884,2.884,0,1,0-1.411-5.592c-2.242.566-4.511,1.155-6.743,1.753a2.884,2.884,0,0,0,.744,5.67" transform="translate(-310.787 -93.548)" fill="#b6492e"/>
    <path id="Caminho_321" data-name="Caminho 321" d="M668.451,249.657a2.871,2.871,0,0,0,.965-.167q3.248-1.153,6.506-2.276a2.884,2.884,0,1,0-1.876-5.454q-3.285,1.129-6.56,2.295a2.884,2.884,0,0,0,.965,5.6" transform="translate(-281.702 -102.258)" fill="#b6492e"/>
    <path id="Caminho_322" data-name="Caminho 322" d="M566.071,284.257a2.9,2.9,0,0,0,.717-.091c2.189-.561,4.461-1.175,6.753-1.825a2.884,2.884,0,0,0-1.575-5.548c-2.245.637-4.468,1.238-6.609,1.786a2.884,2.884,0,0,0,.713,5.678" transform="translate(-238.371 -117.106)" fill="#b6492e"/>
    <path id="Caminho_323" data-name="Caminho 323" d="M417.337,9.434a2.876,2.876,0,0,0,.961-.166,51.191,51.191,0,0,1,6.3-1.78,2.884,2.884,0,0,0-1.21-5.639,56.93,56.93,0,0,0-7.012,1.983,2.884,2.884,0,0,0,.961,5.6" transform="translate(-175.418 -0.755)" fill="#b6492e"/>
    <path id="Caminho_324" data-name="Caminho 324" d="M634.6,261.844a2.876,2.876,0,0,0,.98-.172q3.258-1.177,6.511-2.363a2.884,2.884,0,0,0-1.972-5.42q-3.249,1.182-6.5,2.359a2.884,2.884,0,0,0,.98,5.6" transform="translate(-267.373 -107.385)" fill="#b6492e"/>
    <path id="Caminho_325" data-name="Caminho 325" d="M402.419,121.424a2.882,2.882,0,0,0,3.7,1.724c2.193-.8,4.4-1.641,6.554-2.508a2.884,2.884,0,0,0-2.152-5.351c-2.1.843-4.24,1.663-6.373,2.439a2.885,2.885,0,0,0-1.724,3.7" transform="translate(-170.251 -48.708)" fill="#b6492e"/>
    <path id="Caminho_326" data-name="Caminho 326" d="M6.018,45.767a2.884,2.884,0,0,0,3.86-4.286C8.19,39.961,6.51,38.4,4.886,36.829a2.884,2.884,0,1,0-4,4.151c1.671,1.613,3.4,3.223,5.137,4.788" transform="translate(0 -15.246)" fill="#b6492e"/>
    <path id="Caminho_327" data-name="Caminho 327" d="M57.85,85.757c1.956,1.246,3.966,2.481,5.974,3.672a2.884,2.884,0,1,0,2.941-4.961c-1.955-1.16-3.913-2.362-5.817-3.576a2.884,2.884,0,1,0-3.1,4.865" transform="translate(-23.92 -34.047)" fill="#b6492e"/>
    <path id="Caminho_328" data-name="Caminho 328" d="M227.519,145.148c2.309.264,4.654.5,6.972.693.082.007.164.01.246.01a2.884,2.884,0,0,0,.239-5.758c-2.261-.191-4.55-.418-6.8-.676a2.884,2.884,0,0,0-.655,5.731" transform="translate(-95.216 -59)" fill="#b6492e"/>
    <path id="Caminho_329" data-name="Caminho 329" d="M89.328,103.752c2.066,1.055,4.183,2.095,6.291,3.09a2.884,2.884,0,0,0,2.462-5.216c-2.054-.97-4.117-1.983-6.131-3.011a2.884,2.884,0,1,0-2.622,5.137" transform="translate(-37.143 -41.605)" fill="#b6492e"/>
    <path id="Caminho_330" data-name="Caminho 330" d="M263.676,147.668c1.987.05,4,.076,5.98.076l1.026,0a2.884,2.884,0,0,0-.012-5.767h-.012l-1,0c-1.932,0-3.895-.025-5.834-.074a2.884,2.884,0,1,0-.146,5.766" transform="translate(-110.412 -60.06)" fill="#b6492e"/>
    <path id="Caminho_331" data-name="Caminho 331" d="M191.725,139.456c2.279.466,4.594.9,6.883,1.3a2.884,2.884,0,1,0,.989-5.682c-2.234-.389-4.493-.816-6.717-1.271a2.884,2.884,0,1,0-1.155,5.65" transform="translate(-80.172 -56.608)" fill="#b6492e"/>
    <path id="Caminho_332" data-name="Caminho 332" d="M28.249,64.8c1.832,1.438,3.713,2.864,5.591,4.24a2.884,2.884,0,0,0,3.408-4.653c-1.827-1.339-3.656-2.726-5.438-4.124A2.884,2.884,0,1,0,28.249,64.8" transform="translate(-11.49 -25.246)" fill="#b6492e"/>
    <path id="Caminho_333" data-name="Caminho 333" d="M156.572,130.637c2.227.665,4.495,1.306,6.742,1.9a2.884,2.884,0,0,0,1.486-5.573c-2.192-.584-4.405-1.209-6.578-1.858a2.884,2.884,0,0,0-1.649,5.526" transform="translate(-65.398 -52.902)" fill="#b6492e"/>
    <path id="Caminho_334" data-name="Caminho 334" d="M122.341,118.725c2.16.863,4.363,1.7,6.546,2.5a2.884,2.884,0,0,0,1.976-5.418c-2.129-.776-4.277-1.6-6.383-2.438a2.884,2.884,0,1,0-2.139,5.356" transform="translate(-51.013 -47.896)" fill="#b6492e"/>
    <path id="Caminho_335" data-name="Caminho 335" d="M367.953,132.249a2.88,2.88,0,0,0,3.51,2.078c2.256-.578,4.532-1.2,6.765-1.85a2.884,2.884,0,1,0-1.611-5.538c-2.174.633-4.39,1.238-6.585,1.8a2.883,2.883,0,0,0-2.078,3.509" transform="translate(-155.698 -53.678)" fill="#b6492e"/>
    <path id="Caminho_336" data-name="Caminho 336" d="M386.351,25.806a2.873,2.873,0,0,0,1.8-.629c1.742-1.389,3.555-2.715,5.389-3.939a2.884,2.884,0,1,0-3.2-4.8c-1.969,1.314-3.915,2.736-5.784,4.227a2.884,2.884,0,0,0,1.8,5.138" transform="translate(-162.303 -6.753)" fill="#b6492e"/>
    <path id="Caminho_337" data-name="Caminho 337" d="M299.729,146.569c.062,0,.125,0,.188-.006,2.325-.15,4.676-.337,6.987-.557a2.884,2.884,0,0,0-.545-5.742c-2.253.213-4.545.4-6.813.542a2.884,2.884,0,0,0,.183,5.762" transform="translate(-125.641 -59.362)" fill="#b6492e"/>
    <path id="Caminho_338" data-name="Caminho 338" d="M359.474,49.965a2.884,2.884,0,0,0,4.044-.53c1.359-1.769,2.8-3.5,4.282-5.142a2.884,2.884,0,0,0-4.282-3.864c-1.584,1.755-3.123,3.6-4.574,5.492a2.884,2.884,0,0,0,.53,4.044" transform="translate(-151.671 -16.709)" fill="#b6492e"/>
    <path id="Caminho_339" data-name="Caminho 339" d="M341.623,80.5a2.882,2.882,0,0,0,3.813-1.447c.912-2.029,1.915-4.046,2.98-6a2.884,2.884,0,1,0-5.062-2.764c-1.136,2.08-2.2,4.232-3.178,6.4a2.883,2.883,0,0,0,1.447,3.813" transform="translate(-143.872 -29.114)" fill="#b6492e"/>
    <path id="Caminho_340" data-name="Caminho 340" d="M326.9,146.611a2.884,2.884,0,0,0,2.874,2.682c.068,0,.136,0,.2-.007a2.885,2.885,0,0,0,2.676-3.078c-.069-.975-.119-1.954-.149-2.913-.013-.395-.022-.792-.029-1.19a2.919,2.919,0,0,0,.97.012c2.3-.362,4.624-.765,6.907-1.2a2.884,2.884,0,0,0-1.075-5.667c-2.224.422-4.488.814-6.729,1.167a2.874,2.874,0,0,0-1.406.639,2.87,2.87,0,0,0-1.5-.45h-.051a2.884,2.884,0,0,0-2.882,2.834c-.009.469-.013.938-.012,1.4,0,.874.014,1.76.043,2.634.032,1.031.086,2.084.159,3.131" transform="translate(-138.275 -57.224)" fill="#b6492e"/>
    <path id="Caminho_341" data-name="Caminho 341" d="M331.5,114.563a2.88,2.88,0,0,0,3.364-2.305c.405-2.172.908-4.364,1.494-6.517a2.884,2.884,0,0,0-5.566-1.513c-.626,2.3-1.163,4.647-1.6,6.971a2.884,2.884,0,0,0,2.305,3.364" transform="translate(-139.313 -43.214)" fill="#b6492e"/>
    <path id="Caminho_342" data-name="Caminho 342" d="M1028.315,209.958c11.119-7.424,28.3-13.571,41.921-16.716-12.374-6.494-27.436-16.8-36.306-26.8l5.064,22.774Z" transform="translate(-435.236 -70.445)" fill="#b6492e"/>
  </g>
</svg>
