<svg xmlns="http://www.w3.org/2000/svg" xmlns:xlink="http://www.w3.org/1999/xlink" width="312.535" height="212.248" viewBox="0 0 312.535 212.248">
  <defs>
    <clipPath id="clip-path">
      <rect id="Retângulo_68" data-name="Retângulo 68" width="305.137" height="87.323" fill="none"/>
    </clipPath>
  </defs>
  <g id="Seta02" transform="matrix(0.899, -0.438, 0.438, 0.899, 0, 133.763)">
    <g id="Grupo_85" data-name="Grupo 85" clip-path="url(#clip-path)">
      <path id="Caminho_343" data-name="Caminho 343" d="M43.244,188.92c-.063,0-.127,0-.191-.009-1.723-.152-3.482-.347-5.229-.582a2.147,2.147,0,1,1,.575-4.256c1.681.226,3.375.414,5.032.56a2.147,2.147,0,0,1-.186,4.286" transform="translate(244.273 -105.012)" fill="#b6492e"/>
      <path id="Caminho_344" data-name="Caminho 344" d="M113.158,172.106a2.155,2.155,0,0,1-.688-.113c-1.626-.548-3.284-1.135-4.928-1.745a2.148,2.148,0,1,1,1.5-4.025c1.6.6,3.218,1.167,4.8,1.7a2.147,2.147,0,0,1-.688,4.182" transform="translate(144.161 -94.761)" fill="#b6492e"/>
      <path id="Caminho_345" data-name="Caminho 345" d="M7.448,190.16c-1.738.111-3.513.178-5.272.2H2.15a2.147,2.147,0,0,1-.023-4.294c1.684-.019,3.381-.082,5.045-.189a2.147,2.147,0,1,1,.275,4.286" transform="translate(295.676 -106.048)" fill="#b6492e"/>
      <path id="Caminho_346" data-name="Caminho 346" d="M334.01,51.424a2.147,2.147,0,0,1-1.024-.26c-1.526-.827-3.048-1.635-4.525-2.4a2.148,2.148,0,1,1,1.986-3.81c1.5.779,3.044,1.6,4.592,2.437a2.147,2.147,0,0,1-1.028,4.035" transform="translate(-171.847 -25.509)" fill="#b6492e"/>
      <path id="Caminho_347" data-name="Caminho 347" d="M302.633,69a2.144,2.144,0,0,1-1.1-.3q-2.211-1.31-4.434-2.6a2.148,2.148,0,1,1,2.157-3.715q2.243,1.3,4.472,2.619a2.147,2.147,0,0,1-1.1,3.994" transform="translate(-127.017 -35.432)" fill="#b6492e"/>
      <path id="Caminho_348" data-name="Caminho 348" d="M204.028,119.225a2.154,2.154,0,0,1,2.948-.752q2.211,1.308,4.435,2.594a2.148,2.148,0,0,1-2.156,3.716q-2.243-1.3-4.473-2.617a2.145,2.145,0,0,1-.753-2.942" transform="translate(4.999 -67.424)" fill="#b6492e"/>
      <path id="Caminho_349" data-name="Caminho 349" d="M271.813,87.576a2.144,2.144,0,0,1-1.128-.32q-2.194-1.351-4.392-2.7a2.148,2.148,0,1,1,2.247-3.662q2.2,1.348,4.4,2.7a2.147,2.147,0,0,1-1.132,3.975" transform="translate(-82.96 -45.976)" fill="#b6492e"/>
      <path id="Caminho_350" data-name="Caminho 350" d="M366.256,35.535a2.143,2.143,0,0,1-.91-.2c-1.224-.572-2.459-1.135-3.671-1.673q-.49-.218-.982-.432a2.148,2.148,0,1,1,1.726-3.934q.5.22,1,.442c1.237.549,2.5,1.124,3.746,1.708a2.147,2.147,0,0,1-.913,4.092" transform="translate(-217.906 -16.61)" fill="#b6492e"/>
      <path id="Caminho_351" data-name="Caminho 351" d="M178.9,142.685a2.145,2.145,0,0,1-.986-.24c-1.506-.777-3.054-1.594-4.6-2.427a2.148,2.148,0,1,1,2.045-3.778c1.523.821,3.047,1.625,4.53,2.39a2.147,2.147,0,0,1-.989,4.055" transform="translate(50.001 -77.584)" fill="#b6492e"/>
      <path id="Caminho_352" data-name="Caminho 352" d="M78.668,182.511a2.162,2.162,0,0,1-.468-.052c-1.683-.373-3.4-.788-5.1-1.233a2.147,2.147,0,1,1,1.093-4.154c1.647.432,3.307.833,4.937,1.194a2.147,2.147,0,0,1-.464,4.244" transform="translate(193.558 -100.988)" fill="#b6492e"/>
      <path id="Caminho_353" data-name="Caminho 353" d="M628.324,64.348a2.15,2.15,0,0,1-3.513-2.48c1.023-1.443,2.093-2.863,3.18-4.22a2.15,2.15,0,0,1,3.359,2.683c-1.034,1.291-2.053,2.642-3.027,4.017" transform="translate(-595.342 -32.431)" fill="#b6492e"/>
      <path id="Caminho_354" data-name="Caminho 354" d="M602.926,38.262a2.149,2.149,0,0,1-2.976-3.1c1.3-1.245,2.644-2.433,3.986-3.531a2.149,2.149,0,1,1,2.727,3.322c-1.255,1.027-2.513,2.141-3.737,3.311" transform="translate(-560.158 -17.768)" fill="#b6492e"/>
      <path id="Caminho_355" data-name="Caminho 355" d="M576.235,16.7a42.091,42.091,0,0,0-4.438,2.09,2.148,2.148,0,1,1-2.055-3.773,46.443,46.443,0,0,1,4.894-2.3,2.148,2.148,0,1,1,1.6,3.987" transform="translate(-517.099 -7.167)" fill="#b6492e"/>
      <path id="Caminho_356" data-name="Caminho 356" d="M664.991,122.4c-.569,1.592-1.093,3.2-1.556,4.783a2.151,2.151,0,0,1-4.13-1.2c.486-1.662,1.036-3.351,1.633-5.022a2.151,2.151,0,0,1,4.052,1.443" transform="translate(-643.609 -68.196)" fill="#b6492e"/>
      <path id="Caminho_357" data-name="Caminho 357" d="M399.613,22.173a2.154,2.154,0,0,1-.743-.133c-1.594-.586-3.211-1.152-4.807-1.682a2.148,2.148,0,1,1,1.358-4.075c1.639.545,3.3,1.126,4.937,1.727a2.147,2.147,0,0,1-.744,4.163" transform="translate(-265.54 -9.228)" fill="#b6492e"/>
      <path id="Caminho_358" data-name="Caminho 358" d="M648.467,94.419a2.15,2.15,0,0,1-3.87-1.877c.765-1.572,1.584-3.145,2.434-4.677a2.15,2.15,0,0,1,3.764,2.081c-.813,1.464-1.6,2.969-2.328,4.472" transform="translate(-623.174 -49.5)" fill="#b6492e"/>
      <path id="Caminho_359" data-name="Caminho 359" d="M541.517,7.385c-1.657.287-3.315.627-4.929,1.009a2.147,2.147,0,1,1-.993-4.179c1.7-.4,3.442-.759,5.184-1.062a2.148,2.148,0,1,1,.737,4.231" transform="translate(-467.891 -1.781)" fill="#b6492e"/>
      <path id="Caminho_360" data-name="Caminho 360" d="M469.509,5.912a2.17,2.17,0,0,1-.291-.02c-1.684-.228-3.378-.419-5.037-.57a2.147,2.147,0,1,1,.389-4.277c1.721.156,3.479.355,5.225.591a2.147,2.147,0,0,1-.287,4.275" transform="translate(-365.393 -0.591)" fill="#b6492e"/>
      <path id="Caminho_361" data-name="Caminho 361" d="M234.947,100.507a2.154,2.154,0,0,1,2.961-.7q2.193,1.351,4.392,2.7a2.148,2.148,0,0,1-2.246,3.663q-2.2-1.348-4.4-2.7a2.145,2.145,0,0,1-.7-2.955" transform="translate(-39.139 -56.762)" fill="#b6492e"/>
      <path id="Caminho_362" data-name="Caminho 362" d="M434.1,12.077a2.161,2.161,0,0,1-.539-.069c-1.65-.425-3.314-.822-4.945-1.178a2.148,2.148,0,1,1,.92-4.2c1.682.368,3.4.776,5.1,1.214a2.147,2.147,0,0,1-.536,4.227" transform="translate(-314.798 -3.757)" fill="#b6492e"/>
      <path id="Caminho_363" data-name="Caminho 363" d="M505.442,4.295c-1.692.01-3.389.064-5.047.161-.043,0-.086,0-.128,0a2.147,2.147,0,0,1-.124-4.291c1.732-.1,3.506-.158,5.272-.169h.014a2.147,2.147,0,0,1,.013,4.295" transform="translate(-416.759)" fill="#b6492e"/>
      <path id="Caminho_364" data-name="Caminho 364" d="M142.756,152.371c1.561.723,3.128,1.428,4.661,2.094A2.148,2.148,0,1,1,145.7,158.4c-1.565-.679-3.165-1.4-4.756-2.136a2.148,2.148,0,1,1,1.812-3.9" transform="translate(96.322 -86.82)" fill="#b6492e"/>
      <path id="Caminho_365" data-name="Caminho 365" d="M665.871,134.837c-6.752,7.327-13.261,19.264-17.146,28.921-3.363-9.849-9.226-22.115-15.578-29.79l16.2,6.343Z" transform="translate(-633.147 -76.435)" fill="#b6492e"/>
    </g>
  </g>
</svg>
