<?xml version="1.0" encoding="UTF-8"?>
<svg id="_Ñëîé_1" data-name="Ñëîé 1" xmlns="http://www.w3.org/2000/svg" viewBox="0 0 80 80">
  <defs>
    <style>
      .cls-1 {
        fill: #fff;
      }

      .cls-2 {
        fill: #bd5334;
      }
    </style>
  </defs>
  <circle class="cls-2" cx="40" cy="40" r="34.57"/>
  <g>
    <path class="cls-1" d="M42.92,36.46s-.01,0-.02,0h-5.7s-.01,0-.02,0-.01,0-.02,0h-.93v31.05h7.63v-31.05h-.93s-.01,0-.02,0Z"/>
    <path class="cls-1" d="M38.65,28.91c-.23,0-.44-.11-.58-.3l-.17-.24v6.67h4.32v-6.13h-3.57Z"/>
    <path class="cls-1" d="M47.1,13.04h-8.09l-1.83,2.56c-.12.16-.3.27-.5.29-.2.02-.4-.04-.55-.18-1.14-1.02-2.6-1.59-4.11-1.59-.5,0-.99.06-1.47.18-.21.05-.44,0-.61-.13-.17-.13-.27-.34-.27-.56v-1.12h-7.28v15.53h7.28v-1.11c0-.22.1-.43.27-.56.17-.13.4-.18.61-.13.47.12.97.18,1.47.18,1.52,0,2.98-.56,4.11-1.59.15-.13.35-.2.55-.18.2.02.38.13.5.29l1.83,2.55h4.88l1.1-6.68c.02-.13.08-.25.17-.35l2.85-3.22c.19-.21.49-.29.76-.2,4.24,1.43,6.51,6.35,7.23,8.22l1.6-.63c-2.66-11.27-10.18-11.57-10.51-11.58Z"/>
  </g>
</svg>