<?xml version="1.0" encoding="UTF-8"?>
<svg id="Camada_1" data-name="Camada 1" xmlns="http://www.w3.org/2000/svg" xmlns:xlink="http://www.w3.org/1999/xlink" viewBox="0 0 1920 1080">
  <defs>
    <style>
      .cls-1 {
        opacity: .9;
      }

      .cls-2 {
        clip-path: url(#clippath-6);
      }

      .cls-3 {
        clip-path: url(#clippath-7);
      }

      .cls-4 {
        clip-path: url(#clippath-4);
      }

      .cls-5 {
        fill: none;
      }

      .cls-6 {
        clip-path: url(#clippath-1);
      }

      .cls-7 {
        fill: #b6492e;
      }

      .cls-8 {
        clip-path: url(#clippath-5);
      }

      .cls-9 {
        clip-path: url(#clippath-3);
      }

      .cls-10 {
        fill: #f4ede4;
      }

      .cls-11 {
        clip-path: url(#clippath-2);
      }

      .cls-12 {
        fill: url(#Gradiente_sem_nome_3);
      }

      .cls-13 {
        clip-path: url(#clippath);
      }
    </style>
    <clipPath id="clippath">
      <path class="cls-5" d="M537.34,644.76c0,5.2,4.22,9.42,9.42,9.42s9.42-4.22,9.42-9.42-4.22-9.42-9.42-9.42-9.42,4.22-9.42,9.42M613.4,613.92c0,5.08,4.12,9.21,9.21,9.21,5.08,0,9.21-4.12,9.21-9.21,0-5.08-4.12-9.21-9.21-9.21h0c-5.08,0-9.21,4.12-9.21,9.21M461.69,613.92c0,5.11,4.14,9.25,9.25,9.25,5.11,0,9.25-4.14,9.25-9.25,0-5.11-4.14-9.25-9.25-9.25s-9.25,4.14-9.25,9.25h0M540.86,600.38c0,3.31,2.68,5.99,5.99,5.99s5.99-2.68,5.99-5.99-2.68-5.99-5.99-5.99h0c-3.31,0-5.99,2.68-5.99,5.99M577.62,589.82c-7.1,3.42-14.58,6-22.28,7.69l.49,2.08c9.86-2,19.35-5.48,28.17-10.31l-1.08-1.94-5.3,2.49ZM509.81,589.12c8.69,4.83,18.05,8.34,27.77,10.43.24-.7.33-1.45.27-2.19-9.34-2.14-18.34-5.56-26.75-10.16-.61.5-1.06,1.17-1.3,1.92M495.34,584.11c0,3.5,2.84,6.34,6.34,6.34,3.5,0,6.34-2.84,6.34-6.34,0-3.5-2.84-6.34-6.34-6.34h0c-3.5,0-6.34,2.84-6.34,6.34M585.54,584.05c0,3.47,2.81,6.29,6.29,6.29s6.29-2.81,6.29-6.29c0-3.47-2.81-6.29-6.29-6.29h0c-3.47,0-6.29,2.81-6.29,6.28h0M594.2,574.88l2.3,1.09c4.35-8.22,7.42-17.05,9.12-26.18l-2.27-.34c-1.95,8.84-5.02,17.38-9.16,25.43M487.76,549.93c1.66,9.16,4.7,18.01,9,26.26l2.24-1.2-4.12-9.12c-1.97-5.38-3.59-10.88-4.85-16.47l-2.27.52ZM600.85,541.28c0,3.38,2.74,6.12,6.11,6.12,3.38,0,6.12-2.74,6.12-6.11,0-3.38-2.74-6.12-6.11-6.12h0c-3.38,0-6.12,2.74-6.12,6.11M480.18,541.29c0,3.43,2.78,6.22,6.22,6.22s6.22-2.78,6.21-6.22-2.78-6.21-6.22-6.21c-3.43,0-6.21,2.78-6.22,6.21h0M642.23,541.09c0,5.11,4.14,9.24,9.24,9.24,5.11,0,9.24-4.14,9.24-9.24,0-5.1-4.14-9.24-9.24-9.24-5.11,0-9.24,4.14-9.24,9.24h0M432.66,541.07c0,5.14,4.17,9.31,9.32,9.31s9.31-4.17,9.31-9.32c0-5.14-4.17-9.31-9.31-9.31s-9.31,4.17-9.31,9.31c0,0,0,0,0,0M517.08,521.12l4.58,4.92,3.83,4.21c3.03,3.24,5.82,6.7,8.35,10.34,2.5,3.48,3.66,7.74,3.29,12.01-.38,4-1.08,7.96-2.11,11.84-1.72,6.96-3.83,13.82-6.3,20.55,6.14-4.02,11.26-9.42,14.94-15.76l3.14-7.18c3.42,10,8.8,16.83,17.67,23.03-3.68-9.49-6.35-19.34-7.94-29.39-.65-3.56-.42-7.23.66-10.68.87-2.56,2.23-4.93,4-6.98l6.78-7.79c4.97-5.73,10.15-10.93,14.89-17.18l-12.72,7.2-12.39,6.32c-4.58,2.34-10,3.86-14.95,2.68-5.56-1.32-10.46-3.78-15.4-6.55l-17.28-9.69,6.96,8.12ZM496.95,508.16c-4.05,7.61-7.07,15.72-8.99,24.12l2.37.81c1.93-8.34,4.82-16.43,8.63-24.1-.48-.49-1.13-.79-1.82-.83-.07,0-.13,0-.2.01M594.15,508.93c3.94,7.65,6.94,15.74,8.95,24.1l2.44-.66c-2.04-8.55-5.17-16.8-9.29-24.55l-2.1,1.11ZM537.08,516.78c0,5.4,4.38,9.78,9.78,9.78s9.78-4.38,9.78-9.78c0-5.4-4.38-9.78-9.78-9.78h0c-5.4,0-9.78,4.38-9.78,9.78M495.53,500.31c0,3.26,2.64,5.91,5.91,5.91s5.91-2.64,5.91-5.91c0-3.26-2.64-5.91-5.91-5.91s-5.91,2.64-5.91,5.91M586.06,500.31c0,3.29,2.67,5.96,5.96,5.96s5.96-2.67,5.96-5.96-2.67-5.96-5.96-5.96-5.96,2.67-5.96,5.96M509.41,496.75l1.29,1.87c8.54-4.92,17.76-8.56,27.36-10.8l-.47-2.12c-9.87,2.32-19.36,6.04-28.18,11.05M555.34,487.76c9.35,2.34,18.94,5.7,27.43,10.88l1.19-1.8c-8.7-5.12-18.13-8.88-27.96-11.14l-.65,2.06ZM540.71,484.58c0,3.39,2.75,6.14,6.14,6.14s6.14-2.75,6.14-6.14-2.75-6.14-6.14-6.14c-3.39,0-6.14,2.75-6.14,6.14M614.93,468.44c0,4.93,3.99,8.92,8.92,8.92s8.92-3.99,8.92-8.92-3.99-8.92-8.92-8.92c-4.92,0-8.92,3.99-8.92,8.92h0M460.82,468.42c0,4.93,4,8.93,8.94,8.93,4.93,0,8.93-4,8.93-8.94,0-4.93-4-8.93-8.93-8.93-4.94,0-8.94,4-8.94,8.94h0M538.09,481.27c-6.24-2.13-12.66-3.71-19.18-4.73,5.85-6.48,12.3-12.38,19.27-17.62,6.71,5.09,10.33,5.44,17.1.24,7,4.72,13.44,11.07,19.15,17.49-6.47,1.01-12.85,2.52-19.08,4.5l.52,2.1c6.76-2.07,13.67-3.62,20.66-4.63,3.51,4.72,6.76,9.64,9.72,14.73l2.17-.83c-2.64-4.91-5.67-9.61-9.04-14.05,3.43-.36,6.89-.44,10.34-.23l11.59,1.02.6,3.7c.58,3.74,3.49,6.68,7.23,7.3l4.05.73c.49,5.26,1.19,10.39.88,15.64l-.41,6.9-5.95-4.62-7.8-5.08-1.25,1.92c5.1,3.29,9.94,6.95,14.5,10.95-.84,5.44-2.18,10.79-4.01,15.98l2.23.63c1.75-4.7,3.15-9.52,4.16-14.43l4.8,5.04,7.91,9.36c-2.43,2.37-4.42,5.16-5.85,8.24l6.14,8.54c-3.88,5.56-8.05,10.91-12.5,16.03-.87-5.72-2.3-11.34-4.25-16.79l-2.46.5c2.08,6.05,3.47,12.32,4.12,18.68-4.43,4.04-9.21,7.67-14.29,10.85l1.09,1.86c4.73-2.62,9.18-5.72,13.29-9.23.17,6.86-.48,13.72-1.93,20.42-2.92.19-5.81.62-8.06,2.55-2.77,2.39-3.62,6.04-3.11,9.84-7.04,1.09-14.16,1.56-21.27,1.41,3.5-4,6.6-8.33,9.28-12.92l-1.99-1.16c-3.23,4.94-6.92,9.56-11.01,13.81-6.66-.51-13.24-1.74-19.62-3.69l-.62,2.04c5.79,1.77,11.69,3.15,17.66,4.13l-8.23,7.33c-2.99,2.53-6.2,4.79-9.6,6.75-2.58-1.81-5.36-3.31-8.29-4.47l-8.26,4.28c-6.41-3.95-12.34-8.64-17.67-13.97,5.86-.93,11.66-2.22,17.36-3.88l-.37-2.14c-6.36,1.86-12.87,3.15-19.46,3.85-4.02-4.38-7.63-9.12-10.79-14.15l-2.21.93c2.55,4.78,5.66,8.77,9.28,13.41l-9.64-.33-12.13-1.1c.55-4.96-.97-9.65-5.9-11.46-1.67-.55-3.38-.94-5.12-1.16-.93-4.64-1.57-9.33-1.93-14.05l.03-6.09c4.16,3.35,8.54,6.41,13.11,9.17l1.2-2c-5.09-3.06-9.87-6.6-14.28-10.57.78-6.4,2.1-12.73,3.94-18.91l-2.29-.73c-1.8,5.53-3.23,11.17-4.29,16.89l-3.31-3.92c-3.24-3.9-6.26-7.97-9.06-12.2,2.33-2.51,4.39-5.25,6.16-8.17l-2.4-4-3.58-4.15,4.43-5.45,3.7-4.34,4.49-4.66c1.01,4.77,2.33,9.47,3.94,14.07l2.32-.43-1.42-4.77c-1.14-3.7-2.01-7.48-2.61-11.3,4.81-3.97,9.57-7.6,14.43-11.08l-1.47-1.68c-4.49,2.94-8.74,6.09-13.08,9.52l-.34-3.84c-.37-4.15-.35-8.32.05-12.46l.6-6.21c1.86-.18,3.69-.54,5.49-1.06,3.1-.99,5.38-3.65,5.89-6.86l.58-3.71c7.07-1.19,14.27-1.44,21.41-.75-3.13,4.44-5.99,9.06-8.56,13.84l1.88.93c2.91-5.15,6.19-10.08,9.82-14.74,7.02,1.01,13.96,2.57,20.74,4.65l.65-1.94ZM531.84,443.27c-7.93,1.16-15.68,3.33-23.05,6.46l3.03,6.11c6.44-2.5,13.16-4.22,20.01-5.15l2.97,5.09-4.76,4.47c-5.16,4.86-9.98,10.07-14.42,15.6l-8.69-.66-14.9-.79-1.4-6.16c5.57-3.95,11.41-7.51,17.46-10.68l-3.3-6.44c-6.45,3.42-12.63,7.34-18.47,11.73-.96.69-1.8,1.52-2.49,2.47l-.49,6.2c-.69,4.13-3.38,7.64-7.19,9.38-5.22,2.57-8.85.5-10.99,3.59-3.89,5.63-7.11,11.7-9.6,18.07l6.53,2.48c2.3-5.53,5.08-10.85,8.33-15.89l5.29,1.65c.1,7.34-.02,14.27,1.04,21.34l.51,3.41c-5.5,4.58-10.68,9.53-15.5,14.82l-4.86-1.94.39-5.48c.81-4.78,1.99-9.49,3.53-14.09l-6.27-2.57c-3.22,6.77-4.72,15.01-5.35,22.38,4.15,3.09,7.23,7.43,7.17,12.67.08,3.55-1.32,6.97-3.85,9.45l-3.17,2.88.08,3.62c.85,6.1,2.46,12.07,4.79,17.77l6.65-2.74c-2.07-5.61-3.45-11.45-4.09-17.4l4.97-2.65c4.41,6.24,9.51,11.96,15.2,17.07-.74,7.67-.58,15.4.49,23.03l-5.91,1.61c-4.1-5.68-6.77-11.35-9.49-17.79l-6.43,2.7c2.64,6.8,6.12,13.24,10.34,19.18.88,1.2,1.66,1.92,3.28,1.85,7.34-.29,13.83,3.7,15.3,11.01.33,2.36.32,4.76-.02,7.12l7.15,5.43c4.14,2.94,8.55,5.48,13.18,7.56l3.16-6.27c-5.95-2.69-11.52-6.16-16.57-10.3l1.17-4.49,13.08-.17,11.43-.77,8.36,8.23,9.68,8.48-2.68,5.42c-7-.52-13.86-2.2-20.31-4.98l-2.9,6.23c6.95,2.79,14.27,4.55,21.72,5.23,1.22.22,2.46.16,3.65-.18,2.27-3.91,6.33-6.45,10.84-6.78,4.67-.34,9.2,1.69,12.06,5.41.96,1.25,2.53,1.87,4.09,1.61,7.84-.57,15.55-2.33,22.86-5.22l-3.01-6.43c-6.56,2.57-13.44,4.26-20.44,5.05l-2.69-5.41,7.6-6.34,2.52-2.22,8.17-8.08c8.17.72,16.37,1.02,24.57.91.49,1.42.77,2.91.82,4.41-5.11,4.19-10.73,7.73-16.72,10.53l3.18,6.23c7.41-3.36,14.33-7.73,20.55-12.97-.33-2.35-.33-4.73-.01-7.09,1.06-5.7,5.31-10.2,11.16-10.79l5.46-.55c.75-.27,1.4-.77,1.85-1.42,4.34-5.97,7.82-12.51,10.34-19.45l-6.38-2.78c-2.6,6.27-5.38,12.32-9.65,17.88l-5.7-1.65c.93-7.62,1.08-15.32.46-22.97,3.65-3.09,6.99-6.52,9.98-10.25l5.37-6.58,4.9,2.67c-.66,5.89-2.02,11.68-4.05,17.24l6.4,2.63c1.89-4.42,3.29-9.02,4.19-13.74.59-2.56.86-5.18.8-7.81-4.31-2.93-7.21-7.42-7.06-12.78.06-3.2,1.3-6.26,3.47-8.61l3.82-3.92c-.69-7.53-2.46-14.93-5.24-21.96-2.29.62-4.51,1.46-6.64,2.51,2.23,6.16,3.67,12.59,4.29,19.11l-4.91,2.26-3.85-4.1-3.88-3.58-7.92-7.02c.78-5.48,1.23-11,1.33-16.53l.13-8.22,5.12-1.66c3.39,5.05,6.32,10.39,8.74,15.97l6.03-2.31c-2.6-6.78-6-13.23-10.12-19.21-.66-.94-2.64-1.01-3.69-1.02-8.32-.12-14.56-6.78-13.78-15.05.07-1.51-.63-2.95-1.86-3.82-6.09-4.78-12.64-8.94-19.55-12.42l-3.26,6.06c6.13,3.19,12.01,6.83,17.59,10.9l-1.08,5.68c-.08.44-1.23.7-1.64.71l-7.74.28-14.84,1.06c-5.76-7.13-12.16-13.72-19.12-19.68l3.02-5.51c6.93.89,13.73,2.66,20.22,5.26l3-6.32c-7.53-3.02-15.4-5.13-23.43-6.28-1.06-.09-2.11.27-2.89.99l-2.04,1.84c-5.68,5.31-14.6,5.01-19.91-.67-.18-.19-.35-.38-.51-.58-.89-1.04-2.17-1.65-3.54-1.67-.19,0-.39.01-.58.04M546.97,425.82c-5.18,0-9.38,4.2-9.38,9.38,0,5.18,4.2,9.38,9.38,9.38,5.18,0,9.38-4.2,9.38-9.38h0c0-5.18-4.2-9.38-9.38-9.38Z"/>
    </clipPath>
    <linearGradient id="Gradiente_sem_nome_3" data-name="Gradiente sem nome 3" x1="1.76" y1="1078.98" x2="1.79" y2="1078.13" gradientTransform="translate(-19.35 345498.49) scale(319.76 -319.81)" gradientUnits="userSpaceOnUse">
      <stop offset="0" stop-color="#d8c4a8"/>
      <stop offset=".22" stop-color="#8c6a4a"/>
      <stop offset=".56" stop-color="#6f7f5f"/>
      <stop offset="1" stop-color="#b6492e"/>
    </linearGradient>
    <clipPath id="clippath-1">
      <rect class="cls-5" x="700.78" y="434.06" width="786.56" height="211.88"/>
    </clipPath>
    <clipPath id="clippath-2">
      <rect class="cls-5" x="619.77" y="734.37" width="324.9" height="377"/>
    </clipPath>
    <clipPath id="clippath-3">
      <rect class="cls-5" x="925.87" y="-28.96" width="76.34" height="350" transform="translate(11.69 355.18) rotate(-21)"/>
    </clipPath>
    <clipPath id="clippath-4">
      <rect class="cls-5" x="351.79" y="-19.65" width="149.49" height="423.2" transform="translate(-40.98 206.21) rotate(-25.98)"/>
    </clipPath>
    <clipPath id="clippath-5">
      <rect class="cls-5" x="77.52" y="341.09" width="232.15" height="348" transform="translate(-347.63 415.74) rotate(-59)"/>
    </clipPath>
    <clipPath id="clippath-6">
      <rect class="cls-5" x="1635.63" y="551.81" width="125.49" height="438.06" transform="translate(898.77 2455.86) rotate(-89.03)"/>
    </clipPath>
    <clipPath id="clippath-7">
      <rect class="cls-5" x="1537.4" y="112.17" width="444.97" height="281.14" transform="translate(8.04 556.21) rotate(-18)"/>
    </clipPath>
  </defs>
  <g class="cls-1">
    <rect class="cls-10" x="365" y="352.5" width="1190" height="375" rx="24" ry="24"/>
  </g>
  <g>
    <g class="cls-13">
      <g id="Grupo_254" data-name="Grupo 254">
        <rect id="Retângulo_170" data-name="Retângulo 170" class="cls-12" x="386.81" y="380.09" width="319.76" height="319.81" transform="translate(-215.34 441.14) rotate(-37.26)"/>
      </g>
    </g>
    <g id="Grupo_258" data-name="Grupo 258">
      <path id="Caminho_2347" data-name="Caminho 2347" class="cls-7" d="M728.01,455.67l7.85,24.91h-15.89l8.04-24.91ZM728.3,440.85l-19.67,57.47-7.85,1.17v5.23h20.84v-5.23l-7.46-1.17,3.97-12.12h19.48l3.97,12.51-7.46.97v5.04h29.85v-5.04l-5.81-.68-19.87-58.15h-9.98Z"/>
      <g id="Grupo_257" data-name="Grupo 257">
        <g class="cls-6">
          <g id="Grupo_256" data-name="Grupo 256">
            <path id="Caminho_2348" data-name="Caminho 2348" class="cls-7" d="M793.33,492.7c0-3.39.1-5.91.1-9.69v-18.51h-6.3v-5.72l7.07-.87,4.94-13.66h9.88l-.19,13.66h10.18v6.59h-10.18v27.14c0,4.56,2.04,6.59,4.94,6.59,1.94-.08,3.79-.83,5.23-2.13l2.42,2.33c-2.62,4.94-7.17,7.75-14.25,7.75-8.72,0-13.86-3.88-13.86-13.47"/>
            <path id="Caminho_2349" data-name="Caminho 2349" class="cls-7" d="M823.18,481.84c0-16.09,10.47-25.49,24.13-25.49s20.84,8.72,20.84,20.45c.03,1.76-.16,3.52-.58,5.23h-28.11c.77,10.27,6.78,14.92,13.96,14.92,4.44.2,8.71-1.7,11.54-5.14l3.29,2.71c-4.17,7.66-10.08,11.63-20.26,11.63-14.54,0-24.81-8.63-24.81-24.33M839.47,477h8.24c4.85,0,6.01-1.74,6.01-6.11,0-6.69-2.81-9.5-6.4-9.5-3.97,0-7.46,3.78-7.85,15.6"/>
            <path id="Caminho_2350" data-name="Caminho 2350" class="cls-7" d="M873.58,500.16l5.23-1.16c.1-4.65.1-10.56.1-14.63v-5.62c0-5.33,0-7.37-.29-11.24l-5.91-.87v-3.78l19.09-6.49,1.74,1.07.58,6.98c4.56-5.33,9.4-8.04,15.12-8.04,6.59,0,10.95,2.81,12.79,8.63,5.43-6.49,10.08-8.63,15.7-8.63,9.79,0,14.05,5.62,14.05,17.25v10.76c0,4.17,0,10.08.1,14.73l4.94,1.06v4.56h-25v-4.56l4.75-1.16c.1-4.65.1-10.47.1-14.63v-9.4c0-7.27-1.55-9.21-5.53-9.21-2.81,0-5.52,1.26-8.14,3.49.1,1.16.19,2.52.19,3.88v11.24c0,4.26,0,10.08.1,14.83l4.55.97v4.56h-25v-4.56l5.02-1.16c.1-4.65.1-10.47.1-14.63v-9.3c0-6.78-1.26-9.31-5.52-9.31-2.81,0-5.62,1.45-8.04,3.49v15.11c0,4.07,0,10.08.1,14.83l4.55.97v4.56h-25.5v-4.56Z"/>
            <path id="Caminho_2351" data-name="Caminho 2351" class="cls-7" d="M960.13,522.16l5.43-1.16c.1-6.01.19-11.34.19-15.99v-26.26c0-5.33-.1-7.37-.29-11.24l-6.01-.87v-3.78l19-6.49,1.65.97.39,5.43c4.17-4.26,8.92-6.4,14.35-6.4,10.56,0,19,8.63,19,24.71s-9.79,25.1-20.74,25.1c-4.61.17-9.07-1.67-12.21-5.04v3.78c0,4.65.1,9.88.2,15.8l6.2,1.45v4.56h-27.14v-4.56ZM981.16,467.59v28.01c1.73,1.55,3.97,2.42,6.3,2.42,5.81,0,9.88-5.24,9.88-16.77s-3.88-16.48-9.5-16.48c-2.49.14-4.85,1.13-6.69,2.81"/>
            <path id="Caminho_2352" data-name="Caminho 2352" class="cls-7" d="M1020.02,481.16c0-14.92,10.76-24.81,24.52-24.81s24.71,9.6,24.71,24.81-9.69,25-24.71,25-24.52-10.18-24.52-25M1052.78,481.36c0-13.76-2.71-19.87-8.24-19.87s-8.14,6.1-8.14,19.87,2.71,19.77,8.14,19.77,8.24-6.01,8.24-19.77"/>
            <path id="Caminho_2353" data-name="Caminho 2353" class="cls-7" d="M1095.52,481.84c0-16.09,10.47-25.49,24.13-25.49s20.84,8.72,20.84,20.45c.03,1.76-.16,3.52-.58,5.23h-28.11c.78,10.27,6.78,14.92,13.96,14.92,4.44.2,8.71-1.7,11.53-5.14l3.3,2.71c-4.17,7.66-10.08,11.63-20.26,11.63-14.54,0-24.81-8.63-24.81-24.33M1111.8,477h8.24c4.85,0,6.01-1.74,6.01-6.11,0-6.69-2.81-9.5-6.4-9.5-3.97,0-7.46,3.78-7.85,15.6"/>
            <path id="Caminho_2354" data-name="Caminho 2354" class="cls-7" d="M1154.35,520.61c.87-4.46,3.59-6.69,7.56-6.69,3.39,0,5.62,1.84,7.56,5.62l1.26,2.42c.45-.88.74-1.83.87-2.81,1.07-4.65.29-13.76.29-24.52v-14.93c0-5.33-.1-8.33-.29-12.21l-5.91-.87v-3.78l20.16-6.49,1.65,1.07-.29,14.05v28.01c0,11.63-1.55,16.96-6.3,21.71-4.09,4.22-9.73,6.57-15.6,6.5-6.4,0-9.89-2.71-10.95-7.08M1171.02,441.81c0-4.55,3.68-7.75,8.24-7.75s8.24,3.2,8.24,7.75-3.68,7.66-8.24,7.66-8.24-3.2-8.24-7.66"/>
            <path id="Caminho_2355" data-name="Caminho 2355" class="cls-7" d="M1230.13,497.64c-4.17,5.43-9.4,8.53-15.6,8.53-8.33,0-13.95-4.65-13.76-17.45l.39-23.65-5.62-1.26v-4.07l19.77-2.81,1.55,1.07-.48,13.47v17.35c0,6.01,1.94,8.04,5.23,8.04,2.71,0,5.72-1.94,8.33-4.46l.38-27.42-5.33-1.16v-3.78l19.29-3.1,1.55,1.07-.29,13.47v27.72l5.04,1.06v4.56l-19.87.97-.58-8.14Z"/>
            <path id="Caminho_2356" data-name="Caminho 2356" class="cls-7" d="M1255.24,500.16l5.23-1.16c.1-4.65.1-10.56.1-14.63v-5.62c0-5.33-.1-7.37-.29-11.24l-5.91-.87v-3.78l19.09-6.49,1.74,1.06.58,6.98c5.04-5.91,9.79-8.04,15.41-8.04,8.43,0,14.05,5.52,14.05,16.77v11.24c0,4.26,0,10.08.1,14.83l4.85.97v4.56h-25.59v-4.56l5.14-1.16c.1-4.65.1-10.47.1-14.63v-10.18c0-6.2-1.65-8.43-5.43-8.43-2.42,0-5.43,1.26-8.34,3.49v15.12c0,4.07,0,10.08.1,14.83l4.55.97v4.56h-25.49v-4.56Z"/>
            <path id="Caminho_2357" data-name="Caminho 2357" class="cls-7" d="M1319.01,492.7c0-3.39.1-5.91.1-9.69v-18.51h-6.3v-5.72l7.07-.87,4.94-13.66h9.88l-.2,13.66h10.18v6.59h-10.17v27.14c0,4.56,2.04,6.59,4.95,6.59,1.94-.08,3.79-.83,5.23-2.13l2.42,2.33c-2.62,4.94-7.17,7.75-14.25,7.75-8.72,0-13.86-3.88-13.86-13.47"/>
            <path id="Caminho_2358" data-name="Caminho 2358" class="cls-7" d="M1348.86,481.16c0-14.92,10.76-24.81,24.52-24.81s24.71,9.6,24.71,24.81-9.69,25-24.71,25-24.52-10.18-24.52-25M1381.61,481.36c0-13.76-2.71-19.87-8.24-19.87s-8.14,6.1-8.14,19.87,2.71,19.77,8.14,19.77,8.24-6.01,8.24-19.77"/>
            <path id="Caminho_2359" data-name="Caminho 2359" class="cls-7" d="M1405.94,465.85c-.05-4.82,3.81-8.76,8.63-8.82,4.82-.05,8.76,3.81,8.82,8.63,0,.06,0,.12,0,.19-.05,4.82-4,8.68-8.82,8.63-4.74-.05-8.58-3.88-8.63-8.63M1405.94,497.54c-.05-4.82,3.81-8.76,8.63-8.82,4.82-.05,8.76,3.81,8.82,8.63,0,.06,0,.12,0,.19-.05,4.82-4,8.68-8.82,8.63-4.74-.05-8.58-3.88-8.63-8.63"/>
            <path id="Caminho_2360" data-name="Caminho 2360" d="M710.33,565.92h-3.2v-3.77l3.2-.22v-2.24c0-4.47,2.06-7.71,7.14-7.71,1.35,0,2.69.25,3.94.75l-1.05,3.64c-.73-.25-1.5-.39-2.28-.39-1.75,0-2.72,1.18-2.72,3.64v2.32h4.21v3.99h-4.21v17.53h-5.04v-17.53Z"/>
            <path id="Caminho_2361" data-name="Caminho 2361" d="M721.95,572.71c0-7.19,4.86-11.31,10.21-11.31s10.25,4.12,10.25,11.31-4.86,11.26-10.25,11.26-10.21-4.12-10.21-11.26M737.24,572.71c0-4.34-1.93-7.19-5.08-7.19s-5.04,2.85-5.04,7.19,1.89,7.14,5.04,7.14,5.08-2.85,5.08-7.14"/>
            <path id="Caminho_2362" data-name="Caminho 2362" d="M747.85,561.93h4.16l.35,3.81h.18c1.49-2.8,3.77-4.34,6.09-4.34.84-.04,1.68.11,2.45.44l-1.01,4.29c-.68-.19-1.39-.27-2.1-.26-1.71,0-3.77,1.18-5.08,4.43v13.15h-5.04v-21.52Z"/>
            <path id="Caminho_2363" data-name="Caminho 2363" d="M765.38,576.13v-10.21h-3.07v-3.77l3.33-.22.61-6.75h4.21v6.75h5.48v3.99h-5.48v10.21c0,2.5.97,3.77,3.02,3.77.77,0,1.53-.14,2.24-.44l.92,3.55c-1.4.58-2.91.88-4.43.88-5,0-6.84-3.11-6.84-7.76"/>
            <path id="Caminho_2364" data-name="Caminho 2364" d="M778.79,577.66c0-4.82,3.86-7.1,12.71-8.06-.09-2.19-1.05-4.03-3.94-4.03-2.16.12-4.25.82-6.05,2.02l-1.84-3.42c2.63-1.73,5.7-2.69,8.85-2.76,5.35,0,8.02,3.29,8.02,9.33v12.71h-4.16l-.35-2.37h-.18c-2.02,1.67-4.12,2.89-6.66,2.89-3.34.2-6.2-2.35-6.4-5.68-.01-.21-.01-.42,0-.63M791.49,577.66v-4.56c-5.87.7-7.8,2.02-7.8,4.21,0,1.84,1.31,2.54,3.07,2.54,1.81-.05,3.52-.84,4.73-2.19"/>
            <path id="Caminho_2365" data-name="Caminho 2365" d="M803.03,577.84v-25.33h5.04v25.59c0,1.27.57,1.67,1.14,1.67.25,0,.5-.02.74-.09l.66,3.77c-.85.32-1.76.47-2.67.44-3.59,0-4.91-2.28-4.91-6.05"/>
            <path id="Caminho_2366" data-name="Caminho 2366" d="M813.9,572.66c0-7.01,4.9-11.26,9.99-11.26,5.87,0,8.85,4.25,8.85,10.21,0,.88-.08,1.76-.26,2.63h-13.5c.57,3.94,3.24,5.7,6.22,5.7,1.77,0,3.51-.51,4.99-1.49l1.75,3.24c-2.17,1.48-4.73,2.28-7.36,2.28-6.05,0-10.69-4.12-10.69-11.31M819.07,570.39h9.2c0-3.07-1.4-5-4.3-5-2.1,0-4.29,1.18-4.91,5"/>
            <path id="Caminho_2367" data-name="Caminho 2367" d="M836.6,572.71c0-7.19,5.04-11.31,10.78-11.31,2.34-.07,4.61.8,6.31,2.41l-2.41,3.11c-.99-.91-2.29-1.41-3.64-1.4-3.42,0-5.87,2.85-5.87,7.19s2.37,7.14,5.78,7.14c1.62-.01,3.18-.62,4.38-1.71l2.06,3.11c-1.88,1.74-4.36,2.72-6.92,2.72-5.96,0-10.47-4.12-10.47-11.26"/>
            <path id="Caminho_2368" data-name="Caminho 2368" d="M856.19,572.66c0-7.01,4.91-11.26,9.99-11.26,5.87,0,8.85,4.25,8.85,10.21,0,.88-.08,1.76-.26,2.63h-13.5c.57,3.94,3.24,5.7,6.22,5.7,1.78,0,3.52-.51,5-1.49l1.75,3.24c-2.17,1.48-4.73,2.28-7.36,2.28-6.05,0-10.69-4.12-10.69-11.31M861.36,570.39h9.2c0-3.07-1.4-5-4.29-5-2.1,0-4.29,1.18-4.91,5"/>
            <path id="Caminho_2369" data-name="Caminho 2369" d="M880.29,561.93h4.16l.35,2.89h.18c1.93-1.89,4.12-3.42,7.05-3.42,4.6,0,6.62,3.11,6.62,8.54v13.5h-5.04v-12.84c0-3.55-1.01-4.86-3.38-4.86-1.88,0-3.11.92-4.91,2.67v15.03h-5.04v-21.52Z"/>
            <path id="Caminho_2370" data-name="Caminho 2370" d="M903.96,572.71c0-7.01,4.43-11.31,9.11-11.31,2.13,0,4.16.85,5.65,2.37l-.18-3.46v-7.8h5.04v30.94h-4.16l-.35-2.32h-.18c-1.58,1.7-3.77,2.72-6.09,2.85-5.39,0-8.85-4.16-8.85-11.26M918.55,577.4v-10.03c-1.18-1.14-2.75-1.78-4.38-1.8-2.76,0-5,2.58-5,7.1s1.75,7.14,4.87,7.14c1.8-.06,3.46-.95,4.51-2.41"/>
            <path id="Caminho_2371" data-name="Caminho 2371" d="M929.03,572.71c0-7.19,4.87-11.31,10.21-11.31s10.25,4.12,10.25,11.31-4.86,11.26-10.25,11.26-10.21-4.12-10.21-11.26M944.33,572.71c0-4.34-1.93-7.19-5.08-7.19s-5.04,2.85-5.04,7.19,1.88,7.14,5.04,7.14,5.08-2.85,5.08-7.14"/>
            <path id="Caminho_2372" data-name="Caminho 2372" d="M962.73,572.71c0-7.19,5.04-11.31,10.78-11.31,2.34-.07,4.61.8,6.31,2.41l-2.41,3.11c-.99-.91-2.29-1.41-3.64-1.4-3.42,0-5.87,2.85-5.87,7.19s2.37,7.14,5.79,7.14c1.62-.01,3.18-.62,4.38-1.71l2.06,3.11c-1.88,1.74-4.36,2.72-6.92,2.72-5.96,0-10.47-4.12-10.47-11.26"/>
            <path id="Caminho_2373" data-name="Caminho 2373" d="M984.6,575.42v-13.5h5.04v12.84c0,3.55,1.01,4.86,3.33,4.86,1.88,0,3.16-.88,4.78-2.98v-14.72h5.04v21.52h-4.12l-.39-3.15h-.13c-1.88,2.24-3.99,3.68-6.92,3.68-4.6,0-6.62-3.11-6.62-8.54"/>
            <path id="Caminho_2374" data-name="Caminho 2374" d="M1009.1,555.27c-.07-1.67,1.22-3.08,2.89-3.16,1.67-.07,3.08,1.22,3.16,2.89s-1.22,3.08-2.89,3.16c-.04,0-.09,0-.13,0-1.53.13-2.88-1-3.02-2.54-.01-.12-.01-.24,0-.35M1009.63,561.93h5.04v21.52h-5.04v-21.52Z"/>
            <path id="Caminho_2375" data-name="Caminho 2375" d="M1020.23,572.71c0-7.01,4.43-11.31,9.11-11.31,2.13,0,4.16.85,5.65,2.37l-.18-3.46v-7.8h5.04v30.94h-4.16l-.35-2.32h-.18c-1.58,1.7-3.77,2.72-6.09,2.85-5.39,0-8.85-4.16-8.85-11.26M1034.82,577.4v-10.03c-1.18-1.14-2.75-1.78-4.38-1.8-2.76,0-5,2.58-5,7.1s1.75,7.14,4.87,7.14c1.8-.06,3.46-.95,4.51-2.41"/>
            <path id="Caminho_2376" data-name="Caminho 2376" d="M1045.52,577.66c0-4.82,3.86-7.1,12.71-8.06-.09-2.19-1.05-4.03-3.94-4.03-2.16.12-4.25.82-6.05,2.02l-1.84-3.42c2.63-1.73,5.7-2.69,8.85-2.76,5.35,0,8.02,3.29,8.02,9.33v12.71h-4.16l-.35-2.37h-.18c-2.02,1.67-4.12,2.89-6.66,2.89-3.34.2-6.2-2.35-6.4-5.68-.01-.21-.01-.42,0-.63M1058.22,577.66v-4.56c-5.87.7-7.8,2.02-7.8,4.21,0,1.84,1.32,2.54,3.07,2.54,1.81-.05,3.52-.84,4.73-2.19"/>
            <path id="Caminho_2377" data-name="Caminho 2377" d="M1068.44,572.71c0-7.01,4.42-11.31,9.11-11.31,2.13,0,4.16.85,5.65,2.37l-.18-3.46v-7.8h5.04v30.94h-4.16l-.35-2.32h-.17c-1.58,1.7-3.77,2.72-6.09,2.85-5.39,0-8.85-4.16-8.85-11.26M1083.03,577.39v-10.03c-1.18-1.14-2.75-1.78-4.38-1.8-2.76,0-5,2.58-5,7.1s1.75,7.14,4.86,7.14c1.8-.06,3.46-.95,4.51-2.41"/>
            <path id="Caminho_2378" data-name="Caminho 2378" d="M1093.51,572.71c0-7.19,4.86-11.31,10.21-11.31s10.25,4.12,10.25,11.31-4.86,11.26-10.25,11.26-10.21-4.12-10.21-11.26M1108.8,572.71c0-4.34-1.93-7.19-5.08-7.19s-5.04,2.85-5.04,7.19,1.89,7.14,5.04,7.14,5.08-2.85,5.08-7.14"/>
            <path id="Caminho_2379" data-name="Caminho 2379" d="M1127.17,572.66c0-7.01,4.91-11.26,9.99-11.26,5.87,0,8.85,4.25,8.85,10.21,0,.88-.08,1.76-.26,2.63h-13.5c.57,3.94,3.24,5.7,6.22,5.7,1.77,0,3.51-.51,4.99-1.49l1.75,3.24c-2.17,1.48-4.73,2.28-7.36,2.28-6.05,0-10.69-4.12-10.69-11.31M1132.34,570.39h9.2c0-3.07-1.4-5-4.3-5-2.1,0-4.29,1.18-4.91,5"/>
            <path id="Caminho_2380" data-name="Caminho 2380" d="M1151.27,561.93h4.16l.35,2.94h.18c1.8-1.93,3.9-3.46,6.57-3.46,2.63-.2,5.07,1.38,5.96,3.86,2.06-2.19,4.21-3.86,6.92-3.86,4.56,0,6.66,3.11,6.66,8.54v13.5h-5.08v-12.84c0-3.55-1.05-4.86-3.29-4.86-1.36,0-2.85.88-4.51,2.67v15.03h-5.04v-12.84c0-3.55-1.05-4.86-3.33-4.86-1.32,0-2.85.88-4.51,2.67v15.03h-5.04v-21.52Z"/>
            <path id="Caminho_2381" data-name="Caminho 2381" d="M1197.86,561.93h4.16l.35,3.81h.18c1.49-2.8,3.77-4.34,6.09-4.34.84-.04,1.68.11,2.45.44l-1.01,4.29c-.68-.19-1.39-.27-2.1-.26-1.71,0-3.77,1.18-5.08,4.43v13.15h-5.04v-21.52Z"/>
            <path id="Caminho_2382" data-name="Caminho 2382" d="M1212.76,572.66c0-7.01,4.91-11.26,9.99-11.26,5.87,0,8.85,4.25,8.85,10.21,0,.88-.08,1.76-.26,2.63h-13.5c.57,3.94,3.24,5.7,6.22,5.7,1.78,0,3.52-.51,5-1.49l1.75,3.24c-2.17,1.48-4.73,2.28-7.36,2.28-6.05,0-10.69-4.12-10.69-11.31M1217.93,570.39h9.2c0-3.07-1.4-5-4.29-5-2.1,0-4.29,1.18-4.91,5"/>
            <path id="Caminho_2383" data-name="Caminho 2383" d="M1235.55,572.71c0-7.01,4.43-11.31,9.11-11.31,2.13,0,4.16.85,5.65,2.37l-.18-3.46v-7.8h5.04v30.94h-4.16l-.35-2.32h-.17c-1.58,1.7-3.77,2.72-6.09,2.85-5.39,0-8.85-4.16-8.85-11.26M1250.14,577.39v-10.03c-1.18-1.14-2.75-1.78-4.38-1.8-2.76,0-5,2.58-5,7.1s1.75,7.14,4.86,7.14c1.8-.06,3.46-.95,4.51-2.41"/>
            <path id="Caminho_2384" data-name="Caminho 2384" d="M1260.58,572.66c0-7.01,4.91-11.26,9.99-11.26,5.87,0,8.85,4.25,8.85,10.21,0,.88-.08,1.76-.26,2.63h-13.5c.57,3.94,3.24,5.7,6.22,5.7,1.78,0,3.52-.51,5-1.49l1.75,3.24c-2.17,1.48-4.73,2.28-7.36,2.28-6.05,0-10.69-4.12-10.69-11.31M1265.75,570.39h9.2c0-3.07-1.4-5-4.29-5-2.1,0-4.29,1.18-4.91,5"/>
            <path id="Caminho_2385" data-name="Caminho 2385" d="M1282.54,580.81l2.23-2.89c1.68,1.47,3.85,2.27,6.09,2.24,2.32,0,3.42-1.1,3.42-2.59,0-1.8-2.15-2.54-4.51-3.42-3.11-1.14-6-2.89-6-6.31,0-3.77,2.98-6.44,7.8-6.44,2.63-.02,5.17.9,7.19,2.59l-2.23,2.85c-1.39-1.04-3.08-1.61-4.82-1.62-2.19,0-3.2,1.05-3.2,2.37,0,1.58,1.58,2.24,4.29,3.16,3.33,1.14,6.27,2.8,6.27,6.57s-2.93,6.66-8.37,6.66c-3.02.01-5.93-1.12-8.15-3.16"/>
            <path id="Caminho_2386" data-name="Caminho 2386" d="M1311.77,572.66c0-7.01,4.91-11.26,9.99-11.26,5.87,0,8.85,4.25,8.85,10.21,0,.88-.08,1.76-.26,2.63h-13.5c.57,3.94,3.24,5.7,6.22,5.7,1.78,0,3.52-.51,5-1.49l1.75,3.24c-2.17,1.48-4.73,2.28-7.36,2.28-6.05,0-10.69-4.12-10.69-11.31M1316.94,570.38h9.2c0-3.07-1.4-5-4.29-5-2.1,0-4.29,1.18-4.91,5"/>
            <path id="Caminho_2387" data-name="Caminho 2387" d="M1343.76,572.71c0-7.01,4.42-11.31,9.11-11.31,2.13,0,4.16.85,5.65,2.37l-.18-3.46v-7.8h5.04v30.94h-4.16l-.35-2.32h-.17c-1.58,1.7-3.77,2.72-6.09,2.85-5.39,0-8.85-4.16-8.85-11.26M1358.35,577.39v-10.03c-1.18-1.14-2.75-1.78-4.38-1.8-2.76,0-5,2.58-5,7.1s1.75,7.14,4.86,7.14c1.8-.06,3.46-.95,4.51-2.41"/>
            <path id="Caminho_2388" data-name="Caminho 2388" d="M1369.71,555.27c-.07-1.67,1.22-3.08,2.89-3.16s3.08,1.22,3.16,2.89-1.22,3.08-2.89,3.16c-.04,0-.09,0-.14,0-1.53.13-2.88-1-3.02-2.54-.01-.12-.01-.24,0-.35M1370.23,561.93h5.04v21.52h-5.04v-21.52Z"/>
            <path id="Caminho_2389" data-name="Caminho 2389" d="M1382.15,561.93h4.17l.35,3.81h.18c1.49-2.8,3.77-4.34,6.09-4.34.84-.04,1.68.11,2.45.44l-1.01,4.29c-.68-.19-1.39-.27-2.1-.26-1.71,0-3.77,1.18-5.08,4.43v13.15h-5.04v-21.52Z"/>
            <path id="Caminho_2390" data-name="Caminho 2390" d="M1397.05,572.66c0-7.01,4.91-11.26,9.99-11.26,5.87,0,8.85,4.25,8.85,10.21,0,.88-.08,1.76-.26,2.63h-13.5c.57,3.94,3.24,5.7,6.22,5.7,1.78,0,3.52-.51,5-1.49l1.75,3.24c-2.17,1.48-4.73,2.28-7.36,2.28-6.05,0-10.69-4.12-10.69-11.31M1402.23,570.39h9.2c0-3.07-1.4-5-4.29-5-2.1,0-4.29,1.18-4.91,5"/>
            <path id="Caminho_2391" data-name="Caminho 2391" d="M1420.63,555.27c-.07-1.67,1.22-3.08,2.89-3.16s3.08,1.22,3.16,2.89-1.22,3.08-2.89,3.16c-.04,0-.09,0-.14,0-1.53.13-2.88-1-3.02-2.54-.01-.12-.01-.24,0-.35M1421.16,561.93h5.04v21.52h-5.04v-21.52Z"/>
            <path id="Caminho_2392" data-name="Caminho 2392" d="M1433.82,576.13v-10.21h-3.07v-3.77l3.33-.22.61-6.75h4.21v6.75h5.48v3.99h-5.48v10.21c0,2.5.97,3.77,3.02,3.77.77,0,1.53-.14,2.23-.44l.92,3.55c-1.4.58-2.91.88-4.43.88-5,0-6.84-3.11-6.84-7.76"/>
            <path id="Caminho_2393" data-name="Caminho 2393" d="M1447.23,572.71c0-7.19,4.86-11.31,10.21-11.31s10.25,4.12,10.25,11.31-4.86,11.26-10.25,11.26-10.21-4.12-10.21-11.26M1462.53,572.71c0-4.34-1.93-7.19-5.08-7.19s-5.04,2.85-5.04,7.19,1.89,7.14,5.04,7.14,5.08-2.85,5.08-7.14"/>
            <path id="Caminho_2394" data-name="Caminho 2394" d="M1470.82,580.81l2.23-2.89c1.68,1.47,3.85,2.27,6.09,2.24,2.32,0,3.42-1.1,3.42-2.59,0-1.8-2.15-2.54-4.51-3.42-3.11-1.14-6-2.89-6-6.31,0-3.77,2.98-6.44,7.8-6.44,2.63-.02,5.17.9,7.19,2.59l-2.23,2.85c-1.39-1.04-3.08-1.61-4.82-1.62-2.19,0-3.2,1.05-3.2,2.37,0,1.58,1.58,2.24,4.29,3.16,3.33,1.14,6.27,2.8,6.27,6.57s-2.93,6.66-8.37,6.66c-3.02.01-5.93-1.12-8.15-3.16"/>
            <path id="Caminho_2395" data-name="Caminho 2395" d="M709.85,614.74h2.98l.31,3.07h.13c2.02-2.02,4.21-3.59,7.14-3.59,4.47,0,6.49,2.89,6.49,8.33v13.5h-3.59v-13.02c0-3.99-1.23-5.7-4.03-5.7-2.19,0-3.68,1.14-5.83,3.29v15.42h-3.59v-21.29Z"/>
            <path id="Caminho_2396" data-name="Caminho 2396" d="M732.03,630.52c0-4.78,4.03-7.01,13.15-8.02-.04-2.67-.96-5.26-4.43-5.26-2.28.12-4.48.88-6.35,2.19l-1.4-2.46c2.46-1.71,5.37-2.67,8.37-2.76,5.17,0,7.4,3.46,7.4,8.76v13.06h-2.98l-.31-2.54h-.13c-2.1,1.71-4.38,3.07-7.06,3.07-3.55,0-6.27-2.19-6.27-6.05M745.17,630.82v-5.74c-7.19.83-9.6,2.45-9.6,5.21,0,2.37,1.66,3.29,3.73,3.29s3.81-.92,5.87-2.76"/>
            <path id="Caminho_2397" data-name="Caminho 2397" d="M752.67,633.49l1.67-2.1c1.76,1.56,4.05,2.41,6.4,2.37,2.8,0,4.21-1.49,4.21-3.33,0-2.19-2.41-3.11-4.82-3.99-3.2-1.14-6.27-2.67-6.27-6.18s2.72-6.05,7.36-6.05c2.42,0,4.76.86,6.62,2.41l-1.67,2.06c-1.43-1.08-3.17-1.66-4.95-1.66-2.67,0-3.9,1.45-3.9,3.07,0,1.93,1.88,2.72,4.51,3.64,3.33,1.18,6.57,2.63,6.57,6.49,0,3.46-2.76,6.35-7.8,6.35-2.94.05-5.79-1.05-7.93-3.07"/>
            <path id="Caminho_2398" data-name="Caminho 2398" d="M778.92,633.49l1.67-2.1c1.76,1.56,4.05,2.41,6.4,2.37,2.8,0,4.21-1.49,4.21-3.33,0-2.19-2.41-3.11-4.82-3.99-3.2-1.14-6.27-2.67-6.27-6.18s2.72-6.05,7.36-6.05c2.42,0,4.76.86,6.62,2.41l-1.66,2.06c-1.43-1.08-3.17-1.66-4.95-1.66-2.67,0-3.9,1.45-3.9,3.07,0,1.93,1.88,2.72,4.51,3.64,3.33,1.18,6.57,2.63,6.57,6.49,0,3.46-2.76,6.35-7.8,6.35-2.94.05-5.79-1.05-7.93-3.07"/>
            <path id="Caminho_2399" data-name="Caminho 2399" d="M798.6,607.99c.04-1.33,1.15-2.38,2.48-2.34,1.28.04,2.3,1.06,2.34,2.34-.04,1.33-1.15,2.38-2.48,2.34-1.28-.04-2.3-1.06-2.34-2.34M799.21,614.74h3.59v21.3h-3.59v-21.3Z"/>
            <path id="Caminho_2400" data-name="Caminho 2400" d="M810.17,629.33v-11.65h-3.15v-2.72l3.33-.22.44-6.83h3.02v6.83h5.74v2.94h-5.75v11.74c0,2.59.83,4.08,3.29,4.08.83,0,1.66-.17,2.41-.53l.75,2.54c-1.24.61-2.61.92-3.99.92-4.56,0-6.09-2.85-6.09-7.1"/>
            <path id="Caminho_2401" data-name="Caminho 2401" d="M823.63,628.24v-13.5h3.64v13.02c0,3.99,1.18,5.7,3.99,5.7,2.19,0,3.72-1.1,5.74-3.59v-15.12h3.59v21.3h-2.98l-.31-3.33h-.13c-1.97,2.32-4.07,3.85-7.01,3.85-4.51,0-6.53-2.89-6.53-8.33"/>
            <path id="Caminho_2402" data-name="Caminho 2402" d="M845.98,630.52c0-4.78,4.03-7.01,13.15-8.02-.04-2.67-.96-5.26-4.43-5.26-2.28.12-4.48.88-6.35,2.19l-1.4-2.46c2.46-1.71,5.37-2.67,8.37-2.76,5.17,0,7.4,3.46,7.4,8.76v13.06h-2.98l-.31-2.54h-.13c-2.1,1.71-4.38,3.07-7.06,3.07-3.55,0-6.27-2.19-6.27-6.05M859.12,630.82v-5.74c-7.19.83-9.6,2.45-9.6,5.21,0,2.37,1.67,3.29,3.72,3.29s3.81-.92,5.87-2.76"/>
            <path id="Caminho_2403" data-name="Caminho 2403" d="M872.89,644.19c3.68-.26,4.78-.92,4.78-2.19,0-1.14-.88-1.75-3.37-2.1l1.67-3.42c-4.95-.66-8.54-4.6-8.54-11.04,0-7.14,4.78-11.22,10.25-11.22,2.33-.07,4.59.84,6.22,2.5l-1.8,2.19c-1.15-1.11-2.69-1.73-4.29-1.71-3.81,0-6.66,3.33-6.66,8.24s2.67,8.15,6.62,8.15c1.85-.03,3.61-.75,4.95-2.02l1.58,2.19c-1.61,1.6-3.74,2.58-6,2.76l-1.01,2.32c2.02.48,3.2,1.32,3.2,3.11,0,2.54-2.58,3.77-7.23,3.99l-.35-1.75Z"/>
            <path id="Caminho_2404" data-name="Caminho 2404" d="M886.03,625.43c0-7.14,4.65-11.22,9.86-11.22s9.86,4.08,9.86,11.22-4.65,11.13-9.86,11.13-9.86-4.07-9.86-11.13M892.78,607.07c-1.32,0-1.93,1.4-2.06,3.46l-2.41-.13c.13-3.42,1.4-5.96,4.43-5.96s4.25,3.68,6.31,3.68c1.27,0,1.88-1.45,2.02-3.46l2.41.18c-.13,3.38-1.4,5.92-4.43,5.92s-4.25-3.68-6.27-3.68M902.03,625.43c0-4.91-2.45-8.24-6.13-8.24s-6.13,3.33-6.13,8.24,2.5,8.15,6.13,8.15,6.13-3.29,6.13-8.15"/>
            <path id="Caminho_2405" data-name="Caminho 2405" d="M909.31,625.39c0-6.92,4.73-11.17,9.64-11.17,5.48,0,8.46,3.94,8.46,9.99,0,.72-.05,1.44-.18,2.15h-14.24c.35,4.78,3.42,7.27,7.01,7.27,1.89,0,3.74-.56,5.3-1.62l1.32,2.37c-2.07,1.44-4.53,2.2-7.05,2.19-5.74,0-10.25-4.12-10.25-11.18M913.07,623.51h11.09c0-4.12-1.88-6.35-5.17-6.35-2.63,0-5.35,1.8-5.92,6.35"/>
            <path id="Caminho_2406" data-name="Caminho 2406" d="M929.86,633.49l1.66-2.1c1.76,1.56,4.05,2.41,6.4,2.37,2.8,0,4.21-1.49,4.21-3.33,0-2.19-2.41-3.11-4.82-3.99-3.2-1.14-6.27-2.67-6.27-6.18s2.72-6.05,7.36-6.05c2.42,0,4.76.86,6.62,2.41l-1.66,2.06c-1.43-1.08-3.17-1.66-4.95-1.66-2.67,0-3.9,1.45-3.9,3.07,0,1.93,1.88,2.72,4.51,3.64,3.33,1.18,6.57,2.63,6.57,6.49,0,3.46-2.76,6.35-7.8,6.35-2.94.05-5.79-1.05-7.93-3.07"/>
            <path id="Caminho_2407" data-name="Caminho 2407" d="M956.95,625.43c0-6.93,4.38-11.22,9.24-11.22,2.46,0,4.08.92,5.96,2.46l-.17-3.64v-8.19h3.64v31.2h-2.98l-.31-2.5h-.13c-1.68,1.8-3.99,2.88-6.44,3.02-5.35,0-8.81-4.03-8.81-11.13M971.98,630.6v-11.13c-1.36-1.4-3.22-2.2-5.17-2.24-3.42,0-6.13,3.29-6.13,8.15s2.15,8.15,5.87,8.15c1.97,0,3.68-.96,5.43-2.94"/>
            <path id="Caminho_2408" data-name="Caminho 2408" d="M980.74,625.39c0-6.92,4.73-11.17,9.64-11.17,5.48,0,8.46,3.94,8.46,9.99,0,.72-.05,1.44-.18,2.15h-14.24c.35,4.78,3.42,7.27,7.01,7.27,1.89,0,3.74-.56,5.3-1.62l1.32,2.37c-2.07,1.44-4.53,2.2-7.05,2.19-5.74,0-10.25-4.12-10.25-11.18M984.51,623.51h11.09c0-4.12-1.88-6.35-5.17-6.35-2.63,0-5.35,1.8-5.92,6.35"/>
            <path id="Caminho_2409" data-name="Caminho 2409" d="M1010.41,625.43c0-7.14,4.78-11.22,10.25-11.22,2.33-.07,4.58.84,6.22,2.5l-1.8,2.19c-1.15-1.11-2.7-1.73-4.3-1.71-3.81,0-6.66,3.33-6.66,8.24s2.67,8.15,6.62,8.15c1.85-.02,3.62-.75,4.96-2.02l1.58,2.19c-1.82,1.8-4.28,2.8-6.84,2.8-5.7,0-10.03-4.07-10.03-11.13"/>
            <path id="Caminho_2410" data-name="Caminho 2410" d="M1031.54,614.74h2.98l.31,3.86h.13c1.4-2.67,3.59-4.38,6.05-4.38.78-.02,1.56.13,2.28.44l-.79,3.07c-.64-.19-1.31-.28-1.97-.26-1.8,0-3.94,1.32-5.39,4.91v13.67h-3.59v-21.3Z"/>
            <path id="Caminho_2411" data-name="Caminho 2411" d="M1045.69,607.99c.04-1.33,1.15-2.38,2.48-2.34,1.28.04,2.3,1.06,2.34,2.34-.04,1.33-1.15,2.38-2.48,2.34-1.28-.04-2.3-1.06-2.34-2.34M1046.31,614.74h3.59v21.3h-3.59v-21.3Z"/>
            <path id="Caminho_2412" data-name="Caminho 2412" d="M1054.28,633.49l1.66-2.1c1.76,1.56,4.05,2.41,6.4,2.37,2.8,0,4.21-1.49,4.21-3.33,0-2.19-2.41-3.11-4.82-3.99-3.2-1.14-6.27-2.67-6.27-6.18s2.72-6.05,7.36-6.05c2.42,0,4.76.86,6.62,2.41l-1.67,2.06c-1.43-1.08-3.16-1.66-4.95-1.66-2.67,0-3.9,1.45-3.9,3.07,0,1.93,1.88,2.72,4.51,3.64,3.33,1.18,6.57,2.63,6.57,6.49,0,3.46-2.76,6.35-7.8,6.35-2.94.05-5.79-1.05-7.93-3.07"/>
            <path id="Caminho_2413" data-name="Caminho 2413" d="M1072.95,625.39c0-6.92,4.73-11.17,9.64-11.17,5.48,0,8.46,3.94,8.46,9.99,0,.72-.05,1.44-.17,2.15h-14.24c.35,4.78,3.42,7.27,7.01,7.27,1.89,0,3.74-.56,5.3-1.62l1.32,2.37c-2.07,1.44-4.53,2.2-7.05,2.19-5.74,0-10.25-4.12-10.25-11.18M1076.72,623.51h11.09c0-4.12-1.88-6.35-5.17-6.35-2.63,0-5.35,1.8-5.92,6.35"/>
            <path id="Caminho_2414" data-name="Caminho 2414" d="M1102.58,625.39c0-6.92,4.73-11.17,9.64-11.17,5.48,0,8.46,3.94,8.46,9.99,0,.72-.05,1.44-.17,2.15h-14.24c.35,4.78,3.42,7.27,7.01,7.27,1.89,0,3.74-.56,5.3-1.62l1.32,2.37c-2.07,1.44-4.53,2.2-7.05,2.19-5.74,0-10.25-4.12-10.25-11.18M1106.35,623.51h11.08c0-4.12-1.88-6.35-5.17-6.35-2.63,0-5.35,1.8-5.92,6.35"/>
            <path id="Caminho_2415" data-name="Caminho 2415" d="M1125.5,614.74h2.98l.31,3.07h.13c1.84-2.02,4.08-3.59,6.62-3.59,2.68-.23,5.15,1.48,5.87,4.08,2.23-2.41,4.43-4.08,7.01-4.08,4.38,0,6.49,2.89,6.49,8.33v13.5h-3.59v-13.02c0-3.99-1.27-5.7-3.94-5.7-1.67,0-3.38,1.1-5.35,3.29v15.42h-3.59v-13.01c0-3.99-1.27-5.7-3.99-5.7-1.58,0-3.38,1.1-5.35,3.29v15.42h-3.59v-21.29Z"/>
            <path id="Caminho_2416" data-name="Caminho 2416" d="M1167.36,633.49l1.67-2.1c1.76,1.56,4.05,2.41,6.4,2.37,2.8,0,4.21-1.49,4.21-3.33,0-2.19-2.41-3.11-4.82-3.99-3.2-1.14-6.27-2.67-6.27-6.18s2.72-6.05,7.36-6.05c2.42,0,4.76.86,6.62,2.41l-1.67,2.06c-1.43-1.08-3.16-1.66-4.95-1.66-2.67,0-3.9,1.45-3.9,3.07,0,1.93,1.88,2.72,4.51,3.64,3.33,1.18,6.57,2.63,6.57,6.49,0,3.46-2.76,6.35-7.8,6.35-2.94.05-5.79-1.05-7.93-3.07"/>
            <path id="Caminho_2417" data-name="Caminho 2417" d="M1186.29,630.52c0-4.78,4.03-7.01,13.15-8.02-.04-2.67-.96-5.26-4.43-5.26-2.28.12-4.48.88-6.35,2.19l-1.4-2.46c2.46-1.71,5.37-2.67,8.37-2.76,5.17,0,7.4,3.46,7.4,8.76v13.06h-2.98l-.31-2.54h-.13c-2.1,1.71-4.38,3.07-7.06,3.07-3.55,0-6.27-2.19-6.27-6.05M1199.44,630.82v-5.74c-7.19.83-9.6,2.45-9.6,5.21,0,2.37,1.67,3.29,3.73,3.29s3.81-.92,5.87-2.76"/>
            <path id="Caminho_2418" data-name="Caminho 2418" d="M1208.99,628.24v-13.5h3.64v13.01c0,3.99,1.18,5.7,3.99,5.7,2.19,0,3.73-1.1,5.74-3.59v-15.12h3.59v21.3h-2.98l-.31-3.33h-.13c-1.97,2.32-4.08,3.86-7.01,3.86-4.51,0-6.53-2.89-6.53-8.33M1219.86,603.83h3.94l.22.39-6.92,6.84h-2.89l5.65-7.23Z"/>
            <path id="Caminho_2419" data-name="Caminho 2419" d="M1231.17,625.43c0-6.93,4.38-11.22,9.24-11.22,2.45,0,4.08.92,5.96,2.46l-.17-3.64v-8.19h3.64v31.2h-2.98l-.31-2.5h-.13c-1.68,1.8-3.99,2.88-6.44,3.02-5.35,0-8.81-4.03-8.81-11.13M1246.2,630.6v-11.13c-1.36-1.4-3.22-2.2-5.17-2.24-3.42,0-6.14,3.29-6.14,8.15s2.15,8.15,5.87,8.15c1.97,0,3.68-.96,5.43-2.94"/>
            <path id="Caminho_2420" data-name="Caminho 2420" d="M1254.97,625.39c0-6.92,4.73-11.17,9.64-11.17,5.48,0,8.46,3.94,8.46,9.99,0,.72-.05,1.44-.17,2.15h-14.24c.35,4.78,3.42,7.27,7.01,7.27,1.89,0,3.74-.56,5.3-1.62l1.32,2.37c-2.07,1.44-4.53,2.2-7.05,2.19-5.74,0-10.25-4.12-10.25-11.18M1258.74,623.51h11.09c0-4.12-1.88-6.35-5.17-6.35-2.63,0-5.35,1.8-5.92,6.35"/>
            <path id="Caminho_2421" data-name="Caminho 2421" d="M1286.21,614.74h2.98l.31,3.07h.13c1.84-2.02,4.08-3.59,6.62-3.59,2.68-.23,5.15,1.48,5.87,4.08,2.23-2.41,4.43-4.08,7.01-4.08,4.38,0,6.49,2.89,6.49,8.33v13.5h-3.59v-13.02c0-3.99-1.27-5.7-3.94-5.7-1.67,0-3.38,1.1-5.35,3.29v15.42h-3.59v-13.01c0-3.99-1.27-5.7-3.99-5.7-1.58,0-3.38,1.1-5.35,3.29v15.42h-3.59v-21.29Z"/>
            <path id="Caminho_2422" data-name="Caminho 2422" d="M1320.49,625.39c0-6.92,4.73-11.17,9.64-11.17,5.48,0,8.46,3.94,8.46,9.99,0,.72-.05,1.44-.17,2.15h-14.24c.35,4.78,3.42,7.27,7.01,7.27,1.89,0,3.74-.56,5.3-1.62l1.32,2.37c-2.07,1.44-4.53,2.2-7.05,2.19-5.74,0-10.25-4.12-10.25-11.18M1324.26,623.51h11.09c0-4.12-1.88-6.35-5.17-6.35-2.63,0-5.35,1.8-5.92,6.35"/>
            <path id="Caminho_2423" data-name="Caminho 2423" d="M1343.41,614.74h2.98l.31,3.07h.13c2.02-2.02,4.21-3.59,7.14-3.59,4.47,0,6.48,2.89,6.48,8.33v13.5h-3.59v-13.02c0-3.99-1.23-5.7-4.03-5.7-2.19,0-3.68,1.14-5.83,3.29v15.42h-3.59v-21.29Z"/>
            <path id="Caminho_2424" data-name="Caminho 2424" d="M1367.56,629.33v-11.65h-3.16v-2.72l3.33-.22.44-6.83h3.02v6.83h5.74v2.94h-5.74v11.74c0,2.59.83,4.08,3.29,4.08.83,0,1.66-.17,2.41-.53l.75,2.54c-1.24.61-2.61.92-3.99.92-4.56,0-6.09-2.85-6.09-7.1"/>
            <path id="Caminho_2425" data-name="Caminho 2425" d="M1379.04,630.52c0-4.78,4.03-7.01,13.15-8.02-.04-2.67-.96-5.26-4.43-5.26-2.28.12-4.48.88-6.35,2.19l-1.4-2.46c2.46-1.71,5.37-2.67,8.37-2.76,5.17,0,7.4,3.46,7.4,8.76v13.06h-2.98l-.31-2.54h-.13c-2.11,1.71-4.39,3.07-7.06,3.07-3.55,0-6.27-2.19-6.27-6.05M1392.19,630.82v-5.74c-7.19.83-9.6,2.45-9.6,5.21,0,2.37,1.67,3.29,3.73,3.29s3.81-.92,5.87-2.76"/>
            <path id="Caminho_2426" data-name="Caminho 2426" d="M1402.05,631.66v-26.82h3.59v27.08c0,1.14.48,1.53,1.05,1.53.25,0,.5-.02.74-.09l.48,2.72c-.65.26-1.36.38-2.06.35-2.72,0-3.81-1.71-3.81-4.78"/>
          </g>
        </g>
      </g>
    </g>
  </g>
  <g id="Grupo_288" data-name="Grupo 288">
    <g id="Seta07">
      <g class="cls-11">
        <g id="Grupo_95" data-name="Grupo 95">
          <path id="Caminho_470" data-name="Caminho 470" class="cls-7" d="M876.63,913.01c1.66-.11,2.91-1.55,2.8-3.21-.17-2.53-.5-5.06-.99-7.55-.3-1.64-1.87-2.72-3.51-2.42-1.64.3-2.72,1.87-2.42,3.51,0,.03.01.05.02.08.44,2.25.74,4.52.89,6.8.12,1.66,1.55,2.91,3.21,2.8"/>
          <path id="Caminho_471" data-name="Caminho 471" class="cls-7" d="M942.88,993.11c.47-2.45.85-4.93,1.14-7.36.2-1.65-.99-3.15-2.64-3.35-.12-.01-.24-.02-.36-.02-1.53,0-2.81,1.15-2.99,2.66-.27,2.29-.63,4.63-1.07,6.94-.32,1.63.74,3.22,2.37,3.54,1.63.32,3.22-.74,3.54-2.37,0-.01,0-.02,0-.03"/>
          <path id="Caminho_472" data-name="Caminho 472" class="cls-7" d="M886.32,1076.96c1.34-.99,1.63-2.87.64-4.22-.99-1.34-2.87-1.63-4.22-.64,0,0,0,0,0,0-1.88,1.39-3.83,2.78-5.81,4.13-1.35.97-1.66,2.86-.69,4.21.94,1.31,2.74,1.65,4.09.77,2.03-1.39,4.05-2.82,5.99-4.26"/>
          <path id="Caminho_473" data-name="Caminho 473" class="cls-7" d="M937.22,1003.68c-1.58-.53-3.28.32-3.81,1.9,0,0,0,0,0,.01-.73,2.21-1.55,4.44-2.42,6.62-.62,1.54.13,3.3,1.67,3.92,1.54.62,3.3-.13,3.92-1.67.92-2.3,1.78-4.65,2.55-6.97.52-1.58-.33-3.29-1.91-3.81"/>
          <path id="Caminho_474" data-name="Caminho 474" class="cls-7" d="M897.79,1067.76c1.86-1.62,3.69-3.29,5.45-4.96,1.21-1.15,1.26-3.05.11-4.26-1.15-1.21-3.05-1.26-4.26-.11-1.69,1.61-3.46,3.22-5.25,4.78-1.26,1.09-1.39,3-.3,4.25,1.09,1.26,3,1.39,4.25.3h0"/>
          <path id="Caminho_475" data-name="Caminho 475" class="cls-7" d="M833.76,965.27c-2.23.16-4.46.12-6.68-.12-.11-.01-.22-.02-.32-.02-1.67,0-3.01,1.35-3.01,3.02,0,1.54,1.16,2.83,2.7,3,2.58.28,5.17.33,7.76.14,1.66-.13,2.9-1.58,2.77-3.24-.13-1.65-1.56-2.89-3.21-2.78"/>
          <path id="Caminho_476" data-name="Caminho 476" class="cls-7" d="M814.11,961.57c-2.06-.93-4.05-2.02-5.94-3.25-1.4-.91-3.26-.51-4.17.89s-.51,3.26.89,4.17c2.15,1.4,4.41,2.63,6.74,3.68,1.52.68,3.3,0,3.99-1.51s0-3.3-1.51-3.99h0"/>
          <path id="Caminho_477" data-name="Caminho 477" class="cls-7" d="M808.23,893.25c-1.4.9-1.8,2.77-.9,4.17.9,1.4,2.77,1.8,4.17.89,1.93-1.25,3.93-2.39,5.99-3.42,1.49-.75,2.1-2.56,1.35-4.05s-2.56-2.1-4.05-1.35h0c-2.26,1.13-4.45,2.38-6.57,3.75"/>
          <path id="Caminho_478" data-name="Caminho 478" class="cls-7" d="M818.69,846.35c1.55.6,3.12,1.25,4.65,1.93,1.52.67,3.3-.01,3.98-1.54.67-1.52-.01-3.3-1.54-3.98-1.62-.72-3.28-1.4-4.92-2.04-.65-.25-1.31-.5-1.97-.74-1.57-.55-3.29.27-3.85,1.84-.54,1.54.24,3.24,1.77,3.82.63.23,1.25.47,1.87.71"/>
          <path id="Caminho_480" data-name="Caminho 480" class="cls-7" d="M649.52,783.54c1.49-.74,2.1-2.55,1.36-4.04-1.03-2.08-1.97-4.22-2.8-6.38-.6-1.55-2.35-2.32-3.9-1.72-1.55.6-2.32,2.35-1.72,3.9h0c.9,2.32,1.91,4.63,3.02,6.88.74,1.49,2.54,2.1,4.03,1.37,0,0,0,0,0,0"/>
          <path id="Caminho_481" data-name="Caminho 481" class="cls-7" d="M797.71,953.56c1.31-1.03,1.53-2.93.5-4.23-1.38-1.74-2.58-3.61-3.61-5.58-.73-1.49-2.54-2.11-4.03-1.38-1.49.73-2.11,2.54-1.38,4.03.02.04.04.07.06.11,1.2,2.31,2.61,4.51,4.23,6.55,1.03,1.31,2.92,1.53,4.22.51,0,0,0,0,0,0"/>
          <path id="Caminho_482" data-name="Caminho 482" class="cls-7" d="M662.39,800.95c1.22-1.13,1.3-3.04.18-4.26-1.56-1.7-3.04-3.48-4.42-5.33-1-1.33-2.89-1.6-4.22-.6-1.33,1-1.6,2.89-.6,4.22h0c1.5,2.01,3.11,3.95,4.81,5.8,1.12,1.22,3.03,1.31,4.25.18,0,0,0,0,0,0"/>
          <path id="Caminho_483" data-name="Caminho 483" class="cls-7" d="M866.8,952.62c1.55-2.02,2.97-4.13,4.24-6.34.85-1.43.39-3.28-1.04-4.13-1.43-.85-3.28-.39-4.13,1.04-.01.02-.03.05-.04.07-1.14,1.97-2.41,3.87-3.8,5.68-1.04,1.3-.83,3.2.47,4.24s3.2.83,4.24-.47c.02-.03.04-.05.06-.08"/>
          <path id="Caminho_485" data-name="Caminho 485" class="cls-7" d="M854.05,957.78c-.62,0-1.23.19-1.74.55-1.83,1.3-3.77,2.45-5.79,3.43-1.5.73-2.12,2.53-1.4,4.03.73,1.5,2.53,2.12,4.03,1.4,2.32-1.13,4.54-2.44,6.64-3.93,1.36-.96,1.68-2.84.72-4.2-.57-.8-1.48-1.27-2.46-1.27"/>
          <path id="Caminho_486" data-name="Caminho 486" class="cls-7" d="M839.72,885.15c-.26-1.64-1.8-2.76-3.44-2.5,0,0,0,0-.01,0-2.31.37-4.63.86-6.89,1.43-.16.04-.31.08-.47.12-1.61.43-2.56,2.09-2.12,3.7.43,1.59,2.06,2.55,3.66,2.13l.4-.1c2.09-.53,4.24-.97,6.38-1.32,1.64-.27,2.76-1.81,2.49-3.46,0,0,0,0,0,0"/>
          <path id="Caminho_487" data-name="Caminho 487" class="cls-7" d="M876.97,932.32c.71-2.43,1.27-4.9,1.69-7.39.28-1.64-.83-3.2-2.47-3.48-.17-.03-.34-.04-.51-.04-1.47,0-2.72,1.06-2.97,2.51-.38,2.26-.9,4.51-1.54,6.71-.49,1.59.4,3.28,1.99,3.77s3.28-.4,3.77-1.99c0-.03.02-.06.03-.09"/>
          <path id="Caminho_488" data-name="Caminho 488" class="cls-7" d="M841.6,858.73c1.36.97,3.24.65,4.21-.7.96-1.35.66-3.22-.68-4.19-1.99-1.43-4.07-2.83-6.19-4.14-1.42-.86-3.28-.41-4.14,1.01-.85,1.41-.42,3.24.97,4.12,2,1.24,3.96,2.55,5.84,3.9"/>
          <path id="Caminho_490" data-name="Caminho 490" class="cls-7" d="M910.58,904.95c-1.67,0-3.02,1.35-3.02,3.02,0,.88.38,1.72,1.05,2.29,1.77,1.52,3.51,3.12,5.15,4.76,1.2,1.16,3.1,1.13,4.26-.07,1.14-1.18,1.13-3.04-.01-4.21-1.75-1.74-3.59-3.44-5.48-5.06-.54-.47-1.24-.73-1.96-.73"/>
          <path id="Caminho_491" data-name="Caminho 491" class="cls-7" d="M753.72,834.06l2.51.26c1.56.16,3.12.32,4.68.48,1.66.16,3.13-1.06,3.29-2.71.16-1.64-1.03-3.1-2.67-3.29-1.56-.16-3.13-.32-4.69-.48l-2.51-.26c-.1-.01-.21-.02-.31-.02-1.67,0-3.01,1.36-3.01,3.03,0,1.54,1.17,2.83,2.71,2.99"/>
          <path id="Caminho_492" data-name="Caminho 492" class="cls-7" d="M775.21,836.41c2.53.32,4.85.64,7.1.97,1.65.22,3.17-.94,3.39-2.59.22-1.62-.9-3.11-2.51-3.37-2.29-.34-4.66-.66-7.23-.99-.13-.02-.25-.02-.38-.02-1.67,0-3.01,1.36-3,3.03,0,1.51,1.13,2.78,2.63,2.98"/>
          <path id="Caminho_493" data-name="Caminho 493" class="cls-7" d="M785.25,930.4c0,.31,0,.63.01.94.02,1.66,1.38,3,3.05,2.98,1.66-.02,3-1.38,2.98-3.05,0-.03,0-.07,0-.1,0-.26-.01-.52-.01-.77,0-.95.05-1.89.15-2.84.1-.97.24-1.95.43-2.92.32-1.63-.74-3.22-2.38-3.54,0,0,0,0,0,0-.19-.04-.39-.06-.58-.06-1.44,0-2.68,1.02-2.95,2.44-.23,1.15-.4,2.31-.52,3.47-.12,1.15-.17,2.3-.17,3.45"/>
          <path id="Caminho_494" data-name="Caminho 494" class="cls-7" d="M689.3,821.07c2.24.9,4.58,1.76,6.95,2.56,1.58.52,3.29-.35,3.8-1.93.51-1.56-.33-3.25-1.88-3.79-2.26-.76-4.49-1.58-6.62-2.44-1.55-.62-3.3.13-3.92,1.68-.62,1.55.13,3.3,1.68,3.92"/>
          <path id="Caminho_495" data-name="Caminho 495" class="cls-7" d="M792.74,913.3c1.39.91,3.26.52,4.17-.87,0,0,0,0,0,0,1.24-1.88,2.62-3.67,4.14-5.33,1.13-1.22,1.06-3.13-.16-4.26-1.22-1.13-3.13-1.06-4.26.16-.01.01-.02.03-.04.04-1.73,1.9-3.31,3.94-4.72,6.09-.91,1.39-.52,3.26.88,4.17"/>
          <path id="Caminho_496" data-name="Caminho 496" class="cls-7" d="M890.03,894.33c-.78,1.47-.23,3.3,1.24,4.08,2.06,1.1,4.1,2.29,6.06,3.53,1.43.85,3.28.37,4.13-1.06.82-1.38.41-3.15-.92-4.04-2.09-1.32-4.26-2.58-6.44-3.74-1.47-.78-3.29-.23-4.07,1.24,0,0,0,0,0,0"/>
          <path id="Caminho_497" data-name="Caminho 497" class="cls-7" d="M732.05,831.57c2.3.32,4.67.62,7.23.93,1.65.2,3.15-.98,3.35-2.64s-.98-3.15-2.64-3.35c-2.52-.3-4.85-.6-7.12-.91-.14-.02-.28-.03-.42-.03-1.67.01-3,1.38-2.99,3.04.01,1.49,1.11,2.74,2.58,2.96"/>
          <path id="Caminho_498" data-name="Caminho 498" class="cls-7" d="M922.42,1035.26c1.41.87,3.27.44,4.14-.98,0,0,0,0,0,0,1.3-2.1,2.54-4.26,3.71-6.41.79-1.46.25-3.29-1.21-4.09s-3.29-.25-4.09,1.21c-1.11,2.05-2.3,4.11-3.54,6.12-.87,1.42-.43,3.27.98,4.15"/>
          <path id="Caminho_499" data-name="Caminho 499" class="cls-7" d="M669.58,810.66c2.03,1.38,4.16,2.71,6.33,3.95,1.45.83,3.29.32,4.11-1.12s.32-3.29-1.12-4.11h0c-2.04-1.17-4.03-2.41-5.93-3.7-1.38-.94-3.25-.58-4.19.8-.94,1.38-.58,3.25.8,4.19h0"/>
          <path id="Caminho_500" data-name="Caminho 500" class="cls-7" d="M913.45,1052.15c1.61-1.86,3.19-3.78,4.69-5.72,1.02-1.31.78-3.21-.53-4.23-1.31-1.02-3.21-.78-4.23.53-1.44,1.85-2.95,3.69-4.49,5.47-1.1,1.25-.99,3.15.26,4.26,1.25,1.1,3.15.99,4.26-.26.01-.02.03-.03.04-.05"/>
          <path id="Caminho_501" data-name="Caminho 501" class="cls-7" d="M796.37,839.86c2.37.5,4.7,1.04,6.92,1.61,1.62.39,3.25-.6,3.64-2.22.39-1.59-.57-3.21-2.16-3.63-2.3-.59-4.71-1.15-7.16-1.67-1.64-.3-3.21.78-3.52,2.42-.29,1.58.71,3.11,2.27,3.48"/>
          <path id="Caminho_502" data-name="Caminho 502" class="cls-7" d="M867.73,879.64c-1.67,0-3.01,1.36-3.01,3.02,0,.53.14,1.05.41,1.5,1.16,2,2.21,4.06,3.16,6.16.68,1.52,2.47,2.2,3.98,1.51.39-.18.75-.44,1.03-.76,1.73.5,3.46,1.06,5.16,1.67,1.58.53,3.29-.31,3.82-1.89.52-1.54-.28-3.23-1.8-3.79-2.34-.83-4.74-1.59-7.12-2.23-.35-.1-.71-.13-1.07-.09-.61-1.21-1.26-2.41-1.95-3.59-.54-.93-1.53-1.51-2.61-1.51"/>
          <path id="Caminho_503" data-name="Caminho 503" class="cls-7" d="M851.1,887.64c2.3.04,4.64.19,6.96.43,1.66.17,3.14-1.03,3.31-2.69.17-1.66-1.03-3.14-2.69-3.31-2.49-.26-5-.42-7.47-.46h-.06c-1.67.01-3.01,1.37-3,3.03,0,1.63,1.31,2.96,2.94,3"/>
          <path id="Caminho_504" data-name="Caminho 504" class="cls-7" d="M857.07,872.84c1.06,1.28,2.96,1.46,4.24.4,1.28-1.06,1.46-2.96.4-4.24-.02-.03-.05-.06-.07-.09-1.6-1.86-3.32-3.7-5.11-5.47-1.19-1.17-3.1-1.15-4.26.04-1.17,1.19-1.15,3.1.04,4.26h0c1.67,1.65,3.27,3.36,4.76,5.1"/>
          <path id="Caminho_505" data-name="Caminho 505" class="cls-7" d="M710.44,827.64c2.3.54,4.72,1.06,7.18,1.54,1.64.3,3.21-.78,3.51-2.42.3-1.61-.75-3.17-2.35-3.5-2.39-.47-4.73-.97-6.96-1.5-1.62-.38-3.24.63-3.62,2.25s.63,3.24,2.25,3.62"/>
          <path id="Caminho_506" data-name="Caminho 506" class="cls-7" d="M926.8,931.4c.87,1.42,2.73,1.86,4.15.98,1.42-.87,1.86-2.73.98-4.15-1.3-2.1-2.7-4.19-4.18-6.2-.99-1.34-2.87-1.63-4.21-.64-1.34.99-1.63,2.87-.64,4.21h0c1.38,1.88,2.7,3.83,3.91,5.8"/>
          <path id="Caminho_507" data-name="Caminho 507" class="cls-7" d="M940.78,960.73c-1.65.19-2.84,1.68-2.65,3.34,0,0,0,0,0,0,.26,2.3.43,4.64.51,6.98.06,1.66,1.45,2.97,3.11,2.91,1.66-.06,2.97-1.45,2.91-3.11-.08-2.49-.27-5-.55-7.46-.19-1.65-1.68-2.84-3.33-2.66,0,0,0,0,0,0"/>
          <path id="Caminho_508" data-name="Caminho 508" class="cls-7" d="M933.08,943.85c.86,2.16,1.64,4.37,2.29,6.57.48,1.59,2.16,2.5,3.75,2.02s2.5-2.16,2.02-3.75h0c-.71-2.37-1.54-4.76-2.47-7.09-.6-1.55-2.34-2.33-3.9-1.73-1.55.6-2.33,2.34-1.73,3.9,0,.02.02.05.03.07"/>
          <path id="Caminho_509" data-name="Caminho 509" class="cls-7" d="M665.62,775.6c-9.19-10.53-17.86-27.53-22.95-41.23-5.07,13.71-13.73,30.71-22.9,41.26l22.92-8.31,22.93,8.29Z"/>
        </g>
      </g>
    </g>
    <g id="Seta05">
      <g class="cls-9">
        <g id="Grupo_91" data-name="Grupo 91">
          <path id="Caminho_416" data-name="Caminho 416" class="cls-7" d="M874.07,8.34l.13-.05c1.64-.71,2.39-2.61,1.68-4.25-1.03-2.37-2.04-4.74-3.05-7.1-.74-1.62-2.65-2.34-4.28-1.6-1.56.71-2.3,2.52-1.67,4.12,1.01,2.38,2.03,4.76,3.06,7.15.69,1.59,2.5,2.35,4.12,1.73"/>
          <path id="Caminho_417" data-name="Caminho 417" class="cls-7" d="M915.1,91.72c1.57-.84,2.16-2.8,1.32-4.37,0,0,0,0,0,0-1.22-2.27-2.43-4.54-3.63-6.81-.83-1.58-2.79-2.18-4.36-1.34s-2.18,2.79-1.34,4.36c1.21,2.28,2.42,4.56,3.65,6.85.77,1.43,2.48,2.07,4,1.49.13-.05.25-.11.37-.17"/>
          <path id="Caminho_418" data-name="Caminho 418" class="cls-7" d="M921.92,110.82c.78,1.4,2.47,2.01,3.97,1.44.15-.06.29-.12.42-.2,1.56-.87,2.11-2.84,1.24-4.39,0,0,0,0,0,0-1.26-2.25-2.51-4.5-3.75-6.75-.86-1.56-2.83-2.13-4.39-1.27-1.56.86-2.13,2.83-1.27,4.39h0c1.25,2.26,2.5,4.52,3.77,6.78"/>
          <path id="Caminho_419" data-name="Caminho 419" class="cls-7" d="M933.47,131.05c.9,1.54,2.87,2.06,4.42,1.17,1.54-.9,2.06-2.87,1.17-4.42-1.3-2.23-2.59-4.46-3.87-6.69-.89-1.55-2.86-2.08-4.41-1.19-1.55.89-2.08,2.86-1.19,4.41h0c1.29,2.24,2.58,4.48,3.89,6.72"/>
          <path id="Caminho_420" data-name="Caminho 420" class="cls-7" d="M893.54,50.56c.09-.03.18-.07.26-.11,1.6-.78,2.27-2.71,1.49-4.32,0,0,0,0,0,0-1.13-2.32-2.25-4.64-3.36-6.96-.8-1.59-2.74-2.24-4.33-1.44-1.55.78-2.21,2.65-1.49,4.23,1.12,2.33,2.25,4.66,3.38,7,.73,1.5,2.49,2.2,4.06,1.6"/>
          <path id="Caminho_421" data-name="Caminho 421" class="cls-7" d="M897.83,58.55c-1.59.8-2.23,2.74-1.43,4.34,1.16,2.3,2.33,4.6,3.51,6.91.75,1.47,2.49,2.13,4.03,1.54.11-.04.22-.09.32-.14,1.59-.81,2.21-2.76,1.4-4.35-1.17-2.29-2.34-4.58-3.49-6.87-.8-1.59-2.74-2.23-4.33-1.43,0,0,0,0,0,0"/>
          <path id="Caminho_422" data-name="Caminho 422" class="cls-7" d="M883.77,29.47c1.62-.75,2.33-2.67,1.58-4.29,0,0,0,0,0,0-1.08-2.35-2.15-4.69-3.21-7.03-.73-1.62-2.65-2.35-4.27-1.61-1.62.73-2.35,2.65-1.61,4.27h0c1.06,2.35,2.14,4.71,3.23,7.07.71,1.54,2.5,2.27,4.09,1.66.07-.03.13-.05.2-.08"/>
          <path id="Caminho_423" data-name="Caminho 423" class="cls-7" d="M1018.65,260.98c1.54,2.09,3.08,4.18,4.62,6.25,1.08,1.42,3.11,1.68,4.53.6,1.39-1.06,1.68-3.03.66-4.45-1.53-2.06-3.06-4.14-4.6-6.22-1.03-1.46-3.04-1.81-4.5-.78-1.46,1.03-1.81,3.04-.78,4.5.02.03.05.07.07.1"/>
          <path id="Caminho_424" data-name="Caminho 424" class="cls-7" d="M942.47,140c-1.53.91-2.03,2.89-1.12,4.43,0,0,0,0,0,0,1.33,2.22,2.66,4.44,4,6.66.92,1.53,2.91,2.02,4.43,1.09,1.53-.92,2.02-2.91,1.09-4.43-1.33-2.21-2.66-4.42-3.98-6.63-.91-1.53-2.89-2.03-4.43-1.12,0,0,0,0,0,0"/>
          <path id="Caminho_425" data-name="Caminho 425" class="cls-7" d="M984,200.03c-1.04-1.45-3.06-1.78-4.51-.74-1.38.99-1.76,2.87-.87,4.31,1.44,2.16,2.88,4.32,4.32,6.47.99,1.48,3,1.88,4.48.88s1.88-3,.88-4.48h0c-1.44-2.14-2.87-4.29-4.3-6.45"/>
          <path id="Caminho_426" data-name="Caminho 426" class="cls-7" d="M991.66,222.94c1.47,2.14,2.95,4.28,4.42,6.41,1.03,1.46,3.04,1.81,4.5.78,1.44-1.02,1.8-3,.81-4.46-1.47-2.12-2.94-4.25-4.4-6.38-1.02-1.46-3.04-1.81-4.5-.79-1.44,1.01-1.81,2.98-.83,4.44"/>
          <path id="Caminho_427" data-name="Caminho 427" class="cls-7" d="M954.5,159.9c-1.52.94-1.98,2.93-1.05,4.44,0,0,0,0,0,0,1.36,2.2,2.73,4.4,4.11,6.6.92,1.53,2.9,2.02,4.43,1.1s2.02-2.9,1.1-4.43c-.02-.03-.04-.06-.06-.1-1.37-2.19-2.73-4.38-4.09-6.57-.94-1.52-2.93-1.98-4.44-1.05"/>
          <path id="Caminho_428" data-name="Caminho 428" class="cls-7" d="M966.85,179.61c-1.5.96-1.94,2.96-.98,4.46,1.4,2.18,2.8,4.36,4.21,6.54.94,1.51,2.93,1.98,4.45,1.03,1.51-.94,1.98-2.93,1.03-4.45-.02-.03-.04-.07-.06-.1-1.4-2.16-2.8-4.33-4.19-6.51-.96-1.5-2.96-1.94-4.46-.98,0,0,0,0,0,0"/>
          <path id="Caminho_429" data-name="Caminho 429" class="cls-7" d="M1005.78,237.58c-1.45,1.03-1.8,3.05-.76,4.5,1.5,2.12,3.01,4.22,4.51,6.32,1.06,1.43,3.08,1.74,4.52.68,1.41-1.04,1.73-3.01.73-4.45-1.5-2.09-3-4.19-4.49-6.29-1.03-1.45-3.05-1.8-4.5-.76"/>
          <path id="Caminho_430" data-name="Caminho 430" class="cls-7" d="M1044.7,249.67l-14.02,22.04-24.88,7.98c14.68,2.92,33.16,11.66,46.43,19.94-4.66-14.94-8.43-35.02-7.53-49.96"/>
        </g>
      </g>
    </g>
    <g id="Seta02">
      <g class="cls-4">
        <g id="Grupo_85" data-name="Grupo 85">
          <path id="Caminho_343" data-name="Caminho 343" class="cls-7" d="M282.63,53.87c.04.08.08.16.13.23,1.28,2.03,2.65,4.08,4.08,6.08.96,1.35,3.12,1.57,4.84.49s2.33-3.04,1.36-4.4c-1.37-1.93-2.69-3.9-3.92-5.85-.88-1.4-3.01-1.71-4.77-.69-1.66.96-2.38,2.76-1.71,4.14"/>
          <path id="Caminho_344" data-name="Caminho 344" class="cls-7" d="M311.07,86.6c.14.29.35.56.59.77,1.83,1.62,3.74,3.24,5.68,4.84,1.58,1.06,3.68.85,5.02-.49,1.46-1.35,1.58-3.32.26-4.4-1.89-1.55-3.75-3.14-5.54-4.71-1.54-1.1-3.64-.95-5.01.36-1.12.84-1.53,2.33-1.01,3.64"/>
          <path id="Caminho_345" data-name="Caminho 345" class="cls-7" d="M272.83,34.56c.89,2.25,1.86,4.51,2.9,6.72l.02.03c.71,1.47,2.75,1.96,4.57,1.09s2.75-2.79,2.05-4.28c-.99-2.11-1.93-4.28-2.77-6.43-.61-1.54-2.61-2.13-4.47-1.34-1.87.79-2.89,2.68-2.29,4.21"/>
          <path id="Caminho_346" data-name="Caminho 346" class="cls-7" d="M448.03,166.67c.23.45.58.83,1.02,1.08,2.2,1.28,4.37,2.57,6.45,3.84,1.71.86,3.78.43,5.01-1.03,1.28-1.47,1.12-3.4-.36-4.3-2.11-1.29-4.31-2.6-6.54-3.9-1.72-.83-3.79-.38-5.01,1.1-.82.86-1.04,2.11-.58,3.2"/>
          <path id="Caminho_347" data-name="Caminho 347" class="cls-7" d="M428.06,155.64c.24.49.64.89,1.13,1.14,2.24,1.18,4.47,2.38,6.69,3.58,1.75.79,3.81.28,4.99-1.22,1.05-1.06,1.04-2.77-.01-3.82-.17-.17-.36-.31-.57-.43-2.24-1.22-4.49-2.42-6.75-3.61-1.76-.77-3.81-.25-4.99,1.27-.75.85-.94,2.06-.49,3.1"/>
          <path id="Caminho_348" data-name="Caminho 348" class="cls-7" d="M379.71,127.66c1.04-1.07,1.01-2.77-.05-3.81-.17-.17-.37-.31-.58-.43-2.24-1.18-4.47-2.38-6.69-3.58-1.75-.79-3.81-.28-4.99,1.22-.77.85-.97,2.07-.52,3.13.24.48.63.87,1.1,1.12,2.24,1.22,4.49,2.42,6.74,3.61,1.76.77,3.81.25,4.99-1.27"/>
          <path id="Caminho_349" data-name="Caminho 349" class="cls-7" d="M407.67,145.16c.25.51.67.92,1.18,1.17,2.28,1.15,4.55,2.3,6.82,3.45,1.77.75,3.81.2,4.98-1.33,1.02-1.08.97-2.78-.11-3.79-.18-.17-.38-.31-.6-.43-2.28-1.16-4.55-2.31-6.84-3.46-1.77-.74-3.82-.19-4.97,1.34-.72.85-.9,2.03-.46,3.05"/>
          <path id="Caminho_350" data-name="Caminho 350" class="cls-7" d="M467.17,178.66c.2.4.5.74.87.98,1.62,1.1,3.24,2.22,4.8,3.32.42.3.84.6,1.26.9,1.64.97,3.73.66,5.02-.74,1.38-1.41,1.38-3.36-.02-4.36-.43-.31-.86-.62-1.29-.92-1.6-1.13-3.25-2.27-4.91-3.39-1.67-.93-3.75-.57-5.02.85-.92.86-1.21,2.2-.72,3.35"/>
          <path id="Caminho_351" data-name="Caminho 351" class="cls-7" d="M347.17,112.85c.22.44.55.8.97,1.05,2.11,1.3,4.31,2.61,6.53,3.92,1.72.83,3.79.38,5.01-1.1,1.26-1.49,1.07-3.4-.44-4.29-2.19-1.28-4.35-2.58-6.43-3.86-1.71-.86-3.78-.44-5.01,1.02-.85.86-1.1,2.14-.63,3.26"/>
          <path id="Caminho_352" data-name="Caminho 352" class="cls-7" d="M295.58,71.14c.1.2.22.38.36.54,1.6,1.82,3.28,3.65,4.99,5.43,1.16,1.21,3.39,1.18,4.97-.05s1.92-3.21.76-4.42c-1.66-1.73-3.29-3.5-4.84-5.26-1.1-1.25-3.31-1.31-4.93-.12-1.32.81-1.87,2.44-1.31,3.88"/>
          <path id="Caminho_353" data-name="Caminho 353" class="cls-7" d="M517.26,332.24c-.62.83-.75,1.93-.33,2.87.29.57.77,1.01,1.36,1.25,1.81.64,3.83-.02,4.92-1.6,1.6-2.36,3.13-4.75,4.56-7.13.84-1.18.57-2.82-.6-3.66-.22-.16-.46-.28-.72-.36-1.85-.55-3.83.21-4.85,1.84-1.36,2.26-2.82,4.54-4.34,6.79"/>
          <path id="Caminho_354" data-name="Caminho 354" class="cls-7" d="M528.89,311.47c-.35.73-.35,1.57-.01,2.3.39.76,1.12,1.29,1.96,1.44,1.9.34,3.79-.62,4.63-2.36,1.13-2.56,2.14-5.12,3.01-7.62.52-1.35-.16-2.86-1.51-3.38-.25-.1-.52-.15-.79-.17-1.91-.22-3.74.86-4.47,2.64-.82,2.34-1.77,4.74-2.82,7.14"/>
          <path id="Caminho_355" data-name="Caminho 355" class="cls-7" d="M535.81,282.85c-.02,2.38-.19,4.75-.52,7.1-.08.5,0,1.02.22,1.47.57,1.04,1.7,1.63,2.88,1.52,1.91-.04,3.55-1.39,3.96-3.26.36-2.59.55-5.21.57-7.83,0-1.71-1.58-2.87-3.54-2.59-1.89.2-3.38,1.69-3.57,3.59"/>
          <path id="Caminho_356" data-name="Caminho 356" class="cls-7" d="M490.01,363.41c-2.11,1.9-4.26,3.76-6.42,5.53-1.19.83-1.66,2.38-1.13,3.73.13.26.3.49.5.69,1.48,1.17,3.59,1.09,4.99-.17,2.26-1.85,4.53-3.8,6.74-5.8,1.48-1.34,1.63-3.31.33-4.4-1.56-1.08-3.67-.9-5.02.43"/>
          <path id="Caminho_357" data-name="Caminho 357" class="cls-7" d="M485.04,191.97c.16.32.38.6.66.83,1.87,1.55,3.72,3.14,5.51,4.73,1.53,1.11,3.64.97,5.01-.34,1.5-1.31,1.7-3.29.44-4.41-1.83-1.64-3.74-3.27-5.66-4.86-1.57-1.06-3.67-.86-5.02.48-1.07.85-1.45,2.3-.94,3.57"/>
          <path id="Caminho_358" data-name="Caminho 358" class="cls-7" d="M501.92,351.57c-.89.86-1.17,2.18-.68,3.32.2.41.52.76.9,1.01,1.68.9,3.76.52,5.02-.91,1.95-2.13,3.88-4.34,5.72-6.54,1.25-1.5,1.03-3.41-.49-4.27-1.73-.82-3.8-.35-5,1.14-1.76,2.11-3.6,4.22-5.47,6.26"/>
          <path id="Caminho_359" data-name="Caminho 359" class="cls-7" d="M533.06,261.83c.57,2.28,1.05,4.61,1.44,6.9.04.23.11.45.21.66.78,1.31,2.38,1.88,3.81,1.37,1.94-.52,3.29-2.28,3.01-3.93-.41-2.42-.92-4.86-1.52-7.26-.4-1.62-2.28-2.41-4.2-1.79s-3.16,2.43-2.76,4.04"/>
          <path id="Caminho_360" data-name="Caminho 360" class="cls-7" d="M514.97,223.6c.06.12.13.24.21.34,1.37,1.93,2.7,3.9,3.94,5.85.88,1.39,3.02,1.7,4.77.68s2.46-2.98,1.57-4.37c-1.29-2.03-2.66-4.07-4.08-6.07-.96-1.35-3.13-1.56-4.84-.49-1.47.76-2.15,2.5-1.57,4.05"/>
          <path id="Caminho_361" data-name="Caminho 361" class="cls-7" d="M400.14,138.09c1.01-1.08.96-2.78-.12-3.79-.18-.17-.38-.31-.6-.43-2.27-1.15-4.55-2.3-6.82-3.45-1.77-.75-3.81-.2-4.98,1.33-.73.85-.91,2.04-.46,3.06.25.5.66.91,1.17,1.16,2.28,1.16,4.55,2.31,6.84,3.47,1.77.74,3.82.19,4.97-1.34"/>
          <path id="Caminho_362" data-name="Caminho 362" class="cls-7" d="M501.14,206.92c.11.23.26.44.43.62,1.66,1.74,3.28,3.52,4.82,5.28,1.09,1.26,3.3,1.31,4.93.13s2.06-3.17.96-4.42c-1.58-1.83-3.26-3.66-4.96-5.45-1.16-1.22-3.38-1.2-4.96.03-1.25.82-1.76,2.41-1.21,3.8"/>
          <path id="Caminho_363" data-name="Caminho 363" class="cls-7" d="M525.93,242.08c1.01,2.12,1.96,4.27,2.82,6.41.03.05.05.11.07.16.69,1.41,2.62,1.93,4.41,1.16,1.87-.8,2.88-2.69,2.27-4.22-.9-2.24-1.89-4.5-2.94-6.71v-.02c-.73-1.47-2.78-1.96-4.6-1.08s-2.74,2.8-2.03,4.29"/>
          <path id="Caminho_364" data-name="Caminho 364" class="cls-7" d="M340.3,100.5c-2.06-1.4-4.1-2.83-6.05-4.24-1.64-.97-3.73-.67-5.03.73-.97.86-1.28,2.24-.79,3.43.18.37.46.69.8.93,2,1.44,4.07,2.9,6.18,4.33,1.66.93,3.75.58,5.02-.83,1.35-1.43,1.29-3.38-.13-4.35"/>
          <path id="Caminho_365" data-name="Caminho 365" class="cls-7" d="M476.65,352.42c-7.17,13.91-21.59,30.98-34.09,43.06,17.2-3.19,39.64-5.07,55.31-2.92l-19.61-15.44-1.61-24.7Z"/>
        </g>
      </g>
    </g>
    <g id="Seta06">
      <g class="cls-8">
        <g id="Grupo_93" data-name="Grupo 93">
          <path id="Caminho_432" data-name="Caminho 432" class="cls-7" d="M30.92,514.25c-.49-.3-1.07-.41-1.64-.33-1.97.27-3.99.57-6,.87-1.37.19-2.33,1.47-2.14,2.84.19,1.37,1.47,2.33,2.84,2.14.02,0,.04,0,.06,0,1.99-.3,3.99-.59,5.94-.86,1.37-.19,2.33-1.46,2.14-2.83-.1-.75-.55-1.42-1.2-1.81"/>
          <path id="Caminho_433" data-name="Caminho 433" class="cls-7" d="M147.48,514.85c-.16,1.38.83,2.63,2.2,2.79,1.97.23,3.98.48,5.96.74,1.38.16,2.62-.83,2.78-2.21.15-1.35-.79-2.57-2.13-2.77-2-.26-4.03-.51-6.02-.75-1.38-.16-2.62.82-2.79,2.2,0,0,0,0,0,0"/>
          <path id="Caminho_434" data-name="Caminho 434" class="cls-7" d="M186.23,518.29c-1.36-.27-2.68.62-2.95,1.98s.62,2.68,1.98,2.95c1.95.39,3.93.79,5.88,1.2,1.36.29,2.69-.58,2.98-1.94.29-1.36-.58-2.69-1.94-2.98h0c-1.97-.41-3.97-.82-5.95-1.21"/>
          <path id="Caminho_435" data-name="Caminho 435" class="cls-7" d="M188.49,588.21c-1.2-1.5-2.31-3.06-3.33-4.68-.72-1.19-2.27-1.56-3.45-.84-1.19.72-1.56,2.27-.84,3.45.01.02.03.04.04.07,1.12,1.78,2.34,3.5,3.66,5.14.84,1.1,2.42,1.31,3.52.47,1.1-.84,1.31-2.42.47-3.52-.02-.03-.04-.05-.06-.08"/>
          <path id="Caminho_436" data-name="Caminho 436" class="cls-7" d="M208.85,487.93c-.78-1.15-2.34-1.45-3.49-.68,0,0,0,0,0,0-1.72,1.16-3.4,2.39-5.02,3.65-1.07.88-1.22,2.47-.34,3.54.85,1.04,2.37,1.22,3.45.41,1.52-1.19,3.11-2.35,4.73-3.44,1.15-.78,1.45-2.34.68-3.48h0"/>
          <path id="Caminho_437" data-name="Caminho 437" class="cls-7" d="M194.29,498.86c-1.01-.61-2.31-.43-3.12.43-.81.86-1.62,1.76-2.39,2.66-.57.66-1.15,1.36-1.7,2.06-.86,1.09-.68,2.67.41,3.53s2.67.68,3.53-.41c.52-.65,1.04-1.29,1.57-1.9.73-.85,1.48-1.68,2.25-2.49.95-1.01.9-2.61-.11-3.56-.13-.12-.27-.23-.43-.32"/>
          <path id="Caminho_438" data-name="Caminho 438" class="cls-7" d="M174.13,558.92c1.38-.11,2.41-1.32,2.31-2.7-.15-1.92-.22-3.87-.21-5.82-.02-1.39-1.17-2.5-2.56-2.47-1.35.02-2.43,1.1-2.47,2.44-.01,2.08.07,4.18.23,6.24.11,1.38,1.32,2.42,2.7,2.31"/>
          <path id="Caminho_439" data-name="Caminho 439" class="cls-7" d="M224.99,479.81c-.54-1.28-2.01-1.88-3.29-1.34-1.91.8-3.8,1.67-5.63,2.57-1.23.64-1.72,2.16-1.08,3.39.62,1.2,2.09,1.7,3.32,1.11,1.73-.86,3.53-1.68,5.34-2.44,1.28-.54,1.88-2.01,1.34-3.29,0,0,0,0,0,0"/>
          <path id="Caminho_440" data-name="Caminho 440" class="cls-7" d="M173.5,568.94c.53,2.03,1.17,4.05,1.88,5.98.48,1.3,1.92,1.97,3.23,1.49,1.3-.48,1.97-1.92,1.49-3.23-.66-1.78-1.24-3.64-1.73-5.52-.33-1.35-1.68-2.18-3.03-1.85-1.35.33-2.18,1.68-1.85,3.03,0,.03.02.06.02.09"/>
          <path id="Caminho_441" data-name="Caminho 441" class="cls-7" d="M177.51,520.07c-.54,1.28.06,2.75,1.34,3.29,1.26.53,2.72-.05,3.28-1.3.77-1.78,1.62-3.55,2.53-5.24.63-1.18.23-2.65-.92-3.34l-.11-.07c-1.22-.66-2.75-.2-3.4,1.03-.97,1.82-1.88,3.71-2.71,5.62"/>
          <path id="Caminho_442" data-name="Caminho 442" class="cls-7" d="M129.46,513.17c-.11,1.38.93,2.59,2.31,2.7,1.99.16,4,.33,5.98.51,1.38.15,2.62-.85,2.77-2.23.15-1.38-.85-2.62-2.23-2.77-.03,0-.05,0-.08,0-2-.18-4.04-.36-6.04-.52-1.38-.11-2.59.92-2.7,2.3h0"/>
          <path id="Caminho_443" data-name="Caminho 443" class="cls-7" d="M210.58,523.96c-.2-.12-.42-.21-.64-.27-1.87-.51-3.8-1-5.91-1.51-1.35-.33-2.71.5-3.03,1.85-.33,1.35.5,2.71,1.85,3.03,2.06.5,3.96.99,5.78,1.48,1.34.37,2.72-.42,3.09-1.76.3-1.09-.17-2.24-1.13-2.82"/>
          <path id="Caminho_444" data-name="Caminho 444" class="cls-7" d="M177.22,538.8c.32-1.91.72-3.83,1.19-5.7.34-1.35-.48-2.71-1.83-3.05-1.35-.34-2.71.48-3.05,1.83-.5,2.01-.93,4.06-1.27,6.1-.23,1.37.69,2.67,2.06,2.9,1.37.23,2.67-.69,2.9-2.06"/>
          <path id="Caminho_445" data-name="Caminho 445" class="cls-7" d="M175.17,516.42c-.27-.16-.56-.27-.87-.32-1.98-.34-4-.67-5.99-.98-1.37-.21-2.66.72-2.87,2.09s.72,2.66,2.09,2.87c1.97.31,3.97.63,5.92.97,1.37.23,2.67-.68,2.9-2.05.18-1.02-.3-2.05-1.19-2.58"/>
          <path id="Caminho_446" data-name="Caminho 446" class="cls-7" d="M93.28,511.9c0,1.39,1.12,2.52,2.51,2.52,1.99,0,4.01.02,6,.05,1.39,0,2.52-1.12,2.52-2.51,0-1.37-1.08-2.48-2.45-2.52-2.01-.03-4.05-.05-6.07-.05-1.39,0-2.51,1.12-2.52,2.5,0,0,0,0,0,0"/>
          <path id="Caminho_447" data-name="Caminho 447" class="cls-7" d="M227.4,529.66c-1.83-.79-3.76-1.56-5.74-2.28-1.3-.48-2.75.2-3.22,1.5-.48,1.3.2,2.75,1.5,3.22h0c1.89.69,3.73,1.43,5.47,2.18,1.28.54,2.75-.05,3.3-1.33.49-1.15.06-2.48-1-3.13-.1-.06-.19-.11-.3-.15"/>
          <path id="Caminho_448" data-name="Caminho 448" class="cls-7" d="M354.11,502.09c1.75.94,3.52,1.91,5.26,2.88,1.21.68,2.74.25,3.42-.95.67-1.19.27-2.7-.9-3.39l-.07-.04c-1.77-.98-3.56-1.96-5.33-2.92-1.22-.66-2.74-.2-3.4,1.02-.66,1.22-.2,2.74,1.02,3.4,0,0,0,0,.01,0"/>
          <path id="Caminho_449" data-name="Caminho 449" class="cls-7" d="M13.04,517.09c-.52-.31-1.14-.43-1.74-.32-1.96.35-3.97.72-5.96,1.11-1.36.26-2.25,1.58-1.99,2.94.26,1.36,1.58,2.25,2.94,1.99,1.98-.38,3.96-.75,5.9-1.09,1.37-.25,2.27-1.55,2.02-2.92-.13-.71-.56-1.33-1.18-1.71"/>
          <path id="Caminho_450" data-name="Caminho 450" class="cls-7" d="M41.88,517.39c1.98-.22,4-.44,5.97-.64,1.38-.14,2.39-1.37,2.25-2.75s-1.37-2.39-2.75-2.25c-2,.2-4.03.42-6.03.64-1.38.16-2.37,1.4-2.21,2.78s1.4,2.37,2.78,2.21"/>
          <path id="Caminho_451" data-name="Caminho 451" class="cls-7" d="M255.22,587.84c-.6,1.25-.07,2.75,1.18,3.35s2.75.07,3.35-1.18c.61-1.28,1.14-2.6,1.58-3.95.23-.72.45-1.45.63-2.19.34-1.35-.48-2.71-1.82-3.05-1.35-.34-2.71.48-3.05,1.82-.16.62-.34,1.25-.53,1.86-.37,1.14-.82,2.25-1.34,3.34"/>
          <path id="Caminho_452" data-name="Caminho 452" class="cls-7" d="M75.18,512.3c.05,1.39,1.22,2.47,2.61,2.42,2-.07,4.01-.13,6-.18,1.39-.05,2.47-1.21,2.43-2.6-.05-1.37-1.18-2.45-2.55-2.43-2.01.05-4.05.11-6.06.18-1.39.05-2.47,1.21-2.42,2.6,0,0,0,0,0,0"/>
          <path id="Caminho_453" data-name="Caminho 453" class="cls-7" d="M336.84,490.66c-.59,1.26-.05,2.75,1.21,3.34,1.78.84,3.6,1.72,5.4,2.6,1.25.61,2.75.1,3.36-1.15.57-1.17.16-2.58-.95-3.26-.06-.04-.12-.07-.19-.1-1.82-.9-3.67-1.79-5.48-2.64-1.26-.59-2.75-.05-3.34,1.2,0,0,0,0,0,0"/>
          <path id="Caminho_454" data-name="Caminho 454" class="cls-7" d="M285.36,473.79c-.24,1.37.68,2.67,2.04,2.91,1.88.33,3.83.72,5.8,1.16,1.35.33,2.71-.5,3.03-1.85.33-1.35-.5-2.71-1.85-3.03-.03,0-.06-.01-.09-.02-2.05-.46-4.08-.87-6.03-1.21-1.37-.24-2.67.67-2.91,2.04h0"/>
          <path id="Caminho_455" data-name="Caminho 455" class="cls-7" d="M269.77,474.92c1.96.05,3.95.15,5.91.31,1.38.09,2.58-.96,2.67-2.34.09-1.37-.93-2.55-2.29-2.67-2.04-.16-4.11-.26-6.15-.32-1.39-.04-2.54,1.06-2.58,2.44-.04,1.39,1.06,2.54,2.44,2.58"/>
          <path id="Caminho_456" data-name="Caminho 456" class="cls-7" d="M303.02,477.78c-.4,1.33.35,2.73,1.68,3.13,0,0,0,0,0,0,1.86.56,3.77,1.18,5.67,1.82,1.31.47,2.74-.22,3.21-1.52.47-1.31-.22-2.74-1.52-3.21-.03-.01-.06-.02-.09-.03-1.96-.66-3.92-1.29-5.82-1.86-1.33-.4-2.73.34-3.13,1.67,0,0,0,0,0,0"/>
          <path id="Caminho_457" data-name="Caminho 457" class="cls-7" d="M320.17,483.59c-.51,1.29.12,2.75,1.41,3.26,1.82.72,3.68,1.48,5.53,2.27,1.28.54,2.75-.07,3.29-1.35.48-1.15.05-2.48-1.02-3.12-.1-.06-.21-.12-.32-.16-1.89-.8-3.78-1.57-5.64-2.31-1.29-.51-2.75.12-3.26,1.41,0,0,0,0,0,0"/>
          <path id="Caminho_458" data-name="Caminho 458" class="cls-7" d="M255.4,556.55c1.18-.73,1.55-2.27.83-3.45,0,0,0,0,0,0-1.11-1.8-2.33-3.54-3.65-5.19-.84-1.1-2.42-1.31-3.52-.46-1.1.84-1.31,2.42-.46,3.52.02.02.04.05.06.07,1.19,1.49,2.29,3.06,3.29,4.68.73,1.18,2.27,1.55,3.46.83"/>
          <path id="Caminho_459" data-name="Caminho 459" class="cls-7" d="M233.35,474.38c-1.33.41-2.08,1.81-1.67,3.14.4,1.3,1.75,2.05,3.06,1.69,1.87-.54,3.79-1.03,5.71-1.47,1.35-.34,2.16-1.7,1.83-3.05-.33-1.31-1.63-2.12-2.95-1.85-2.01.46-4.02.98-5.98,1.54"/>
          <path id="Caminho_460" data-name="Caminho 460" class="cls-7" d="M247.09,604.44c1.78-1.2,3.46-2.55,5.02-4.02,1.01-.96,1.05-2.55.09-3.56-.96-1.01-2.55-1.05-3.56-.09-1.36,1.29-2.83,2.46-4.38,3.51-1.15.78-1.45,2.34-.67,3.49.78,1.15,2.34,1.45,3.49.67h0"/>
          <path id="Caminho_461" data-name="Caminho 461" class="cls-7" d="M122.43,512.71c.07-1.39-.99-2.57-2.38-2.64-1.98-.11-4.02-.2-6.06-.29-1.39-.07-2.56,1-2.63,2.39s1,2.56,2.39,2.63c.02,0,.03,0,.05,0,2.02.08,4.04.18,6,.28,1.38.08,2.57-.99,2.64-2.37,0,0,0,0,0,0"/>
          <path id="Caminho_462" data-name="Caminho 462" class="cls-7" d="M201.35,599.53c-1.64-1-3.21-2.09-4.72-3.27-1.09-.85-2.67-.66-3.53.43-.85,1.09-.66,2.67.43,3.53h0c1.66,1.3,3.4,2.5,5.21,3.59,1.18.72,2.73.35,3.45-.84.72-1.18.35-2.73-.84-3.45"/>
          <path id="Caminho_463" data-name="Caminho 463" class="cls-7" d="M252.07,475.72c1.94-.23,3.92-.42,5.88-.56,1.38-.1,2.43-1.3,2.33-2.68-.1-1.38-1.3-2.43-2.68-2.33h0c-2.05.14-4.11.34-6.13.58-1.38.17-2.36,1.42-2.19,2.8s1.42,2.36,2.8,2.19h0"/>
          <path id="Caminho_464" data-name="Caminho 464" class="cls-7" d="M240.48,543.02c1.1.85,2.67.65,3.53-.44.85-1.1.65-2.67-.44-3.53h0c-1.62-1.26-3.35-2.47-5.14-3.6l-.05-.03c-1.18-.73-2.73-.36-3.46.82s-.36,2.73.82,3.46c1.65,1.05,3.25,2.17,4.75,3.33"/>
          <path id="Caminho_465" data-name="Caminho 465" class="cls-7" d="M218.15,605.98c-.26-.16-.55-.27-.86-.32-1.87-.34-3.72-.8-5.54-1.37-1.32-.42-2.74.32-3.15,1.64s.32,2.74,1.64,3.15h0c2.02.64,4.08,1.15,6.17,1.53,1.37.25,2.67-.66,2.92-2.03.18-1.03-.29-2.07-1.18-2.6"/>
          <path id="Caminho_466" data-name="Caminho 466" class="cls-7" d="M236.08,605.26c-.59-.36-1.31-.46-1.98-.27-1.41.4-2.85.7-4.3.92-.4.06-.81.11-1.21.16-1.38.16-2.37,1.4-2.22,2.78s1.4,2.37,2.78,2.22h0c.46-.05.92-.11,1.38-.18,1.67-.24,3.32-.6,4.94-1.06,1.34-.38,2.11-1.77,1.73-3.1-.17-.62-.58-1.14-1.13-1.47"/>
          <path id="Caminho_467" data-name="Caminho 467" class="cls-7" d="M59.81,515.71c1.97-.15,3.98-.28,5.99-.41,1.39-.09,2.44-1.28,2.35-2.67s-1.28-2.44-2.67-2.35c-2.03.12-4.07.26-6.05.41-1.39.08-2.44,1.27-2.36,2.66s1.27,2.44,2.66,2.36c.03,0,.05,0,.08,0"/>
          <path id="Caminho_468" data-name="Caminho 468" class="cls-7" d="M262.7,570.99c-.27-2.13-.7-4.23-1.3-6.29-.36-1.34-1.74-2.14-3.08-1.78-1.34.36-2.14,1.74-1.78,3.08,0,.03.02.06.03.09.52,1.8.9,3.65,1.14,5.51.18,1.38,1.45,2.34,2.82,2.16,1.36-.18,2.32-1.41,2.17-2.77"/>
          <path id="Caminho_469" data-name="Caminho 469" class="cls-7" d="M392.17,522.45c-7.33-9.73-15.36-23.47-18.62-34.66l-4.4,19.39c-.09.11-.18.22-.25.34-.06.11-.11.22-.16.33l-15.84,12.11c11.53-1.69,27.37-.12,39.27,2.49"/>
        </g>
      </g>
    </g>
    <g id="Seta02-2">
      <g class="cls-2">
        <g id="Grupo_85-2" data-name="Grupo 85-2">
          <path id="Caminho_343-2" data-name="Caminho 343-2" class="cls-7" d="M1893.06,716.3c-.09,0-.18,0-.27,0-2.48.18-5.01.41-7.52.71-1.69.2-2.9,1.73-2.7,3.42s1.73,2.9,3.42,2.7c2.42-.28,4.85-.52,7.24-.68,1.7-.11,2.99-1.59,2.87-3.29-.11-1.6-1.43-2.85-3.03-2.88"/>
          <path id="Caminho_344-2" data-name="Caminho 344-2" class="cls-7" d="M1849.56,725c-.34,0-.67.04-.99.15-2.35.75-4.74,1.55-7.12,2.39-1.62.54-2.49,2.29-1.95,3.91.54,1.62,2.29,2.49,3.91,1.95.03-.01.07-.02.1-.03,2.31-.82,4.65-1.6,6.94-2.33,1.62-.52,2.52-2.25,2-3.88-.4-1.26-1.56-2.13-2.89-2.15"/>
          <path id="Caminho_345-2" data-name="Caminho 345-2" class="cls-7" d="M1915.47,716.39c-2.5-.2-5.04-.34-7.56-.41h-.04c-1.7-.04-3.12,1.31-3.15,3.02-.04,1.7,1.31,3.12,3.02,3.15,2.42.07,4.85.2,7.24.4,1.7.14,3.19-1.12,3.33-2.82.14-1.7-1.12-3.19-2.82-3.33"/>
          <path id="Caminho_346-2" data-name="Caminho 346-2" class="cls-7" d="M1711.71,796.57c-.51,0-1.02.11-1.48.35-2.21,1.15-4.42,2.27-6.56,3.34-1.53.74-2.18,2.59-1.44,4.12.74,1.53,2.59,2.18,4.12,1.44.02-.01.05-.02.07-.04,2.17-1.08,4.41-2.23,6.65-3.39,1.51-.79,2.1-2.65,1.32-4.16-.52-1.01-1.56-1.65-2.69-1.66"/>
          <path id="Caminho_347-2" data-name="Caminho 347-2" class="cls-7" d="M1731.21,785.9c-.55,0-1.1.13-1.58.41-2.14,1.22-4.28,2.43-6.43,3.62-1.49.83-2.02,2.71-1.19,4.2.83,1.49,2.71,2.02,4.2,1.19,2.17-1.21,4.33-2.42,6.48-3.65,1.48-.85,1.99-2.73,1.15-4.21-.54-.95-1.54-1.54-2.63-1.55"/>
          <path id="Caminho_348-2" data-name="Caminho 348-2" class="cls-7" d="M1779.61,760.52c.85,1.48,2.73,2,4.21,1.15,2.14-1.22,4.28-2.42,6.43-3.62,1.5-.81,2.06-2.69,1.24-4.18-.81-1.5-2.69-2.06-4.18-1.24-.02.01-.04.02-.06.04-2.17,1.2-4.33,2.42-6.48,3.65-1.48.84-2,2.73-1.15,4.21,0,0,0,0,0,0"/>
          <path id="Caminho_349-2" data-name="Caminho 349-2" class="cls-7" d="M1750.4,774.69c-.57,0-1.14.14-1.63.43-2.12,1.26-4.24,2.51-6.37,3.77-1.47.87-1.96,2.76-1.09,4.23.87,1.47,2.76,1.96,4.23,1.09h0c2.13-1.25,4.26-2.51,6.39-3.78,1.47-.87,1.95-2.76,1.08-4.23-.55-.92-1.53-1.49-2.61-1.51"/>
          <path id="Caminho_350-2" data-name="Caminho 350-2" class="cls-7" d="M1691.71,806.28c-.45,0-.9.08-1.31.27-1.77.79-3.56,1.57-5.31,2.31-.47.2-.94.4-1.42.6-1.57.66-2.32,2.47-1.66,4.04s2.47,2.32,4.04,1.66c.48-.2.97-.41,1.45-.61,1.79-.76,3.61-1.55,5.42-2.36,1.56-.69,2.25-2.52,1.56-4.08-.49-1.1-1.57-1.81-2.77-1.83"/>
          <path id="Caminho_351-2" data-name="Caminho 351-2" class="cls-7" d="M1808.46,741.89c-.49,0-.98.1-1.42.32-2.18,1.08-4.42,2.22-6.66,3.38-1.51.79-2.1,2.65-1.32,4.16.79,1.51,2.65,2.1,4.16,1.32,2.21-1.14,4.41-2.26,6.56-3.32,1.53-.76,2.15-2.61,1.4-4.13-.51-1.04-1.56-1.7-2.72-1.72"/>
          <path id="Caminho_352-2" data-name="Caminho 352-2" class="cls-7" d="M1871.06,719.36c-.23,0-.45.02-.67.06-2.43.49-4.9,1.05-7.35,1.65-1.66.41-2.67,2.08-2.26,3.73.41,1.66,2.08,2.67,3.73,2.26,2.37-.58,4.77-1.12,7.12-1.6,1.67-.33,2.76-1.96,2.42-3.63-.28-1.43-1.53-2.46-2.99-2.48"/>
          <path id="Caminho_353-2" data-name="Caminho 353-2" class="cls-7" d="M1526.43,784.8c-.96-1.41-2.88-1.77-4.29-.81-1.41.96-1.77,2.88-.81,4.29h0c1.43,2.1,2.93,4.16,4.46,6.14,1.06,1.34,3,1.56,4.34.51,1.31-1.04,1.56-2.94.55-4.28-1.45-1.88-2.88-3.85-4.25-5.85"/>
          <path id="Caminho_354-2" data-name="Caminho 354-2" class="cls-7" d="M1540.2,801.45c-1.23-1.18-3.19-1.14-4.37.1-1.15,1.2-1.14,3.1.02,4.29,1.84,1.82,3.74,3.56,5.63,5.17,1.3,1.1,3.25.94,4.35-.36s.94-3.25-.36-4.35h0c-1.77-1.51-3.56-3.14-5.28-4.85"/>
          <path id="Caminho_355-2" data-name="Caminho 355-2" class="cls-7" d="M1563.42,817.59c-2.16-.91-4.27-1.95-6.32-3.11-1.48-.84-3.37-.32-4.21,1.16-.84,1.48-.32,3.37,1.16,4.21,2.25,1.28,4.58,2.42,6.97,3.43,1.56.68,3.38-.04,4.06-1.6s-.04-3.38-1.6-4.06c-.02,0-.04-.02-.07-.03"/>
          <path id="Caminho_356-2" data-name="Caminho 356-2" class="cls-7" d="M1510.32,752.49c-.78-2.3-1.49-4.63-2.12-6.91-.47-1.64-2.18-2.59-3.82-2.12-1.61.46-2.56,2.13-2.14,3.75.66,2.4,1.41,4.84,2.22,7.26.56,1.61,2.32,2.46,3.93,1.9,1.59-.55,2.44-2.28,1.92-3.87"/>
          <path id="Caminho_357-2" data-name="Caminho 357-2" class="cls-7" d="M1671.07,814.52c-.36,0-.73.05-1.07.17-2.3.8-4.64,1.58-6.94,2.3-1.64.48-2.57,2.19-2.09,3.83s2.19,2.57,3.83,2.09c.04-.01.08-.02.11-.04,2.37-.74,4.77-1.54,7.13-2.36,1.61-.56,2.46-2.32,1.89-3.93-.43-1.22-1.57-2.04-2.86-2.07"/>
          <path id="Caminho_358-2" data-name="Caminho 358-2" class="cls-7" d="M1515.71,765.93c-.72-1.55-2.56-2.22-4.1-1.5-1.55.72-2.22,2.56-1.5,4.1h0c1.06,2.28,2.2,4.56,3.38,6.78.85,1.48,2.74,1.99,4.22,1.14,1.41-.81,1.95-2.57,1.23-4.03-1.13-2.12-2.22-4.3-3.23-6.48"/>
          <path id="Caminho_359-2" data-name="Caminho 359-2" class="cls-7" d="M1584.12,823.6c-2.37-.45-4.74-.98-7.05-1.57-1.64-.47-3.35.47-3.82,2.11-.47,1.64.47,3.35,2.11,3.82.06.02.13.03.19.05,2.43.62,4.92,1.17,7.42,1.65,1.67.34,3.3-.73,3.65-2.4.34-1.67-.73-3.3-2.4-3.65-.03,0-.06-.01-.09-.02"/>
          <path id="Caminho_360-2" data-name="Caminho 360-2" class="cls-7" d="M1627.88,824.75c-.14,0-.28,0-.42.02-2.42.29-4.86.52-7.24.7-1.7.13-2.98,1.6-2.85,3.3s1.6,2.98,3.3,2.85c2.47-.18,5-.43,7.51-.72,1.69-.2,2.91-1.73,2.71-3.42-.18-1.54-1.47-2.71-3.02-2.73"/>
          <path id="Caminho_361-2" data-name="Caminho 361-2" class="cls-7" d="M1760.44,771.78c.87,1.47,2.77,1.95,4.23,1.08,2.12-1.26,4.24-2.51,6.37-3.77,1.47-.87,1.95-2.76,1.08-4.23-.87-1.46-2.75-1.95-4.22-1.09-2.13,1.25-4.26,2.51-6.39,3.78-1.47.87-1.95,2.76-1.08,4.23,0,0,0,0,0,0"/>
          <path id="Caminho_362-2" data-name="Caminho 362-2" class="cls-7" d="M1649.76,820.81c-.26,0-.52.03-.78.09-2.38.57-4.78,1.1-7.13,1.57-1.68.31-2.79,1.92-2.48,3.59.31,1.68,1.92,2.79,3.59,2.48.04,0,.07-.01.11-.02,2.42-.49,4.9-1.03,7.35-1.62,1.66-.4,2.68-2.06,2.28-3.72-.33-1.37-1.54-2.34-2.95-2.37"/>
          <path id="Caminho_363-2" data-name="Caminho 363-2" class="cls-7" d="M1605.71,825.85c-2.43-.06-4.86-.18-7.24-.35-.06,0-.12,0-.18,0-1.7-.03-3.11,1.33-3.14,3.03-.03,1.64,1.22,3.01,2.86,3.13,2.48.19,5.03.31,7.56.37h.02c1.7.03,3.11-1.32,3.15-3.02s-1.32-3.11-3.02-3.15h0"/>
          <path id="Caminho_364-2" data-name="Caminho 364-2" class="cls-7" d="M1823.08,741.5c2.26-1,4.53-1.97,6.74-2.89,1.57-.65,2.32-2.46,1.67-4.03s-2.46-2.32-4.03-1.67c-2.26.94-4.58,1.93-6.88,2.95-1.56.69-2.26,2.52-1.57,4.07s2.52,2.26,4.07,1.57h0"/>
          <path id="Caminho_365-2" data-name="Caminho 365-2" class="cls-7" d="M1526.7,746.73c-9.51-10.69-18.56-28-23.91-41.97-5.07,14.07-13.78,31.55-23.09,42.42l23.41-8.72,23.58,8.27Z"/>
        </g>
      </g>
    </g>
    <g id="Seta06-2">
      <g class="cls-3">
        <g id="Grupo_93-2" data-name="Grupo 93-2">
          <path id="Caminho_431-2" data-name="Caminho 431-2" class="cls-7" d="M1920.61,63.42c1.57.77,3.47.21,4.36-1.29,1.25-2.16,2.52-4.36,3.76-6.56.81-1.4.34-3.19-1.06-4-.07-.04-.13-.07-.2-.11-1.58-.75-3.47-.17-4.34,1.34-1.23,2.18-2.47,4.36-3.72,6.49-.83,1.39-.38,3.18,1,4.02.07.04.13.08.2.11"/>
          <path id="Caminho_432-2" data-name="Caminho 432-2" class="cls-7" d="M1898.9,101.8c.69-.22,1.3-.67,1.71-1.27,1.42-2.05,2.85-4.17,4.27-6.28.93-1.33.6-3.15-.73-4.08-.06-.04-.13-.09-.19-.12-1.52-.87-3.45-.43-4.43,1.02-1.4,2.09-2.83,4.18-4.23,6.21-.94,1.32-.64,3.15.67,4.09.06.04.13.09.19.13.82.49,1.82.6,2.73.3"/>
          <path id="Caminho_433-2" data-name="Caminho 433-2" class="cls-7" d="M1799.3,209.95c-1.23-1.23-3.21-1.29-4.52-.13-1.9,1.66-3.84,3.33-5.76,4.97-1.28,1.03-1.49,2.91-.45,4.19.04.04.07.09.11.13.87.91,2.18,1.23,3.37.82.42-.14.81-.35,1.14-.64,1.95-1.66,3.91-3.35,5.82-5.02,1.27-1.05,1.45-2.92.4-4.19-.04-.05-.08-.09-.12-.13"/>
          <path id="Caminho_434-2" data-name="Caminho 434-2" class="cls-7" d="M1763.11,243.35c1.35-.95,1.68-2.83.72-4.18-.03-.04-.06-.08-.09-.12-1.13-1.32-3.1-1.53-4.48-.47-2.03,1.52-4.09,3.05-6.13,4.54-1.37.94-1.72,2.8-.78,4.17.03.04.06.08.09.12.85,1.04,2.25,1.44,3.52,1.01.34-.11.66-.27.95-.49,2.07-1.51,4.15-3.05,6.2-4.59"/>
          <path id="Caminho_435-2" data-name="Caminho 435-2" class="cls-7" d="M1694.97,190.67c2.43.06,4.86.25,7.26.57.5.07,1,.02,1.48-.14,1.14-.36,1.99-1.31,2.22-2.48.28-1.62-.81-3.15-2.43-3.42-.06-.01-.13-.02-.19-.03-2.65-.35-5.31-.56-7.98-.62-1.74-.06-3.23,1.25-3.38,2.98-.07,1.66,1.21,3.06,2.86,3.13.05,0,.1,0,.15,0"/>
          <path id="Caminho_436-2" data-name="Caminho 436-2" class="cls-7" d="M1772.65,288.22c.46.05.93,0,1.37-.15,1.17-.37,2.04-1.36,2.23-2.58.36-2.51.63-5.05.8-7.54.09-1.65-1.18-3.07-2.84-3.15-.05,0-.1,0-.15,0-1.74-.08-3.23,1.22-3.4,2.96-.16,2.35-.41,4.74-.75,7.1-.22,1.63.93,3.12,2.55,3.34.06,0,.12.01.18.02"/>
          <path id="Caminho_437-2" data-name="Caminho 437-2" class="cls-7" d="M1774.67,266.1c1.41-.43,2.34-1.78,2.24-3.25-.13-1.43-.29-2.89-.48-4.31-.14-1.05-.31-2.13-.5-3.2-.34-1.67-1.97-2.74-3.63-2.4-.02,0-.04,0-.06.01-1.71.29-2.87,1.89-2.62,3.61.18.99.33,1.98.46,2.96.18,1.34.33,2.7.45,4.04.18,1.67,1.69,2.88,3.36,2.7.03,0,.06,0,.1-.01.23-.03.46-.07.68-.15"/>
          <path id="Caminho_438-2" data-name="Caminho 438-2" class="cls-7" d="M1734.91,200.24c-1.03,1.26-.84,3.11.42,4.13.06.05.12.09.18.13,1.95,1.37,3.86,2.83,5.69,4.36.87.71,2.03.92,3.09.56.55-.18,1.04-.49,1.43-.91,1.13-1.17,1.1-3.04-.07-4.18-.05-.05-.1-.09-.15-.14-1.96-1.64-4.02-3.22-6.1-4.67-1.45-.97-3.41-.67-4.49.71"/>
          <path id="Caminho_439-2" data-name="Caminho 439-2" class="cls-7" d="M1766.63,309.63c.65.19,1.34.18,1.99-.03.97-.3,1.74-1.04,2.09-1.99.86-2.41,1.65-4.85,2.35-7.26.45-1.56-.46-3.2-2.02-3.64-.07-.02-.13-.04-.2-.05-1.7-.4-3.42.58-3.94,2.25-.66,2.29-1.41,4.6-2.23,6.89-.55,1.52.24,3.21,1.76,3.76.07.03.14.05.22.07"/>
          <path id="Caminho_440-2" data-name="Caminho 440-2" class="cls-7" d="M1725.97,191.8c-2.38-1.1-4.82-2.09-7.26-2.94-1.65-.57-3.47.23-4.16,1.84-.63,1.49.08,3.21,1.57,3.84.07.03.14.06.22.08,2.25.79,4.51,1.7,6.7,2.71,1.6.72,3.47.08,4.31-1.45.77-1.42.25-3.2-1.17-3.97-.07-.04-.14-.07-.21-.1"/>
          <path id="Caminho_441-2" data-name="Caminho 441-2" class="cls-7" d="M1768.83,233.84c-.81-1.53-2.69-2.14-4.24-1.36-1.56.68-2.27,2.49-1.59,4.05,0,.02.02.04.02.05,1.04,2.12,1.98,4.29,2.82,6.46.64,1.54,2.37,2.31,3.95,1.76l.15-.05c1.62-.56,2.49-2.33,1.92-3.96,0,0,0-.01,0-.02-.89-2.33-1.91-4.66-3.02-6.93"/>
          <path id="Caminho_442-2" data-name="Caminho 442-2" class="cls-7" d="M1816.2,194.46c-1.28-1.19-3.26-1.17-4.52.03-1.84,1.73-3.71,3.47-5.57,5.17-1.24,1.08-1.37,2.95-.3,4.19.04.05.08.09.13.14.87.84,2.14,1.13,3.29.74.46-.15.88-.39,1.24-.72,1.88-1.72,3.77-3.48,5.63-5.23,1.22-1.09,1.33-2.97.24-4.19-.04-.05-.09-.09-.13-.14"/>
          <path id="Caminho_443-2" data-name="Caminho 443-2" class="cls-7" d="M1737.06,261.6c.28-.09.55-.22.8-.38,2.07-1.34,4.18-2.76,6.46-4.32,1.4-.9,1.8-2.77.9-4.17-.02-.04-.05-.08-.08-.11-1.07-1.37-3.03-1.66-4.45-.65-2.23,1.53-4.29,2.91-6.31,4.23-1.43.87-1.88,2.73-1.01,4.15.02.04.04.07.07.1.82,1.14,2.3,1.6,3.63,1.15"/>
          <path id="Caminho_444-2" data-name="Caminho 444-2" class="cls-7" d="M1751.34,218.89c1.54,1.79,3.02,3.67,4.4,5.58.83,1.1,2.28,1.55,3.59,1.1.3-.1.59-.24.85-.42,1.41-.89,1.83-2.76.93-4.17-.02-.04-.05-.07-.07-.11-1.48-2.04-3.06-4.05-4.7-5.96-1.17-1.29-3.14-1.44-4.5-.34-1.32.99-1.6,2.86-.61,4.19.03.04.07.09.1.13"/>
          <path id="Caminho_445-2" data-name="Caminho 445-2" class="cls-7" d="M1774.28,234.51c.38-.12.73-.31,1.05-.56,2-1.58,4.03-3.2,6.02-4.81,1.31-1,1.56-2.88.56-4.19-.03-.04-.07-.09-.1-.13-1.18-1.28-3.16-1.41-4.5-.3-1.97,1.59-3.97,3.2-5.95,4.76-1.33.99-1.6,2.86-.62,4.19.03.04.07.09.1.13.86.97,2.22,1.33,3.45.91"/>
          <path id="Caminho_446-2" data-name="Caminho 446-2" class="cls-7" d="M1848.15,161.75c-1.37-1.08-3.34-.92-4.52.37-1.7,1.85-3.43,3.72-5.15,5.55-1.15,1.16-1.13,3.03.03,4.18.05.05.1.09.15.14.87.72,2.05.94,3.11.58.54-.17,1.02-.48,1.41-.89,1.74-1.85,3.49-3.74,5.2-5.61,1.13-1.18,1.09-3.04-.08-4.17-.05-.05-.1-.09-.15-.14"/>
          <path id="Caminho_447-2" data-name="Caminho 447-2" class="cls-7" d="M1717.36,272.82c2.3-1.08,4.67-2.28,7.05-3.56,1.51-.76,2.12-2.59,1.36-4.1-.01-.03-.03-.05-.04-.08-.9-1.48-2.82-1.98-4.33-1.13-2.27,1.22-4.52,2.36-6.71,3.39-1.56.68-2.28,2.49-1.6,4.05,0,.02.02.04.02.05.72,1.4,2.36,2.05,3.85,1.53.14-.04.27-.1.4-.16"/>
          <path id="Caminho_448-2" data-name="Caminho 448-2" class="cls-7" d="M1635.82,412.49c-2.38.89-4.8,1.79-7.19,2.65-1.61.49-2.52,2.19-2.03,3.79.49,1.61,2.19,2.52,3.79,2.03.07-.02.14-.05.21-.07l.1-.03c2.43-.87,4.89-1.78,7.29-2.68,1.62-.56,2.49-2.33,1.93-3.96,0,0,0-.01,0-.02-.67-1.59-2.49-2.35-4.1-1.71"/>
          <path id="Caminho_449-2" data-name="Caminho 449-2" class="cls-7" d="M1911.4,82.91c.73-.24,1.36-.72,1.78-1.37,1.34-2.11,2.69-4.27,4.02-6.42.87-1.36.47-3.17-.89-4.04-.07-.04-.14-.08-.21-.12-1.55-.81-3.46-.3-4.39,1.18-1.32,2.14-2.65,4.27-3.98,6.36-.89,1.35-.51,3.17.84,4.06.06.04.13.08.2.12.8.44,1.75.53,2.62.24"/>
          <path id="Caminho_450-2" data-name="Caminho 450-2" class="cls-7" d="M1886.61,109.55c-1.47,2.02-2.98,4.06-4.47,6.06-1,1.28-.77,3.12.51,4.12.06.05.12.09.18.13.84.55,1.88.68,2.83.37.65-.21,1.23-.62,1.64-1.16,1.51-2.02,3.03-4.08,4.52-6.13.98-1.29.72-3.13-.57-4.11-.06-.05-.12-.09-.19-.13-1.48-.93-3.43-.55-4.46.86"/>
          <path id="Caminho_451-2" data-name="Caminho 451-2" class="cls-7" d="M1638.62,253.14c-.74-1.57-2.6-2.24-4.18-1.52-1.59.62-2.37,2.42-1.75,4.01,0,.01.01.03.02.04.69,1.58,1.49,3.1,2.39,4.57.48.78,1,1.55,1.54,2.3.83,1.11,2.28,1.55,3.59,1.1.3-.1.59-.24.85-.41,1.41-.89,1.83-2.75.94-4.16-.02-.04-.05-.08-.07-.11-.46-.63-.89-1.29-1.3-1.95-.76-1.24-1.44-2.53-2.02-3.86"/>
          <path id="Caminho_452-2" data-name="Caminho 452-2" class="cls-7" d="M1863.14,144.57c-1.41-1.03-3.38-.8-4.51.53-1.63,1.92-3.29,3.84-4.93,5.73-1.1,1.2-1.02,3.06.18,4.16.05.05.11.1.16.14.86.66,1.99.85,3.02.51.58-.19,1.09-.52,1.49-.98,1.66-1.91,3.34-3.85,4.98-5.79,1.08-1.22.97-3.08-.24-4.16-.05-.05-.11-.09-.16-.14"/>
          <path id="Caminho_453-2" data-name="Caminho 453-2" class="cls-7" d="M1661.32,405.37c-.76-1.56-2.62-2.22-4.19-1.5-2.31,1.01-4.68,2.01-7.05,2.99-1.6.61-2.4,2.4-1.79,4,0,0,0,.02.01.03.68,1.48,2.37,2.2,3.91,1.67.08-.03.17-.06.25-.09,2.4-.99,4.81-2.02,7.16-3.04,1.58-.63,2.36-2.43,1.72-4.02,0-.01-.01-.03-.02-.04"/>
          <path id="Caminho_454-2" data-name="Caminho 454-2" class="cls-7" d="M1721.04,370.62c-1.16-1.3-3.13-1.47-4.49-.38-1.91,1.49-3.94,3-6.03,4.5-1.38.92-1.75,2.79-.83,4.17.03.04.05.08.08.11.84,1.06,2.26,1.48,3.55,1.04.33-.11.64-.26.92-.46,2.17-1.55,4.28-3.12,6.27-4.67,1.33-.98,1.62-2.86.63-4.2-.03-.04-.06-.08-.09-.11"/>
          <path id="Caminho_455-2" data-name="Caminho 455-2" class="cls-7" d="M1733.21,355.2c-1.72,1.78-3.5,3.56-5.31,5.26-1.22,1.09-1.32,2.97-.23,4.19.04.05.09.09.13.14.87.82,2.12,1.09,3.25.71.47-.15.91-.41,1.27-.75,1.88-1.78,3.74-3.62,5.53-5.48,1.16-1.15,1.17-3.02.03-4.18-.05-.05-.09-.09-.14-.14-1.34-1.12-3.32-1.01-4.52.25"/>
          <path id="Caminho_456-2" data-name="Caminho 456-2" class="cls-7" d="M1702.26,383.94c-.99-1.43-2.92-1.82-4.39-.89-2.11,1.29-4.31,2.59-6.55,3.86-1.49.79-2.05,2.63-1.26,4.12.02.03.03.06.05.08.79,1.24,2.33,1.78,3.72,1.3.22-.07.43-.17.64-.28,2.29-1.31,4.55-2.64,6.71-3.96,1.46-.83,1.96-2.68,1.14-4.14-.02-.03-.04-.06-.06-.1"/>
          <path id="Caminho_457-2" data-name="Caminho 457-2" class="cls-7" d="M1682.18,395.37c-.86-1.51-2.76-2.06-4.29-1.24-2.23,1.13-4.53,2.27-6.85,3.38-1.55.69-2.25,2.51-1.56,4.06,0,.02.02.04.03.06.73,1.38,2.36,2.02,3.83,1.5.15-.05.29-.1.43-.17,2.36-1.13,4.7-2.29,6.98-3.44,1.53-.72,2.19-2.55,1.47-4.08-.01-.02-.02-.05-.03-.07"/>
          <path id="Caminho_458-2" data-name="Caminho 458-2" class="cls-7" d="M1668.11,277.83c-.29,1.61.78,3.15,2.39,3.45.06.01.12.02.19.03,2.65.38,5.33.6,8.01.67.38,0,.76-.05,1.13-.16,1.26-.39,2.15-1.5,2.25-2.82.08-1.66-1.2-3.06-2.86-3.13-.05,0-.1,0-.15,0-2.42-.06-4.84-.26-7.23-.6-1.73-.26-3.36.87-3.72,2.58"/>
          <path id="Caminho_459-2" data-name="Caminho 459-2" class="cls-7" d="M1764.67,321.68c.74-1.44.17-3.2-1.27-3.94-.07-.04-.14-.07-.21-.1-1.61-.68-3.47,0-4.27,1.55-1.08,2.16-2.24,4.34-3.46,6.47-.82,1.39-.35,3.19,1.04,4.01.07.04.14.08.21.11,1.57.76,3.47.18,4.35-1.33,1.27-2.23,2.49-4.51,3.62-6.77"/>
          <path id="Caminho_460-2" data-name="Caminho 460-2" class="cls-7" d="M1629.81,232.56c-.37,2.59-.53,5.21-.46,7.83.08,1.67,1.5,2.96,3.17,2.87.04,0,.08,0,.12,0,.29-.02.58-.07.86-.16,1.35-.41,2.27-1.67,2.26-3.08-.06-2.28.07-4.57.4-6.83.22-1.63-.93-3.13-2.55-3.34-.06,0-.12-.01-.18-.02-1.73-.19-3.32,1-3.61,2.72"/>
          <path id="Caminho_461-2" data-name="Caminho 461-2" class="cls-7" d="M1822.61,188.28c.87.78,2.09,1.03,3.2.66.5-.16.95-.44,1.32-.8,1.78-1.76,3.61-3.59,5.42-5.42,1.18-1.13,1.21-3.01.08-4.18-.05-.05-.09-.09-.14-.14-1.33-1.14-3.31-1.05-4.53.2-1.79,1.82-3.6,3.62-5.36,5.37-1.19,1.12-1.25,2.99-.13,4.19.04.05.09.09.14.14"/>
          <path id="Caminho_462-2" data-name="Caminho 462-2" class="cls-7" d="M1673.32,193.78c2.33-.74,4.7-1.36,7.1-1.84.13-.03.26-.06.39-.1,1.51-.46,2.46-1.96,2.21-3.53-.35-1.66-1.99-2.73-3.66-2.37-.02,0-.04,0-.05.01-2.64.53-5.26,1.21-7.83,2.03-1.63.42-2.61,2.08-2.2,3.71s2.08,2.61,3.71,2.2c.11-.03.22-.06.33-.1"/>
          <path id="Caminho_463-2" data-name="Caminho 463-2" class="cls-7" d="M1747.49,338.08c-1.42,1.99-2.93,3.98-4.47,5.92-1.04,1.25-.86,3.1.39,4.14.06.05.11.09.17.13.85.59,1.93.75,2.91.42.62-.2,1.17-.58,1.58-1.09,1.6-2.02,3.17-4.1,4.66-6.17.97-1.3.7-3.14-.6-4.11-.06-.05-.12-.09-.19-.13-1.49-.92-3.43-.53-4.46.89"/>
          <path id="Caminho_464-2" data-name="Caminho 464-2" class="cls-7" d="M1693.6,274.53c-1.7.31-2.85,1.92-2.58,3.63.36,1.66,2.01,2.72,3.67,2.36.02,0,.03,0,.05-.01,2.56-.52,5.18-1.19,7.77-1.96l.08-.02c1.63-.43,2.59-2.1,2.16-3.72s-2.1-2.59-3.72-2.16c-.08.02-.17.05-.25.08-2.4.72-4.82,1.33-7.18,1.81"/>
          <path id="Caminho_465-2" data-name="Caminho 465-2" class="cls-7" d="M1652.94,204.38c.37-.12.72-.3,1.03-.54,1.92-1.49,3.92-2.85,6-4.09,1.47-.81,2-2.66,1.18-4.13-.02-.03-.03-.06-.05-.09-.97-1.44-2.9-1.86-4.38-.95-2.32,1.38-4.56,2.9-6.69,4.55-1.34.98-1.62,2.86-.65,4.19.03.04.06.08.09.12.86.99,2.23,1.36,3.46.93"/>
          <path id="Caminho_466-2" data-name="Caminho 466-2" class="cls-7" d="M1638.39,221.66c.84-.27,1.53-.86,1.93-1.64.83-1.63,1.76-3.21,2.78-4.73.29-.42.58-.84.88-1.25.98-1.29.73-3.13-.56-4.11-.06-.05-.12-.09-.18-.13-1.48-.93-3.43-.56-4.46.85-.34.47-.68.94-1,1.42-1.18,1.74-2.25,3.55-3.2,5.43-.74,1.44-.18,3.2,1.25,3.95.07.04.14.07.21.1.74.32,1.58.36,2.35.1"/>
          <path id="Caminho_467-2" data-name="Caminho 467-2" class="cls-7" d="M1872.97,127.57c-1.53,1.95-3.11,3.93-4.7,5.9-1.05,1.24-.89,3.1.35,4.14.06.05.11.09.17.14.85.6,1.94.76,2.93.43.62-.2,1.16-.57,1.57-1.07,1.6-1.99,3.2-3.99,4.75-5.96,1.03-1.25.85-3.1-.4-4.14-.06-.05-.12-.09-.18-.14-1.45-.98-3.41-.68-4.49.7"/>
          <path id="Caminho_468-2" data-name="Caminho 468-2" class="cls-7" d="M1648.22,273.32c2.25,1.42,4.61,2.67,7.06,3.72,1.61.68,3.47,0,4.28-1.55.74-1.44.17-3.2-1.27-3.94-.07-.04-.14-.07-.21-.1-2.15-.92-4.21-2.01-6.19-3.26-1.49-.91-3.43-.52-4.46.9-.97,1.3-.69,3.14.61,4.1.06.05.12.09.19.13"/>
          <path id="Caminho_469-2" data-name="Caminho 469-2" class="cls-7" d="M1584.2,432c15.45.8,35.29,4.08,48.65,9.81l-14.62-19.29c-.02-.17-.06-.34-.11-.5-.05-.14-.11-.28-.18-.41l1.99-24.25c-8.19,12.07-23.14,25.59-35.73,34.64"/>
        </g>
      </g>
    </g>
  </g>
</svg>