<?xml version="1.0" encoding="UTF-8"?>
<svg id="_Ñëîé_1" data-name="Ñëîé 1" xmlns="http://www.w3.org/2000/svg" viewBox="0 0 80 80">
  <defs>
    <style>
      .cls-1 {
        fill: #fff;
      }

      .cls-2 {
        fill: #bd5334;
      }
    </style>
  </defs>
  <circle class="cls-2" cx="40" cy="40" r="34.57"/>
  <path class="cls-1" d="M53.8,54.55s-.03-.02-.04-.03l-7.3-6.17c-.11-.1-.2-.22-.25-.36l-5.09-14.67c-.04-.11-.05-.23-.04-.35l1.35-13.27s.03-1.44-.07-2.18c-.29-2.32-1.64-4.4-3.69-5.77l.76,6.12c.08.63-.09,1.25-.48,1.75-.39.5-.95.82-1.57.89l-8.94,1.11c-1.29.16-2.48-.76-2.64-2.06l-.76-6.12c-1.66,1.84-2.45,4.18-2.17,6.5.25,1.98,1.27,3.82,2.89,5.17l.06.04c.21.17,4.55,3.49,7.42,5.68.13.1.22.23.28.38l6.04,17.4c.05.13.06.27.03.41l-1.94,11.55s0,.07,0,.11c-.07.66-.08,1.25,0,1.8.29,2.32,1.64,4.4,3.69,5.77l-.76-6.12c-.08-.63.09-1.25.48-1.75.28-.36.66-.63,1.09-.78.16-.05.32-.09.49-.11l8.94-1.11c.63-.08,1.25.09,1.75.48.5.39.82.95.89,1.57l.76,6.12c1.66-1.84,2.45-4.18,2.17-6.5-.27-2.17-1.45-4.13-3.33-5.52Z"/>
</svg>