<?xml version="1.0" encoding="UTF-8"?>
<svg id="_Ñëîé_1" data-name="Ñëîé 1" xmlns="http://www.w3.org/2000/svg" viewBox="0 0 80 80">
  <defs>
    <style>
      .cls-1 {
        fill: #fff;
      }

      .cls-2 {
        fill: #bd5334;
      }
    </style>
  </defs>
  <circle class="cls-2" cx="40" cy="40" r="34.57"/>
  <g>
    <path class="cls-1" d="M48.45,15.5l-14.11,4.87c-.08.03-.17.04-.26.04-.33,0-.63-.21-.75-.53-.14-.41.08-.86.49-1l14.62-5.05v-3.82l-16.9,5.78v8.79l10.64-3.6c.42-.14.86.08,1,.5.14.41-.08.86-.5,1l-11.15,3.77v4.45h16.9v-15.19Z"/>
    <path class="cls-1" d="M34.45,70h4.76v-16.63h-2.53c-.44,0-.79-.35-.79-.79v-5.13c0-.44.35-.79.79-.79h6.65c.44,0,.79.35.79.79v5.13c0,.44-.35.79-.79.79h-2.53v16.63h4.76v-26.3h-11.09v26.3Z"/>
    <rect class="cls-1" x="37.47" y="48.25" width="5.07" height="3.55"/>
    <path class="cls-1" d="M28.07,32.26v27.85c0,3.31,1.89,6.3,4.8,7.76v-24.96c0-.44.35-.79.79-.79h12.67c.44,0,.79.35.79.79v24.96c2.91-1.46,4.8-4.45,4.8-7.76v-27.85h-23.86Z"/>
  </g>
</svg>