<svg id="NUSMAD_Mod02_Img30" xmlns="http://www.w3.org/2000/svg" xmlns:xlink="http://www.w3.org/1999/xlink" width="1563" height="383.249" viewBox="0 0 1563 383.249">
  <defs>
    <clipPath id="clip-path">
      <rect id="Retângulo_323" data-name="Retângulo 323" width="1563" height="383.249" fill="none"/>
    </clipPath>
    <clipPath id="clip-path-2">
      <rect id="Retângulo_320" data-name="Retângulo 320" width="1562.997" height="383.249" fill="none"/>
    </clipPath>
    <clipPath id="clip-path-4">
      <rect id="Retângulo_319" data-name="Retângulo 319" width="1414.117" height="51.965" fill="none"/>
    </clipPath>
  </defs>
  <g id="Grupo_465" data-name="Grupo 465" clip-path="url(#clip-path)">
    <g id="Grupo_460" data-name="Grupo 460">
      <g id="Grupo_459" data-name="Grupo 459" clip-path="url(#clip-path-2)">
        <g id="Grupo_455" data-name="Grupo 455" opacity="0.62" style="isolation: isolate">
          <g id="Grupo_454" data-name="Grupo 454">
            <g id="Grupo_453" data-name="Grupo 453" clip-path="url(#clip-path)">
              <path id="Caminho_2048" data-name="Caminho 2048" d="M46.231,0H1516.766A46.23,46.23,0,0,1,1563,46.231V337.018a46.231,46.231,0,0,1-46.231,46.231H46.231A46.231,46.231,0,0,1,0,337.018V46.231A46.23,46.23,0,0,1,46.231,0" fill="#fff7eb"/>
            </g>
          </g>
        </g>
        <path id="Caminho_2049" data-name="Caminho 2049" d="M878.474,151.332c-.718-.385-1.426-.782-2.136-1.18a133.715,133.715,0,0,1-16.381,12.2l4.378-.139a138.06,138.06,0,0,0,14.139-10.881" transform="translate(309.355 54.015)" fill="#4b8287"/>
        <path id="Caminho_2050" data-name="Caminho 2050" d="M856.782,192.373c-54.233,11.192-111.156,15.865-164.571,1.259a207.919,207.919,0,0,1-56.127-24.682l-4.038.128a210.273,210.273,0,0,0,62.306,27.471c44.534,11.607,91.31,10.066,136.426,2.891,40.026-6.365,82.4-15.387,116.566-38.331,1.057-.71,2.1-1.441,3.141-2.185l-4.161.133c-26.3,17.7-58.187,26.847-89.541,33.316" transform="translate(227.368 57.17)" fill="#4b8287"/>
        <path id="Caminho_2051" data-name="Caminho 2051" d="M875.482,150.523c.079-.071.155-.144.234-.215q-1.081-.583-2.151-1.19c-.518.47-1.033.945-1.561,1.406.708.4,1.418.8,2.136,1.18.447-.394.9-.781,1.342-1.182" transform="translate(313.689 53.643)" fill="#4b8287"/>
        <path id="Caminho_2052" data-name="Caminho 2052" d="M608.453,144.7q.85.916,1.715,1.821,1-.61,1.988-1.228-.867-.9-1.72-1.813-.989.612-1.982,1.22" transform="translate(218.881 51.616)" fill="#4b8287"/>
        <path id="Caminho_2053" data-name="Caminho 2053" d="M1003.11,159.584c-35.049,5.077-71.616,8.429-105.615-.25l-6.861.219a153.112,153.112,0,0,0,26.224,5.731c46.1,5.956,91.808-5.423,137.367-10.7,1.047-.121,2.094-.235,3.141-.349l-23.309.744c-10.341,1.49-20.664,3.114-30.947,4.6" transform="translate(320.391 55.484)" fill="#4b8287"/>
        <path id="Caminho_2054" data-name="Caminho 2054" d="M874.734,150.424q.965.522,1.939,1.023c.582-.551,1.164-1.1,1.735-1.66-.643-.328-1.288-.653-1.927-.993q-.865.826-1.747,1.63" transform="translate(314.671 53.526)" fill="#4b8287"/>
        <path id="Caminho_2055" data-name="Caminho 2055" d="M887.8,156.361a142.531,142.531,0,0,0,14.9,4.668l8.222-.262A129.7,129.7,0,0,1,878.82,150c-.31-.154-.616-.318-.926-.476-.571.562-1.152,1.111-1.734,1.66a109.743,109.743,0,0,0,11.639,5.178" transform="translate(315.184 53.788)" fill="#4b8287"/>
        <path id="Caminho_2056" data-name="Caminho 2056" d="M836.435,99.913c2.389-25.336,24.648-50.889,49.645-46.122,14.213,2.711,25.339,14.425,31.4,27.563,15.8,34.23,1.07,76.48-26.293,102.562.639.34,1.282.665,1.927.991,20.378-20,34.132-46.988,33.066-76.1-.635-17.313-7.057-35.32-20.154-47.126-12.482-11.252-29.732-14.03-44.542-5.643-14.661,8.3-24.645,24.66-26.992,41.156-2.418,17,2.087,34.445,10.6,49.171,9.878,17.093,24.111,30.11,40.64,39.393.526-.461,1.042-.936,1.561-1.406-30.756-17.477-54.134-49.7-50.857-84.444" transform="translate(299.962 18.406)" fill="#4b8287"/>
        <path id="Caminho_2057" data-name="Caminho 2057" d="M1091.442,153.843l-16.1.514c5.178.354,10.346.891,15.5,1.671,2.853.431,4.083-3.934,1.2-4.37-36.855-5.578-73.495.235-109.99,5.673l19.116-.609c30.111-4.339,60.371-7.532,90.271-2.879" transform="translate(353.278 53.741)" fill="#4b8287"/>
        <path id="Caminho_2058" data-name="Caminho 2058" d="M644.117,174.025l4.094-.131A182.241,182.241,0,0,1,611.7,144.815q-.991.618-1.988,1.228a182.966,182.966,0,0,0,34.4,27.982" transform="translate(219.335 52.095)" fill="#4b8287"/>
        <path id="Caminho_2059" data-name="Caminho 2059" d="M417.974,178.671l4.1-.131a165.458,165.458,0,0,1-24.87-19.749q-1.071.567-2.161,1.105a167.631,167.631,0,0,0,22.932,18.774" transform="translate(142.11 57.123)" fill="#4b8287"/>
        <path id="Caminho_2060" data-name="Caminho 2060" d="M175.635,182.891l14.213-.453q-6.814-.8-13.611-1.732c-2.851-.4-4.085,3.969-1.2,4.37a641.509,641.509,0,0,0,228.873-9.464l-12.743.405a636.41,636.41,0,0,1-215.527,6.873" transform="translate(62.375 63.174)" fill="#4b8287"/>
        <path id="Caminho_2061" data-name="Caminho 2061" d="M393.775,158.633c.573.574,1.144,1.146,1.723,1.712q1.087-.54,2.161-1.107c-.582-.559-1.164-1.12-1.738-1.689-.71.368-1.425.732-2.146,1.084" transform="translate(141.654 56.676)" fill="#4b8287"/>
        <path id="Caminho_2062" data-name="Caminho 2062" d="M392.773,168.4a185.4,185.4,0,0,0,24.258-8.853c-.551-.556-1.1-1.112-1.644-1.675-12.172,5.621-25.443,9.156-38.217,12.665q-26.749,7.347-54.075,12.312l14.213-.453q28.03-5.741,55.465-14" transform="translate(116.228 56.793)" fill="#4b8287"/>
        <path id="Caminho_2063" data-name="Caminho 2063" d="M394.784,158.787c-.552-.553-1.1-1.107-1.649-1.668q-1.077.526-2.163,1.028c.543.563,1.092,1.119,1.643,1.675q1.093-.506,2.17-1.035" transform="translate(140.645 56.521)" fill="#4b8287"/>
        <path id="Caminho_2064" data-name="Caminho 2064" d="M365.855,134.92c-6.4-15.664-11.025-32.715-8.313-49.417s14.289-32.835,30.784-36.6c18.068-4.13,36.88,7.708,46.167,23.748s10.943,35.3,11.064,53.835c.116,17.572-1.267,36.128-11.086,50.7-6.081,9.025-14.707,15.539-24.4,20.569.575.568,1.157,1.129,1.739,1.689A72.108,72.108,0,0,0,430.391,185.8c13.992-14.582,17.157-34.838,17.418-54.281.273-20.255-.921-42.095-11.359-60.021-8.41-14.442-24.362-26.135-41.605-25.687-17.546.456-31.135,13.9-36.982,29.635-7.427,19.992-1.6,42.209,6.238,61.116a198.39,198.39,0,0,0,40.012,61.624q1.087-.5,2.163-1.028a196.152,196.152,0,0,1-40.421-62.245" transform="translate(127.502 16.477)" fill="#4b8287"/>
        <path id="Caminho_2065" data-name="Caminho 2065" d="M618.948,168.628C564.6,194.472,505.438,211.774,449.617,193.4a147.754,147.754,0,0,1-36.706-18.2l-3.8.121c.451.318.9.642,1.352.956,33.435,23.162,73.941,30.594,113.917,25.257,35.063-4.682,68.473-17.562,100.218-33.085Z" transform="translate(147.172 60.596)" fill="#4b8287"/>
        <path id="Caminho_2066" data-name="Caminho 2066" d="M588.676,136.443c-7.874-20.729-10.664-44.261-2.838-65.007s27.937-37.624,50.108-37.193c25.521.495,46.708,24.127,49.841,49.46s-8.742,50.713-26.131,69.4c-11.212,12.05-24.542,21.753-38.582,30.44q.853.914,1.72,1.811c23.158-14.434,44.34-31.92,56.542-56.535,8.187-16.515,12.04-36.022,6.943-54.07-4.537-16.068-15.86-30.839-31.075-38.089-15.623-7.443-33.459-5.481-47.742,4.062-15.5,10.354-25.064,27.159-27.684,45.453-5.113,35.693,12.276,71.852,35.821,98.114.655-.4,1.307-.8,1.959-1.2a148.278,148.278,0,0,1-28.881-46.643" transform="translate(208.242 11.556)" fill="#4b8287"/>
        <path id="Caminho_2067" data-name="Caminho 2067" d="M609.377,144.824q-.773-.832-1.534-1.677c-.653.4-1.3.806-1.959,1.2.5.562,1.009,1.115,1.518,1.667q.989-.594,1.976-1.194" transform="translate(217.957 51.495)" fill="#4b8287"/>
        <path id="Caminho_2068" data-name="Caminho 2068" d="M604.523,156.936c6.588-3.64,13.184-7.347,19.66-11.237-.509-.552-1.014-1.105-1.518-1.667-12.462,7.556-25.375,14.435-38.264,21.147q-12.442,6.478-25.169,12.414l5.712-.182c13.533-6.436,26.768-13.4,39.578-20.475" transform="translate(201.175 51.813)" fill="#4b8287"/>
        <path id="Caminho_2069" data-name="Caminho 2069" d="M610.236,145.719c-.657.4-1.314.806-1.974,1.2.406.428.81.862,1.221,1.285A184.5,184.5,0,0,0,640.6,173.83l4.037-.129a182.964,182.964,0,0,1-34.4-27.982" transform="translate(218.812 52.42)" fill="#4b8287"/>
        <path id="Caminho_2070" data-name="Caminho 2070" d="M415,160.838q-.873-.859-1.734-1.731a185.4,185.4,0,0,1-24.258,8.853q-27.394,8.262-55.465,14l12.743-.407q21.848-4.928,43.324-11.4A186.355,186.355,0,0,0,415,160.838" transform="translate(119.988 57.236)" fill="#4b8287"/>
        <path id="Caminho_2071" data-name="Caminho 2071" d="M395.613,159.6c-.717.356-1.433.713-2.159,1.054A172.7,172.7,0,0,0,414.749,178.5l3.8-.121A167.752,167.752,0,0,1,395.613,159.6" transform="translate(141.539 57.415)" fill="#4b8287"/>
        <path id="Caminho_2072" data-name="Caminho 2072" d="M596.9,150c-17.074-32.559-23.222-80.151,10.459-104.685,13.763-10.025,31.521-12.47,46.807-4.367,14.54,7.707,24.89,22.578,28.144,38.595,8.176,40.252-23.449,75.2-54.185,95.83-3.028,2.033-6.108,4-9.208,5.928q.769.846,1.55,1.681c14.042-8.686,27.37-18.39,38.582-30.439,17.39-18.687,29.266-44.068,26.133-69.4s-24.322-48.965-49.842-49.462c-22.17-.43-42.278,16.446-50.106,37.194s-5.036,44.277,2.836,65.007a148.282,148.282,0,0,0,28.882,46.642c.657-.4,1.309-.816,1.965-1.224A151,151,0,0,1,596.9,150" transform="translate(208.852 12.114)" fill="#4b8287"/>
        <path id="Caminho_2073" data-name="Caminho 2073" d="M609.29,142.247c-.655.408-1.307.82-1.965,1.224q.761.844,1.534,1.677.993-.606,1.983-1.22-.781-.836-1.552-1.681" transform="translate(218.475 51.171)" fill="#4b8287"/>
        <path id="Caminho_2074" data-name="Caminho 2074" d="M624.388,147.088q-.863-.908-1.716-1.83c-6.476,3.889-13.073,7.6-19.66,11.235-12.81,7.076-26.044,14.041-39.578,20.476l5.654-.181c7.043-3.444,14.007-7.016,20.885-10.659,11.309-5.99,23.049-12.182,34.415-19.042" transform="translate(202.686 52.254)" fill="#4b8287"/>
        <path id="Caminho_2075" data-name="Caminho 2075" d="M874.9,147.927q-.867.82-1.751,1.621,1.069.606,2.151,1.188.881-.8,1.747-1.63c-.719-.382-1.433-.779-2.147-1.179" transform="translate(314.102 53.214)" fill="#4b8287"/>
        <path id="Caminho_2076" data-name="Caminho 2076" d="M610.69,146.2q-.865-.9-1.715-1.821-.985.6-1.976,1.194.853.926,1.716,1.832c.661-.4,1.318-.8,1.974-1.2" transform="translate(218.358 51.938)" fill="#4b8287"/>
        <path id="Caminho_2077" data-name="Caminho 2077" d="M837.79,105.9c.011-16.707,7.457-33.617,21.077-43.7,14.382-10.641,32.344-8.818,44.973,3.673,25.88,25.6,19.39,67.882,1.577,95.886a107.294,107.294,0,0,1-16.979,20.43c.714.4,1.428.8,2.147,1.179,27.363-26.081,42.1-68.331,26.293-102.561-6.064-13.138-17.188-24.852-31.4-27.563-25-4.769-47.257,20.785-49.647,46.122-3.276,34.743,20.1,66.966,50.857,84.442q.885-.8,1.751-1.619c-27.516-15.433-50.671-43.684-50.649-76.293" transform="translate(300.566 18.947)" fill="#4b8287"/>
        <path id="Caminho_2078" data-name="Caminho 2078" d="M877.09,151.016q-.973-.5-1.939-1.023l-.234.216c-.443.4-.9.787-1.344,1.18.661.355,1.326.7,1.992,1.042q.767-.7,1.524-1.415" transform="translate(314.254 53.958)" fill="#4b8287"/>
        <path id="Caminho_2079" data-name="Caminho 2079" d="M392.179,159.382q.861.871,1.734,1.731c.726-.341,1.443-.7,2.159-1.054-.579-.566-1.15-1.139-1.723-1.712-.719.351-1.441.7-2.17,1.035" transform="translate(141.08 56.963)" fill="#4b8287"/>
        <path id="Caminho_2080" data-name="Caminho 2080" d="M448.613,193.349c55.821,18.377,114.985,1.076,169.33-24.769l-5.712.182c-10.307,4.784-20.765,9.237-31.423,13.183-37.5,13.883-78.593,22-118.222,12.938a145.748,145.748,0,0,1-46.58-19.863l-4.1.131a147.635,147.635,0,0,0,36.706,18.2" transform="translate(148.177 60.644)" fill="#4b8287"/>
        <path id="Caminho_2081" data-name="Caminho 2081" d="M691.142,193.6c53.416,14.606,110.337,9.933,164.571-1.259,31.353-6.471,63.24-15.615,89.54-33.316l-4.378.139c-16.568,10.538-35.4,17.924-54.106,23.314C847.2,193.879,805.1,200.5,763.9,200.5c-39.545.005-79.415-7.2-114.567-25.887q-5.191-2.76-10.223-5.831l-4.094.131A207.928,207.928,0,0,0,691.142,193.6" transform="translate(228.436 57.206)" fill="#4b8287"/>
        <path id="Caminho_2082" data-name="Caminho 2082" d="M394.713,156.333c-.711.368-1.432.718-2.152,1.069.545.562,1.1,1.115,1.651,1.668q1.081-.528,2.144-1.082c-.552-.547-1.1-1.1-1.643-1.655" transform="translate(141.217 56.238)" fill="#4b8287"/>
        <path id="Caminho_2083" data-name="Caminho 2083" d="M396.146,182.43a195.953,195.953,0,0,1-26.735-44.049c-8.016-18.148-14.737-39.472-8.833-59.222,4.985-16.673,19.573-31.139,37.983-29.252,18.612,1.909,32.572,17.629,38.453,34.4,6.354,18.125,6.725,39.039,5.136,58.021-.832,9.93-2.881,20-7.666,28.836a54.675,54.675,0,0,1-17.8,19.089,89.387,89.387,0,0,1-8.871,5.236c.545.553,1.091,1.108,1.644,1.653,9.694-5.03,18.318-11.544,24.4-20.567,9.819-14.572,11.2-33.129,11.087-50.7-.121-18.533-1.777-37.8-11.066-53.836s-28.1-27.877-46.167-23.748c-16.495,3.771-28.072,19.9-30.783,36.6s1.916,33.753,8.313,49.417a196.129,196.129,0,0,0,40.421,62.245c.719-.352,1.44-.7,2.151-1.069q-6.137-6.233-11.669-13.064" transform="translate(128.115 17.076)" fill="#4b8287"/>
        <path id="Caminho_2084" data-name="Caminho 2084" d="M390.568,175.911l-14.213.453q-4.824.879-9.658,1.69a635.379,635.379,0,0,1-128.068,8.1q-24.753-.938-49.375-3.825l-14.213.454a636.478,636.478,0,0,0,215.527-6.873" transform="translate(62.968 63.281)" fill="#4b8287"/>
        <path id="Caminho_2085" data-name="Caminho 2085" d="M877.316,151.02A138.06,138.06,0,0,1,863.177,161.9l4.162-.133a129.02,129.02,0,0,0,11.968-9.707c-.666-.341-1.333-.687-1.992-1.04" transform="translate(310.514 54.327)" fill="#4b8287"/>
        <path id="Caminho_2086" data-name="Caminho 2086" d="M1001.295,159.387c10.284-1.49,20.607-3.114,30.947-4.6l-19.118.609c-7.124,1.062-14.243,2.109-21.357,3.055-28.508,3.788-59.174,6.217-87.866.427l-8.221.262c34,8.679,70.566,5.327,105.615.25" transform="translate(322.206 55.681)" fill="#4b8287"/>
        <path id="Caminho_2087" data-name="Caminho 2087" d="M996.113,156.149l23.31-.744c16.882-1.845,33.925-2.778,50.862-1.621l16.1-.514c-29.9-4.653-60.16-1.46-90.271,2.879" transform="translate(358.335 54.313)" fill="#4b8287"/>
        <path id="Caminho_2088" data-name="Caminho 2088" d="M888.174,155.985a109.55,109.55,0,0,1-11.5-5.478q-.775.7-1.561,1.375a135.093,135.093,0,0,0,20.974,9.2l6.863-.039a142.435,142.435,0,0,1-14.775-5.054" transform="translate(314.807 54.142)" fill="#4b8287"/>
        <path id="Caminho_2089" data-name="Caminho 2089" d="M890.419,144.961c-.718-.385-1.426-.782-2.136-1.18a133.72,133.72,0,0,1-16.381,12.2l4.378-.139a138.059,138.059,0,0,0,14.138-10.881" transform="translate(313.652 51.723)" fill="#811711"/>
        <path id="Caminho_2090" data-name="Caminho 2090" d="M868.728,186c-54.234,11.192-111.155,15.865-164.571,1.259A207.919,207.919,0,0,1,648.03,162.58l-4.04.128A210.281,210.281,0,0,0,706.3,190.178c44.534,11.607,91.31,10.066,136.426,2.891,40.026-6.365,82.4-15.387,116.565-38.331,1.058-.71,2.1-1.441,3.141-2.185l-4.161.133c-26.3,17.7-58.188,26.847-89.54,33.316" transform="translate(231.665 54.878)" fill="#811711"/>
        <path id="Caminho_2091" data-name="Caminho 2091" d="M887.428,144.152c.079-.071.155-.144.234-.215q-1.081-.583-2.151-1.19c-.518.47-1.033.945-1.561,1.406.708.4,1.418.8,2.136,1.18.447-.394.9-.78,1.342-1.182" transform="translate(317.986 51.351)" fill="#811711"/>
        <path id="Caminho_2092" data-name="Caminho 2092" d="M620.4,138.332q.851.916,1.715,1.821,1-.61,1.988-1.228-.867-.9-1.72-1.813-.989.612-1.982,1.22" transform="translate(223.178 49.324)" fill="#811711"/>
        <path id="Caminho_2093" data-name="Caminho 2093" d="M1015.056,153.213c-35.048,5.077-71.616,8.429-105.615-.25l-6.861.219a153.085,153.085,0,0,0,26.224,5.731c46.1,5.956,91.808-5.423,137.367-10.7,1.047-.121,2.094-.235,3.141-.349l-23.309.744c-10.341,1.49-20.664,3.114-30.948,4.6" transform="translate(324.688 53.192)" fill="#811711"/>
        <path id="Caminho_2094" data-name="Caminho 2094" d="M886.68,144.053q.965.522,1.939,1.023c.582-.551,1.164-1.1,1.735-1.66-.643-.328-1.288-.653-1.927-.993q-.865.826-1.747,1.63" transform="translate(318.969 51.234)" fill="#811711"/>
        <path id="Caminho_2095" data-name="Caminho 2095" d="M899.745,149.99a142.52,142.52,0,0,0,14.9,4.668l8.222-.262a129.7,129.7,0,0,1-32.1-10.768c-.31-.154-.616-.318-.926-.476-.571.562-1.152,1.111-1.734,1.66a109.7,109.7,0,0,0,11.639,5.178" transform="translate(319.481 51.497)" fill="#811711"/>
        <path id="Caminho_2096" data-name="Caminho 2096" d="M848.381,93.541c2.389-25.336,24.648-50.889,49.645-46.122,14.213,2.711,25.339,14.425,31.4,27.563,15.8,34.23,1.07,76.48-26.293,102.562.639.34,1.284.665,1.927.991,20.378-20,34.132-46.988,33.066-76.095-.635-17.315-7.057-35.322-20.154-47.127-12.482-11.252-29.732-14.03-44.542-5.643-14.661,8.3-24.645,24.66-26.992,41.156-2.417,17,2.087,34.445,10.6,49.171,9.878,17.093,24.111,30.11,40.64,39.393.526-.461,1.042-.936,1.561-1.406-30.756-17.477-54.134-49.7-50.857-84.444" transform="translate(304.259 16.113)" fill="#811711"/>
        <path id="Caminho_2097" data-name="Caminho 2097" d="M1103.387,147.472l-16.1.514c5.179.354,10.348.891,15.5,1.671,2.853.431,4.083-3.934,1.2-4.37-36.856-5.578-73.495.235-109.99,5.673l19.116-.609c30.111-4.339,60.371-7.532,90.271-2.879" transform="translate(357.575 51.449)" fill="#811711"/>
        <path id="Caminho_2098" data-name="Caminho 2098" d="M656.062,167.654l4.094-.131a182.239,182.239,0,0,1-36.509-29.079q-.991.618-1.988,1.228a182.966,182.966,0,0,0,34.4,27.982" transform="translate(223.632 49.803)" fill="#811711"/>
        <path id="Caminho_2099" data-name="Caminho 2099" d="M429.92,172.3l4.1-.131a165.454,165.454,0,0,1-24.87-19.749q-1.071.567-2.161,1.105A167.629,167.629,0,0,0,429.92,172.3" transform="translate(146.407 54.831)" fill="#811711"/>
        <path id="Caminho_2100" data-name="Caminho 2100" d="M187.581,176.52l14.213-.453q-6.814-.8-13.611-1.732c-2.851-.4-4.085,3.969-1.2,4.37a641.509,641.509,0,0,0,228.873-9.464l-12.743.405a636.41,636.41,0,0,1-215.527,6.873" transform="translate(66.672 60.882)" fill="#811711"/>
        <path id="Caminho_2101" data-name="Caminho 2101" d="M405.721,152.262c.572.574,1.144,1.146,1.723,1.712.725-.36,1.447-.729,2.161-1.107-.582-.559-1.164-1.12-1.738-1.689-.71.368-1.425.732-2.146,1.084" transform="translate(145.951 54.384)" fill="#811711"/>
        <path id="Caminho_2102" data-name="Caminho 2102" d="M404.719,162.032a185.4,185.4,0,0,0,24.258-8.853c-.551-.556-1.1-1.112-1.644-1.675-12.172,5.621-25.443,9.156-38.217,12.665q-26.749,7.347-54.075,12.312l14.213-.453q28.03-5.741,55.465-14" transform="translate(120.525 54.501)" fill="#811711"/>
        <path id="Caminho_2103" data-name="Caminho 2103" d="M406.73,152.416c-.552-.553-1.1-1.107-1.649-1.668q-1.077.526-2.163,1.028c.543.563,1.092,1.119,1.643,1.675q1.093-.506,2.17-1.035" transform="translate(144.943 54.229)" fill="#811711"/>
        <path id="Caminho_2104" data-name="Caminho 2104" d="M377.8,128.548c-6.4-15.664-11.025-32.715-8.313-49.417s14.289-32.835,30.784-36.6c18.068-4.13,36.88,7.708,46.167,23.748s10.943,35.3,11.064,53.835c.116,17.572-1.267,36.128-11.086,50.7-6.081,9.025-14.706,15.539-24.4,20.569.575.568,1.157,1.129,1.739,1.689a72.107,72.107,0,0,0,18.581-13.633c13.992-14.582,17.157-34.838,17.418-54.281.273-20.255-.921-42.095-11.359-60.021C439.988,50.689,424.034,39,406.791,39.444c-17.546.456-31.135,13.9-36.982,29.635-7.427,19.992-1.6,42.209,6.238,61.116a198.392,198.392,0,0,0,40.012,61.624q1.087-.5,2.163-1.028A196.153,196.153,0,0,1,377.8,128.548" transform="translate(131.799 14.185)" fill="#811711"/>
        <path id="Caminho_2105" data-name="Caminho 2105" d="M630.894,162.257C576.548,188.1,517.385,205.4,461.563,187.026a147.755,147.755,0,0,1-36.706-18.2l-3.8.121c.451.318.9.642,1.352.956,33.435,23.162,73.941,30.594,113.917,25.257,35.063-4.682,68.473-17.562,100.219-33.085Z" transform="translate(151.47 58.304)" fill="#811711"/>
        <path id="Caminho_2106" data-name="Caminho 2106" d="M600.622,130.072c-7.874-20.729-10.664-44.261-2.838-65.007s27.937-37.624,50.108-37.193c25.521.495,46.708,24.127,49.841,49.46s-8.742,50.713-26.131,69.4c-11.212,12.05-24.541,21.753-38.582,30.44q.853.914,1.72,1.811c23.158-14.434,44.34-31.92,56.542-56.535,8.188-16.515,12.04-36.022,6.943-54.07C693.686,52.31,682.365,37.54,667.148,30.29c-15.622-7.443-33.459-5.481-47.742,4.062-15.5,10.354-25.064,27.159-27.684,45.453C586.61,115.5,604,151.657,627.543,177.919c.655-.4,1.307-.8,1.961-1.2a148.278,148.278,0,0,1-28.882-46.643" transform="translate(212.54 9.264)" fill="#811711"/>
        <path id="Caminho_2107" data-name="Caminho 2107" d="M621.322,138.453q-.773-.832-1.534-1.677c-.653.4-1.3.806-1.959,1.2.5.562,1.009,1.115,1.517,1.667q.989-.594,1.976-1.194" transform="translate(222.254 49.203)" fill="#811711"/>
        <path id="Caminho_2108" data-name="Caminho 2108" d="M616.469,150.565c6.587-3.64,13.183-7.347,19.659-11.237-.507-.552-1.013-1.105-1.516-1.667-12.463,7.556-25.375,14.435-38.264,21.147q-12.442,6.478-25.169,12.414l5.712-.182c13.533-6.436,26.769-13.4,39.578-20.475" transform="translate(205.472 49.521)" fill="#811711"/>
        <path id="Caminho_2109" data-name="Caminho 2109" d="M622.181,139.347c-.657.4-1.313.806-1.974,1.2.407.428.812.862,1.221,1.285a184.5,184.5,0,0,0,31.119,25.621l4.037-.129a182.966,182.966,0,0,1-34.4-27.982" transform="translate(223.109 50.128)" fill="#811711"/>
        <path id="Caminho_2110" data-name="Caminho 2110" d="M426.95,154.467q-.873-.859-1.734-1.731a185.4,185.4,0,0,1-24.258,8.853q-27.394,8.262-55.465,14l12.743-.407q21.848-4.928,43.324-11.4a186.354,186.354,0,0,0,25.389-9.307" transform="translate(124.286 54.944)" fill="#811711"/>
        <path id="Caminho_2111" data-name="Caminho 2111" d="M407.559,153.234c-.717.356-1.433.712-2.159,1.054a172.589,172.589,0,0,0,21.295,17.841l3.8-.121a167.749,167.749,0,0,1-22.932-18.774" transform="translate(145.836 55.123)" fill="#811711"/>
        <path id="Caminho_2112" data-name="Caminho 2112" d="M608.842,143.631C591.768,111.072,585.62,63.48,619.3,38.946c13.763-10.025,31.521-12.47,46.807-4.367,14.54,7.707,24.89,22.578,28.144,38.595,8.176,40.252-23.449,75.2-54.185,95.83-3.028,2.033-6.108,4-9.208,5.928q.769.846,1.551,1.681c14.041-8.686,27.369-18.39,38.582-30.439,17.388-18.687,29.264-44.068,26.131-69.4S672.8,27.808,647.282,27.312c-22.17-.43-42.278,16.447-50.106,37.194s-5.036,44.277,2.836,65.007a148.28,148.28,0,0,0,28.882,46.642c.657-.4,1.309-.816,1.965-1.224a151,151,0,0,1-22.017-31.3" transform="translate(213.149 9.822)" fill="#811711"/>
        <path id="Caminho_2113" data-name="Caminho 2113" d="M621.236,135.876c-.655.408-1.307.82-1.965,1.224q.761.844,1.534,1.677.993-.606,1.982-1.22-.781-.836-1.551-1.681" transform="translate(222.772 48.879)" fill="#811711"/>
        <path id="Caminho_2114" data-name="Caminho 2114" d="M636.334,140.717q-.863-.908-1.716-1.83c-6.476,3.889-13.073,7.6-19.66,11.235-12.81,7.076-26.044,14.041-39.578,20.476l5.654-.181c7.043-3.444,14.007-7.016,20.885-10.659,11.309-5.99,23.049-12.182,34.415-19.042" transform="translate(206.983 49.962)" fill="#811711"/>
        <path id="Caminho_2115" data-name="Caminho 2115" d="M886.849,141.556q-.867.82-1.751,1.621,1.069.606,2.151,1.188.881-.8,1.747-1.63c-.719-.382-1.433-.779-2.147-1.179" transform="translate(318.399 50.922)" fill="#811711"/>
        <path id="Caminho_2116" data-name="Caminho 2116" d="M622.635,139.829q-.865-.9-1.715-1.821-.985.6-1.976,1.194.853.926,1.716,1.832c.661-.4,1.318-.8,1.974-1.2" transform="translate(222.655 49.646)" fill="#811711"/>
        <path id="Caminho_2117" data-name="Caminho 2117" d="M849.736,99.53c.011-16.707,7.457-33.617,21.077-43.7,14.382-10.641,32.343-8.818,44.973,3.673,25.878,25.6,19.39,67.882,1.577,95.886a107.285,107.285,0,0,1-16.979,20.43c.714.4,1.428.8,2.147,1.179,27.363-26.081,42.1-68.331,26.293-102.561-6.064-13.138-17.188-24.852-31.4-27.563-25-4.769-47.256,20.785-49.645,46.122-3.276,34.743,20.1,66.966,50.857,84.442q.885-.8,1.751-1.619c-27.516-15.433-50.67-43.684-50.649-76.293" transform="translate(304.863 16.656)" fill="#811711"/>
        <path id="Caminho_2118" data-name="Caminho 2118" d="M889.036,144.645q-.975-.5-1.939-1.023l-.234.216c-.443.4-.9.787-1.343,1.18.661.355,1.326.7,1.992,1.042q.767-.7,1.524-1.415" transform="translate(318.551 51.666)" fill="#811711"/>
        <path id="Caminho_2119" data-name="Caminho 2119" d="M404.125,153.011c.575.581,1.15,1.158,1.734,1.731.726-.341,1.443-.7,2.159-1.054-.579-.566-1.15-1.139-1.723-1.712-.721.351-1.441.7-2.17,1.035" transform="translate(145.377 54.671)" fill="#811711"/>
        <path id="Caminho_2120" data-name="Caminho 2120" d="M460.559,186.978c55.821,18.377,114.984,1.076,169.33-24.769l-5.712.182c-10.307,4.784-20.765,9.237-31.424,13.183-37.5,13.883-78.593,22-118.222,12.938a145.748,145.748,0,0,1-46.58-19.863l-4.1.131a147.637,147.637,0,0,0,36.706,18.2" transform="translate(152.474 58.352)" fill="#811711"/>
        <path id="Caminho_2121" data-name="Caminho 2121" d="M703.088,187.226c53.416,14.606,110.337,9.933,164.571-1.259,31.353-6.471,63.24-15.615,89.54-33.316l-4.378.139c-16.568,10.538-35.4,17.924-54.107,23.314-39.572,11.4-81.67,18.021-122.871,18.027-39.545.005-79.415-7.2-114.567-25.887q-5.191-2.76-10.222-5.831l-4.094.131a207.946,207.946,0,0,0,56.128,24.682" transform="translate(232.733 54.914)" fill="#811711"/>
        <path id="Caminho_2122" data-name="Caminho 2122" d="M406.659,149.962c-.711.368-1.432.718-2.152,1.069.545.562,1.1,1.115,1.651,1.668q1.081-.528,2.144-1.082c-.552-.547-1.1-1.1-1.643-1.655" transform="translate(145.515 53.946)" fill="#811711"/>
        <path id="Caminho_2123" data-name="Caminho 2123" d="M408.092,176.059a195.954,195.954,0,0,1-26.735-44.049c-8.016-18.148-14.737-39.472-8.833-59.222,4.985-16.673,19.573-31.139,37.983-29.252,18.612,1.908,32.572,17.629,38.453,34.4,6.354,18.125,6.725,39.039,5.136,58.021-.832,9.93-2.881,20-7.666,28.836a54.675,54.675,0,0,1-17.8,19.089,89.4,89.4,0,0,1-8.871,5.236c.545.553,1.091,1.108,1.644,1.653,9.694-5.03,18.318-11.544,24.4-20.569,9.819-14.571,11.2-33.127,11.087-50.7-.121-18.535-1.779-37.8-11.065-53.836s-28.1-27.877-46.167-23.748c-16.495,3.769-28.072,19.9-30.783,36.6s1.916,33.753,8.312,49.417a196.156,196.156,0,0,0,40.422,62.245c.719-.352,1.44-.7,2.151-1.069q-6.137-6.233-11.669-13.064" transform="translate(132.413 14.785)" fill="#811711"/>
        <path id="Caminho_2124" data-name="Caminho 2124" d="M402.514,169.54l-14.213.453q-4.824.879-9.658,1.69a635.378,635.378,0,0,1-128.068,8.1q-24.753-.938-49.375-3.825l-14.213.454a636.479,636.479,0,0,0,215.527-6.873" transform="translate(67.265 60.989)" fill="#811711"/>
        <path id="Caminho_2125" data-name="Caminho 2125" d="M889.26,144.649a138.056,138.056,0,0,1-14.138,10.881l4.162-.133a129.009,129.009,0,0,0,11.968-9.707c-.666-.341-1.332-.687-1.992-1.04" transform="translate(314.811 52.035)" fill="#811711"/>
        <path id="Caminho_2126" data-name="Caminho 2126" d="M1013.241,153.016c10.284-1.49,20.607-3.114,30.948-4.6l-19.118.609c-7.124,1.062-14.243,2.109-21.357,3.055-28.508,3.788-59.174,6.217-87.866.427l-8.221.262c34,8.679,70.566,5.327,105.615.25" transform="translate(326.503 53.389)" fill="#811711"/>
        <path id="Caminho_2127" data-name="Caminho 2127" d="M1008.058,149.778l23.31-.744c16.882-1.845,33.925-2.778,50.861-1.622l16.1-.513c-29.9-4.653-60.16-1.46-90.271,2.879" transform="translate(362.632 52.021)" fill="#811711"/>
        <path id="Caminho_2128" data-name="Caminho 2128" d="M900.12,149.614a109.573,109.573,0,0,1-11.5-5.478q-.775.7-1.561,1.375a135.092,135.092,0,0,0,20.974,9.2l6.863-.039a142.437,142.437,0,0,1-14.775-5.054" transform="translate(319.104 51.851)" fill="#811711"/>
        <g id="Grupo_458" data-name="Grupo 458" transform="translate(142.424 302.884)" opacity="0.1" style="isolation: isolate">
          <g id="Grupo_457" data-name="Grupo 457">
            <g id="Grupo_456" data-name="Grupo 456" clip-path="url(#clip-path-4)">
              <path id="Caminho_2129" data-name="Caminho 2129" d="M811.805,222.752c390.5,0,707.061,11.633,707.061,25.982S1202.3,274.717,811.805,274.717s-707.061-11.633-707.061-25.983,316.562-25.982,707.061-25.982" transform="translate(-104.744 -222.753)" fill="#eecf98"/>
            </g>
          </g>
        </g>
        <path id="Caminho_2130" data-name="Caminho 2130" d="M166.79,289.389H23.693a9.778,9.778,0,0,1-9.778-9.778V64.364a9.779,9.779,0,0,1,9.778-9.778h143.1a9.779,9.779,0,0,1,9.778,9.778V279.611a9.778,9.778,0,0,1-9.778,9.778" transform="translate(5.006 19.636)" fill="#fff"/>
      </g>
    </g>
    <text id="Pessoa_em_crise" data-name="Pessoa em crise" transform="translate(37.194 122.424)" fill="#35576a" font-size="16" font-family="SourceSans3-Regular, 'Source Sans \33 '"><tspan x="0" y="0" letter-spacing="-0.023em">P</tspan><tspan y="0">ess</tspan><tspan y="0" letter-spacing="-0.013em">o</tspan><tspan y="0">a em crise</tspan></text>
    <text id="Rede_de_apoio" data-name="Rede de apoio" transform="translate(37.194 188.557)" fill="#35576a" font-size="16" font-family="SourceSans3-Regular, 'Source Sans \33 '"><tspan x="0" y="0" letter-spacing="-0.009em">R</tspan><tspan y="0">ede de apoio</tspan></text>
    <g id="Grupo_462" data-name="Grupo 462">
      <g id="Grupo_461" data-name="Grupo 461" clip-path="url(#clip-path-2)">
        <path id="Caminho_2131" data-name="Caminho 2131" d="M151.421,69.385H29.395a2.04,2.04,0,1,1,0-4.079H151.421a2.04,2.04,0,0,1,0,4.079" transform="translate(9.841 23.493)" fill="#811711"/>
        <path id="Caminho_2132" data-name="Caminho 2132" d="M151.421,119.88H29.395a2.04,2.04,0,0,1,0-4.079H151.421a2.04,2.04,0,0,1,0,4.079" transform="translate(9.841 41.657)" fill="#4b8287"/>
      </g>
    </g>
    <text id="Técnico_ou_pessoa_" data-name="Técnico ou pessoa " transform="translate(37.194 246.069)" fill="#35576a" font-size="16" font-family="SourceSans3-Regular, 'Source Sans \33 '"><tspan x="0" y="0" letter-spacing="-0.065em">T</tspan><tspan y="0">écni</tspan><tspan y="0" letter-spacing="-0.021em">c</tspan><tspan y="0">o ou pess</tspan><tspan y="0" letter-spacing="-0.013em">o</tspan><tspan y="0">a </tspan></text>
    <text id="de_referência" data-name="de referência" transform="translate(37.194 265.65)" fill="#35576a" font-size="16" font-family="SourceSans3-Regular, 'Source Sans \33 '"><tspan x="0" y="0">de </tspan><tspan y="0" letter-spacing="-0.009em">r</tspan><tspan y="0">e</tspan><tspan y="0" letter-spacing="-0.009em">f</tspan><tspan y="0">e</tspan><tspan y="0" letter-spacing="-0.009em">r</tspan><tspan y="0">ência</tspan></text>
    <g id="Grupo_464" data-name="Grupo 464">
      <g id="Grupo_463" data-name="Grupo 463" clip-path="url(#clip-path-2)">
        <path id="Caminho_2133" data-name="Caminho 2133" d="M151.421,162.178H29.395a2.04,2.04,0,1,1,0-4.079H151.421a2.04,2.04,0,1,1,0,4.079" transform="translate(9.841 56.874)" fill="#ef9d0c"/>
        <path id="Caminho_2134" data-name="Caminho 2134" d="M874.647,240.019q-14.734,0-21.775-5.05c-8.861-6.377-24.349-10.883-44.783-13.03A274.646,274.646,0,0,0,764.448,221c-12.028.81-19.811-9.492-27.366-19.45-7.449-9.82-14.5-19.095-25.026-18.36a31.431,31.431,0,0,0-8.6,2.3c-.832.307-1.666.615-2.5.9a59.1,59.1,0,0,1-11.457,2.7c-5.991,7.778-12.089,13.569-18.73,17.849-12.057,7.774-26.172,10.042-37.761,6.071a69.144,69.144,0,0,1-7.141-3.059,54.687,54.687,0,0,0-8.214-3.374c-10.852-3.133-89.495.677-102.389,1.829a70.445,70.445,0,0,1-37.548-7.042l-.4-.2c-2.135-1.062-4.34-2.165-6.432-1.838-1.993.309-3.673,1.867-5.051,3.352a87.981,87.981,0,0,0-8.385,11.234,114.281,114.281,0,0,1-6.665,9.3c-6.8,8.264-15.15,12.6-22.909,11.9l-.6-.054-.363-.48c-6.185-8.168-5.813-18.785-5.453-29.051l.086-2.54c.423-13.9-2.815-23.1-9.62-27.354a32.107,32.107,0,0,0-5.945-2.66,43.144,43.144,0,0,1-5.224-2.2c-4.026-2.129-7.723-6.389-6.9-11.108a11.035,11.035,0,0,1,3.179-5.652c5.4-5.669,13.011-7.888,20.374-10.035,2.414-.7,4.909-1.432,7.254-2.265,9.46-3.361,18.044-11.257,16.147-19.843-1.235-5.594-6.414-9.347-11.422-12.975-.869-.631-1.732-1.256-2.57-1.886-6.185-4.657-12.119-12.714-8.485-20.087,1.429-2.9,4.1-4.888,6.251-6.482,5.177-3.845,11.045-8.2,13.48-14.3a13.6,13.6,0,0,0-.472-10.76,8.175,8.175,0,0,0-5.2-4.43c-2.324-.594-5.035-.173-8.531,1.316A39.4,39.4,0,0,0,405.012,69.2l-2.373-1.328a42.14,42.14,0,0,1,20.148-18.1c4.076-1.735,7.339-2.2,10.267-1.451a10.874,10.874,0,0,1,6.951,5.833,16.2,16.2,0,0,1,.572,13c-2.719,6.807-8.917,11.41-14.385,15.47-2.433,1.807-4.378,3.359-5.433,5.5-2.713,5.507,1.9,12.361,7.682,16.712.824.62,1.674,1.236,2.53,1.856,5.419,3.927,11.023,7.987,12.481,14.591,2.237,10.125-7.307,19.229-17.891,22.992-2.42.859-4.953,1.6-7.4,2.313-7.341,2.14-14.275,4.162-19.165,9.3a8.458,8.458,0,0,0-2.469,4.242c-.586,3.373,2.337,6.569,5.5,8.237a40.271,40.271,0,0,0,4.9,2.057,34.493,34.493,0,0,1,6.441,2.9c7.685,4.8,11.352,14.8,10.9,29.743l-.086,2.552c-.336,9.577-.684,19.473,4.543,26.825,9.432.481,17.08-7.466,19.962-10.968,2.351-2.855,4.461-6.02,6.5-9.08a90.34,90.34,0,0,1,8.656-11.577c1.6-1.719,3.8-3.75,6.629-4.187,2.945-.456,5.661.9,8.058,2.091l.4.2a67.739,67.739,0,0,0,36.1,6.77c10.4-.929,91.577-5.141,103.386-1.734a57.967,57.967,0,0,1,8.625,3.529,67.106,67.106,0,0,0,6.857,2.947c10.806,3.7,24.043,1.539,35.406-5.784a70.319,70.319,0,0,0,16.441-15.187,59.154,59.154,0,0,1-11.975-.389c-6.63-.9-10.916-3.337-12.738-7.251-1.517-3.262-.989-6.931-.19-10.407,1.413-6.151,3.421-12.22,5.364-18.087a182.936,182.936,0,0,0,5.638-19.391c1.806-8.527,3.545-24.608-5.085-36.5a79.61,79.61,0,0,0-7.557-8.464c-6.6-6.736-13.43-13.7-11.7-22.977.851-4.547,3.885-8.765,8.539-11.876l.479-.32c16.532-11.053,39.658-25.237,49.574-20.824,10.879,4.841,19.569,13.01,27.971,20.911,2.944,2.762,7.285-.753,13.586-6.436,5.76-5.2,12.292-11.08,17.27-6.4,3.488,3.278,4.449,16.9,5.423,35.776.415,8,.8,15.565,1.55,18.011,3.095,10.164-17.742,41.427-23.234,47.305-7.133,7.64-16.861,11.815-24.539,14.6-.77.28-1.546.555-2.322.831-4.964,1.758-10.1,3.577-14.141,6.825s-6.946,7.895-9.741,12.379l-1.044,1.668q-2.527,4.014-5.049,7.519a56.27,56.27,0,0,0,8.255-2.152c.816-.281,1.629-.581,2.443-.881a34.046,34.046,0,0,1,9.356-2.465c12-.831,19.822,9.466,27.382,19.431,7.447,9.817,14.514,19.073,25.015,18.381,22.173-1.49,69.555-.378,90.2,14.477,9.309,6.7,36.249,9.264,111.721-16.533,2.159-.737,3.463-1.183,4.015-1.338,3.379-.948,8.925-4.34,14.8-7.933,8.778-5.367,17.829-10.921,23.445-10.821.915-.1,4.963-2.522,7.919-4.293,7-4.2,10.009-5.869,11.7-5.375,1.441.415,3.334.751,4.157-.02,1.505-1.411.359-6.591-.651-11.162-.23-1.036-.459-2.08-.673-3.115a36.009,36.009,0,0,1-3.464-7.848,94.09,94.09,0,0,1-2.827-13.886,113.051,113.051,0,0,0-2.083-11.182c-2.257-8.773-6.736-17.154-11.067-25.258-6.305-11.8-12.825-24-12.568-37.6l.039-2.053,1.876.838A148.763,148.763,0,0,0,1034.212,85.6c10.108,1.885,22.078.869,25.337-7.639a22.509,22.509,0,0,0,1.092-5.671,38.383,38.383,0,0,1,.6-4.14,18.148,18.148,0,0,1,8.388-11.395,14.542,14.542,0,0,1,11.5-1.772c4.43,1.263,7.915,5.386,8.876,10.5.851,4.536-.549,8.691-3.749,11.117-.454.344-.95.674-1.452,1.008-1.77,1.176-2.931,2.034-2.953,3.2a4.318,4.318,0,0,0,1.105,2.367,65.434,65.434,0,0,0,8.8,8.993,73.43,73.43,0,0,1,8.5,8.535c5.6,7.011,8.133,17.625,2.121,24.342-3.115,3.478-7.583,4.831-11.9,6.141-4.009,1.214-7.794,2.36-10.436,5.062-5.718,5.847-3.262,16.083-.915,23.276l.541,1.66c2.982,9.11,6.064,18.532,6.368,28.3.368,11.827-3.908,22.432-11.437,28.369a23.2,23.2,0,0,1-16.936,4.6,18.047,18.047,0,0,1-12.3-6.689c-3.043-3.964-4.147-8.853-5.017-13.524a205.309,205.309,0,0,1-2.918-22.584,23.633,23.633,0,0,1-2.649-2.365c1.029,4.917,1.542,9.027-.707,11.135-1.43,1.343-3.646,1.556-6.773.65-1.069.02-6.373,3.2-9.543,5.1-5.58,3.344-7.976,4.7-9.363,4.679-4.778-.107-13.928,5.5-21.977,10.421-6.037,3.693-11.739,7.181-15.48,8.232-.48.133-1.9.62-3.871,1.293-41.337,14.129-72.252,21.216-92.414,21.216M1040.3,181.5a202.284,202.284,0,0,0,2.721,20.244c.809,4.346,1.823,8.88,4.5,12.365A15.362,15.362,0,0,0,1058,219.76a20.461,20.461,0,0,0,14.915-4.036c6.854-5.406,10.743-15.183,10.4-26.15-.291-9.374-3.311-18.607-6.233-27.535l-.544-1.663c-2.564-7.865-5.193-19.118,1.557-26.021,3.13-3.2,7.431-4.5,11.592-5.763,4.143-1.255,8.056-2.441,10.663-5.352,4.951-5.533,2.552-14.862-2.218-20.831a71.439,71.439,0,0,0-8.194-8.21,67.556,67.556,0,0,1-9.151-9.384,6.662,6.662,0,0,1-1.651-4.051c.052-2.681,2.333-4.2,4.167-5.416.453-.3.9-.6,1.313-.91,2.359-1.789,3.376-4.947,2.719-8.447-.76-4.051-3.553-7.423-6.95-8.39a11.866,11.866,0,0,0-9.359,1.49,15.391,15.391,0,0,0-7.125,9.646,35.95,35.95,0,0,0-.555,3.847,24.959,24.959,0,0,1-1.258,6.351c-3.855,10.067-17.187,11.427-28.375,9.34a151.6,151.6,0,0,1-32.1-9.764c.393,12.046,6.153,22.826,12.231,34.2,4.407,8.247,8.965,16.774,11.3,25.862a115.54,115.54,0,0,1,2.136,11.453,92.811,92.811,0,0,0,2.71,13.406,8.351,8.351,0,0,1,1.716-4.754c1.424-1.717,3.678-2.537,6.7-2.448l1.364.044-.048,1.364a202.143,202.143,0,0,0,.329,20.556,16.028,16.028,0,0,0,5.391,2.339l-.593,2.654a18.253,18.253,0,0,1-4.551-1.687M701.5,34.827c-11.713,0-35.2,15.7-43.479,21.239l-.479.32c-3.983,2.661-6.672,6.349-7.377,10.116-1.475,7.881,4.567,14.046,10.964,20.571a81.664,81.664,0,0,1,7.816,8.77c6.856,9.443,8.825,23.173,5.546,38.659a185.461,185.461,0,0,1-5.716,19.684c-1.924,5.807-3.912,11.813-5.3,17.84-.689,3.005-1.167,6.134.007,8.652,1.4,3.02,4.983,4.94,10.636,5.7a56.449,56.449,0,0,0,13.906.147q3.272-4.336,6.536-9.525l1.035-1.658c2.917-4.677,5.932-9.515,10.348-13.062s9.758-5.432,14.935-7.268q1.156-.408,2.3-.823c7.39-2.68,16.74-6.683,23.478-13.9,6.3-6.746,25.093-36.529,22.618-44.658-.84-2.764-1.2-9.781-1.663-18.662-.64-12.4-1.609-31.151-4.569-33.935-2.934-2.76-7.285.753-13.586,6.436-5.761,5.2-12.291,11.083-17.27,6.4-8.239-7.746-16.757-15.755-27.214-20.408a8.559,8.559,0,0,0-3.481-.638M1033.46,171.178a24.859,24.859,0,0,0,3.723,4.69q-.461-8.434-.227-16.876a4.432,4.432,0,0,0-3.155,1.425c-1.71,2.063-1.22,6.355-.341,10.761" transform="translate(141.638 11.567)" fill="#ef9d0c"/>
      </g>
    </g>
  </g>
</svg>
