<?xml version="1.0" encoding="UTF-8"?>
<svg id="_Ñëîé_1" data-name="Ñëîé 1" xmlns="http://www.w3.org/2000/svg" viewBox="0 0 80 80">
  <defs>
    <style>
      .cls-1 {
        fill: #fff;
      }

      .cls-2 {
        fill: #bd5334;
      }
    </style>
  </defs>
  <circle class="cls-2" cx="40" cy="40" r="34.57"/>
  <g>
    <path class="cls-1" d="M49.14,39.19c-.1-.18-.12-.38-.07-.58l1.04-3.76-8.18,3.13.44,1.34h1.89c.3,0,.58.18.71.45.15.33,3.63,8.15,3.7,28.53l4.79,1.68c.48-3.9,1.89-19.36-4.31-30.81Z"/>
    <path class="cls-1" d="M43.44,32.52v3.23l4.1-1.57-2.17-3.72c-.48.83-1.14,1.53-1.93,2.06Z"/>
    <path class="cls-1" d="M40.87,10h-.09v11.18c1.06.13,2.04.54,2.87,1.14l-2.78-12.32Z"/>
    <path class="cls-1" d="M39.22,10h-.09l-2.77,12.32c.83-.6,1.8-1,2.87-1.14v-11.18Z"/>
    <circle class="cls-1" cx="40" cy="27.35" r="4.67"/>
    <path class="cls-1" d="M36.56,32.52c-.79-.53-1.46-1.24-1.94-2.06l-2.17,3.72,4.1,1.57v-3.23Z"/>
    <path class="cls-1" d="M30.93,38.62c.05.19.03.4-.07.58-6.2,11.45-4.8,26.91-4.31,30.81l4.79-1.68c.06-20.39,3.55-28.21,3.7-28.53.13-.28.4-.45.71-.45h1.89l.44-1.34-8.18-3.13,1.04,3.76Z"/>
  </g>
</svg>