<svg id="Seta02" xmlns="http://www.w3.org/2000/svg" xmlns:xlink="http://www.w3.org/1999/xlink" width="333" height="95.474" viewBox="0 0 333 95.474">
  <defs>
    <clipPath id="clip-path">
      <rect id="Retângulo_68" data-name="Retângulo 68" width="333" height="95.474" fill="none"/>
    </clipPath>
  </defs>
  <g id="Grupo_85" data-name="Grupo 85" clip-path="url(#clip-path)">
    <path id="Caminho_343" data-name="Caminho 343" d="M38.3,189.374c.069,0,.139,0,.208-.009,1.88-.166,3.8-.38,5.707-.637a2.348,2.348,0,0,0-.627-4.653c-1.835.247-3.683.453-5.491.613a2.348,2.348,0,0,0,.2,4.686" transform="translate(-19.075 -97.633)" fill="#b6492e"/>
    <path id="Caminho_344" data-name="Caminho 344" d="M108.488,172.667a2.348,2.348,0,0,0,.751-.124c1.775-.6,3.584-1.241,5.378-1.908a2.348,2.348,0,1,0-1.637-4.4c-1.749.651-3.512,1.276-5.242,1.86a2.348,2.348,0,0,0,.75,4.573" transform="translate(-56.303 -88.103)" fill="#b6492e"/>
    <path id="Caminho_345" data-name="Caminho 345" d="M2.2,190.56c1.9.122,3.833.194,5.754.216h.027A2.348,2.348,0,0,0,8,186.081c-1.838-.021-3.69-.09-5.506-.207a2.348,2.348,0,1,0-.3,4.686" transform="translate(0 -98.597)" fill="#b6492e"/>
    <path id="Caminho_346" data-name="Caminho 346" d="M329.651,52.051a2.339,2.339,0,0,0,1.118-.285c1.665-.9,3.327-1.788,4.938-2.626a2.348,2.348,0,1,0-2.167-4.165c-1.636.851-3.322,1.748-5.011,2.664a2.348,2.348,0,0,0,1.122,4.412" transform="translate(-173.62 -23.717)" fill="#b6492e"/>
    <path id="Caminho_347" data-name="Caminho 347" d="M298.381,69.649a2.337,2.337,0,0,0,1.2-.329q2.413-1.432,4.839-2.839a2.347,2.347,0,1,0-2.354-4.062q-2.448,1.418-4.881,2.863a2.348,2.348,0,0,0,1.2,4.367" transform="translate(-157.032 -32.942)" fill="#b6492e"/>
    <path id="Caminho_348" data-name="Caminho 348" d="M212.955,119.324a2.348,2.348,0,0,0-3.217-.822q-2.413,1.43-4.84,2.836a2.348,2.348,0,1,0,2.352,4.063q2.448-1.417,4.882-2.861a2.348,2.348,0,0,0,.822-3.217" transform="translate(-108.069 -62.686)" fill="#b6492e"/>
    <path id="Caminho_349" data-name="Caminho 349" d="M267.616,88.229a2.336,2.336,0,0,0,1.231-.35q2.395-1.478,4.793-2.947a2.348,2.348,0,0,0-2.452-4q-2.406,1.473-4.806,2.956a2.348,2.348,0,0,0,1.235,4.346" transform="translate(-140.713 -42.745)" fill="#b6492e"/>
    <path id="Caminho_350" data-name="Caminho 350" d="M361.754,36.135a2.334,2.334,0,0,0,.994-.222c1.336-.625,2.684-1.241,4.006-1.829q.535-.238,1.071-.473a2.348,2.348,0,0,0-1.884-4.3q-.549.24-1.1.484c-1.35.6-2.726,1.229-4.088,1.867a2.348,2.348,0,0,0,1,4.474" transform="translate(-190.65 -15.443)" fill="#b6492e"/>
    <path id="Caminho_351" data-name="Caminho 351" d="M174.535,143.311a2.337,2.337,0,0,0,1.076-.262c1.644-.849,3.333-1.742,5.02-2.654a2.348,2.348,0,1,0-2.232-4.131c-1.662.9-3.325,1.777-4.943,2.613a2.348,2.348,0,0,0,1.079,4.434" transform="translate(-91.337 -72.132)" fill="#b6492e"/>
    <path id="Caminho_352" data-name="Caminho 352" d="M73.843,183.025a2.356,2.356,0,0,0,.511-.056c1.837-.408,3.708-.861,5.563-1.348a2.348,2.348,0,0,0-1.193-4.541c-1.8.472-3.609.911-5.387,1.306a2.348,2.348,0,0,0,.506,4.64" transform="translate(-37.926 -93.893)" fill="#b6492e"/>
    <path id="Caminho_353" data-name="Caminho 353" d="M628.234,65.049a2.348,2.348,0,0,0,3.833-2.712c-1.117-1.578-2.284-3.13-3.471-4.614a2.348,2.348,0,1,0-3.666,2.933c1.129,1.411,2.24,2.889,3.3,4.392" transform="translate(-331.228 -30.152)" fill="#b6492e"/>
    <path id="Caminho_354" data-name="Caminho 354" d="M604.225,38.926a2.348,2.348,0,0,0,3.247-3.391c-1.422-1.362-2.885-2.66-4.35-3.86a2.348,2.348,0,0,0-2.976,3.632c1.37,1.123,2.743,2.341,4.078,3.62" transform="translate(-317.899 -16.52)" fill="#b6492e"/>
    <path id="Caminho_355" data-name="Caminho 355" d="M570.094,17.09a45.9,45.9,0,0,1,4.843,2.285,2.348,2.348,0,0,0,2.242-4.125,50.647,50.647,0,0,0-5.341-2.519,2.348,2.348,0,0,0-1.745,4.359" transform="translate(-301.629 -6.664)" fill="#b6492e"/>
    <path id="Caminho_356" data-name="Caminho 356" d="M659.356,122.665c.621,1.741,1.193,3.5,1.7,5.229a2.348,2.348,0,1,0,4.507-1.317c-.531-1.817-1.13-3.664-1.782-5.49a2.348,2.348,0,1,0-4.422,1.578" transform="translate(-349.69 -63.405)" fill="#b6492e"/>
    <path id="Caminho_357" data-name="Caminho 357" d="M394.938,22.733a2.347,2.347,0,0,0,.811-.146c1.739-.64,3.5-1.259,5.246-1.839a2.348,2.348,0,0,0-1.482-4.455c-1.789.6-3.6,1.231-5.387,1.888a2.348,2.348,0,0,0,.812,4.551" transform="translate(-208.253 -8.579)" fill="#b6492e"/>
    <path id="Caminho_358" data-name="Caminho 358" d="M647.215,95.134a2.348,2.348,0,1,0,4.223-2.052c-.835-1.719-1.729-3.439-2.656-5.113a2.348,2.348,0,1,0-4.108,2.275c.887,1.6,1.741,3.246,2.54,4.89" transform="translate(-341.819 -46.022)" fill="#b6492e"/>
    <path id="Caminho_359" data-name="Caminho 359" d="M535.886,7.783c1.808.314,3.618.686,5.379,1.1a2.348,2.348,0,1,0,1.083-4.569c-1.853-.439-3.756-.83-5.657-1.161a2.348,2.348,0,0,0-.8,4.626" transform="translate(-283.234 -1.656)" fill="#b6492e"/>
    <path id="Caminho_360" data-name="Caminho 360" d="M464.569,6.367a2.364,2.364,0,0,0,.318-.022c1.838-.249,3.686-.458,5.5-.623a2.348,2.348,0,0,0-.424-4.676c-1.878.171-3.8.388-5.7.647a2.348,2.348,0,0,0,.313,4.674" transform="translate(-245.192 -0.55)" fill="#b6492e"/>
    <path id="Caminho_361" data-name="Caminho 361" d="M243.772,100.6a2.348,2.348,0,0,0-3.231-.765q-2.393,1.478-4.793,2.947a2.348,2.348,0,1,0,2.451,4q2.406-1.473,4.807-2.955a2.348,2.348,0,0,0,.765-3.231" transform="translate(-124.46 -52.774)" fill="#b6492e"/>
    <path id="Caminho_362" data-name="Caminho 362" d="M429.271,12.59a2.354,2.354,0,0,0,.588-.075c1.8-.465,3.617-.9,5.4-1.287a2.348,2.348,0,1,0-1-4.587c-1.836.4-3.708.849-5.565,1.328a2.348,2.348,0,0,0,.585,4.622" transform="translate(-226.467 -3.493)" fill="#b6492e"/>
    <path id="Caminho_363" data-name="Caminho 363" d="M500.452,4.7c1.846.011,3.7.07,5.508.176.046,0,.093,0,.139,0a2.348,2.348,0,0,0,.135-4.691C504.344.074,502.408.011,500.48,0h-.015a2.348,2.348,0,0,0-.014,4.7" transform="translate(-264.232)" fill="#b6492e"/>
    <path id="Caminho_364" data-name="Caminho 364" d="M146.2,152.389c-1.7.791-3.414,1.561-5.087,2.289a2.347,2.347,0,1,0,1.873,4.3c1.708-.743,3.454-1.529,5.191-2.335a2.348,2.348,0,1,0-1.977-4.259" transform="translate(-74.104 -80.72)" fill="#b6492e"/>
    <path id="Caminho_365" data-name="Caminho 365" d="M633.147,134.918c7.369,8.011,14.472,21.062,18.712,31.62,3.669-10.769,10.068-24.179,17-32.571L651.177,140.9Z" transform="translate(-335.86 -71.065)" fill="#b6492e"/>
  </g>
</svg>
