<svg id="Seta08" xmlns="http://www.w3.org/2000/svg" xmlns:xlink="http://www.w3.org/1999/xlink" width="140.562" height="350" viewBox="0 0 140.562 350">
  <defs>
    <clipPath id="clip-path">
      <rect id="Retângulo_74" data-name="Retângulo 74" width="140.562" height="350" fill="none"/>
    </clipPath>
  </defs>
  <g id="Grupo_97" data-name="Grupo 97" clip-path="url(#clip-path)">
    <path id="Caminho_510" data-name="Caminho 510" d="M186.031,375.907a2.767,2.767,0,1,0-4.159,3.652c1.415,1.611,2.816,3.29,4.164,4.992a2.767,2.767,0,1,0,4.338-3.437c-1.405-1.774-2.867-3.527-4.343-5.207" transform="translate(-80.903 -167.431)" fill="#b6492e"/>
    <path id="Caminho_511" data-name="Caminho 511" d="M246.656,539.8h-.046a2.767,2.767,0,0,0-2.722,2.812q.018,1.126.018,2.254c0,1.406-.022,2.838-.066,4.254a2.767,2.767,0,0,0,2.679,2.853l.089,0a2.767,2.767,0,0,0,2.764-2.68c.046-1.474.07-2.965.069-4.429q0-1.171-.019-2.343a2.767,2.767,0,0,0-2.766-2.723" transform="translate(-108.879 -241.034)" fill="#b6492e"/>
    <path id="Caminho_512" data-name="Caminho 512" d="M236.534,611.038a2.766,2.766,0,0,0-3.427,1.89c-.6,2.075-1.262,4.157-1.968,6.189a2.767,2.767,0,1,0,5.228,1.817c.738-2.124,1.43-4.3,2.057-6.469a2.766,2.766,0,0,0-1.89-3.427" transform="translate(-103.14 -272.793)" fill="#b6492e"/>
    <path id="Caminho_513" data-name="Caminho 513" d="M228.056,443.075c-.843-2.084-1.745-4.175-2.682-6.215a2.767,2.767,0,1,0-5.03,2.309c.9,1.964,1.77,3.977,2.581,5.982a2.768,2.768,0,1,0,5.131-2.076" transform="translate(-98.275 -194.347)" fill="#b6492e"/>
    <path id="Caminho_514" data-name="Caminho 514" d="M136.454,332.64c-1.71-1.232-3.5-2.493-5.482-3.855a2.767,2.767,0,1,0-3.137,4.56c1.945,1.339,3.707,2.578,5.384,3.786a2.767,2.767,0,1,0,3.236-4.49" transform="translate(-56.545 -146.592)" fill="#b6492e"/>
    <path id="Caminho_515" data-name="Caminho 515" d="M161.437,351.728q-.72-.618-1.447-1.225a2.767,2.767,0,1,0-3.549,4.247q.7.585,1.393,1.179c1.178,1.01,2.351,2.056,3.488,3.108a2.767,2.767,0,0,0,3.761-4.06c-1.189-1.1-2.415-2.195-3.646-3.249" transform="translate(-69.411 -156.22)" fill="#b6492e"/>
    <path id="Caminho_516" data-name="Caminho 516" d="M244.229,575.738a2.771,2.771,0,0,0-3.1,2.39c-.277,2.143-.612,4.3-.995,6.425a2.767,2.767,0,1,0,5.446.985c.4-2.212.75-4.466,1.038-6.7a2.767,2.767,0,0,0-2.39-3.1" transform="translate(-107.206 -257.069)" fill="#b6492e"/>
    <path id="Caminho_517" data-name="Caminho 517" d="M0,169.3c.013,2.284.124,4.594.329,6.866a2.766,2.766,0,0,0,2.752,2.518c.084,0,.168,0,.252-.011a2.767,2.767,0,0,0,2.507-3.005c-.192-2.118-.3-4.271-.307-6.4a2.767,2.767,0,0,0-2.767-2.751H2.752A2.767,2.767,0,0,0,0,169.3" transform="translate(0 -74.352)" fill="#b6492e"/>
    <path id="Caminho_518" data-name="Caminho 518" d="M4.7,142.919a2.769,2.769,0,0,0,2.726-2.307c.354-2.1.806-4.206,1.342-6.252a2.767,2.767,0,0,0-5.354-1.4c-.577,2.2-1.063,4.468-1.446,6.732a2.768,2.768,0,0,0,2.269,3.19,2.815,2.815,0,0,0,.464.039" transform="translate(-0.859 -58.445)" fill="#b6492e"/>
    <path id="Caminho_519" data-name="Caminho 519" d="M6.9,212.147a2.767,2.767,0,1,0,5.2-1.884c-.721-1.992-1.364-4.046-1.914-6.107a2.767,2.767,0,0,0-5.348,1.425C5.43,207.8,6.123,210,6.9,212.147" transform="translate(-2.119 -90.243)" fill="#b6492e"/>
    <path id="Caminho_520" data-name="Caminho 520" d="M207.916,404.962a2.767,2.767,0,0,0-4.654,3c1.166,1.812,2.307,3.681,3.392,5.556a2.767,2.767,0,1,0,4.791-2.771c-1.128-1.951-2.316-3.9-3.529-5.781" transform="translate(-90.564 -180.258)" fill="#b6492e"/>
    <path id="Caminho_521" data-name="Caminho 521" d="M243.155,504a2.768,2.768,0,0,0-2.3,3.164c.336,2.134.627,4.306.863,6.456a2.768,2.768,0,0,0,2.747,2.464,2.875,2.875,0,0,0,.307-.017,2.768,2.768,0,0,0,2.447-3.054c-.246-2.234-.548-4.491-.9-6.71a2.767,2.767,0,0,0-3.164-2.3" transform="translate(-107.53 -225.032)" fill="#b6492e"/>
    <path id="Caminho_522" data-name="Caminho 522" d="M18,107.923a51.348,51.348,0,0,1,3.278-5.376,2.767,2.767,0,0,0-4.548-3.154,56.859,56.859,0,0,0-3.631,5.959,2.767,2.767,0,1,0,4.9,2.571" transform="translate(-5.708 -43.849)" fill="#b6492e"/>
    <path id="Caminho_523" data-name="Caminho 523" d="M240.033,477.386c-.55-2.178-1.158-4.372-1.805-6.521a2.767,2.767,0,1,0-5.3,1.6c.624,2.069,1.209,4.182,1.738,6.28a2.767,2.767,0,1,0,5.366-1.355" transform="translate(-103.955 -209.372)" fill="#b6492e"/>
    <path id="Caminho_524" data-name="Caminho 524" d="M66.683,59.4c1.775-1.192,3.62-2.359,5.485-3.469a2.767,2.767,0,0,0-2.83-4.757c-1.952,1.161-3.883,2.383-5.741,3.631A2.768,2.768,0,1,0,66.683,59.4" transform="translate(-27.851 -22.675)" fill="#b6492e"/>
    <path id="Caminho_525" data-name="Caminho 525" d="M106.526,312.428q-2.768-1.831-5.526-3.666a2.767,2.767,0,0,0-3.072,4.6q2.765,1.845,5.545,3.678a2.767,2.767,0,0,0,3.053-4.616" transform="translate(-43.177 -137.661)" fill="#b6492e"/>
    <path id="Caminho_526" data-name="Caminho 526" d="M45.042,264.642a2.767,2.767,0,1,0-3.992,3.833c1.526,1.589,3.163,3.19,4.866,4.76a2.767,2.767,0,1,0,3.752-4.069c-1.621-1.494-3.177-3.017-4.625-4.525" transform="translate(-17.985 -117.789)" fill="#b6492e"/>
    <path id="Caminho_527" data-name="Caminho 527" d="M97.67,42.727c1.949-.906,3.957-1.781,5.966-2.6A2.767,2.767,0,0,0,101.549,35c-2.092.851-4.182,1.762-6.212,2.705a2.767,2.767,0,1,0,2.333,5.019" transform="translate(-41.855 -15.538)" fill="#b6492e"/>
    <path id="Caminho_528" data-name="Caminho 528" d="M76.989,292.027c-1.881-1.35-3.606-2.626-5.272-3.9a2.767,2.767,0,0,0-3.363,4.4c1.711,1.31,3.481,2.618,5.409,4a2.767,2.767,0,0,0,3.227-4.5" transform="translate(-30.037 -128.4)" fill="#b6492e"/>
    <path id="Caminho_529" data-name="Caminho 529" d="M25.077,239.023c-.5-.778-.984-1.579-1.451-2.379a2.767,2.767,0,1,0-4.783,2.785c.5.866,1.032,1.73,1.569,2.572.688,1.078,1.415,2.159,2.16,3.213a2.768,2.768,0,0,0,4.52-3.2c-.7-.982-1.373-1.991-2.015-3" transform="translate(-8.246 -105.052)" fill="#b6492e"/>
    <path id="Caminho_530" data-name="Caminho 530" d="M43.944,76.588A2.767,2.767,0,0,0,40.32,72.4c-1.749,1.515-3.434,3.081-5.01,4.654a2.768,2.768,0,0,0,3.912,3.916c1.482-1.481,3.072-2.957,4.722-4.386" transform="translate(-15.404 -32.028)" fill="#b6492e"/>
    <path id="Caminho_531" data-name="Caminho 531" d="M114.964,18.91l-2.886,22.207c7.62-10.322,21.133-21.467,32.4-28.739C131.194,10.543,114.241,6.142,102.977,0Z" transform="translate(-45.982 0)" fill="#b6492e"/>
  </g>
</svg>
